<?xml version="1.0" encoding="UTF-8"?>
<svg id="Vrstva_1" xmlns="http://www.w3.org/2000/svg" version="1.1" viewBox="0 0 100 18.8">
  <!-- Generator: Adobe Illustrator 30.1.0, SVG Export Plug-In . SVG Version: 2.1.1 Build 136)  -->
  <defs>
    <style>
      .st0 {
        fill: #fff;
      }
    </style>
  </defs>
  <rect class="st0" x=".87" y=".69" width="3.02" height="3.02" transform="translate(.18 4.58) rotate(-90)"/>
  <rect class="st0" x="4.54" y=".69" width="3.02" height="3.02" transform="translate(3.85 8.25) rotate(-90)"/>
  <rect class="st0" x="8.21" y=".69" width="3.02" height="3.02" transform="translate(7.52 11.92) rotate(-90)"/>
  <rect class="st0" x=".87" y="4.21" width="3.02" height="3.02" transform="translate(-3.34 8.1) rotate(-90)"/>
  <rect class="st0" x=".87" y="7.73" width="3.02" height="3.02" transform="translate(-6.86 11.62) rotate(-90)"/>
  <rect class="st0" x=".87" y="11.25" width="3.02" height="3.02" transform="translate(-10.37 15.13) rotate(-90)"/>
  <rect class="st0" x="8.21" y="7.73" width="3.02" height="3.02" transform="translate(.49 18.96) rotate(-90)"/>
  <rect class="st0" x="8.21" y="4.21" width="3.02" height="3.02" transform="translate(4 15.44) rotate(-90)"/>
  <rect class="st0" x=".87" y="14.76" width="3.02" height="3.02" transform="translate(-13.89 18.65) rotate(-90)"/>
  <rect class="st0" x="4.54" y="7.73" width="3.02" height="3.02" transform="translate(-3.19 15.29) rotate(-90)"/>
  <rect class="st0" x="15.53" y=".69" width="3.02" height="3.02" transform="translate(14.84 19.24) rotate(-90)"/>
  <rect class="st0" x="19.2" y=".69" width="3.02" height="3.02" transform="translate(18.51 22.91) rotate(-90)"/>
  <rect class="st0" x="22.87" y=".69" width="3.02" height="3.02" transform="translate(22.18 26.58) rotate(-90)"/>
  <rect class="st0" x="15.53" y="4.21" width="3.02" height="3.02" transform="translate(11.32 22.76) rotate(-90)"/>
  <rect class="st0" x="15.53" y="7.73" width="3.02" height="3.02" transform="translate(7.81 26.28) rotate(-90)"/>
  <rect class="st0" x="15.53" y="11.25" width="3.02" height="3.02" transform="translate(4.29 29.79) rotate(-90)"/>
  <rect class="st0" x="22.87" y="7.73" width="3.02" height="3.02" transform="translate(15.15 33.62) rotate(-90)"/>
  <rect class="st0" x="15.53" y="14.76" width="3.02" height="3.02" transform="translate(.77 33.31) rotate(-90)"/>
  <rect class="st0" x="19.2" y="7.73" width="3.02" height="3.02" transform="translate(11.48 29.95) rotate(-90)"/>
  <rect class="st0" x="19.2" y="14.76" width="3.02" height="3.02"/>
  <rect class="st0" x="22.87" y="14.76" width="3.02" height="3.02"/>
  <rect class="st0" x="30.19" y=".69" width="3.02" height="3.02" transform="translate(29.5 33.9) rotate(-90)"/>
  <rect class="st0" x="37.54" y=".69" width="3.02" height="3.02" transform="translate(36.84 41.25) rotate(-90)"/>
  <rect class="st0" x="30.19" y="4.21" width="3.02" height="3.02" transform="translate(25.98 37.42) rotate(-90)"/>
  <rect class="st0" x="30.19" y="7.73" width="3.02" height="3.02" transform="translate(22.47 40.94) rotate(-90)"/>
  <rect class="st0" x="30.19" y="11.25" width="3.02" height="3.02" transform="translate(18.95 44.46) rotate(-90)"/>
  <rect class="st0" x="33.87" y="4.21" width="3.02" height="3.02" transform="translate(29.65 41.09) rotate(-90)"/>
  <rect class="st0" x="30.19" y="14.76" width="3.02" height="3.02" transform="translate(15.43 47.97) rotate(-90)"/>
  <rect class="st0" x="33.87" y="11.25" width="3.02" height="3.02"/>
  <rect class="st0" x="37.54" y="14.76" width="3.02" height="3.02"/>
  <rect class="st0" x="44.86" y=".69" width="3.02" height="3.02" transform="translate(44.16 48.57) rotate(-90)"/>
  <rect class="st0" x="48.53" y=".69" width="3.02" height="3.02" transform="translate(47.83 52.24) rotate(-90)"/>
  <rect class="st0" x="52.2" y=".69" width="3.02" height="3.02" transform="translate(51.5 55.91) rotate(-90)"/>
  <rect class="st0" x="44.86" y="4.21" width="3.02" height="3.02" transform="translate(40.64 52.08) rotate(-90)"/>
  <rect class="st0" x="44.86" y="7.73" width="3.02" height="3.02" transform="translate(37.13 55.6) rotate(-90)"/>
  <rect class="st0" x="52.2" y="7.73" width="3.02" height="3.02" transform="translate(44.47 62.94) rotate(-90)"/>
  <rect class="st0" x="44.86" y="14.76" width="3.02" height="3.02" transform="translate(30.09 62.63) rotate(-90)"/>
  <rect class="st0" x="48.53" y="7.73" width="3.02" height="3.02" transform="translate(40.8 59.27) rotate(-90)"/>
  <rect class="st0" x="48.53" y="14.76" width="3.02" height="3.02"/>
  <rect class="st0" x="52.2" y="14.76" width="3.02" height="3.02"/>
  <rect class="st0" x="52.2" y="11.25" width="3.02" height="3.02"/>
  <rect class="st0" x="59.52" y=".69" width="3.02" height="3.02" transform="translate(58.82 63.23) rotate(-90)"/>
  <rect class="st0" x="63.19" y=".69" width="3.02" height="3.02" transform="translate(62.49 66.9) rotate(-90)"/>
  <rect class="st0" x="66.86" y=".69" width="3.02" height="3.02" transform="translate(66.16 70.57) rotate(-90)"/>
  <rect class="st0" x="59.52" y="4.21" width="3.02" height="3.02" transform="translate(55.31 66.74) rotate(-90)"/>
  <rect class="st0" x="59.52" y="7.73" width="3.02" height="3.02" transform="translate(51.79 70.26) rotate(-90)"/>
  <rect class="st0" x="59.52" y="11.25" width="3.02" height="3.02" transform="translate(48.27 73.78) rotate(-90)"/>
  <rect class="st0" x="66.86" y="7.73" width="3.02" height="3.02" transform="translate(59.13 77.6) rotate(-90)"/>
  <rect class="st0" x="59.52" y="14.76" width="3.02" height="3.02" transform="translate(44.75 77.3) rotate(-90)"/>
  <rect class="st0" x="63.19" y="7.73" width="3.02" height="3.02" transform="translate(55.46 73.93) rotate(-90)"/>
  <rect class="st0" x="63.19" y="14.76" width="3.02" height="3.02"/>
  <rect class="st0" x="66.86" y="14.76" width="3.02" height="3.02"/>
  <rect class="st0" x="74.18" y=".69" width="3.02" height="3.02" transform="translate(73.48 77.89) rotate(-90)"/>
  <rect class="st0" x="77.85" y=".69" width="3.02" height="3.02" transform="translate(77.16 81.56) rotate(-90)"/>
  <rect class="st0" x="81.52" y=".69" width="3.02" height="3.02" transform="translate(80.83 85.23) rotate(-90)"/>
  <rect class="st0" x="74.18" y="4.21" width="3.02" height="3.02" transform="translate(69.97 81.41) rotate(-90)"/>
  <rect class="st0" x="74.18" y="7.73" width="3.02" height="3.02" transform="translate(66.45 84.92) rotate(-90)"/>
  <rect class="st0" x="81.52" y="7.73" width="3.02" height="3.02" transform="translate(73.79 92.26) rotate(-90)"/>
  <rect class="st0" x="74.18" y="14.76" width="3.02" height="3.02" transform="translate(59.42 91.96) rotate(-90)"/>
  <rect class="st0" x="77.85" y="7.73" width="3.02" height="3.02" transform="translate(70.12 88.59) rotate(-90)"/>
  <rect class="st0" x="77.85" y="14.76" width="3.02" height="3.02"/>
  <rect class="st0" x="81.52" y="14.76" width="3.02" height="3.02"/>
  <rect class="st0" x="81.52" y="11.25" width="3.02" height="3.02"/>
  <rect class="st0" x="88.84" y=".69" width="3.02" height="3.02" transform="translate(88.15 92.55) rotate(-90)"/>
  <rect class="st0" x="92.51" y=".69" width="3.02" height="3.02" transform="translate(91.82 96.22) rotate(-90)"/>
  <rect class="st0" x="96.18" y=".69" width="3.02" height="3.02" transform="translate(95.49 99.89) rotate(-90)"/>
  <rect class="st0" x="88.84" y="4.21" width="3.02" height="3.02" transform="translate(84.63 96.07) rotate(-90)"/>
  <rect class="st0" x="88.84" y="7.73" width="3.02" height="3.02" transform="translate(81.11 99.58) rotate(-90)"/>
  <rect class="st0" x="88.84" y="11.25" width="3.02" height="3.02" transform="translate(77.59 103.1) rotate(-90)"/>
  <rect class="st0" x="96.18" y="7.73" width="3.02" height="3.02" transform="translate(88.45 106.93) rotate(-90)"/>
  <rect class="st0" x="96.18" y="4.21" width="3.02" height="3.02" transform="translate(91.97 103.41) rotate(-90)"/>
  <rect class="st0" x="88.84" y="14.76" width="3.02" height="3.02" transform="translate(74.08 106.62) rotate(-90)"/>
  <rect class="st0" x="92.51" y="14.76" width="3.02" height="3.02"/>
  <rect class="st0" x="96.18" y="14.76" width="3.02" height="3.02"/>
  <rect class="st0" x="96.18" y="11.25" width="3.02" height="3.02"/>
</svg>