<?xml version="1.0" encoding="UTF-8"?>
<svg id="Vrstva_1" xmlns="http://www.w3.org/2000/svg" version="1.1" viewBox="0 0 181.89 38">
  <!-- Generator: Adobe Illustrator 30.2.1, SVG Export Plug-In . SVG Version: 2.1.1 Build 1)  -->
  <defs>
    <style>
      .st0 {
        fill: #ffd23f;
      }
    </style>
  </defs>
  <path class="st0" d="M9.75,4.45c1.58,0,2.96.28,4.13.87s2.09,1.4,2.73,2.45c.67,1.05.99,2.33.99,3.79s-.32,2.71-.99,3.79c-.67,1.05-1.58,1.88-2.73,2.45-1.17.57-2.53.87-4.13.87h-5.41v9.13H1.51V4.45s8.24,0,8.24,0ZM9.33,16.01c1.84,0,3.18-.38,4.03-1.15s1.28-1.86,1.28-3.3-.43-2.57-1.28-3.32-2.19-1.13-4.03-1.13h-4.98v8.91h4.98Z"/>
  <path class="st0" d="M23.08,27.8V4.45h16.38v2.65h-13.55v7.53h10.55v2.65h-10.55v7.86h14.07v2.65s-16.91,0-16.91,0Z"/>
  <path class="st0" d="M52.97,4.45h-5.41v26.81h5.41v2.47h-8.06V1.98h8.06v2.47Z"/>
  <path class="st0" d="M60.78,4.45v23.35h-2.84V4.45h2.84ZM76.25,4.45l-10.19,10.43-.43.47-6.26,6.4v-3.83l13.16-13.47s3.71,0,3.71,0ZM66.35,13.08l10,14.72h-3.4l-8.95-13.12,2.33-1.6h.02Z"/>
  <path class="st0" d="M87.92,4.11c2.05,0,3.83.43,5.31,1.26,1.48.83,2.73,2.07,3.71,3.71l-2.37,1.84c-.87-1.5-1.86-2.57-2.96-3.2s-2.43-.93-3.97-.93c-1.26,0-2.29.18-3.1.53s-1.42.83-1.78,1.4c-.38.59-.57,1.24-.57,1.96,0,.83.26,1.56.77,2.17.53.63,1.56,1.11,3.12,1.46l5.06,1.13c2.25.49,3.81,1.24,4.68,2.25.89.99,1.32,2.25,1.32,3.73,0,1.32-.36,2.49-1.11,3.52s-1.78,1.82-3.14,2.39c-1.34.57-2.92.85-4.74.85-1.7,0-3.2-.22-4.48-.69s-2.39-1.07-3.3-1.86c-.91-.77-1.68-1.64-2.27-2.61l2.47-2.03c.45.89,1.03,1.68,1.74,2.37.71.69,1.56,1.22,2.57,1.6s2.15.57,3.44.57c1.19,0,2.25-.14,3.14-.45.89-.28,1.56-.73,2.05-1.32.47-.57.71-1.28.71-2.11,0-.75-.24-1.44-.75-2.03-.49-.61-1.42-1.05-2.79-1.36l-5.49-1.24c-1.44-.32-2.59-.79-3.48-1.36-.89-.57-1.52-1.26-1.9-2.05s-.59-1.64-.59-2.57c0-1.26.34-2.39,1.05-3.44.69-1.05,1.7-1.88,3-2.53,1.32-.63,2.86-.95,4.66-.95v-.02Z"/>
  <path class="st0" d="M99.66,31.26h5.41V4.45h-5.41V1.98h8.06v31.77h-8.06v-2.49Z"/>
  <path class="st0" d="M114.63,27.8V4.45h16.38v2.65h-13.55v7.53h10.53v2.65h-10.53v7.86h14.07v2.65s-16.91,0-16.91,0Z"/>
  <path class="st0" d="M144.68,4.11c2.05,0,3.83.43,5.31,1.26,1.48.83,2.73,2.07,3.71,3.71l-2.37,1.84c-.87-1.5-1.86-2.57-2.96-3.2s-2.43-.93-3.99-.93c-1.26,0-2.29.18-3.1.53-.81.34-1.42.83-1.78,1.4-.38.59-.57,1.24-.57,1.96,0,.83.26,1.56.79,2.17.53.63,1.56,1.11,3.12,1.46l5.06,1.13c2.25.49,3.81,1.24,4.68,2.25.89.99,1.34,2.25,1.34,3.73,0,1.32-.36,2.49-1.11,3.52s-1.78,1.82-3.14,2.39c-1.36.57-2.94.85-4.74.85-1.7,0-3.2-.22-4.48-.69-1.28-.47-2.39-1.07-3.3-1.86-.91-.77-1.68-1.64-2.27-2.61l2.47-2.03c.45.89,1.03,1.68,1.74,2.37s1.56,1.22,2.57,1.6,2.15.57,3.44.57c1.19,0,2.25-.14,3.14-.45.89-.28,1.56-.73,2.03-1.32.47-.57.71-1.28.71-2.11,0-.75-.24-1.44-.75-2.03-.51-.61-1.44-1.05-2.79-1.36l-5.49-1.24c-1.44-.32-2.59-.79-3.48-1.36s-1.52-1.26-1.9-2.05-.59-1.64-.59-2.57c0-1.26.34-2.39,1.05-3.44s1.7-1.88,3-2.53,2.86-.95,4.66-.95v-.02Z"/>
  <path class="st0" d="M169.28,4.11c2.21,0,4.13.49,5.75,1.46s2.88,2.37,3.75,4.15c.89,1.78,1.34,3.93,1.34,6.4s-.45,4.62-1.34,6.4c-.87,1.78-2.13,3.18-3.75,4.15s-3.52,1.46-5.75,1.46-4.13-.49-5.75-1.46c-1.62-.97-2.88-2.37-3.75-4.15s-1.32-3.93-1.32-6.4.45-4.62,1.32-6.4,2.13-3.18,3.75-4.15c1.62-.97,3.52-1.46,5.75-1.46ZM169.28,6.76c-1.6,0-3,.36-4.17,1.11s-2.09,1.82-2.73,3.22c-.63,1.4-.95,3.08-.95,5.04s.32,3.65.95,5.04c.65,1.4,1.54,2.47,2.73,3.22s2.57,1.11,4.17,1.11,3.02-.36,4.19-1.11,2.07-1.82,2.69-3.22c.65-1.4.95-3.08.95-5.04s-.32-3.65-.95-5.04c-.63-1.4-1.54-2.47-2.69-3.22-1.17-.75-2.57-1.11-4.19-1.11Z"/>
</svg>