<?xml version="1.0" encoding="UTF-8"?>
<svg id="Vrstva_1" xmlns="http://www.w3.org/2000/svg" xmlns:xlink="http://www.w3.org/1999/xlink" version="1.1" viewBox="0 0 283.46 283.46">
  <!-- Generator: Adobe Illustrator 30.1.0, SVG Export Plug-In . SVG Version: 2.1.1 Build 136)  -->
  <defs>
    <style>
      .st0 {
        fill: none;
      }

      .st1 {
        fill: #030303;
      }

      .st2 {
        fill: #898384;
      }

      .st3 {
        fill: #22362e;
      }

      .st4 {
        fill: #7e7c77;
      }

      .st5 {
        clip-path: url(#clippath-1);
      }

      .st6 {
        clip-path: url(#clippath-3);
      }

      .st7 {
        clip-path: url(#clippath-4);
      }

      .st8 {
        clip-path: url(#clippath-2);
      }

      .st9 {
        clip-path: url(#clippath-6);
      }

      .st10 {
        clip-path: url(#clippath-5);
      }

      .st11 {
        fill: #493638;
      }

      .st12 {
        fill: #bdd6ca;
      }

      .st13 {
        fill: #fff;
      }

      .st14 {
        fill: #241d20;
      }

      .st15 {
        fill: #150d0d;
      }

      .st16 {
        fill: #261819;
      }

      .st17 {
        fill: #773c2a;
      }

      .st18 {
        fill: #83aa99;
      }

      .st19 {
        fill: #628474;
      }

      .st20 {
        fill: #979f98;
      }

      .st21 {
        clip-path: url(#clippath);
      }
    </style>
    <clipPath id="clippath">
      <rect class="st0" x="19.84" y="19.84" width="243.78" height="243.78"/>
    </clipPath>
    <clipPath id="clippath-1">
      <rect class="st0" x="57.37" y="56.73" width="85.93" height="34.76"/>
    </clipPath>
    <clipPath id="clippath-2">
      <rect class="st0" x="45.91" y="60.19" width="76.24" height="36.06"/>
    </clipPath>
    <clipPath id="clippath-3">
      <rect class="st0" x="35.33" y="69" width="73.95" height="32.66"/>
    </clipPath>
    <clipPath id="clippath-4">
      <rect class="st0" x="19.84" y="19.84" width="243.78" height="243.78"/>
    </clipPath>
    <clipPath id="clippath-5">
      <rect class="st0" x="149.2" y="119.36" width="1.63" height="2.35"/>
    </clipPath>
    <clipPath id="clippath-6">
      <rect class="st0" x="19.84" y="19.84" width="243.78" height="243.78"/>
    </clipPath>
  </defs>
  <rect class="st18" x="19.84" y="19.84" width="243.78" height="243.78"/>
  <g class="st21">
    <path class="st12" d="M113.62,61.03s15.15,12.99,25.12,12.62c9.98-.38,12.44-4.65,12.44-4.65l-6.65-4.21s4.7.22,11.62,1.23l6.92,1.01-.66-6.01s6.28-3.19,6.59,1.41c.31,4.6,8.7,3.59,8.7,3.59,0,0,2.5,5.17,9.53,8.08,7.03,2.91,12.13,4.12,12.13,4.12,0,0,7.32,12.77,11.41,16.7,4.09,3.93,11.13,15.4,11.13,15.4l-57.93-12.24-27.88,2.51-22.48-39.57Z"/>
    <path class="st12" d="M16.29,80.14s7.22,2.01,8.41,4.15c1.19,2.14,2.49,5.95,2.49,5.95,0,0,.98-2.7,2.28-2.12,1.3.58,3.45,3.11,3.45,3.11,0,0,4.68-4.15,6.31-2.52,1.63,1.62,0,5.86,0,5.86,0,0,6.66-2.27,7.72,0l1.06,2.27,4.69,4.49s.31-4.31,1.39-3.26c1.07,1.05,5.92,5.05,5.92,5.05l5.02,2.9s2.47-3.19,3.78-1.63l1.31,1.56s4.93-2.05,9.37-.98c4.45,1.07,38.56,19.9,40.77,19.71,2.22-.19,9.04-2.33,9.53-3.86.49-1.53,5.58.23,6.24-3.19.66-3.42-120.95-64.69-120.95-64.69l1.18,27.2Z"/>
    <path class="st12" d="M45.54,17.45s3.51,21.5,7.17,21.5,4.12.62,4.83,3.74c.71,3.12.76,4.37,3.23,4.37s4.91.62,8.05,5.62c3.15,4.99,19.92,3.59,22.45,8.35s29.52,23.76,39.34,32.76c9.81,8.99,12.51,4.71,13.61,10.72,1.1,6.01.13,10.78-16.89,8.11-17.02-2.67-54.79-5.54-62.29-14.42-7.5-8.88-10.86-13.1-19.12-13.71-3.45-.25-5.29-.04-6.51.17-1.69.3-2.16.59-4.08-.37-3.3-1.66-14-6.92-16.52-5.54l-2.52,1.39L13.31,11.5l32.23,5.96Z"/>
    <path class="st12" d="M48.14,29.72s7.85,10.2,9.39,7.6l1.54-2.6,8.98-.99s-5.19,3.26-3.02,7.49c2.17,4.23,3.02,5.53,3.02,5.53h2.99s5.02,5.86,10.84,6.18l5.81.32v-2.28s11.73.98,13.67,1.95c1.94.97,1.98,5.95,1.98,5.95,0,0,1.84,4,3.99,0,2.15-4,1.93-5.95,1.93-5.95,0,0,5.75,8.27,8.35,9.5,2.6,1.23,4.53,2.36,4.53,2.36,0,0-4.42-.86-1.88,4.21,2.54,5.07,3.75,5.1,3.75,5.1,0,0,21.38,12.97,21.81,14.02s-21.82,17.89-21.82,17.89L38.91,49.35l9.23-19.64Z"/>
    <path class="st19" d="M16.29,91.22c1.84,0,2.61.1,10.73,2.57,8.12,2.46,8.3,8.47,8.3,8.47,0,0,.28-5.64,5.47-5.05,5.19.59,6.16,7.18,6.16,7.18l8.98,7.21s-3.03-5.24,1.43-5.07c4.47.17,43.49,38.82,43.49,38.82,0,0,5.18-10.59,12.08-9.73,6.9.86,9.88,1.08,9.88,1.08l-5.33,7.25h4.66l9.66-8.33,8.01.66s-5.67-7.41,4.39-7.28c10.06.13,78.11,26.75,82.96,28.14,4.85,1.39,7.99,4.66,10.1,2.64,2.1-2.02.75-5.73,3.99-6.97,3.24-1.24,19.3-13.05,19.3-13.05l3.35-5.37,2.55,3.54v47.28l-247.65,8.51-2.52-102.5Z"/>
    <path class="st19" d="M18.81,93.79s35.5,15.31,41.21,18.21c5.71,2.9,21.74,7.2,24.3,10.91,2.56,3.72,26.85,15.82,29.63,22.93,2.78,7.12,8.42-2.35,12.69-2.84,4.26-.48,31.36-19.56,37.95-14.73l6.6,4.83s8.91-2.2,11.32.56c2.41,2.76,4.96,3.91,4.96,3.91,0,0,12.32,3.31,15.18,5.42,2.86,2.11,19.33,15.23,30.63,19.28,11.3,4.05,10.1-18.5,17.37-19.69,7.27-1.2,5.7-2.36,9.92-2.81,4.22-.46,7.52.62,7.52.62l-1.62,89-247.65,5.5V93.79Z"/>
    <path class="st3" d="M218.25,206.64s-.78-4.02-6.26-4.02-25.65,4.77-27.04,6.22c-1.39,1.45-1.74,2.72-10.68,4.8-8.94,2.08-8.09-3.46-26.93-1.21-18.84,2.25-57.32,12.44-68.14,13.27-10.82.83-26.49,1.04-28.84,0-2.36-1.04-9.85-7.9-17.44-7.07-7.59.83-14.11,1.87-14.11,1.87v46.64h247.65v-59.74s-23.2.21-30.76,1.25c-7.56,1.04-17.45-2.01-17.45-2.01"/>
    <path class="st15" d="M197.8,115.43s-2.8,2.38-6.96,3.32c-4.16.94-16.79,6.83-16.79,6.83l-2.22-.11,5.74,3.44h13.27l11.81-10.73-4.85-2.76Z"/>
  </g>
  <g class="st5">
    <path class="st20" d="M58.22,62.21c.38,1.14.74,2.01.74,2.01,0,0,6.52,8.04,9.43,9.89,1.24.78,4.67,2.35,8.63,4.06,2.88.88,6.05,1.81,9.27,2.72l-28.06-18.68Z"/>
    <path class="st20" d="M58.44,56.73h-.1s-.05,0-.08,0c-1.55.09-.76,3.3-.04,5.48l28.06,18.68c9.52,2.71,19.46,5.33,23.69,6.35,8.31,2,12.13,4.1,12.18,4.13l21.14-2.66s-2.1-2.58-5.64-4.42c-3.54-1.84-20.45-8.84-38.27-10.64-17.81-1.8-14.08-3.33-21.67-7.63-7.58-4.3-12.66-6.93-12.66-6.93v1.39s-4.23-3.7-6.62-3.75"/>
  </g>
  <g class="st8">
    <path class="st20" d="M108.23,95.5l-1.73.75s.03,0,.03,0l1.93-.6-.22-.15ZM49.51,60.19h-.1c-3.19.05-3.49,5.08-3.49,6.87v.1c0,.33.01.53.01.53,0,1.23,4.44,4.99,4.44,4.99l-3.41-.42,4.1,1.84-2.77-.46s2.32,3.68,5.99,7.43c4.61,3.24,10.28,6.28,16.77,7.63,12.19,2.53,29.92,5.15,36.04,6.03l-16.34-10.88c-3.39-1.35-8.95-3.63-13.74-5.7-5.43-1.65-9.84-3.14-11.68-4.06-5.69-2.87-11.51-13.63-15.67-13.91-.06,0-.11,0-.16,0"/>
    <path class="st20" d="M90.75,83.87l16.34,10.88c1.39.2,2.18.31,2.18.31l-1.04.45.22.15,13.7-4.28-.93.12h0c-.27-.06-23.88-5.02-29.4-7.19-.33-.13-.68-.27-1.07-.43"/>
    <path class="st4" d="M77.02,78.17c4.79,2.07,10.35,4.35,13.74,5.7l-4.47-2.98c-3.22-.92-6.38-1.84-9.27-2.72"/>
    <path class="st4" d="M86.28,80.89l4.47,2.98c.39.15.75.3,1.07.43,5.52,2.17,29.13,7.14,29.4,7.19h0l.93-.12s-3.88-2.13-12.18-4.13c-4.24-1.02-14.18-3.64-23.69-6.35"/>
  </g>
  <g class="st6">
    <path class="st20" d="M43.03,84.37c-.09,0-.19,0-.28,0,3.66,4.49,8.38,8.96,13.44,11.88,3.04,1.75,6.87,2.96,10.93,3.78-.84-.58-1.54-1.19-2.08-1.83-7.5-8.88-10.86-13.1-19.12-13.71-1.12-.08-2.07-.12-2.89-.12"/>
    <path class="st20" d="M37.75,69h-.15c-1.17.01-1.94.35-1.94.35-.22.29-.33.69-.34,1.2v.07c.02,2.73,2.94,8.25,7.43,13.75.09,0,.18,0,.27,0,.81,0,1.77.03,2.89.12,8.27.61,11.62,4.83,19.12,13.71.54.64,1.24,1.25,2.08,1.83,6.4,1.29,13.38,1.62,18.7,1.63h.62c4.85-.01,8.18-.28,8.18-.28l11.89-5.13c-1.08-.15-35.33-5.05-43.52-8.73-3.3-1.49-6.3-3.97-8.71-6.44-6.01-4.22-10.21-8.77-12.09-10.34-1.63-1.36-3.23-1.72-4.43-1.73"/>
    <path class="st4" d="M54.27,81.08c2.41,2.46,5.41,4.95,8.71,6.44,8.19,3.68,42.44,8.58,43.52,8.73l1.73-.75-1.14-.76c-6.13-.88-23.85-3.5-36.04-6.03-6.5-1.35-12.16-4.39-16.77-7.63"/>
    <path class="st4" d="M107.09,94.74l1.14.76,1.04-.45s-.79-.11-2.18-.31"/>
  </g>
  <g class="st7">
    <path class="st15" d="M219.5,158.76s-.58,1.16,0,2.55c.58,1.39,1.51,2.43,1.16,4.52-.35,2.09-.28,4.4-1.42,5.8-1.13,1.39-1.83,2.43-3.34,5.57-1.51,3.13-9.16,22.84-9.16,22.84,0,0,6.61-.23,8.69,1.04,2.09,1.27,4.29,6.84,4.29,7.42s-4.75-4.4-6.61-4.75c0,0-2.09.7-4.64.7s-15.88,4.98-18.32,5.33c-2.43.35-4.75.35-5.8,1.51l-1.04,1.16s.58-3.25,1.62-3.59c1.04-.35,2.67-.46,2.67-.46,0,0,4.75-3.13,6.38-3.71,1.62-.58,1.86-1.28,2.55-1.74.69-.46,5.8-6.84,6.26-8,.46-1.16,7.42-19.36,7.42-20.4s-2.55-.58-2.78-2.32c-.23-1.74-.35-3.25.47-4.17,0,0-1.04,1.39-1.28.46-.23-.93-.23-1.51-.23-1.51,0,0-.46.7-1.04-.23-.58-.93-.58-1.39-.58-1.39,0,0-1.43.93-2.74,0-1.31-.93-1.43-1.97-1.43-1.97,0,0-10.78-.23-21.56-8.23,0,0-3.59-3.01-7.3-4.64-3.71-1.62-11.94-8-13.22-11.25-1.28-3.25-6.26-6.49-8.93-8.11-2.67-1.62-6.38-3.83-7.88-5.45-1.51-1.62-2.2-4.06-2.2-4.06,0,0,1.74-2.32,3.71-3.01,1.97-.7,5.1-4.75,9.16-4.99,4.06-.23,6.95,1.85,8.58,3.36,1.62,1.51,4.17,7.3,7.77,8.11,3.59.81,23.53.58,23.53.58l6.26-9.85s-4.75-3.13-9.74-3.94c-4.98-.81-23.53-1.51-26.55-1.51s-15.66,1.97-19.6,2.67c-3.94.69,11.25-7.42,11.25-7.42l31.53-4.06,3.59-2.9s16.23,6.14,20.06,6.72,10.7,4.06,11.67,5.45c.97,1.39,8.97,9.39,10.24,12.17,1.27,2.78,6.14,11.82,9.97,13.45,3.83,1.62,8.23,2.67,9.39,5.1,1.16,2.43-1.27,5.45-1.27,5.45,0,0,1.39,1.62.23,1.97-1.16.35-5.33.58-5.33.58,0,0-11.13,7.42-24.46,9.16"/>
    <path class="st16" d="M212.82,175.23s-8.25,19.9-9.22,22.26c-.97,2.36-4.92,6.17-5.41,6.38s-2.57,2.77-4.71,3.61c-2.15.83-4.65.69-5.34,1.18-.69.49-4.69,1.26-4.81,3.78,0,0-.69-4.37,4.11-4.48,0,0,6.5-3.55,7.64-4.16,1.14-.61,4.57-5.48,4.91-5.96.35-.49,1.39-3.12,2.01-4.72.62-1.6,7.28-17.68,7.28-17.89s.97-1.18-1.46-1.67c0,0-.9-.83-.97-1.8s.07-2.29.07-2.29c0,0-1-.57-.76-1.53,0,0-2.03-1.25-1.85-2.36,0,0-3.11,1.96-4.1-2.21,0,0-12.5-2.64-14.65-6.04-2.15-3.4,13.45-3.33,17.06-2.91,3.61.41,7.7,3.33,8.6,4.3.9.97,4.37,3.67,4.99,6.24.62,2.57.21,4.23,0,5.2-.21.97-1.25,4.92-3.4,5.06"/>
    <path class="st16" d="M216.55,163.58s.78,3.54.5,5.55c-.28,2.01,0,2.91.35,2.91s2.56-3.33,2.56-5.55-.49-2.77-1.25-3.4c-.76-.62-2.33-.35-2.17.49"/>
    <path class="st16" d="M212.89,201.3s.62,1.59,1.66,2.08c1.04.49,3.09,2.57,3.69,3.26,0,0-1.82-4.35-3.62-5.34-1.81-.99-1.73,0-1.73,0"/>
    <path class="st16" d="M184.05,150.34s1.94,2.15,4.51,2.43c2.57.28,28.5-.9,34.81-1.87,6.31-.97,12.34-1.11,12.34-1.11,0,0-3.95-.42-12.55.28-8.6.69-30.58,1.66-32.66,1.59-2.08-.07-6.93-2.64-6.45-1.32"/>
    <path class="st16" d="M188.55,146.11c.2.05,6.31,1.94,11.93,2.5s28.43-.35,28.78-1.25-.42-1.25-.42-1.25c0,0,.74-.35.51-.9l-.23-.55s3.19.41,3.33-.49l.14-.9s12.9,3.33,13.45,2.29c.55-1.04-5.62-3.95-18.24-5.41-12.62-1.46-19.55-2.22-20.39-2.5-.83-.28-1.53-1.25-1.53-1.25,0,0,3.12.76,3.68.62l.55-.14s3.68.83,4.23.56c.55-.28.35-.62.35-.62,0,0,3.6,1.53,4.3,1.46.69-.07.97-.83.97-.83,0,0,3.54,1.8,4.51.9,0,0,4.78,1.39,4.85.69,0,0,4.16,1.53,4.58,1.04l.42-.49s2.91,1.25,3.47,1.04l.56-.21s6.52,2.67,6.79,2.17c.28-.5-25.72-11.73-30.92-13.54-5.2-1.8-9.85-1.94-9.85-1.94,0,0-.49-.9-2.15-1.18-1.67-.28-2.29-.28-2.29-.28,0,0,2.71-1.25,2.22-2.77-.49-1.53-2.22-1.66-2.22-1.66,0,0,6.52,1.87,7.49,1.39s.9-2.08.9-2.08c0,0,5.06.9,6.17.62,0,0,7.49,3.61,8.32,3.61s.07-1.66-2.84-2.98c0,0,4.02,2.08,4.3,1.32.28-.76-1.32-1.59-1.32-1.59,0,0,2.22.9,2.29.07.07-.83-.21-1.39-.21-1.39,0,0,.56,3.4,2.15,3.74l1.6.35s-.07,2.36.49,2.84l.56.48,2.77.14s.21-2.43-.21-4.44c-.41-2.01-8.2-11.17-10.93-11.55-2.73-.38-7.17.32-7.17.32,0,0,.49-1.39-.83-1.39s-6.59,2.36-6.59,2.36c0,0,.69-.69.07-.76-.62-.07-23.5,11.55-24.68,13.47-1.18,1.92-.76,3.99-.76,3.99,0,0-1.73.78-1.66,2.17.07,1.39-.42,2.01-2.5,2.22-1.56.15-.86,3.27.41,5.5.42.74.91,1.38,1.39,1.78,1.94,1.6,4.99,1.77,5.68,1.93.69.15,2.23,2.38,3.74,2.79"/>
    <path class="st15" d="M178.98,140.28s2.45.9,4.31.83c1.86-.07,2.41-5.55,3.45-5.34,1.04.21,1.87,1.11,2.63.49.76-.62.42-3.4,1.59-3.4s5.41-.28,5.9-1.11l.49-.83s.21,2.01-3.19,2.36c-3.4.35-3.33,3.74-4.37,4.37-1.04.62-2.77.14-2.77.14,0,0-.49,4.69-1.87,5.53-1.39.85-5.76-.26-6.52-1.16-.76-.9-1.07-2.83-1.07-2.83,0,0,.45.66,1.41.96"/>
    <path class="st15" d="M196.25,134.25s-.69,3.06-1.8,3.02l-1.11-.04s1.04,2.22,0,3.33c-1.04,1.11-2.77,1.25-2.77,1.25,0,0,.14,1.6-.76,2.43-.9.83-3.47,1.11-3.47,1.11l-.9-.76s3.26.04,3.88-1.26c.62-1.3.97-2.27.97-2.27,0,0,2.43.21,2.63-1.25.21-1.46-.35-3.19.14-3.19s2.08.97,3.19-2.36"/>
    <path class="st15" d="M188.55,146.11s8.87,1.25,10.33.9c1.46-.35,0-2.36,0-2.36,0,0,2.64-.14,2.5-1.66-.14-1.53-.9-2.01-.9-2.01,0,0,2.36-.14,2.71-1.6l.35-1.46s.55,2.91-1.94,3.54c0,0,2.08,2.7-1.39,3.88,0,0,1.67,3.39-2.84,3.43-4.51.04-8.81-2.67-8.81-2.67"/>
    <path class="st15" d="M207,140.14s-.69,2.57-1.39,2.77l-.69.21s.07,2.08-.97,2.57l-1.04.49s-.09,1.85-1.12,2.52c-1.03.67-2.41.67-2.41.67,0,0,2.7-.97,2.98-3.26,0,0,2.08-1.18,2.15-3.19,0,0,1.26.47,2.5-2.77"/>
    <path class="st15" d="M227.17,146.52c-.21,0-23.79.42-24.31,0-.52-.41.04-.35.04-.35l24.27.35Z"/>
    <path class="st15" d="M204.9,143.62s20.33,1.24,21.79,1.13l1.46-.1-23.23-1.52-.02.49Z"/>
    <path class="st15" d="M211.99,119.76s2.65.49,2.92,0c.27-.49,0-1.04,0-1.04,0,0,1.48-1.25,1.64-2.77.16-1.53-1.3-1.53-1.3-1.53,0,0,.83,3.81-.97,3.81,0,0,1.6,1.6-2.29,1.52"/>
    <path class="st11" d="M225.3,117.61s.07,1.39.83,1.94l.76.56s-.62,2.08,1.25,2.77l1.87.69s-.69,2.01-.35,2.63l.35.62s-1.66,1.25-1.87,2.22l-.21.97s-4.71-.56-4.02.55c.69,1.11,3.6,1.25,3.6,1.25,0,0,.9,1.85,2.15,1.9,1.25.04,2.84-.99,2.84-.99,0,0,.9.68,1.52,1l.62.32s-1.04,2.77,0,2.77,1.6-1.25,1.6-1.25c0,0,1.43,2.69,2.84,1.7,1.41-.98,1.25-2.4,1.25-2.4,0,0,3.81-.23,3.61-1.15l-.21-.93s1.04-.83.83-1.32c-.21-.49-.49-.55-.49-.55,0,0,1.02-1.46.51-1.66l-.51-.21s1.17-1.27.66-1.5c-.52-.23-.93,0-.93,0,0,0,1.52-2.73.76-2.59-.76.14-1.52,1.59-1.52,1.59,0,0,.9-1.73.69-2.91-.21-1.18-.55-.83-.55-.83,0,0,.07,1.87-.42,2.49l-.48.62s.69-2.91.28-3.81c-.42-.9-.9-1.32-.9-.9s.28,2.01-.07,2.84l-.35.83s0-4.3-.55-4.44c-.55-.14,0,1.32-.42,2.43-.42,1.11-.76,1.18-.76,1.18,0,0,.9-3.95,0-4.37-.9-.42-.42-.28-.49.9-.07,1.18-.9,2.7-.9,2.7,0,0,.83-3.4.07-4.23-.76-.83-.55.42-.9,1.73l-.35,1.32s-.76-4.02-.69-3.05c.07.97.21,1.94-.35,2.43l-.55.49s-.81-2.76-.99-2c-.19.75,0,1.24,0,1.24,0,0-1.37-.42-1.71-1.8-.35-1.39-1.04-2.77-1.6-2.21l-.55.55s-.28-2.08-1.11-2.22l-.83-.14s-1.04-2.71-2.01-2.57l-.97.14s-2.98-2.57-3.68-2.64l-.69-.07s-7.03-4.64-9.96-5.2c-2.93-.55-5.85-.58-5.23-.39.63.18,7.48,2.54,10.54,4.48,3.06,1.94,6.39,5.34,7.22,6.59s1.52,1.87,1.52,1.87"/>
    <path class="st16" d="M233.28,125.38s1.59-1.8,2.5-1.11c.9.69.55,1.11.55,1.11,0,0,3.33.83,3.4,2.15.07,1.32-.35,1.87-.35,1.87,0,0,2.08,2.08,1.87,3.12-.21,1.04-1.73,1.2-1.73,1.2,0,0,2.63-1.38-.97-3.99,0,0,1.33-2.62-2.7-3.8,0,0,.69-2.01-2.57-.55"/>
    <path class="st15" d="M220.66,119.62s3.12.55,3.05,0c-.07-.55-.97-.76-.97-.76,0,0,1.39-.14.97-.97l-.42-.83s2.08-.28.49-1.32c-1.6-1.04-4.58-.83-4.58-.83,0,0,6.03,1.18,3.33,1.73,0,0,1.37,1.6-.74,1.8,0,0,1.99,1.04-1.13,1.18"/>
    <path class="st16" d="M141.04,122.27s3.43-.78,4.11-1.61c.68-.83,2.44-2.91,4.37-3.02,1.92-.1,4.73.83,5.56,0,.83-.83.83-1.71.83-1.71,0,0,5.41,1.4,6.06,2.34,0,0-3.51-5.05-8.76-4.84-5.25.21-8.3,4.19-8.61,4.42-.32.23-4.48,1.5-5.08,3.82l.47,1.28,1.05-.67Z"/>
    <path class="st16" d="M147.7,118.94s-1.2.88-1.09,2.65c.1,1.77,2.03,2.65,3.69,2.55,1.66-.11,2.91-1.61,2.7-3.28-.21-1.66-1.4-2.44-1.4-2.44,0,0,.68,1.56.68,2.55s-.3,1.97-2.03,2.44c-1.72.47-3.12-1.4-3.17-1.72-.05-.31-.1-2.34.62-2.76"/>
    <path class="st16" d="M150.14,118.19s-2.34-.07-2.39,1.38c-.05,1.46-.31,3.06,1.72,3.38,2.03.31,2.6-1.82,2.18-3.07s-.83-1.74-1.51-1.69"/>
    <path class="st1" d="M150.45,118.79c-.16,0-1.94-.26-2.34.68-.4.94-.05,2.29,1.17,2.5,1.22.21,1.9-.47,1.9-1.38s-.21-1.76-.73-1.79"/>
  </g>
  <g class="st10">
    <path class="st14" d="M150.3,119.36s.42.83,0,1.51c-.41.67-1.07.68-1.09.68h0s.28.15.6.16h.08c.33-.01.69-.18.86-.79.06-.22.09-.42.09-.59h0c0-.77-.54-.97-.54-.97"/>
  </g>
  <g class="st9">
    <path class="st1" d="M148.94,119.88s-.26-.36.26-.52c.52-.16.76.68.54,1.17-.23.49-.84.39-.8-.65"/>
    <path class="st11" d="M149.2,120.08l-.32-.74s.31-.5.86-.24c.55.26-.54.98-.54.98"/>
    <path class="st16" d="M144.37,124.15s3.73.46,4.99.67c1.26.21,5.31-.42,5.93-1.25.62-.83,1.4-1.95,1.46-1.57.05.38-.16,2.3-.78,2.56-.62.26-1.66.36-1.66.73s.26.62.52.68l.26.05s-1.82.47-2.96.47-2.97-.73-4.16-.83c-1.19-.1-4.47-1.61-3.59-1.5"/>
    <path class="st11" d="M142.19,122s-1.41-.44-3.18-.29c-1.77.15-6.29,2.85-6.29,3.22s6.19-.74,7.02-.77c.83-.04,3.43.32,3.54,0,.1-.32-1.77-.38-1.61-.82.15-.44.53-1.34.53-1.34"/>
    <path class="st16" d="M134.33,124.2s3.29-.74,5.18-.87c1.89-.13,2.15,0,2.15,0,0,0,1.35.46,1.61.82.26.35-1.75.76-2.15.85-.4.08-8.86.36-8.41-.07.45-.43,1.61-.72,1.61-.72"/>
    <path class="st16" d="M137.66,122.95c.26-.05,1.99-.91,2.16-.46.17.46-2.16.46-2.16.46"/>
    <path class="st15" d="M38.33,111.09s-4.16-9.36,4.06-9.26c8.22.1,12.27,5.51,11.13,7.07-1.14,1.56-7.9,4.16-7.07,5.93.83,1.77,7.49,1.56,12.69.73,5.2-.83,48.36-22.26,55.54-24.44,7.18-2.18,25.9-8.42,43.16-6.14,17.26,2.29,29.12,6.66,36.51,11.23,7.38,4.58,11.24,8.18,12.65,8.73,1.41.55,3.78,1.46,3.78,1.46,0,0-.8.32-3.78,0-2.98-.31-10.78-5.1-13.8-5.1s-5.44,4.68-7.76,4.99c-2.32.31-27.39.83-29.16,1.04-1.77.21-.21.83-.21.83,0,0-2.6.94-2.29,1.04l.31.1s-4.64.73-4.19,1.35c.45.62-7.26,2.41-7.26,2.41,0,0-15.9,4.47-27.44,11.12-11.54,6.65-34.53,21.14-34.53,21.14l1.46-2.74s-6.14,3.02-6.03,2.18c.1-.83,1.14-4.99,1.14-4.99,0,0-6.24,2.91-7.18,1.14-.94-1.77-1.14-2.29-1.14-2.29,0,0-1.66,1.46-3.33,1.14l-1.67-.31s-13.42-3.02-13.1-4.58c.31-1.56,3.33-2.6,3.33-2.6,0,0-3.02-4.16-4.06-4.16s-5.62.1-6.76-1.66c-1.14-1.77-2.18-8.63-.1-10.71,0,0-3.84-.22-4.89-4.68"/>
    <path class="st16" d="M48.42,116.92s9.67-.1,14.25-1.25c4.58-1.14,27.04-12.48,30.16-14.04,3.12-1.56,33.76-16.91,52.32-16.33s23.97,1.62,23.97,1.62c0,0-20.54-7.65-53.4,3.16,0,0-31.94,14.95-39.37,18.3-7.43,3.35-18.27,9.08-29.39,6.98,0,0,.43,1.57,1.47,1.55"/>
    <path class="st2" d="M43.87,127.04s3.7.49,3.09-.55c-.62-1.04-2.07-3.97-1.14-6.4.94-2.44,1.98-3.02,1.98-1.9s.21,3.25,1.46,5.15c1.25,1.9,1.14,4.4,1.98,4.71.83.31,2.91-.62,2.91-2.08s-2.08-4.92-1.77-6.41c.31-1.49,1.25-2.29,1.35-1.37.11.92,2.91,3.25,3.74,5.15.83,1.9,1.87,4.77,1.87,4.77,0,0,3.12.15,3.22-1.62.1-1.77-1.25-4.8-2.08-6.4-.83-1.6.1-3.06,1.66-1.66,1.56,1.4,4.68,3.43,4.68,4.91s3.22,3.98,3.85,2.42c.62-1.56-.52-5.62-1.04-6.4-.52-.78-2.6-4.11-.83-3.69,1.77.42,4.99,3.8,5.51,6.01.52,2.21,3.43,2.14,4.06.98.62-1.16-1.25-6.51-2.5-7.74-1.25-1.23-1.46-2.26.1-1.95,1.56.31,5.3,2.43,5.72,5.22.42,2.79.42,3.53.73,3.52.31,0,3.64-.9,3.33-3.52-.31-2.62-4.99-8.34-3.02-8.24,1.98.1,5.62,3.07,5.62,4.97v1.9s3.54-.85,3.22-3.39c-.31-2.54-4.06-6.91-2.39-6.91s5.2,1.66,5.41,4.16c.21,2.5.21,3.64.73,3.64s3.54-.94,3.12-4.37c-.42-3.43-4.16-6.86-2.91-6.86s6.14,1.87,6.14,4.37v3.22s2.91-.73,2.91-3.12-4.78-8.22-2.29-8.01c2.5.21,5.97,2.6,5.74,5.2-.23,2.6-.38,3.54.01,3.23.39-.31,4.03-3.43,3.09-6.03-.93-2.6-3.22-5.51-1.98-5.51s4.68,2.32,4.78,4.18c.1,1.85,2.71,1.16,3.23,0,.52-1.16-1.35-6.15-1.25-6.57.1-.42,2.39-.52,3.22,2.18.83,2.7.31,4.5,1.25,4.38.94-.12,3.52-1.26,3.63-3.45.11-2.18-2.07-6.24-.62-5.72,1.46.52,3.02,3.43,3.22,4.89l.21,1.46s4.16-.1,4.06-2.19c-.1-2.08-1.87-6.55,0-6.03,1.87.52,3.33,3.85,3.33,5.62v3.54s4.56,0,4.52-1.66c-.04-1.66-1.41-8.74,0-8.32,1.41.41,3.51,6.86,3.45,7.8-.06.94.79,1.56,2.03,1.56s2.06-2.08,2.38-3.43c.32-1.35-1.97-5.86-.41-5.95,1.56-.09,2.91,4.39,3.02,6.05s-1.47,4.26.15,3.95c1.62-.31,3.64.42,3.67-1.77.03-2.18,1.07-5.62,2.01-5.1.94.52,1.26,5.72,1.72,6.45.46.73,3.48,1.56,3.68-.21.21-1.77.16-4.37,1.53-4.37s2.21,1.25,2,2.7c-.21,1.46-.1,2.7,1.66,3.02,1.77.31,1.66-3.74,2.71-3.74s2.81.1,2.7,1.46c-.1,1.35-1.45,2.29,0,3.02,1.45.73,3.43,0,3.53-1.46.1-1.46,2.55-1.98,2.99-.73.44,1.25-1.82,2.67,0,3.54,1.82.86,3.87-.31,3.98-1.56.1-1.25-.04-2.7,1.75-2.08,1.79.62,0,4,0,4,0,0-15.29,1.97-13.79,1.77,1.5-.19,8.72,1.71,6.01,1.71s-5.72,0-4.89.42c.83.41-14.13,1.29-13.88,2.62.25,1.33-16.18,4.76-20.03,5.8-3.85,1.04-25.8,11.34-35.36,17.27-9.57,5.93-38.07,27.15-45.56,30.68-7.49,3.54-13.21,5.82-14.04,5.62-.83-.21,9.05-3.64,10.09-4.58,0,0-1.65.67-3.8,1.45-2.94,1.08-6.82,2.38-8.68,2.5-3.22.21-3.74,0-3.74,0,0,0,9.36-1.56,13-3.75,0,0-12.07,3.54-14.15,1.98,0,0,8.84-1.35,11.02-2.08l2.18-.73s-14.04,3.33-14.77.93c0,0,4.78,0,8.42-.62l3.64-.62s-12.07.52-12.07-.42,4.58-.31,6.97-.31h2.39s-9.57-.73-7.9-1.14c1.66-.42,7.28.31,10.82-.1,3.54-.42,14.87-7.84,21.43-11.51,6.55-3.67,7.9-6.27,7.9-6.27,0,0-7.9,6.14-7.9,5.1s2.29-1.04,3.43-2.91l1.14-1.87s-4.68,4.58-4.99,4.06c-.31-.52,1.56-1.3,1.98-3.25.42-1.95.31-3.2.31-3.2,0,0-1.77,5.27-2.29,4.92-.52-.35.62-1.59,0-3.57-.62-1.98-.42-.94-.42-.94,0,0-11.75,5.72-20.18,5.82-8.42.1-9.36-1.77-9.36-1.77,0,0,6.97,1.04,9.05.94,0,0-8.42-.78-8.63-2.21,0,0,5.83,1.27,8.53,1.06,0,0-8.32-.86-6.14-1.37,0,0,2.6.28,6.03.3,3.43.03,5.51-1.12,5.51-1.12,0,0-11.02,0-9.57-.31,1.46-.31,6.97-.31,10.09-1.14,3.12-.83,3.12-1.25,3.12-1.25,0,0-9.46-.42-8.84-3.12.62-2.7,3.95-2.96,3.95-2.96l-.73-.58,2.6.1-.21-.94,2.6.21s-3.22-2.26-3.22-2.79v-.54s-6.51-.66-6.53-2.15"/>
    <path class="st17" d="M57.16,130.92s3.33-2.01,6.55-1.2c3.23.82,14.15-3.1,20.91-7.07,6.76-3.97,23.61-14.37,32.45-17.7,8.84-3.33,18.69-6.86,25.12-6.87,6.43,0,8.3.62,8.3.62,0,0-16.68,3.12-25.31,5.72-8.63,2.6-27.87,15.51-31.31,17.27s-21.01,12.27-25.48,13.31c-4.47,1.04-8.63.52-10.61,0-1.98-.52-.62-4.09-.62-4.09"/>
    <path class="st15" d="M57.99,132.41s3.64-3.5,3.33-1.49c-.31,2.01-2.18,3.29-1.14,3.33,1.04.03,5.31-3.05,5.41-1.98.1,1.07.73,1.82,2.29,1.45,1.56-.37,2.81-3.98,4.37-3.42s4.58-1.01,5.51-2.05c.94-1.04,1.04.31,2.18,0,1.14-.31,3.54-4.11,4.68-4.03,1.14.08,4.06-.58,4.58-1.86.52-1.28,2.6-1.07,3.22-1.07.62,0,3.02-3.85,4.68-3.85s4.26-2.39,5.72-3.12c1.46-.73,1.98-.74,2.81-.89.83-.15,3.12-3.37,4.68-3.48,1.56-.1,4.89-3.02,6.03-3.12,1.14-.1,5.82-2.81,7.18-2.91,1.35-.1,4.89-2.29,6.55-2.29s5.2-.38,6.03-1.02c.83-.64,2.56-.85,3.41-.85s3.13-1.04,3.13-1.04c0,0,2.69-.6,3.96-.5,1.27.1,4.3.75,5.18.32s3.36.18,4.19.6c.83.42,2.18.73,3.43.52,1.25-.21,3.02.52,3.02.52,0,0-1.35-.28-4.99.43l-3.64.71s-3.04-1.53-4.9-.71c-1.86.81-3.51,1.65-6.69,1.96-3.18.31-3.91.73-6.51,1.14-2.6.42-3.85.93-5.93,1.77-2.08.83-5.82,1.66-6.97,2.29-1.14.62-3.22,3.12-5.41,3.43-2.18.31-6.55,2.87-8.22,3.72-1.66.85-3.75,2.76-5.57,3.83-1.82,1.08-5.56,2.4-6.61,3.25-1.04.85-4.68,2.93-6.14,4.49-1.46,1.56-4.89,1.35-6.03,2.81-1.14,1.46-4.99,1.56-5.93,2.39-.93.83-2.18,1.57-4.16,2.04-1.98.46-2.29,1.25-3.95,1.89-1.66.65-2.81.23-5.41.54-2.6.31-6.4,1.03-6.76,0-.36-1.03.73-2.38-.1-2.44-.83-.06-1.43-.49-.52-1.31"/>
    <path class="st15" d="M69.01,135.61s1.94-.32,3.19-1.23c0,0,1.46,4.02.97,4.72-.48.69-2.63,1.25-2.84,1.18-.21-.07-2.12-4.49-1.32-4.67"/>
    <path class="st15" d="M75.2,133.6s3.07-1.39,3.39-1.65c.31-.26,1.73,4.27,1.66,4.74-.07.47-2.63,1.51-3.19,1.51s-1.86-4.6-1.86-4.6"/>
    <path class="st15" d="M81.5,130.92s1.8,4.07,2.91,4.15c1.11.08,2.98-1.66,2.7-2.07-.28-.41-2-4-2-4,0,0-2.58,1.79-3.62,1.93"/>
    <path class="st15" d="M88.39,127.74s1.36,4.01,2.47,3.88c1.11-.14,2.5-1.98,2.43-2.62-.07-.64-1.66-3.23-1.66-3.23,0,0-2.69,1.81-3.23,1.97"/>
    <path class="st15" d="M94.61,123.62s1.58,4.32,2.42,4.25c.83-.07,2.5-1.06,2.36-2.12-.14-1.07-1.57-4.26-1.57-4.26,0,0-2.76,1.84-3.21,2.14"/>
    <path class="st15" d="M100.87,120.08s.04.09.12.23c.44.82,1.94,3.53,2.61,3.47.78-.07,2.24-.98,2.24-1.42s-2.24-3.93-2.24-3.93c0,0-2.23,1.44-2.73,1.65"/>
    <path class="st15" d="M107.34,116.08s.3,3.6,1.82,3.26,2.22-1.09,2.01-1.9c-.21-.81-1.2-2.96-1.2-2.96,0,0-2.69,1.17-2.63,1.6"/>
    <path class="st15" d="M113.62,112.59s.4,2.07,1.3,2.33c.9.26,2.7-.73,2.7-1.17s-.89-2.41-.89-2.41c0,0-3.17.96-3.11,1.25"/>
    <path class="st15" d="M120.29,109.73s.72,2.4,1.35,2.4,2.48-.25,2.39-1.2c-.1-.95-.51-3.49-.51-3.49,0,0-3.48,1.54-3.23,2.29"/>
    <path class="st15" d="M126.76,106.45s-.19,2.42.99,2.42,3.05-.21,3.05-.9-.49-2.72-.49-2.72l-3.55,1.2Z"/>
    <path class="st15" d="M133.42,104.18s-.47,2.34.57,2.34,3.81.14,3.68-.9c-.14-1.04-.43-2.19-.43-2.19,0,0-3.74.21-3.82.76"/>
    <path class="st15" d="M140.42,102.78s-.27,2.1.84,2.19c1.11.09,2.93.37,2.95-.47.03-.83,0-2.24,0-2.24l-3.79.52Z"/>
    <path class="st15" d="M147.71,101.12s-.97,2.26.24,2.3c1.22.04,2.9-.34,2.79-1.15-.11-.82-.26-1.89-.26-1.89,0,0-2.55.08-2.78.74"/>
    <path class="st17" d="M116.75,97.21s-2.04-3.85,0-3.38c2.04.48,2.4,2.39,2.4,2.39,0,0-2.38-1.13-2.4.99"/>
    <path class="st15" d="M153.78,101.32s.1,1.8.59,1.8,3.12-.54,2.98-.86c-.14-.32-.6-1.65-.6-1.65l-2.97.71Z"/>
    <path class="st15" d="M160.82,100.14s-.35,2.09.28,2.12c.62.03,3.05.74,3.19,0,.14-.74,0-1.65,0-1.65,0,0,2.57-.57,2.98,0,.42.57-.21,1.49.69,1.65.9.17,3.12.09,3.19-.36.07-.45,2.08-1.18,2.7-.53.62.64,6.93,1.75,6.93,1.75,0,0-8.25-2.7-12.27-2.98-4.02-.28-13.75-1.43-13.75-1.43,0,0,6.1,1.1,6.05,1.43"/>
    <path class="st15" d="M169.9,105.09c-.28.04-29.19,3.09-42.57,7.53-13.38,4.44-27.04,13.15-27.04,13.15,0,0,18.24-9.76,24.13-11.7,5.89-1.94,18.63-4.83,24.46-5.64,5.84-.81,22.95-3.01,22.95-3.01l-1.93-.33Z"/>
    <path class="st15" d="M156.75,108.41s-30.46,3.03-62.71,24.38c0,0,21.38-11.7,31.35-15.35,9.97-3.65,31.96-8.23,31.96-8.23l-.6-.81Z"/>
    <path class="st16" d="M52.72,159.77c-.7.34,30.02-18.79,32.87-20.66,2.84-1.87,13.27-8.89,13.27-8.89l-3.96,2.12s-35.75,24.31-42.17,27.43"/>
    <path class="st15" d="M60.76,61.03s13.17,12.07,33.28,16.78c20.11,4.71,58.17,13.17,59.73,13.17s40.13,10.87,41.3,12.44c0,0-32.44-9.25-42.06-11.88-9.62-2.63-58.84-13.18-63.83-14.15-4.99-.97-28.29-15.39-28.43-16.36"/>
    <path class="st15" d="M50.36,66.02s10.44,11.93,20.68,15.25c10.24,3.33,45.53,8.52,45.53,8.52l1.04.42-4,1.27s-36.63-4.8-48.97-11.73c-12.34-6.93-14.28-13.73-14.28-13.73"/>
    <path class="st15" d="M40.79,73.65s.1.18.3.51c1.59,2.56,9.61,14.08,26.46,17.33,19,3.66,58.38,3.8,69.2,4.77,10.82.97,14.8.83,19.99,2.04l5.19,1.22s-20.71-1.88-28.63-2.57c-7.92-.69-32.17-1.8-38.7-1.8s-24.36-1.11-37.08-5.82c-12.72-4.71-16.74-15.67-16.74-15.67"/>
    <path class="st17" d="M45.54,122.36s-.16-4.39,2.04-4.71c2.2-.32.09,2.64,1.27,5,0,0-2.36-2.62-3.31-.29"/>
    <path class="st17" d="M53.09,122.65s-1.89-4.39.18-5.21c2.07-.82.93.96,2.66,3.66,0,0-1.19-.26-1.88,0-.69.26-.97,1.55-.97,1.55"/>
    <path class="st17" d="M61.25,121.67s-2.41-4.12-.49-4.23c1.92-.11,4.28,3.37,4.28,3.37,0,0-2.58-1.11-3.79.86"/>
    <path class="st17" d="M69.64,119.36s-2.93-4.62-.82-4.4,3.86,3.79,3.86,3.79c0,0-2.29-1.11-3.04.61"/>
    <path class="st17" d="M77.06,116.85s-3.96-3.55-1.86-3.91c2.1-.36,5.13,2.58,5.48,3.06.35.48-2.78-.8-3.62.85"/>
    <path class="st17" d="M83.6,113.43s-2.64-3.29-1.38-3.63c1.26-.34,5.21,3.12,5.21,3.12,0,0-3.69-.88-3.82.51"/>
    <path class="st17" d="M90.24,110.09s-3-3.69-1.11-4.05c1.88-.36,4.92,3.13,4.92,3.13,0,0-3.77-.32-3.81.92"/>
    <path class="st17" d="M97.16,106.52s-3.38-4.1-1.59-4.26c1.79-.16,4.71,3,4.71,3,0,0-2.97-.14-3.13,1.27"/>
    <path class="st17" d="M102.79,103.12s-3.08-3.62-.49-3.57c2.6.04,3.98,1.79,3.98,1.79,0,0-3.18.3-3.49,1.79"/>
    <path class="st17" d="M110.23,99.92s-2.27-2.72-1.07-3.5c1.21-.78,3.79,2.29,3.79,2.29,0,0-3.12.4-2.72,1.21"/>
    <path class="st17" d="M123.36,93.79s-1.24-2.44.05-2.35c1.29.09,2.8,3.49,2.8,3.49,0,0-2.57-1.92-2.85-1.14"/>
    <path class="st17" d="M130.61,93.79s-1.79-5.56,0-5.08c1.79.48,3.21,4.47,3.21,4.47,0,0-3.41-.41-3.21.61"/>
    <path class="st17" d="M138.13,92.91c.13.4-.59-5.05.61-4.78,1.2.27,2.76,5.65,2.76,5.65,0,0-3.74-2-3.38-.87"/>
    <path class="st17" d="M146.24,92.36s-1.51-4.23-.4-4.24c2.11-.01,2.86,4.24,2.86,4.24,0,0-2.68-.85-2.46,0"/>
    <path class="st17" d="M153.02,95.5s.93-4.53,2.03-4.26c1.1.27,1.1,4.26,1.1,4.26,0,0-1.78-.63-3.13,0"/>
    <path class="st17" d="M160.61,96.3s-.19-3.69,2.51-2.94c2.7.75.86,4.73.86,4.73,0,0-1.96-3.2-3.37-1.79"/>
    <path class="st17" d="M167.12,98.09s.09-3.61,2-3.52c1.91.09,1.89,1.76,1.68,3.52-.21,1.76-2.2-1.35-3.68,0"/>
    <path class="st17" d="M174.27,99.55s-.15-3.23,2.15-2.94c2.3.29.8,2.94.8,2.94,0,0-2.54-1.82-2.96,0"/>
    <path class="st17" d="M181.08,100.92s.42-3.94,1.86-3.71c1.43.23.89,3.4.89,3.4,0,0-1.67-.79-2.75.31"/>
    <path class="st19" d="M68.05,21.98c1.13,1.16,2.78,13.54,29.61,20.5,26.83,6.96,54.64,6.57,73.22,3.48,18.59-3.1,49.92-11.6,68.1,7.73,18.18,19.34,24.37,50.69,24.37,50.69l4.73,7.75V17.45H65.04l3.02,4.53Z"/>
    <path class="st19" d="M68.82,19.49s-15.45-2.88-14.7,0c.75,2.88,14.7,5.9,14.7,5.9,0,0-11.61-.7-7.36,3.17,4.25,3.87,8.91,3.48,8.91,3.48,0,0-2.1-.77.68,6.19l2.78,6.96s4.15-1.16,3.82-4.64l-.33-3.48,2.94.39s-.63,8.51,4.41,9.28c5.03.77,8.63-5.51,8.63-5.51,0,0,3.68,6.03,7.58,5.57l3.9-.45,11.07.48s-1.7,8.67,0,9.9c1.69,1.23,6.31,3.46,6.31,3.46,0,0,.93-6.49.67-8.04l-.26-1.55,4.18-.39s-2.78,2.57,0,6.51l2.78,3.94s4.34,1.02,4.3-3.94l-.04-4.96s6.38-.77,8.41-1.16c2.03-.39,17.26.39,32.08-2.71,14.82-3.09,17.06-5.42,17.06-5.42,0,0-8.26,8.51-4.09,8.9,4.17.39,10.12-6.19,10.12-6.19,0,0-.5,2.32,5.29,1.55,5.78-.77,8.6-5.11,8.6-5.11,0,0,7.03,7.05,13.13,8.21l6.1,1.16s4.65,1.8,5.23,5.73c.58,3.94-4.4,7.17,1.57,8.07,5.97.9,8.8,0,8.8,0,0,0,.65,4.44,2.59,8.86,1.93,4.42,9.68,26.1,13.54,25.9,3.86-.2,0-33.53,0-33.53,0,0-29.01-33.98-32.11-33.98s-74.88.39-76.31.39-84.96-12.93-84.96-12.93"/>
    <path class="st3" d="M16.29,203.75s11.9.41,20.98,5.05c9.09,4.64,16.84,14.7,16.84,14.7l-21.2-20.88s23.68,11.92,29.6,17.79c5.93,5.87,10.15,5.7,10.15,5.7l-10.15-11.6s10.58,8.99,15.2,8.99,11.08-3.09,17.32-3.87c6.24-.77,10.78-1.16,10.78-1.16l-4.97,3.19-13.73,13.22H18.81l-2.52-31.13Z"/>
    <path class="st3" d="M68.05,226.29c1.91-.08,17.33-4.72,20.45-10.91,3.12-6.19,2.77-8.74,2.77-8.74,0,0-1.08,15.29-3.85,17.82l-2.77,2.53s9.85-4.26,9.95-12.38c.1-8.12,0-10.86,0-10.86,0,0,3.01,12.34.44,19.17l-2.57,6.83s14.34-5.56,18.73-10.35c4.39-4.79,7.94-9.04,7.94-9.04l-3.31,8.4s25.39-11.18,30.76-12.11c5.36-.93,10.76,2.55,10.76,2.55,0,0-18.53-2.12-19.7,4.74-1.17,6.86,6.56,9.57,6.56,9.57,0,0-43.24,5.91-44.83,6.24-1.58.33-31.34-3.45-31.34-3.45"/>
    <path class="st3" d="M227.17,208.51s12.2,3.7,11.81-1.87c-.39-5.57-3.28-8.28-3.28-8.28,0,0,3.97,1.55,5.56,4.26l1.59,2.7s8.24,2.33,7.79-2.7c-.44-5.03-1.99-13.93-1.99-13.93,0,0,3.87,6.71,4.26,10.51l.39,3.8v-19.67l3.09,20.42s8.86-10.42,7.52-10.03c-1.33.39,2.55,16,2.55,16l-2.55,9.03-30.64-1.99-6.1-8.25Z"/>
  </g>
  <g>
    <path class="st13" d="M72.61,252.38l-.34,2.42h-10.78v-18.22h2.66c-.22,2.81-.26,11.64-.29,16.08,3.1-.02,6.55-.1,8.74-.29Z"/>
    <path class="st13" d="M79.28,246.42c-.05,3.38-.05,6.65-.05,8.38h-2.23v-8.28c-2.11-3.46-4.58-6.94-6.94-9.94h3c1.58,2.09,3.29,4.73,5.11,7.61,1.66-2.69,3.41-5.3,5.14-7.61h2.69c-2.3,3.02-4.75,6.53-6.72,9.84Z"/>
    <path class="st13" d="M101.33,254.8h-3.19c-2.33-3.55-6.19-7.99-6.67-8.04-.46-.02-.96-.07-1.46-.14-.02,2.45-.05,6.43-.05,8.18h-2.38v-18.22h4.44c4.51,0,6.74,2.18,6.74,5.09,0,2.45-1.73,4.15-4.85,4.63,1.58,1.1,4.25,4.2,7.42,8.5ZM90.03,244.91c.58.07,1.1.1,1.61.1,3.14,0,4.49-1.27,4.49-3.17s-1.34-3.26-4.42-3.26h-1.54c-.07,1.37-.1,3.7-.14,6.34Z"/>
    <path class="st13" d="M121.69,245.58c0,5.26-4.44,9.55-9.89,9.55s-9.79-4.08-9.79-9.31,4.42-9.55,9.89-9.55,9.79,4.08,9.79,9.31ZM104.72,245.7c0,4.2,3.26,7.32,7.22,7.32s7.03-3.12,7.03-7.32-3.26-7.34-7.22-7.34-7.03,3.14-7.03,7.34Z"/>
    <path class="st13" d="M127.01,246.09c0,3.74,2.21,6.79,7.03,6.79,1.66,0,3.29-.41,4.51-1.08v1.9c-1.1.94-2.64,1.46-4.9,1.46-6.29,0-9.31-4.32-9.31-9s3.48-9.94,10.25-9.94c1.75,0,3.14.22,3.96.43v2.78c-1.06-.6-2.66-.91-4.34-.91-4.73,0-7.2,3.53-7.2,7.56Z"/>
    <path class="st13" d="M143.79,254.8h-2.38v-18.22h2.66c-.1,1.42-.17,4.42-.22,7.61,1.61-.1,8.04-.1,9.79-.02v-7.58h2.67c-.24,3.19-.29,14.52-.29,18.22h-2.38v-8.76c-1.7-.12-8.45-.07-9.82.02-.05,3.43-.05,6.94-.05,8.74Z"/>
    <path class="st13" d="M167.33,255.14h-1.78c-1.82-5.3-4.66-12.46-7.34-18.55h3c2.21,5.52,4.13,10.78,5.47,14.95,1.63-3.94,3.74-9.48,5.59-14.95h2.71c-2.18,5.95-5.04,12.87-7.66,18.55Z"/>
    <path class="st13" d="M195.12,245.58c0,5.26-4.44,9.55-9.89,9.55s-9.79-4.08-9.79-9.31,4.42-9.55,9.89-9.55,9.79,4.08,9.79,9.31ZM178.16,245.7c0,4.2,3.26,7.32,7.22,7.32s7.03-3.12,7.03-7.32-3.26-7.34-7.22-7.34-7.03,3.14-7.03,7.34Z"/>
    <path class="st13" d="M206.96,239.75c-.89-.82-2.28-1.22-3.5-1.22-1.9,0-2.98,1.1-2.98,2.71,0,3.89,7.42,3.65,7.42,8.86,0,3.22-2.64,5.06-5.71,5.06-2.04,0-3.65-.79-4.78-1.73v-1.66c1.2.67,2.9,1.18,4.37,1.18,1.99,0,3.48-.94,3.48-2.76,0-3.58-7.42-3.24-7.42-8.79,0-3.14,2.59-5.18,5.76-5.18,1.37,0,2.52.26,3.36.53v3Z"/>
    <path class="st13" d="M218.12,254.8h-2.4v-16.15c-2.28.02-4.97.1-6.43.29v-2.35h15.36v2.35c-1.44-.19-4.2-.26-6.34-.29-.17,4.42-.19,13.01-.19,16.15Z"/>
  </g>
</svg>