<?xml version="1.0" encoding="UTF-8"?>
<svg id="Vrstva_1" xmlns="http://www.w3.org/2000/svg" xmlns:xlink="http://www.w3.org/1999/xlink" version="1.1" viewBox="0 0 283.46 283.46">
  <!-- Generator: Adobe Illustrator 30.1.0, SVG Export Plug-In . SVG Version: 2.1.1 Build 136)  -->
  <defs>
    <style>
      .st0 {
        fill: none;
      }

      .st1 {
        fill: #f9c261;
      }

      .st2 {
        fill: #ae9831;
      }

      .st3 {
        fill: #7e7577;
      }

      .st4 {
        fill: #e5ddd1;
      }

      .st5 {
        fill: #ded4c5;
      }

      .st6 {
        fill: #e7b132;
      }

      .st7 {
        fill: #c0861f;
      }

      .st8 {
        fill: #404249;
      }

      .st9 {
        clip-path: url(#clippath-1);
      }

      .st10 {
        clip-path: url(#clippath-2);
      }

      .st11 {
        fill: #0d6b80;
      }

      .st12 {
        fill: #fff;
      }

      .st13 {
        fill: #31323b;
      }

      .st14 {
        fill: #ccbeae;
      }

      .st15 {
        fill: #d29a27;
      }

      .st16 {
        fill: #23222b;
      }

      .st17 {
        fill: #27a0c5;
      }

      .st18 {
        fill: #1286b3;
      }

      .st19 {
        fill: #cca63b;
      }

      .st20 {
        clip-path: url(#clippath);
      }

      .st21 {
        fill: #efe9df;
      }
    </style>
    <clipPath id="clippath">
      <rect class="st0" x="19.84" y="19.84" width="243.78" height="243.78"/>
    </clipPath>
    <clipPath id="clippath-1">
      <rect class="st0" x="214.32" y="61.37" width="2.48" height="2.31"/>
    </clipPath>
    <clipPath id="clippath-2">
      <rect class="st0" x="19.84" y="19.84" width="243.78" height="243.78"/>
    </clipPath>
  </defs>
  <rect class="st15" x="19.84" y="19.99" width="243.78" height="243.63"/>
  <g class="st20">
    <path class="st7" d="M6.47,57.37s28.02-2.71,40.09,16.07,11.03,40.54,11.03,40.54c0,0-11.56-17.21,20.65-23.51l32.21-6.3s-24.68,37.67-34.77,37.67-10.08,3.99-10.08,3.99l56.36-.8-2.52,69.92,88.5,50.53s-10.88-8.61-2.82-26c8.07-17.39,16.83-18.25,16.83-18.25,0,0,14.61,28.68,15.96,44.25l1.35,15.57s-8.39-15.31,10.02-24.18c18.41-8.86,14.77,42.95,14.77,42.95H83.14L6.47,57.37Z"/>
    <path class="st7" d="M4.23,67.02s44.55,12.09,47.69,31.14c3.14,19.06,12.59,22.03,13.67,23.67,1.08,1.64-3.28-3.36,7.52,9.41,10.8,12.77,82.52,60.06,109.51,88.23s81,54.86,81,54.86l.42,5.47H4.23V67.02Z"/>
    <path class="st19" d="M207.59,132.2s2.97.68,3.88-.57c.91-1.25,1.02-6.61,1.02-6.61,0,0,.8-1.14.8-2.62s-5.7-14.7-8.78-15.67c-3.08-.97-5.84-1.91-5.84-1.91,0,0,8.1,22.82,8.91,27.38"/>
    <path class="st16" d="M124.85,274.3s3.08-.57,4.44-1.48c1.37-.91,5.13-7.06,5.13-7.06,0,0,4.44-1.03,5.93-3.31,1.48-2.28,2.28-7.98,2.28-7.98l-10.37,8.2-8.43,10.6s-.13,1.28,1.03,1.03"/>
    <path class="st6" d="M121.55,276.7s9.68-8.55,11.68-11.74c2-3.19,9.75-8.89,17.15-16.98,7.41-8.09,17.89-24.96,17.89-24.96,0,0,.11,2.28,1.14,0,1.03-2.28,1.25-5.01,1.25-5.01,0,0,4.79-4.1,5.93-10.83,1.14-6.72,1.37-18.46,1.37-18.46,0,0,1.48-4.1,1.71-8.32.23-4.22,0-6.5,0-6.5,0,0,6.15-11.28,6.27-12.42,0,0,2.17,0,2.51-.57l.34-.57s2.39,1.48,3.99.46c1.6-1.03,2.74-7.07,2.74-7.07,0,0,1.37.34,1.6-.68.23-1.03.68-5.58.68-5.58,0,0,1.14,1.48,1.71,0,.57-1.48,1.59-8.77,0-10.83,0,0,4.21,4.44,7.06,1.02,2.85-3.42,1.03-10.03-.91-14.24-1.94-4.22-6.52-19.94-6.52-19.94l-9.2-15.27,2.28-5.81,3.88-3.65,3.53-2.17,1.25-5.24-5.93-9.23h-10.71s-7.75-2.28-13.22,1.6-12.42,15.27-12.76,20.4c-.34,5.13-4.22,17.44-3.99,19.49.23,2.05,0,14.36,0,14.36l15.61,29.85-9.91,31.11-27.35,70.31-19.71,7.29-11.96,19.52,20.63.65Z"/>
    <path class="st1" d="M165.42,224.28s-6.95,9.12-10.26,11.28c-3.31,2.17-2.05.8-2.05.8,0,0-2.39.74-1.94.43.46-.31,1.6-1.68,1.6-1.68,0,0-3.87,1.82-3.19.91.68-.91,2.39-2.17,2.39-2.17,0,0-1.71.34-1.48,0,.23-.34,2.74-3.19,5.01-6.38,2.28-3.19,1.95-4.79,1.95-4.79,0,0-2.53,2.73-2.98,2.17-.45-.57,1.03-1.6,1.03-1.6l-4.44,1.37,1.25-4.33s2.16-.91,3.88-2.51l1.71-1.59-6.38,3.19s1.37-6.72,3.76-8.43c2.39-1.71,6.15-7.75,6.15-7.75,0,0-5.58,5.36-6.15,5.36s6.49-14.81,7.98-16.75l1.48-1.94s1.37-6.61,2.17-7.86c.8-1.25,4.67-16.29,6.84-16.41,2.16-.11,3.99,9.23,4.1,13.22.12,3.99-1.37,8.78-1.25,10.71.11,1.94-.8,7.98-1.25,13.45-.46,5.47-5.01,13.22-5.01,13.22,0,0-.68,5.58-1.37,5.24-.68-.34-2.7,1.78-3.53,2.85"/>
    <path class="st6" d="M167.81,213.11s-2.72,3.63-4.36,5.4c-.69.74-1.19,1.17-1.22.86-.11-1.03,0-2.39,0-2.39,0,0,.34,3.99,5.58-3.87"/>
    <path class="st6" d="M169.98,210.83s.8.57,1.14,0,2.28-6.95,2.28-6.95l-3.42,6.95Z"/>
    <path class="st15" d="M174.76,153.74s-.8,4.79,0,4.33c.8-.46,1.6-2.15,1.6-2.15,0,0-1.48,6.14-.46,6.03,1.02-.11,3.53-2.96,3.53-2.96,0,0-.46,2.39.68,1.82,1.14-.57,4.44-2.96,4.44-2.96,0,0-5.7,14.24-5.58,13.33.11-.91.67-6.61.51-7.98-.16-1.37-.62.34-.96-.11l-.34-.46s-2.96,1.14-3.19.46c-.23-.68-.58-3.08-.58-3.08,0,0-.67,1.25-1.01-1.48-.34-2.74,1.51-5.78,1.37-4.79"/>
    <path class="st15" d="M167.58,107.13s.46,2.28,1.37,1.71c.91-.57,2.74,1.75,3.76.82,1.03-.93,2.28-3.9,2.28-3.9,0,0,1.59,2.85.91,7.07-.69,4.22-1.71,10.71-.69,11.4,1.03.68.85-.57.85-.57,0,0,.41,2,1.77.77,1.36-1.23,1.55-13.65,1.11-15.47l-.43-1.82s1.02,2.28,1.48,1.94c.46-.34.68.23,1.03.11.34-.11,1.82-1.82,1.82-1.82,0,0,1.03,4.9.91,5.81-.11.91-1.02-2.85-2.16-1.25-1.14,1.6-1.24,14.47-3.76,14.81-2.51.34-2.17-.8-2.17-.8,0,0-2.6-.91-2.33-2.96.27-2.05,1.29-9.69,1.52-12.31.23-2.62.12-3.08.12-3.08,0,0-1.48,3.53-2.62,3.42-1.14-.11-1.71-1.02-2.62-1.25-.91-.23-2.39-1.37-2.16-2.62"/>
    <path class="st15" d="M182.62,125.82c0-.46,1.94-6.84,1.94-8.77v-1.94s.57,2.39.91,2.28c.34-.11,0-6.95,0-6.95,0,0,1.14,5.7.68,8.43-.46,2.74-1.02-.11-1.02-.11l-2.51,7.07Z"/>
    <path class="st15" d="M188.78,114.43s1.37,5.13,2.16,4.44c.8-.68.34-8.43.34-8.43,0,0,2.73,7.07,2.96,10.83l.23,3.76-2.17-8.21s-.11,3.53-1.25,3.19c-1.14-.34-2.28-5.58-2.28-5.58"/>
    <path class="st15" d="M198.81,128.67s.57,3.76,2.51,3.76,1.71-10.6,1.71-10.6c0,0,1.16,11.05,0,11.97-1.15.91-3.65-.34-4.23-5.13"/>
    <path class="st15" d="M169.06,85.82s.23,3.53,1.03,3.53.34.57.8.91c.46.34-.34.11.91,1.6,1.25,1.48.8.8,2.39,3.19,1.6,2.39,2.63,3.65,3.65,4.79,1.02,1.14-.35.34,1.59,2.16,1.94,1.82,3.89,2.74,4.34,3.76.45,1.03.78,3.53,2.49,4.67,1.72,1.14,1.94,2.51,1.94,2.51,0,0-.58-1.82-1.94-2.96-1.36-1.14-1.57-4.44-2.49-5.47-.92-1.03-4.61-3.08-4.82-3.99-.21-.91-3.29-4.22-3.29-4.22,0,0-2.39-5.35-3.98-6.15-1.6-.8-2.62-4.33-2.62-4.33"/>
    <path class="st15" d="M181.6,94.03s1.48,5.58,3.53,7.63c2.05,2.05,6.15,8.77,6.15,8.77l.65,1.82.25.69s-6.03-8.09-7.63-10.03c-1.6-1.94-2.96-8.89-2.96-8.89"/>
    <path class="st15" d="M185.13,92.09s5.11,7.75,7.05,11.4c1.95,3.65,5.25,11.05,5.59,14.64.34,3.59.57,7.69.57,7.69,0,0-1.71-10.14-3.08-12.88-1.37-2.73-10.14-20.85-10.14-20.85"/>
    <path class="st15" d="M193.11,99.38s5.93,14.93,6.27,17.66l.34,2.74-6.61-20.4Z"/>
    <path class="st15" d="M174.88,71.69s-2.14,2.05-1.52,2.28c.61.23-1.55.57-.99,1.82.57,1.25-.43,2.62.99,4.22l1.41,1.6s-3.19-.8-3.08-4.96c0,0-.46-1.88,0-2.22l.46-.34s1.48-2.85,2.74-2.39"/>
    <path class="st15" d="M193.11,136.65c.23.46.34,8.55,0,11.74-.34,3.19-4.33,11.96-4.33,11.96,0,0,5.24-6.84,5.7-10.94.46-4.1-1.37-12.76-1.37-12.76"/>
    <path class="st18" d="M167.81,165.59s-9.93,40.46-11.12,44.05c-1.19,3.59-1.65,4.96-2.22,5.87-.57.91-8.99,29.6-17.32,32.36,0,0-3.53,15.27-12.19,15.5v-2.05l-1.71,2.05s-3.53,1.25-6.84-3.87c0,0-13.44,15.86-14.47,16.59l-97.72-.07s8.49-16.52,10.43-18.91c1.94-2.39,15.16-29.52,16.3-31.34,1.14-1.82,19.71-44.56,33.05-59.6,13.33-15.04,27.69-30.65,27.69-30.65,0,0,3.3-3.76,4.1-4.44.8-.68,5.81-11.62,13.79-15.95,0,0,3.19-8.09,5.13-9.69,0,0,1.14-5.93,6.15-11.74,5.01-5.81,10.26-11.4,10.26-11.4,0,0,.57-2.85,2.96-4.56,0,0,1.14-3.18,5.92-6.09,0,0,.91-2.8,3.42-4.28,0,0-.57-2.05,5.81-6.5,6.38-4.44,12.99-7.18,12.99-7.18,0,0,.8-2.85,10.14-4.9,0,0,1.02-3.64,6.95-4.79,5.93-1.14,9.57-1.6,13.79-1.71,4.22-.12,11.74-1.71,19.71-1.25,7.98.46,10.94,3.76,13.56,3.87,2.62.11-15.38,9-23.59,11.62-8.2,2.62-27.12,6.38-28.6,8.89-1.48,2.51.12,2.85-3.3,4.44-3.42,1.6-6.27,4.22-5.93,4.79l.34.57s-1.71,2.16-1.25,2.62l.46.46v1.71s-4.44,3.3-4.1,4.56c.34,1.25,1.14,1.25,1.14,1.25,0,0-.23.8.91,1.6l1.14.8s-2.28,5.24-.57,5.81l1.71.57s.11,1.14,1.25,1.25l1.14.11s-.39.46.43.91l.82.46s-1.25,2.05-2.62,2.05h-1.37s-1.25.57-2.28,0c-1.03-.57-1.48-.91-1.48-.91,0,0-2.85.8-3.42,2.05-.57,1.25-.45,5.81,1.14,6.04l1.6.23s.23.91,1.94,1.14c1.71.23,4.44-.23,4.44-.23,0,0-.65,3.76-2.66,4.1-2.01.34-3.38.34-3.38.34,0,0-2.17,1.37-3.53,1.37s-2.45.8-2.45.8c0,0,7.73,3.07,9.37,5.47,1.63,2.39,9.41,15.72,9.68,20.62.27,4.9-5.54,25.18-5.54,25.18"/>
    <path class="st17" d="M167.56,163.43s.59,5.05,2.42,4.9c1.82-.15,4.56-16.75,4.56-23.02,0,0-.11-10.83-5.47-18.92-5.36-8.09-10.37-12.42-17.09-12.42s-12.88,3.3-14.82,4.16c-1.94.86-5.81,3.93-9.69,4.84-3.87.91-11.51,4.98-11.51,4.98,0,0-2.05.95-2.62,1.86-.57.91,4.9-.11,10.26-1.14l5.36-1.03s3.42,1.71,6.04,1.03c2.62-.68,2.85-1.25,2.85-1.25,0,0,.46,1.19,2.85.54,2.39-.65,2.39-1.16,2.39-1.16,0,0,4.33,1.66,8.32,0,3.99-1.66,4.1-4.17,4.1-4.17,0,0,1.48,2.96,4.44,2.39l2.96-.57s4.9,13.56,7.07,13.79l2.16.23s-.69,9.08-1.6,13.07c-.91,3.99-.5,7.33-2.98,6.53v5.36Z"/>
    <path class="st17" d="M111.18,145.08s4.33,6.5,7.52,6.72c3.19.23,2.51-2.28,2.51-2.28,0,0,5.58,1.48,8.2-.23l2.62-1.71s3.42-.23,5.13-1.25c1.71-1.03,2.39-4.22,2.39-4.22,0,0,4.18-1.6,4.37-3.19,0,0-.49,6.27,3.38,8.77,3.87,2.51,8.55.11,8.55.11,0,0,.91,6.27,3.65,6.27s3.42-1.94,3.42-1.94c0,0,.34,3.4,2.08,4.44l1.74,1.04s-4.92-1.1-4.56-2.98c0,0-5.65,2.85-7.13-5.36,0,0-9.49,4.93-12.19-8.15l-2.74,1.88s.23,6.49-7.86,5.47c0,0-4.56,6.51-9.68,2.18,0,0-.34,2.5-4.33,2.16-3.99-.34-7.07-7.75-7.07-7.75"/>
    <path class="st17" d="M132.6,164s4.1,3.3,7.86,2.74c3.76-.57,6.5-9.1,6.5-9.1,0,0-.46,9.67-5.58,10.13-5.13.46-8.77-3.76-8.77-3.76"/>
    <path class="st17" d="M151.52,157.63s-2.28,8.43,1.48,10.7c3.76,2.27,9.18,0,9.18,0,0,0-3.25,2.84-8.5,1.93-5.24-.91-3.3-12.05-2.16-12.64"/>
    <path class="st17" d="M83.14,164.68s4.33,2.62,7.07.91c2.74-1.71,5.24-9.12,5.24-9.12,0,0-2.17,6.38.8,6.84,2.96.45,7.86-3.65,8.32-6.27l.46-2.62s.8,8.51-4.1,9.61c-4.9,1.1-6.81,0-6.81,0,0,0-1.5,3.56-5.72,3.75-4.22.19-5.24-3.11-5.24-3.11"/>
    <path class="st17" d="M85.76,154.42s-7.29,21.65-11.28,22.22c-3.99.57-7.98,1.03-8.43-.57l-.46-1.59s2.62,2.28,6.72.8c4.1-1.48,13.45-20.85,13.45-20.85"/>
    <path class="st17" d="M109.01,164.57s5.47,2.28,8.43,1.02c2.96-1.25,4.44-5.7,4.44-5.7,0,0-1.03,6.72-5.24,6.84-4.22.11-7.64-2.17-7.64-2.17"/>
    <path class="st11" d="M51.92,206.73s1.6,2.05,5.58,1.25c3.99-.8,11.4-19.83,11.4-19.83,0,0,.23,11.96,4.33,12.53,4.1.57,6.27-1.48,6.27-1.48,0,0,1.37,2.21,5.13,2.02,3.76-.19,6.72-3.61,6.72-3.61,0,0-1.71,4.44-7.29,4.44s-4.67-1.71-4.67-1.71c0,0-2.73,1.82-6.61,1.48-3.87-.34-4.56-9-4.56-9,0,0-6.15,16.98-10.6,16.98s-5.7-3.08-5.7-3.08"/>
    <path class="st16" d="M51.92,213.11c.06.1,1.37,8.66,1.25,12.08-.11,3.42-7.41,35.89-9,35.21-1.59-.68-4.44-22.33-.91-33.27,3.53-10.94,7.98-15.16,8.66-14.02"/>
    <path class="st16" d="M42.46,234.42c0,.34-6.38,21.2-6.72,20.06-.34-1.14,1.25-13.79,1.25-13.79,0,0,5.09-8.38,5.34-9.67.25-1.29.13,3.4.13,3.4"/>
    <path class="st16" d="M33,242.66s-20.51,36.78-20.85,35.41c-.34-1.37,18.57-36.01,18.57-36.01l2.28.6Z"/>
    <path class="st16" d="M30.61,237.61c-.23.68-13.91,33.59-13.91,33.59l-.79-2.71,14.7-36.01v5.13Z"/>
    <path class="st16" d="M30.04,227.46l-19.94,49.23h-2.11l7.92-20.51-9.44,15.51s8.89-19.27,11.78-24.62c2.9-5.36,10.98-21.09,11.78-19.6"/>
    <path class="st11" d="M46.56,270.09s3.19,4.17,10.14,4.25c6.95.08,11.62-9.83,12.65-15.65,1.03-5.81,3.76-27.01,3.76-27.01,0,0-5.7,32.36-9.34,36.58-3.65,4.22-12.54,3.53-17.21,1.82"/>
    <path class="st11" d="M69.01,269.52s6.15,7.25,11.28,4.82c5.13-2.43,6.15-21.91,6.61-27.27l.46-5.36s1.48,32.59-6.5,34.07c-7.98,1.48-11.85-6.27-11.85-6.27"/>
    <path class="st11" d="M87.47,266.1s5.47,1.63,9.01-1.69c3.53-3.32,6.15-11.07,6.61-13.69l.46-2.62s1.53,17.27-9.57,20.17c0,0-6.62.57-6.5-2.16"/>
    <path class="st11" d="M108.56,254.47s4.56,1.37,8.43-3.65c3.88-5.01,7.98-16.52,7.52-25.52-.46-9-.69-10.03-.69-10.03,0,0,10.26,42.96-15.26,39.2"/>
    <path class="st11" d="M140.92,210.26s-1.14,24.84-2.16,29.74c-1.03,4.9-1.14,5.47-1.14,5.47,0,0,3.19-7.06,3.3-21.99,0,0,.57-13.22,0-13.22"/>
    <path class="st11" d="M114.03,211.86s5.93-.89,7.18-4.38c1.25-3.49,1.25-4.74,1.25-4.74,0,0,4.33.46,7.07-.8,2.73-1.25,2.96-2.96,2.96-2.96,0,0,2.99,6.52,6.91,8.5l3.92,1.98s-2.74-.12-5.13-1.25c-2.39-1.14-5.7-6.98-5.7-6.98,0,0-3.88,4.02-8.67,2.65,0,0-2.16,8.78-9.79,7.98"/>
    <path class="st17" d="M120.75,123.31s-3.19-3.87-6.72-3.65c-3.53.23-11.85,4.33-12.65,7.98-.8,3.65-.46,5.58-1.25,5.24-.8-.34-.91-1.03-.91-1.03,0,0-3.42,7.64-5.58,9.29l-2.17,1.65s2.51-.23,3.88-1.02l1.37-.8s-1.37,5.7,1.71,5.81c3.08.12,6.25-2.39,6.66-5.01.41-2.62.18-11.17,3.94-13.56,3.76-2.39,8.2-.91,8.2-.91l4.75-2.28-1.21-1.71Z"/>
    <path class="st17" d="M132.03,120.35s-11.51,2.74-13.22,3.76c-1.71,1.03-.59,2.69-.59,2.69,0,0,7.74-3.37,9.25-3.82,1.51-.46,8.09-2.51,4.56-2.62"/>
    <path class="st17" d="M111.18,114.77s10.83-6.04,10.71-5.81c-.11.23-2.85,4.22-1.48,6.38,1.37,2.16,7.29,2.79,7.29,2.79,0,0-6.5.46-7.75-1.85-1.25-2.31-.56-4.59-.56-4.59l-8.21,3.08Z"/>
    <path class="st17" d="M117.86,102.92s-2.24,3.08.38,2.85c2.62-.23,5.58-.91,5.58-.91,0,0,.68,1.03,4.33.91,3.65-.11,10.03-2.28,10.03-2.28,0,0,2.24,1.62,5.73,2.29,0,0-4.81,0-5.96-.92,0,0-12.08,3.53-14.7.91,0,0-9.99,2.16-5.39-2.85"/>
    <path class="st17" d="M123.14,94.03s-1.71,2.74.91,2.85c2.62.11,8.09-2.85,8.09-2.85,0,0-.23.91,1.94,1.43l2.16.51-4.56-.91s-11.28,7.63-8.55-1.03"/>
    <path class="st17" d="M146.27,97.68l5.81-1.58s.47,1.16,1.71,2.07c1.24.91,1.71,1.22,1.71,1.22,0,0-3.66-.18-3.87-1.65l-5.36-.06Z"/>
    <path class="st17" d="M137.39,81.61l2.39-.91s2.58.57,4.14.46l1.56-.11,2.28-.34s-7.18.34-7.98-1.02l-2.39,1.94Z"/>
    <path class="st2" d="M172.55,68.93s3.58-4.18,7.34-4.3c3.76-.11,26.1-3.76,26.1-3.76,0,0,14.13-3.3,19.14-2.96,5.01.34,13.22,6.15,15.73,6.15h6.38s-4.56-7.29-7.98-8.66c-3.42-1.37-23.02-5.01-24.84-5.01s9.83,2.47,9.69-.46c-.14-2.93-15.51-7.07-16.08-6.27-.56.8,0,1.82,0,1.82,0,0-2.27-.46-2.27.57v1.02s-5.7-.34-6.04.91l-.34,1.25s-2.17,1.14-1.82,2.39l.34,1.25s-4.46.23-5.71,1.25c-1.24,1.03-1.02,2.1-1.02,2.1,0,0-2.51-1.07-3.76-.5l-1.26.57s0-2.51-3.53-1.37c-3.53,1.14-3.53,3.08-3.53,3.08,0,0-7.71,3.81-7.61,5.38.09,1.57.55,2.14.55,2.14,0,0-2.15,4.49.52,3.39"/>
    <path class="st6" d="M224.25,44.31s4.87.72,5.9,1.52c1.03.8,4.33,4.1,6.95,5.58,2.62,1.48,7.75,6.38,9.23,9.12s.91,3.53.91,3.53h-5.81s-6.95-5.13-7.86-6.84c-.91-1.71-6.84-3.65-10.6-3.88-3.76-.23-10.17,2.2-10.48.84l-.31-1.37s-1.63.53-1.74-.27c-.11-.8,1.94-2.39,1.94-2.39,0,0-1.82-1.82.46-2.05,2.28-.23,4.44-.23,4.44-.23,0,0-5.37-2.47-2.51-2.94,2.85-.48,5.36-.62,5.36-.62,0,0-2.22-2.77,4.13,0"/>
    <path class="st21" d="M218.98,57.34s-3.42-1.32-5.47-1c-2.05.32-4.28,1.57-4.28,1.57,0,0-2.9,1.37-4.04,1.48-1.14.11-1.65-.8-1.65-.8,0,0-1.31,1.94-3.82,2.17-2.51.23-5.24,1.82-5.24,2.85s1.94,1.82,1.94,1.82c0,0-.44,2.22,1.14,2.74,1.58.51,1.25.94,1.25.94,0,0-.68,2.36,0,3.05l.68.68s-1.03,1.71-1.14,2.73c-.11,1.03-4.33,4.56-5.24,7.07-.91,2.51-.34,10.06,2.28,13.46,2.62,3.4,11.97,8.73,11.97,8.73l12.54-12.73,4.33-2.96,5.13-.23,9.12-8.35,10.26-7.04v-2.28s1.37-.28,1.37-2.14-.68-3.22-1.37-3.9c-.68-.68-3.3-3.3-5.01-2.96-1.71.34-3.35,1.02-3.35,1.02,0,0-3.83-1.93-4.97-2.84-1.14-.91-9.34-6.5-16.41-3.08"/>
    <path class="st5" d="M233.49,85.62s13.86-10.2,15.23-13.36c1.37-3.16.22-7.35-3.82-7.78-4.04-.43-5.34,1.8-6.99.95-1.65-.85-9.88-3.98-12.46-5.47-2.58-1.49-.18,8.57-1.38,9.14-1.2.57-1.65,4.92-6.59,5.79-4.94.87-6.3,17.6-4.18,17.2s5.2-7.25,10.4-6.53c5.2.72,7.47,1.81,9.8.06"/>
    <path class="st16" d="M208.03,124.45c.46.04,1.81-.23,1.19-2.62-.62-2.39-9.67-14.02-8.05-14.13,1.62-.11,8.8,12.99,10.05,14.13,1.25,1.14,1.37-.11,1.03-1.48-.34-1.37-11.07-14.84-10.31-14.59.77.25,12.01,15.95,12.81,16.07.8.11-3.19-7.86-3.19-7.86,0,0,6.15,1.71,12.54,1.14,6.38-.57,16.75-3.99,16.75-3.99,0,0-5.01,15.73-10.26,20.06,0,0,1.48.57,5.01-1.6,3.53-2.17,16.98-12.59,18.8-24.76,1.82-12.16,1.14-27.66-5.7-32.56,0,0-1.48-.23-2.16.8-.68,1.03-4.1,1.89-7.18,3.56-3.08,1.68-8.79,8.97-10.49,9.65-1.7.68-2.96,1.14-5.24,1.6-2.28.46-6.04,4.22-8.2,6.72-2.17,2.51-7.63,9-8.43,8.89-.8-.11-8.43-5.39-10.6-7.39-2.17-2-3.62-11.3-1.87-13.92,1.75-2.62,3.23-3.19,5.85-3.19s9.57,3.08,11.85,2.62c2.28-.46,2.96-1.94,2.96-1.94,0,0-5.14-.11-7.19-1.48-2.04-1.37-8.08-1.76-11.16-1.56-3.08.2-4.17,3.04-4.17,3.04,0,0-.62,3.08-2.79,4.44-2.16,1.37-1.25,5.93-.57,7.98.68,2.05,7.52,10.54,9,12.73,1.48,2.2,6.71,19.4,9.68,19.63"/>
    <path class="st8" d="M233.79,94.83s1.94,6.27,3.99,8.09c2.05,1.82,4.56,4.2,4.79,6.03.23,1.83-6.38,18.81-11.96,22.23,0,0,8.52-14.65,9.5-19.81,0,0,1.32-3.43.3-4.63-1.02-1.2-4.44-4.73-5.01-5.98-.57-1.25-1.6-5.93-1.6-5.93"/>
    <path class="st16" d="M219.77,79.85s-6.56,1.99-5.16,2.07c1.4.07,4.28-.3,5.16-2.07"/>
    <path class="st16" d="M227.36,78.6s-2.65.29-3.98,1.25c-1.33.96-1.99,2.58-1.99,2.58,0,0,3.31-.65,4.35-1.54,1.03-.89,1.62-2.29,1.62-2.29"/>
    <path class="st16" d="M228.88,78.15s-1.45,1.51-1.52,2.38l-.07.87s1.72-2.14,1.6-3.24"/>
    <path class="st16" d="M231.93,76.63s-1.55.72-1.99,2.26l-.44,1.55s1.92-2.02,2.43-3.81"/>
    <path class="st16" d="M234.73,76.16c-.01-.23-1.7.66-2.21,1.99-.52,1.33-.59,1.69-.59,1.69,0,0,2.88-2.51,2.8-3.68"/>
    <path class="st16" d="M198.81,71.22s1.58-.52,3.27,0c1.7.52-3.11,1.41-3.27,0"/>
    <path class="st16" d="M200.9,69.1s3.91-.72,6.19,0c2.28.72,3.33,2.54,3.33,2.54,0,0,3.24,1.5,3.31,2.09.06.59-3.03-.15-4.06-.89s-.93-1.34-1.64-1.48c-.72-.14-7.28-.84-7.13-2.26"/>
    <path class="st16" d="M210.78,74.91s1.18-.74,4.05-.44,6.04,1.25,5.97,1.66c-.07.4-4.27.11-5.38,0-1.11-.11-5.23-.48-4.64-1.22"/>
    <path class="st16" d="M219.48,77.99c.07-.35,1.84-1.34,4.57-1.65,2.73-.32,5.16-.64,4.5,0s-3.02,1.78-4.79,1.65-4.28,0-4.28,0"/>
    <path class="st16" d="M202.44,67.02s0,.37-2.28.81c-2.28.44-3.39-1.18-2.95-1.33.44-.15,1.14,0,1.14,0,0,0-2.25-.78-1.47-1.35.78-.57,2.53-1.67,5.56-1.67s3.62.58,3.62.58c0,0-.15-.75.96,0,1.11.75,4.6,3.56,3.7,3.85-.9.29-4.29-2.58-4.29-2.58,0,0-1.78-.22-3.99-.22s-2.72,1.03-2.72,1.03l2.72.88Z"/>
    <path class="st16" d="M213.74,70.49s-3.47-2.14-2.44-2.14,3.12,2.14,3.12,2.14c0,0,4.77.31,5.06,1,.29.69-5.06-.49-5.06-.49l-.68-.51Z"/>
    <path class="st16" d="M220.29,73.07s3.46-.37,3.32.44-3.32-.44-3.32-.44"/>
    <path class="st16" d="M224.06,72.98c.35-.06,2.78.34,2.19.8-.59.46-2.19-.8-2.19-.8"/>
    <path class="st16" d="M227.29,72.98s1.88-.07,1.6.45c-.27.52-1.6-.45-1.6-.45"/>
    <path class="st16" d="M230.02,71.64s1.92,1.4,1.25,1.63c-.66.23-1.25-1.63-1.25-1.63"/>
    <path class="st16" d="M231.93,71.98c.44-.02,2.07.7,1.4,1-.66.3-1.4-1-1.4-1"/>
    <path class="st16" d="M222.87,69.68s2.88,1.8,1.84,1.97c-1.03.17-1.84-1.97-1.84-1.97"/>
    <path class="st16" d="M223.23,67.02s1.22,2.1.83,2.08c-.39-.02-.83-2.08-.83-2.08"/>
    <path class="st16" d="M223.61,64.59s.66,1.62.29,1.7c-.37.07-.29-1.7-.29-1.7"/>
    <path class="st16" d="M224.38,62.23s.23,2.4-.24,1.83c-.46-.57.24-1.83.24-1.83"/>
    <path class="st16" d="M222.87,58.47s2.03,3.02,1.2,2.99c-.83-.04-1.2-2.99-1.2-2.99"/>
    <path class="st16" d="M223.81,57.37s2.23,2.76,1.64,2.6c-.59-.17-1.64-2.6-1.64-2.6"/>
    <path class="st16" d="M226.35,57.37s1.53,2.29,1.01,2.29-1.01-2.29-1.01-2.29"/>
    <path class="st16" d="M226.91,59.97s.73,4.66,0,4.09c-.73-.57,0-4.09,0-4.09"/>
    <path class="st16" d="M225.96,63.19s1.21,3.25.39,3.1c-.83-.15-.39-3.1-.39-3.1"/>
    <path class="st16" d="M227.47,64.59s1.2,3.78.62,3.47c-.58-.3-.62-3.47-.62-3.47"/>
    <path class="st16" d="M229.5,62.23s-.06,4.13-.58,2.88c-.52-1.25.58-2.88.58-2.88"/>
    <path class="st16" d="M228.1,57.37s1.78,3.1,1.04,2.95c-.74-.15-1.04-2.95-1.04-2.95"/>
    <path class="st16" d="M230.72,58.67s2.1,3.05,1.22,3.56c-.89.51-1.22-3.56-1.22-3.56"/>
    <path class="st16" d="M233.33,59.65s-.25,2.17.16,1.8c.41-.36-.16-1.8-.16-1.8"/>
    <path class="st16" d="M234.29,62.23s-.05,4.59-.65,3.48c-.6-1.12.65-3.48.65-3.48"/>
    <path class="st16" d="M236.25,62.28s.63,2.24,0,2.31c-.63.07,0-2.31,0-2.31"/>
    <path class="st16" d="M233.48,67.93s-.74,4.53-1.33,3.43c-.59-1.1,1.33-3.43,1.33-3.43"/>
    <path class="st16" d="M230.97,64.74s.37,3.33,0,3.32c-.37,0,0-3.32,0-3.32"/>
    <path class="st16" d="M225.55,68.78s3.28,2.06,1.92,2.58c-1.36.52-1.92-2.58-1.92-2.58"/>
    <path class="st16" d="M234.74,70.03s-.88.75-.44-.35c.44-1.1,1.33-2.65,1.33-2.65l-.88,3.01Z"/>
    <path class="st16" d="M237.54,68.06s-.51.14-.51-.52.88-2.1.88-2.1l-.37,2.62Z"/>
    <path class="st16" d="M234.89,72.97s-.7-.83-.73-1.44c-.02-.61,1.25.24.73,1.44"/>
    <path class="st16" d="M239.08,68.06s.74-.67.66-1.04c-.07-.37-.66,1.04-.66,1.04"/>
    <path class="st16" d="M239.75,65.71s.44.09.44-.37-.44.37-.44.37"/>
    <path class="st16" d="M235.02,74.76s.36.08,0-.36c-.36-.45-.97,0,0,.36"/>
    <path class="st13" d="M228.92,95.7s1.61,2.8,1.8,6.05c.18,3.24-.89,3.98.42,4.79,1.31.81,3.15.81,3.15.81,0,0-2.21-3.14-2.36-3.86-.15-.71-1.83-8.01-3.01-7.79"/>
    <path class="st5" d="M209.22,59.96s-.8,4.85,3.18,7.06c3.98,2.21,8.85.53,9.55-.62.7-1.15,1.06-4.68-.55-7.04-1.61-2.37-4.35-3.07-7.3-3.12-2.95-.05-4.81,2.85-4.87,3.72"/>
    <path class="st14" d="M211.37,58.84s1.18-1.55,3.46-1.48c2.29.07,3.24.37,3.24.37,0,0-4.59-2.32-6.71,1.11"/>
    <path class="st16" d="M211.1,62.28s.26-4.2,3.62-4.37c3.35-.17,5.34.65,6.38,3.59,1.03,2.95-.26,5.53-3.02,6.02-2.76.48-5.68-1.1-6.34-2.31-.66-1.2-.63-2.93-.63-2.93"/>
    <path class="st21" d="M214.41,65.88s-2.38-.79-2.38-3.14,1.76-3.53,3.73-3.86c1.97-.33,4.45,1.14,4.52,3.5.07,2.35-1.03,3.91-2.58,4.02-1.55.1-3.29-.52-3.29-.52"/>
    <path class="st16" d="M214.72,61.2s1.09-.88,2.37-.62c1.28.26,1.65,2.98.69,3.57-.96.59-1.95.3-2.49,0-.54-.29-.61-1.92-.57-2.95"/>
  </g>
  <g class="st9">
    <path class="st4" d="M214.71,61.49c-.12.25-.38.83-.39,1.28v.06c0,.28.12.5.45.52.03,0,.06,0,.09,0-.13-.55-.16-1.27-.15-1.87"/>
    <path class="st3" d="M214.77,61.37s-.02.04-.06.12c0,.6.03,1.32.15,1.87.52.07,1.03.31,1.39.31h.04c.3,0,.49-.19.51-.79l-2.03-1.51Z"/>
  </g>
  <g class="st10">
    <path class="st5" d="M216.52,59.65s2.44.13,2.59,2.39c.15,2.25-.29,2.7-.29,2.7,0,0,1.15-1.66.66-3.29-.48-1.63-2.01-2.17-2.96-1.8"/>
    <path class="st14" d="M237.46,74.49s3.39.03,3.54-1.21c.15-1.24.51-4.93,1.25-4.93s.07,1.32,0,2.32c-.07,1,.07,3.07-1.4,3.54-1.47.48-3.39,1.11-3.39.28"/>
    <path class="st14" d="M230.72,83.61s-1.62,1.62-2.86,1.92c-1.23.29-5.72,1.33-5.91,1.99-.19.66-.39-1.7,1.74-1.95,2.13-.26,7.03-1.95,7.03-1.95"/>
    <path class="st5" d="M209.16,95.69s-3.95,5.15-4.52,3.69,4.52-3.69,4.52-3.69"/>
    <path class="st5" d="M200.9,94.83s.98,1.15,2.64,0c1.66-1.15,3.33-2.74,3.33-2.74l-5.98,2.74Z"/>
    <path class="st5" d="M205.12,96.44s2.46-1.02,4.09-2.64c1.63-1.61-3.86.37-4.09,2.64"/>
    <path class="st5" d="M197.63,90.46s.44,1.49,2.08,1.64,4.87,0,4.87,0c0,0-5.5.16-6.96-1.63"/>
    <path class="st5" d="M201.17,97.67s2.1.71,2.37,0c.26-.71-2.37,0-2.37,0"/>
    <path class="st5" d="M212.03,95.69s-3.18,3.72-4,3.95c-.82.23,4-3.95,4-3.95"/>
    <path class="st5" d="M197.63,87.63s.44-.24,2.08,0c1.65.23-1.92,1.23-2.08,0"/>
    <path class="st13" d="M247.24,74.4s.99-1,2.03,0c1.04,1,5.78,13.76,4.48,25.25-1.3,11.49-4.48,13.36-4.48,13.36,0,0,2.69-9.72,2.84-17.31.15-7.59-4.87-21.29-4.87-21.29"/>
  </g>
  <g>
    <path class="st12" d="M121.08,249.04c-.7,1.9-1.39,3.82-2.04,5.76h-2.69c2.21-5.95,5.11-12.87,7.73-18.55h1.8c1.82,5.3,4.58,12.46,7.25,18.55h-2.95c-.79-1.94-1.49-3.86-2.18-5.76h-6.91ZM127.39,247.38c-1.03-2.83-1.97-5.45-2.66-7.73-.89,2.16-1.94,4.82-3.07,7.73h5.74Z"/>
    <path class="st12" d="M149.16,254.8h-3.19c-2.33-3.55-6.19-7.99-6.67-8.04-.46-.02-.96-.07-1.46-.14-.02,2.45-.05,6.43-.05,8.18h-2.38v-18.22h4.44c4.51,0,6.74,2.18,6.74,5.09,0,2.45-1.73,4.15-4.85,4.63,1.58,1.1,4.25,4.2,7.42,8.5ZM137.85,244.91c.58.07,1.1.1,1.61.1,3.14,0,4.49-1.27,4.49-3.17s-1.34-3.26-4.42-3.26h-1.54c-.07,1.37-.1,3.7-.14,6.34Z"/>
    <path class="st12" d="M155.06,249.04c-.7,1.9-1.39,3.82-2.04,5.76h-2.69c2.21-5.95,5.11-12.87,7.73-18.55h1.8c1.82,5.3,4.58,12.46,7.25,18.55h-2.95c-.79-1.94-1.49-3.86-2.18-5.76h-6.91ZM161.37,247.38c-1.03-2.83-1.97-5.45-2.66-7.73-.89,2.16-1.94,4.82-3.07,7.73h5.74Z"/>
  </g>
</svg>