<?xml version="1.0" encoding="UTF-8"?>
<svg id="Vrstva_1" xmlns="http://www.w3.org/2000/svg" xmlns:xlink="http://www.w3.org/1999/xlink" version="1.1" viewBox="0 0 283.46 283.46">
  <!-- Generator: Adobe Illustrator 30.1.0, SVG Export Plug-In . SVG Version: 2.1.1 Build 136)  -->
  <defs>
    <style>
      .st0 {
        fill: none;
      }

      .st1 {
        fill: #677c40;
      }

      .st2 {
        fill: #475420;
      }

      .st3 {
        fill: #d79e1a;
      }

      .st4 {
        fill: #b5832a;
      }

      .st5 {
        fill: #13182c;
      }

      .st6 {
        fill: #e7c421;
      }

      .st7 {
        fill: #6f79b7;
      }

      .st8 {
        fill: #384056;
      }

      .st9 {
        fill: #dd8383;
      }

      .st10 {
        fill: #384585;
      }

      .st11 {
        fill: #c18b34;
      }

      .st12 {
        fill: #c68d17;
      }

      .st13 {
        fill: #252c4f;
      }

      .st14 {
        fill: #fff;
      }

      .st15 {
        fill: #f4e181;
      }

      .st16 {
        fill: #2f395b;
      }

      .st17 {
        fill: #5861aa;
      }

      .st18 {
        fill: #cfd0e2;
      }

      .st19 {
        fill: #ce9e3d;
      }

      .st20 {
        fill: #1e253c;
      }

      .st21 {
        fill: #2c344b;
      }

      .st22 {
        fill: #54672a;
      }

      .st23 {
        fill: #babad3;
      }

      .st24 {
        clip-path: url(#clippath);
      }

      .st25 {
        fill: #d25c50;
      }

      .st26 {
        fill: #e7e6f2;
      }
    </style>
    <clipPath id="clippath">
      <rect class="st0" x="19.84" y="19.84" width="243.78" height="243.78"/>
    </clipPath>
  </defs>
  <g class="st24">
    <path class="st22" d="M.1,98.92s16.56,3.15,30.56,10.06c14,6.9,25.44,13.61,25.44,13.61,0,0-23.66-14.2-34.9-19.13C9.96,98.52.1,98.92.1,98.92"/>
    <path class="st22" d="M30.66,108.97s-.38,3.67-.94,9.43c-1.78,18.2-5.43,57.29-4.98,67.47.59,13.41,1.35,23.82,1.35,23.82,0,0-.16-23.82-.16-28.95s5.32-56.39,5.52-58.37-.79-13.41-.79-13.41"/>
    <path class="st22" d="M29.28,127.7s-2.56-.79-6.11,1.18-5.92,3.55-5.92,3.55c0,0,3.55-3.94,8.08-5.32,4.53-1.38,3.94.59,3.94.59"/>
    <path class="st22" d="M30.86,120.01c-.59,0-6.7.2-8.87,2.37-2.17,2.17-3.75,3.75-3.75,3.75,0,0,2.76-4.73,5.32-5.91,2.56-1.18,7.69-1.18,7.69-1.18l-.39.99Z"/>
    <path class="st22" d="M29.67,131.45s4.53,2.76,7.69,7.1c3.16,4.34,3.55,5.72,3.55,5.72,0,0-2.17-7.1-5.32-9.86-3.15-2.76-5.52-5.72-5.52-5.72l-.39,2.76Z"/>
    <path class="st22" d="M30.46,121.99s5.16,1.58,8.48,5.72c3.3,4.11,4.14,4.93,4.14,4.93,0,0-1.95-3.35-5.52-7.1-3.58-3.75-6.71-5.52-6.71-5.52l-.39,1.97Z"/>
    <path class="st22" d="M11.43,52.89s.99-.69,2.96,0c1.97.69,7.39,9.07,10.45,15.38,3.06,6.31,8.18,16.46,12.42,22.77,4.24,6.31,7.2,10.45,7.2,10.45,0,0-9.56-10.45-18.93-30.07-9.37-19.62-13.61-17.55-14-17.45-.39.1-.1-1.08-.1-1.08"/>
    <path class="st22" d="M15.08,53.98s6.8,3.94,10.75,4.44c3.94.49,9.46,1.18,13.01,3.45,3.55,2.27,4.53,4.24,4.53,4.24,0,0-5.32-5.82-15.08-6.61-9.76-.79-12.52-4.44-12.52-4.44l-1.09-1.18.39.1Z"/>
    <path class="st22" d="M21.98,63.54s3.16,2.17,7.89,3.15c4.73.99,11.24,2.27,13.8,6.6,2.56,4.34,3.15,6.21,3.15,6.21,0,0-3.55-7-7.99-9.17-4.44-2.17-12.52-3.45-13.9-4.24-1.38-.79-2.66-1.97-2.66-1.97l-.3-.59Z"/>
    <path class="st22" d="M28.39,76.06s3.85,3.85,7.49,5.91c3.65,2.07,6.8,5.33,7.99,7.69,1.18,2.37.89,3.85.89,3.85,0,0-1.48-4.63-5.03-7.99-3.55-3.35-6.11-3.94-7.89-5.03-1.77-1.08-3.16-3.06-3.16-3.06l-.3-1.38Z"/>
    <path class="st22" d="M22.28,64.13s2.17,5.62.89,9.37c-1.28,3.75.1,12.03,2.66,14.99,2.56,2.96,4.53,4.63,4.53,4.63,0,0-6.9-7.2-7-14.2-.1-7,1.38-7.89,1.28-9.07-.1-1.18-2.37-5.72-2.37-5.72"/>
    <path class="st22" d="M32.83,84.64s1.28,7.79,3.35,10.45c2.07,2.66,3.06,3.45,3.06,3.45,0,0-4.64-4.24-5.42-12.52l-.99-1.38Z"/>
    <path class="st22" d="M21.2,199.08l3.94-12.42v-1.97s-3.55,11.24-3.94,14.39"/>
    <path class="st22" d="M25.14,179.96s-3.94,1.97-5.52,4.54c-1.58,2.56-2.17,4.93-2.17,4.93,0,0,.59-8.87,7.69-11.04v1.58Z"/>
    <path class="st22" d="M25.53,169.7s-4.93,1.58-7.89,3.94c-2.96,2.37-3.75,5.72-3.75,5.72,0,0,1.38-8.48,12.03-12.22l-.39,2.56Z"/>
    <path class="st22" d="M27.11,160.04s-7.89,2.56-10.65,5.13c-2.76,2.56-3.75,5.32-3.75,5.32,0,0,1.18-6.51,7.69-9.07l6.51-2.56.2,1.18Z"/>
    <path class="st22" d="M27.31,152.94s-10.06,3.94-12.42,6.7c0,0,8.08-7.89,12.82-8.48l-.39,1.77Z"/>
    <path class="st22" d="M28.29,144.07s-8.48.39-10.84,3.55c-2.37,3.15-2.76,5.13-2.76,5.13,0,0,1.38-4.73,4.93-5.91,3.55-1.18,8.28-1.18,8.28-1.18l.4-1.58Z"/>
    <path class="st22" d="M28.69,135.79s-6.7.39-9.27,2.56c-2.56,2.17-2.96,2.96-2.96,2.96,0,0,.99-3.94,3.35-4.73,2.37-.79,8.87-2.17,8.87-2.17v1.38Z"/>
    <path class="st22" d="M25.34,191s2.11,3.25,2.87,5.04c.93,2.18,1.86,4.43,1.86,4.43,0,0-3.75-12.03-4.73-9.46"/>
    <path class="st22" d="M25.14,180.75s2.76,2.56,4.53,5.92,2.17,5.32,2.17,5.32l-6.7-11.24Z"/>
    <path class="st22" d="M25.93,170.69s3.55,3.35,5.32,7.3c1.78,3.94,2.17,6.9,2.17,6.9,0,0-.2-9.46-7.3-16.17l-.2,1.97Z"/>
    <path class="st22" d="M26.91,161.82s1.99.47,5.34,5.99c3.35,5.52,2.77,4.6,2.77,4.6,0,0-.62-2.31-2.2-5.07-1.58-2.76-5.72-7.3-5.72-7.3l-.2,1.77Z"/>
    <path class="st22" d="M27.7,151.17s2.76,1.77,5.72,5.72c2.96,3.94,3.75,7.69,3.75,7.69,0,0-2.41-11.11-9.51-14.46l.05,1.05Z"/>
    <path class="st22" d="M28.49,141.9s1.97-.2,6.7,5.32c4.73,5.52,6.11,9.66,6.11,9.66,0,0-.59-5.92-5.13-10.85-4.53-4.93-7.69-6.51-7.69-6.51v2.37Z"/>
    <path class="st22" d="M52.19,205.99s9-36.26,7.41-39.31c0,0,3.18,5.69-7.41,39.31"/>
    <path class="st22" d="M6.41,100.3s4.54,13.41,6.7,15.97l2.17,2.56s-3.94-7.29-4.73-9.86c-.79-2.56-2.76-8.48-2.76-8.48l7.49,1.97s2.37,8.08,5.52,11.44c3.16,3.35,3.94,3.55,3.94,3.55,0,0-4.34-4.93-5.32-7.1-.99-2.17-2.37-7.29-2.37-7.29,0,0-7.69-4.34-10.65-2.76"/>
    <polygon class="st22" points="23.36 105.42 27.31 111.14 24.94 105.42 23.36 105.42"/>
    <path class="st22" d="M55.31,194.16s1.18,1.97,2.17,3.94.99,4.93.99,4.93c0,0,.59-2.76-.99-6.51l-1.58-3.75-.59,1.38Z"/>
    <path class="st22" d="M57.48,186.07s1.77,3.35,3.55,6.31c1.77,2.96,1.97,5.52,1.97,5.52,0,0,.2-2.76-1.58-6.31-1.78-3.55-3.94-7.49-3.94-7.49v1.97Z"/>
    <path class="st22" d="M59.05,179.17s1.58,1.97,2.56,4.34c.99,2.37,1.97,4.54,1.97,4.54,0,0-.99-6.31-2.56-7.89-1.58-1.58-1.97-3.55-1.97-3.55v2.56Z"/>
    <path class="st22" d="M-25.54,188.63S1.67,211.51,7.79,216.83c6.11,5.33,14,14,14,14,0,0-5.72-7.49-18.93-19.92-13.21-12.42-27.6-24.06-28.39-22.28"/>
    <rect class="st1" x="-36.43" y="16.81" width="445.57" height="320.63"/>
    <path class="st22" d="M119.71,16.62s-2.68,12.66,1.07,18.18c3.75,5.52,4.34,5.92,4.34,5.92,0,0,2.56-1.77,4.34-4.73,1.77-2.96,3.15-15.18,3.15-15.18,0,0,2.96,9.46,5.91,11.83,2.96,2.37,3.55,2.56,3.55,2.56l2.56-11.44s2.37,19.72,10.25,30.76c7.89,11.04,12.03,19.92,15.18,18.54,3.16-1.38,12.23-10.45,15.78-19.13,3.55-8.68,8.48-32.54,8.48-32.54l16.17.99s-5.92,6.7-2.76,13.8,3.94,8.28,3.94,8.28c0,0-7.89,7.3-9.07,12.62-1.18,5.32,16.96,56.39,16.96,56.39,0,0,12.42-9.47,16.76-19.52,4.34-10.06-5.32-37.07-5.32-37.07,0,0,13.6,17.35,16.76,18.73l3.16,1.38-.2-11.44s14.99,19.32,18.14,20.51l3.16,1.18s10.45-12.03,13.8-21.69c3.35-9.66,3.35-21.49,3.35-21.49l11.44,31.94-17.55-8.48s-1.38,11.83,6.31,27.61c7.69,15.77,18.34,27.21,18.34,27.21,0,0-31.15-43.38-35.1-45.15-3.94-1.77-8.08-4.14-8.08-4.14,0,0-6.31,19.52.39,36.87,6.71,17.35,10.06,26.82,10.06,26.82,0,0-10.06-11.24-16.17-1.18-6.11,10.06-8.48,58.17-2.96,73.55,5.52,15.38,7.89,17.75,7.89,17.75,0,0-3.55,3.94-1.97,7.89,1.58,3.94,13.21,18.34,13.21,18.34l38.05,16.01-1.67-252.17-191.65-.3Z"/>
    <path class="st22" d="M298.61,338.12s-14.48-31.91-32.5-51.4c-18.02-19.5-57.31-46.08-71.49-44.02,0,0,6.21-9.75-3.84-11.52-10.04-1.77-24.52,4.43-24.52,4.43,0,0-7.38-13.29-9.45-12.11-2.07,1.18-3.25,3.25-3.25,3.25l-5.61-14.18s5.91-7.39,2.36-16.25c-3.54-8.86-13-20.09-13-20.09,0,0-8.27-35.45-30.13-46.38-21.86-10.93-55.83-23.63-55.83-23.63,0,0-2.36-7.68-4.14-10.64l-1.77-2.95s18.91-1.48,26.29,3.25c7.38,4.73,8.27,5.02,8.27,5.02,0,0-8.27-13.88-19.79-19.5-11.52-5.61-37.22-2.07-37.22-2.07,0,0,1.77-15.36-4.14-23.63-5.91-8.27-15.95-7.09-15.95-7.09,0,0,1.77-16.84-.59-22.45C-.07,20.54-4.22,16.32-4.22,16.32l-28.69.89,2.41,320.92h329.1Z"/>
    <path class="st5" d="M201.11,68.15s4.1-3.08,12.13-2.39c8.03.68,17.43,10.94,17.43,10.94h-1.37s11.96,12.13,17.43,30.93c5.47,18.8.17,32.29.17,32.29v-1.71l-1.88,14.69s16.06,7.35,36.05,43.23c0,0,18.45,13.5,18.45,42.21,0,0,4.96,30.24-.34,28.19,0,0,2.39,23.24-3.76,22.04,0,0-11.11,22.38-5.47,49.38h-42.38s.85-25.63,2.39-28.54c0,0-34.86-23.24-54.51-55.19,0,0-11.96-15.04-13.33-18.63,0,0-6.32-6.66-8.2-11.79,0,0-11.45-12.81-16.23-27,0,0-11.45-16.06-4.96-34.52l31.61-51.09,16.74-43.06Z"/>
    <path class="st22" d="M6.11,44.03s4.34-4.21,15.77-2.63c11.44,1.58,32.07,12.09,39.83,18.8,7.76,6.7,8.41,6.57,10.12,11.17,1.71,4.6,1.71,9.46,1.71,9.46,0,0-15.77-14.33-18.93-15.77-3.15-1.44-23.27-13.01-29.32-14.59-6.05-1.58-22.48-2.37-22.48-2.37,0,0,1.58-3.42,3.29-4.07"/>
    <path class="st1" d="M4.66,46.4s5.52-1.32,10.91-1.05c5.39.26,20.77,6.05,27.34,10.39,6.57,4.34,16.43,11.3,21.3,14.59,4.86,3.29,8.15,7.36,9.47,8.94,1.31,1.58.66,2.37.66,2.37,0,0-16.56-16.56-29.31-23-12.75-6.44-27.21-12.88-34.18-11.7-6.97,1.18-8.02,1.18-8.02,1.18,0,0,1.18-1.84,1.84-1.71"/>
    <path class="st2" d="M3.12,48.77s3.06.2,7.89.99c4.83.79,10.75,1.77,16.07,4.14,5.32,2.37,16.76,6.51,24.65,11.73,7.89,5.23,14.99,9.46,18.44,13.7,3.45,4.24,4.24,5.03,4.24,5.03l-.07-2.73s-4.37-6.05-8.71-9.2c-4.34-3.15-12.32-8.97-20.61-13.8-8.28-4.83-22.97-11.93-29.77-12.42-6.8-.49-10.06.3-11.34.49-1.28.2-.79,2.07-.79,2.07"/>
    <path class="st2" d="M10.65,53.78s-.59-1.97,2.07-2.17c2.66-.2,3.25.69,5.92-.59,2.66-1.28,5.32-2.27,8.77-1.48,3.45.79,13.6,9.37,18.14,19.42,4.54,10.06.79,16.46,1.48,19.13.69,2.66-2.37,14.99-2.37,14.99,0,0-22.87-11.63-30.46-18.44-7.59-6.8-2.76-23.66-2.86-25.83-.1-2.17-.69-5.03-.69-5.03"/>
    <path class="st26" d="M171.37,122.48s-1.54,7.69-9.91,17.94c-8.37,10.25-8.71,21.87-8.71,21.87,0,0,.85,6.49,9.06,7.69,0,0,3.82,2.99,17.6-3.59,11.48-5.48,26.66-16.06,30.42-18.45,3.76-2.39,17.6-11.62,17.26-25.12-.34-13.5-9.74-23.75-9.74-23.75l-11.45-22.04s-2.9-3.59-4.27-3.76c-1.37-.17-30.24,49.21-30.24,49.21"/>
    <path class="st18" d="M170.86,130.14s-9.42,15.52-10.27,21.4c-.86,5.89.11,10.17,2.03,11.88,1.93,1.71,1.18,1.5,4.28,2.14,3.1.64,3.96.11,7.17-.32,3.21-.43,11.77-3.32,13.8-4.71,2.03-1.39,6.21-2.25,6.21-2.25,0,0-5.24,3.53-5.99,3.85-.75.32-5.24,2.57-5.24,2.57l-5.03,2.78s-3.21.75-4.49,1.28c-1.28.53-2.78,1.93-2.78,1.93,0,0-4.28.21-4.71-.54,0,0-1.18,1.07-2.78.11-1.6-.96-2.14-1.82-2.14-1.82,0,0-2.25.75-3.53.21-1.28-.54-4.13-4.6-4.63-6.37-.5-1.77,2.49-16.43,8.7-22.74,6.21-6.31,9.42-9.42,9.42-9.42"/>
    <path class="st18" d="M218.66,102.32s1.43,1.65,2.76,3.1c1.33,1.45,2.32,3.91,2.32,3.91l-1.93-.82s4.23,6.02,4.95,10.61c0,0-.97-6.28-1.57-7.37l-.6-1.09s.72-.48.6-1.33c-.12-.85-2.42-4.35-3.26-5.68-.85-1.33-3.26-4.47-3.26-4.47,0,0-.48,1.93-.85,1.93s.85,1.21.85,1.21"/>
    <path class="st13" d="M202.79,70.13s1.17-.96,1.53-1.17c.36-.21.36-.35.36-.35,0,0,.6.14,1.21-.25.6-.39,2.31-1.49,3.77-1.46,1.46.04,1.95.18,1.92-.07-.04-.25-1.92-.53-3.31-.35-1.38.18-2.38.92-2.38.92,0,0,.25-.43-.57-.32-.82.11-2.49,1.39-2.95,1.6-.46.21-.18,1.07-.36,1.64-.18.57.78-.18.78-.18"/>
    <path class="st18" d="M204.88,76.46s-1.06-1.67-1.56-1.85c-.5-.18-.54.82-1.5,2.52-.96,1.71-4.16,8.71-5.33,10.52-1.17,1.81-1.74,4.66-2.03,8.14-.28,3.48,0,7.46-.64,8.39-.64.92-2.03,1.96-2.13,2.77-.11.82-1.56,3.31-1.78,4.02-.21.71-1.32,2.59-2.95,3.55-1.63.96-1.46.92-1.63,2.2-.18,1.28-1.32,3.59-2.42,4.3-1.1.71-7.61,3.06-8.1,3.31-.5.25-2.2,3.31-4.41,4.8-2.2,1.49-3.45,2.1-3.45,2.1,0,0,1.17-1.99,1.78-2.74.6-.75,1.21-1.21,1.46-2.45.25-1.24.78-2.6.78-2.6l11.45-9.56s9.35-9.09,9.92-11.05c.57-1.97.14-10.24,1.28-14.29,1.14-4.05,7.89-15.46,9.03-15.89,1.14-.43,3.38,2.03,3.55,2.77.18.74.17,1.5-.31,1.6-.48.1-1.01-.57-1.01-.57"/>
    <path class="st5" d="M205.89,77.03s-1.73-2.46-2.29-3.08c-.56-.63-1.78.56-1.78.56l.49-2.92,1.98.21,3.1,2.44.56,1.29-1.01,1.88-1.06-.36Z"/>
    <path class="st18" d="M193.59,102.32s-.51,7.01-2.39,9.4c-1.88,2.39-5.64,4.61-5.13,6.15.51,1.54-4.96,5.81-7.86,7.18-2.9,1.37-18.62,14.87-22.21,24.95,0,0,7.52-14.52,10.94-19.31,3.42-4.79,4.44-8.2,4.44-8.2l22.21-20.16Z"/>
    <path class="st18" d="M192.73,101.98s3.42,4.27,10.08,4.44c6.66.17,14.01-2.05,16.4-7.35l-26.49,2.9Z"/>
    <path class="st6" d="M201.02,76.35s7.18.85,13.33,8.03c6.15,7.18,4.87,14.69,4.87,14.69,0,0,.09,3.76-12.99,5.9-13.07,2.14-13.33-4.1-13.33-4.1l1.11-13.84,7.01-10.68Z"/>
    <path class="st2" d="M-52.49,84.56s8.07-5.3,17.51-2.99c9.45,2.3,12.44,9.45,12.44,9.45,0,0,.46-8.76,8.07-8.76s12.67,11.98,12.67,11.98c0,0,13.37-8.76,23.97-3.23,10.6,5.53,11.52,8.07,11.52,8.07,0,0,20.28,4.84,25.81,14.98,5.53,10.14,5.3,13.83,5.3,13.83,0,0,6.22,6.45,8.99,20.74,2.77,14.29.46,18.67.46,18.67,0,0-.23,14.06-3.46,15.9l-3.23,1.84s-.46,15.9-8.07,22.58c-7.6,6.68-9.68,7.84-9.68,7.84,0,0-7.6-16.82-8.07-21.2l-.46-4.38-15.21,19.82s-15.9-21.89-14.75-44.25c1.15-22.35,5.3-41.02,5.3-41.02l-7.37-4.84s4.38,27.19-10.83,46.78c-15.21,19.59-34.57,23.28-34.57,23.28,0,0-.92-24.43,3.69-37.33,4.61-12.91,9.45-28.81,9.45-28.81,0,0-8.07-3.92-14.06-10.83-5.99-6.91-6.45-7.6-6.45-7.6,0,0,7.14,12.21,6.68,29.5-.46,17.28-3.23,21.66-3.23,21.66,0,0,9.45,10.14,8.99,18.9-.46,8.76-17.28,24.2-17.28,24.2l-8.07-22.35,3.69-91.26.23-1.15Z"/>
    <path class="st19" d="M201.99,104.01s-4.11-.36-5.44-.48c-1.33-.12-3.3-.67-3.3-.67,0,0,.15-8.88,1.24-11.9,1.09-3.02,1.93-4.83,2.54-6.28.6-1.45,1.91-3.76,2.63-4.73.73-.97.99-1.43.99-1.43,0,0-.12,1.21-1.81,4.23-1.69,3.02-3.5,6.64-3.74,10.39-.24,3.74-1.09,7.37.12,8.58,1.21,1.21,6.76,2.29,6.76,2.29"/>
    <path class="st19" d="M197.76,89.75s1.93-4.11,4.23-4.71c2.29-.6,4.59.24,5.92-.12,1.33-.36,1.93-2.42,1.93-1.69v1.81s.48.97,1.81.97,1.93,0,1.45.97c-.48.97-.52,1.46-.48,2.78.04,1.32-1.45.73-1.45.73,0,0-3.86-3.75-6.52-3.02-2.66.72-5.19,2.29-5.8,3.38-.6,1.09-1.45.85-1.09-1.09"/>
    <path class="st19" d="M192.68,103.2s5.32,1.3,8.95,1.3,4.71-.48,4.71-.48h-4.35l-8.78-2.12-.53,1.3Z"/>
    <path class="st19" d="M196.42,92.92s1.39-4.62,3.8-6.47c2.42-1.85,5.94-2.03,8.64-1.14,2.7.89,4.05,4.37,4.66,8,.6,3.62-1.17,7.86-5.97,9.28-4.8,1.42-8.5.11-10.06-3.31-1.56-3.41-1.07-6.36-1.07-6.36"/>
    <path class="st17" d="M204.1,103.17s-5.38.34-7.01-6.15c-1.62-6.49,3.5-9.74,6.75-10.94,3.25-1.2,8.03.68,8.88,5.55.85,4.87-.85,10.34-8.63,11.53"/>
    <path class="st7" d="M199.31,92.41s.68-3.76,4.7-4.36c4.02-.6,5.64,1.37,6.92,3.5,1.28,2.14.26,6.66-2.9,8.12-3.16,1.45-7.09.86-8.29-1.88-1.2-2.73-.43-5.38-.43-5.38"/>
    <path class="st10" d="M200.68,91.04s1.2-2.56,4.7-2.14c3.5.43,5.21,2.48,5.21,5.04s-1.71,4.78-4.36,5.13c-2.65.34-6.41-.09-6.66-4.1,0,0-.43-2.56,1.11-3.93"/>
    <path class="st5" d="M203.93,98.39s-4.36-.77-4.01-4.44c.34-3.67,3.16-4.61,5.64-4.36,2.48.26,3.93,1.28,4.19,4.27.26,2.99-2.31,4.87-5.81,4.53"/>
    <path class="st20" d="M201.11,94.46s.51,2.48,3.67,2.48,4.27-2.05,4.27-2.05c0,0-.77,3.5-4.53,3.16-3.76-.34-3.68-2.31-3.42-3.59"/>
    <path class="st21" d="M202.64,91.9s.34-.94,1.37-1.02c1.02-.09,2.31-.09,2.99.43.68.51.6,1.45-.51,1.28-1.11-.17-1.54-.51-1.88-.51s-1.96-.17-1.96-.17"/>
    <path class="st10" d="M199.74,97.79s2.82,2.65,6.07,2.22c3.25-.43,5.3-3.33,5.55-5.21,0,0,.51,5.55-6.24,5.98,0,0-5.72.34-5.38-2.99"/>
    <path class="st10" d="M202.22,86.86s3.33-.94,6.07-.09c2.73.85,4.37,4.31,4.37,4.31,0,0-1.64-5.76-7.37-5.59,0,0-2.65.51-3.07,1.37"/>
    <path class="st20" d="M197.73,65.15s4.23,2.05,4.74,3.46c.51,1.41-.64,7.82-2.31,10.89-1.66,3.08-5.51,9.48-5.9,15.12-.38,5.64-.64,9.87-2.56,11.28,0,0-3.59,8.07-7.94,10.25,0,0-2.05.9-1.28,3.08.77,2.18-6.41,4.1-11.66,4.74-5.25.64-12.43-1.54-12.43-1.54l39.34-57.29Z"/>
    <path class="st20" d="M29.72,130.39s-3.2-23.07.26-29.09c3.46-6.02,11.79-14.87,24.73-20.12,12.94-5.25,23.71-6.66,28.58-4.1,4.87,2.56,6.28,11.4,5.51,14.48-.77,3.08-38.06,22.94-38.06,22.94l-13.46,6.15-5.25,6.66s-1.15,4.36-2.31,3.08"/>
    <path class="st25" d="M59.32,117.06s14.35-1.54,19.1-1.67c4.74-.13,36.78.51,47.55,1.92,10.76,1.41,32.42,5.13,32.42,5.13,0,0,3.8-.15,7.39-4.38,3.59-4.23,7.61-9.33,10.55-11,2.95-1.67,5-3.72,7.69-2.69,2.69,1.02,7.05,1.41,7.05,1.41l-1.15-1.03s-3.33-1.79-1.79-11.15c1.54-9.35,6.28-21.02,8.2-22.94,1.92-1.92,2.82-4.74,2.82-4.74,0,0-11.15-6.92-35.76-10.89-24.61-3.97-51.01-3.59-94.45,15,0,0-39.6,16.79-40.37,35.5l-.13,1.92s5.9-20.25,27.94-25.89c0,0,17.43-7.69,23.07-5,5.64,2.69,8.84,6.79,8.71,9.48-.13,2.69-3.72,7.3-7.94,9.87,0,0-20.38,9.87-26.02,12.69s-10.76,5.64-12.3,5.89c-1.54.26-10.12,7.69-9.87,12.82,0,0,5.64-5.77,14.1-7.56,8.46-1.79,13.2-2.69,13.2-2.69"/>
    <path class="st21" d="M199.73,78.59s-.68,1.99-1.71,3.34c-1.03,1.35-3.06,6.65-3.52,7.71-.46,1.07-1.07,4.44-1.03,5.12.04.68-.04.96-.04.96,0,0-.39-1.63.11-3.95.5-2.31,2.24-7.32,2.38-7.78s-4.62-1.96-4.62-1.96c0,0,.92-3.41,1.28-4.27.36-.85,2.45.11,3.88.11s2.45-.18,2.84.07c.39.25.43.64.43.64"/>
    <path class="st6" d="M64.32,76.3s29.73-11.66,45.49-15.12c15.76-3.46,38.96-5.51,46.65-5,7.69.51,23.71,2.31,29.6,4.23,5.9,1.92,11.66,4.36,13.07,5.51,0,0-1.31,3.57-2.56,5.25-1.32,1.78-2.79,6.01-4.1,8.46-1.44,2.68-7.82,15.76-1.41,26.14,0,0-48.44-12.82-65.87-13.71-17.43-.9-42.68,2.31-42.68,2.31,0,0,7.18-7.69,2.18-12.17-5-4.49-10-5.64-14.35-4.49-4.36,1.15-16.37,4.51-16.37,4.51,0,0,8.68-5.79,10.35-5.92"/>
    <path class="st15" d="M191.27,76.29s-23.14-8.73-38.87-11.24c-15.73-2.51-31.33-2.25-50.11,1.85-18.77,4.1-28.91,10.38-28.91,10.38,0,0,7.55,1.04,10.59,4.61,3.04,3.57,2.25,5.95,2.25,5.95,0,0,20.95-14.46,42.24-16.18,21.29-1.72,38.21,3.17,47.46,5.55,9.26,2.38,10.84,3.3,12.3,4.63,1.45,1.32,2.33,2.04,2.33,2.04,0,0,2.8-6.14,3.01-6.57.24-.48-2.3-1.02-2.3-1.02"/>
    <path class="st3" d="M188.25,104.11s-39.73-12.3-61.51-13.84c-21.79-1.54-43.06,2.56-43.06,2.56,0,0-1.79,2.82-15.25,8.71,0,0-25.42,11.97-28.07,13.71-7.06,4.66-5.28,9.34-5.28,9.34,0,0,13.75-8.92,31.97-8.75,17.64.16,36.83-1.65,68.49,2.32,0,0,20.37,3.81,26.83,4.14,4.81.25,6.54-7.69,8.2-9.61,1.67-1.92,7.05-8.2,12.17-8.2l8.53,1.46-3.02-1.84Z"/>
    <path class="st12" d="M156.59,105.65s4.36-8.33,5.9-10.89c1.54-2.56,1.15-5,.9-6.66-.25-1.67.51-2.05,1.67-.64,1.15,1.41-.64,8.84-2.95,12.82-2.31,3.97-5.51,5.38-5.51,5.38"/>
    <path class="st12" d="M146.47,115.9s3.84-1.28,5.51-7.43c1.67-6.15,2.05-8.33,4.1-11.15,2.05-2.82,3.84-15.76,2.95-14.99-.9.77-3.72,9.61-5.51,12.69-1.79,3.08-3.72,7.43-4.61,10.12s-.9,10-2.43,10.76"/>
    <path class="st12" d="M140.7,116.29s2.69-10.64,5.38-14.99c2.69-4.36,3.33-8.07,5-13.71,1.67-5.64.77-8.33.13-7.69-.64.64-5,13.33-7.05,17.43-2.05,4.1-5,18.07-3.46,18.97"/>
    <path class="st12" d="M32.03,127.31s-.53-1.46,1.83-5.15c2.35-3.69,4.52-5.09,4.52-5.09,0,0-2.86,4.65-2.1,5.22s2.74-.07,2.74-.07c0,0-5.31,3.25-5.74,3.98-.43.73-1.24,1.11-1.24,1.11"/>
    <path class="st12" d="M136.99,115.26c.33-.33,2.43-20.38,4.1-24.35,1.67-3.97-.13-18.58-1.92-17.94-1.79.64-3.07,18.07-3.72,22.43-.64,4.36.77,20.63,1.54,19.86"/>
    <path class="st12" d="M129.04,113.98c.36-.13,1.28-12.82,2.31-18.2,1.02-5.38,1.15-14.1.26-13.71-.9.38-2.69,9.61-3.84,13.84-1.15,4.23-.77,18.84,1.28,18.07"/>
    <path class="st12" d="M122.5,113.21c-.06-.69-1.03-7.3-.9-10.38.13-3.08,4.74-11.53,4.1-15.25s-3.33-10.76-3.97-9.35c-.64,1.41,1.28,8.97.77,11.66-.51,2.69-4.23,8.07-4.23,8.07,0,0-5.9-16.27-6.92-16.79s-.64,5.64.38,8.07,3.08,6.66,1.03,11.28c-2.05,4.61-3.59,12.43-1.79,11.66,1.79-.77,3.72-10.12,4.74-10.64,1.03-.51,3.46,1.67,3.33,5.64-.13,3.97,3.59,7.43,3.46,6.02"/>
    <path class="st12" d="M105.72,108.09c0-.51,2.44-8.07,1.15-13.33-1.28-5.25-4.36-10.38-5-9.23-.64,1.15,2.56,5.13,2.43,8.46-.13,3.33-.9,8.84-.51,10.89.38,2.05,1.92,3.2,1.92,3.2"/>
    <path class="st13" d="M221.57,243.29s7.95,12.05,12.43,15.76c4.48,3.72,6.15,4.1,6.15,4.1,0,0,12.56,12.94,15.25,14.99,2.69,2.05,3.59,2.43,3.59,2.43,0,0-11.02-11.92-13.59-14.74-2.56-2.82-3.33-5-3.33-5,0,0-1.03-.77-2.05-.9-1.02-.13-4.49-4.74-4.49-4.74l1.92,3.33s-6.28-7.05-7.82-10.12l-1.54-3.08.77,3.33s-3.2-2.31-3.59-3.72l-.38-1.41.13,2.56s-3.46-3.72-4.23-5.77l-.77-2.05s-.38,2.44,1.54,5"/>
    <path class="st13" d="M193.12,229.06s1.79,5.77,3.46,7.82c1.67,2.05,2.18,2.18,2.18,2.18,0,0-3.08-3.72-5.64-10"/>
    <path class="st13" d="M155.7,175.5s1.92,10.25,3.07,10.89c1.15.64,1.54.38,1.54.38l2.31,3.85.9-.13s2.82,2.82,2.82,2.43-2.56-4.87-3.46-6.28l-.9-1.41.13,1.79-1.41-1.67s-1.92-1.41-2.43-3.59c-.51-2.18-2.56-6.28-2.56-6.28"/>
    <path class="st13" d="M210.42,192.41l-.26,1.92s-1.54.77-.9,2.18c.64,1.41,2.18,2.82,5.77,2.82s5.64.64,5.25,1.03l-.38.38,2.56.9.64.9s1.03,1.03.51,1.79c-.51.77,0,1.41,0,1.41,0,0,1.41,1.54.64,2.56-.77,1.03-1.28,1.67-1.28,1.67,0,0,.64,1.03.13,1.67-.51.64-1.79,1.54-1.79,1.54,0,0,2.18,2.43,3.72,2.43s2.05.64,1.79,1.03c-.26.39-.26.77-.26.77,0,0,1.28,1.54.9,1.92-.38.38-.38.77-.38.77,0,0,1.54.9,1.15,1.79l-.38.9s1.67,1.79.64,2.95l-1.03,1.15s1.28,3.2,1.03,3.59c-.26.38-.39.9-.39.9,0,0-1.41,4.36-2.82,4.1-1.41-.26-2.69-1.03-2.69-1.03,0,0,2.69.77,3.21-.64.51-1.41,1.54-4.23.77-5.77l-.77-1.54s2.18-.51,1.67-1.54c-.51-1.03-.9-2.31-.9-2.31,0,0,1.15-.64.26-1.41l-.9-.77s1.28-1.15.39-1.79c-.9-.64-1.41-.9-1.41-.9,0,0,.38-.9-.77-1.54-1.15-.64-4.87-4.1-4.87-4.1,0,0,1.67.26,2.69-.64,1.03-.9.13-2.18.13-2.18,0,0,1.67-.51,1.41-1.54-.26-1.03-1.15-1.41-1.15-1.41,0,0,1.02-1.67-.26-2.82-1.28-1.15-2.95-1.92-2.95-1.92l-1.28-1.15s-9.35.38-9.48-2.95c-.13-3.33,2.05-5.13,2.05-5.13"/>
    <path class="st13" d="M213.49,176.78s1.67-4.49,5-6.15,7.43-.38,8.97,1.67c1.54,2.05,4.61,3.46,4.61,3.46,0,0-4.49-4.74-6.28-6.79-1.79-2.05-6.15-1.54-10.38,1.79-4.23,3.33-1.92,6.02-1.92,6.02"/>
    <path class="st13" d="M239.51,165.63s9.23,2.69,15.63,5.77c6.41,3.08,8.33,4.87,14.35,11.02,6.02,6.15,11.58,13.71,11.58,13.71,0,0-9.01-17.56-20.16-24.35-11.15-6.79-21.4-6.15-21.4-6.15"/>
    <path class="st21" d="M200.72,67.89s1.32.32,1.42.78c.11.46.18,1.53-.14,1.64-.32.11-.57-.39-1.21-.82-.64-.43-1.39-.18-1.28-.68.11-.5.07-.75.18-1.24.11-.5,1.03.32,1.03.32"/>
    <path class="st8" d="M200.76,68.32s.96.18.92.39c-.04.21.25.99-.04.92-.28-.07-.5-.5-.85-.53-.36-.04-.04-.78-.04-.78"/>
    <path class="st21" d="M190.33,99.63s.25,1.56-.07,2.52c-.32.96-.18,2.66.21,3.2.39.53.89.53.89.53,0,0-.64-.46-.78-1.67-.14-1.21.14-1.78.18-2.7.04-.92-.43-1.88-.43-1.88"/>
    <path class="st21" d="M186.43,105.57c.1.04,2.24.75,2.91.75s1.14.25,1.14.64-.35,1.42-.35,1.42c0,0-.04-1.07-.18-1.32-.14-.25-1.32-.39-2.24-.68-.92-.28-2.63-1.03-3.73-1.1-1.1-.07-1.85-.21-1.85-.21,0,0,2.03-.32,4.3.5"/>
    <path class="st19" d="M208.99,103.16s3.14-1.81,4.71-1.81,4.59.24,4.95-.61c.36-.84,2.66-4.78-.97-11.6-1.7-3.2-5.77-7.72-8.19-9.29-2.42-1.57-4.86-2.55-5.95-2.91-1.09-.36-2.66.97-2.66.97,0,0,.72-.73,3.02,0s8.58,5.56,10.27,7.49,3.02,3.38,3.5,7.85c.48,4.47.36,5.92-1.81,6.4-2.17.48-6.88,3.5-6.88,3.5"/>
    <path class="st23" d="M179.64,122.98s-4.59,1.81-6.4,3.02c-1.81,1.21-5.56,4.35-4.35,3.5,1.21-.85,1.93-3.38,2.17-3.99.24-.6-.36-.97.36-1.09.72-.12,3.26-.36,5.68-1.09,2.42-.72,2.54-.36,2.54-.36"/>
    <path class="st23" d="M183.02,117.42s1.93-1.69,2.29-.24c.36,1.45-2.17,2.3-2.17,2.3h-2.42l2.29-2.05Z"/>
    <path class="st15" d="M186.04,62.33s9.06,3.02,10.15,4.11c1.09,1.09,1.09,1.21.6,1.81-.48.6-1.57,1.45-1.81.6-.24-.85-3.5-3.74-4.83-4.23-1.33-.48-7.73-2.54-11.11-3.26-3.38-.73,1.21-.97,7.01.97"/>
    <path class="st18" d="M227.01,121.33s.18,1.42.24,1.74c.06.32-.45,1.03,0,1.74.45.71-.43,2.32-.43,2.7s.06.9-.26,1.41c-.32.51-.77.83-.58,1.35.19.51.32,1.47.07,1.92-.26.45-1.22.38-1.15,1.6.06,1.22-1.09,1.92-1.09,1.92,0,0-.32.32-.71.32h-.38s.64,1.54-.07,1.92c-.7.38-1.35.45-1.35.45,0,0-.06.7-.7,1.02-.64.32-1.09.58-1.09.58,0,0-.26,1.73-.83,1.73s-.51.45-.51.45c0,0-.45,1.03-2.05,1.86-1.6.83-1.86,1.15-2.76,2.43-.9,1.28-2.69,1.86-4.1,2.31-1.41.45-1.92,2.95-3.14,3.97s-2.63.96-2.63.96c0,0-.7.51-1.02.58l-.32.06s-.26.96-.96.9l-.7-.07s-.77.58-2.12,1.6c-1.35,1.03-2.11,1.99-3.97,2.56-1.86.58-2.88,2.69-5.7,3.46s-4.1,1.6-4.1,1.6c0,0-.51.13-2.76,1.6-2.24,1.47-4.23,2.31-5.51,2.56l-1.28.26s-1.86.77-2.5,1.02c-.64.26-.96,1.15-2.5,1.22-1.54.06-3.14-.32-3.14-.32,0,0-1.79.83-3.46.19-1.67-.64-1.35-1.22-2.5-1.35-1.15-.13-2.63.32-4.48-1.22-1.86-1.54-3.52-4.55-3.52-5.57s-.32-1.79-.32-1.79c0,0,.58,3.52,2.5,4.68,1.92,1.15,2.11,2.37,3.14,2.56,1.03.19,2.43-1.03,3.65-.06s1.02,1.35,2.69,1.6c1.67.26,1.09-.38,2.05,0,.96.38,2.05.64,3.59-.26,1.54-.9,2.05-1.54,3.85-1.6,1.79-.06,2.63-.06,4.1-1.22,1.47-1.15,2.5-1.73,3.52-1.92,1.03-.19,1.28-.96,2.44-1.41,1.15-.45,3.34-1.91,5.01-2.61,1.67-.71,5.84-3.15,6.99-4.24,1.07-1.01,2.61-1.41,3.06-1.73.45-.32,1.54-.96,1.92-1.22.39-.25.89-.99,1.09-.8.19.19,1.86-1.46,2.76-1.84.9-.38,3.21-1.97,4.36-2.99,1.15-1.03,2.5-1.09,3.52-2.18,1.03-1.09.32-1.03,2.12-1.99,1.79-.96,2.12-1.86,2.76-2.56.64-.71.71-.32,1.03-.71.32-.39-.07-1.09.7-1.54.77-.45,1.15-.58,1.41-1.41.26-.83.26-1.73.64-1.54.38.19.77-1.22,1.67-1.79.9-.58,1.47-.96,1.73-2.24.26-1.28-.45-1.86.06-2.05.51-.19,1.28-3.4.9-4.1-.39-.71-.39-1.35.06-2.31.45-.96,1.08-2.2,1.08-2.2"/>
    <path class="st9" d="M28.57,105.52s-.77-7.37,7.05-13.71c0,0,11.4-12.3,33.06-21.66,21.66-9.35,40.69-14.8,53.31-15.83,12.62-1.03,28.64-1.41,40.69.38,12.05,1.79,19.48,4.55,19.48,4.55,0,0-12.11-3.97-30.37-4.87-18.26-.9-44.41,2.63-55.62,6.41-11.21,3.78-27.55,9.29-33.58,12.69-6.02,3.4-23.2,15.89-26.08,18.39-2.88,2.5-5.77,6.21-6.54,8.14-.77,1.92-1.41,5.51-1.41,5.51"/>
    <path class="st4" d="M91.17,99.97s.62.62,1.54.46c.92-.15,7.19-1.75,7.19-1.75,0,0,.57.46,1.28.46s8.26-1.8,8.26-1.8c0,0,.41.82,1.49.72,1.08-.1,5.44-.92,5.44-.92,0,0,.46.46.97.46s7.65-.97,7.65-.97c0,0-.05.82,1.54.72,1.59-.1,6.42-.41,6.42-.41,0,0,.72.62,1.75.67,1.03.05,7.34-.26,7.34-.26,0,0,1.08.67,1.64.67s6.62.05,6.62.05c0,0-.05.46,1.33.72,1.39.26,5.6.26,5.6.26,0,0,.67.77,1.18.77s10.32,1.64,14.89,2.11c4.57.46,12.47,2.1,13.19,2.1s-7.29-2.05-7.29-2.05c0,0-13.24-2.31-15.04-2.46-1.8-.15-5.55-.67-5.55-.67,0,0-.46-.51-.61-.57-.15-.05-5.95-.41-5.95-.41l-.82-.77s-7.39.05-7.54,0c-.15-.05-1.08-.72-1.08-.72l-8.32.1-1.18-.56-6.83.31-.77-.57-7.96,1.13-1.03-.77-5.75,1.03-1.49-.77-7.85,1.9-1.69-.62-6.57,1.69-1.9-.51-5.75,2-1.85-.98-5.44,2.46-1.08-1.23-6.98,2.62-1.79-.62-7.75,3.75-2.05.82-2.82.21-5.39,3.03-1.28.46h-1.28l-5.95,3.59h-1.44s-5.39,4.98-6.42,6.93c-1.03,1.95-1.95,4.72-1.95,4.72,0,0,3.28-6,5.95-8.21,2.67-2.21,2.82-2.51,3.54-2.57.72-.05,2-1.03,2.41-1.23.41-.21,3.54-2.41,4.21-2.46.67-.05,1.18-.1,2.1-.46.92-.36,4.77-2.67,5.29-2.88.51-.21,1.69-.41,2.67-.41s3.95-1.64,5.03-2.21c1.08-.56,4.21-2.16,5.03-2.16s1.08.61,1.9.41c.82-.21,6.47-2.36,6.67-2.21.21.15.31,1.23,1.59.87,1.28-.36,4.67-2.31,5.08-2.26.41.05,1.08,1.03,1.59.97.51-.05,6.06-1.74,6.06-1.74"/>
    <path class="st6" d="M77.36,101.51s.46,1.13.67,1.13,5.39-2.57,5.75-2.36c.36.21,1.13,1.03,1.59.98.46-.05,5.85-1.95,5.85-1.95,0,0,.41.56,1.59.51s7.29-1.64,7.29-1.64c0,0,.67.67,1.54.46.87-.21,8.11-1.75,8.11-1.75,0,0,.31.62.92.62s5.9-.87,5.9-.87c0,0,.56.67,1.33.51.77-.15,7.5-.98,7.5-.98,0,0-.1.72.72.72s7.29-.41,7.29-.41c0,0,.1.51,1.34.62,1.23.1,7.96-.26,7.96-.26,0,0-.15.51,1.03.62,1.18.1,7.49.15,7.49.15,0,0-.46.62.77.72,1.23.1,5.9.36,5.9.36,0,0-.21.46.51.51.72.05,13.91,1.59,19.15,2.67,5.24,1.08,10.42,2.51,10.88,2.57.46.05-.72-.72-.72-.72,0,0-16.58-4.36-23.2-4.57l-5.44-.51s0-.57-.46-.62c-.46-.05-6.01-.51-6.31-.46-.31.05-.41-.97-1.03-.97s-7.29.15-7.54.05c-.26-.1-.1-.72-1.13-.72s-7.8.21-8.16.1c-.36-.1-.05-.62-.62-.62s-7.7.46-7.7.46c0,0,.2-.67-.82-.67s-7.34,1.13-7.34,1.13c0,0-.87-.77-1.44-.72-.56.05-5.8.92-5.8.92,0,0-.82-.57-1.33-.62-.51-.05-8.01,1.74-8.01,1.74,0,0-.87-.51-1.23-.51s-7.34,1.85-7.34,1.85c0,0-1.08-.77-2.05-.51-.98.26-5.13,1.8-5.29,1.8s-.21-.72-1.8-.51c-1.59.21-5.44,1.85-5.44,1.85,0,0-.21-1.13-1.49-.92-1.28.21-6.72,2.67-6.72,2.67,0,0-.87-.77-1.59-.72-.72.05-5.9,2.72-5.9,2.72,0,0-3.18,2-3.75,1.85-.56-.15-3.18.1-3.18.1,0,0-5.03,3.64-5.85,3.64s-1.59-.1-2,0c-.41.1-5.13,3.34-5.65,3.49-.51.15-1.85.1-1.85.1,0,0-3.44,3.29-4.88,4.88-1.44,1.59-3.75,7.03-3.34,7.08.41.05,2.05-4.82,3.75-6.67,1.69-1.85,4.98-4.36,4.98-4.36,0,0,1.49-.15,2.31-.77.82-.62,4.67-3.34,5.7-3.13,1.03.21,4.47-1.95,5.95-2.88,1.49-.92,2.98-.67,4.26-.98,1.28-.31,7.65-3.9,8.42-4.16.77-.26,1.13-.26,1.13-.26,0,0,1.13.77,1.64.67.51-.1,7.08-2.88,7.19-2.46"/>
    <path class="st12" d="M33.27,126.2s3.69-3.8,11.45-5.7c7.75-1.9,22.58-4.23,29.2-4.49,6.62-.26,30.33-.16,39.42.66,9.09.82,26.53,2.57,29.81,3.39,3.28.82,16.29,2.74,17.68,2.58,1.39-.15,1.7-.51,1.7-.51,0,0-3.7-.36-7.08-1.08-3.39-.72-17.45-3.54-23.66-4.21-6.21-.67-25.82-2.52-37.27-2.62-11.45-.1-26.86.79-29.84,1.15-2.98.36-9.74,1.31-17.59,3.42-7.85,2.11-13.55,6.01-13.81,7.39"/>
    <path class="st21" d="M73.38,77.29s-15.32,7.33-15.21,10.3c.12,2.97.83,4.87,8.08,4.87s19.98-4.61,19.98-4.61c0,0,1.88-8.87-12.85-10.56"/>
    <path class="st11" d="M187.72,103.72s1.12.46,1.77.91c.64.45,1.39,1.16,1.39,1.16,0,0-3.52-1.52-4.07-1.74-.55-.23-.94-.45-.94-.45l1.85.12Z"/>
    <path class="st16" d="M236.88,194.72s-4.7,7.9-2.13,7.05c2.56-.85,4.91-5.13,7.05-4.7,2.13.43-1.92,10.89,1.28,9.82,3.2-1.07,6.83-5.98,6.83-5.98,0,0-1.28,5.77,2.56,5.13,3.84-.64,5.98-4.06,5.98-4.06,0,0,.64,6.41,2.99,5.13,2.35-1.28,4.06-3.84,4.06-3.84,0,0,.21,2.14,2.35,2.14h2.13s-1.07,5.34,1.28,3.84c2.35-1.5,2.14-3.84,2.14-3.84,0,0,4.91,3.42,5.34,6.62.43,3.2.21,4.91.21,4.91,0,0,2.13-5.13-.64-9.18s-6.62-8.33-6.62-8.33c0,0,1.07,7.48,0,7.48s-1.28-4.27-1.28-4.27c0,0-.64,3.42-5.55-1.92,0,0-2.56,5.76-3.84,4.48-1.28-1.28-2.56-6.41-2.56-6.41,0,0-5.34,6.83-6.19,5.34-.85-1.5-1.71-6.84-1.71-6.84,0,0-4.06,7.48-5.98,6.19-1.92-1.28.64-8.54-1.5-8.54s-5.55,3.2-5.55,3.2c0,0-1.49,1.71-.64-3.42"/>
    <path class="st2" d="M-15.97,176.47s23.44,12.77,34.76,35.4c11.31,22.63,14.29,30.97,14.29,30.97l-30.37-16.68,26.8,41.09-62.53,1.19-1.65-85.32,18.71-6.65Z"/>
    <path class="st2" d="M102.79,264.72s-28.99,5.32-44.37-20.11l-15.38-25.44s25.44,11.24,39.64,21.3l14.2,10.06s-12.42-18.34-13.61-35.5l-1.18-17.16s21.89,21.89,30.76,36.68,9.47,16.56,9.47,16.56l8.87-28.4s8.87,14.2,13.01,29.58c4.14,15.38-41.41,12.42-41.41,12.42"/>
    <path class="st2" d="M32.39,268.86c-.59-2.37,17.16-34.9,21.3-36.68,0,0,5.92,28.99,4.14,34.9-1.78,5.92-25.44,1.77-25.44,1.77"/>
    <path class="st2" d="M251.87,12.7s4.73,23.07,13.02,33.72l8.28,10.65s7.69-8.88,8.87-23.07c1.18-14.2,1.18-18.34,1.18-18.34l14.2,7.69s0,15.97,5.92,23.66c5.92,7.69,10.06,11.83,10.06,11.83,0,0,1.77-23.07,1.77-33.13s-1.18-15.38-1.18-15.38l-62.12,2.37Z"/>
    <path class="st2" d="M205.73,17.43s-2.37,23.66-15.38,29.58l-13.02,5.92s-8.87-9.46-8.87-18.34,3.55-21.89,3.55-21.89l-11.83,7.1-2.96,14.2s-9.46-3.55-10.65-10.06c-1.18-6.51-1.77-11.83-1.77-11.83l44.37-3.55,16.57,8.87Z"/>
    <path class="st2" d="M7.32,16.32S-.92,36.37-1.28,44.96c-.36,8.59,2.5,7.87,2.5,7.87,0,0,20.4-5.01,27.91-17.54,7.52-12.53,8.34-18.68,8.34-18.68l-30.17-.3Z"/>
    <path class="st2" d="M-1.26,135.22s10.06,25.73,16.27,32.53c6.21,6.8,9.17,11.24,9.17,11.24,0,0,4.44-21.89-3.55-36.08-7.99-14.19-19.22-25.73-19.22-25.73l-2.66,18.04Z"/>
  </g>
  <g>
    <path class="st14" d="M106.06,254.8h-2.4v-16.15c-2.28.02-4.97.1-6.43.29v-2.35h15.36v2.35c-1.44-.19-4.2-.26-6.34-.29-.17,4.42-.19,13.01-.19,16.15Z"/>
    <path class="st14" d="M129.12,248.1c0,4.9-3.7,7.03-7.46,7.03s-6.84-2.04-6.84-6.65c0-2.78-.07-10.49-.14-11.91h2.64v11.4c0,3.62,2.14,4.92,4.8,4.92s4.66-1.3,4.66-5.21c0-2.18.05-9.77.07-11.11h2.5c-.1,1.49-.22,9.12-.22,11.52Z"/>
    <path class="st14" d="M135.93,254.8h-2.38v-18.22h2.66c-.12,1.56-.24,5.02-.29,8.64.94-.07,4.32-3.74,8.26-8.64h3.05c-4.46,5.14-6.86,7.75-8.16,8.52,1.73,1.25,4.68,4.63,8.83,9.7h-3.43c-3.02-4.06-7.27-9.12-8.5-9.12-.02,3.65-.05,7.3-.05,9.12Z"/>
    <path class="st14" d="M153.69,249.04c-.7,1.9-1.39,3.82-2.04,5.76h-2.69c2.21-5.95,5.11-12.87,7.73-18.55h1.8c1.82,5.3,4.58,12.46,7.25,18.55h-2.95c-.79-1.94-1.49-3.86-2.18-5.76h-6.91ZM160.01,247.38c-1.03-2.83-1.97-5.45-2.66-7.73-.89,2.16-1.94,4.82-3.07,7.73h5.74Z"/>
    <path class="st14" d="M170.4,254.8h-2.38v-18.22h2.83c1.9,2.38,3.72,4.8,5.54,7.22,1.58,2.11,3.14,4.22,4.68,6.36v-13.58h2.59c-.24,3.19-.34,14.47-.34,18.36h-1.75c-2.09-3.02-4.15-5.93-6.29-8.76-1.61-2.14-3.24-4.27-4.9-6.36v14.98Z"/>
  </g>
</svg>