<?xml version="1.0" encoding="UTF-8"?>
<svg id="Vrstva_1" xmlns="http://www.w3.org/2000/svg" xmlns:xlink="http://www.w3.org/1999/xlink" version="1.1" viewBox="0 0 283.46 283.46">
  <!-- Generator: Adobe Illustrator 30.1.0, SVG Export Plug-In . SVG Version: 2.1.1 Build 136)  -->
  <defs>
    <style>
      .st0 {
        fill: none;
      }

      .st1 {
        fill: #999898;
      }

      .st2 {
        fill: #7f3620;
      }

      .st3 {
        fill: #5a2214;
      }

      .st4 {
        fill: #cda172;
      }

      .st5 {
        fill: #edeceb;
      }

      .st6 {
        fill: #1a140d;
      }

      .st7 {
        fill: #fff;
      }

      .st8 {
        fill: #dbeefb;
      }

      .st9 {
        fill: #6f8499;
      }

      .st10 {
        fill: #544940;
      }

      .st11 {
        fill: #702e16;
      }

      .st12 {
        fill: #3f352c;
      }

      .st13 {
        fill: #cbcaca;
      }

      .st14 {
        fill: #443a32;
      }

      .st15 {
        fill: #a9a9a9;
      }

      .st16 {
        clip-path: url(#clippath);
      }

      .st17 {
        fill: #bab9b9;
      }
    </style>
    <clipPath id="clippath">
      <rect class="st0" x="19.84" y="19.84" width="243.78" height="243.78"/>
    </clipPath>
  </defs>
  <rect class="st9" x="19.84" y="19.84" width="243.78" height="243.78"/>
  <g class="st16">
    <path class="st12" d="M13.64,189.76s57.73,13.91,74.17,19.39c16.43,5.48,97.77,13.91,128.11,20.65,30.34,6.74,49.73,12.22,49.73,12.22l.42,26.97-254.53-1.26,2.11-77.96Z"/>
    <polygon class="st17" points="199.9 192.75 188.24 182.42 174.08 179.74 176.38 185.09 199.9 192.75"/>
    <path class="st2" d="M110.56,197.92s2.17,6.71,1.96,8.47c-.21,1.76,1.24,6.4.83,7.75-.41,1.34.41,19.11-.1,21.28-.52,2.17-.62,3.1-.62,3.1,0,0-.93,1.14-3.93,1.55-3,.41-18.8-.72-18.8.21s.41,1.65,2.17,1.65,4.65-.31,6.1.52c1.45.83.72,1.14,2.38,1.76,1.65.62,8.57-.41,10.02-.41s5.68.93,6.3,1.96c.62,1.03,2.27,2.17,3.41,1.45,1.14-.72-1.86-7.54-1.86-7.54,0,0,1.34-.21,2.58.21,1.24.41-1.76-2.69-2.27-3-.52-.31-1.34-4.03-1.65-5.78-.31-1.76-.41-17.15.21-18.7.62-1.55-1.65-8.47-1.86-10.33-.21-1.86-1.55-4.23-1.55-4.23l-3.31.1Z"/>
    <path class="st2" d="M144.02,198.34s2.38,6.09,3.2,8.88c.83,2.79.62,4.65,3.3,11.98,2.68,7.33,5.27,16.32,4.65,18.49-.62,2.17-3.41,6.82-5.48,8.16-2.07,1.34-6.09.62-5.89,1.86.21,1.24,2.58,1.34,2.58,1.34l7.44,3.31s-.62,4.44,1.24,4.13c1.86-.31,2.17-2.48,2.17-2.48l9.71,1.03s1.76,2.38,2.58,1.55c.83-.83-1.96-7.64-3.62-9.81-1.65-2.17-5.47-7.02-6.51-9.71-1.03-2.69-4.65-14.87-5.68-20.56-1.03-5.68-3.2-11.36-4.85-14.36-1.65-3-2.48-4.65-2.48-4.65l-2.38.83Z"/>
    <path class="st11" d="M57.57,43.7s2.38-2.79,7.64-1.76c5.27,1.03,9.4,3.41,12.19,4.13,2.79.72,7.95,11.78,7.95,11.78l-7.54-2.89s-7.33-4.65-10.74-6.1c-3.41-1.45-9.5-5.16-9.5-5.16"/>
    <path class="st2" d="M59.01,43.19s4.96,0,7.54,1.24c2.58,1.24,11.16,5.79,11.16,5.79l.34-3.88s-15.01-8.1-20.07-3.35l1.03.21Z"/>
    <path class="st11" d="M67.79,44.22s4.54,2.27,5.17,2.27-4.96-2.89-5.17-2.27"/>
    <path class="st2" d="M60.56,44.12s4.13.31,6.92,1.65c2.79,1.34,13.94,8.06,13.94,8.06l-2.07.1s-13.12-8.78-18.8-9.81"/>
    <path class="st12" d="M74.2,47.32s1.45-.93,3.93-1.03c2.48-.1,11.05-2.07,19.83-.31,8.78,1.76,16.53,6.71,19.42,12.81,2.89,6.09-16.53,23.96-16.53,23.96l-14.36-1.55s2.27-6.92,1.24-9.61c-1.03-2.69-9.5-15.6-10.33-16.84-.83-1.24.31-2.27,1.03-2.27s3,1.34,3,1.34c0,0-7.64-5.58-7.23-6.51"/>
    <path class="st10" d="M75.54,47.83s2.07-.83,6.2-1.14c4.13-.31,9.4-.72,14.25-.1,4.86.62,11.78,3.41,13.12,4.96,1.34,1.55-3.1,4.65-5.06,4.65s-3.51-.62-3.1.62c.41,1.24-.1,9.19-2.07,11.78-1.96,2.58-6.2,4.03-8.68,3-2.48-1.03-11.78-16.22-11.88-17.46-.1-1.24.72-2.07.72-2.07,0,0-4.24-3.72-3.51-4.24"/>
    <path class="st14" d="M87.83,53.1s-2.79-3.1-1.65-3.72c1.14-.62,4.54-1.45,7.13-.52,2.58.93,3.93,4.86,3.62,7.13-.31,2.27-4.75,2.27-5.89,1.76-1.14-.52-3.2-4.65-3.2-4.65"/>
    <path class="st12" d="M88.56,52.38s-.52-3.41,2.48-3.41,3.41,2.48,3.41,2.48l-3.93,3.72-1.96-2.79Z"/>
    <path class="st8" d="M89.69,50.83s.62-1.55,3.2-1.45c2.58.1,3.82,4.13,2.69,5.79-1.14,1.65-3.1,2.07-4.65,1.55-1.55-.52-2.58-4.03-1.24-5.89"/>
    <path class="st11" d="M91.14,50.73s1.86-.41,2.58,1.45c.72,1.86.41,3.82-1.45,4.03-1.86.21-3.1-2.17-2.89-3.62.21-1.45,1.24-1.86,1.76-1.86"/>
    <path class="st6" d="M91.34,51.66s.83,0,1.45,1.24c.62,1.24-.21,2.79-1.14,2.79s-2.07-2.07-1.65-2.89c.41-.83,1.34-1.14,1.34-1.14"/>
    <path class="st4" d="M91.34,53.21s.62-1.34.93-.52c.31.83-.83,1.65-.93.52"/>
    <path class="st14" d="M89.8,61.16s2.58,1.76,4.44,1.34c1.86-.41,2.58-1.76,2.79-1.45.21.31-1.96,2.69-3.51,2.79-1.55.1-4.34-2.07-4.65-2.69-.31-.62.93,0,.93,0"/>
    <path class="st5" d="M69.96,134.09s-7.64-1.34-10.12,3.51c-2.48,4.86-1.96,12.09,0,16.32,1.96,4.23,10.95,15.49,13.43,16.94,2.48,1.45-2.69-35.02-2.69-35.02l-.62-1.76Z"/>
    <path class="st17" d="M71.72,136.05s-2.58-1.86-6.2-.41c-3.62,1.45-3.62,7.33-4.24,9.5-.62,2.17-1.86,3.93-1.45,6.2.41,2.27,6.51,14.36,10.74,17.77,4.24,3.41,17.97,10.95,23.86,11.67,5.89.72-22.72-44.73-22.72-44.73"/>
    <path class="st15" d="M70.79,144.52s-.29-7.65-2.87-6.1c-2.58,1.55-5.08,6.3-4.67,8.37.41,2.07,6.09,12.5,10.33,17.15,4.24,4.65,13.12,12.19,15.91,13.22,2.79,1.03,3.1.31,3.1.31l-21.79-32.95Z"/>
    <path class="st13" d="M86.49,81.2s2.89-2.58,5.78-3.1c2.89-.52,7.75-4.13,11.16-8.37,3.41-4.23,8.88-11.46,13.53-11.46,0,0,1.76-.21,2.69,7.64.93,7.85-3.2,32.85-3.92,38.53-.72,5.68-.52,13.95,1.44,17.25,1.96,3.3,4.85,4.13,7.33,5.06,2.48.93,4.65,2.17,4.65,2.17,0,0-14.67.21-14.98,0-.31-.21-10.23-12.81-10.23-12.81l-7.85-24.58-9.61-10.33Z"/>
    <path class="st5" d="M103.22,74.28s2.07,4.03.72,9.09c-1.34,5.06.83,18.8,2.27,23.24,1.45,4.44,6.92,19.72,8.57,20.23,1.65.52.31-3.4,1.14-2.47.83.93,9.92,4.13,13.84,4.65,3.93.52,14.56,5.37,22,10.64,7.44,5.27-8.37,10.85-8.37,10.85l-14.15,26.03s-41.42-3.72-47.21-6.82c-5.78-3.1-16.22-26.13-12.09-41.21,4.13-15.08,4.96-14.05,7.03-20.87,2.07-6.82,8.66-26,9.79-26.83,1.14-.83,2.87.35,6.72-1.36,3.44-1.52,9-7.66,9.72-5.18"/>
    <path class="st17" d="M99.61,183.36s6.92,4.34,7.85,6.61c.93,2.27,1.76,8.57,4.65,8.57s1.76-11.16,1.76-11.16l-14.25-4.03Z"/>
    <path class="st15" d="M103.95,183.25s5.99,4.13,6.2,6.51c.21,2.38.21,8.78,1.96,8.78s2.79-1.65,3.72-4.34c.93-2.69.83-6.82.83-6.82l-12.71-4.13Z"/>
    <path class="st13" d="M79.98,168.28s7.02,7.75,13.94,12.5,21.38,7.85,24.58,9.61c3.2,1.76,13.84,5.17,22.31,5.79,8.47.62,15.29-1.65,15.29-1.65,0,0,3.62-1.14,8.47.62,4.85,1.76,21.38,13.64,26.55,14.46,5.16.83,10.02-1.14,10.33-2.48.31-1.34.31-1.65.31-1.65,0,0,6.61.1,7.95-.93,1.34-1.03.93-1.44.93-1.44,0,0,8.06.31,8.57-.83.52-1.14-20.66-10.43-23.35-11.26-2.69-.83-28.2-12.09-28.2-12.09l-56.92-34.91s.31,4.03,2.38,6.09c2.07,2.07,9.09,7.54,11.36,11.26,2.27,3.72,1.24,10.12-.52,11.26-1.76,1.14-21.49-.72-29.96-2.58-8.47-1.86-19.32-13.32-20.25-14.88-.93-1.55-1.96-3.31-1.96-3.31,0,0,2.38,9.71,8.16,16.43"/>
    <path class="st17" d="M121.71,186.97s16.32,3,23.86,2.27c7.54-.72,19.01,3.31,19.01,3.31,0,0-7.64-.21-11.46.21-3.82.41-10.74.93-17.77.52-7.02-.41-13.63-6.3-13.63-6.3"/>
    <path class="st17" d="M131.53,183.46s1.65,5.68,4.85,8.68c3.2,2.99,6.3,6.51,8.99,6.51s.21-7.95-1.24-10.54c-1.45-2.58-4.75-6.1-7.33-5.47-2.58.62-4.96-1.24-5.27.83"/>
    <path class="st13" d="M136.48,186.77s.41,3.51,3.3,5.99c2.89,2.48,4.44,4.24,4.96,3.41.52-.83-6.71-11.88-8.26-9.4"/>
    <path class="st17" d="M166.34,195.24s7.13,1.24,15.39,3.72c8.26,2.48,16.22,5.89,18.39,5.27,2.17-.62-2.48-4.13-2.48-4.13,0,0,7.13,2.17,9.09,1.96,1.96-.21-6.1-5.78-6.1-5.78,0,0,4.75,4.13,3.41,4.34-1.34.21-10.54-2.69-10.54-2.69,0,0,5.99,4.44,4.75,4.86-1.24.41-29.65-9.4-31.92-7.54"/>
    <path class="st17" d="M165.51,191.41s21.49,5.99,23.76,5.58c2.27-.41,0-2.48,0-2.48,0,0,1.24,1.86-1.45,1.55-2.69-.31-22.31-4.65-22.31-4.65"/>
    <path class="st13" d="M115.62,123.55s-1.45,2.58-1.45,5.37,2.38,5.89,4.85,7.85c2.48,1.96,9.5,2.07,9.5,2.07,0,0-2.27-2.02-1.44-3.15.83-1.14,4.2.62,5.96,2.69,1.76,2.07,17.07,14.61,24.92,17.09,7.85,2.48,14.98,24.27,19.01,26.13,4.03,1.86,10.23,2.69,14.77,5.16,4.55,2.48,5.27,7.64,19.94,9.92,14.67,2.27,27.17,2.27,27.17,2.27l.52-4.86s-16.53-5.17-22.93-6.2c-6.4-1.03-8.78-2.37-11.16-4.23-2.38-1.86-8.26-7.13-15.29-12.91-7.02-5.78-9.19-9.3-15.18-9.19,0,0-22.62-29.34-45.66-32.64,0,0-3.51-1.96-6.92-3.31-3.41-1.34-6.3-2.58-6.61-2.07"/>
    <path class="st17" d="M135.76,136.36s-5.68-1.24-9.71-1.45c-4.03-.21-8.88-.93-11.47.52-2.58,1.45-3.93,6.3-3.82,8.57.1,2.27,3.93,6.61,7.64,9.3,3.72,2.69,10.43,11.78,19.21,17.04s12.81,4.34,12.81,4.34l8.47-20.66s-4.85-2.68-8.57-5.47c-3.72-2.79-12.6-11.67-14.57-12.19"/>
    <path class="st15" d="M137.62,139.97c-.41,0-9.5-1.55-14.67-1.55s-5.99,2.38-6.09,5.58c-.1,3.2,6.3,9.4,9.19,12.19s5.06,5.99,9.81,10.23c4.75,4.23,12.4,12.08,16.42,14.05,4.03,1.96,4.23-.1,4.23-.1,0,0,2.38,1.45,4.96.41,0,0,7.13,3.51,10.54,3.41s3.2-1.55,3.2-1.55c0,0,2.48.1,3.1-1.14l.62-1.24s1.65-.52,2.48-1.34l.83-.83s3.93-1.45,2.89-2.89l-1.03-1.45s1.34.52,1.45-.52c.1-1.03-10.12-12.71-18.18-16.84-8.06-4.13-20.76-10.74-24.69-13.32-3.93-2.58-5.06-3.1-5.06-3.1"/>
    <path class="st1" d="M131.53,162.08s22.12,24.67,25.22,18.57c0,0,2.05,2.29,4.73.12,0,0,13.49,7.15,13.74,1.86,0,0,2.17,1.14,3.72-2.38,0,0,3.02-.2,3.74-2.27,0,0,4.32-.63,3.08-2.49-1.24-1.86-1.65-1.76-1.65-1.76,0,0,1.96,1.24,1.45-.52-.52-1.76-10.33-12.19-13.84-14.56-3.51-2.38-5.37-3-5.37-3,0,0,4.13,4.34,5.99,6.61,1.86,2.27,1.55,3.51.93,2.68-.62-.83-11.78-11.67-10.02-9.5,1.75,2.17,8.68,9.71,8.06,10.02-.62.31-12.6-11.98-11.16-10.64,1.45,1.34,7.23,8.99,7.44,10.43.21,1.45-10.64-10.12-10.64-10.12,0,0,8.57,10.12,7.85,10.74-.72.62-9.81-12.19-9.5-10.95.31,1.24,8.37,11.57,6.92,11.36-1.44-.21-9.61-12.71-9.5-11.26.1,1.45,7.54,10.12,6.09,10.54-1.44.41-13.22-13.74-12.19-12.08,1.03,1.65,8.88,11.57,8.26,12.19-.62.62-13.32-11.05-11.67-9.61,1.65,1.45,8.26,10.12,7.44,10.23-.83.1-13.33-11.47-12.09-10.23,1.24,1.24,8.99,9.81,7.95,9.92-1.03.1-11.47-10.85-11.16-10.23.31.62,7.54,8.78,6.92,9.09-.62.31-14.87-12.4-13.63-11.26,1.24,1.14,8.16,10.23,8.16,10.23l-16.42-13.63,11.16,11.88Z"/>
    <path class="st15" d="M140.82,167.35s10.74,11.05,12.71,11.98c1.96.93,2.89.31,2.89.31,0,0-3.41-1.34-15.6-12.29"/>
    <path class="st15" d="M149.5,169.21s7.54,9.3,9.4,10.12c1.86.83,2.79.1,2.79.1,0,0-2.38.1-12.19-10.23"/>
    <path class="st15" d="M156.32,169.1s8.06,10.33,10.95,11.98c2.89,1.65,4.65,1.55,4.65,1.55,0,0-1.86-.1-7.75-5.89-5.89-5.78-7.85-7.64-7.85-7.64"/>
    <path class="st15" d="M165.2,170.14s7.75,9.71,9.61,10.23c1.86.52,2.79-.1,2.79-.1,0,0-1.96,1.86-12.4-10.12"/>
    <path class="st15" d="M170.37,169.41s.08.09.23.26c1.26,1.47,7.42,8.62,8.35,8.62,1.03,0,2.07-.52,2.07-.52,0,0-.93,2.07-10.64-8.37"/>
    <path class="st15" d="M175.32,171.17s5.58,4.86,7.02,5.06c1.45.21,1.96-.72,1.96-.72,0,0-.21,1.86-8.99-4.34"/>
    <path class="st12" d="M178.32,181.5s15.39,3.61,19.11,3.1c3.72-.52,21.18,3.61,21.18,3.61,0,0-11.36-.21-16.63-.83-5.27-.62-8.06,0-11.16-.72-3.1-.72-13.43-3.82-12.5-5.17"/>
    <path class="st12" d="M231.83,191.72s13.12,2.38,15.49,4.75c2.37,2.38-1.45,3.72-13.94,2.48,0,0,8.78-3.1-1.55-7.23"/>
    <path class="st11" d="M113.45,205.15s1.96-.62,3,.62c1.03,1.24,1.76,6.61,1.03,7.44-.72.83-1.76-.93-2.58-.72-.83.21-1.55.62-1.55.62,0,0-1.65-2.99-1.45-5.27.21-2.27,1.55-2.69,1.55-2.69"/>
    <path class="st11" d="M148.47,213.62s.52-.41,2.38-.41,2.27-.52,2.27-.52c0,0-.1-4.23-1.34-6.09-1.24-1.86-4.54-1.14-4.75.1-.21,1.24-.72,4.24,1.45,6.92"/>
    <path class="st3" d="M113.24,210.94s1.24.31,2.27,0l1.03-.31-3.31.31Z"/>
    <path class="st3" d="M113.04,208.87h2.89s-2.99,1.03-2.89,0"/>
    <path class="st3" d="M112.83,207.01s1.76-.62,2.58-.31c.83.31-2.58.31-2.58.31"/>
    <path class="st3" d="M148.78,211.97s.93.1,2.17-.21l1.24-.31s-1.65,1.76-3.41.52"/>
    <path class="st3" d="M147.95,210.32l3.93-.62s-4.03,0-3.93.62"/>
    <path class="st3" d="M147.33,208.66s1.45-.83,2.48-.83h1.86l-4.34.83Z"/>
    <path class="st11" d="M93.83,241.83s8.26.1,10.84-.21c2.58-.31,3.51-.21,3.51-.21l-8.88,1.86s-3.3-1.23-5.47-1.44"/>
    <path class="st11" d="M109.32,243.78s6.09-3.82,6.61-3.1,2.13,6.39,2.64,6.59c.52.21-3.78-1.33-6.47-1.94-2.69-.62-3.51-1.45-3.51-1.45l.72-.1Z"/>
    <path class="st11" d="M145.68,248.95s5.48-1.45,6.71-2.79c1.24-1.34,2.79-3.72,2.89-2.69.1,1.03-1.46,11.71-1.46,11.71,0,0-3.29-4.68-8.15-6.23"/>
    <path class="st11" d="M156.73,255.25s1.55-13.33,2.89-13.33,7.33,13.12,7.33,13.12c0,0-7.54-.62-10.23.21"/>
    <path class="st11" d="M113.97,238.21s2.27.1,3-.31c.72-.41-.62-6.3-.72-9.5-.1-3.2-.62-9.92-.62-9.92,0,0,.21,12.6.21,14.26s1.65,4.65-1.86,5.47"/>
    <path class="st11" d="M155.8,238.72s1.34.52,1.96-.31c.62-.83-5.89-23.97-5.89-23.97,0,0,6.61,22.31,6.82,23.76.21,1.45-2.27,1.55-2.89.52"/>
    <path class="st12" d="M80.22,57.88s-1.47-3.27-1.17-3.77c.3-.5.87-1.62.65-2.29-.22-.67-1.37-3.02-.85-3.72.52-.7,2.77-1.4,3.82-1.5,1.05-.1.87-.53.87-.53l-7.44.82-.87.75s-.15.62.28,1.1c.42.48,3.14,2.85,3.17,3.2.02.35-.75.55-1.07.9-.32.35.4,1.92.62,2.32.22.4,2,2.72,2,2.72"/>
  </g>
  <g>
    <path class="st7" d="M117.93,254.8h-3.19c-2.33-3.55-6.19-7.99-6.67-8.04-.46-.02-.96-.07-1.46-.14-.02,2.45-.05,6.43-.05,8.18h-2.38v-18.22h4.44c4.51,0,6.74,2.18,6.74,5.09,0,2.45-1.73,4.15-4.85,4.63,1.58,1.1,4.25,4.2,7.42,8.5ZM106.62,244.91c.58.07,1.1.1,1.61.1,3.14,0,4.49-1.27,4.49-3.17s-1.34-3.26-4.42-3.26h-1.54c-.07,1.37-.1,3.7-.14,6.34Z"/>
    <path class="st7" d="M123.83,249.04c-.7,1.9-1.39,3.82-2.04,5.76h-2.69c2.21-5.95,5.11-12.87,7.73-18.55h1.8c1.82,5.3,4.58,12.46,7.25,18.55h-2.95c-.79-1.94-1.49-3.86-2.18-5.76h-6.91ZM130.14,247.38c-1.03-2.83-1.97-5.45-2.66-7.73-.89,2.16-1.94,4.82-3.07,7.73h5.74Z"/>
    <path class="st7" d="M139.24,246.09c0,3.74,2.21,6.79,7.03,6.79,1.66,0,3.29-.41,4.51-1.08v1.9c-1.1.94-2.64,1.46-4.9,1.46-6.29,0-9.31-4.32-9.31-9s3.48-9.94,10.25-9.94c1.75,0,3.14.22,3.96.43v2.78c-1.06-.6-2.66-.91-4.34-.91-4.73,0-7.2,3.53-7.2,7.56Z"/>
    <path class="st7" d="M156.09,244.74c2.95,0,5.3-.05,6.6-.17v1.92c-1.3-.1-3.67-.14-6.62-.14-.02,2.35-.05,4.83-.05,6.38,3.1-.02,6.55-.1,8.59-.29l-.36,2.35h-10.61v-18.22h10.03v2.35c-1.3-.19-4.39-.26-7.44-.29-.07,1.32-.1,3.67-.14,6.1Z"/>
    <path class="st7" d="M169.86,254.8h-2.38v-18.22h2.66c-.12,1.56-.24,5.02-.29,8.64.94-.07,4.32-3.74,8.26-8.64h3.05c-4.46,5.14-6.86,7.75-8.16,8.52,1.73,1.25,4.68,4.63,8.83,9.7h-3.43c-3.02-4.06-7.27-9.12-8.5-9.12-.02,3.65-.05,7.3-.05,9.12Z"/>
  </g>
</svg>