<?xml version="1.0" encoding="UTF-8"?>
<svg id="Vrstva_1" xmlns="http://www.w3.org/2000/svg" xmlns:xlink="http://www.w3.org/1999/xlink" version="1.1" viewBox="0 0 283.46 283.46">
  <!-- Generator: Adobe Illustrator 30.1.0, SVG Export Plug-In . SVG Version: 2.1.1 Build 136)  -->
  <defs>
    <style>
      .st0 {
        fill: none;
      }

      .st1 {
        fill: #d3677a;
      }

      .st2 {
        fill: #efc3c2;
      }

      .st3 {
        fill: #e37885;
      }

      .st4 {
        fill: #2f0f15;
      }

      .st5 {
        fill: #9c3434;
      }

      .st6 {
        fill: #bf6a6b;
      }

      .st7 {
        fill: #ae4040;
      }

      .st8 {
        fill: #aa5b5f;
      }

      .st9 {
        fill: #fff;
      }

      .st10 {
        fill: #ad6d40;
      }

      .st11 {
        fill: #9a4f56;
      }

      .st12 {
        fill: #e4b1ad;
      }

      .st13 {
        fill: #d3a29f;
      }

      .st14 {
        fill: #de9646;
      }

      .st15 {
        clip-path: url(#clippath);
      }
    </style>
    <clipPath id="clippath">
      <rect class="st0" x="19.84" y="19.84" width="243.78" height="243.78"/>
    </clipPath>
  </defs>
  <rect class="st6" x="19.84" y="19.84" width="243.78" height="243.78"/>
  <g class="st15">
    <path class="st8" d="M14.55,71.52c2.56,2.56,12.17,103.16,14.1,115.33,1.92,12.17-6.41-87.78,0-69.2,6.41,18.58,7.69,44.21,7.69,44.21,0,0-.64-16.66,3.2-10.89,3.84,5.77,5.13,16.66,5.13,16.66l5.77-8.97,3.84-7.69s-3.2-65.35,0-62.79c3.2,2.56,5.12,23.07,5.12,23.07l3.84-9.61,1.28,51.26,10.25,10.89v-49.34l7.69-3.84,3.8,5.58,1.32,4.03,7.69,4.49,14.1-11.53s14.74-22.43,16.66-20.5c1.92,1.92,4.49,24.35,4.49,24.35,0,0-8.33-20.5,2.56-23.07,10.89-2.56,8.96,20.05,8.96,20.05,0,0,7.06-19.41,7.06-14.92s4.49,12.18,4.49,12.18l29.48-2.56,6.44,14.63,19.19,2.03s-16.02-24.99-4.49-19.22c11.53,5.77,15.38,33.96,15.38,33.96l1.28-32.04s9.61,28.19,8.97,39.08l-.64,10.89,8.33-49.98,1.28,59.59s-1.28-67.92,7.05-81.37l8.33-13.46s-7.05,19.22-7.05,28.83-.64,39.73-.64,39.73l6.41-42.29s.64,35.24.64,42.93v7.69l8.97-52.54,3.2,25.63,1.28,148.65H15.19l-.64-199.91Z"/>
    <path class="st11" d="M243.42,162.9s1.39-51.55,5.37-36.08c3.98,15.47,2.87,43.55,2.87,42.88s.44-26.08,2.43-19.89c1.99,6.19,3.54,12.16,3.54,12.16,0,0,.66-16.14,2.43-15.25,1.77.88,6.85,9.73,6.85,9.73l-1.11,8.62s1.33,8.18-.22,8.18-15.03,2.21-15.69,2.21-6.48-12.55-6.48-12.55"/>
    <path class="st11" d="M15.01,187.14s6.67,47.99,8.47,57.23c1.8,9.24,3.34-82.9,5.13-81.1,1.8,1.8-.77,71.35-.77,71.35,0,0,3.08-39.01,3.59-34.39.51,4.62-.77,21.3-.77,21.3,0,0,5.13-40.03,7.96-43.89,2.82-3.85,15.65-7.44,15.65-7.44,0,0-9.24,4.88-11.55,9.5-2.31,4.62-4.62,77.25-4.62,77.25,0,0,5.13-58.51,5.65-54.67.51,3.85.26,8.47.26,8.47,0,0,3.34-32.08,4.88-26.69,1.54,5.39,1.28,24.38,1.28,24.38,0,0,5.13-18.22,5.13-12.58v21.04s-4.88-34.65-3.85-34.9c1.03-.26,11.04,32.34,12.06,45.94,1.03,13.6,1.03,14.12,1.03,14.12,0,0,8.47-73.14,9.75-68.27,1.28,4.88-1.03,32.08-1.03,32.08,0,0,6.16-31.57,8.73-29.26,2.57,2.31,3.59,5.9,3.59,5.9l11.55.51s-10.78,33.88-7.44,40.04c3.34,6.16,10.27-54.15,13.09-50.04,2.82,4.11,1.54,53.12,1.54,53.12l2.31.51,10.78-61.34,3.08,3.85.26,55.18s3.08-64.67,10.26-59.54c7.19,5.13,59.28,3.59,60.05,3.34.77-.26,34.9-3.85,35.67-3.59.77.26,7.7,62.36,8.21,57.23.51-5.13-3.59-60.05.26-58,3.85,2.05,6.93-1.8,9.24.77,2.31,2.57,3.34,3.59,3.85,4.36.51.77.26-2.57,2.82-1.8,2.57.77,15.14-3.85,15.14-3.85l-1.03,107.53-250.04.63-.18-84.29Z"/>
    <path class="st7" d="M143.89,181.83s-.14,40.72-.71,51.4c-.57,10.68.14,19.93-2.85,23.78-2.99,3.85-3.28,14.1-3.28,14.1l8.54-.43s4.56-6.98,5.41-10.54c.85-3.56-1.57-11.25-1.57-16.09s-.14-15.95.29-30.47c.43-14.52,1.57-33.03,1.57-33.03l-7.4,1.28Z"/>
    <path class="st12" d="M59.31,52.69s3.84-7.26,14.81-6.84c10.96.43,19.65,14.24,20.79,16.52,1.14,2.28,3.7,10.11,2.14,15.95-1.57,5.84-.85,7.4-2.42,11.25-1.57,3.85-6.69,17.37-15.24,26.63-8.54,9.26-20.08,22.78-13.38,36.88,6.69,14.1,15.38,9.54,16.8,8.26,1.42-1.28,3.85-8.97,3.7-13.39-.14-4.41-.57-7.97,1.71-14.38,2.28-6.41,7.26-14.38,9.97-16.8,2.71-2.42,119.18,20.08,121.03,20.93,1.85.85,30.04,18.23,30.04,19.37s-6.12-1.28-6.12-1.28c0,0,10.54,9.68,8.54,9.68s-8.26-2.56-8.26-2.56c0,0,11.11,9.83,10.54,11.53-.57,1.71-18.23-4.13-18.23-4.13,0,0,3.13,1.71-.14,1.71s-14.52-1.42-18.51-2.7c-3.99-1.28-10.54-2.14-10.96-2.14s-13.1,1.57-13.1,1.57c0,0-8.12,4.56-8.83,4.84-.71.29-7.69,2.71-7.69,2.71,0,0-.85,5.13-4.42,5.7-3.56.57-8.97-1.42-8.97-1.42,0,0,1.42.71-1.14.71s-7.4-1.42-7.4-1.42c0,0-2.42,2.85-6.12,2.85s-5.98-.71-5.98-.71l-8.83-1.42-17.51-4.42s-21.07,7.26-28.62,7.69c-7.55.43-23.49-3.85-29.62-11.11-6.12-7.26-8.88-10.25-9.64-24.63-.76-14.38,3.94-19.79,10.49-28.76,6.55-8.97,20.08-23.35,22.64-29.33,2.56-5.98,2.42-10.68,2.28-11.96-.14-1.28-2.42-2.85-2.42-4.56s-7.4-.57-13.53-2.14c-6.12-1.57-13.38-2.71-13.38-2.71l4.98-15.95Z"/>
    <path class="st13" d="M175.65,172.44s4.27.29,6.98-1.57c2.71-1.85,3.42-3.42,9.83-3.7,6.41-.29,10.39-2.28,10.39-2.28,0,0,5.98.85,8.4,0,2.42-.86,2.99-4.13,2.99-4.13l15.09.71s20.29,12.5,21.93,11.67c1.64-.82,0-2.71,0-2.71,0,0,6.74,5.13,2.73,5.56-4.01.43-17.24-4.99-17.24-4.99,0,0,3.41,1.58-2.15,1.58s-25.21-4.19-25.21-4.19c0,0-3.7.77-5.27.77,0,0-8.12,1.71-10.39,1.57,0,0-6.12,4.89-10.25,5.29-4.13.4-7.18,1.12-7.18,1.12,0,0,.77,3.84-4.21,4.84-4.98,1-8.97-1.42-8.97-1.42,0,0,3.7,3.56-8.54-.71,0,0-1.14,3.99-7.4,3.42-6.27-.57-7.35-1.71-7.35-1.71,0,0-1.91.86-9.17-.14-7.26-1-12.67-3.85-12.67-3.85,0,0-6.69,4.61-20.22,6.29-13.53,1.68-33.46.54-42.71-14.56,0,0,7.26,5.27,13.24,7.55,5.98,2.28,15.81,2.99,21.64,2.99s15.66-3.95,16.09-7.24c.43-3.3-1.14-6.29,1-6.14,2.14.14,9.54,6.69,15.81,8.4s15.24,1.71,21.5,1.99c6.26.28,8.97,1,8.97,1,0,0,6.55-1.99,11.96-2.14,5.41-.14,10.4-3.28,10.4-3.28"/>
    <path class="st7" d="M168.1,154.78s-2.71,2.42,3.13,3.56c5.84,1.14,5.98,3.56,8.54,3.56,0,0-5.13.57-5.55,1.57-.43,1,1.85,2.42,7.26,2.42s6.69-1.42,6.12-3.42c0,0,6.94-1.31,8.83-1,.85.14,17.8-.29,18.08-2.56l.29-2.28-2.71-3.85s10.82,3.56,11.11,1.85c.29-1.71-9.4-12.39-9.4-12.39l-8.97-1-17.94-2.14-5.98-4.84-6.83,3.56-5.98,16.95Z"/>
    <path class="st2" d="M142.33,150.08c0-.45,14.52,13.67,15.09,12.25l.57-1.42s1.57,5.84,3.13,4.98c1.57-.85,2.99-7.86,2.99-7.86,0,0-2.56,7.6,1.85,7.95,4.42.34,6.27-13.61,6.27-13.61,0,0,2.99,5.41,4.13,4.56l1.14-.85s2.42,6.12,4.13,4.7c1.71-1.42,3.84-12.1,2.99-15.52l-.85-3.42s12.39,7.4,13.24,7.4,6.55,10.96,7.83,8.97c1.28-1.99,1.28-7.92,1.28-7.92,0,0,3.99,1.76,3.42-1.71-.57-3.47-2.85-5.75-2.85-5.75,0,0,5.27,1.62,5.84,1.24l.57-.38s9.97,14.52,10.96,12.39c1-2.14.85-3.13.85-3.13,0,0,2.13,3.84,2.99,3.56.85-.28.85-1.11.85-1.11,0,0,3.85,2.53,3.7,1.25l-.14-1.28s13.38,10.72,17.8,10.63c4.41-.09,2.48-2.1-6.22-9.91,0,0,8.07,3.7,6.5,1.42-1.57-2.28-44.43-31.47-49.55-34.74-5.13-3.27-14.52-11.39-22.64-14.24-8.12-2.85-23.35-5.41-27.91-5.7-4.56-.28-10.68-1.99-23.64-1.14-12.96.85-26.48,5.84-37.88,29.47,0,0-1.42,4.98,1.99,7.69,3.42,2.71,10.54,1.42,13.81,3.13,3.28,1.71,6.12,4.27,5.84,2.71-.29-1.57-2.42-5.27-2.42-5.27,0,0,8.54,2.71,12.67,6.83,4.13,4.13,6.83,7.55,8.54,6.41,1.71-1.14,1.71-1.42,1.71-1.42,0,0,5.13,3.42,7.12,2.56,1.99-.85,1.28-3.42,1.28-3.42,0,0,2.99,2.85,2.99-.29"/>
    <path class="st2" d="M90.78,137.41s-1.42,2.13-.71,7.12c.71,4.98,4.13,8.26,4.13,8.26,0,0,.71,3.42,3.28,4.56l2.56,1.14s0,3.42,3.7,4.84c3.7,1.42,4.56.57,4.56.57,0,0,11.11-1.85,17.8-4.41,6.69-2.56,9.11-5.84,7.26-6.41-1.85-.57-11.68.14-11.68.14,0,0,2.71-1.85,1.57-2.85-1.14-1-9.54-2.28-13.67-1.57l-4.13.71s3.42-.14,1.85-2.13c-1.57-1.99-5.12-2.85-5.12-2.85,0,0,0-4.56-2.71-6.55-2.7-1.99-7.69-2.28-8.69-.57"/>
    <path class="st13" d="M129.65,166.31s12.39-2.14,9.97-3.28c-2.42-1.14-8.97-2.14-8.97-2.14,0,0,6.98,2.14,5.55,2.85-1.42.71-6.55,2.56-6.55,2.56"/>
    <path class="st12" d="M124.53,130.57s4.56,3.7,6.98,7.97c2.42,4.27,4.27,10.96,6.84,9.26,2.56-1.71.43-13.81-2.28-18.65-2.71-4.84-10.97-13.39-9.68-12.39,1.28,1,8.26,4.13,12.25,15.24,3.99,11.11,2.28,16.95.85,17.51-1.42.57-3.56.43-7.4-6.55-3.85-6.98-7.55-12.39-7.55-12.39"/>
    <path class="st12" d="M140.9,122.74c.39.22,14.38,24.35,15.09,23.21.71-1.14-.28-6.83-.28-6.83,0,0,3.42,7.97,4.41,6.55,1-1.42-.71-8.4-4.84-16.23-4.13-7.83-13.24-13.95-13.24-13.95,0,0,11.11,4.13,15.38,15.8,4.27,11.68,4.84,17.66,2.99,17.23-1.85-.43-2.71-3.27-2.71-3.27,0,0-1.14,3.42-2.42,2.56-1.28-.86-15.66-25.77-14.38-25.06"/>
    <path class="st12" d="M162.26,116.62s14.1,8.83,18.37,14.95,5.55,7.12,6.98,6.41c1.43-.71-.14-3.7-.14-3.7,0,0,.14,3.56-1,2.28-1.14-1.28-13.1-17.66-24.21-19.93"/>
    <path class="st12" d="M173.94,117.05s8.12,7.69,8.69,6.26-.57-2.99-.57-2.99c0,0-.29,1.85-1.28,1.14-1-.71-6.55-5.41-6.84-4.41"/>
    <path class="st12" d="M169.81,138.41s5.7,14.38,8.54,13.53c2.85-.85,1.28-5.27,1.28-5.27,0,0-.57,4.84-1.71,3.13-1.14-1.71-8.12-11.39-8.12-11.39"/>
    <path class="st12" d="M126.95,108.65s12.39,2.99,14.67,3.84c2.28.86,1.71-2.56-1.43-3.84l-3.13-1.28s26.48,8.54,26.48,6.98-10.68-6.41-10.68-6.41c0,0,4.56-1.14,12.96,1.57,8.4,2.71,13.53,5.13,13.53,3.99s-2.14-2.42-2.14-2.42c0,0-.14,1.14-2.99,0-2.85-1.14-18.22-5.98-23.21-3.42,0,0,10.68,5.13,8.83,4.98-1.85-.14-22.93-7.55-24.35-6.69-1.42.85,5.84,5.13,4.7,5.13s-13.24-2.42-13.24-2.42"/>
    <path class="st12" d="M195.44,130s10.82,10.54,12.82,9.82c1.99-.71,1-2.14,1-2.14,0,0,.28,2.99-3.7.14-3.99-2.85-9.68-8.97-10.11-7.83"/>
    <path class="st12" d="M116.69,118.47s10.96,10.54,11.25,9.11c.28-1.43-.57-2.99-.57-2.99,0,0-.71,1.28-1.99.43-1.28-.85-8.54-6.98-8.69-6.55"/>
    <path class="st12" d="M97.76,129.43s6.26,5.41,7.26,3.99-1.99-6.41-1.99-6.41c0,0,8.97,5.98,11.68,6.12,2.71.14-2.14-7.69-2.14-7.69,0,0,2.99,2.28,3.84,1,.85-1.28-2.14-7.12-5.13-8.83l-2.99-1.71s5.98-2.42,9.54-1.99c3.56.43,3.99-3.99,1.71-4.13s.29,1.99-.85,2.28c-1.14.28-10.96,2.42-11.96,3.84,0,0,5.27,3.42,6.69,5.84,1.42,2.42.85,2.71.85,2.71,0,0-3.99-1.42-3.99-1s4.7,8.83,3.13,8.12c-1.57-.71-12.67-7.83-12.67-7.83,0,0,4.27,8.54,2.71,7.83-1.57-.71-5.7-2.13-5.7-2.13"/>
    <path class="st12" d="M118.69,134.7s4.84,8.97,6.55,9.26c1.71.28,1.28-3.42,1.28-3.42,0,0-1,2.71-2.14,1-1.14-1.71-5.7-6.84-5.7-6.84"/>
    <path class="st12" d="M107.58,152.36s8.26-1.14,8.26.14-2.42,2.42-2.42,2.42c0,0,13.24-.14,12.25,1.42-1,1.57-11.11,3.13-11.11,3.13,0,0,7.83-1.28,5.13-2.28-2.71-1-9.54-.43-9.68-.85-.14-.43,4.13-2.99,1.99-3.13-2.14-.14-4.41-.85-4.41-.85"/>
    <path class="st4" d="M179.35,163.18s3.13-.14,3.84-1.14c.71-1,.57-1.99.57-1.99,0,0,2.56,0,2.99-1.28.43-1.28.43-1.57.43-1.57,0,0,.14,2.42,2.71,2.56,2.56.14,5.55,2,5.55,2,0,0-4.41,2.85-7.83.71,0,0-7.69,2.28-8.26.71"/>
    <path class="st4" d="M218.79,156.49s1.42,4.13,3.85,4.98c2.42.85,4.41.57,4.41.57,0,0,4.41,1.71,6.26,1,1.85-.71,1.85-.43,1.85-.43,0,0,7.4.85,6.55-.28-.85-1.14-9.68-7.83-9.68-7.83,0,0-.43,1.99-3.42-.57,0,0-1,2.99-4.13-2.56,0,0,.14,6.27-2.85,4.84,0,0-3.13-1.71-2.85.29"/>
    <path class="st13" d="M54.61,69.49s7.83,2.56,11.68,2.99c3.85.43,14.52.14,14.52.14,0,0-3.56-3.42-10.68-5.55-7.12-2.13-7.97-1.57-7.4-3.27.57-1.71,6.26-6.41,9.4-7.4,3.13-1-2.85-7.69-6.83-6.98-3.99.71-7.55,3.84-7.55,3.84,0,0-4.56,15.81-3.13,16.23"/>
    <path class="st3" d="M62.66,54.39s-2.99-2.42-3.92-2.21c-.92.21-5.84,2.56-9.4,3.35-3.56.78-12.18,3.91-14.53,11.32-2.35,7.4-2.56,15.52-2.56,15.52l.43.93,1.71.14,4.13-2.14,2.56-1.57s4.34-4.77,5.84-5.34c1.49-.57,3.7-.21,4.63-1.07.92-.85,5.69-4.91,5.84-5.84.14-.93.57-2.78,2.28-4.34,1.71-1.57,4.63-4.63,4.84-5.48.21-.85-1.85-3.27-1.85-3.27"/>
    <path class="st10" d="M62.73,56.96s-1.14-2.21,1-3.35c2.14-1.14,3.63,1.07,3.42,2.7-.21,1.64-1.92,2.07-2.92,2.07s-1.5-1.42-1.5-1.42"/>
    <path class="st14" d="M64.37,57.17s-1.5-.57-.85-1.85c.64-1.28,2.14-1.28,2.71-.07.57,1.21-.21,2.13-1.85,1.92"/>
    <path class="st4" d="M64.58,55.96s0-1.28.57-.85c.57.43.29,2.21-.57.85"/>
    <path class="st4" d="M56.04,62.15s-9.68-.78-12.89.07c-3.2.85-6.12.57-10.25,12.89-4.13,12.32-1.21,17.73-.28,17.8.92.07,1.07-1.14,1.92-2.21.85-1.07,1.57-1.85,1.78-2.85.21-1,2.71-6.05,4.42-7.48,1.71-1.42-2.49.71-3.28-.21-.78-.92-2.92-1.57-3.2-.85-.28.71-1.21,3.63-1.21,3.63,0,0,2-13.53,5.41-16.45,3.42-2.92,6.48-3.77,9.9-4.06,3.42-.29,7.97-.14,7.97-.14l-.28-.14Z"/>
    <path class="st1" d="M45.57,60.02s5.98-1,4.91-.57c-1.07.43-5.27,1.07-4.91.57"/>
    <path class="st5" d="M148.59,187.39s-.85,58.81-.57,61.37c.28,2.56,1.71,8.54.71,11.68-1,3.13-5.7,9.4-6.26,8.26-.57-1.14.85-7.55,2.13-11.11,1.28-3.56,2.14-5.55,2.14-12.1s.14-60.94,1.85-58.1"/>
    <path class="st7" d="M172.09,181.98s-.29-3.28,1.99-4.27c2.28-1,2.99-.43,2.99-.43,0,0,48.84,38.16,54.25,40.87,5.41,2.71,12.53,7.26,11.68,13.24s-10.82,31.9-12.1,36.17l-1.28,4.27-6.55-.14s8.26-27.48,8.54-31.9c.29-4.42-.57-7.26-.71-9.54-.14-2.28-3.28-5.55-5.27-7.26-1.99-1.71-53.68-40.16-53.54-41.01"/>
    <path class="st5" d="M177.78,182.97s53.11,40.3,55.53,41.15c2.42.85,5.98,2.13,6.83,5.84.85,3.7-3.56,15.81-4.7,15.09-1.14-.71,1.28-9.54.43-12.96-.85-3.42-1.99-4.56-3.85-6.26-1.85-1.71-59.38-44.43-54.25-42.86"/>
    <path class="st5" d="M235.02,248.19l-7.55,23.49-1.71-.28s9.11-25.2,9.26-23.21"/>
    <path class="st7" d="M220.36,142.39c-.06.51,24.47,14.7,24.21,12.82-.26-1.89-23.78-16.66-24.21-12.82"/>
    <path class="st5" d="M193.65,158.23c-.61-.14,6.75,3.57,9.73,2.78,2.98-.79,3.18-2.18,3.18-2.18,0,0-1.59,1.99-12.91-.6"/>
    <path class="st5" d="M187.3,149.29s10.33,8.14,12.31,7.74c0,0-1.59,4.77-12.31-7.74"/>
  </g>
  <g>
    <path class="st9" d="M76.23,254.8v-18.22h4.39c4.54,0,6.84,2.26,6.84,5.23s-2.28,5.28-6.34,5.28c-.79,0-1.61-.1-2.47-.24-.02,2.38-.05,6.19-.05,7.94h-2.38ZM78.68,245.27c.48.07.96.1,1.42.1,3.34,0,4.73-1.32,4.73-3.36s-1.39-3.43-4.51-3.43h-1.49c-.07,1.39-.1,4.03-.14,6.7Z"/>
    <path class="st9" d="M101.27,252.38l-.34,2.42h-10.78v-18.22h2.66c-.22,2.81-.26,11.64-.29,16.08,3.1-.02,6.55-.1,8.74-.29Z"/>
    <path class="st9" d="M106.98,249.04c-.7,1.9-1.39,3.82-2.04,5.76h-2.69c2.21-5.95,5.11-12.87,7.73-18.55h1.8c1.82,5.3,4.58,12.46,7.25,18.55h-2.95c-.79-1.94-1.49-3.86-2.18-5.76h-6.91ZM113.29,247.38c-1.03-2.83-1.97-5.45-2.66-7.73-.89,2.16-1.94,4.82-3.07,7.73h5.74Z"/>
    <path class="st9" d="M139.74,236.58c0,3.7.31,15.03.58,18.22h-2.52l-.34-14.79c-1.49,3.84-3.67,9.02-5.95,13.71h-1.7c-1.8-4.75-3.79-9.58-5.74-13.71l-.26,14.79h-2.54c.24-3.19.58-14.52.58-18.22h3.17c2.5,5.33,4.51,10.11,5.88,13.95,1.51-3.31,3.6-8.21,5.86-13.95h3Z"/>
    <path class="st9" d="M147.15,244.74c2.95,0,5.3-.05,6.6-.17v1.92c-1.3-.1-3.67-.14-6.62-.14-.02,2.35-.05,4.83-.05,6.38,3.1-.02,6.55-.1,8.59-.29l-.36,2.35h-10.61v-18.22h10.03v2.35c-1.3-.19-4.39-.26-7.44-.29-.07,1.32-.1,3.67-.14,6.1Z"/>
    <path class="st9" d="M160.93,254.8h-2.38v-18.22h2.83c1.9,2.38,3.72,4.8,5.54,7.22,1.58,2.11,3.14,4.22,4.68,6.36v-13.58h2.59c-.24,3.19-.34,14.47-.34,18.36h-1.75c-2.09-3.02-4.15-5.93-6.29-8.76-1.61-2.14-3.24-4.27-4.9-6.36v14.98ZM165.58,235.46l-2.9-4.82,1.22-.1,2.62,3.1,2.62-3.1,1.1.1-2.93,4.82h-1.73Z"/>
    <path class="st9" d="M181.06,249.04c-.7,1.9-1.39,3.82-2.04,5.76h-2.69c2.21-5.95,5.11-12.87,7.73-18.55h1.8c1.82,5.3,4.58,12.46,7.25,18.55h-2.95c-.79-1.94-1.49-3.86-2.18-5.76h-6.91ZM187.38,247.38c-1.03-2.83-1.97-5.45-2.66-7.73-.89,2.16-1.94,4.82-3.07,7.73h5.74ZM184.14,235.48l-1.22-.1,3.02-4.82h2.3l-4.1,4.92Z"/>
    <path class="st9" d="M197.77,254.8h-2.38v-18.22h2.67c-.12,1.56-.24,5.02-.29,8.64.94-.07,4.32-3.74,8.26-8.64h3.05c-4.46,5.14-6.86,7.75-8.16,8.52,1.73,1.25,4.68,4.63,8.83,9.7h-3.43c-3.02-4.06-7.27-9.12-8.5-9.12-.02,3.65-.05,7.3-.05,9.12Z"/>
  </g>
</svg>