<?xml version="1.0" encoding="UTF-8"?>
<svg id="Vrstva_1" xmlns="http://www.w3.org/2000/svg" xmlns:xlink="http://www.w3.org/1999/xlink" version="1.1" viewBox="0 0 283.46 283.46">
  <!-- Generator: Adobe Illustrator 30.1.0, SVG Export Plug-In . SVG Version: 2.1.1 Build 136)  -->
  <defs>
    <style>
      .st0 {
        fill: none;
      }

      .st1 {
        fill: #152037;
      }

      .st2 {
        fill: #263242;
      }

      .st3 {
        fill: #223149;
      }

      .st4 {
        fill: #d34d2d;
      }

      .st5 {
        fill: #8d96c0;
      }

      .st6 {
        fill: #e1d5ce;
      }

      .st7 {
        clip-path: url(#clippath-1);
      }

      .st8 {
        clip-path: url(#clippath-2);
      }

      .st9 {
        fill: #5f5a5e;
      }

      .st10 {
        fill: #57657c;
      }

      .st11 {
        fill: #d7782a;
      }

      .st12 {
        fill: #b27c1b;
      }

      .st13 {
        fill: #fff;
      }

      .st14 {
        fill: #1a283f;
      }

      .st15 {
        fill: #c68e1e;
      }

      .st16 {
        fill: #040608;
      }

      .st17 {
        fill: #45556d;
      }

      .st18 {
        fill: #d29823;
      }

      .st19 {
        fill: #344054;
      }

      .st20 {
        fill: #32425b;
      }

      .st21 {
        clip-path: url(#clippath);
      }

      .st22 {
        fill: #798189;
      }
    </style>
    <clipPath id="clippath">
      <rect class="st0" x="19.84" y="19.84" width="243.78" height="243.78"/>
    </clipPath>
    <clipPath id="clippath-1">
      <rect class="st0" x="194.62" y="76.87" width="3.13" height="2.26"/>
    </clipPath>
    <clipPath id="clippath-2">
      <rect class="st0" x="19.84" y="19.84" width="243.78" height="243.78"/>
    </clipPath>
  </defs>
  <rect class="st22" x="19.84" y="19.84" width="243.78" height="243.78"/>
  <g class="st21">
    <path class="st1" d="M172.56,223.84s.62,2.65.39,3.35c-.23.7-1.79.7-.7,1.33,1.09.62,2.34.47,2.65-.62.31-1.09-.31-4.76-.31-4.76l-1.72.62-.31.08Z"/>
    <path class="st19" d="M172.92,203.15s-5.47.65-7.68,1.3c-2.21.65-49.61,10.42-52.47,10.94-2.87.52-5.08,1.04-8.72,1.95-3.65.91-5.12,1.34-8.33,2.32-3.21.98-15.07,3.21-21.07,4.18-6,.98-29.31,4.05-31.54,4.47-2.23.42-3.77,1.53-5.02,2.51-1.26.98-3.35.56-6.14,1.26-2.79.7-13.54,3.35-13.54,3.35l.28,19.82s87.08-17.02,94.05-18c6.98-.98,17.58-2.09,22.19-3.35,4.61-1.26,12-3.35,18.7-4.47,6.7-1.12,20.37-5.44,22.61-6.14,2.23-.7,45.77-7.26,51.21-8.23,5.44-.98,8.09-3.49,13.54-4.19,5.44-.7,23.86-2.79,23.86-2.79l-.14-18.28s-16.33.7-19.67.42c-3.35-.28-19.12,2.79-22.89,3.35-3.77.56-7.26,1.4-13.12,2.65-5.86,1.25-7.4,2.65-13.68,3.77-6.28,1.12-22.43,3.17-22.43,3.17"/>
    <path class="st1" d="M91.39,184.39s1.72,5.61,2.57,7.09c.86,1.48,5.22,11.31,6.24,15.67,1.01,4.37,1.56,8.42,2.34,8.5,0,0-.55,6.94.78,9.67,1.33,2.73,4.29,6.63,4.68,6.47.39-.16-1.64-4.52-1.56-8.19.08-3.66,1.56-7.02,2.96-7.56,1.4-.55,5.77-.39,4.83-1.48-.94-1.09-3.12-.86-3.59-1.71-.47-.86.16-.94-1.01-1.79-1.17-.86-4.6-4.21-6.08-7.56-1.48-3.35-4.29-9.43-4.68-12.94-.39-3.51-1.56-5.85-1.56-5.85l-5.93-.31Z"/>
    <path class="st1" d="M139.66,182.28s4.21,3.82,5.93,4.76c1.72.94,10.45,8.89,11.85,9.98,1.4,1.09,1.79,3.43,1.17,4.99-.62,1.56.86,11.77,1.32,12.55.47.78,1.33,4.91,3.28,6.63,1.95,1.72,2.81,2.5,2.88,2.03.08-.47-2.18-3.43-2.57-5.3-.39-1.87.08-5.46.23-6.86.16-1.4,2.42-6.94,2.42-6.94,0,0,1.79.39,2.57-.31.78-.7-.08-2.88-1.64-4.44-1.56-1.56-3.35-2.65-4.6-3.82-1.25-1.17-14.97-13.1-15.36-13.41-.39-.31-7.49.16-7.49.16"/>
    <path class="st15" d="M69.33,178.07s3.12,1.48,4.52,1.71l1.4.24s.7,1.09,2.26,1.17c1.56.08,2.5-.08,2.5-.08,0,0,.86,1.79,3.28,2.18l2.42.39s2.26,1.33,3.66,1.4c0,0-.7,1.95,1.09,2.42,1.79.47,3.66-.31,3.66-.31,0,0-.39.47.62.47h1.01s1.4.55,2.81-.23l1.4-.78s9.36,2.18,19.41,1.64c10.06-.55,19.65-3.74,19.65-3.74,0,0,2.26.7,3.12.55.86-.16,1.48-1.48,1.48-1.48,0,0,2.1-.62,2.96-1.09l.86-.47s6.63-.31,15.36-5.22c8.73-4.91,18.17-13.88,20.66-17.15,2.49-3.27,6.55-12.94,6.55-12.94l3.59-12.24-68.46,26.12-37.11,6.86-18.48,3.2-5.38-.39-9.28,1.87-1.01,2.96,2.73,4.6,7.41-.08,5.3-1.56Z"/>
    <path class="st18" d="M136.3,180.64s-8.73,3.28-9.2,2.65c-.47-.62-1.09-.93-1.09-.93,0,0-10.37,1.95-10.84,1.17-.47-.78-.16-1.17-.16-1.17,0,0-11.46.55-11.62-.16-.16-.7,0-1.17,0-1.17,0,0-1.56-.93-.16-2.18,1.4-1.25,8.42-4.44,8.42-4.44,0,0-.16-.86,1.79-1.72,1.95-.86,16.14-6,19.65-6.31,3.51-.31,5.85,0,5.85,0,0,0-1.33-.55-.08-.94,1.25-.39,4.91-.62,4.91-.62,0,0,15.44-3.98,18.24-3.74,2.81.24.31,8.42-6.32,11.54-6.63,3.12-8.5,3.12-8.5,3.12,0,0,.31,2.73-1.09,3.67-1.4.94-1.87.94-1.87.94,0,0-2.11,1.64-3.35,1.79-1.25.15-2.26-1.17-2.26-1.17l-2.34-.31Z"/>
    <path class="st15" d="M120.94,177.14s-.94,1.09.23,1.25c1.17.16,4.05-.78,4.05-.78,0,0-3.2,2.03-4.44,1.56s.16-2.03.16-2.03"/>
    <path class="st15" d="M144.02,169.18s-3.35,1.56-1.25,1.71c2.1.16,10.45-2.88,10.45-2.88,0,0-9.9,2.73-9.75,2.18.16-.55.55-1.01.55-1.01"/>
    <path class="st15" d="M132.95,178.15s-.23,1.17,1.01.78c1.25-.39,5.14-1.95,5.14-1.95,0,0-4.44,2.49-5.46,2.65-1.01.15-.7-1.48-.7-1.48"/>
    <path class="st12" d="M165.85,167.23c-.23-.23-.08.78.47.78s3.51-2.26,3.51-2.26c0,0-3.43,2.03-3.98,1.48"/>
    <path class="st12" d="M80.32,179.24s1.4.94,3.43.31c2.03-.62,4.21-1.25,4.21-1.25,0,0-6.08,3.28-7.64.94"/>
    <path class="st4" d="M185.58,144.7s1.09,2.65.23,6.86c-.86,4.21-6.47,12.71-7.56,13.57l-1.09.86s6-6.47,11.23-12.01c5.22-5.54,9.36-12.63,10.99-15.59,1.64-2.96,3.27-9.12,3.74-10.14.47-1.01,1.32-2.81,1.25-4.99-.08-2.18-.16-12.32-.16-12.32l-10.14-5.22-10.52-5.61.93-16.53s2.5-9.67,5.54-11.38c3.04-1.72,15.05.23,15.05.23,0,0,4.44-8.65,7.56-8.65s7.72,1.4,9.9,2.96c2.18,1.56,3.43,2.5,3.43,2.5,0,0-2.1-3.74-9.28-6.08-7.17-2.34-22.84-4.99-32.75-2.96-9.9,2.03-20.82,5.69-27.29,10.21-6.47,4.52-10.06,6.94-15.44,9.75-5.38,2.81-10.76,6.94-10.21,8.34.54,1.4,47.72,19.26,47.72,19.26l11.23,10.84-4.37,26.12Z"/>
    <path class="st11" d="M175.21,88.02s.31,3.59-1.48,3.59-3.2-2.03-3.9-2.81c-.7-.78-3.51-1.09-3.9-1.17-.39-.08-1.4-1.09-2.73-.86-1.32.23-3.12.86-2.18,1.4.93.55,1.17.62,1.17.62,0,0,.16,1.64,2.26,2.65,2.11,1.01,3.2,1.17,3.2,1.17,0,0,.54,1.17,2.26,1.64,1.71.47,3.66,2.73,4.44,3.43.78.7-.16,2.11,1.95,2.5l2.11.39s-1.72.47-.62.94c1.09.47,1.32.47,1.32.47,0,0-.55,1.17,1.17,1.56l1.71.39s-1.09,2.26.31,1.87c1.4-.39,1.79-.62,1.79-.62,0,0-.31,1.79,1.01,1.64l1.33-.16s-.31,2.26.86,2.03l1.17-.23s-.08,2.88,1.17,2.34c1.25-.55,1.48-2.18,1.48-2.18,0,0,.7,3.28,1.56,2.73.86-.55,1.01-1.01,1.01-1.01,0,0,.08,1.64,1.17,1.48,1.09-.15,1.17-.47,1.17-.47,0,0,.7,1.95,1.56,1.64.86-.31.93-.54.93-.54,0,0,1.25,1.71,2.11,1.79.86.08,1.17-.16,1.17-.16,0,0,.31,1.56.78,2.18.47.62-.23,4.05.31,4.05h.54s.55,5.69.31,6.16l-.24.47s1.64-2.81,1.79-4.99c.16-2.18,0-5.61.7-6.47.7-.86,2.1-3.12,2.34-4.44l.23-1.32s5.46-6.08,6.39-8.34c.94-2.26.94-3.66,1.71-4.52.78-.86,2.89-2.03,3.9-3.66,1.01-1.64,3.12-4.21,3.9-4.83.78-.62,2.57-17.54,2.03-18.79-.54-1.25-7.25-5.77-10.52-6.63-3.27-.86-5.69-1.01-6.94-.39-.49.25-.82.24-1.11.23-.45-.01-.82-.03-1.62.86-1.32,1.48-1.01,4.52-3.2,4.52s-3.74-.39-5.61.62c-1.18.64-1.71.6-2.77.56-.63-.02-1.44-.05-2.69.07-3.35.31-6.78,2.73-8.26,4.83-1.48,2.11-2.57,4.29-3.51,5.46-.94,1.17-3.04.08-3.35,1.72l-.31,1.64s-1.25.23-1.01,1.64l.23,1.4s-3.2.08-.62,1.95"/>
    <path class="st18" d="M225.58,70.17s-2.42,1.71-3.12,2.65c-.7.93-1.72,4.05-3.12,4.13-1.4.08-2.26-.47-3.27-.47s-1.25-.7-2.88-.78c-1.64-.08-1.95-.08-1.95-.08,0,0-1.33,0-2.34-1.56-1.01-1.56-2.34-2.03-2.34-2.03,0,0-3.43-2.89-4.91-2.89s-1.79,1.01-1.79,1.01c0,0-4.13-.31-5.07,0-.93.31-3.74-.16-6,1.4-2.26,1.56-3.04,3.04-3.12,3.59-.08.55-.08.78-.08.78,0,0-1.17,1.01-.94,1.56l.24.55s-.39,1.09.31,1.87c.7.78,1.25.93,1.25.93,0,0,.62,2.73,2.42,3.66,1.79.94,2.26.78,2.26,1.01s.39,1.79,4.13,2.03c3.74.23,5.77-.47,5.77-.47,0,0,1.4-.08,2.81-.7,1.4-.62,1.64-1.4,1.64-1.4l1.64.54s-.55,1.33-.24,1.87c.31.55-2.65,2.73-1.4,3.12,1.25.39,2.89-.86,2.89-.86,0,0,.55-.08,1.79-.55,1.25-.47,2.1-1.17,2.1-1.17,0,0,1.64.23,2.88-.23,1.25-.47,1.72-1.09,1.72-1.09l2.65-.55s-.31.39,1.17.55l1.48.16s1.64,1.87,2.34,1.56c.7-.31,1.56-.86,2.42-1.95.86-1.09,2.89-1.56,3.35-2.81.47-1.25.16-10.92-.7-11.93-.86-1.01-3.04-3.67-3.74-3.12-.7.54-.23,1.64-.23,1.64"/>
    <path class="st11" d="M206.16,78.43s-1.79-2.65-3.12-4.05c-1.33-1.4-7.1-3.35-9.51-3.35s-5.07,1.48-6.86,4.91,1.79,6.78,2.81,7.56c1.01.78,1.71,1.95,4.29,2.81,2.57.86,7.87-1.01,8.73-1.64.86-.62,1.64-1.87,2.57-3.2s1.72-2.49,1.09-3.04"/>
    <path class="st1" d="M195.17,72.5s-3.82-.55-5.77,2.03c-1.95,2.57-1.25,5.69-.55,6.78.7,1.09,3.43,4.21,5.85,4.21s4.68-.55,7.02-2.88c2.34-2.34,2.73-3.51,2.26-4.52-.47-1.01-3.35-4.05-4.6-4.76-1.25-.7-4.21-.86-4.21-.86"/>
    <path class="st6" d="M190.26,80.85s-.62-2.81-.08-4.13c.54-1.33,1.71-2.88,5.22-2.96,3.51-.08,5.07,2.1,5.85,4.29.78,2.18-.23,4.76-2.57,5.54-2.34.78-4.99.55-5.93-.08-.94-.62-2.49-2.65-2.49-2.65"/>
    <path class="st1" d="M197.04,82.95s-3.27.7-4.83-1.17c-1.56-1.87-.94-5.61,2.26-6.39,3.2-.78,5.69,1.64,5.61,3.82-.08,2.18-1.64,3.59-3.04,3.74"/>
    <path class="st16" d="M195.56,82.02s-2.81-.47-2.88-2.18c-.08-1.71.7-3.43,2.65-3.66,1.95-.23,3.59,1.4,3.74,3.04.16,1.64-2.1,3.2-3.51,2.81"/>
  </g>
  <g class="st7">
    <path class="st9" d="M195.75,76.87h-.07c-.56,0-1.04.25-1.06.83v.03s.41-.2.9-.2c.32,0,.67.08.97.36.77.7,1.24,1.24,1.25,1.25,0-.01.15-1.02-.54-1.71-.33-.33-.92-.54-1.45-.55"/>
  </g>
  <g class="st8">
    <path class="st10" d="M212.48,83.58s3.98-2.73,5.69-3.51c1.71-.78,4.29-4.29,6.16-5.46,1.87-1.17,2.18-3.27,3.51-3.35,1.33-.08,6.39,1.01,11.15,2.88,4.76,1.87,8.42,6,7.95,6.78-.47.78-2.5-.16-3.51-.08-1.01.08-6.16,1.01-8.73,1.32-2.57.31-13.25,1.95-14.81,1.64-1.56-.31-1.01-.94-2.03-1.33-1.01-.39-5.85,1.64-5.38,1.09"/>
    <path class="st20" d="M219.03,81.39s4.45.16,7.02-.62c2.57-.78,4.06-1.33,8.65-1.33s9.36.86,9.36,1.33-21.83,3.43-23.39,3.35c-1.56-.08-2.81-1.64-2.81-1.64,0,0-.08-.93,1.17-1.09"/>
    <path class="st17" d="M223.47,79.68s4.6-.39,6.47-1.17c1.87-.78,5.54-1.56,8.34-1.17,2.81.39,5.85,1.95,5.85,1.56s-4.37-2.26-7.41-2.26-6.71,1.09-8.58,1.56c-1.87.47-4.68,1.48-4.68,1.48"/>
    <path class="st20" d="M222.61,77.57s2.57-2.81,4.52-3.27c1.95-.47,1.87,1.17,1.48,1.56-.39.39-6.63,2.34-6,1.72"/>
    <path class="st1" d="M66.76,179.09s-18.95,10.37-19.1,9.28c-.16-1.09,7.33-8.03,7.33-8.03,0,0-10.53,9.98-10.92,8.65s.62-3.59.62-3.59c0,0-.47-.62.16-1.56.62-.94,3.12-6.24,3.12-6.24,0,0-11.93,4.68-13.1,3.59-1.17-1.09,1.4-5.3,5.3-8.42,3.9-3.12,12.32-8.65,12.32-8.65,0,0-.23-6.63,2.03-9.59,2.26-2.96,14.27-20.27,17.23-23.23,2.96-2.96,5.15-4.52,5.15-4.52,0,0,15.67-18.24,20.58-21.91,4.91-3.66,31.81-16.06,33.99-16.76,2.18-.7,6.63,1.17,8.97,1.95,2.34.78,4.44.94,4.44.94,0,0,5.92,3.66,7.1,3.66s1.48-.7,1.48-.7c0,0,.62,1.4,1.64,1.33l1.01-.08s.86,1.33,1.95,1.33h1.09s2.03,1.64,2.96,1.64h.94s.47.7,1.25.86c.78.15,1.48.15,1.48.15,0,0,.93,1.25,2.1,1.25h1.17s.86.94,2.26,1.09c1.4.16,1.64.16,1.64.16,0,0,.47,1.17,2.18,1.56l1.71.39s.23.78,1.64,1.32l1.4.55s-.39,1.4,1.48,1.72c1.87.31,2.73.31,2.73.31,0,0,1.71,2.57,2.34,2.57h.62s2.11,2.49,2.81,2.65l.7.16s.94,2.81,1.87,3.04l.94.23s4.13,6.47,3.9,8.19l-.23,1.72s1.09-.62,1.09-.08-1.48,12.24-7.25,15.83c-5.77,3.59-13.25,5.07-13.25,5.07,0,0-7.17,2.88-9.12,3.82-1.95.93-27.76,9.2-34.93,10.29-7.17,1.09-23.86,6.08-28.85,6.63-4.99.55-27.06,8.34-30.25,8.03-3.2-.31-5.38-3.28-4.76-4.21.62-.94-10.6,1.32-12.55,1.87-1.95.55-.39,2.96.86,3.59,1.25.62,2.42.62,2.42.62l8.58.54-2.26,1.01Z"/>
    <path class="st14" d="M54.13,178.46s-8.42,9.98-8.97,9.75c-.55-.23.08-2.42.08-2.42,0,0,1.17-.31,2.42-1.4,1.25-1.09,6.47-5.93,6.47-5.93"/>
    <path class="st14" d="M54.13,176.9s-8.97,9.36-9.43,8.5c-.47-.86-.23-1.72.7-3.28.94-1.56,3.04-4.83,3.04-4.83,0,0,4.99-1.64,5.15-1.25.16.39.55.86.55.86"/>
    <path class="st14" d="M68.32,162.71c-.31,0-21.83,12.63-23.08,12.55-1.25-.08,0-2.26,0-2.26,0,0-8.34,6.08-8.58,4.76-.23-1.33,1.95-4.21,3.35-5.38,1.4-1.17,15.13-10.06,16.14-10.92,1.01-.86,2.5.16,2.5.16,0,0,7.02-3.27,7.72-2.1.7,1.17.47,1.56.94,2.1.47.55,1.01,1.09,1.01,1.09"/>
    <path class="st14" d="M83.36,155.46s-12.16,14.66-11.07,15.59c1.09.93,18.56-6.86,18.56-6.86,0,0-13.96,4.83-14.5,4.29-.55-.55,8.58-13.25,7.02-13.02"/>
    <path class="st14" d="M84.69,157.41s-2.34,3.74-.7,3.98c1.64.23,7.88-1.64,7.88-1.64,0,0-5.38.39-5.93.08-.54-.31-1.25-2.42-1.25-2.42"/>
    <path class="st15" d="M76.58,159.44c-.23.16-7.95,6-8.03,7.1-.08,1.09-5.15,4.05-4.05,4.44,1.09.39,4.6-2.18,4.6-2.18,0,0,1.17-.55,2.81-1.25,1.64-.7,6.78-6.7,6.24-7.56-.54-.86-1.56-.55-1.56-.55"/>
    <path class="st14" d="M131.16,87.47s-18.01,7.56-24.95,11.15c-6.94,3.59-17.15,12.01-21.36,16.37-4.21,4.37-6.47,10.14-8.26,11.31-1.79,1.17-15.59,16.61-16.84,18.24-1.25,1.64-6.08,10.22-6.78,12.55-.7,2.34-.94,7.02-.47,7.02s3.67-2.65,3.67-2.65c0,0-1.17-1.01-.7-1.95.47-.94,2.18-1.25,3.43-2.65,1.25-1.4.94-5.46.94-5.46,0,0,1.4.16,2.1-.16.7-.31.78-1.48.78-1.48,0,0,1.56-.39,4.44-2.34,2.89-1.95,7.41-13.49,7.41-13.49,0,0,5.85-9.98,6.86-11.07,1.01-1.09,14.74-16.68,17.85-18.48,3.12-1.79,32.59-16.22,33.52-16.45.94-.23-1.4-.62-1.64-.47"/>
    <path class="st14" d="M101.45,114.37s-17.93,9.59-17.23,11.07c.7,1.48,6.24.39,6.24.39,0,0-13.49,12.01-13.41,15.2.08,3.2,1.79,3.12,1.79,3.12,0,0-2.26,4.6.7,6.55,2.96,1.95,4.76,1.48,4.76,1.48,0,0,2.96,2.57,5.85,3.2,2.89.62,3.04.08,3.04.08,0,0,3.28,2.49,7.49,1.71,4.21-.78,26.82-13.64,31.58-15.05,4.76-1.4,15.52-5.93,15.52-5.93,0,0,4.37,2.42,7.25,1.56,2.88-.86,3.27-1.09,3.27-1.09,0,0,.62,1.79,2.88,2.03l2.26.23s.23,1.4,1.56,1.64l1.32.23s.08,1.87,1.48,2.34c1.4.47,2.26.47,2.26.47,0,0-.08,2.1,1.09,2.73,1.17.62,11.15-.55,15.67-2.34,4.52-1.79,8.97-6.94,10.29-10.53,1.33-3.59.08-9.9.08-9.9,0,0-1.72,6.47-2.81,6.55-1.09.08-1.64-.86-1.64-.86,0,0-1.56,1.4-2.57,1.25-1.01-.16-2.03-.94-2.03-.94,0,0-1.33.86-2.73.62-1.4-.23-4.29-5.22-4.29-5.22,0,0-4.21,1.09-5.85.93-1.64-.16-2.57-3.9-2.57-3.9,0,0-2.96,1.17-4.99,0-2.03-1.17-3.82-4.91-3.82-4.91,0,0-4.76,2.42-7.1,2.1-2.34-.31-3.43-3.82-3.43-3.82,0,0-3.2,1.87-6,1.4-2.81-.47-5.54-2.57-5.54-2.57,0,0-2.26,1.79-4.37,1.79s-2.03-.39-2.03-.39c0,0-8.65,1.64-11.07,1.64h-2.81s-10.45,8.03-11.15,6.78c-.7-1.25,1.87-5.22,1.09-5.93-.78-.7-4.21-1.72-4.21-1.72,0,0,2.81-5.07,1.48-5.22-1.33-.15-7.33,3.2-7.33,3.2"/>
    <path class="st3" d="M143.32,113.05s1.01,1.87,4.21,1.95c3.2.08,4.83-2.5,4.44-2.81-.39-.31-2.18.47-4.05.47s-4.91-.39-4.6.39"/>
    <path class="st3" d="M154.94,114.14s1.09,2.81,4.29,2.88c3.2.08,4.29-2.26,3.9-3.2-.39-.94-3.04,0-4.99-.16-1.95-.16-3.2.47-3.2.47"/>
    <path class="st3" d="M166.09,115.15s.55,3.9,3.04,4.91c2.5,1.01,3.04.16,2.89-.47-.15-.62-.7-3.9-.7-4.13s-2.26.7-3.2.08c-.93-.62-2.03-.39-2.03-.39"/>
    <path class="st3" d="M173.81,116.09s2.42,7.17,3.98,7.17-.16-6.55-.62-6.63c-.47-.08-3.27-1.4-3.35-.55"/>
    <path class="st3" d="M180.67,119.05s3.27,7.17,4.13,7.49c.86.31.08-6.32-.16-7.1-.23-.78-4.13-2.26-3.98-.39"/>
    <path class="st3" d="M187.68,121.39s.7,5.85,2.03,6.24c1.33.39,1.79.08,1.33-.47-.47-.55-1.01-3.43-1.09-4.44-.08-1.01-1.48-2.34-2.26-1.33"/>
    <path class="st3" d="M188.15,131.92s-12.87,9.82-15.67,10.29c-2.81.47-3.82.23-3.43-.23s3.35-1.01,8.97-5.61c5.61-4.6,6.24-4.99,6.24-4.99,0,0,2.34,1.09,3.9.55"/>
    <path class="st3" d="M191.12,134.57s-8.03,7.64-12.79,9.12c-4.76,1.48-6.32,1.09-5.46,1.48s6.32,0,11.31-2.11c4.99-2.11,10.06-8.34,10.84-9.75.78-1.4.7-2.03.7-2.03,0,0-1.25.78-1.95.55l-.7-.23-1.95,2.96Z"/>
    <path class="st3" d="M182.62,130.51s-2.34,3.59-8.65,6.32c-6.31,2.73-8.34,2.88-7.95,2.42.39-.47,8.5-3.59,11.62-6.08,3.12-2.49,4.13-4.99,4.13-4.99l.86,2.34Z"/>
    <path class="st3" d="M180.04,127.39s-7.87,7.72-12.01,9.2c-4.13,1.48-4.76,1.09-4.37.94.39-.16,3.2-1.95,7.17-5.07,3.98-3.12,5.38-5.07,5.38-5.07,0,0,2.26.86,3.82,0"/>
    <path class="st3" d="M172.79,126.15s-4.05,5.69-7.8,7.72c-3.74,2.03-5.07,1.87-4.83,1.64.23-.23,7.17-5.93,8.89-8.03,1.72-2.11,2.34-3.35,2.34-3.35,0,0,.7,1.79,1.4,2.03"/>
    <path class="st3" d="M168.5,123.88s-6.16,8.19-10.21,10.06c-4.05,1.87-7.25,2.1-7.49,1.56-.23-.54,3.82-2.5,7.33-6.08,3.51-3.59,6.08-9.12,6.08-9.12,0,0,1.71,3.59,4.29,3.59"/>
    <path class="st3" d="M162.5,120.3s-11.54,13.57-14.97,14.27c-3.43.7-4.99.08-4.99.08,0,0,8.81-7.02,11.23-10.21,2.42-3.2,2.65-3.74,2.65-3.74,0,0,2.88,1.09,6.08-.39"/>
    <path class="st3" d="M152.05,122.25s-8.19,10.45-12.01,11.62c-3.82,1.17-7.1-3.28-7.1-3.28,0,0,7.49-4.36,10.06-7.49,2.57-3.12,3.43-4.6,3.43-4.6,0,0,4.05-.31,5.22-1.01l1.17-.7s-.16.86,1.01,1.95c1.17,1.09-1.79,3.51-1.79,3.51"/>
    <path class="st3" d="M143.17,120.3s-8.34,8.89-13.18,9.67c-4.83.78-6.71-.39-6.16-1.01.55-.62,4.13-3.9,8.26-6.63,4.13-2.73,5.69-5.22,5.69-5.22,0,0,2.5-.47,3.28-1.09.78-.62,1.01-.7,1.01-.7,0,0,1.64,2.11,2.42,2.11s-1.32,2.88-1.32,2.88"/>
    <path class="st3" d="M130.92,119.28s-13.88,8.73-17.15,9.04c-3.27.31-4.05-2.73-4.05-2.73,0,0,1.64.31,6.24-2.26,4.6-2.57,6.55-4.52,6.55-4.52,0,0,5.69.78,8.42.47"/>
    <path class="st5" d="M98.49,116.87s8.58-2.88,9.04-3.82c.47-.94-9.36,2.18-9.04,3.82"/>
    <path class="st5" d="M93.42,124.2c.55-.23,14.5-7.72,15.28-5.46.78,2.26-18.79,13.25-18.79,13.25,0,0,7.25-4.6,7.17-6-.08-1.4-3.67-1.79-3.67-1.79"/>
    <path class="st5" d="M97.94,134.25c.16-.23,10.84-6.71,10.84-5.61s-9.04,6-9.59,6.08c-.55.08-1.25-.47-1.25-.47"/>
    <path class="st5" d="M117.67,142.21c.27.07,15.9-5.61,15.83-7.02-.08-1.4-6.94.31-7.8.94-.86.62-.62,1.09-.78,1.56s-8.97,4.05-7.25,4.52"/>
    <path class="st3" d="M77.75,141.9s3.74.78,6.47-.55c2.73-1.32,14.58-8.97,14.58-8.97,0,0-12.63,9.43-15.44,10.37-2.81.94-5.77-.08-5.61-.86"/>
    <path class="st3" d="M81.65,150.08s7.33-2.81,12.16-5.93c4.83-3.12,19.65-12.16,19.65-12.16,0,0-18.87,13.64-23,15.67-4.13,2.03-8.81,2.96-8.81,2.42"/>
    <path class="st3" d="M92.56,153.28s6.63-1.87,13.1-6c6.47-4.13,12.94-7.56,12.94-7.56,0,0-16.29,11.15-19.33,12.71-3.04,1.56-7.02,1.48-6.71.86"/>
    <path class="st19" d="M64.43,15.47s-8.79,16.95,8.16,38.93c16.95,21.98,35.79,26.37,35.79,26.37,0,0,10.68-23.23,7.54-42.7-3.14-19.46-10.05-25.12-10.05-25.12l-41.44,2.51Z"/>
    <path class="st19" d="M64.43,15.47s8.16,16.33,0,31.4c-8.16,15.07-31.4,37.05-31.4,37.05,0,0-14.44-32.65-16.33-45.21-1.88-12.56,2.08-20.83,2.08-20.83l45.64-2.4Z"/>
    <path class="st2" d="M41.82,14.85s-.63,39.56-3.14,47.72l-2.51,8.16s15.7-21.35,5.65-55.88"/>
    <path class="st2" d="M75.1,14.22s21.84,35.72,24.98,45.77c3.14,10.05,3.9,10.12,3.9,10.12,0,0-11.93-45.21-28.88-55.88"/>
    <polygon class="st2" points="42.13 50.28 32.23 61.37 41.34 47.9 42.13 50.28"/>
    <polygon class="st2" points="42.92 40.38 28.66 50.68 42.92 36.81 42.92 40.38"/>
    <polygon class="st2" points="42.13 30.08 25.89 40.38 42.13 26.91 42.13 30.08"/>
    <polygon class="st2" points="40.94 59.39 44.51 69.29 42.13 55.03 40.94 59.39"/>
    <polygon class="st2" points="43.71 45.53 50.05 57.41 42.92 40.38 43.71 45.53"/>
    <polygon class="st2" points="43.71 33.65 54.41 46.32 42.13 26.91 43.71 33.65"/>
    <polygon class="st2" points="97.97 53.45 95.2 68.1 95.6 48.7 97.97 53.45"/>
    <polygon class="st2" points="91.24 40.38 81.34 55.43 89.66 35.23 91.24 40.38"/>
    <polygon class="st2" points="84.51 27.7 73.02 43.15 83.32 23.74 84.51 27.7"/>
    <polygon class="st2" points="42.92 24.14 57.97 35.62 42.53 20.57 42.92 24.14"/>
    <polygon class="st2" points="42.53 17.8 29.85 27.31 41.82 14.85 42.53 17.8"/>
    <polygon class="st2" points="80.15 19.78 69.06 30.48 78.57 17.8 80.15 19.78"/>
    <path class="st2" d="M100.08,59.99l8.98,6.14s-9.65-8.71-8.98-6.14"/>
    <polygon class="st2" points="95.6 45.92 108.67 57.41 93.22 41.57 95.6 45.92"/>
    <path class="st2" d="M87.28,30.48l23.37,13.86s-24.95-18.22-26.14-18.61c-1.19-.4,2.77,4.75,2.77,4.75"/>
    <path class="st2" d="M80.15,19.78l25.75,8.71s-26.14-13.07-25.75-8.71"/>
    <path class="st19" d="M143.52,15.43s-9.11,6.34-9.11,15.05,1.19,17.82,1.19,17.82c0,0,41.59-5.94,48.72-16.24,7.13-10.3,6.73-15.45,6.73-15.45l-47.53-1.19Z"/>
    <path class="st2" d="M176,15.82s-19.41,16.63-27.33,22.18l-7.92,5.54,10.6-9.54,21.08-18.97,3.57.79Z"/>
    <polygon class="st2" points="150.69 41.04 151.53 35.04 152.79 34.62 150.69 41.04"/>
    <polygon class="st2" points="159.07 29.04 157.39 40.48 161.16 27.36 159.07 29.04"/>
    <polygon class="st2" points="167.44 21.36 168.42 34.76 169.39 19.96 167.44 21.36"/>
    <polygon class="st2" points="148.46 36.85 140.65 38.94 150.55 35.32 148.46 36.85"/>
    <polygon class="st2" points="156.83 30.85 142.32 30.57 158.09 29.32 156.83 30.85"/>
    <polygon class="st2" points="164.65 24.15 146.79 24.15 165.35 22.76 164.65 24.15"/>
  </g>
  <g>
    <path class="st13" d="M93.36,254.8v-18.22h4.39c4.54,0,6.84,2.26,6.84,5.23s-2.28,5.28-6.34,5.28c-.79,0-1.61-.1-2.47-.24-.02,2.38-.05,6.19-.05,7.94h-2.38ZM95.81,245.27c.48.07.96.1,1.42.1,3.34,0,4.73-1.32,4.73-3.36s-1.39-3.43-4.51-3.43h-1.49c-.07,1.39-.1,4.03-.14,6.7Z"/>
    <path class="st13" d="M107.28,236.58h2.66c-.24,3.19-.29,14.52-.29,18.22h-2.38v-18.22Z"/>
    <path class="st13" d="M114.33,254.8v-18.22h4.39c4.54,0,6.84,2.26,6.84,5.23s-2.28,5.28-6.34,5.28c-.79,0-1.61-.1-2.47-.24-.02,2.38-.05,6.19-.05,7.94h-2.38ZM116.78,245.27c.48.07.96.1,1.42.1,3.34,0,4.73-1.32,4.73-3.36s-1.39-3.43-4.51-3.43h-1.49c-.07,1.39-.1,4.03-.14,6.7Z"/>
    <path class="st13" d="M142.56,248.1c0,4.9-3.7,7.03-7.46,7.03s-6.84-2.04-6.84-6.65c0-2.78-.07-10.49-.14-11.91h2.64v11.4c0,3.62,2.14,4.92,4.8,4.92s4.66-1.3,4.66-5.21c0-2.18.05-9.77.07-11.11h2.5c-.1,1.49-.22,9.12-.22,11.52Z"/>
    <path class="st13" d="M158.11,252.38l-.34,2.42h-10.78v-18.22h2.67c-.22,2.81-.26,11.64-.29,16.08,3.1-.02,6.55-.1,8.74-.29Z"/>
    <path class="st13" d="M162.81,254.8h-2.38v-18.22h2.67c-.12,1.56-.24,5.02-.29,8.64.94-.07,4.32-3.74,8.26-8.64h3.05c-4.46,5.14-6.86,7.75-8.16,8.52,1.73,1.25,4.68,4.63,8.83,9.7h-3.43c-3.02-4.06-7.27-9.12-8.5-9.12-.02,3.65-.05,7.3-.05,9.12Z"/>
    <path class="st13" d="M180.57,249.04c-.7,1.9-1.39,3.82-2.04,5.76h-2.69c2.21-5.95,5.11-12.87,7.73-18.55h1.8c1.82,5.3,4.58,12.46,7.25,18.55h-2.95c-.79-1.94-1.49-3.86-2.18-5.76h-6.91ZM186.88,247.38c-1.03-2.83-1.97-5.45-2.66-7.73-.89,2.16-1.94,4.82-3.07,7.73h5.74Z"/>
  </g>
</svg>