<?xml version="1.0" encoding="UTF-8"?>
<svg id="Vrstva_1" xmlns="http://www.w3.org/2000/svg" xmlns:xlink="http://www.w3.org/1999/xlink" version="1.1" viewBox="0 0 283.46 283.46">
  <!-- Generator: Adobe Illustrator 30.1.0, SVG Export Plug-In . SVG Version: 2.1.1 Build 136)  -->
  <defs>
    <style>
      .st0 {
        fill: none;
      }

      .st1 {
        fill: #d6a29e;
      }

      .st2 {
        fill: #3f3630;
      }

      .st3 {
        fill: #28211c;
      }

      .st4 {
        fill: #a95f14;
      }

      .st5 {
        fill: #a35c13;
      }

      .st6 {
        fill: #605a55;
      }

      .st7 {
        fill: #bd6f22;
      }

      .st8 {
        fill: #a37d7a;
      }

      .st9 {
        fill: #3e3531;
      }

      .st10 {
        fill: #fff;
      }

      .st11 {
        fill: #cf9458;
      }

      .st12 {
        fill: #b26416;
      }

      .st13 {
        fill: #8b500e;
      }

      .st14 {
        fill: #c47d35;
      }

      .st15 {
        fill: #7a736c;
      }

      .st16 {
        clip-path: url(#clippath);
      }

      .st17 {
        fill: #84759f;
      }
    </style>
    <clipPath id="clippath">
      <rect class="st0" x="19.84" y="19.84" width="243.78" height="243.78"/>
    </clipPath>
  </defs>
  <rect class="st17" x="19.84" y="19.84" width="243.78" height="243.78"/>
  <g class="st16">
    <path class="st14" d="M100.34,112.21s-12.06,8.56-17.51,16.73c-5.45,8.17-5.45,11.28-5.45,11.28l1.75-2.53s-3.31,9.34-4.09,14.59c-.78,5.25-.78,7.59-.78,7.59l1.36-1.17s-.19,4.09-5.25,7.59c-5.06,3.5-11.09,12.26-11.09,12.26,0,0,2.92-1.56,2.33-.58-.58.97-11.87,5.45-20.62,13.03-8.76,7.59-8.37,11.48-13.81,15.18-5.45,3.7-8.56,7.2-8.56,7.2v57.4l190.28.39s1.36-5.84.97-9.34l-.39-3.5,1.75,3.89s6.62-17.71,7.59-34.24c.97-16.54-3.7-31.91-3.7-31.91l2.53,6.03s6.42-15.95,4.48-34.44c-1.95-18.49-10.9-27.24-10.9-27.24l-5.25-19.07-105.65-9.14Z"/>
    <path class="st7" d="M100.54,114.16s5.64,5.45,1.17,13.62c-4.47,8.17-3.31,16.54-3.31,16.54,0,0,.19-4.28,1.17-3.11.97,1.17,3.31,9.34-.39,9.92-3.7.58-4.67-1.17-4.67-1.17,0,0-.39,3.89,3.5,5.64l3.89,1.75s2.53,9.14-2.92,11.28c-5.45,2.14-7.78,1.75-7.78,1.75,0,0-1.56,2.53,1.75,4.47l3.31,1.95-5.06.58s-4.67,5.45,5.45,9.53c10.12,4.09,17.51,2.14,17.51,2.14l-4.09,2.53s2.33,2.72,8.17,1.75c5.84-.97,7.59-2.72,7.59-2.72,0,0-1.36,9.34,3.31,20.82,4.67,11.48,11.28,14.4,11.28,14.4l-.39-2.92s5.64.58,7.59,7c1.95,6.42,10.51,11.48,20.82,12.65,10.31,1.17,15.57-3.11,15.57-3.11,0,0-3.89.58-6.42-3.89-2.53-4.47-2.53-6.81-2.53-6.81,0,0,.97,3.31,3.7,5.25,2.72,1.95,5.25,2.14,5.25,2.14,0,0-2.53-2.53-.19-5.06l2.34-2.53s2.72,4.86,1.75,7.59l-.97,2.72s10.12-2.33,14.98-12.84c4.86-10.51,2.53-23.15,2.53-23.15l2.33,8.37s4.48-9.92,5.84-23.15c1.36-13.23-6.61-20.62-7.2-26.07-.58-5.45.97-7.59.97-7.59,0,0-.58,5.84,1.95,9.73,2.53,3.89,3.89,6.81,3.89,6.81,0,0-3.7-7.78-1.56-14.59,2.14-6.81,1.56-14.98.58-24.51-.97-9.53-1.56-18.68-1.56-18.68l-6.81-41.05h-85.61s-17.32,32.3-16.73,42.03"/>
    <path class="st7" d="M74.08,180.89s-1.56,16.15.39,24.12c1.95,7.98,2.92,22.57.39,27.04-2.53,4.48-7.78,6.23-7.78,6.23,0,0,8.17-2.92,6.61-17.12-1.56-14.2-4.67-37.36.39-40.28"/>
    <path class="st7" d="M60.85,232.06s-6.81,6.03-8.76,16.34c-1.94,10.31,2.14,12.45,2.14,12.45,0,0,0-8.17,3.11-10.51l3.11-2.33s-2.53,9.53-.58,14.79c1.95,5.25,6.42,8.76,6.42,8.76,0,0-8.17-11.48-3.5-26.85,0,0-8.56,2.92-9.34,7.59,0,0-1.17-5.84,7.39-20.23"/>
    <path class="st7" d="M109.49,249.18s4.28,7.2,10.12,11.87c5.84,4.67,8.37,5.25,8.37,5.25,0,0-7.59-11.28-7.78-14.59l-.19-3.31s5.45,8.17,13.81,9.53l8.37,1.36s-5.84-4.86-6.62-7.98l-.78-3.11s1.36,1.36,7.78,1.56c6.42.19,8.56-.19,8.56-.19,0,0-15.37-1.95-18.68-4.28,0,0,1.17,8.37,5.25,12.06,0,0-12.65-2.53-18.68-12.26,0,0-3.11,1.17,1.56,14.2,0,0-4.47-2.53-11.09-10.12"/>
    <path class="st12" d="M193.93,168.25s-2.92,4.67-1.17,11.29l1.75,6.61-3.7-2.33s-6.42,8.37-6.23,17.71c.2,9.34,1.17,13.81,1.17,13.81,0,0-7.59-19.26,4.09-33.46l1.95.97s-1.75-10.12,2.14-14.59"/>
    <path class="st4" d="M146.26,158.32s.58,10.12,9.14,14.59c8.56,4.47,11.48,5.25,11.48,5.25l-3.31-6.23s6.23,2.33,7.59,5.64l1.36,3.31s4.47-5.45,5.06-9.53l.58-4.09s2.14,2.92,1.95,5.25l-.2,2.33s9.92-8.17,13.04-16.54l3.11-8.37s-8.76,18.68-14.2,21.21c0,0-2.53-6.03-4.86-6.62,0,0-.97,10.31-3.89,13.23,0,0-4.09-7.2-10.9-7.2l.58,3.89s-11.48-2.53-16.54-16.15"/>
    <path class="st12" d="M112.6,145.68s-1.17,8.37,3.5,14.4c4.67,6.03,5.45,6.42,5.45,6.42l-.58-4.09s4.86.78,5.84,5.84c.97,5.06,7.78,8.75,7.78,8.75,0,0-6.62-5.25-6.62-10.12s-8.95-6.61-8.95-6.61l.78,2.72s-5.84-3.7-7.2-17.32"/>
    <path class="st7" d="M91.98,98.79s2.72,9.92,4.86,12.06c2.14,2.14,1.75.39,1.75.39,0,0,4.67,4.86,5.25,8.76.58,3.89,1.75,6.42,5.84,7.2s6.81-.39,6.81-.39l-2.72,1.17s8.37-2.53,9.53-5.06c1.17-2.53.78-3.31.78-3.31,0,0,10.31,16.73,13.04,20.62,2.72,3.89,18.48,21.79,24.52,24.12,6.03,2.33,27.43-5.25,29.96-13.23,2.53-7.98,11.67-45.33,11.67-45.33,0,0,.78,7.59,6.23,10.51,5.45,2.92,6.42,3.11,6.42,3.11l-.39-2.53s-.78,4.28,3.11,1.75c3.89-2.53,7.2-11.09,8.17-16.34.97-5.25-.78-15.18-.78-15.18l-13.62-20.62s-7.2-13.62-14.59-16.34c-7.39-2.72-25.49-4.09-25.49-4.09,0,0-34.83,1.95-41.05,4.48-6.22,2.53-21.6,8.37-27.04,13.42-5.45,5.06-12.26,34.83-12.26,34.83"/>
    <path class="st14" d="M156.38,42.95s-5.25-1.17-12.65.39c-7.39,1.56-16.54,8.56-21.4,8.75-4.86.2-12.65-.58-17.51,2.14-4.86,2.72-7,7-7,7l1.75-.39s-2.34,2.92-3.7,7.59c-1.36,4.67-2.72,11.48-7.2,16.15-4.47,4.67-1.56,12.65-1.56,12.65l.97-2.72s.97,3.11,3.31,6.23l2.33,3.11s-.97-10.31,1.56-13.62l2.53-3.31.39,1.75s4.67-8.76,6.81-16.54c2.14-7.78,3.7-10.31,9.53-11.09s11.29-2.72,15.56-5.64l4.28-2.92s.97,3.11,3.5,6.42l2.53,3.31-3.5-2.53s1.56,3.31,2.72,4.08c1.17.78,2.14,1.17,1.17,2.34-.97,1.17-7.2,2.53-9.34,6.23-2.14,3.7-.97,6.42-.97,6.42l1.17-1.56s-1.17,3.11-.39,4.86c.78,1.75,1.36,1.95,1.36,1.95,0,0-.39-6.03,3.89-9.15,4.28-3.11,8.56-3.89,10.31-1.17,1.75,2.72,4.09,5.64,4.09,5.64,0,0-5.64,9.53-6.81,14.01-1.17,4.48-1.17,4.86-1.17,4.86,0,0,2.92-8.76,6.03-11.67,3.11-2.92,5.45-3.11,5.25-2.14-.19.97-3.11,7.2-5.25,13.81-2.14,6.62-.58,8.76-1.56,11.29-.97,2.53-3.31,5.64-3.5,9.73-.19,4.09,4.67,11.09,10.12,11.67,5.45.58,8.17-7.78,12.84-9.15,4.67-1.36,7.39,4.28,10.9,6.03,3.5,1.75,9.34-3.11,10.31-7.78.97-4.67-4.67-13.23-4.67-13.23,0,0-3.7-10.31-6.23-15.76-2.53-5.45-5.25-8.76-5.25-8.76,0,0,3.31,1.17,6.23,3.89,2.92,2.72,5.45,7.39,5.45,7.39,0,0-.58-5.84-7.39-12.65,0,0-2.92-2.14-3.7-3.7,0,0,.78-7.59,5.84-9.92,5.06-2.34,10.9,4.09,11.67,6.61l.78,2.53s1.17-2.14.58-4.28l-.58-2.14,2.14,1.56s-2.33-6.23-5.84-8.56c-3.5-2.34-8.76-.39-10.12-1.95-1.36-1.56,0-.97.97-3.5.97-2.53.97-3.89.97-3.89l-2.34,2.72s1.56-2.72,1.75-5.45l.19-2.72s4.67,4.47,11.87,6.03c7.2,1.56,7.59-1.36,11.67,2.33,4.09,3.7,4.47,11.09,9.34,17.12s5.06,9.53,5.06,9.53l.58-2.72s4.09,3.11,5.25,9.15c1.17,6.03.39,9.92.39,9.92,0,0,5.64-3.5,5.25-11.48-.39-7.98-2.53-11.48-2.53-11.48l2.53,1.36s.78-4.67-2.53-8.17c-3.31-3.5-8.76-7.2-12.06-12.65-3.31-5.45-.2-2.34-.2-2.34,0,0-2.33-6.81-10.51-9.14-8.17-2.33-13.81-.19-16.34-.58-2.53-.39-15.37-5.45-29.96-2.14"/>
    <path class="st5" d="M122.72,67.07s-2.14,5.06-2.14,7.78.39,3.31.39,3.31l1.17-2.72s.97,5.84.19,11.28c-.78,5.45-.78,10.7.78,14.2,1.56,3.5,3.7,19.65-4.86,25.88l1.36.58s-1.17,1.56,5.84,12.26c7,10.7,11.28,13.82,12.06,18.68l.78,4.86s3.31-4.28,2.92-8.56l-.39-4.28,2.34,7.98s.97-3.5.97-4.86v-1.36s4.09,2.33,5.64,7.39c1.56,5.06,9.92,10.31,9.92,10.31l-.58-3.31s4.67-.19,9.14,2.72c4.48,2.92,4.67,4.67,4.67,4.67,0,0,4.48-7.78,4.67-11.09,0,0,3.11,3.31,3.7,4.67l.58,1.36s11.29-14.2,12.06-18.09l.78-3.89,1.36,3.11s7.39-9.73,10.12-17.32c2.72-7.59,3.31-16.34,3.31-16.34,0,0-6.03-3.89-6.03-15.37s.78-18.48,0-23.35c-.78-4.87-.59-5.45-.59-5.45l1.95,4.08s.58-2.72-2.72-8.75c-3.31-6.03-5.64-6.62-5.64-6.62l2.14,3.31-5.25-3.5s3.89,9.73,4.86,15.57c.97,5.84,2.14,14.59,1.17,23.15-.97,8.56-5.84,10.7-6.03,15.57s-5.64,15.37-5.64,21.79,1.56,10.9-8.37,14.4c-9.92,3.5-21.37,1.23-26.82-1.5-5.45-2.72-6.4-8.62-7.96-11.15-1.56-2.53-8.03-13.42-9.97-19.46s-7.39-11.67-8.56-18.68c-1.17-7-.39-13.62-.39-13.62,0,0,.97-8.56-.39-11.67-1.36-3.11,1.17-10.7,1.17-10.7,0,0-3.11,1.36-3.7,2.72"/>
    <path class="st13" d="M133.71,116.82s.23,7.76,3.42,15.06l3.19,7.3.68-1.37s2.97,6.16,7.3,12.09c4.34,5.93,10.72,6.16,10.72,6.16l-3.65-6.39s-5.25-.91-7.3-4.11c-2.05-3.19-.91-3.42-5.25-10.95-4.34-7.53-9.13-17.8-9.13-17.8"/>
    <path class="st13" d="M188.02,133.03s-.68,5.93-.23,7.76c.46,1.82-2.05,8.44-5.71,9.13l.46,2.28s8.9-5.7,5.48-19.17"/>
    <path class="st2" d="M141.2,120.19s0,6.03,1.95,9.34c1.95,3.31,4.48,5.06,5.06,7.59.58,2.53.97,7.98,7,8.95,6.03.97,25.29-2.34,27.82-4.47,2.53-2.14-.19-7.78.58-10.31.78-2.53,2.72-7.39,2.72-7.39,0,0-3.89,5.45-9.53,1.95-5.64-3.5-4.09-5.06-9.53-5.06,0,0-3.89,1.36-7.2,6.03-3.31,4.67-9.73,6.42-16.15-6.23,0,0-.19-1.56,0-3.5,0,0-1.17-.58-2.72,3.11"/>
    <path class="st1" d="M155.2,131.94s-2.03,16.23.68,21.64c2.7,5.41,5.81,7.03,9.74,7.03s4.06-1.76,6.76-1.08c2.7.68,7.44,1.49,9.87-4.33,2.43-5.82,1.49-13.39-.27-19.2-1.76-5.82-2.57-6.9-3.92-7.03-1.35-.13-5.14-.27-6.63,2.03-1.49,2.3-2.43,4.33-2.43,4.33,0,0,0-2.97-3.92-4.19-3.92-1.22-9.87.81-9.87.81"/>
    <path class="st8" d="M168.32,137.62s.27-3.65-2.84-5c-3.11-1.35-10.28-.68-10.28-.68v-1.08s3.52-1.35,5.82-4.06c2.3-2.71,2.84-5.27,7.17-5.95,4.33-.67,7.03,5.68,10.41,6.76,3.38,1.08,1.76.41,1.76.41l.54,4.6s-7.03-9.74-12.57,5"/>
    <path class="st6" d="M152.09,129.64s4.46-.81,5.68-4.06c1.22-3.24.27-6.9-.95-10.01-1.22-3.11-3.78-7.71-2.03-12.44,1.76-4.73,6.22-7.17,10.68-7.57,4.46-.4,9.87.54,12.17,5.95,2.3,5.41-.54,10.28-1.35,13.93-.81,3.65.54,12.57,6.22,11.36,0,0-2.57,2.97-6.09.95-3.52-2.03-4.33-4.46-7.98-5s-4.06,5.95-10.14,7.3c-6.09,1.35-6.22-.41-6.22-.41"/>
    <path class="st2" d="M167.78,116.26s-9.33-2.98-11.49-7.44c-2.16-4.46,3.11-8.93,8.11-10.14,5-1.22,11.76,1.76,12.98,5.27,1.22,3.52-2.71,10.14-9.6,12.3"/>
    <path class="st3" d="M157.63,108.41s3.52,1.35,5.82.13c2.3-1.22,1.49-4.6-.41-5.27-1.89-.68-2.03,2.97-2.43,3.79-.41.81-2.98,1.35-2.98,1.35"/>
    <path class="st3" d="M176.43,107.47s-3.51,1.22-5.95.41c-2.43-.81-.68-5.27,1.08-5.27s1.62,2.43,1.49,3.65c-.13,1.22,3.38,1.22,3.38,1.22"/>
    <path class="st4" d="M134.24,82.05s.54-4.73,5.14-7.3c4.6-2.57,6.22-.41,7.84,1.49,1.62,1.89,2.3,5,.81,5.95-1.49.95-2.97.81-4.19,1.49-1.22.68-9.19,1.08-9.6-1.62"/>
    <path class="st4" d="M174.4,74.61s1.08-4.73,5-5.68c3.92-.95,7.84,4.06,8.92,5.95,1.08,1.89,1.49,2.71-.41,3.65-1.89.95-5.68,1.62-8.25,1.49-2.57-.13-3.79-1.62-4.46-2.16-.68-.54-.95-1.08-.81-3.24"/>
    <path class="st3" d="M135.73,81.24s3.24-6.09,6.09-6.09,5.14,5.41,4.6,5.95c-.54.54-3.92,3.52-10.68.13"/>
    <path class="st3" d="M176.3,76.37s.27-4.87,3.92-5.41c3.65-.54,6.62,5.68,6.62,5.68,0,0-5.81,4.19-10.55-.27"/>
    <path class="st9" d="M138.57,79.48s0,1.89,2.3,1.89,3.79-1.22,3.65-2.84c-.13-1.62-2.7-2.57-2.7-2.57,0,0,2.16,2.7.68,3.51-1.49.81-2.7-.95-2.7-.95,0,0-.81,0-1.22.95"/>
    <path class="st9" d="M179.81,72.18s-2.43,1.22-1.89,3.65c.54,2.43,5.14,1.49,5.82.54l.68-.95-2.16-1.35s-.54,1.76-1.76,1.49c-1.22-.27-.68-3.38-.68-3.38"/>
    <path class="st15" d="M140.76,77.56s.57,1.15,1.72.38c1.15-.76-.38-2.29-1.72-.38"/>
    <path class="st15" d="M179,74.15s1.73-1.36,1.88-.34c.16,1.02-1.88,1.36-1.88.34"/>
    <path class="st4" d="M141,113.42s-2.98,1.62-2.98,4.6.54,4.46.54,4.46c0,0-3.24-5-1.49-7.57,1.76-2.57,3.92-1.49,3.92-1.49"/>
    <path class="st4" d="M187.25,110.71s2.43.27,3.11,3.24c.68,2.98-.41,4.19-.41,4.19,0,0,1.89-1.76,1.22-5.68-.68-3.92-3.92-1.76-3.92-1.76"/>
    <path class="st13" d="M115.15,126.9s4.53-1.61,6.93-5.06c2.4-3.45,1.21-9.95,1.81-13.1.6-3.15-.34-7.2-1.24-9.6s-1.8-10.2-.9-13.95c.9-3.75,1.65-9.75,1.65-9.75,0,0-1.35,13.5-.3,17.56,1.05,4.05,3.45,12.3,3.75,16.2.3,3.9-.75,9.15,0,15.3.75,6.15,4.2,15.45,4.2,15.45,0,0-6-7.35-6.9-9.6l-.9-2.25s-.3,2.85.6,4.95c.9,2.1,1.05,2.7,1.05,2.7,0,0-4.5-3.75-6-5.1-1.5-1.35-.15,1.35-.15,1.35,0,0-2.55-2.1-3.6-5.1"/>
    <path class="st13" d="M195.72,66.59s.14,8.6,2.39,13.71c2.25,5.1,2.25,16.57.3,20.17-1.95,3.6.76,12.93.76,12.93,0,0,.15-2.4.75-3.9.6-1.5,1.35-2.1,1.35-2.1,0,0,0,3,1.65,3.9l1.65.9-.9-2.55s.45,2.4,3.45,4.65l3,2.25s-6-9-6.3-14.4c-.3-5.4.45-13.2-1.8-19.35-2.25-6.15-6.3-16.21-6.3-16.21"/>
    <path class="st4" d="M150.71,75.59s1.8,3,.9,5.55c-.9,2.55-5.55,8.55-7.65,14.55-2.1,6-2.55,9.3-2.55,9.3,0,0-1.5-5.1,3.15-13.65,4.65-8.55,6.45-9.9,6.15-15.75"/>
    <path class="st4" d="M172.32,74.39s-.15,2.7,1.5,6c1.65,3.3,8.25,8.7,10.35,13.95,2.1,5.25,2.55,7.35,2.55,7.35,0,0,.3-5.25-3.3-10.95-3.6-5.7-8.25-9.9-9.3-11.7-1.05-1.8-1.8-4.65-1.8-4.65"/>
    <path class="st5" d="M131.51,79.79l-1.05,2.25-.3-4.35-1.2,1.8s.15-4.2,3.15-7.5c3-3.3,7.2-3.45,7.2-3.45,0,0-7.2,2.7-8.1,7.35l.75-.15-.75,2.1,1.2-.3-.9,2.25Z"/>
    <path class="st5" d="M176.67,64.48s10.35-1.2,13.5,5.4l-2.1-.6s1.53,1.4,1.96,4.6c0,0-2.57-3.55-4.37-5.05s-1.35-1.05-1.35-1.05l3,.3s-2.1-2.7-10.65-3.6"/>
    <path class="st5" d="M119.2,68.54l-4.2,4.65,1.8-.75v2.7l1.65-.45s1.2.15.3,2.7c-.9,2.55-1.35,2.85-1.35,2.85,0,0,2.4-2.55,2.85-4.8.45-2.25-.9-3-.9-3l-1.8.75,1.65-4.65Z"/>
    <path class="st13" d="M196.46,60.85s4.52,1.68,4.97,5.44c.45,3.75,2.55,6.3,3,6.3s-1.2-2.4-1.05-4.05.6-1.95.6-1.95l1.5,1.65s-.6-2.25-1.65-4.2c-1.05-1.95-7.37-3.19-7.37-3.19"/>
    <path class="st5" d="M98.8,111.9s4.35,2.85,4.35,7.2,4.51,7.79,6.53,8.1l2.02.31s-3.9.45-5.85-.6c-1.95-1.05-4.2-4.2-4.2-6.45s-.3-7.65-2.85-8.55"/>
    <path class="st6" d="M143.92,117.08s-1.5,3.74,2.26,8.37c3.76,4.63,6.7,5.64,9.96,5.07,3.26-.56,3.89-1.25,3.89-1.25l-4.07-1.25s-3.26,1.13-5.76-.25c-2.51-1.38-5.96-6.85-6.27-10.69"/>
    <path class="st6" d="M177.38,123.95s3.57,1.63,6.08,1.07c2.51-.56,4.76-6.01,4.76-6.01,0,0-2.07,9.46-9.52,9.46,0,0-2.76-1.44-3.76-3.01-1-1.57,2.44-1.5,2.44-1.5"/>
    <path class="st11" d="M97.81,61.24s3.92-8.53,12.43-9.13c8.51-.59,11.09.99,19-2.77,7.92-3.76,18.03-10.41,27.13-6.39,0,0,12.62-4.29,29.96,2.14,0,0,21.9-4.99,26.85,9.73,0,0-4.95-6.66-12.28-8.25-7.32-1.58-14.65.59-14.65.59,0,0-13.26-4.55-20.79-4.16-7.52.4-9.11,1.58-9.11,1.58,0,0-10.1-1.78-14.85.2-4.75,1.98-9.5,7.32-15.64,8.91-6.14,1.58-8.32,1.58-8.32,1.58l2.38-.99s-8.62-5.7-22.13,6.95"/>
    <path class="st11" d="M144.38,66.9s4.06.81,6.09,3.65l2.03,2.84s.81-7.3-8.11-6.49"/>
    <path class="st11" d="M169.53,70.55s2.68-4.69,5.68-6.09c0,0-6.49-.81-5.68,6.09"/>
    <path class="st11" d="M155.47,70.55s.27-4.06-4.33-8.38c-4.6-4.33-8.92-3.25-8.92-3.25,0,0,1.62,0,4.33,2.16,2.71,2.16,2.27,1.41,2.27,1.41-.17-.14-4.1-.71-5.07-.4-1.29.42-1.26.61-1.26.61,0,0,7.3-1.89,12.98,7.84"/>
    <path class="st11" d="M166.83,67.85s.27-5.95,3.51-7.03l3.25-1.08-3.25-.54,4.33-.81s-8.11-3.79-7.84,9.47"/>
    <path class="st11" d="M118.42,55.14s11.63-1.62,16.77-4.87c5.14-3.25,9.19-4.6,15.42-4.06,6.22.54,7.57,1.89,7.57,1.89,0,0,11.01-7.84,28.08-.94,0,0-19.8-8.8-29.89-2.57,0,0-9.01-6.49-24.15,4.6l-13.79,5.95Z"/>
  </g>
  <g>
    <path class="st10" d="M105.31,249.6l-.3,2.06h-12.7l-.04-.64c1.06-1.12,9.02-11.76,9.94-12.86-2.54.02-7.84.1-8.98.3v-1.98h12.16l.04.62c-.94,1.02-8.8,11.38-10.02,12.84,2.56-.02,6.86-.08,9.9-.34Z"/>
    <path class="st10" d="M107.29,236.16l1.96-.18c-.2,2.88-.26,12.6-.26,15.68h-1.7v-15.5Z"/>
    <path class="st10" d="M113.19,252c-1.4,0-2.22-.76-2.22-2.14,0-1.86,1.84-3.5,5.06-3.88v-.52c0-.94-.56-1.38-1.62-1.38-.92,0-1.74.22-2.64.66v-1.8c.98-.3,1.88-.44,2.72-.44,2,0,3.22.86,3.22,2.76,0,1.66-.08,2.96-.08,3.98s.18,1.84.38,2.42h-1.56c-.12-.56-.18-1.18-.18-1.86-.64,1.56-1.84,2.2-3.08,2.2ZM112.77,249.46c0,.62.34.98,1.02.98s2.18-.62,2.24-3.3c-2.24.4-3.26,1.34-3.26,2.32Z"/>
    <path class="st10" d="M122.77,239.92c-.08,1.24-.08,2.24-.1,2.94h3.04v1.44l-3.06-.06c-.08,1.32-.08,3.14-.08,4.48,0,1.18.52,1.68,1.38,1.68.64,0,1.34-.2,1.76-.54v1.14c-.68.66-1.5,1-2.52,1-1.42,0-2.32-.76-2.32-2.82v-4.98h-1.78v-.72c.52-.12,1.3-.36,1.78-.62v-2.58l1.9-.36Z"/>
    <path class="st10" d="M130.29,251.36c-.74-2.28-2.42-6.22-3.64-8.5h2.08c.72,1.64,2.04,4.92,2.52,6.58.76-1.78,1.92-4.68,2.46-6.58h1.82c-.78,2.12-2.4,5.8-3.44,8.14-.8,1.86-2.14,4.72-2.86,6.66h-1.84c.82-2.08,1.88-4.32,2.9-6.3ZM131.23,241.38l-1.02-.08,2.52-4.22h1.92l-3.42,4.3Z"/>
    <path class="st10" d="M143.91,245.06v6.6h-1.74v-5.5c0-1.6-.24-2.64-.52-3.3h1.28c.18.34.32.86.36,1.28.66-.92,1.7-1.62,2.76-1.62.56,0,.96.14,1.3.4v1.96c-.56-.4-1-.56-1.62-.56-.7,0-1.36.28-1.82.74Z"/>
    <path class="st10" d="M149.89,247.44c0,1.92,1.28,2.92,3.22,2.92.9,0,1.68-.22,2.4-.66v1.1c-.74.72-1.84,1.2-2.98,1.2-2.5,0-4.26-1.56-4.26-4.24,0-3.16,2.16-5.26,4.86-5.26,1.92,0,2.92,1.24,2.92,2.68,0,.6-.18,1.2-.54,1.68l-5.54-.18c-.06.28-.08.52-.08.76ZM152.83,243.98c-1.02,0-2.06.52-2.58,1.66l4.26-.06c0-1.02-.56-1.6-1.68-1.6Z"/>
    <path class="st10" d="M160.77,239.92c-.08,1.24-.08,2.24-.1,2.94h3.04v1.44l-3.06-.06c-.08,1.32-.08,3.14-.08,4.48,0,1.18.52,1.68,1.38,1.68.64,0,1.34-.2,1.76-.54v1.14c-.68.66-1.5,1-2.52,1-1.42,0-2.32-.76-2.32-2.82v-4.98h-1.78v-.72c.52-.12,1.3-.36,1.78-.62v-2.58l1.9-.36Z"/>
    <path class="st10" d="M167.39,245.06v6.6h-1.74v-5.5c0-1.6-.24-2.64-.52-3.3h1.28c.18.34.32.86.36,1.28.66-.92,1.7-1.62,2.76-1.62.56,0,.96.14,1.3.4v1.96c-.56-.4-1-.56-1.62-.56-.7,0-1.36.28-1.82.74Z"/>
    <path class="st10" d="M173.15,241.38l-1.02-.08,2.52-4.22h1.92l-3.42,4.3ZM172.41,242.86l1.92-.28c-.18,1.62-.22,6-.22,9.08h-1.7v-8.8Z"/>
    <path class="st10" d="M180.81,251.8h-1.38c-.86-2.82-2.54-6.66-3.76-8.94h2.08c.8,1.76,2.04,4.96,2.52,6.6.78-1.82,1.94-4.72,2.44-6.6h1.84c-.76,2.1-2.66,6.22-3.74,8.94Z"/>
    <path class="st10" d="M188.07,245.06v6.6h-1.74v-5.5c0-1.6-.24-2.64-.52-3.3h1.28c.18.34.32.86.36,1.28.66-.92,1.7-1.62,2.76-1.62.56,0,.96.14,1.3.4v1.96c-.56-.4-1-.56-1.62-.56-.7,0-1.36.28-1.82.74Z"/>
  </g>
</svg>