<?xml version="1.0" encoding="UTF-8"?>
<svg id="Vrstva_1" xmlns="http://www.w3.org/2000/svg" xmlns:xlink="http://www.w3.org/1999/xlink" version="1.1" viewBox="0 0 283.46 283.46">
  <!-- Generator: Adobe Illustrator 30.1.0, SVG Export Plug-In . SVG Version: 2.1.1 Build 136)  -->
  <defs>
    <style>
      .st0 {
        fill: none;
      }

      .st1 {
        fill: #b0828e;
      }

      .st2 {
        fill: #b89d69;
      }

      .st3 {
        fill: #7b5432;
      }

      .st4 {
        fill: #3b302b;
      }

      .st5 {
        fill: #6f5359;
      }

      .st6 {
        fill: #8b6646;
      }

      .st7 {
        fill: #cdba96;
      }

      .st8 {
        fill: #fff;
      }

      .st9 {
        fill: #302621;
      }

      .st10 {
        fill: #69482a;
      }

      .st11 {
        fill: #a47854;
      }

      .st12 {
        fill: #3e3530;
      }

      .st13 {
        clip-path: url(#clippath);
      }
    </style>
    <clipPath id="clippath">
      <rect class="st0" x="19.84" y="19.84" width="243.78" height="243.78"/>
    </clipPath>
  </defs>
  <rect class="st7" x="19.84" y="19.84" width="243.78" height="243.78"/>
  <g class="st13">
    <path class="st2" d="M40.96,219.37s-5.35.47,10.71,4.1c16.05,3.63,14.98,23.13,18.92,25.42,3.94,2.29,16.05,9.17,39.56,13.19,27.87,4.76,97.12-3.84,102.63-12.04,5.2-7.74,43.96-22.75,41.47-26.57-2.49-3.82-26.27-5.64-35.88-5.02-9.61.62-28.74,1.16-28.74,1.16,0,0,.66,6.34-3.87,6.34s-80.31-3.66-80.31-3.66l-16.43-3.9s.05,2.75-9.77,2.29c-9.82-.46-24.3-1.19-24.3-1.19l-13.99-.12Z"/>
    <path class="st6" d="M79.16,180.8c2.07.03,9.19-1,12.92-4.15,3.73-3.15,4.01-17.49,4.01-17.49l-23.26-5.99s-4.3,27.47,6.33,27.62"/>
    <path class="st6" d="M205.82,148.19s-6.31,9.61-8.26,13.38c-1.95,3.77-5.35,16.43-5.72,18.25-.37,1.82-.24,9.25-1.46,11.07-1.22,1.83-4.62,4.26-4.62,4.26l2.68-28.6,6.57-11.07,10.82-7.29Z"/>
    <path class="st6" d="M79.16,180.8s-9.86,4.87-15.45,7.3c-5.6,2.43-9.86,8.88-11.8,11.92-1.95,3.04-1.7,11.44,0,12.41,1.7.97,5.48,2.92,4.99,4.99-.49,2.07-1.95,2.07-1.95,2.07,0,0,.73,1.1-2.92,1.1s-9.98.61-11.07-1.22c-1.1-1.83-1.1-21.42.49-25.8,1.58-4.38,13.75-14.84,19.83-20.75,6.08-5.9,11.56-19.65,11.56-19.65,0,0,7.3,25.92,6.33,27.62"/>
    <path class="st11" d="M198.29,158.41s-6.09,9.73-7.06,12.05c-.97,2.31-1.46,11.93-1.82,14.72-.37,2.8.24,16.43,0,18.25-.24,1.82,3.77,8.52,4.38,10.1l.61,1.58s5.35-.12,7.54,1.7c2.19,1.82,4.5,4.38,3.41,5.72-1.1,1.34-5.72,0-5.72,0,0,0-4.99.22-8.76.6-3.77.38-5.6-4.25-6.57-5.95-.97-1.7-5.11-6.08-5.84-8.64-.73-2.56.36-7.67,0-9.61-.37-1.95-2.07-11.44-3.29-22.15-1.22-10.71-2.07-15.82-2.07-15.82,0,0-7.06,1.7-16.06.61-9-1.1-22.15-3.89-25.8-3.16-3.65.73-8.15,3.89-11.8,10.59-3.65,6.69-6.81,13.14-14.48,16.91-7.67,3.77-8.64,1.96-9.98,4.81-1.34,2.86-4.01,6.51-5.48,8.09-1.46,1.58,3.53,11.68,4.87,13.51,1.34,1.83.61,2.31,4.26,2.8,3.65.49,8.52,1.58,9.49,4.26.97,2.68-2.68,2.92-2.68,2.92,0,0-.61.63-6.69.86-6.08.23-7.42.96-8.64-1.1-1.22-2.07-10.46-15.82-13.26-19.23-2.8-3.41-6.81-8.03-4.14-10.47,2.68-2.43,8.88-7.42,10.22-9.25,1.34-1.83,2.8-6.09,2.68-10.83-.12-4.75-1.22-12.17-.49-15.21.73-3.04,68.63-6.57,68.63-6.57l47.62,2.4s-2.26,4.19-3.08,5.5"/>
    <path class="st9" d="M224.29,109.13s3.09-.24,6.42.83c3.33,1.07,7.73,3.09,11.05,2.97,3.33-.12,4.64-2.5,4.64-3.21s-3.57-3.8-3.57-3.8l1.54-1.66s6.54-.48,7.96-1.66c1.43-1.19,1.43-2.5,1.66-2.85.24-.36,2.5-1.66,3.09-3.45.6-1.78-.71-3.09-2.02-3.68-1.31-.6-3.09-.95-4.52-1.9-1.43-.95-8.29-3.92-9.79-4.28-1.5-.36-3.05-2.85-3.88-4.87-.83-2.02-3.92-6.89-5.11-7.49-1.19-.59-7.13-4.64-7.49-5.82-.36-1.19-1.78-2.97-.83-5.23.95-2.26.12-7.01.36-9.27.24-2.26.95-6.18.12-5.71-.83.48-1.31,4.16-2.97,4.64-1.66.47-3.8.95-3.68,3.09.12,2.14,2.14,19.85,2.14,19.85l-15.57-4.28s-2.02,6.66-7.73,10.1c-5.71,3.45-6.89,4.87-8.8,4.99-1.9.12-2.73-.36-5.82.36-3.09.71-5.47,5.59-5.47,5.59l1.07-.24s-.48,2.14-2.26,2.38c-1.78.24-2.38,0-4.52.95-2.14.95-3.33,2.38-3.33,2.38l-.83,1.43s-3.8-.59-6.66.12c-2.85.71-5.23,1.9-7.84,2.02-2.62.12-16.88-.95-33.05.95-16.17,1.9-31.38,6.3-39.46,13.91-8.08,7.61-16.52,20.21-19.14,29.84-2.62,9.63-2.14,29-6.42,34.23-4.28,5.23-12.12,9.63-14.74,12.72-2.62,3.09-4.04,7.25-4.04,7.25l25.68-19.14,36.49-32.57,19.61,8.32,16.05,2.14,28.53-7.96,47.78-35.78,15.34-6.18Z"/>
    <path class="st11" d="M61.4,139.06s-4.54,16.53-7.59,21.39c-3.04,4.87-10.67,24-16.99,31.05-6.33,7.06-7.18,22.75-7.18,22.75l1.58-3.65s-.24,7.06-.12,8.03l.12.97,1.82-7.18v5.84l4.62-6.57-1.82,5.23s6.94-3.29,9.67-6.94c2.74-3.65,2.74-5.96,2.74-5.96l-1.22,5.72s4.62-4.5,6.57-7.54c1.95-3.04,2.43-5.72,2.43-5.72l-.12,3.89s1.7-1.22,6.33-6.69c4.62-5.48,5.48-8.64,5.48-8.64l-.97,5.6s4.02-5.11,5.48-11.32,3.29-22.75,2.56-29.81c-.73-7.06,2.13-13.87,4.47-17.04,2.35-3.16,11.71-4.62,9.4-7.18s-14.6-.49-17.89,2.19c-3.29,2.68-6.69,2.19-9.37,11.56"/>
    <path class="st12" d="M251.91,92.63s-.6.66-.3,2.42c.3,1.75,2,3.87,2,3.87v-1.75s-.12.18.67.18,1.15-.12,1.15-.12c0,0-.91-.6-1.03-1.45-.12-.85,2.36-2.03,2.56-1.52,0,0-.89-1.93-3.24-2.17,0,0-1.46-.38-1.8.54"/>
    <path class="st5" d="M244.38,104.26s-4.62-1.53-6.32-2.37c-1.69-.85-6.11-2.96-8.41-1.09-2.3,1.87.48,5.08,2.3,5.74,1.81.67,7.56,2.36,10.16,2.54,2.6.18,4.29.65,4.29.65,0,0,.41-.95,0-1.67-.42-.73-1.56-1.69-1.56-1.69,0,0,.28-1.86-.46-2.1"/>
    <path class="st1" d="M230.69,102.49s1.33-.12,3.33,0c1.99.12,11.42,2.96,12.57,4.72,1.16,1.75-.18,2.52-.18,2.52,0,0-3.56-1.31-7.79-2.64-4.23-1.33-8.83-2.78-7.92-4.6"/>
    <path class="st3" d="M235.65,81.5s.73,1.33,1.03,2.66c.3,1.33,2.72,4.41,2.42,6.41-.3,1.99-4.54,4.9-7.32,6.11-2.78,1.21-4.78,1.34-5.32,3.36-.54,2.02-1.03,4.56-1.03,4.56,0,0-.24-4.84.3-6.11.54-1.27-.24-3.21,1.94-4.23s4.47-3.57,4.29-5.26c-.18-1.69-3.81-3.26-3.87-4.29-.06-1.03.91-1.75,1.75-2.36.85-.6,1.48-1.75,2.4-2.24.92-.48,2.89.3,3.4,1.39"/>
    <path class="st9" d="M234.5,82.89s-.66.91,0,1.93c.66,1.03.66,1.93.66,1.93,0,0-2.12-1.09-2.48-1.93-.36-.85-2.9-.42-2.9-.42,0,0,1.39-1.15,1.75-1.93.36-.79.91-1.51,2.18-1.21,1.27.3,1.45,1.45,1.45,1.45l-.66.18Z"/>
    <path class="st11" d="M221.92,64.33s-.97-2.36-.36-4.9c.61-2.54.36-5.62.36-5.62,0,0-.06.67-1.45.79-1.39.12-2.24-.67-1.94.72.3,1.39,1.68,9.31,1.69,11.43,0,2.12,1.58,5.08.97,7.26-.6,2.18,1.88,1.39,2.06,2.36.18.97.54,4.6-.36,5.74l-.91,1.15s3.57-2,3.87-3.99c.3-2,.24-3.08-.72-4.78-.97-1.69-.15-5.36-.15-5.36,0,0,3.65,2.96,5,3.82,1.35.86,2.58.83,4.74,4.71l.7,1.13s-2.16,1.17-2.4,1.17c-.24,0-.47.82-1.16,1.5-.69.68-2.37,1.78-3.08,2.51-.7.73-.6,1.13-.23,1.47.37.34,3.49,1.93,3.69,3.68.19,1.75-.89,3.75-2.47,4.66-1.57.91-2.21,1.75-2.83,3.15-.62,1.39-1.22,3.12-1.22,3.12,0,0,.44,4.02-.35,5.71-.79,1.69-2.18,2.24-2.18,2.24,0,0,.3,4.84-2.06,7.68-2.36,2.84-5.02,6.11-7.86,6.65-2.84.54-3.93.85-3.93.85,0,0-.91,4.11-.3,6.53.6,2.42-1.39,16.99-5.32,22.86-3.93,5.87-22.25,14.33-26.97,15.78-4.72,1.45-5.2,1.39-6.17,2.12-.97.72-14.33.12-24.92-.61-10.58-.73-25.64-5.68-29.27-6.59-3.63-.91-13.18-1.09-16.27-.24-3.08.85-30.96-.72-34.83-7.14-3.87-6.41,1.69-16.27,1.69-16.27v1.21s2.42-2.95,4.35-5.1c1.93-2.15,5.2-2.63,5.2-2.63,0,0-1.21.67-1.75,1.45-.54.79-.79,1.18-.79,1.18l2.54-.76s-.73,2.18-.73,3.51v1.33s.73-1.33,2.84-2.18l2.12-.85s-.48,3.26-.3,4.54l.18,1.27s2.54-2.84,3.08-3.2l.54-.36-.42,1.87.91-.73.3,2.06s.24-.97,3.75-2.66c3.51-1.69,5.93-1.51,5.93-1.51,0,0,.3,3.69,1.27,4.42.97.73,4.9-2,9.07-.73,4.17,1.27,3.75,8.47,10.34,11.13,6.59,2.66,16.57-2.48,16.57-2.48l-.24.97s6.29-2.54,7.01-3.21l.73-.66.3-.42-1.51.55s9.13-5.02,10.58-8.77c1.45-3.75,1.27-8.35.3-11.49-.97-3.14,3.21-10.77,4.05-11.73.85-.97,1.27-1.09,1.27-1.09l-.73,1.57s2.97-1.51,4.2-2.12l1.24-.6s-.6,1.39-1.24,3.45c-.64,2.05-.76,3.26-.76,3.26,0,0,2.3-2.72,5.14-3.87l2.84-1.15-2.84,2.12s4.72-1.93,7.32-1.93,5.44.42,5.44.42l-1.63-3.38s-1.45-1.34,2.48-2.85c3.93-1.51,10.34-1.15,12.82-2.6l2.48-1.45-1.88,2.06s4.17-2.28,4.9-5.01c.73-2.73,1.15-5.09.79-6.6l-.36-1.51,1.39,2.42s-.12-4.66-.12-5.56.54-4.11,1.76-6.17c1.21-2.06,3.39-3.27,3.39-3.27,0,0-.42-4.05.54-6.77.97-2.72,1.82-3.69,3.69-4.84,1.88-1.15,3.15-3.21,3.75-4.54.61-1.33,6.59-11.01,8.22-12.22,1.63-1.21,2.9-1.27,3.81-2.42s2.12-4.54,3.08-3.45c.97,1.09.18,5.08.06,6.29-.12,1.21.85,12.7-2.36,10.52"/>
    <path class="st6" d="M214.42,94.02s.48,2.42,1.63,2.48c1.15.06,2.9-1.24,2.9-1.24,0,0,.48,7.04,1.39,8.92.91,1.88,3.02,3.02,4.05,2.96,0,0-.8,1.29-.67,2.22.13.93-.94,4.21-2.17,5.75,0,0-1.57-8.26-3.08-11.35-1.51-3.08-4.48-4.96-5.68-8.41-1.21-3.45.36-7.07.36-7.07,0,0,.71,4.18,1.27,5.74"/>
    <path class="st6" d="M203.96,127.22s.66,3.33-.48,4.78l-1.15,1.45v-1.27s-2.18,3.75-5.14,6.29c-2.96,2.54-7.56,3.93-7.56,3.93,0,0,7.8-5.14,10.1-8.89,2.3-3.75,2.54-5.14,2.54-5.14l.79,1.63s.85-2.12.91-2.78"/>
    <path class="st6" d="M84.64,188.46c-.3.21-5.84,4.5-6.33,6.69-.49,2.19,3.16,4.62,3.16,4.62,0,0,3.41,9.25,5.11,12.78,1.7,3.53,3.04,6.33,2.43,5.84-.61-.49-10.95-16.91-12.53-18.25-1.58-1.34-4.26-4.99-2.56-6.69,1.7-1.7,10.83-7.54,12.17-8.15,1.34-.61-.18,2.26-1.46,3.17"/>
    <path class="st11" d="M117.87,171.88l1.69-1.75,3.05-3.14v3.8s9.05-3.1,14.11-2.22c5.07.88-6.37-8.11-6.37-8.11h-16.77l4.29,11.43Z"/>
    <path class="st6" d="M116.6,156.91s.43,9.99-5.16,16.87c-5.59,6.88-11.61,7.01-11.61,7.01,0,0,5.17-5.7,8.39-10.01,3.22-4.32,3.16-8.17,3.16-8.17l-3.16,3.55s4.88-12.24-3.66-17.97c0,0,9.9,3.46,12.04,8.72"/>
    <path class="st6" d="M174.21,157.01s-1.72-11.18,0-18.92c1.72-7.74-.38-16.34-.38-16.34,0,0-.91,7.74-3.06,11.18-2.15,3.44-2.58,15.26-2.58,15.26l3.35-4.87s.14,2.36,2.67,13.69"/>
    <path class="st9" d="M81.28,130.82s-12.5,4.67-14.29,8.8,2.05,8.26-1.69,16.27c-3.74,8.01-3.72,8.61-3.72,8.61l-.02-4.04s-4.73,12.9-8.17,17.63-4.51,10.76-4.51,10.76l1.07-11.19s-3.83,14.08-6.39,19.38c-2.56,5.3-8.73,10.29-8.73,10.29v-3.44l-4.3,3.44s-.08-14.54,9.68-22.11c0,0,5.46-8.68,7.6-18.23,2.15-9.54,19.07-45.46,26.19-45.23,7.12.23,14.37-1.64,18.73.94,4.35,2.58-11.43,8.13-11.43,8.13"/>
    <path class="st11" d="M83.43,182.34s1.98-6.94.61-10.46c-1.37-3.52-8.68-7.46-9.94-11.43-1.26-3.97-.71-5.73-.71-5.73h12.56s12.75,21.35-2.52,27.62"/>
    <path class="st11" d="M79.25,161.5s-2.32,12.18-4.16,15.05l-1.84,2.87s-.37-2.8-1.41-7.75c-1.05-4.95-2.28-16.96-2.28-16.96l9.69,6.79Z"/>
    <path class="st6" d="M76.17,144.54s3.67,20.48,1.29,26.25l-2.38,5.77h8.95s-.74-7.52-1.94-14.68l-1.2-7.16,4.22,2.35s-2.07-12.53-8.95-12.53"/>
    <path class="st12" d="M231.51,83.86s1.61-1.8,2.18-1.61c0,0-1.05.81-.73,1.18.32.38.73.24.73.24,0,0-.08,1.1-2.18.19"/>
    <path class="st4" d="M138.73,124.15s5.09,11.8-.71,15.24c-5.8,3.44-12.22,5.16-12.22,5.16,0,0,12.29-7.21,12.22-10.2-.07-2.99.71-10.2.71-10.2"/>
    <path class="st6" d="M208.33,74.7s1.43,5.74,2.95,6.49c1.52.75,3.75,2.57,2.57,5.57-1.17,3,.57,7.26.57,7.26,0,0-3.81-3.12-3.04-5.74.76-2.62-2.19-6.09-3.04-8.31-.86-2.22,0-5.26,0-5.26"/>
    <path class="st6" d="M203.03,74.01s-2.19,6.68,0,8.58c2.19,1.9,3.33,2.56,3.33,2.56,0,0-3.62-.55-4.95-2.56-1.33-2.01-.38-7.44,1.62-8.58"/>
    <path class="st4" d="M169,99.75s-1.24.59-1.67,2.01l-.43,1.42h1.05s-1.05,1.9,0,4.19c1.05,2.29,1.9,3.4,1.9,3.4v-2.35s2.29,5.49,5.05,8.41c2.76,2.92,7.52,5.59,7.52,5.59,0,0-7.81-7.37-9.43-10.97-1.62-3.6-2.32-6.84-2.32-6.84,0,0-1.4,1.05-1.68,1.72,0,0-.1-2.38.67-3.53l.76-1.14-1.52.11s-.16-2.2,1.78-2.77l1.94-.57s-3.62.26-3.62,1.33"/>
    <path class="st6" d="M204.15,148.19s-.39,3.54-2.68,5.45c-2.29,1.9-5.05,2.76-5.05,2.76l1.33-1.68s-2.38,4.25-7.71,6.25c-5.33,2-8.57,2.48-8.57,2.48,0,0,8.38-3.24,12.28-7.05,3.9-3.81,4.76-6.28,4.76-6.28l-.09,3.06s4.58-1.76,5.71-4.98"/>
    <path class="st6" d="M217.91,79.22s-3.82,1.2-5.27.28-5.48-8.79-3.54-13.91c1.93-5.12,6.96-12.25,8.81-12.91,1.85-.66,3.71-2.46,4.02-3.03.32-.57,1.06-3.06,2.28-2.14,1.22.92.87,4.37.47,5.33-.41.96-.17,4.79-.29,5.91-.12,1.12-.21,5.54-1.52,5.81-1.31.27-2.11-1.72-1.85-3.76.27-2.04.93-6.13.93-6.13,0,0-1.47.38-2.27.33l-.81-.05s1.67,9.94,1.67,10.97,1.13,5.38,1.13,6.66-.64,1.68-.11,2.13c.54.45,2.02,1.21,1.68,1.66s-2.79,2.31-5.34,2.86"/>
    <path class="st3" d="M223.12,50.59s-.86,2.15-2.74,2.79c-1.88.65-2.48,2.96-2.02,7.53.46,4.57,1.91,11.34,1.91,11.34,0,0-5.04-11-2.74-15.8,2.3-4.8,3.6-4.68,4.68-5.86,1.07-1.18,1.83-2.9,2.1-1.93.27.97-.28,4.04-.49,5.08-.21,1.04.57,8.58-.36,9.27-.93.7-1.57.59-1.41-.43.16-1.02,1.5-11.39,1.07-11.99"/>
    <path class="st3" d="M214.82,97.18s1.08.88,1.68.94c.61.07,1.35-.94,1.35-.94,0,0,.88,6.33,1.95,8.15,1.08,1.82,3.38,2.67,3.38,2.67,0,0-.49,3.19-.82,3.66l-.34.47s-3.36-8.34-3.66-9.69c-.31-1.35-2.93-3.71-3.54-5.26"/>
    <path class="st10" d="M227.63,98.42s2.83-2.65,4.62-3.39c1.79-.74,2.47-5.7,3.18-6.38.71-.68,2.1-1.58,2.26-2.33,0,0,3.25,3.29.25,6.19-3.05,2.96-5.1,3.98-7.39,4.67l-2.91,1.24Z"/>
  </g>
  <g>
    <path class="st8" d="M81.27,251.66h-1.98v-15.18h2.36c1.58,1.98,3.1,4,4.62,6.02,1.32,1.76,2.62,3.52,3.9,5.3v-11.32h2.16c-.2,2.66-.28,12.06-.28,15.3h-1.46c-1.74-2.52-3.46-4.94-5.24-7.3-1.34-1.78-2.7-3.56-4.08-5.3v12.48Z"/>
    <path class="st8" d="M96.53,247.44c0,1.92,1.28,2.92,3.22,2.92.9,0,1.68-.22,2.4-.66v1.1c-.74.72-1.84,1.2-2.98,1.2-2.5,0-4.26-1.56-4.26-4.24,0-3.16,2.16-5.26,4.86-5.26,1.92,0,2.92,1.24,2.92,2.68,0,.6-.18,1.2-.54,1.68l-5.54-.18c-.06.28-.08.52-.08.76ZM98.69,241.38l-2.42-4.22,1.02-.08,2.18,2.78,2.18-2.78.9.08-2.42,4.22h-1.44ZM99.47,243.98c-1.02,0-2.06.52-2.58,1.66l4.26-.06c0-1.02-.56-1.6-1.68-1.6Z"/>
    <path class="st8" d="M111.83,246.24v5.42h-1.74v-5.22c0-1.68-.76-2.24-1.7-2.24-.86,0-1.38.28-1.86.6v6.86h-1.74v-6.52c0-.9-.18-1.82-.36-2.28h1.26c.12.22.22.62.26.92.9-.64,1.78-1.14,3-1.14,1,0,1.64.34,2.2,1.08.74-.6,1.9-1.08,2.98-1.08,1.66,0,3.04,1.04,3.04,3.6v5.42h-1.76v-5.22c0-1.68-.88-2.24-1.94-2.24-.72,0-1.3.22-1.88.52.14.4.24.92.24,1.52Z"/>
    <path class="st8" d="M120.75,247.44c0,1.92,1.28,2.92,3.22,2.92.9,0,1.68-.22,2.4-.66v1.1c-.74.72-1.84,1.2-2.98,1.2-2.5,0-4.26-1.56-4.26-4.24,0-3.16,2.16-5.26,4.86-5.26,1.92,0,2.92,1.24,2.92,2.68,0,.6-.18,1.2-.54,1.68l-5.54-.18c-.06.28-.08.52-.08.76ZM123.69,243.98c-1.02,0-2.06.52-2.58,1.66l4.26-.06c0-1.02-.56-1.6-1.68-1.6Z"/>
    <path class="st8" d="M132.43,252c-2.44,0-4.2-1.54-4.2-4.3,0-3.18,2.38-5.2,4.92-5.2.82,0,1.54.16,2.1.44v1.92c-.72-.42-1.4-.64-2.28-.64-2.1,0-3.06,1.44-3.06,3.16s1.04,2.86,2.98,2.86c.96,0,1.72-.24,2.36-.7v1.16c-.54.72-1.6,1.3-2.82,1.3Z"/>
    <path class="st8" d="M142.75,242.86h2.2c-1.4,1.62-3.06,3.44-4.02,3.98,1.04.8,3.2,3.24,4.2,4.82h-2.34c-.2-.8-3.32-4.32-3.94-4.36-.02,1-.04,3.06-.04,4.36h-1.68v-15.5l1.98-.18c-.1,1.52-.26,6-.3,10.98.62-.06,2.86-2.58,3.94-4.1Z"/>
    <path class="st8" d="M149.53,251.36c-.74-2.28-2.42-6.22-3.64-8.5h2.08c.72,1.64,2.04,4.92,2.52,6.58.76-1.78,1.92-4.68,2.46-6.58h1.82c-.78,2.12-2.4,5.8-3.44,8.14-.8,1.86-2.14,4.72-2.86,6.66h-1.84c.82-2.08,1.88-4.32,2.9-6.3ZM150.47,241.38l-1.02-.08,2.52-4.22h1.92l-3.42,4.3Z"/>
    <path class="st8" d="M169.99,247.28c0,2.78-1.98,4.72-4.68,4.72s-4.66-1.98-4.66-4.72,1.96-4.78,4.68-4.78,4.66,2,4.66,4.78ZM162.57,247.28c0,1.9,1.16,3.34,2.82,3.34s2.66-1.38,2.66-3.3-1.12-3.4-2.8-3.4-2.68,1.38-2.68,3.36Z"/>
    <path class="st8" d="M175.61,251.8h-1.38c-.86-2.82-2.54-6.66-3.76-8.94h2.08c.8,1.76,2.04,4.96,2.52,6.6.78-1.82,1.94-4.72,2.44-6.6h1.84c-.76,2.1-2.66,6.22-3.74,8.94Z"/>
    <path class="st8" d="M184.19,252c-2.44,0-4.2-1.54-4.2-4.3,0-3.18,2.38-5.2,4.92-5.2.82,0,1.54.16,2.1.44v1.92c-.72-.42-1.4-.64-2.28-.64-2.1,0-3.06,1.44-3.06,3.16s1.04,2.86,2.98,2.86c.96,0,1.72-.24,2.36-.7v1.16c-.54.72-1.6,1.3-2.82,1.3ZM183.71,241.38l-2.42-4.22,1.02-.08,2.18,2.78,2.18-2.78.9.08-2.42,4.22h-1.44Z"/>
    <path class="st8" d="M190.87,252c-1.4,0-2.22-.76-2.22-2.14,0-1.86,1.84-3.5,5.06-3.88v-.52c0-.94-.56-1.38-1.62-1.38-.92,0-1.74.22-2.64.66v-1.8c.98-.3,1.88-.44,2.72-.44,2,0,3.22.86,3.22,2.76,0,1.66-.08,2.96-.08,3.98s.18,1.84.38,2.42h-1.56c-.12-.56-.18-1.18-.18-1.86-.64,1.56-1.84,2.2-3.08,2.2ZM190.45,249.46c0,.62.34.98,1.02.98s2.18-.62,2.24-3.3c-2.24.4-3.26,1.34-3.26,2.32ZM191.81,241.38l-1.02-.08,2.52-4.22h1.92l-3.42,4.3Z"/>
    <path class="st8" d="M203.59,242.86h2.2c-1.4,1.62-3.06,3.44-4.02,3.98,1.04.8,3.2,3.24,4.2,4.82h-2.34c-.2-.8-3.32-4.32-3.94-4.36-.02,1-.04,3.06-.04,4.36h-1.68v-15.5l1.98-.18c-.1,1.52-.26,6-.3,10.98.62-.06,2.86-2.58,3.94-4.1Z"/>
  </g>
</svg>