<?xml version="1.0" encoding="UTF-8"?>
<svg id="Vrstva_1" xmlns="http://www.w3.org/2000/svg" xmlns:xlink="http://www.w3.org/1999/xlink" version="1.1" viewBox="0 0 283.46 283.46">
  <!-- Generator: Adobe Illustrator 30.1.0, SVG Export Plug-In . SVG Version: 2.1.1 Build 136)  -->
  <defs>
    <style>
      .st0 {
        fill: none;
      }

      .st1 {
        fill: #a64048;
      }

      .st2 {
        fill: #392b39;
      }

      .st3 {
        fill: #fefafc;
      }

      .st4 {
        fill: #a27a5f;
      }

      .st5 {
        fill: #b25a5c;
      }

      .st6 {
        fill: #9f5848;
      }

      .st7 {
        fill: #c9aa93;
      }

      .st8 {
        clip-path: url(#clippath-1);
      }

      .st9 {
        clip-path: url(#clippath-3);
      }

      .st10 {
        clip-path: url(#clippath-4);
      }

      .st11 {
        clip-path: url(#clippath-2);
      }

      .st12 {
        fill: #fff;
      }

      .st13 {
        fill: #a0654c;
      }

      .st14 {
        fill: #b68e70;
      }

      .st15 {
        fill: #251b28;
      }

      .st16 {
        fill: #936648;
      }

      .st17 {
        fill: #534451;
      }

      .st18 {
        fill: #8d7e88;
      }

      .st19 {
        clip-path: url(#clippath);
      }
    </style>
    <clipPath id="clippath">
      <rect class="st0" x="19.84" y="19.84" width="243.78" height="243.78"/>
    </clipPath>
    <clipPath id="clippath-1">
      <rect class="st0" x="162.47" y="122.17" width="2.71" height="4.56"/>
    </clipPath>
    <clipPath id="clippath-2">
      <rect class="st0" x="19.84" y="19.84" width="243.78" height="243.78"/>
    </clipPath>
    <clipPath id="clippath-3">
      <rect class="st0" x="98.44" y="133.31" width="2.79" height="2.2"/>
    </clipPath>
    <clipPath id="clippath-4">
      <rect class="st0" x="19.84" y="19.84" width="243.78" height="243.78"/>
    </clipPath>
  </defs>
  <rect class="st5" x="19.84" y="19.84" width="243.78" height="243.78"/>
  <g class="st19">
    <path class="st1" d="M137.18,127.92c4.08-1.89,11.91.95,30.96-15.14,19.05-16.09,36.74-47.32,40.82-61.84,4.08-14.51,3.74-17.35-9.53-17.04-13.27.32-38.1,14.83-55.45,23.98-17.35,9.15-23.47,12.94-31.64,9.46-8.16-3.47-27.9-14.51-66.68-7.89,0,0-28.24,4.42-36.4,16.09-8.16,11.67-10.89,12.62-15.65,12.62s-31.64-7.89-43.2-9.15c-11.57-1.26-21.77,3.47-22.11,9.15-.34,5.68,26.19,34.39,35.38,41.01,9.18,6.63,20.41,13.57,26.88,14.51,6.46.95,3.74.63,3.74.63,0,0,3.06,4.1,6.12,7.57,3.06,3.47,7.82,21.77,16.67,31.23,8.85,9.47,11.23,6.94,9.18,14.83-2.04,7.89-12.93,37.96-10.54,51.95,0,0-11.57,12.41-17.69,26.29-6.12,13.88,3.4,32.18-4.08,44.8-7.48,12.62-20.41,29.03-19.05,39.12,1.36,10.1,7.83,8.2,3.4,14.83-4.42,6.62-9.53,14.83-7.14,22.08,2.38,7.26,5.44,10.1,5.44,10.1,0,0-3.06,1.26-2.04,5.99,1.02,4.73,10.89,8.83,13.27,14.2,2.38,5.36,3.69,7.48,16.81,9.57,13.12,2.1,19.93-3.58,20.61-9.57.42-3.68-.58-7.24-2.35-10.24,2.07-.28,4.64-.89,8.14-1.43.75-.11,1.48-.22,2.21-.33.41,6.88-2.07,24.02-4.26,31.56-2.38,8.2-13.61,22.08-12.25,26.82,1.36,4.73,4.42,3.79,4.42,3.79,0,0,.68,3.79,4.42,5.05,3.74,1.26,9.53,0,9.53,0,0,0,6.12,1.75,11.23.56,5.1-1.19,6.12-3.72,6.12-3.72,0,0,7.82,0,10.54-4.1,2.72-4.1,2.48-20.51,1.41-28.08-.67-4.77-.15-14.81.29-23.39,5.06,3.01,11.12,6.07,17.69,8.25,18.03,5.99,34.7,4.73,34.7,4.73,0,0-3.4-8.52-14.97-15.14-11.57-6.63-21.43-11.99-23.81-16.41-2.38-4.42,12.59-7.89,12.59-7.89,0,0,3.4.32,12.59,6.63,4.25,2.92,10.83,7.53,17.58,11.7-1.39,6.36-1.68,8.58,1.47,14.17,4.08,7.26,1.7,22.09,5.1,28.08,3.4,5.99,1.7,19.88,10.21,21.45,8.5,1.58,12.59-1.58,12.59-1.58,0,0,3.4,3.15,9.86,3.15s9.18-2.84,9.18-2.84c0,0,12.59,2.21,11.23-4.1-1.36-6.31-9.18-11.99-13.61-17.98-3.97-5.38-13.4-22.67-15.79-32.55,3.73-1.59,5.93-3.73,5.93-3.73,0,0,6.46-1.26,6.46-7.26,0-3.31-6.02-7.58-11.4-10.74,1.4-8.82,3.58-18.43,5.96-25.22,4.42-12.62,10.89-30.92,8.16-40.38l-2.72-9.46s11.57-45.43,7.49-68.78c-4.08-23.35-2.04-29.34-16.67-45.75-14.63-16.41-18.71-34.7-20.41-41.01-1.7-6.31,3.74-9.78,3.74-23.98s-4.76-17.35-.68-19.24"/>
    <path class="st14" d="M108.03,224.41s-8,9.26-12.24,19.62c-4.24,10.36,2.35,24.01-2.83,33.43-5.18,9.42-14.12,21.66-13.18,29.19.94,7.53,5.42,6.12,2.35,11.07-3.06,4.94-6.59,11.07-4.94,16.48,1.65,5.41,3.77,7.53,3.77,7.53,0,0-2.12.94-1.41,4.47.71,3.53,7.53,6.59,9.18,10.59,1.65,4,2.55,5.58,11.64,7.15s13.79-2.67,14.26-7.15c.47-4.47-1.65-8.71-4.47-11.3-2.83-2.59.6-4.47,4.54-9.65,3.94-5.18,2.05-11.77,2.05-11.77,0,0,2.59,18.6,3.3,22.6.71,4-1.18,18.6-2.83,24.72-1.65,6.12-9.42,16.48-8.47,20.01.94,3.53,3.06,2.82,3.06,2.82,0,0,.47,2.83,3.06,3.77,2.59.94,6.59,0,6.59,0,0,0,4.24,1.31,7.77.42,3.53-.89,4.24-2.77,4.24-2.77,0,0,5.42,0,7.3-3.06,1.88-3.06,1.71-15.3.98-20.95-.74-5.65.6-21.19.52-26.6-.08-5.42-5.97-14.83-4.08-16.01.96-.6,2.1.45,4.18,1.5,2,1.01,4.85,2.02,9.24,1.56,8.95-.94,14.13-5.18,19.78-8,5.65-2.83,10.12-6.36,11.07-8.24l.94-1.88s.24,19.78-1.41,28.96c-1.65,9.18-2.82,10.36,0,15.77,2.83,5.41,1.18,16.48,3.53,20.95,2.36,4.47,1.18,14.83,7.06,16.01,5.89,1.18,8.71-1.18,8.71-1.18,0,0,2.35,2.36,6.83,2.36s6.36-2.12,6.36-2.12c0,0,8.71,1.65,7.77-3.06-.94-4.71-6.36-8.95-9.42-13.42-3.06-4.47-10.83-20.01-11.3-26.6-.47-6.59,2.12-23.31,5.18-32.72,3.06-9.42,7.53-23.07,5.65-30.14l-1.88-7.06s8-33.9,5.18-51.32c-2.83-17.42-1.41-21.9-11.54-34.14-10.12-12.24-12.95-25.9-14.12-30.61s2.59-7.3,2.59-17.89-3.3-12.95-.47-14.36c2.83-1.41,8.24.71,21.42-11.3,13.18-12.01,25.43-35.31,28.25-46.14,2.82-10.83,2.59-12.95-6.59-12.71-9.18.24-26.37,11.07-38.38,17.89-12.01,6.83-16.24,9.65-21.89,7.06-5.65-2.59-19.31-10.83-46.14-5.89,0,0-19.54,3.3-25.19,12.01-5.65,8.71-7.53,9.42-10.83,9.42s-21.89-5.89-29.9-6.83c-8.01-.94-15.07,2.59-15.3,6.83-.24,4.24,18.13,25.66,24.49,30.61,6.35,4.94,14.12,10.12,18.6,10.83,4.47.71,2.59.47,2.59.47,0,0,2.12,3.06,4.24,5.65,2.12,2.59,5.42,16.24,11.54,23.31,6.12,7.06,7.77,5.18,6.36,11.06-1.41,5.89-8.95,28.33-7.3,38.77"/>
    <path class="st13" d="M51.3,105.13s2.83-4.94,10.59-4.94,27.07,5.88,28.96,11.06c1.88,5.18-2.35,9.18-1.65,17.42.71,8.24,3.56,12,2.14,13.06-1.43,1.06-9.67-2.47-14.38-6.23-4.71-3.77-26.13-20.95-25.66-30.37"/>
    <path class="st6" d="M63.3,104.42c.91.25,10.36,2.59,15.07,7.53,4.71,4.94,9.42,17.19,5.42,17.66-4,.47-15.07-9.18-19.54-14.6-4.47-5.41-4.68-11.6-.94-10.59"/>
    <path class="st14" d="M86.81,107.45s3.56,2.38,1.68,4.27c-1.88,1.88-4,5.65-4,5.65,0,0,1.68-2.4,3.4-3.31s2.43-1.01,2.43-1.01c0,0-3.96,2.67-4.26,4.32l-.3,1.66s1.52-2.74,3.04-3.55l1.52-.81s-2.69,3.25-2.92,5.38l-.22,2.13s1.17-3.96,2.33-4.06c1.16-.09-.1,3.24,1.22,2.94,1.32-.3,3.75-7.1,1.72-10.34-2.03-3.25-5.65-3.26-5.65-3.26"/>
    <path class="st13" d="M189.82,110.51s-3.85-11.97,4.66-19.88c8.52-7.91,37.73-23.53,41.38-20.69,3.65,2.84,1.42,20.49-12.17,36.31-13.59,15.82-23.73,19.47-26.98,19.27-3.24-.2-4.06-4.12-4.87-8.55-.81-4.43-2.03-6.46-2.03-6.46"/>
    <path class="st14" d="M188.95,109.5s3.91-.81,5.53,0l1.62.81s-.18-2.5-3.58-2.86l-3.39-.35s3.73-1.86,5.96-1.05l2.23.81s-2.18-2.25-5.27-2.55l-3.1-.29s-.21-5.03,4.18-3.83l4.39,1.2s-2.49-2.64-4.29-2.84l-1.8-.2s0-4.87,3.65-4.87h5.48s-.2-.81-2.64-1.42l-2.43-.61,9.33-4.87s-9.74,1.62-13.39,5.48c-3.65,3.85-4.42,13.88-2.49,17.44"/>
    <path class="st4" d="M204.83,78.46s-16.63,10.14-19.88,11.36c-3.25,1.22-5.68,1.22-5.68,1.22,0,0,3.04.61,5.27,7.4,2.23,6.79,5.48,21.4,5.48,26.27s.41-14.33-3.24-27.14c0,0-1.96-3.28,1.15-6.32,3.11-3.04,16.9-12.78,16.9-12.78"/>
    <path class="st4" d="M140.33,120.03s2.84-12.16,13.99-13.78c11.16-1.62,19.88,8.32,20.89,15.92,1.01,7.61-.2,18.51-13.59,19.75s-18.66-8.79-19.07-12.29c-.41-3.5-3.41-6.32-2.23-9.6"/>
    <path class="st16" d="M145.44,125.53s-2.47-9.13,7.26-12.38c9.74-3.25,15.62.39,18.66,6.89,3.04,6.5-1.62,14-10.55,14.82-8.93.81-12.7-1.81-15.38-9.32"/>
    <path class="st4" d="M92.8,121.34s2.56-4.26,7.22-3.04,8.32,7.71,8.11,16.02c-.2,8.32-5.66,18.85-9.62,17.23-3.97-1.62-10.7-16.83-5.71-30.22"/>
    <path class="st16" d="M92.62,128.16s3.57-6.59,9.65-4.1,4.46,17.69,0,19.93-8.56.17-10.87-8.03c0,0-1.4-4.75,1.22-7.79"/>
    <path class="st17" d="M147.43,121.05s-.54-4.58,8.52-6.24c9.06-1.66,11.77,2.31,13.79,7.36,2.02,5.05-5.47,9.63-11.97,9.43-6.49-.2-11.16-2.64-10.35-10.55"/>
    <path class="st17" d="M92.62,131.61s-.1-5.22,6.79-6.13c6.89-.91,5.71,10.18,4.9,12.61-.81,2.43-5,6.87-9.4,3.64,0,0-3.01-2.41-2.29-10.12"/>
    <path class="st15" d="M149.66,121.05s1.41-5.36,9.07-6.24c7.65-.88,9.72,5.92,9.8,9.24.08,3.32-2.75,4.83-9.8,5.58-7.04.75-11.5-3.41-9.07-8.57"/>
    <path class="st3" d="M152.29,120.03s-1.82,1.13-1.22,4.02c.61,2.89,3.85,3.9,3.85,3.9,0,0-3.8-3.29-2.64-7.92"/>
  </g>
  <g class="st8">
    <path class="st18" d="M163.25,122.17c.43,1.79-.76,3.34-.78,4.08v.03c0,.28.2.44.73.45h.09c1.99-.03,2.18-2.44,1.58-3.27-.61-.84-1.62-1.29-1.62-1.29"/>
  </g>
  <g class="st11">
    <path class="st15" d="M94.13,129.72s4.11-4.07,7.34-1.76c3.23,2.31,3.25,9.94,0,11.56-3.24,1.62-5.75,1.16-7.34-1.62-1.59-2.79-1.46-7.01,0-8.18"/>
    <path class="st3" d="M94.9,131.61s-2.55,4.59,0,6.69c0,0-.73-3.6,0-6.69"/>
  </g>
  <g class="st9">
    <path class="st18" d="M100.02,133.31c-.78,0-1.58.54-1.58.54.49,1.21,1.13,1.65,1.68,1.67h.05c.59-.02,1.06-.53,1.06-1.08v-.04c0-.18-.06-.37-.17-.55-.27-.4-.65-.54-1.04-.54"/>
  </g>
  <g class="st10">
    <path class="st4" d="M107.07,144.82s-1.63-9.01,9.32-10.2c10.95-1.19,17.04,1.7,20.69,5.83s10.25,5.76,10.25,5.76c0,0-7.62-3.88-10.86-10.26-3.24-6.37-18.46-4.99-23.53-2.64s-7.49,6.67-5.87,11.51"/>
    <path class="st17" d="M108.28,149.86s-1.01-9.39,4.87-11.08c5.88-1.7,14.2-1.85,16.84,1.67,2.64,3.53,1.01,9.21,2.84,13.26,1.83,4.06,10.02,8.52,16.16,7.5,6.15-1.01,7.37-1.74,8.79.15,1.42,1.88-7.74,11.62-16.04,12.83-8.3,1.22-8.91.2-12.97,1.01-4.06.81-7.71,2.64-11.97,1.82-4.26-.81-6.69-4.06-5.88-6.9,0,0-3.21-.41-4.34-6.9-1.13-6.49,1.3-7.71,1.71-13.39"/>
    <path class="st2" d="M111.93,169.53s5.68-3.04,10.34-4.46c4.67-1.42,13.3.4,21.96,0,8.66-.41,10.69-2.84,10.69-2.84,0,0-8.46,2.03-14.88,1.62-6.42-.41-15.35,0-17.58-1.62-2.23-1.62-4.36-7.75-5.37-10.95-1.02-3.2-.71,6.24.71,9.2,1.42,2.96,1.42,1.54,1.42,2.96s.61.2-7.3,6.08"/>
    <path class="st2" d="M114.32,139.72s11-2.86,14.04.73c3.04,3.59-.41,10.42-8.11,12.65-7.71,2.23-10.82-1.4-11.99-6.18,0,0-1.5-6.14,6.06-7.21"/>
    <path class="st15" d="M126.95,142.87s.39,1.37-2.04,1.95c-2.43.58-3.45-1.51-4.87-.97-1.42.54-.81,4.39,2.23,5,3.04.61,5.3-3.43,4.68-5.98"/>
    <path class="st15" d="M109.42,148.47s3.89.12,3.13-1.73c-.76-1.85.91-2.82,2.68-1.31,1.77,1.52-2.02,7.83-5.82,3.03"/>
    <path class="st4" d="M108.14,227.75s-3.26,5.07-2.78,10.95c.48,5.88,3.83,22.7,3.14,28.17-.69,5.47-.84,7.54-.84,7.54l-1.09-3.39s1.35-3.72-.3-12.44c-1.65-8.72-6.39-26.98,1.86-30.83"/>
    <path class="st6" d="M199.4,104.31s-.13-7.21,5.42-11.32c5.55-4.12,23.58-13.33,23.38-8.82-.2,4.51-21.95,27-25.87,26.14-3.92-.86-2.94-5.99-2.94-5.99"/>
    <path class="st7" d="M123.29,186.57s-2.84,3.25,0,8.11c2.84,4.87-3.89,26.77-3.97,38.13-.08,11.36,7.64,30.81,7.64,30.81h69.42s7.53-38.11,2.92-47.44c-4.61-9.33-19.62-19.71-20.03-25.27-.4-5.56-3.78-14.92-3.78-14.92,0,0-7.97,8.14-16.77,10.44-8.8,2.3-23.81,6.22-35.43.14"/>
    <path class="st4" d="M123.29,186.57s5.27,1.62,12.98,2.03c7.71.41,13.18-.2,21.5-3.04,8.32-2.84,18.26-10.35,18.26-10.35,0,0-7.91,12.98-26.37,15.21-18.46,2.23-26.37-3.85-26.37-3.85"/>
    <path class="st4" d="M87.13,104.31s5.2.34,5.75,1.76-1.78,9.26-1.15,10.9c.63,1.64-1.73-2.87-.76-8.09,0,0-.62-4.36-3.84-4.56"/>
  </g>
  <g>
    <path class="st12" d="M118.3,244.4c0,3.12,1.84,5.66,5.86,5.66,1.38,0,2.74-.34,3.76-.9v1.58c-.92.78-2.2,1.22-4.08,1.22-5.24,0-7.76-3.6-7.76-7.5s2.9-8.28,8.54-8.28c1.46,0,2.62.18,3.3.36v2.32c-.88-.5-2.22-.76-3.62-.76-3.94,0-6,2.94-6,6.3ZM123.7,235.54l-2.42-4.02,1.02-.08,2.18,2.58,2.18-2.58.92.08-2.44,4.02h-1.44Z"/>
    <path class="st12" d="M132.24,238.7c0,.64-.52,1.16-1.16,1.16s-1.16-.52-1.16-1.16.54-1.16,1.16-1.16,1.16.52,1.16,1.16ZM130.04,242.86l1.92-.28c-.18,1.62-.22,6-.22,9.08h-1.7v-8.8Z"/>
    <path class="st12" d="M138.44,251.8h-1.38c-.86-2.82-2.54-6.66-3.76-8.94h2.08c.8,1.76,2.04,4.96,2.52,6.6.78-1.82,1.94-4.72,2.44-6.6h1.84c-.76,2.1-2.66,6.22-3.74,8.94Z"/>
    <path class="st12" d="M145.22,252c-1.4,0-2.22-.76-2.22-2.14,0-1.86,1.84-3.5,5.06-3.88v-.52c0-.94-.56-1.38-1.62-1.38-.92,0-1.74.22-2.64.66v-1.8c.98-.3,1.88-.44,2.72-.44,2,0,3.22.86,3.22,2.76,0,1.66-.08,2.96-.08,3.98s.18,1.84.38,2.42h-1.56c-.12-.56-.18-1.18-.18-1.86-.64,1.56-1.84,2.2-3.08,2.2ZM144.8,249.46c0,.62.34.98,1.02.98s2.18-.62,2.24-3.3c-2.24.4-3.26,1.34-3.26,2.32Z"/>
    <path class="st12" d="M155.98,251.8h-1.38c-.86-2.82-2.54-6.66-3.76-8.94h2.08c.8,1.76,2.04,4.96,2.52,6.6.78-1.82,1.94-4.72,2.44-6.6h1.84c-.76,2.1-2.66,6.22-3.74,8.94Z"/>
    <path class="st12" d="M162.76,252c-1.4,0-2.22-.76-2.22-2.14,0-1.86,1.84-3.5,5.06-3.88v-.52c0-.94-.56-1.38-1.62-1.38-.92,0-1.74.22-2.64.66v-1.8c.98-.3,1.88-.44,2.72-.44,2,0,3.22.86,3.22,2.76,0,1.66-.08,2.96-.08,3.98s.18,1.84.38,2.42h-1.56c-.12-.56-.18-1.18-.18-1.86-.64,1.56-1.84,2.2-3.08,2.2ZM162.34,249.46c0,.62.34.98,1.02.98s2.18-.62,2.24-3.3c-2.24.4-3.26,1.34-3.26,2.32Z"/>
  </g>
</svg>