<?xml version="1.0" encoding="UTF-8"?>
<svg id="Vrstva_1" xmlns="http://www.w3.org/2000/svg" xmlns:xlink="http://www.w3.org/1999/xlink" version="1.1" viewBox="0 0 283.46 283.46">
  <!-- Generator: Adobe Illustrator 30.1.0, SVG Export Plug-In . SVG Version: 2.1.1 Build 136)  -->
  <defs>
    <style>
      .st0 {
        fill: none;
      }

      .st1 {
        fill: #9c6a45;
      }

      .st2 {
        fill: #ad8017;
      }

      .st3 {
        fill: #8b542c;
      }

      .st4 {
        fill: #bd9645;
      }

      .st5 {
        fill: #1d1d1b;
      }

      .st6 {
        fill: #2a2a29;
      }

      .st7 {
        fill: #fff;
      }

      .st8 {
        fill: #878787;
      }

      .st9 {
        fill: #c7a45f;
      }

      .st10 {
        fill: #6a3611;
      }

      .st11 {
        clip-path: url(#clippath);
      }
    </style>
    <clipPath id="clippath">
      <rect class="st0" x="19.84" y="19.84" width="243.78" height="243.78"/>
    </clipPath>
  </defs>
  <rect class="st9" x="19.84" y="19.84" width="243.78" height="243.78"/>
  <g class="st11">
    <path class="st4" d="M16.12,96.38c11.47,1.73,26.91,9.61,38.41,14.65,11.5,5.04,17.73,8.37,27.5,9.76,9.77,1.39,84.36,1.61,112.71,3.51,28.35,1.9,77.08-6.03,77.08-6.03l2.87,153.55H16.12V96.38Z"/>
    <path class="st2" d="M72.4,167.92s5.66-2.89,9.49,3.53c3.83,6.42,14.65,33.3,17.15,33.3s.93-22.36,0-26.87c-.94-4.52-12.58-11.55-8.26-14.91,4.32-3.36,12.02-8.1,13.33-2.72,1.31,5.38,4.75,37.63,8.19,40.21,3.44,2.58,66.14,2.15,72.2,0,6.06-2.15,10.92-8.1,2.9-18.4-8.02-10.3-5.86-15.11-9.3-18.13-3.44-3.03-6.53-10.44-2.77-9.43,3.76,1.02,8.36-.19,10.51,3.32,2.15,3.51,13.62,30.55,17.13,32.29,3.51,1.75,6.79-5.15,13.59-5.82,6.8-.66,6.93-12.42,4.02-16.62-2.92-4.2-12.14-.58-7.32-7.95,4.81-7.37,7.53-3.65,10.96-1.24,3.43,2.41,14.08,39.81,12.79,43.25-1.29,3.44-11.81,1.72-13.21,12.9-1.4,11.18-8.64,23.22-9.75,26.23-1.11,3.01,31.65,27.3,37.93,34.83,6.28,7.53-3.01,9.43-10.24,2.15-5.44-5.49,32.5-10.82-63.35-10.61-23.32.05-73,8.56-77.28,8.73-4.28.16-31.22-10.66-31.22-10.66,0,0,3.36-19.46,2.5-26.59-.86-7.14-5.38-19.54,1.77-31.38,7.15-11.84-5.92-28.68-8.32-34.35-2.4-5.68-2.9-8.58,6.58-5.06"/>
    <path class="st10" d="M58.95,70.36s-4.3,11.32,0,12.76c4.3,1.43,4.72-2.01,4.72-2.01l-4.72-10.75Z"/>
    <path class="st10" d="M95.79,146.47s-.43,4.16,0,6.74-.29,3.3-2.87,4.3c-2.58,1-4.59,1.58-4.73,3.15-.14,1.58.57,2.58,2.58,2.29,0,0,1.95,1.58,5.13,1s7.62-1.29,8.2-3.73c.57-2.44-.29-9.75,0-11.32.29-1.58.2-3.73.2-3.73,0,0,59.57-11.9,62.29-12.18,2.72-.29,18.06,1.86,18.49,4.16.43,2.29,2.13,6.45-.6,7.6-2.72,1.15-6.28,9.89-5.42,10.75.86.86,3.15.43,3.15.43,0,0-1.29,2.01,1.86,2.15,3.15.14,4.87-2.87,4.59-5.3-.29-2.44,0-7.6,2.87-9.75,2.87-2.15,4.73-6.31,5.3-9.17.57-2.87,8.6-26.52,8.89-28.38.29-1.86.29-4.73,10.46-9.17,10.18-4.44,16.63-8.31,21.64-15.34,5.02-7.02,10.89-12.47,13.47-13.62,2.58-1.15-3.01-1.29-7.74,1.43-4.73,2.72-11.32,14.19-21.21,16.05-9.89,1.86-27.09,13.74-27.09,13.74l-99.47,47.89Z"/>
    <path class="st1" d="M92.64,82.98s4.01,5.16,4.01,8.31c0,0,5.16-.14,6.74,1l1.58,1.15s12.76,0,16.34.86c3.58.86,33.4,1,46.58,1.29,13.19.29,28.24.86,32.54,4.01,4.3,3.15,5.02,6.02,8.31,8.46,3.3,2.44,7.45,10.61,9.6,16.48l2.15,5.88s8.74-.14,9.6,3.3c.86,3.44-5.45,14.91-5.59,18.78-.14,3.87.29,6.88-3.15,8.31-3.44,1.43-9.03.72-9.46,0l-.43-.72s-2.29.57-2.58-.43c-.29-1,1.43-3.87,4.3-4.59,2.87-.72,3.44.57,4.87-2.72,1.43-3.3,1.43-10.75,0-11.04-1.43-.29-7.6,1.72-10.89,1.58-3.3-.14-10.61-3.87-15.34-6.74-4.73-2.87-17.92-.86-32.97,1.72-15.05,2.58-50.31,10.75-58.34,10.03-8.03-.72-9.32-2.29-9.32-2.29,0,0-5.16,6.59-8.6,10.75-3.44,4.16-6.16,11.18-11.18,11.75-5.02.57-5.73,0-5.73,0,0,0-4.73.43-4.59-3.15.14-3.58,2.87-4.01,6.31-5.45,3.44-1.43,5.73-6.02,6.45-9.32.72-3.3,6.31-10.32,6.31-10.32,0,0-13.62-8.6-13.33-16.48.29-7.88-.57-12.61-1.58-15.34-1-2.72-2.01-11.32-2.29-18.49-.29-7.17-.29-16.05-4.01-19.21-3.73-3.15-5.88-.43-15.34-3.15-9.46-2.72-6.45-8.6-6.45-8.6,0,0-1.43-8.17.29-9.46,1.72-1.29,13.19-.29,16.91-1.72,3.73-1.43,6.74-5.16,10.18-5.59,3.44-.43,11.75.43,17.49,4.73,5.73,4.3,5.73,6.74,7.02,7.74,1.29,1,9.46,10.03,10.46,16.63,1,6.59-1.86,8.31-6.88,12.04"/>
    <path class="st3" d="M91.92,83.98s-6.88,6.45-11.18,6.45-7.31-5.59-6.59-10.18c.72-4.59,3.58-9.32,6.45-11.75,2.87-2.44,4.59-5.88,4.3-9.46-.29-3.58-1-5.45.57-4.3,1.58,1.15,3.87,2.58,5.3,6.16,1.43,3.58,4.01,5.16,5.59,8.74,1.58,3.58,4.73,6.31-4.44,14.33"/>
    <path class="st3" d="M83.32,54.4s-.29,1.34,0,2.77c.29,1.43-.13,3.87-.13,3.87,0,0-3.03-5.69.13-6.64"/>
    <path class="st3" d="M80.17,139.88s1.29-3.01,1.72-4.16c.43-1.15-5.59-3.87-5.87-10.18-.29-6.31-.79-6.88-1.97-8.6-1.18-1.72,1.54-9.03,1.54-14.05v-5.02s-2.72,11.4-6.74,10.03c-4.01-1.37-4.16-14.48-2.87-18.63,1.29-4.16.85-14.76-.72-18.63-1.57-3.87-7.45-4.73-12.03-5.3-4.59-.57-14.62-1.15-16.05-6.74,0,0-3.73,4.61,4.01,7.97,7.74,3.36,15.38,1.19,17.91,4.93,2.53,3.74,3.45,13.33,3.45,21.64s3.49,16.49,3.83,19.43c.34,2.94-5.4,17.12,13.8,27.29"/>
    <path class="st6" d="M37.45,49.15s-3.44-.29-3.58,1.86c-.14,2.15.72,7.74,3.3,7.6,2.58-.14,4.44-4.3,4.01-6.31-.43-2.01-1.72-2.58-3.73-3.15"/>
    <path class="st3" d="M60.96,49.72c.24-.67,2.72-3.44,5.16-3.3,2.44.14,3.15,3.58,4.73,5.45,1.58,1.86,1,3.44-1.72,3.44s-10.18,0-8.17-5.59"/>
    <path class="st10" d="M62.11,50.87s1.66-3,4.06-2.86c2.4.14,3.96,4.3,3.82,4.73-.14.43-3.01,1.85-4.87,1.14-1.86-.71-3.81-1.89-3.01-3.01"/>
    <path class="st5" d="M63.68,50.87s.63-1.55,2.49-1.73,1.96,2.31,1.67,2.88c-.29.57-4.33.89-4.16-1.15"/>
    <path class="st3" d="M96.22,92.29s-.43,4.4-4.59,6.29l-4.16,1.88s9.6-.86,8.74-8.17"/>
    <path class="st3" d="M103.82,94.59s.72,2.44-3.15,5.88c-3.87,3.44-10.18,4.59-10.18,4.59,0,0,14.91-.72,13.33-10.47"/>
    <path class="st3" d="M91.2,145.61s8.31-7.02,9.6-11.18c1.29-4.16,2.01-5.59,5.16-5.88l3.15-.29s-4.21,1-5.19,3.01c-.98,2.01-6.71,13.33-12.73,14.33"/>
    <path class="st3" d="M184.51,113.36s-2.01,5.3,0,10.61c2.01,5.3,11.11,16.06,21.97,18.85,0,0,1.4,1.07,11.57-1.51,0,0,.69,12.89-2.74,13.47,0,0,4.46-.29,5.32-2.87s3.44-12.18,1.72-13.04c-1.72-.86-9.03.72-12.76-.29-3.73-1-9.89-20.78-14.48-25.23-4.59-4.44-9.03-1.43-10.61,0"/>
    <path class="st3" d="M219.63,132.76s7.25-1.31,8.74,1.24c1.49,2.56-3.3,12.33-3.3,12.33,0,0,2.01-9.32,1-10.75-1-1.43-9.75.66-6.45-2.82"/>
    <path class="st3" d="M95.07,132.76s1.2-.45,5.09-6.07c3.86-5.57.36-12.36,2.08-10.55,1.72,1.81,1,14.22-7.17,16.61"/>
    <path class="st5" d="M33.87,51.01s2.99-1.01,3.68,1.43c.68,2.45,1.08,5.82-.38,6.16-2.01.47-4.85-5.94-3.3-7.6"/>
    <path class="st8" d="M64.7,50.79s-.2-1.23,1.47,0c1.67,1.23-.78.46-1.47,0"/>
    <path class="st3" d="M62.7,55.04s2.59,1.64,6.04.91c3.45-.73,3.68-2.3,2.89-3.44,0,0,3.02,3.29-2.89,4.61-5.91,1.32-6.04-2.08-6.04-2.08"/>
    <path class="st3" d="M60.36,49.13s4.05-4,7.19-2.71c3.23,1.32,2.45,1.32,2.45,1.32,0,0-1.34-2.51-5.31-1.98-3.96.53-4.33,3.36-4.33,3.36"/>
    <path class="st10" d="M82.03,120.79s-3.51,3.56-3.47,7.14c.03,3.58,3.47,7.82,3.47,7.82,0,0-2.68-6.35-1.74-8.87s1.74-6.09,1.74-6.09"/>
    <path class="st3" d="M222.35,138.88s-8.76.86-8.63-1.13c.13-1.98-1.06-11.25-5.69-16.68-4.63-5.43-5.56-5.29-5.29-7.15.26-1.85-6.09-.66-7.81.66-1.72,1.32,8.21,22.84,12.84,24.79,4.63,1.95,14.58-.5,14.58-.5"/>
    <path class="st3" d="M184.51,113.36s1.59-3.92,6.64-4.15c5.06-.23,12.23-.38,11.78,6.11-.45,6.49-19.17.59-18.42-1.97"/>
    <path class="st10" d="M184.49,135.7s.87,7.2,0,7.82c-.87.61-3.29,6.11-4.41,7.54-1.12,1.43-4.24,1.8-4.77,3.44-.52,1.64.1,3.51,2.5,3.3,2.4-.21,4.23-.57,4.23-.57,0,0,4.21-1.62,4.62-4.23.42-2.61,3.78-11.07,2.92-14.48-.86-3.42-5.1-2.81-5.1-2.81"/>
    <path class="st3" d="M212.08,157.8s-1.2,2.6-.14,3.21c1.72.99,4.6.62,4.6.62,0,0-2.47,0-3.31-1.91-.83-1.91-1.16-1.91-1.16-1.91"/>
    <path class="st3" d="M218.35,159.72s.72,1.84,1.86,1.46c1.14-.38-1.86-1.46-1.86-1.46"/>
    <path class="st3" d="M61.14,165.65s1.34,1.37,2.71,1.55c1.37.18,1.55,0,1.55,0,0,0-1.18-1-.67-2.11.52-1.11.96-1.18.96-1.18,0,0-.63,2.25.44,3.1,1.07.85,2.81,1,3.77.85.96-.15,1.29-.41,1.29-.41,0,0,.45.73,1.19.46,0,0-5.01,1.45-6.71.2,0,0-4.48.79-4.55-2.47"/>
    <path class="st10" d="M84.51,54.72s-.86-.8-.65,1.67c.22,2.47.44,9.18-4.78,13.62-5.22,4.44-4.93,10.25-4.93,10.25,0,0,3.05-7.96,5.63-9.89s5.81-5.7,5.7-8.6c-.11-2.9.31-7.29-.96-7.04"/>
    <path class="st10" d="M37.55,59.63s.6,3.06,3.08,3.89,6.31,1.59,10.09,2.01c3.78.41,6.33.39,6.33.39,0,0-5.97-.86-9.75-1.57-3.78-.71-5.49-1.12-6.61-1.95-1.12-.83-3.13-2.77-3.13-2.77"/>
  </g>
  <g>
    <path class="st7" d="M61.63,256.57c-.88,0-1.68-.34-2.24-.82v-1.46c.46.24,1.06.4,1.62.4,1.16,0,2.04-.62,2.04-2.02v-16.18h2.24c-.2,2.66-.24,13-.24,16.34,0,2.58-1.7,3.74-3.42,3.74Z"/>
    <path class="st7" d="M69.41,247.44c0,1.92,1.28,2.92,3.22,2.92.9,0,1.68-.22,2.4-.66v1.1c-.74.72-1.84,1.2-2.98,1.2-2.5,0-4.26-1.56-4.26-4.24,0-3.16,2.16-5.26,4.86-5.26,1.92,0,2.92,1.24,2.92,2.68,0,.6-.18,1.2-.54,1.68l-5.54-.18c-.06.28-.08.52-.08.76ZM72.35,243.98c-1.02,0-2.06.52-2.58,1.66l4.26-.06c0-1.02-.56-1.6-1.68-1.6Z"/>
    <path class="st7" d="M76.61,251.66l-.06-.46c.7-.64,4.72-5.94,5.7-6.98-2.3.04-3.62.1-4.96.3v-1.66h7.5l.04.46c-.6.64-4.5,5.88-5.54,7,1.76-.02,3.96-.08,5.4-.24l-.2,1.58h-7.88Z"/>
    <path class="st7" d="M87.55,247.44c0,1.92,1.28,2.92,3.22,2.92.9,0,1.68-.22,2.4-.66v1.1c-.74.72-1.84,1.2-2.98,1.2-2.5,0-4.26-1.56-4.26-4.24,0-3.16,2.16-5.26,4.86-5.26,1.92,0,2.92,1.24,2.92,2.68,0,.6-.18,1.2-.54,1.68l-5.54-.18c-.06.28-.08.52-.08.76ZM90.49,243.98c-1.02,0-2.06.52-2.58,1.66l4.26-.06c0-1.02-.56-1.6-1.68-1.6Z"/>
    <path class="st7" d="M99.59,251.8h-1.38c-.86-2.82-2.54-6.66-3.76-8.94h2.08c.8,1.76,2.04,4.96,2.52,6.6.78-1.82,1.94-4.72,2.44-6.6h1.84c-.76,2.1-2.66,6.22-3.74,8.94Z"/>
    <path class="st7" d="M108.17,252c-2.44,0-4.2-1.54-4.2-4.3,0-3.18,2.38-5.2,4.92-5.2.82,0,1.54.16,2.1.44v1.92c-.72-.42-1.4-.64-2.28-.64-2.1,0-3.06,1.44-3.06,3.16s1.04,2.86,2.98,2.86c.96,0,1.72-.24,2.36-.7v1.16c-.54.72-1.6,1.3-2.82,1.3ZM107.69,241.38l-2.42-4.22,1.02-.08,2.18,2.78,2.18-2.78.9.08-2.42,4.22h-1.44Z"/>
    <path class="st7" d="M113.83,241.38l-1.02-.08,2.52-4.22h1.92l-3.42,4.3ZM113.09,242.86l1.92-.28c-.18,1.62-.22,6-.22,9.08h-1.7v-8.8Z"/>
    <path class="st7" d="M123.55,242.86h2.2c-1.4,1.62-3.06,3.44-4.02,3.98,1.04.8,3.2,3.24,4.2,4.82h-2.34c-.2-.8-3.32-4.32-3.94-4.36-.02,1-.04,3.06-.04,4.36h-1.68v-15.5l1.98-.18c-.1,1.52-.26,6-.3,10.98.62-.06,2.86-2.58,3.94-4.1Z"/>
    <path class="st7" d="M134.41,251.66h-1.74v-15.5l1.98-.18c-.14,1.58-.26,5.78-.26,7.42.8-.44,1.74-.76,2.66-.76,1.68,0,3.04,1.04,3.04,3.6v5.42h-1.74v-5.22c0-1.68-.94-2.24-1.98-2.24-.76,0-1.36.28-1.92.6-.04,2.82-.04,5.42-.04,6.86Z"/>
    <path class="st7" d="M142.63,236.16l1.96-.18c-.2,2.88-.26,12.6-.26,15.68h-1.7v-15.5Z"/>
    <path class="st7" d="M148.53,252c-1.4,0-2.22-.76-2.22-2.14,0-1.86,1.84-3.5,5.06-3.88v-.52c0-.94-.56-1.38-1.62-1.38-.92,0-1.74.22-2.64.66v-1.8c.98-.3,1.88-.44,2.72-.44,2,0,3.22.86,3.22,2.76,0,1.66-.08,2.96-.08,3.98s.18,1.84.38,2.42h-1.56c-.12-.56-.18-1.18-.18-1.86-.64,1.56-1.84,2.2-3.08,2.2ZM148.11,249.46c0,.62.34.98,1.02.98s2.18-.62,2.24-3.3c-2.24.4-3.26,1.34-3.26,2.32Z"/>
    <path class="st7" d="M158.97,251.9c-2.62,0-4.02-1.98-4.02-4.32s1.62-5,4.8-5c1.02,0,1.78.28,2.4.74v-7.16l1.96-.18c-.2,2.8-.24,10.5-.24,13,0,1.02.12,2.06.28,2.68h-1.2c-.1-.34-.18-.78-.22-1.2-.94.88-2.18,1.44-3.76,1.44ZM162.15,247c0-2.02-.72-3.04-2.48-3.04s-2.78,1.5-2.78,3.38.98,3.06,2.8,3.06c.98,0,1.86-.44,2.46-.96v-2.44Z"/>
    <path class="st7" d="M172.19,242.86h2.2c-1.4,1.62-3.06,3.44-4.02,3.98,1.04.8,3.2,3.24,4.2,4.82h-2.34c-.2-.8-3.32-4.32-3.94-4.36-.02,1-.04,3.06-.04,4.36h-1.68v-15.5l1.98-.18c-.1,1.52-.26,6-.3,10.98.62-.06,2.86-2.58,3.94-4.1Z"/>
    <path class="st7" d="M184.35,247.28c0,2.78-1.98,4.72-4.68,4.72s-4.66-1.98-4.66-4.72,1.96-4.78,4.68-4.78,4.66,2,4.66,4.78ZM176.93,247.28c0,1.9,1.16,3.34,2.82,3.34s2.66-1.38,2.66-3.3-1.12-3.4-2.8-3.4-2.68,1.38-2.68,3.36Z"/>
    <path class="st7" d="M185.63,250.9v-1.1c.76.56,1.54.82,2.44.82.98,0,1.52-.38,1.52-1.14,0-1.72-3.7-1.28-3.7-4.2,0-1.62,1.36-2.78,3.1-2.78.88,0,1.44.14,1.92.38v1.84c-.52-.42-1.1-.68-1.86-.68-.86,0-1.42.42-1.42,1.14,0,1.74,3.76,1.38,3.76,4.18,0,1.88-1.6,2.64-3.14,2.64-1.1,0-1.94-.4-2.62-1.1Z"/>
    <path class="st7" d="M195.17,245.06v6.6h-1.74v-5.5c0-1.6-.24-2.64-.52-3.3h1.28c.18.34.32.86.36,1.28.66-.92,1.7-1.62,2.76-1.62.56,0,.96.14,1.3.4v1.96c-.56-.4-1-.56-1.62-.56-.7,0-1.36.28-1.82.74Z"/>
    <path class="st7" d="M199.65,250.9v-1.1c.76.56,1.54.82,2.44.82.98,0,1.52-.38,1.52-1.14,0-1.72-3.7-1.28-3.7-4.2,0-1.62,1.36-2.78,3.1-2.78.88,0,1.44.14,1.92.38v1.84c-.52-.42-1.1-.68-1.86-.68-.86,0-1.42.42-1.42,1.14,0,1.74,3.76,1.38,3.76,4.18,0,1.88-1.6,2.64-3.14,2.64-1.1,0-1.94-.4-2.62-1.1Z"/>
    <path class="st7" d="M209.97,239.92c-.08,1.24-.08,2.24-.1,2.94h3.04v1.44l-3.06-.06c-.08,1.32-.08,3.14-.08,4.48,0,1.18.52,1.68,1.38,1.68.64,0,1.34-.2,1.76-.54v1.14c-.68.66-1.5,1-2.52,1-1.42,0-2.32-.76-2.32-2.82v-4.98h-1.78v-.72c.52-.12,1.3-.36,1.78-.62v-2.58l1.9-.36Z"/>
    <path class="st7" d="M217.49,251.36c-.74-2.28-2.42-6.22-3.64-8.5h2.08c.72,1.64,2.04,4.92,2.52,6.58.76-1.78,1.92-4.68,2.46-6.58h1.82c-.78,2.12-2.4,5.8-3.44,8.14-.8,1.86-2.14,4.72-2.86,6.66h-1.84c.82-2.08,1.88-4.32,2.9-6.3ZM218.43,241.38l-1.02-.08,2.52-4.22h1.92l-3.42,4.3Z"/>
  </g>
</svg>