<?xml version="1.0" encoding="UTF-8"?>
<svg id="Vrstva_1" xmlns="http://www.w3.org/2000/svg" xmlns:xlink="http://www.w3.org/1999/xlink" version="1.1" viewBox="0 0 283.46 283.46">
  <!-- Generator: Adobe Illustrator 30.1.0, SVG Export Plug-In . SVG Version: 2.1.1 Build 136)  -->
  <defs>
    <style>
      .st0 {
        fill: #614734;
      }

      .st1 {
        fill: none;
      }

      .st2 {
        fill: #cfcac6;
      }

      .st3 {
        fill: #999385;
      }

      .st4 {
        fill: #3c3c3b;
      }

      .st5 {
        fill: #a8a397;
      }

      .st6 {
        fill: #af9e92;
      }

      .st7 {
        fill: #1d1d1b;
      }

      .st8 {
        clip-path: url(#clippath-1);
      }

      .st9 {
        clip-path: url(#clippath-3);
      }

      .st10 {
        clip-path: url(#clippath-2);
      }

      .st11 {
        fill: #fff;
      }

      .st12 {
        fill: #a5a2a0;
      }

      .st13 {
        clip-path: url(#clippath);
      }

      .st14 {
        fill: #e3ddd8;
      }
    </style>
    <clipPath id="clippath">
      <rect class="st1" x="19.84" y="19.84" width="243.78" height="243.54"/>
    </clipPath>
    <clipPath id="clippath-1">
      <rect class="st1" x="68.15" y="76.98" width="1.17" height="1.08"/>
    </clipPath>
    <clipPath id="clippath-2">
      <rect class="st1" x="51.01" y="76.73" width="1.33" height="1.05"/>
    </clipPath>
    <clipPath id="clippath-3">
      <rect class="st1" x="19.84" y="19.84" width="243.78" height="243.54"/>
    </clipPath>
  </defs>
  <rect class="st5" x="19.84" y="19.84" width="243.78" height="243.54"/>
  <g class="st13">
    <path class="st3" d="M88.4,221.19s5.68,2.7,9.47,2.7,11.09-2.7,14.33-2.16c3.24.54,26.77,1.35,37.59,2.43,10.82,1.08,23.53,0,27.59,1.89,4.06,1.89,13.61,3.39,16.95,2.37,3.33-1.02,3.6-6.7,3.6-6.7,0,0,8.38-1.08,8.38-3.25s-9.19-4.06-15.14-2.97c-5.95,1.08-10.55.54-28.4-2.43-17.85-2.97-36.51-3.52-42.46-2.97-5.95.54-14.87,2.7-14.87,2.7l-17.04,8.38Z"/>
    <path class="st14" d="M218.91,119.1s-.72,10.26-4.06,22.92c-3.34,12.65-5.73,21.48-1.91,32.23,3.82,10.74,6.21,11.94,5.49,14.32-.72,2.39-3.58,9.55-6.45,17.19-2.86,7.64-2.15,11.93-5.01,13.61-2.86,1.67-7.64-.72-7.64-1.67s8.12-26.02,8.12-26.02c0,0-6.45-26.74-3.1-37.24,3.34-10.5,14.56-35.33,14.56-35.33"/>
    <path class="st14" d="M110.06,158.96s5.49,10.74,5.73,21.25c.24,10.5,1.91,13.37,1.91,16.95s-2.39,5.49-2.86,9.55c-.48,4.06.72,8.59-1.91,10.98-2.63,2.39-10.98,0-10.98,0,0,0,6.68-20.05,6.92-26.74.24-6.68,1.19-31.99,1.19-31.99"/>
    <path class="st11" d="M90.48,148.94s7.64,19.81,8.83,28.41c1.19,8.59,1.19,18.14,2.15,22.2.95,4.06-2.39,13.13-5.25,14.56-2.87,1.43-3.58-1.67-6.69,2.86-3.1,4.54.24,4.77.24,4.77,0,0,2.15,1.43,5.73.96l3.58-.48s3.1.72,5.25-3.58c2.15-4.3,5.25-10.5,6.92-11.94,1.67-1.43,1.91-6.92,1.19-9.79-.72-2.86-1.91-33.42-.96-37.24.96-3.82.96-7.4.96-7.4,0,0,13.13.24,18.62-2.63,5.49-2.86,14.08-8.35,19.81-10.26,5.73-1.91,25.54-13.13,25.54-13.13,0,0,5.25,1.91,6.21,7.16.95,5.25.72,17.19,2.63,24.11,1.91,6.92,10.26,22.44,10.26,25.54s-.24,6.45.24,8.83c.48,2.39,1.67,7.16.71,12.17-.95,5.01-3.82,13.61-5.49,14.56-1.67.95-5.25.48-8.59,3.1-3.34,2.63-3.58,2.63-1.19,4.3,2.39,1.67,4.77,1.19,4.77,1.19,0,0-.71,1.91,3.1,2.39,3.82.48,5.25-1.19,5.25-1.19,0,0,2.63-.72,3.1-2.39.48-1.67,6.21-17.19,7.4-20.77,1.19-3.58,3.1-9.07,5.25-10.98,2.15-1.91.48-6.92-1.19-8.83-1.67-1.91-4.3-14.8-3.58-20.77.72-5.97,2.63-9.31,3.58-12.65.95-3.34,3.82-14.08,7.16-21.48,3.34-7.4,3.58-11.94,2.87-16.23l-.72-4.3s1.67,17.19,8.35,21.96c6.68,4.78,9.07,6.92,18.14,5.25,0,0,6.92-1.91,7.4-5.01.48-3.1-5.97,0-9.79.48-3.82.48-8.12.24-12.41-5.25-4.3-5.49-5.49-18.62-7.64-24.35-2.15-5.73-18.14-18.62-33.66-19.81-15.52-1.19-37,5.25-45.83,6.68-8.83,1.43-23.87-.24-27.69-1.67-3.82-1.43-11.94-2.63-14.32-2.63s-19.39-6.25-21.54-7.69c-2.15-1.43-19.52,24.87-19.52,24.87,0,0,.48,4.78,3.58,7.4,3.1,2.63,5.97,7.88,6.92,11.94.96,4.06.72,9.31,8.36,15.76,7.64,6.44,11.93,10.98,11.93,10.98"/>
    <path class="st14" d="M161.14,128.41s3.58-3.1,8.59-2.87c5.01.24,6.68.72,6.68.72,0,0-10.98,7.88-16.71,10.74-5.73,2.86-13.13,5.49-16.95,7.88-3.82,2.39-17.19,10.98-30.32,7.4,0,0,.95-.71-.72-3.34-1.67-2.63-3.58-1.91-2.86-5.49l.72-3.58s1.43,7.64,7.64,8.59c6.21.96,15.52-2.15,20.77-5.49,5.25-3.34,20.29-12.89,23.15-14.56"/>
    <path class="st14" d="M90.48,148.94s-5.73-7.4-7.64-11.46c-1.91-4.06-3.82-6.21-4.77-10.5-.96-4.3-5.01-7.64-6.21-8.83s-3.58-6.44-3.58-9.55-3.1-7.4-3.1-7.4l-5.49,1.67s.85,5.79,3.96,8.68c3.14,2.93,5.16,5.23,5.64,10,.48,4.77,3.29,11.87,8.3,16.4,5.01,4.53,12.89,10.98,12.89,10.98"/>
    <path class="st14" d="M77.59,96.18s-1.19,4.54-2.62,6.68c-1.43,2.15-2.15,6.21-1.67,9.55.48,3.34,1.45,9.41,1.45,9.41l-2.89-3.68s-2.62-10.03.48-14.56c3.1-4.53,5.25-7.4,5.25-7.4"/>
    <path class="st14" d="M45.27,77.86s.68,5.41,2.16,7.98c1.49,2.57,2.97,3.52,3.38,5.81.41,2.3-1.22,5.81-.41,7.84.81,2.03,1.08,4.19,2.7,4.06,1.62-.14,2.43-1.89,4.87-1.89s4.73,1.62,7.17,1.89c2.43.27,4.46-2.84,4.87-3.92.41-1.08,0-4.6.27-5.41.27-.81,3.92-2.98,5.41-6.63,1.49-3.65,1.89-9.2,1.89-9.2,0,0,.81-3.92-1.08-8.79-1.89-4.87-5-7.44-5-7.44,0,0-7.44-2.98-11.76-2.43-4.33.54-8.52,3.25-9.74,3.38-1.22.13-3.92,1.49-4.33,4.33-.41,2.84-.41,10.41-.41,10.41"/>
    <path class="st7" d="M46.21,63.66s-1.76,1.62-3.65,2.3c-1.89.68-8.52,5.54-9.33,6.76-.81,1.22.95,7.03,2.57,9.06,1.62,2.03,2.97,2.71,3.52,4.19.54,1.49.13,3.79.81,4.6.68.81,1.35.95,2.97-1.22,1.62-2.16,1.76-7.98,1.76-9.87s-.54-8.38,1.49-9.87c2.03-1.49,3.92-6.22,2.84-6.36-1.08-.13-2.84,0-2.97.41"/>
    <path class="st4" d="M38.5,69.97c.06.42.81,2.16,1.22,3.79.41,1.62.95,2.03,2.03,1.35,1.08-.68,1.62-7.84.68-8.25,0,0-4.06,2.16-3.92,3.11"/>
    <path class="st4" d="M39.87,85.34s1.22-.68,2.16-2.3c.95-1.62,1.35-.54,1.35.54s-.67,5.27-.67,5.27c0,0-.41,2.03-1.76,1.35-1.35-.68-1.22-3.92-1.08-4.87"/>
    <path class="st7" d="M71.64,64.33s.95,2.98,2.57,3.65c1.62.68,2.84,6.22,3.38,9.87.54,3.65,1.08,12.71,3.11,12.58,2.03-.14,1.22-5.14,2.7-6.09,1.49-.95,4.73-7.44,4.6-9.33-.14-1.89,1.76-3.92,1.08-5.27-.68-1.35-5.95-4.73-8.52-5.54-2.57-.81-9.06-3.65-9.06-2.03s.14,2.16.14,2.16"/>
    <path class="st4" d="M75.56,64.06s2.03,1.22,3.38,2.3c1.35,1.08,3.65,3.65,5.14,2.98,1.49-.68-.63-1.94-.63-1.94,0,0-2.98-2.45-4.47-2.72-1.49-.27-3.48-2.42-3.88-1.75-.41.68.19,1.27.46,1.13"/>
    <path class="st14" d="M86.1,84.35s1.76,3.38,1.08,6.49c-.68,3.11-3.65,9.6-4.87,11.76-1.22,2.16-1.62,2.16-1.62,2.16,0,0,4.6-4.87,6.36-10.41,1.76-5.54.13-9.87-.95-10.01"/>
    <path class="st2" d="M54.87,102.33s2.43.95,4.6,1.22c2.16.27,3.38-1.08,3.38-1.08,0,0-3.38-2.3-7.98-.13"/>
    <path class="st11" d="M49.86,83.26s-3.24-5.14-2.43-7.3c.81-2.16,3.79-5.27,4.73-6.9.95-1.62,3.38-6.9,8.25-7.17,4.87-.27,7.84,4.73,8.79,5.95.95,1.22,4.87,3.38,4.87,8.92s-3.38,7.84-3.38,9.74-.27,6.9-.4,7.71c-.14.81.27,9.06-3.79,9.33-4.06.27-5.14-1.49-7.71-1.49s-5.54,2.03-6.49,1.49c-.95-.54-3.11-5.27-2.43-7.17.68-1.89,1.22-5.14.81-8.11-.41-2.98-.81-5-.81-5"/>
    <path class="st7" d="M58.25,91.38s-2.84.27-4.06,2.3c-1.22,2.03.27,4.73,2.16,5.68,1.89.95,5,.4,5.54,0,.54-.41,2.98-3.25,2.3-5.27-.68-2.03-4.73-3.11-5.95-2.7"/>
    <path class="st4" d="M55.81,94.89s3.79-1.08,5.14-.54c1.35.54,1.62,1.76,1.62,1.76,0,0,.95-2.43-1.22-3.38-2.16-.95-5.27.68-5.27.68,0,0-.95.81-.27,1.49"/>
    <path class="st14" d="M80.29,93s-.95,1.76-1.49,5c-.54,3.25-2.71,6.36-2.71,6.36,0,0,2.43-2.57,3.25-4.73.81-2.16.95-6.63.95-6.63"/>
    <path class="st7" d="M61.76,89.75s0-1.35.68-1.22c.68.14,2.57,2.57,1.62,2.57s-2.3-1.35-2.3-1.35"/>
    <path class="st7" d="M58.65,85.16s1.62.13,2.84.54,1.62.68,1.62,0-1.35-1.35-2.16-1.35-2.43,0-2.3.81"/>
    <path class="st7" d="M56.36,87.73c-.41,0-1.49,2.16-.41,2.16s1.62-.81,1.49-1.76c-.13-.95-1.08-.41-1.08-.41"/>
    <path class="st7" d="M64.74,83.13s-.95-1.35-1.22-2.98-.68-3.79.14-3.79,1.35,4.19,1.76,4.87c.4.68,1.62,1.35,1.08,1.76-.54.4-1.76.13-1.76.13"/>
    <path class="st7" d="M52.84,81.64s.13,1.49.54,1.76c.41.27.41,2.03.41,2.43s0,1.35.41.81c.41-.54.41-3.92.27-4.33-.14-.41-1.62-.68-1.62-.68"/>
    <path class="st7" d="M51.89,81.78s-.13-1.08-.54-1.22c-.41-.14-2.7-.81-2.97-2.84-.27-2.03,2.43-3.51,3.65-3.24,1.22.27,1.76,2.57,1.76,3.52s-.95,4.6-1.89,3.79"/>
    <path class="st7" d="M66.5,80.15s-.68-2.84-.54-3.92c.14-1.08,1.35-1.49,3.52-1.08,2.16.4,3.25,2.03,2.7,2.84-.54.81-1.62.54-1.89,1.35-.27.81-2.43,2.3-3.79.81"/>
    <path class="st0" d="M66.71,78.06s-.44-1.66.89-2.11c1.33-.44,2.33.22,2.55.89.22.67-.61,2.11-1.94,2-1.33-.11-1.5-.78-1.5-.78"/>
    <path class="st0" d="M49.9,78.01s.33.44,1.61.33c1.28-.11,1.17-1.39.89-2.22-.28-.83-1.89-.61-2.39-.28-.5.33-.72,1.33-.11,2.16"/>
    <path class="st7" d="M67.6,77.45s.33.44.94.28c.61-.17.89-1.5-.11-1.55-1-.06-1.05.78-.83,1.28"/>
    <path class="st7" d="M50.56,75.95s-.56.61-.11,1.11c.44.5.83.39,1.17.11.33-.28.44-1,.06-1.17-.39-.17-1.11-.05-1.11-.05"/>
  </g>
  <g class="st8">
    <path class="st6" d="M69.06,77.09c-.04.19-.14.37-.27.5.09.22.14.48.14.48l.39-.78h0s-.09-.11-.25-.2"/>
    <path class="st12" d="M68.61,76.98c-.13,0-.28.02-.45.08,0,0,.34.11.5.28.05.05.1.14.14.24.13-.12.23-.3.27-.5-.11-.06-.27-.11-.46-.11"/>
  </g>
  <g class="st10">
    <path class="st6" d="M51.81,76.92c-.05.1-.12.19-.19.26,0,0,0,0,0,0l-.06.61s.72-.17.78-.5c.02-.15-.23-.27-.53-.37"/>
    <path class="st12" d="M51.01,76.73h0l.61.44h0c.08-.07.14-.15.19-.26-.36-.12-.78-.18-.8-.19"/>
  </g>
  <g class="st9">
    <path class="st4" d="M66.82,79.06s.89.33,1.5.33,1.33-.39,1.33-.39c0,0-1.72,1.72-2.83.05"/>
    <path class="st4" d="M49.79,78.62s.78.67,2,.33c1.22-.33,1.44-.83,1.44-.83,0,0-.56,1.44-1.44,1.44s-2.33-.33-2-.94"/>
    <path class="st4" d="M67.1,76.01s.5-.72,1.83-.28c1.33.44,1.44,1.22,1.44,1.22,0,0,.33-1.55-1.44-1.78-1.78-.22-1.83.83-1.83.83"/>
    <path class="st4" d="M49.29,76.18s1-1,2.11-.78,1.5.94,1.5.94c0,0-.33-1.11-1.28-1.39-.94-.28-2.33.78-2.33,1.22"/>
    <path class="st14" d="M53.45,90.6c0,.28-.83,3.55-1.05,4.94-.22,1.39.22,3.94.78,4.72.55.78,1.28.89,1.05,1-.22.11-2.22-.83-2.5-3.22s1.72-7.44,1.72-7.44"/>
    <path class="st14" d="M66.27,92.05s.39,6.16.17,7.38c-.22,1.22-1.89,1.39-1.83,1.72.06.33,1.83.39,2.44-1.72.61-2.11-.78-7.38-.78-7.38"/>
    <path class="st2" d="M76.5,85.09s-.81,3.21-2.25,4.71c-1.44,1.5-3.99,3.86-3.99,3.86,0,0,.26,4.51-.51,5.89-.78,1.39-.71,1.87-.71,1.87,0,0,2.28-.17,3.11-1.83.83-1.67.61-4.94.94-5.71.33-.78,4.68-5.45,3.41-8.78"/>
    <path class="st7" d="M63.6,105.31s0,1.05.78,1.72c.78.67,1.94,1.17,2.05.11.11-1.05-1-3.05-1.94-3-.94.05-.89,1.16-.89,1.16"/>
    <path class="st7" d="M80.92,99.7s1.55.33,1.94-.33c.39-.67.22-3-.72-3.16-.94-.17-1.72,2-1.78,2.39-.06.39-.44.83.56,1.11"/>
    <path class="st7" d="M84.52,84.72s.78.83.5,1.66c-.28.83-.39,1.5.28,1.39.67-.11.56-2.05.39-2.72-.17-.67-1.17-.33-1.17-.33"/>
    <path class="st7" d="M94.57,98.59s-1.83-.39-1.83-1.17,1.17-3.99,2.16-3.83c1,.17,1.39,2.66,1,3.88-.39,1.22-1.33,1.11-1.33,1.11"/>
    <path class="st7" d="M99.06,92.32s-.5,2.55.11,3.66,2.11,1.11,3,.67c.89-.44.22-2.72-.33-3.38-.56-.67-2.05-1.55-2.78-.94"/>
    <path class="st7" d="M95.07,100.65s-1.5.61-1.67,1.61c-.17,1-.17,2.16,1,2,1.17-.17,2.05-1.89,1.55-2.89-.5-1-.89-.72-.89-.72"/>
    <path class="st7" d="M93.4,105.86s-.39-.44-1,.17c-.61.61-1.5,2-.5,2.16,1,.17,2.33-.5,2.44-1.11.11-.61-.94-1.22-.94-1.22"/>
    <path class="st7" d="M104.28,105.81s-1.05.22-1.72,1.11c-.67.89-.11,4.83.94,4.99,1.05.17,1.55-.56,1.83-1.33.28-.78.44-4.77-1.06-4.77"/>
    <path class="st7" d="M96.23,108.69s-2,.17-2.5,1.11c-.5.94-1.33,3.99.61,4.55,1.94.55,2.66-1.28,2.78-2.22.11-.94,1.22-3.55-.89-3.44"/>
    <path class="st7" d="M87.63,120.85s1.39-3.55,2.5-3.72c1.11-.17,1.61,1.78,1.17,3.55-.44,1.77-1.72,2.5-1.72,2.5,0,0-.06,2.22-.72,3.22-.67,1-2.5,1-2.5,1,0,0-2.33,2.61-2.89,1.55-.56-1.06-.22-2.55.33-2.78s1.33-.61,1.33-.61c0,0-1.28-.78-.22-2.66,1.05-1.89,2.72-2.05,2.72-2.05"/>
    <path class="st7" d="M77.64,122.29s.22-1.22.72-1.72c.5-.5,2-2.94,2.89-2.44.89.5.06,3.16-.28,4.38-.33,1.22-.17,2.28-1.17,2.44-1,.17-2.44-1-2.16-2.66"/>
    <path class="st7" d="M81.53,114.24s-.83,2.16.11,2.39,1.5-.61,1.39-1.39c-.11-.78-1.5-1-1.5-1"/>
    <path class="st7" d="M80.03,102.15s-.78,1.78-.06,1.83c.72.06,1.83-2.39,1.72-2.66-.11-.28-1.67.83-1.67.83"/>
    <path class="st7" d="M70.54,119.01s1.28.44,1.83,2.05c.56,1.61-.11,2.66.39,4.22.5,1.55-.11,4.05-.33,3.55-.22-.5-1.17-3-.94-4.5.22-1.5-.72-2.72-.78-3.5-.06-.78-.17-1.83-.17-1.83"/>
    <path class="st7" d="M76.26,125.95s-2.28,2.89-1.94,4.11c.33,1.22.83,2.22,2.05,1.61,1.22-.61,1-5.77-.11-5.71"/>
    <path class="st7" d="M81.03,131.22s1.5,3.27,2.05,4.22c.56.94.89,2.66,1.33,2.05.44-.61-1-3.55-1.28-4.5-.28-.94-2.11-1.77-2.11-1.77"/>
    <path class="st7" d="M88.52,137.22s-.33,1.5.72,2.22c1.06.72,2.17,1.05,2.17.11s-1.55-2.28-2-2.55c-.44-.28-.89.22-.89.22"/>
    <path class="st7" d="M95.12,119.96s-1,.28-1.61,1.11c-.61.83-.94,3.99-.11,4.33.83.33,2.22-.94,2.66-2.28.44-1.33.06-3.38-.94-3.16"/>
    <path class="st7" d="M97.56,127.01c-.17,0-2.05.78-2.05,1.5s.67,3.94,2.05,4.22c1.39.28,3.11-1.72,2.83-3.33-.28-1.61-2.83-2.39-2.83-2.39"/>
    <path class="st7" d="M98.06,117.13c.02.5,1.17,3.99,1.78,4.33.61.33,1.61-1.17,1.17-3.33-.44-2.16-3-2.5-2.94-1"/>
    <path class="st7" d="M106.22,118.29s-1.17-.5-1.83.5c-.67,1-.17,3.33.67,4.61.83,1.28,1.89,1.89,2.33.83.44-1.05-.22-5.94-1.17-5.94"/>
    <path class="st7" d="M104.06,124.95s-1,.94-1,2.27-.17,3.55,1,3.61c1.17.05,1.44-2.11,1.55-3.05.11-.94-1-3.22-1.55-2.83"/>
    <path class="st7" d="M112.27,128.78s-1.44.44-1.06,1.83c.39,1.39,1.06,1.5,1.39.89.33-.61.39-2.83-.33-2.72"/>
    <path class="st7" d="M116.93,123.45s-1.22,1.72-1.11,2.83c.11,1.11,1.89,1.66,2.28.28.39-1.39-.28-3.16-1.17-3.11"/>
    <path class="st7" d="M126.2,118.35s.61-2.89-.5-3.11c-1.11-.22-3.05.39-3.22,2-.17,1.61,1.22,2.61,1.22,2.61,0,0,.39,3.5,1.72,3.55,1.33.05,2.39-2.33,2.16-3.44-.22-1.11-1.39-1.61-1.39-1.61"/>
    <path class="st7" d="M122.76,97.21s-1.39.05-1.89.5c-.5.45-1.33,3.27-.06,3.44,1.28.17,1.78-.28,2.22-1.61.44-1.33-.28-2.33-.28-2.33"/>
    <path class="st7" d="M129.53,93.32s-1.33.11-1.61,1c-.28.89-.28,1.61.72,1.61s2.05-.5,1.89-1.33c-.17-.83-1-1.28-1-1.28"/>
    <path class="st7" d="M137.07,96.76s-.09-.02-.23-.05c-.52-.1-1.75-.24-2.1.49-.44.94-.22,2.55.83,2.72,1.05.17,2.28-.5,2.28-1.44s-.78-1.72-.78-1.72"/>
    <path class="st7" d="M135.52,108.8s-.83-.33-2.05.22c-1.22.56-2,2.94-1.06,3.66.94.72,3.88.67,4.49-1.05s-1.39-2.83-1.39-2.83"/>
    <path class="st7" d="M113.43,142.04c.11.94,2,2.89,3.33,3,1.33.11,3-.5,3.22-1.61s1.39-2.94-.39-3.72c-1.78-.78-6.33.94-6.16,2.33"/>
    <path class="st7" d="M124.09,141.21s-2.22-.22-2.55,1.66c-.33,1.89,1.61,3.05,2.89,2.66,1.28-.39,1.83-1.39,1.78-2.5-.06-1.11-2.11-1.83-2.11-1.83"/>
    <path class="st7" d="M131.14,143.65s-2.33.72-3.16,1.22c-.83.5-1.78.78-.89,1.39.89.61,5.99-1.33,5.72-2.11-.28-.78-1.66-.5-1.66-.5"/>
    <path class="st7" d="M148.84,120.01s-1.77,1.22-1.33,2.27c.44,1.06,1.06,2.22,3,1.5,1.94-.72,2.72-1.66,2-2.72-.72-1.05-3.22-1.33-3.66-1.05"/>
    <path class="st7" d="M138.46,122.4c-.11.39,1.83,2,3.5,1.77,1.66-.22,2.44-1.33,1.66-2.27-.78-.94-4.05-1.44-4.94-1.05-.89.39-.22,1.55-.22,1.55"/>
    <path class="st7" d="M146.84,126.56s-1.61,0-1.89,1.28c-.28,1.28-.44,3.11,1.44,3.55,1.89.45,3.28-.83,3.55-1.72.28-.89-1.83-3.27-3.11-3.11"/>
    <path class="st7" d="M140.51,133.78s-.67,2.72.55,3.05c1.22.33,3.89-.22,3.61-1.83-.28-1.61-3.83-2-4.16-1.22"/>
    <path class="st7" d="M155.61,124.34s-.11-.02-.28-.03c-.63-.05-2.14-.05-2.27,1.09-.17,1.44-.06,2.16.67,2.66.72.5,3.05-.11,3.55-1.05.5-.94-1.66-2.66-1.66-2.66"/>
    <path class="st7" d="M164.1,122.34s-3.38.83-2.89,2c.5,1.17,5.72,0,5.99-.89.28-.89-3.11-1.11-3.11-1.11"/>
    <path class="st7" d="M162.71,117.41s-2.38,1.28-1.83,2.22c.55.94,5.6.67,6.16.22.56-.45,1.39-1.5.83-2.22-.55-.72-5.16-.22-5.16-.22"/>
    <path class="st7" d="M162.88,107.25s1.78,1.39,2.66.72.94-1.55.33-1.89c-.61-.33-3.94-.72-3,1.17"/>
    <path class="st7" d="M156.55,133.05s-2.72.55-2.33,1.66c.39,1.11,4.99-.22,4.88-1.39-.11-1.16-2.55-.28-2.55-.28"/>
    <path class="st7" d="M147.06,138.27s0,.89,1.17.78c1.16-.11,3.33-1.39,2.94-2.33-.39-.94-4.33,1-4.11,1.55"/>
    <path class="st7" d="M124.59,149.04s1.33,1,2.16.89c.83-.11,2.89-.67,2.83-1.28-.06-.61-5.05-.17-4.99.39"/>
    <path class="st7" d="M179.63,123.95c.03.17,2.05,2.55,2.94,2.27.89-.28.83-1.89-.39-2.94-1.22-1.05-2.83-.94-2.55.67"/>
    <path class="st7" d="M185.18,127.78s-.17,2.5.61,3.44c.78.94,1.89.28,1.89-1.33s-.44-3.38-1.05-3.61c-.61-.22-1.44,1.5-1.44,1.5"/>
    <path class="st7" d="M183.91,132.67s.94-.72,1.72.55c.78,1.28.33,3.83-.78,3.44-1.11-.39-1.78-3.55-.94-3.99"/>
    <path class="st7" d="M186.85,143.21s-1.44.17-1.72,1.33c-.28,1.16-.39,3.16,1.33,3.16s2.16-2.16,2-3c-.17-.83-1.61-1.5-1.61-1.5"/>
    <path class="st7" d="M186.4,152.86c.11.26.78,2.11,1.55,1.61.78-.5,1.28-1.05.78-2.11-.5-1.06-2.61-.17-2.33.5"/>
    <path class="st7" d="M189.84,136.99s-2.89,1.44-2,2.16c.89.72,2.72,1.39,3.16.17.44-1.22-1.17-2.33-1.17-2.33"/>
    <path class="st7" d="M203.05,129.22s-2.72.33-2.61,1.89c.11,1.55.17,2.55-.22,3.5-.39.94,1.44,4.27,2.33,4.22s1.5-1.78,2.33-3.72c.83-1.94.89-6.27-1.83-5.88"/>
    <path class="st7" d="M209.27,134.83c-.14.14-1.77,3.16-1,3.66.78.5,2.11-.94,2.22-2.05.11-1.11-.72-2.11-1.22-1.61"/>
    <path class="st7" d="M214.37,119.9c-.17.05-1.27,3.27-.28,3.72,1,.44,3-3.61,2.5-4.55-.5-.94-2.22.83-2.22.83"/>
    <path class="st7" d="M211.76,115.57s-.17,3.5.72,3.5,2.22.89,1.44-1.94c-.78-2.83-2.16-1.55-2.16-1.55"/>
    <path class="st7" d="M203.16,115.91s.89-2.94,2.61-2.39c1.72.56,2.72,4.83,1.28,5.27-1.44.44-4.11-1.33-3.88-2.89"/>
    <path class="st7" d="M199.56,115.85s-1.33,1.66-.78,3.16c.56,1.5,3.27,1.83,4,.61.72-1.22-1.39-3.38-1.72-3.77-.33-.39-1.5,0-1.5,0"/>
    <path class="st7" d="M141.68,91.99s2.05,1.05,3.27.55c1.22-.5,1.83-1.39,1.16-1.66-.67-.28-4.88-.06-4.44,1.11"/>
    <path class="st7" d="M169.31,94.32s-2.72.67-3.05,2.66c-.33,2,2.11,3.83,3.33,3,1.22-.83,1.55-1.94,1.44-3.5-.11-1.55-1.72-2.16-1.72-2.16"/>
    <path class="st7" d="M175.47,89.99s-2.33,1-1.94,2.22c.39,1.22,1.72,1.66,2.33,1.66s1.44-.61,1.72-1.55c.28-.94-1.11-2.61-2.11-2.33"/>
    <path class="st7" d="M178.41,98.76c-.33,0-1.28,2-1.17,3.05.11,1.05,1.61,2.88,2.22,2.5.61-.39,1.16-2.5.94-3.77-.22-1.28-2-1.77-2-1.77"/>
    <path class="st7" d="M185.13,104.03s-1.61,1.11-1.66,2.44c-.06,1.33-.39,2.72.67,2.94,1.05.22,2.94.61,2.94-1.28s-.89-4.38-1.94-4.11"/>
    <path class="st7" d="M188.18,99.98s-.78,2.89.05,3.77c.83.89,1.89,1.06,2.44,1.22.56.17,1.5.67,1.5.67,0,0-1.78,3.27,0,4.22,1.77.94,3.44.61,3.72-.44.28-1.05,1.28-.94,1.11-2.16-.17-1.22-.66-1.78-1.17-1.39-.5.39-1.22,1.66-1.22,1.66,0,0,0-1.94-.44-2.22-.44-.28-1.05-.28-1.05-.28,0,0,.5-2.78-.33-4.27-.83-1.5-3.5-2.05-4.61-.78"/>
    <path class="st7" d="M210.82,95.15s1.17,3.55,2,3.61c.83.06,2.22-1.17,1.61-2.44-.61-1.28-3.11-2.55-3.61-1.17"/>
    <path class="st7" d="M188.57,113.58s.61,1.39,1.55,1.5c.94.11,2.61-.89,1.89-2.22-.72-1.33-3.33-1.39-3.44.72"/>
    <path class="st7" d="M220.98,109.86s.44,1.83,1.17,1.44c.72-.39,1-2.22.11-2.72-.89-.5-1.28.83-1.28,1.28"/>
    <path class="st7" d="M197.34,168.73s.83,2.39,1.5,2.61c.67.22,2.44-.78,1.28-3.22-1.17-2.44-2.89-.72-2.77.61"/>
    <path class="st7" d="M207.38,169.9c-.1.14-.28,4,.61,4.16.89.17,1.39.11,1.39-1.61s-1.39-3.44-2-2.55"/>
    <path class="st7" d="M207.82,162.69s.5,2,1.44,1.17c.94-.83.89-3,0-3.11-.89-.11-1.66,1.39-1.44,1.94"/>
    <path class="st7" d="M199.5,160.69s-.22,1.89.72,2.05c.94.17,2.28-4.49,1.39-5.44-.89-.94-2.11,3.39-2.11,3.39"/>
    <path class="st7" d="M200.67,176.06c-.16.53-.17,5.44,1.28,4.5,1.44-.94,1.78-3.66,1-4.55-.78-.89-1.94-1.06-2.28.06"/>
    <path class="st14" d="M207.77,185.66s1.44,1.67,1.89,3.94c.44,2.28,0,2.94-1.05,3.77s-1.89,1.89-1.89,1.89c0,0,2.44-2.83,2.11-4.88-.33-2.05-1.05-4.72-1.05-4.72"/>
    <path class="st2" d="M215.2,183.44s2.22,2,1.94,3.94c-.28,1.94-2,5.16-2,5.16l-.72-2.39.83.33s1.22-2.72.78-4.11c-.44-1.39-.83-2.94-.83-2.94"/>
    <path class="st2" d="M210.71,205.14c0,.28-3.11,7.44-3.72,9.65-.61,2.22-3.66,2.89-3.66,2.89,0,0,1.89-.94,3-3.66,1.11-2.72,4.38-8.88,4.38-8.88"/>
    <path class="st7" d="M198.47,93.14s2.16,2.84,3.38,2.3c1.22-.54,2.16-2.16,1.22-3.79-.95-1.62-5.14-1.08-4.6,1.49"/>
    <path class="st7" d="M187.65,90.3c.38.47,3.52,2.16,4.33,1.08.81-1.08.4-3.38-1.76-3.65-2.16-.27-3.65,1.22-2.57,2.57"/>
    <path class="st7" d="M171.97,119.77s3.65,3.24,3.65,1.49-3.79-3.51-3.65-1.49"/>
    <path class="st7" d="M191.44,121.26c-.15.4.41,5.82,2.16,5.14,1.76-.68,2.57-2.16,1.76-3.92-.81-1.76-2.97-3.65-3.92-1.22"/>
    <path class="st7" d="M108.19,199.2s0,4.97,1.09,5.05c1.09.08.93-4.97.47-6.14-.47-1.16-1.55,1.09-1.55,1.09"/>
    <path class="st7" d="M100.42,174.58s-1.48,4.35.62,5.9c2.1,1.55,2.95-.62,2.64-2.17-.31-1.55-2.8-4.43-3.26-3.73"/>
    <path class="st7" d="M101.2,170.7s-.23,3.18,1.32,3.18,1.63-2.17.85-3.11c-.78-.93-2.02-.54-2.17-.08"/>
    <path class="st7" d="M107.49,165.11s-.23,2.95-1.01,3.96c-.78,1.01-.31,2.48.93,2.48s2.25-5.51,2.02-6.52c-.23-1.01-1.94.08-1.94.08"/>
    <path class="st7" d="M113.32,174.82s-1.32,2.95-.15,3.34c1.16.39,1.71-.08,1.71-1.24s-1.55-2.1-1.55-2.1"/>
    <path class="st7" d="M100.42,154.86c.15.45.62,3.57,2.02,3.26,1.4-.31,2.02-2.49,1.17-4.27-.85-1.79-3.34.54-3.18,1.01"/>
    <path class="st2" d="M96.23,216.68s-1.01-.15-2.87,1.01c-1.86,1.17-3.57,4.58-3.73,3.73-.16-.85,2.64-5.51,6.6-4.74"/>
    <path class="st2" d="M190.36,223.51s-3.18,1.71-4.12,3.26c-.93,1.55-.31.08-.31.08,0,0,.47-3.03,4.43-3.34"/>
    <path class="st14" d="M213.5,100.43s2.56,2.56,3.74,4.92c1.18,2.36.99,3.35.99,3.35,0,0-2.36-5.51-4.73-8.27"/>
    <path class="st7" d="M111.36,116.88s1.78,2.18,3.96,1.38c2.18-.79-.2-3.76-1.98-3.96-1.78-.2-1.98,2.57-1.98,2.57"/>
    <path class="st7" d="M97.11,139.83s1.98,3.96,3.56,2.97c1.58-.99,1.78-2.97-.2-3.96-1.98-.99-3.36.99-3.36.99"/>
    <path class="st7" d="M205.35,105.99s.99,3.36,2.77,3.56c1.78.2,2.77-.99,1.58-3.56-1.19-2.57-4.15-2.18-4.35,0"/>
    <path class="st7" d="M114.72,110.35s1.98,3.36,3.76,1.78c1.78-1.58-3.96-4.75-3.76-1.78"/>
    <path class="st7" d="M125.21,136.07s5.74,2.57,5.54-.2c-.2-2.77-7.12-2.37-5.54.2"/>
    <path class="st7" d="M176.66,113.12c0,.59,2.38,3.76,3.96,2.18s-3.96-4.35-3.96-2.18"/>
    <path class="st7" d="M147.17,115.49s4.55,1.78,4.55-.4-3.96-2.97-5.74-2.18c-1.78.79,1.19,2.57,1.19,2.57"/>
    <path class="st7" d="M92.95,134.29s2.97,2.38,3.56.99c.59-1.38-3.56-2.38-3.56-.99"/>
    <path class="st7" d="M212.08,111.93s1.78,2.57,2.57,1.58c.79-.99-2.18-3.76-2.57-1.58"/>
    <path class="st7" d="M205.15,126.57s2.38.79,2.97-.59c.6-1.39,2.38-1.78.6-2.97-1.78-1.19-5.74-.2-3.56,3.56"/>
    <path class="st7" d="M192.09,135.87s3.96,1.19,3.36-.99c-.59-2.18-.99-4.75-2.77-4.75s-1.19,3.56-.59,5.74"/>
    <path class="st7" d="M199.02,151.31s2.77-1.58,1.58-3.56c-1.19-1.98-1.98-3.96-3.17-3.17-1.19.79-2.38,6.93,1.58,6.73"/>
    <path class="st7" d="M211.49,128.55s1.19,3.36,1.78.59c.59-2.77-1.78-3.36-1.78-.59"/>
    <path class="st7" d="M103.24,135.48s4.16,1.19,4.55-.4c.39-1.58-4.55-3.36-4.55.4"/>
    <path class="st7" d="M105.62,151.51s1.58,4.16,2.77,1.78c1.19-2.37-2.77-1.78-2.77-1.78"/>
    <path class="st7" d="M95.72,149.33s.79,1.58,1.19-.59c.4-2.18-1.98-3.76-2.57-3.56-.59.2,1.39,4.16,1.39,4.16"/>
    <path class="st7" d="M116.5,133.5s2.77.59,2.97-.79c.2-1.38-3.36-2.37-2.97.79"/>
    <path class="st7" d="M110.37,94.12s3.76,3.96,3.76,1.19-3.96-2.37-3.76-1.19"/>
    <path class="st7" d="M82.07,108.17c0,.88,3.56,2.38,3.56.2s-3.56-2.18-3.56-.2"/>
  </g>
  <g>
    <path class="st11" d="M119.49,244.12c0,3.94-2.58,7.54-8.36,7.54h-4.24v-15.18h3.82c5.84,0,8.78,3.48,8.78,7.64ZM110.71,250c4.62,0,6.56-2.64,6.56-5.8,0-3.4-2.22-6.02-6.32-6.02h-1.92c-.1,3.02-.14,8.58-.16,11.82h1.84Z"/>
    <path class="st11" d="M123.29,252c-1.4,0-2.22-.76-2.22-2.14,0-1.86,1.84-3.5,5.06-3.88v-.52c0-.94-.56-1.38-1.62-1.38-.92,0-1.74.22-2.64.66v-1.8c.98-.3,1.88-.44,2.72-.44,2,0,3.22.86,3.22,2.76,0,1.66-.08,2.96-.08,3.98s.18,1.84.38,2.42h-1.56c-.12-.56-.18-1.18-.18-1.86-.64,1.56-1.84,2.2-3.08,2.2ZM122.87,249.46c0,.62.34.98,1.02.98s2.18-.62,2.24-3.3c-2.24.4-3.26,1.34-3.26,2.32Z"/>
    <path class="st11" d="M130.37,236.16l1.96-.18c-.2,2.88-.26,12.6-.26,15.68h-1.7v-15.5Z"/>
    <path class="st11" d="M141.83,246.24v5.42h-1.74v-5.22c0-1.68-.76-2.24-1.7-2.24-.86,0-1.38.28-1.86.6v6.86h-1.74v-6.52c0-.9-.18-1.82-.36-2.28h1.26c.12.22.22.62.26.92.9-.64,1.78-1.14,3-1.14,1,0,1.64.34,2.2,1.08.74-.6,1.9-1.08,2.98-1.08,1.66,0,3.04,1.04,3.04,3.6v5.42h-1.76v-5.22c0-1.68-.88-2.24-1.94-2.24-.72,0-1.3.22-1.88.52.14.4.24.92.24,1.52Z"/>
    <path class="st11" d="M151.27,252c-1.4,0-2.22-.76-2.22-2.14,0-1.86,1.84-3.5,5.06-3.88v-.52c0-.94-.56-1.38-1.62-1.38-.92,0-1.74.22-2.64.66v-1.8c.98-.3,1.88-.44,2.72-.44,2,0,3.22.86,3.22,2.76,0,1.66-.08,2.96-.08,3.98s.18,1.84.38,2.42h-1.56c-.12-.56-.18-1.18-.18-1.86-.64,1.56-1.84,2.2-3.08,2.2ZM150.85,249.46c0,.62.34.98,1.02.98s2.18-.62,2.24-3.3c-2.24.4-3.26,1.34-3.26,2.32Z"/>
    <path class="st11" d="M160.85,239.92c-.08,1.24-.08,2.24-.1,2.94h3.04v1.44l-3.06-.06c-.08,1.32-.08,3.14-.08,4.48,0,1.18.52,1.68,1.38,1.68.64,0,1.34-.2,1.76-.54v1.14c-.68.66-1.5,1-2.52,1-1.42,0-2.32-.76-2.32-2.82v-4.98h-1.78v-.72c.52-.12,1.3-.36,1.78-.62v-2.58l1.9-.36Z"/>
    <path class="st11" d="M167.67,238.7c0,.64-.52,1.16-1.16,1.16s-1.16-.52-1.16-1.16.54-1.16,1.16-1.16,1.16.52,1.16,1.16ZM165.47,242.86l1.92-.28c-.18,1.62-.22,6-.22,9.08h-1.7v-8.8Z"/>
    <path class="st11" d="M170.79,242.86c.12.22.22.62.26.92.94-.64,2.02-1.14,3.22-1.14,1.7,0,3.04,1.04,3.04,3.6v5.42h-1.76v-5.22c0-1.68-.9-2.24-1.96-2.24-.76,0-1.38.26-1.96.6v6.86h-1.74v-6.52c0-.9-.18-1.82-.36-2.28h1.26Z"/>
  </g>
</svg>