<?xml version="1.0" encoding="UTF-8"?>
<svg id="Vrstva_1" xmlns="http://www.w3.org/2000/svg" xmlns:xlink="http://www.w3.org/1999/xlink" version="1.1" viewBox="0 0 283.46 283.46">
  <!-- Generator: Adobe Illustrator 30.1.0, SVG Export Plug-In . SVG Version: 2.1.1 Build 136)  -->
  <defs>
    <style>
      .st0 {
        fill: none;
      }

      .st1 {
        fill: #827979;
      }

      .st2 {
        fill: #e7e8ea;
      }

      .st3 {
        fill: #6c6164;
      }

      .st4 {
        fill: #d8d2d2;
      }

      .st5 {
        fill: #978e8f;
      }

      .st6 {
        fill: #fff;
      }

      .st7 {
        fill: #594e51;
      }

      .st8 {
        fill: #e5e0e1;
      }

      .st9 {
        fill: #c6bebe;
      }

      .st10 {
        fill: #3a3a3c;
      }

      .st11 {
        clip-path: url(#clippath);
      }
    </style>
    <clipPath id="clippath">
      <rect class="st0" x="19.84" y="19.84" width="243.78" height="243.78"/>
    </clipPath>
  </defs>
  <rect class="st3" x="19.84" y="19.84" width="243.78" height="243.78"/>
  <g class="st11">
    <path class="st7" d="M84.39,214.9s-6.92,1.28-11.11,4.55c-4.19,3.28-4.37,1.82-6.55,5.46-2.19,3.64-10.2,12.38-11.65,14.93-1.46,2.55-9.67,25.43-9.67,25.43l214.19-2.16s-13-32.55-18.1-37.28c-5.1-4.73-4.01-6.19-8.01-8.56-4.01-2.37-8.74-4.91-11.65-4.91s-18.57-1.28-22.03.18c-3.46,1.46-7.83,3.09-10.01,1.46-2.18-1.64-5.28-7.46-10.19-7.65-4.92-.18-8.99-1.22-12.32-.43-3.33.79-3.7,1.7-9.34,2.79-5.64,1.09-4.91.91-10.19,1.28-5.28.36-14.02,0-14.02,0l-49.33,4.92Z"/>
    <path class="st9" d="M216.01,215.36s-1.13,1.55.56,3.24c1.69,1.69,4.65.85,4.65.85,0,0,1.97,1.55,3.66-.56,1.69-2.11,0-4.79,0-4.79l-8.87,1.27Z"/>
    <path class="st4" d="M107.32,229.04s-.97,2.31,0,2.79c.97.49,2.06,0,2.06,0,0,0-.12.85,1.33.85s1.82-.24,1.82-.24c0,0,.36.12,1.94-.12,1.58-.24,1.46-2.19,1.46-2.19l-8.62-1.09Z"/>
    <path class="st4" d="M92.88,224.91s.12,2.06,1.7,2.06h1.58s3.03.85,3.15-.36c.12-1.21-.61-2.79-.61-2.79l-5.82,1.09Z"/>
    <path class="st4" d="M148.4,172.25s.14,5.35.99,7.46c.85,2.11,1.13,2.39,1.13,2.39,0,0,.42,5.21,1.41,6.48l.99,1.27s.28,2.68.85,3.38c.56.71.14.14.56.71.42.56.56,2.39,2.39,4.23,1.83,1.83,3.24,1.83,3.24,1.83,0,0,.99,3.52,2.11,3.66,1.13.14,1.97.14,1.97.14,0,0,1.13,1.55,3.24,2.11l2.11.56s-1.13-.14-.7,1.13c.42,1.27,10,1.13,11.27.85,1.27-.28,1.97-1.83,1.97-1.83,0,0,2.96-.85,3.38-1.69l.42-.85s2.54-.99,3.1-2.68c.56-1.69-10.14-20.85-10.56-24.37-.42-3.52-1.13-14.65-4.37-18.45-3.24-3.8-12.25-5.78-12.25-5.78l-13.24,19.44Z"/>
    <path class="st9" d="M156.29,168.73s-2.54,6.62-2.82,10c-.28,3.38.7,4.93,1.13,6.06s-.56,3.66.42,5.35c.99,1.69,1.55,1.97,1.55,1.97,0,0,.7,4.08,2.4,5.07l1.69.99s1.41,2.68,3.52,3.38c2.11.7,2.39.7,2.39.7,0,0,.85,1.13,2.68,1.83,1.83.7,3.52.7,3.52.7,0,0-4.93,2.11-1.27,3.66,3.66,1.55,7.18.99,9.01.14,1.83-.85,1.41-1.97,1.41-1.97l.42-1.97,1.97-1.69s3.24-1.41,4.23-4.22c.99-2.82-8.87-18.59-9.44-22.96-.56-4.37-3.1-16.48-6.9-18.31-3.8-1.83-8.73-2.4-8.73-2.4l-7.18,13.66Z"/>
    <path class="st2" d="M171.64,120s-1.69-6.48-.99-8.59l.7-2.11s-1.13-2.54-.7-2.96l.42-.42s-.42-3.8,1.41-4.93l1.83-1.13s-.56-1.69.56-2.82,2.96-1.13,2.96-1.13c0,0,.14-1.83,1.83-1.83h1.69s1.27-1.97,2.4-1.97h1.13s1.97-2.25,4.65-2.25,3.38,1.13,3.38,1.13c0,0,1.13-.56,2.54,0,1.41.56,1.97,2.25,1.97,2.25,0,0,1.13-2.11,3.94-.71,2.82,1.41,2.25,3.66,2.25,3.66,0,0,.85-.42,1.69.42.85.85.85,1.41.85,1.41,0,0,1.83-.42,2.53,1.13l.7,1.55s1.41.14,2.11,3.24l.7,3.1s2.11.98,1.69,3.94l-.42,2.96s2.25.42.14,3.38l-2.11,2.96s.7,1.41-1.27,2.68c-1.97,1.27-3.1,1.27-3.1,1.27,0,0-.56,2.68-3.1,3.8l-2.54,1.13s-2.82,2.25-5.92,2.25-3.38-.42-3.38-.42c0,0-1.55.85-3.24.85s-17.32-11.83-17.32-11.83"/>
    <path class="st4" d="M174.03,114.51s.56,1.83,1.41,3.24c.85,1.41,3.8,1.41,4.65,2.53.84,1.13,5.92,2.39,7.04,3.8,1.13,1.41,5.35,1.69,7.61.85s4.37-2.68,6.2-2.11,4.37-.85,5.35-1.83c.99-.99,1.27-1.97,1.27-1.97,0,0,.99,2.39-1.69,4.65-2.68,2.25-4.37,1.55-4.37,1.55,0,0-1.55,2.25-3.66,2.82-2.11.56-3.1.14-3.1.14,0,0-2.68.84-5.35.84s-5.49-2.25-7.46-3.1-7.89-4.79-8.31-6.34c-.42-1.55.42-5.07.42-5.07"/>
    <path class="st4" d="M203.33,100.42s2.96,2.11,3.24,3.94l.28,1.83s1.55,2.11.7,4.23c0,0,0-3.24-2.11-4.08,0,0,0-4.09-2.11-5.92"/>
    <path class="st4" d="M177.13,108.59s-1.27,1.83-.42,3.24l.85,1.41s-.85,1.41.56,2.82c1.41,1.41,2.39,1.41,2.39,1.41,0,0-2.68-2.68-1.69-4.37,0,0-1.97-1.13-1.69-4.51"/>
    <path class="st4" d="M166.43,119.29s5.49-1.55,14.09,3.8c8.59,5.35,10.14,8.87,11.41,10.71,1.27,1.83,7.46,4.79,11.13,16.34,3.66,11.55,2.25,12.54,4.09,14.51,1.83,1.97,13.94,9.44,15.07,11.55l1.13,2.11s6.34,1.55,8.31,5.63c1.97,4.08,1.55,6.48,1.55,6.48,0,0,1.69.85.85,3.24l-.85,2.39s2.11,2.82.85,5.49l-1.27,2.68s.99,1.13-.28,2.82l-1.27,1.69s-2.39,3.52-3.52,4.22c-1.13.7-1.69.7-1.69.7,0,0,.99,1.83-2.11,2.68-3.1.85-5.35-.14-5.35-.14,0,0-1.13,1.13-4.23,1.13s-5.49-1.41-5.49-1.41h-2.68c-1.69,0-2.82-1.83-2.82-1.83,0,0-4.23.14-4.65-.99-.42-1.13-.99-1.69-.99-1.69,0,0-1.27.42-2.82-.7-1.55-1.13-2.39-1.97-2.39-1.97,0,0-1.13.42-2.25-1.55-1.13-1.97-1.13-3.38-1.13-3.38,0,0-1.83-.85-2.25-2.11-.42-1.27-.7-1.83-.7-1.83,0,0-3.52-3.24-4.22-5.35-.7-2.11-.7-2.82-.7-2.82,0,0-2.82-3.52-3.52-6.2l-.7-2.68s-2.25-3.24-2.68-5.49c-.42-2.25-2.68-7.32-2.4-10.99.28-3.66-1.41-4.65-3.52-6.34-2.11-1.69-3.94-.14-4.65-2.11-.7-1.97,2.68-38.59,2.68-38.59"/>
    <path class="st9" d="M168.82,123.38s3.8,6.62,4.23,10.56c.42,3.94-.7,11.41.99,13.1l1.69,1.69s-2.68,6.06-.7,10.14c1.97,4.09,3.8,6.06,3.8,6.06,0,0-.56.14,0,1.41.56,1.27.71,1.97.71,1.97,0,0-.85,4.22.71,7.04,1.55,2.82,1.83,2.82,1.83,2.82,0,0-.7,0-.14,1.55.56,1.55,1.69,2.68,2.96,2.53,0,0,.28,4.65,2.82,6.2l2.54,1.55s.56,4.65,2.68,5.49l2.11.84s-.28,4.37,2.25,5.07c2.54.7,3.24.42,3.24.42,0,0,1.13,2.82,4.65,3.24,3.52.42,3.8-1.27,3.8-1.27,0,0,.56,2.82,2.54,2.96l1.97.14s2.25.14,3.38-1.55l1.13-1.69s1.27,3.1,3.66,2.82c2.4-.28,2.68-1.83,2.68-1.83,0,0-.14,2.53,2.4,2.39,2.54-.14,2.96-1.41,2.96-1.41,0,0-.42,4.08-3.38,4.93-2.96.84-3.38.56-3.38.56,0,0,0,2.11-3.66,2.11s-4.08-1.13-4.08-1.13c0,0-2.39.85-2.96,0l-.56-.85s-3.94,2.82-7.18.7c-3.24-2.11-3.66-2.68-3.66-2.68,0,0-1.55.28-2.96-.99-1.41-1.27-1.41-1.69-1.41-1.69,0,0-3.52-.28-5.35-1.83-1.83-1.55-1.27-4.37-1.27-4.37,0,0-3.66-2.11-5.35-4.51-1.69-2.4-1.55-5.07-1.55-5.07,0,0-1.69-.7-1.69-2.25v-1.97s-2.82-3.24-3.38-5.49c-.56-2.26-.28-2.68-.28-2.68,0,0-2.54-.85-1.97-2.39s.7-2.11.7-2.11c0,0-2.68-3.94-2.25-5.78s-2.11-6.48-1.55-7.32c.56-.84.56-1.55.56-1.55,0,0-.99-2.11-2.96-3.24-1.97-1.13-6.48-.42-6.48-.42,0,0,4.65-10.99,5.07-19.44.42-8.45.14-12.82.14-12.82"/>
    <path class="st2" d="M76.7,166.48s2.39,7.89,3.38,10.14c.99,2.25,1.55,2.25,1.55,2.25,0,0-1.13,3.38-.42,5.07l.7,1.69s-.28,7.47.28,9.72l.56,2.25s-.56,5.92,0,7.47l.56,1.55s-.42,2.25.28,3.1l.7.85s-.56,3.8,1.41,7.32c1.97,3.52,3.8,4.08,3.8,4.08,0,0,.99,2.82,4.65,3.8,3.66.99,6.48-1.69,6.48-1.69,0,0,.99,3.8,3.38,4.08l2.39.28s.28,1.27,2.53,1.97c2.25.71,2.96.14,2.96.14,0,0,2.68.42,5.07.7,2.39.28,2.82-.14,2.82-.14,0,0,6.62-1.41,8.87-3.94,2.25-2.53,2.25-3.94,2.25-3.94,0,0,3.8-4.51,3.8-5.77v-1.27s1.55-2.53,1.97-6.06c.42-3.52-.85-7.46-.85-7.46,0,0,1.97-.56,1.97-2.25s-.28-2.25-.28-2.25c0,0,2.11-2.4,2.25-7.47.14-5.07,0-5.49,0-5.49,0,0,1.55.28.56-3.1-.99-3.38-1.27-4.37-1.27-4.37,0,0,5.91.42,8.87-2.96l2.96-3.38s2.82-1.13,3.38-2.25l.56-1.13s5.78-3.52,6.9-5.78l1.13-2.25s3.38-1.83,4.09-5.5l.71-3.66s1.83-3.24,1.69-4.65l-.14-1.41s1.97-5.21,1.41-8.59l-.56-3.38s.42-2.68,0-4.09l-.42-1.41s-1.13-7.18-2.39-9.15l-1.27-1.97s.42-2.54-.56-3.8c-.99-1.27-1.41-1.55-1.41-1.55,0,0-.14-3.66-1.69-5.92l-1.55-2.25s-.28-8.45-3.24-11.27c-2.96-2.82-3.52-3.24-3.52-3.24,0,0,.84-3.24-.85-3.8l-1.69-.56s.85-5.63-.99-7.89l-1.83-2.25s.42-.84-2.54-2.96l-2.96-2.11s-1.83-3.52-2.11-4.65c-.28-1.13-2.11-2.25-2.11-2.25,0,0,.56-2.4-.56-4.51-1.13-2.11-2.68-2.54-2.68-2.54,0,0-.99-2.11-.99-2.82s-1.83-1.27-1.83-1.27c0,0,.14-1.97-1.83-2.54-1.97-.56-3.38-.56-3.38-.56,0,0,1.83-1.83-1.55-3.1-3.38-1.27-4.23-1.41-4.23-1.41,0,0-.85-1.13-3.1-2.11s-2.96-.99-2.96-.99c0,0-1.97-3.1-4.51-3.66-2.54-.56-3.66-.56-3.66-.56,0,0,.42-.99-1.97-.42-2.39.56-3.52.85-3.52.85,0,0-2.53-1.97-4.37-.85l-1.83,1.13s-5.49,0-6.76,1.27l-1.27,1.27s-3.66-.42-5.21,1.27c-1.55,1.69-1.69,2.11-1.69,2.11,0,0-5.07,1.27-5.49,2.53-.42,1.27-.85,1.83-.85,1.83,0,0-1.27.7-1.27,1.83v1.13s-1.55,1.97-1.55,3.1-.28,1.69-.28,1.69c0,0-3.1,1.83-2.82,3.52l.28,1.69s-2.11,2.54-1.97,4.37l.14,1.83s-1.13,6.2,0,8.45c1.13,2.25,1.55,2.82,1.55,2.82,0,0-.14,2.39,1.27,4.08,1.41,1.69,2.11,3.1,2.11,3.1,0,0,15.35,9.15,15.63,12.68.28,3.52-1.27,13.38-2.67,15.78-1.41,2.39-3.24,2.11-3.38,3.24l-.14,1.13s-1.97-.28-2.25.99l-.28,1.27s-4.65,1.83-5.07,4.37c-.42,2.54.14,2.68.14,2.68,0,0-.99,1.41-1.41,3.8l-.42,2.4s-1.55,1.41-1.83,3.8l-.28,2.39s-1.27,2.54-.7,5.07l.56,2.54s-.85.7.42,3.24l1.27,2.53s-1.13,4.23-.14,6.2c.99,1.97,1.97,1.97,1.97,1.97,0,0-.56,2.68,0,3.1l.56.42s-.14,3.94,2.54,2.68"/>
    <path class="st4" d="M80.79,98.45s.99,3.52.28,4.93c-.7,1.41-.7,2.54.28,2.54h.99s.28,1.13,1.69,1.13,1.83-1.83,1.83-1.83c0,0,1.13-.14.99-1.41-.14-1.27-.56-5.78-.56-5.78l-6.06.42h.56Z"/>
    <path class="st4" d="M85.72,113.94s-1.97,1.69-1.83,3.8c.14,2.11,1.27,2.25,1.27,2.25,0,0-.7-.85.56-1.97,1.27-1.13,2.82-1.55,1.97-.28-.85,1.27-2.54,3.38-.99,5.63s2.68,2.82,3.24,2.4c.56-.42-1.13-.85.28-2.68,1.41-1.83,3.94-1.55,4.08-4.79.14-3.24.14-3.8.14-3.8,0,0,1.27,2.82.85,4.93-.42,2.11-2.54,2.82-2.96,4.51-.42,1.69,0,2.54.99,2.54s1.97-.7,1.97-.7c0,0-.56,1.83,1.83,1.69l2.39-.14s1.97,3.1,4.65,2.25c2.68-.85,3.38-2.53,3.38-2.53,0,0,1.41,2.25,0,3.24-1.41.99-1.83.42-1.41.99.42.56,6.9.28,8.45-1.69s1.41-3.38,1.41-3.38c0,0-.28,2.11.56,2.11s4.08-2.68,4.51-5.21l.42-2.54s1.13,3.24,2.11,1.13c.99-2.11,1.27-4.37.28-8.73-.99-4.37-1.83-5.63-.85-8.17.99-2.54,1.41-.42,1.69-7.61.28-7.18-1.13-8.87-1.13-8.87,0,0,2.82,2.82,2.53,8.59-.28,5.77-2.11,8.45-1.69,10.99.42,2.54,3.1,10.99,2.25,14.09-.85,3.1-3.94,2.39-3.94,2.39,0,0-3.66,6.34-5.07,6.06l-1.41-.28s-1.41,2.54-5.07,3.38c-3.66.84-7.61-.28-7.75-1.55-.14-1.27.85-1.41.85-1.41,0,0-.99.84-3.1.28-2.11-.56-2.54-1.83-2.54-1.83,0,0-1.83,1.13-3.24.28-1.41-.85-1.41-1.41-1.41-1.41,0,0-1.27.7-2.11.14-.85-.56-.85-1.13-.85-1.13,0,0,.14,1.55-1.27,1.41-1.41-.14-4.65-3.38-4.79-5.07l-.14-1.69s-6.76-2.39.85-7.61"/>
    <path class="st4" d="M96.99,106.19s-2.11,3.66-.14,5.49c1.97,1.83,2.68,1.83,3.1,1.55s-.42-2.25-.42-2.25c0,0,2.11,2.82.99,3.24-1.13.42-7.75-2.82-3.52-8.03"/>
    <path class="st4" d="M111.49,122.53c-1.47-1.01.56,4.37.56,4.37,0,0,1.69-2.82-.56-4.37"/>
    <path class="st4" d="M119.1,111.97s.42,1.83.85,3.66c.42,1.83-.99,2.25-.99,2.25,0,0,1.41.7,1.69-1.69.28-2.39-1.55-4.23-1.55-4.23"/>
    <path class="st4" d="M101.63,81.12c.7,1.55,2.25.56,2.68,2.68.42,2.11-.28,3.8-.28,3.8,0,0,1.83-2.82,1.41-4.51-.42-1.69-3.8-1.97-3.8-1.97"/>
    <path class="st5" d="M79.66,83.24s-.14.42-1.83.42-3.38.7-5.78,1.41c-2.39.7-4.93,1.27-4.93,1.27,0,0-1.41,5.77-.99,7.32.42,1.55,1.69,1.69,1.69,1.69,0,0-.85,2.11,1.55,3.1,2.39.99,8.59,1.97,10.99,1.97s6.9-1.13,9.15-1.13,2.82-.85,3.24-1.97c.42-1.13,1.13-1.97.14-5.63-.99-3.66,1.13-4.93,1.27-7.61.14-2.68-5.07-4.79-6.9-4.51-1.83.28-2.68.85-2.68.85,0,0-.42-1.27-2.39.56-1.97,1.83-2.54,2.25-2.54,2.25"/>
    <path class="st10" d="M70.65,86.9s-1.97-.7-3.52-.56c-1.55.14-3.1-.42-3.52.99-.42,1.41-.56,4.93,2.39,5.21,2.96.28,3.66-.56,4.51-1.83.85-1.27.56-3.8.14-3.8"/>
    <path class="st10" d="M67.83,95.35s3.52,1.83,6.62,1.97c3.1.14,6.2-1.27,8.45-.42l2.25.84s-2.39-1.27-10.7.28c0,0-6.62-.7-6.62-2.68"/>
    <path class="st4" d="M95.92,79.76s-3.76,4.13-3.64,8.37c.12,4.25,1.58,5.22.49,7.65-1.09,2.43-4.25,6.07-4.98,8.13-.73,2.06-.49,3.52-.49,3.52,0,0,.73-3.15,2.55-4.98,1.82-1.82,4.85-3.28,5.1-6.19.24-2.91-1.7-8.01-1.09-9.47.61-1.46,2.06-7.04,2.06-7.04"/>
    <path class="st4" d="M97.74,88.13s-.61,1.82.24,3.64c.85,1.82-1.09,4.49-1.09,4.49,0,0,1.82-1.33,1.94-3.64.12-2.31-1.09-4.49-1.09-4.49"/>
    <path class="st4" d="M93.37,102.33s-3.03,1.7-2.79,3.88c.24,2.18-1.33,3.76-1.33,3.76,0,0,1.7-.49,2.06-2.67.36-2.18.12-1.82,2.06-4.98"/>
    <path class="st4" d="M117.88,87.41s1.7,1.94,1.94,4.13c.24,2.18-.85,3.64,0,5.1.85,1.46.97,1.94.97,1.94,0,0-.85-2.43-.12-4.73.73-2.31-.85-6.43-2.79-6.43"/>
    <path class="st4" d="M73.22,78.3s.97,2.79,3.64,2.91c2.67.12,3.28-.24,3.28-.24,0,0,1.7,1.21,3.76.24,2.06-.97,2.43-1.7,2.43-1.7,0,0,1.7,1.33,3.64,1.21l1.94-.12s.73,1.34,1.46,1.46c.73.12,1.21.12,1.21.12l.36-.97s-2.18-.12-2.55-1.82c0,0-4.61.61-5.95-1.7,0,0-3.28,3.64-5.34,1.7,0,0-1.46.97-3.52.73-2.06-.24-2.19-3.64-2.19-3.64,0,0-1.09,1.21-.97,1.94l-1.21-.12Z"/>
    <path class="st4" d="M72.13,67.99s-1.82,1.34-.61,3.76c1.21,2.43,1.7,2.55,1.7,2.55,0,0-1.46-2.18-1.09-3.52s0-2.79,0-2.79"/>
    <path class="st4" d="M81.11,71.87s-.85.73,1.09,1.94c1.94,1.21,3.28.49,3.28.49,0,0-3.03-.36-3.4-1.34-.36-.97-.97-1.09-.97-1.09"/>
    <path class="st4" d="M85.84,173.58s3.28,4.37,5.46,5.1l2.18.73s.36,1.33,1.58,1.82c1.21.48,1.82.48,1.82.48,0,0,.61,1.34,1.58,2.06.97.73,1.33.49,1.33.49,0,0-2.06,3.15-1.09,4.49l.97,1.34s-1.82,3.52-1.82,4.85v1.33s-1.7,1.94-.97,4.73c.73,2.79,1.82,3.88,1.82,3.88,0,0-.85,4.73-.36,5.95.49,1.21.97,1.46.97,1.46,0,0-.85.97-.61,2.55.24,1.58.85,1.82.85,1.82,0,0-.85,4.3,1.09,7.43,0,0-1.34,1.67-3.52,2.04-2.19.36-6.6-1.39-7.61-4.15,0,0-1.49-1.19-1.98-2.64-.49-1.46-.49-2.18-.49-2.18,0,0,.73,2.79,2.43,3.16,1.7.36,2.19.36,2.19.36,0,0-.12,2.06,1.46,2.43,1.58.36,2.43-1.33,2.43-1.33,0,0,.61.85,1.94.24,1.33-.61-.36-4.37-.36-4.37,0,0,.85-.36.85-1.82s-.97-3.64-.97-3.64c0,0,.73-2.67.36-4.13-.36-1.46-1.09-2.06-1.09-2.06,0,0,.73-.97-.49-3.03l-1.21-2.06s2.06-2.67,1.58-5.34l-.49-2.67s1.09-.36,1.09-1.94-.36-2.31-.36-2.31c0,0,1.09-.73.24-2.67-.85-1.94-2.06-2.91-2.06-2.91,0,0-.36-1.58-1.94-2.19-1.58-.61-6.8-5.83-6.8-7.28"/>
    <path class="st4" d="M105.75,184.01s1.21,1.46,3.52,1.7c2.31.24,3.4.12,3.4.12,0,0-.49.61.97.97,1.46.36,2.31.12,2.31.12,0,0,1.09,1.46,2.79,1.09l1.7-.36s-1.94,1.34-3.03,1.34-1.82-1.09-1.82-1.09c0,0-1.58,1.09-3.04.49-1.46-.61-1.33-1.58-1.33-1.58,0,0-5.58-.97-5.46-2.79"/>
    <path class="st4" d="M134.87,172.85s4.01.49,5.95-.36c1.94-.85,1.58-1.46,2.18-1.46s2.55-.73,3.52-1.46c.97-.73,1.09-1.09,1.09-1.09,0,0,.85-.73,2.79-2.31,1.94-1.58,2.31-4.49,2.31-4.49,0,0,.73,2.55,0,4.13-.73,1.58-2.43,2.06-2.43,2.06,0,0-.97,2.06-1.7,2.18l-.73.12s-1.94,2.91-3.15,3.52c-1.21.61-1.82.49-1.82.49,0,0-1.7,2.31-4.49,1.21-2.79-1.09-3.52-2.55-3.52-2.55"/>
    <path class="st4" d="M95.07,75.51s3.52,2.06,5.34,1.46c1.82-.61,1.94-1.09,1.94-1.09,0,0,.73.73,2.06.24,1.33-.49,1.33-.85,1.33-.85,0,0,.97,1.33,2.79.36,1.82-.97,2.06-3.64,2.06-3.64,0,0,.49,3.64-1.21,4.73-1.7,1.09-3.03.24-3.03.24,0,0,.12,1.34-1.58.97s-1.7-.61-1.7-.61c0,0-.36,1.09-2.55,1.21-2.18.12-5.46-3.03-5.46-3.03"/>
    <path class="st1" d="M82.7,83.13s1.42-1.69,2.75-1.87c1.33-.18,2.67,1.15,4.09.98,1.42-.18,2.22.18,2.22,1.78s-.98,3.02-3.38,3.2c-2.4.18-3.91-1.51-3.91-2.67s-2.49-.36-1.78-1.42"/>
    <path class="st10" d="M85.36,83.04s.36-.62,1.87-.09c1.51.53,3.47.53,3.47.53,0,0,.27,1.69-1.24,2.31-1.51.62-2.93.27-3.2-.62-.27-.89-.09-1.24-.44-1.24s-.44-.89-.44-.89"/>
    <path class="st4" d="M87.05,84.81s1.6.44,1.78-.09c.18-.53.98-1.07.98-.45s-1.78,1.95-2.75.53"/>
    <path class="st4" d="M73.28,59.05s-1.07,2.04-.44,4.18l.62,2.13s-.44,2.31,1.78,4.09c2.22,1.78,3.29,1.24,3.29,1.24,0,0-3.29-1.87-3.82-3.55-.53-1.69.27-2.13.27-2.13,0,0-.36-.27-.98-1.69-.62-1.42.36-2.04.36-2.04,0,0-1.24.62-1.07-2.22"/>
    <path class="st8" d="M181.04,103.26s-1.5,1.8-.6,3.15l.9,1.35s-.45,1.05.3,2.55l.75,1.5,1.65.45s-2.7.3-3.3-.75c-.6-1.05.3-2.55-.3-3-.6-.45-2.7-2.85.6-5.25"/>
    <path class="st8" d="M114.46,91.71s1.65,6,1.2,9c-.45,3-2.1,5.25-1.35,8.4l.75,3.15s-.45-5.1.6-6.6c1.05-1.5,1.35-11.99-1.2-13.94"/>
    <path class="st8" d="M110.57,103.26s-1.8,6.3-1.65,10.79c.15,4.5,2.4,6.9,2.4,6.9,0,0-1.8-4.65-.45-8.55,1.35-3.9-.3-9.15-.3-9.15"/>
    <path class="st8" d="M78.18,54.38s-1.5,2.25-.9,4.05c.6,1.8,1.65,1.8,1.65,1.8,0,0-.6.3.45,1.35,1.05,1.05,2.85.9,2.85.9,0,0-2.7.15-3.75-.3-1.05-.45-1.05-1.8-1.05-1.8,0,0-4.8-3.75.75-6"/>
    <path class="st8" d="M90.32,68.47s.3,1.35,2.55,1.35,3.45-1.35,3.45-1.35c0,0,.75.9,2.4-.6,1.65-1.5.6-2.7.6-2.7,0,0,1.35,3-.6,3.9l-1.95.9s-2.1,1.65-4.2,1.35-2.25-2.85-2.25-2.85"/>
    <path class="st8" d="M68.88,66.37s-1.5,2.85-.6,3.75l.9.9s-1.35,2.55.45,3.9c1.8,1.35,2.55,1.35,2.55,1.35,0,0-3.15-3.3-1.95-5.85,0,0-1.2.15-1.35-4.05"/>
    <path class="st8" d="M188.53,118.55s.15,1.8,1.65,2.25c1.5.45,2.55-.6,2.55-.6,0,0,0,.45,2.1.15,2.1-.3,2.4-1.95,2.4-1.95,0,0,3.45,1.2,4.65-2.4,1.2-3.6.3-5.1.3-5.1,0,0,2.25,2.1,1.35,4.8-.9,2.7-2.55,3.9-3.45,4.2l-.9.3s-1.35,2.1-3.3,2.25c-1.95.15-2.7-.45-2.7-.45,0,0-1.95,1.2-4.05.6-2.1-.6-.6-4.05-.6-4.05"/>
    <path class="st9" d="M96.32,78.82s-2.39,2.01-2.47,7.98c-.08,5.96,1.42,7.01.37,9.26l-1.05,2.25s2.55-1.35,2.55-4.8-1.35-7.2-.6-9.15c.75-1.95,1.2-5.55,1.2-5.55"/>
    <path class="st9" d="M91.37,98.61s-3.6,2.55-4.8,5.85c-1.2,3.3-.45,8.1-.45,8.1,0,0,.3-5.55,1.65-7.5,1.35-1.95,4.05-3.45,3.6-6.45"/>
    <path class="st9" d="M95.27,103.26s-1.05,6.3-3,9.15c-1.95,2.85-.75,6.9-.75,6.9,0,0-1.65.3-1.2-4.05.45-4.35,1.35-4.95,2.25-6,.9-1.05,2.7-6,2.7-6"/>
    <path class="st9" d="M88.38,115.25s-2.4.9-3.3,5.55c-.9,4.65,2.7,6.3,2.7,6.3,0,0-2.55-4.35-1.65-6.3.9-1.95,2.25-5.55,2.25-5.55"/>
    <path class="st9" d="M99.62,122s-1.46.19-1.2,3.6c.26,3.41,2.1,4.8,5.1,5.25,0,0-5.55-3.6-3.9-8.85"/>
    <path class="st9" d="M78.48,78.52s5.29,4.65,7.97-.82c0,0,1.93,3.22,5.38,1.87,0,0-5.25-1.2-5.7-3.75,0,0,0,5.1-7.65,2.7"/>
    <path class="st9" d="M102.02,98.91s-1.35.3-1.65,3.9c-.3,3.6,1.05,4.95,1.05,4.95,0,0-2.85-2.4-2.25-5.25.6-2.85,2.85-3.6,2.85-3.6"/>
  </g>
  <g>
    <path class="st6" d="M94.48,251.66v-15.18h3.66c3.78,0,5.7,1.88,5.7,4.36s-1.9,4.4-5.28,4.4c-.66,0-1.34-.08-2.06-.2-.02,1.98-.04,5.16-.04,6.62h-1.98ZM96.52,243.72c.4.06.8.08,1.18.08,2.78,0,3.94-1.1,3.94-2.8s-1.16-2.86-3.76-2.86h-1.24c-.06,1.16-.08,3.36-.12,5.58Z"/>
    <path class="st6" d="M112,251.66c-.12-.2-.22-.62-.26-.9-.98.64-2.08,1.12-3.26,1.12-1.7,0-3.04-1.04-3.04-3.6v-5.42h1.76v5.22c0,1.68.92,2.24,1.96,2.24.76,0,1.38-.26,1.96-.6v-6.86h1.76v6.52c0,.9.16,1.82.34,2.28h-1.22Z"/>
    <path class="st6" d="M118.96,251.9c-2.62,0-4.02-1.98-4.02-4.32s1.62-5,4.8-5c1.02,0,1.78.28,2.4.74v-7.16l1.96-.18c-.2,2.8-.24,10.5-.24,13,0,1.02.12,2.06.28,2.68h-1.2c-.1-.34-.18-.78-.22-1.2-.94.88-2.18,1.44-3.76,1.44ZM122.14,247c0-2.02-.72-3.04-2.48-3.04s-2.78,1.5-2.78,3.38.98,3.06,2.8,3.06c.98,0,1.86-.44,2.46-.96v-2.44Z"/>
    <path class="st6" d="M126.58,236.16l1.96-.18c-.2,2.88-.26,12.6-.26,15.68h-1.7v-15.5Z"/>
    <path class="st6" d="M135.52,250.9v-1.1c.76.56,1.54.82,2.44.82.98,0,1.52-.38,1.52-1.14,0-1.72-3.7-1.28-3.7-4.2,0-1.62,1.36-2.78,3.1-2.78.88,0,1.44.14,1.92.38v1.84c-.52-.42-1.1-.68-1.86-.68-.86,0-1.42.42-1.42,1.14,0,1.74,3.76,1.38,3.76,4.18,0,1.88-1.6,2.64-3.14,2.64-1.1,0-1.94-.4-2.62-1.1Z"/>
    <path class="st6" d="M145.84,239.92c-.08,1.24-.08,2.24-.1,2.94h3.04v1.44l-3.06-.06c-.08,1.32-.08,3.14-.08,4.48,0,1.18.52,1.68,1.38,1.68.64,0,1.34-.2,1.76-.54v1.14c-.68.66-1.5,1-2.52,1-1.42,0-2.32-.76-2.32-2.82v-4.98h-1.78v-.72c.52-.12,1.3-.36,1.78-.62v-2.58l1.9-.36Z"/>
    <path class="st6" d="M152.44,241.38l-2.42-4.22,1.02-.08,2.18,2.78,2.18-2.78.9.08-2.42,4.22h-1.44ZM152.62,245.06v6.6h-1.74v-5.5c0-1.6-.24-2.64-.52-3.3h1.28c.18.34.32.86.36,1.28.66-.92,1.7-1.62,2.76-1.62.56,0,.96.14,1.3.4v1.96c-.56-.4-1-.56-1.62-.56-.7,0-1.36.28-1.82.74Z"/>
    <path class="st6" d="M158.74,247.44c0,1.92,1.28,2.92,3.22,2.92.9,0,1.68-.22,2.4-.66v1.1c-.74.72-1.84,1.2-2.98,1.2-2.5,0-4.26-1.56-4.26-4.24,0-3.16,2.16-5.26,4.86-5.26,1.92,0,2.92,1.24,2.92,2.68,0,.6-.18,1.2-.54,1.68l-5.54-.18c-.06.28-.08.52-.08.76ZM161.68,243.98c-1.02,0-2.06.52-2.58,1.66l4.26-.06c0-1.02-.56-1.6-1.68-1.6Z"/>
    <path class="st6" d="M170.22,251.9c-2.62,0-4.02-1.98-4.02-4.32s1.62-5,4.8-5c1.02,0,1.78.28,2.4.74v-7.16l1.96-.18c-.2,2.8-.24,10.5-.24,13,0,1.02.12,2.06.28,2.68h-1.2c-.1-.34-.18-.78-.22-1.2-.94.88-2.18,1.44-3.76,1.44ZM173.4,247c0-2.02-.72-3.04-2.48-3.04s-2.78,1.5-2.78,3.38.98,3.06,2.8,3.06c.98,0,1.86-.44,2.46-.96v-2.44Z"/>
    <path class="st6" d="M178.78,242.86c.12.22.22.62.26.92.94-.64,2.02-1.14,3.22-1.14,1.7,0,3.04,1.04,3.04,3.6v5.42h-1.76v-5.22c0-1.68-.9-2.24-1.96-2.24-.76,0-1.38.26-1.96.6v6.86h-1.74v-6.52c0-.9-.18-1.82-.36-2.28h1.26Z"/>
    <path class="st6" d="M188.56,241.38l-1.02-.08,2.52-4.22h1.92l-3.42,4.3ZM187.82,242.86l1.92-.28c-.18,1.62-.22,6-.22,9.08h-1.7v-8.8Z"/>
  </g>
</svg>