<?xml version="1.0" encoding="UTF-8"?>
<svg id="Vrstva_1" xmlns="http://www.w3.org/2000/svg" xmlns:xlink="http://www.w3.org/1999/xlink" version="1.1" viewBox="0 0 283.46 283.46">
  <!-- Generator: Adobe Illustrator 30.1.0, SVG Export Plug-In . SVG Version: 2.1.1 Build 136)  -->
  <defs>
    <style>
      .st0 {
        fill: none;
      }

      .st1 {
        fill: #baa99c;
      }

      .st2 {
        fill: #a99588;
      }

      .st3 {
        fill: #695c60;
      }

      .st4 {
        fill: #968074;
      }

      .st5 {
        fill: #080706;
      }

      .st6 {
        fill: #b2868b;
      }

      .st7 {
        fill: #9b8689;
      }

      .st8 {
        fill: #dbd1ca;
      }

      .st9 {
        fill: #a09085;
      }

      .st10 {
        fill: #694932;
      }

      .st11 {
        clip-path: url(#clippath-1);
      }

      .st12 {
        clip-path: url(#clippath-3);
      }

      .st13 {
        clip-path: url(#clippath-2);
      }

      .st14 {
        fill: #c9bfb8;
      }

      .st15 {
        fill: #fff;
      }

      .st16 {
        fill: #ad999b;
      }

      .st17 {
        fill: #efeae6;
      }

      .st18 {
        fill: #593c28;
      }

      .st19 {
        fill: #352215;
      }

      .st20 {
        fill: #867f81;
      }

      .st21 {
        fill: #4c4346;
      }

      .st22 {
        fill: #7f5b43;
      }

      .st23 {
        clip-path: url(#clippath);
      }
    </style>
    <clipPath id="clippath">
      <rect class="st0" x="19.84" y="19.84" width="243.78" height="243.78"/>
    </clipPath>
    <clipPath id="clippath-1">
      <rect class="st0" x="207.1" y="79.92" width="1.82" height=".71"/>
    </clipPath>
    <clipPath id="clippath-2">
      <rect class="st0" x="230.17" y="76.69" width="1.2" height=".51"/>
    </clipPath>
    <clipPath id="clippath-3">
      <rect class="st0" x="19.84" y="19.84" width="243.78" height="243.78"/>
    </clipPath>
  </defs>
  <rect class="st16" x="19.84" y="19.84" width="243.78" height="243.78"/>
  <g class="st23">
    <path class="st7" d="M86.59,179.49s6.86,4.5,9.35,8.59c2.49,4.09,18.36,9.3,21.53,7.94,3.17-1.36,9.29-7.91,12.69-7.69,3.4.22,21.23-.11,24.44,3,3.21,3.11,17.94,14.44,21.56,12.85,3.63-1.59,2.17-15.08,6.07-15.81,3.9-.73,23.43-1.59,24.77,1.33,1.34,2.92,4.74,7.45,9.04,8.59,4.31,1.13,16.47,3.02,22.4,6.04,5.93,3.02,10.01,2.79,15.45,7.33,5.44,4.53,7.48,7.48-2.04,10.88-9.52,3.4,24.36,46.18,16.93,50.04-7.43,3.85-32.92-3.25-49.59-3.25h-87.38c-22.6,0-58.45,2.26-61.27,0-2.81-2.26-13.62-58.12-12.7-62.65.92-4.53-5.43-20.17,2.28-21.08,7.71-.91,26.46-6.11,26.46-6.11"/>
    <path class="st7" d="M42.68,184.46c5.44-1.94,22.07,6.09,19.42,9.05-2.65,2.96-4.24,15.92-4.25,13.16-.01-2.76-21.52-19.94-15.17-22.21"/>
    <path class="st8" d="M40.33,118.98s0,9.16.9,15.46c.9,6.31,2.25,20.12.75,25.68-1.5,5.56-5.26,16.22-6.76,20.87-1.5,4.65-2.25,6.46-.9,6.46s10.21-9.61,11.86-14.11c1.65-4.5,8.56-16.97,8.56-16.97,0,0,13.66,26.88,18.17,27.63,4.51.75,7.81-.75,7.81-.75,0,0,3.15.9,3.15-.15v-1.05s3.45,1.8,3.15-.45c-.3-2.25-1.2-5.86-5.26-7.66-4.05-1.8-5.11-1.8-5.11-1.8,0,0,.3-3.15-2.1-4.65,0,0,1.5-3.75,0-4.81,0,0,.75-1.65-.45-3.75,0,0,10.21-2.1,10.51-5.71,0,0,11.56,3.9,19.97,6.01,8.41,2.1,26.73,3.15,31.83,4.5,5.1,1.35,16.37,9.01,23.12,10.06,6.76,1.05,9.16.45,9.16.45,0,0,6.46,1.8,9.16,1.35,2.7-.45,3.3-1.05,3.3-1.05,0,0-2.25,6.76-1.35,8.41.9,1.65,1.65,7.06,5.86,7.66,4.2.6,10.51,0,10.51,0,0,0,4.95,1.43,6.46.27,0,0,3.6.64,4.35-1.17.75-1.8-4.21-7.51-6.31-9.16-2.1-1.65-4.96-.75-4.96-.75,0,0,1.95-.9-.15-2.55,0,0,1.5-.6,2.25-3,.75-2.4.15-5.71.15-5.71,0,0-16.97-7.66-22.52-9.76-5.56-2.1-92.95-32.13-93.4-32.13s-41.74-7.66-41.74-7.66"/>
    <path class="st17" d="M46.49,141.65s0,5.85,1.5,7.66c1.5,1.8,1.95,3.28,0,5.84-1.95,2.57-4.81,7.07-1.5,11.57,3.3,4.51,6.16,5.56,6.16,5.56,0,0,.15,3.75,2.7,5.26,0,0-1.8,6.16,1.35,8.56,0,0,1.2,4.05,4.51,4.5,3.3.45,3.75-1.2,3.75-1.2,0,0,2.55,1.81,4.96,1.28,2.4-.53,2.4-1.73,2.4-1.73,0,0,1.65,1.2,2.85.15,1.2-1.05-1.65-9.46-4.05-10.21l-2.4-.75s-.3-4.06-1.95-6.01c0,0,1.35-3.88.3-5.92l-1.05-2.04s.75-5.71,5.11-10.06c4.35-4.35,5.71-13.51,10.66-11.86,4.96,1.65,1.2,5.25,18.92,10.81,17.72,5.56,29.28,4.2,33.18,6.31,3.9,2.1,1.35,5.4,1.8,7.51.45,2.1,1.35,3.15,1.35,3.15,0,0-1.95,2.25-1.5,3.45l.45,1.2s-1.5,3-3.75,4.8c-2.25,1.8-.15,3.9-1.8,5.11-1.65,1.2-3.3,4.9-1.65,6.73,1.65,1.83,6.46,0,6.46,0,0,0,1.95,1.83,5.56,2.13,3.6.3,4.5-1.2,4.5-1.2,0,0,2.4,1.35,4.2,0,0,0,4.51,1.3,5.11-.93.6-2.23-1.8-8.38-3-8.83l-1.2-.45s.9.45.15-1.65c0,0,4.05-1.65,4.96-3.6.9-1.95.45-9.91,3.75-11.71,3.3-1.8,9.31-.45,17.42,1.8,8.11,2.25,11.75,6.05,21.49,3.03,9.74-3.03,18.45-17.14,18.45-20.75s1.2-5.26,2.7-7.51c1.5-2.25.9-8.86.9-8.86,0,0,1.2,2.25,3.9,0,2.7-2.25,3.6-6.46,4.36-7.36.75-.9,6.91-10.36,6.91-10.36,0,0,1.95-20.72.6-23.43-1.35-2.7-4.51-7.36-5.26-9.46-.75-2.1-10.36-17.87-10.36-17.87,0,0-7.66-1.8-12.01,0-4.36,1.8-7.21,4.05-8.71,6.16-1.5,2.1-15.92,15.62-15.92,15.62h-4.35c-2.4,0-5.41,4.35-5.41,4.35,0,0-2.55-.45-5.4,0-2.85.45-4.05,3.3-4.05,3.3,0,0-2.55,1.35-7.51.6-4.96-.75-15.17-3.6-30.63-6.46-15.47-2.85-38.89-2.55-53.91-.3s-30.78,14.26-32.13,31.38c0,0-.15,7.66,2.1,11.86,2.25,4.21,3.3,6.61,3.3,7.81s.75,3,.75,3"/>
    <path class="st22" d="M221.14,70.01s2.45,6.45,4.25,8.51,4.12,4.25,4.64,5.29c.52,1.03,3.05,2.81,3.05,2.81,0,0,1.72-3.84,1.72-7.45s.51-5.41-3.35-7.22c0,0,.52-1.55-2.45-3.48-2.96-1.93-6.84-3.8-8.63-4.14-1.79-.34-3.36.92-2.46,1.69.9.77,2.36,1.85,3.23,4"/>
    <path class="st22" d="M45.74,122.43s1.65-7.51,4.5-8.56c2.85-1.05,7.96.75,10.66,0,2.7-.75,5.4-2.4,3.75-4.05-1.65-1.65-2.85-2.85-6.16-4.35-3.3-1.5-6.46-1.95-4.51-4.65,1.95-2.7,1.88-6.74.8-5.94-1.08.8-8.6,3.47-13.34,18.04,0,0,1.43-1.14,2.63.51,1.2,1.65-.84,11,1.65,9.01"/>
    <path class="st8" d="M48.74,161.62s.15,1.95,2.85,2.85c2.7.9,7.06.75,10.06.9,3,.15,3.51.9,3.51.9,0,0-.5-2.7-4.11-2.33-3.6.38-9.21.17-12.31-2.33"/>
    <path class="st8" d="M50.54,169.28s3.06,1.65,6.41,1.2c3.35-.45,8.21.08,8.21.08,0,0-5.56.37-7.31.82-1.75.45-5.97.37-7.31-2.1"/>
    <path class="st8" d="M56.95,182.94s1.55-2.55,3.8-3.6c2.25-1.05,6.5-1.29,6.5-1.29,0,0-5.6-1.11-7.55.69-1.95,1.8-2.75,4.2-2.75,4.2"/>
    <path class="st8" d="M135.98,182.94s2.85-.45,6.61,0c3.75.45,6.61-.2,6.61-.2,0,0-6.46-1.3-9.16-1.15-2.7.15-4.05,1.35-4.05,1.35"/>
    <path class="st8" d="M137.48,175.89s-.75.05,5.1,1.82c5.86,1.78,7.21,1.78,7.21,1.78,0,0-10.4-.16-12.31-3.6"/>
    <path class="st8" d="M138.39,171.59s.29,1.29,4.19,1.89c3.9.6,4.65-.75,7.21.75,2.55,1.5,3.45,1.65,3.45,1.65,0,0-3.15-1.8-5.41-1.35-2.25.45-9.29.12-9.45-2.94"/>
    <path class="st22" d="M105.35,113.27s-4.2,5.26-7.06,4.96c-2.85-.3-3.6-7.81-6.01-6.76-2.4,1.05-2.7,2.55-2.7,2.55,0,0-1.2-3-3.6-1.2s.3,7.46-.6,9.89c-.9,2.43-2.85,2.28.9,6.63,3.75,4.35,7.66,9.46,18.47,11.71,10.81,2.25,13.04.4,12.75-2.35-.29-2.75,3.17-4.25,2.11-7.56-1.05-3.3-5.56-5-5.86-8.43-.3-3.43,3-8.39,5.25-9.44,2.25-1.05,5.25-1.2,5.4,2.4.15,3.6.9,9.76,3.15,14.87,2.25,5.1,3.63,8.59,2.72,12.55-.92,3.96,4.5,18.05,9.9,22.12,5.4,4.07,14.26,1.37,16.51-2.09,2.25-3.45,3.39-3.46,3.12-9.84-.27-6.38-5.07-8.03-3.57-10.88,1.5-2.85,1.05-6.61.45-9.76-.6-3.15,2.25-12.31,2.1-18.02-.15-5.71.45-9.16,2.4-12.91,1.95-3.75,3.3-7.96,3.3-7.96,0,0-3.65,1.16-6.48.73,0,0-.88,2.12-4.18,5.58-3.3,3.45-4.65,5.71-4.65,5.71,0,0,5.71-7.96,5.26-9.31-.45-1.35-3.78-1.05-7.52-1.05s-6.89,1.35-6.89,1.35c0,0-1.35-1.27-5.56-1.99-4.2-.71-4.2.64-7.81-1.01-3.6-1.65-6.61,0-8.56,0s-1.35-1.77-4.65-.73c-3.3,1.04-8.26-.93-10.36-.32-2.1.61-2.25,2.86-4.65,5.56-2.4,2.7-6.01,3-3.9,5.4,2.1,2.4,5.1,1.2,6.61,4.05,1.5,2.85-6.46,8.56,4.2,5.56"/>
    <path class="st10" d="M147.54,108.74s-1.95,3.93-4.96,10.24c-3,6.31-.13,5.96-4.19,10.93-4.07,4.98-5.57,12.15-6.17,16.54-.6,4.39,2.85,6.76,2.85,6.76,0,0-4.3.86-3.8-9.78.5-10.64,6.23-13.49,7.12-16.8.89-3.3,5.39-15.38,9.15-17.9"/>
    <path class="st10" d="M144.24,102.01s-5.71,7.21-7.51,13.96c-1.8,6.76-2.7,12.53-2.7,12.53,0,0-.75-9.23,1.95-15.08,2.7-5.86,8.26-11.41,8.26-11.41"/>
    <path class="st10" d="M226.42,126.73s.26,8.12,2.84,15.99c2.58,7.86,4.9,16.37,12.63,17.66,7.74,1.29,7.99-1.93,7.48-3.87-.51-1.93-6.45-10.96-7.61-17.66-1.16-6.7-1.93-15.6-1.29-20.76.65-5.16,0-17.53-1.68-20.11-1.68-2.58-3.22-1.16-3.22-1.16l-9.15,29.91Z"/>
    <path class="st2" d="M220.1,130.98s1.68.46,2.45-2.48c.77-2.93,2.71-7.19,3.87-8.35s0-3.35,0-3.35c0,0-1.44,2.84-3.44,2.96,0,0,.6,3.24-.43,4.14-1.03.89-1.42.38-1.42,1.54s.39,5.66-1.03,5.54"/>
    <path class="st10" d="M199.64,70.48s-4.81,2.88-5.97,4.04c-1.16,1.16-3.74,3.61-5.93,4.38-2.19.77-6.19,8.13-5.42,13.67.77,5.54,3.61,11.34,3.61,11.34h1.29s10.44-15.73,10.31-19.47c-.13-3.74,2.1-13.97,2.1-13.97"/>
    <path class="st8" d="M173.69,91.67s.26,1.16-.65,6.45c-.9,5.29-.45,12.63.68,17.14l1.13,4.51s-3.09-5.03-3.61-12.38c-.51-7.35.77-10.05,1.16-11.99.39-1.93,1.29-3.74,1.29-3.74"/>
    <path class="st22" d="M194.32,77.1s-1.8,5.41-1.68,7.61c.13,2.19-2.45,8.89-4.26,11.73-1.8,2.84-3.48,12.9-3.61,23.34-.13,10.44,2.06,12.89,1.03,18.31-1.03,5.41-2.93,19.03-5.66,22.6-2.72,3.57,8.36,8.29,12.62,6.57,4.25-1.71,8.9-11.51,11.09-20.53,2.19-9.02,1.42-13.79,1.42-13.79,0,0,4.51,4,8.9,3.61,4.38-.39,7.09-7.74,6.96-11.09-.13-3.35-.52-3.87-.52-3.87,0,0-3.87,1.68-5.03-1.8-1.16-3.48-.13-9.02-1.29-12.25-1.16-3.22-4.26-6.58-3.35-11.09.9-4.51,1.68-3.48,3.48-6.06,1.8-2.58,1.16-5.67,1.16-5.67,0,0,2.32-3.61,1.68-5.29-.64-1.68-4.64-11.73-7.48-12.12-2.84-.39-5.8,3.17-5.8,3.17,0,0-3.28-.65-4.34,0-1.07.65-4.53,3.99-5.32,6.62"/>
    <path class="st10" d="M195.99,78.91s-.88,3.21,0,5.67c.88,2.46,3.04,4.38,3.65,10.57.61,6.19,2.15,18.18,1.9,21.66-.26,3.48,3.61,13.54,3.74,16.12,0,0,2.32-1.37,3.1-8.1.77-6.73-.26-9.82-2.32-14.21-2.06-4.38-3.87-11.6-3.22-14.96.64-3.35-1.08-5.72-3.18-8.47-2.1-2.75-3.26-5.58-3.65-8.29"/>
    <path class="st10" d="M195.6,93.86s1.04,5.16-.51,10.06c-1.55,4.9-2.43,13.41.85,18.43,3.27,5.03,4.43,6.96,6.17,10.57,1.74,3.61,1.62,4.77,1.62,4.77,0,0,0-4.47-.9-6.68s-6.7-8.98-7.74-15.75c-1.03-6.77.77-8.45,1.81-13.25,1.03-4.8-1.3-8.15-1.3-8.15"/>
    <path class="st10" d="M205.15,92.57s-.64,7.22.65,10.18c1.29,2.96,3.74,6.06,4.51,10.83.77,4.77.64,6.06,3.35,9.67,2.71,3.61,5.54,2.97,5.54,2.97,0,0-7.09-3.87-7.86-12.89,0,0,.26-3.22-1.93-6.7-2.19-3.48-3.22-5.41-3.22-7.86s-1.03-6.19-1.03-6.19"/>
    <path class="st10" d="M234.82,122.48s-2.47.77-3.63,4.9c-1.16,4.12-.9,10.96-.9,10.96,0,0,.39-9.45,2.26-12.07,1.87-2.62,2.28-3.78,2.28-3.78"/>
    <path class="st10" d="M230.67,72.84s.47.68-.41,2.05c-.88,1.37-1.64,5.1-.65,6.78.99,1.68,2.27,2.94,3.35,2.59,1.08-.35,1.37-4.95,1.37-6.78s-.6-2.59-1.79-2.59-.65-2.44-1.87-2.05"/>
    <path class="st10" d="M214.08,86.01c.03-.24.99-1.52.91-3.12-.08-1.6-2.21-2.36-2.59-3.58-.38-1.22-1.01-4.34-3.78-4.42-2.77-.08-5.05,1.45-5.82,5.56-.76,4.11-.07,6.17,1.37,7.38,1.45,1.22,2.21,1.14,2.9,1.9.68.76.53,1.58,2.28,1.93,1.75.35,4.34-2.92,4.72-5.66"/>
    <path class="st18" d="M204.64,84.32c.01-.21.08-5.01,1.98-6.68,1.9-1.67,4.19.84,4.87,2.13.68,1.29,2.28,2.72,2.51,3.53.23.81.01.17-.67.72-.68.55-1.38,3.06-3.59,3.67-2.21.61-3.2-.23-3.81-1.07-.61-.84-1.41-.64-1.29-2.3"/>
    <path class="st18" d="M231.06,75.44s1.65-.38,2.44,1.64c.78,2.02.18,6.14-1.22,6.22-1.4.08-2.6-3.48-2.74-4.74-.15-1.26.03-2.57,1.52-3.12"/>
    <path class="st17" d="M212.86,82.48s0,1.16-.46,1.16-1.68,2.05-3.66,2.36c-1.98.3-3.04-2.06-2.59-4.42.46-2.36,1.16-2.58,2.59-3.04,1.43-.45,4.11,3.93,4.11,3.93"/>
    <path class="st17" d="M229.59,78.91s.25-2.72,2.07-2.79c1.83-.08,2.22,2.97,2.16,3.66-.06.68-1.08,3.01-2.09,2.72-1.01-.29-1.72-2.68-1.72-2.68,0,0-.37-.55-.42-.9"/>
    <path class="st19" d="M206.07,82.28s0,.22.32.46c.32.24.96.49,2.24.55,2.56.12,2.51-3.18,2.51-3.18,0,0-1.04-2.1-2.39-1.55s-1.76.1-2.68,3.72"/>
    <path class="st19" d="M229.53,78.56c.25,1.73,1.15,1.78,2.13,1.74,1.38-.05,1.76-2.09,1.68-2.9-.08-.8-.46-2.03-2.29-1.96-1.83.06-1.52,3.12-1.52,3.12"/>
    <path class="st5" d="M207.28,80.88s1.92.58,2.68,0,0-1.98-.96-1.98c-.97,0-1.49.27-1.72,1.98"/>
    <path class="st5" d="M230.26,77.56s.18.32,1.17.31c1.76,0,1.05-1.3.66-1.71-.38-.42-1.84-.27-1.84,1.4"/>
    <path class="st2" d="M225.97,117.91s1.18,1.45,3.17,1.06c1.99-.39,3.98-1.36,5.19-3.51,1.21-2.14,1.78-7.31-.98-7.99-2.76-.68-6.08,3.67-7.38,10.44"/>
    <path class="st4" d="M227.26,116.37s2.65-6.19,4.18-6.02c1.52.17,1,2.86.43,4.23-.57,1.37-1.19,3.18.24,3.25,1.43.07,4.37-4.47,3.68-7.49-.69-3.02-2.37-3.78-4.04-3.25-1.67.53-4.71,6.88-4.92,7.54-.21.67.44,1.73.44,1.73"/>
    <path class="st1" d="M232.54,109.07s1.55.53,1.29,2.06c-.26,1.52-3.12,7.25-1.73,7.85,1.39.6,3.07.38,4.67-3.2s2.67-9.04,2.74-12.34c.07-3.29-1.8-8.46-2.66-10.12-.86-1.67-1.42-3.98-2.87-5.76-1.45-1.79-6.8-7.62-9.84-7.25-3.05.37-5.94,2.96-5.71,8.21.23,5.25-1.39,7.76-.77,9.44.62,1.67,1.84,2.13,1.15,4.26-.68,2.13-.84,2.28-.53,7.99.3,5.71,1.14,10.5,5.25,9.82,4.11-.68,3.98-5.77,4.99-8.14,1.01-2.37,3.16-3.4,4.04-2.82"/>
    <path class="st2" d="M222.83,96.44s.59-4.11,4.1-5.48c3.51-1.37,8.52-1.14,9.9,2.36,1.38,3.5,2.1,6.33.68,9.36-1.42,3.04-4.09,3.96-6.34,3.65-2.26-.31-5.38-1.14-6.9-4.19-1.52-3.05-1.9-4.12-1.45-5.71"/>
    <path class="st3" d="M228.16,102.98s-.59-.69-1.74-.76c-1.15-.08-2.75-4.64-1.91-6.47.84-1.83,6.64-3.27,9.32-3.18,2.69.09,3.96,1.52,4.47,3.86.51,2.34-.39,4.11-.92,4.95-.53.84-1.07,2.97-3.54,3.27-2.47.3-5.13.3-5.67-1.68"/>
    <path class="st21" d="M225.97,100.19s.6,1.04,1.96.43c1.37-.61,1.05-2.12,2.54-1.94,1.49.18,2.06,1.48,1.62,2.47-.43.99-1.18,1.6-1.84.91-.65-.68-1.72-.53-2.25-.3-.53.23-2.26-.79-2.04-1.57"/>
    <path class="st21" d="M235.33,100.19s-.56-1.04.55-1.52c1.11-.49,1.84-.74,2.09.02l.25.76s-1.57-.5-1.52.34c.05.84-1.13,2.17-1.38.41"/>
    <path class="st8" d="M163.57,115.26s1.74,14.89,6.77,22.43c5.03,7.54,10.44,10.06,10.44,10.06,0,0-10.25-9.87-12.18-16.25-1.93-6.38-2.13-20.11-5.03-16.24"/>
    <path class="st8" d="M160.67,162.64s3.67-2.37,7.74-1.96c4.06.41,8.7-.05,8.7-.05,0,0-.75.58-5.99,1.01-5.23.42-8.13.04-10.45,1"/>
    <path class="st6" d="M206.15,83.68s1.07,1.6,2.59,1.41c1.53-.19,2.64-1.85,3.12-1.8.48.06.95-.32.95-.32,0,0,1.27.96-.32,1.07,0,0-2.37,2.65-4.26,2.21-1.88-.43-2-1.85-2.09-2.57"/>
    <path class="st6" d="M230.26,80.5s1.24,1.29,1.98,1.25c.74-.03,1.22-.88,1.22-.88,0,0-.71,2.09-1.75,1.89-1.04-.19-1.45-2.27-1.45-2.27"/>
    <path class="st19" d="M206.06,81.14c.5-1.96,1.95-2.87,3.3-2.68,1.36.19,1.78,1.65,1.78,1.65,0,0-1.56-1.4-2.54-1.2-.98.19-2.16,1.84-2.44,3.6,0,0-.34-.44-.1-1.37"/>
    <path class="st18" d="M231.18,75.44s-.69.09-.92.46c-.23.37-.84,2.23-.2,4.06l-.22-.06s-.64-1.16-.25-3.29c0,0,.44-1.26,1.59-1.16"/>
  </g>
  <g class="st11">
    <path class="st9" d="M207.44,80.07c-.19.05-.34.13-.35.25h0c0,.06.02.11.07.16.04.05.1.09.16.11.03-.2.07-.37.12-.52"/>
    <path class="st20" d="M208.61,79.92h-.05c-.13,0-.23.03-.23.03,0,0-.52.01-.88.11-.04.15-.08.32-.12.52.07.03.16.04.25.04h.04c.54-.01,1.27-.4,1.29-.57v-.02s0-.02-.01-.02c-.07-.07-.19-.1-.29-.1"/>
  </g>
  <g class="st13">
    <path class="st9" d="M230.38,76.83c-.12.05-.2.11-.21.2v.02s0,.02,0,.04c.01.04.06.07.11.1.02-.12.05-.24.09-.34"/>
    <path class="st20" d="M230.97,76.69s-.04,0-.04,0c0,0-.33.04-.55.13-.04.1-.07.22-.09.34.06.02.14.03.23.03.38,0,.91-.17.84-.32-.09-.17-.3-.19-.39-.19"/>
  </g>
  <g class="st12">
    <path class="st14" d="M72.84,151.95s4.26-10.61,7.69-10.28c3.44.34,5.64,4.64,7.52,5.83,1.88,1.2,14.87,6.32,17.95,7.07,0,0-14.73-3.59-19.17-4.68-4.45-1.09-6.04-.67-8.14-.25-2.1.42-5.85,2.31-5.85,2.31"/>
    <path class="st14" d="M62.1,191.08s-1.24-3.1,0-2.85c1.24.25,1.33,3.69.74,3.69s-.74-.84-.74-.84"/>
    <path class="st14" d="M67.87,191.33s-1.01-4.04,0-3.11c1.01.94,1.01,3.1,0,3.11"/>
    <path class="st14" d="M70.64,191.33s-1.34-2.87-.59-3.11c.75-.24,2.01,3.67.59,3.11"/>
    <path class="st14" d="M74.33,189.79s-2.56-2.99-1.49-2.99,2.9,3.5,1.49,2.99"/>
    <path class="st14" d="M131.62,192.59s-1.09-2.45,0-2.52c1.09-.08,1.09,3.73.42,3.42-.67-.31-.42-.9-.42-.9"/>
    <path class="st14" d="M140.93,194.02s-2.26-3.1-.92-3.1,2.45,3.87.92,3.1"/>
    <path class="st14" d="M147.9,194.12s-1.69-2.87-.97-3.2c.72-.33,2.81,3.89.97,3.2"/>
    <path class="st14" d="M153.25,193.51c-.46.1-3.09-2.76-2.33-3.01.75-.25,3.57,2.76,2.33,3.01"/>
  </g>
  <g>
    <path class="st15" d="M121.11,251.66v-15.18h3.64c3.58,0,5.32,1.6,5.32,3.84,0,1.84-1.22,3.2-3.26,3.4,2.68.42,4.04,2.02,4.04,4,0,2.14-1.68,3.94-5.72,3.94h-4.02ZM128.61,247.54c0-1.52-1.08-2.86-3.88-3.1-.48-.04-1.02-.08-1.62-.08-.02,2.04-.02,4.22-.02,5.54.64.04,1.26.06,1.94.06,2.36,0,3.58-.78,3.58-2.42ZM127.99,240.6c0-1.58-.98-2.46-3.4-2.46h-1.34c-.06,1.2-.08,3-.12,4.84.34.02.92.04,1.32.04,2.32,0,3.54-.7,3.54-2.42Z"/>
    <path class="st15" d="M134.87,252c-1.4,0-2.22-.76-2.22-2.14,0-1.86,1.84-3.5,5.06-3.88v-.52c0-.94-.56-1.38-1.62-1.38-.92,0-1.74.22-2.64.66v-1.8c.98-.3,1.88-.44,2.72-.44,2,0,3.22.86,3.22,2.76,0,1.66-.08,2.96-.08,3.98s.18,1.84.38,2.42h-1.56c-.12-.56-.18-1.18-.18-1.86-.64,1.56-1.84,2.2-3.08,2.2ZM134.45,249.46c0,.62.34.98,1.02.98s2.18-.62,2.24-3.3c-2.24.4-3.26,1.34-3.26,2.32Z"/>
    <path class="st15" d="M141.23,250.9v-1.1c.76.56,1.54.82,2.44.82.98,0,1.52-.38,1.52-1.14,0-1.72-3.7-1.28-3.7-4.2,0-1.62,1.36-2.78,3.1-2.78.88,0,1.44.14,1.92.38v1.84c-.52-.42-1.1-.68-1.86-.68-.86,0-1.42.42-1.42,1.14,0,1.74,3.76,1.38,3.76,4.18,0,1.88-1.6,2.64-3.14,2.64-1.1,0-1.94-.4-2.62-1.1Z"/>
    <path class="st15" d="M150.07,247.44c0,1.92,1.28,2.92,3.22,2.92.9,0,1.68-.22,2.4-.66v1.1c-.74.72-1.84,1.2-2.98,1.2-2.5,0-4.26-1.56-4.26-4.24,0-3.16,2.16-5.26,4.86-5.26,1.92,0,2.92,1.24,2.92,2.68,0,.6-.18,1.2-.54,1.68l-5.54-.18c-.06.28-.08.52-.08.76ZM153.01,243.98c-1.02,0-2.06.52-2.58,1.66l4.26-.06c0-1.02-.56-1.6-1.68-1.6Z"/>
    <path class="st15" d="M160.95,239.92c-.08,1.24-.08,2.24-.1,2.94h3.04v1.44l-3.06-.06c-.08,1.32-.08,3.14-.08,4.48,0,1.18.52,1.68,1.38,1.68.64,0,1.34-.2,1.76-.54v1.14c-.68.66-1.5,1-2.52,1-1.42,0-2.32-.76-2.32-2.82v-4.98h-1.78v-.72c.52-.12,1.3-.36,1.78-.62v-2.58l1.9-.36Z"/>
  </g>
</svg>