<?xml version="1.0" encoding="UTF-8"?>
<svg id="Vrstva_1" xmlns="http://www.w3.org/2000/svg" xmlns:xlink="http://www.w3.org/1999/xlink" version="1.1" viewBox="0 0 283.46 283.46">
  <!-- Generator: Adobe Illustrator 30.1.0, SVG Export Plug-In . SVG Version: 2.1.1 Build 136)  -->
  <defs>
    <style>
      .st0 {
        fill: none;
      }

      .st1 {
        fill: #3c7a84;
      }

      .st2 {
        fill: #242428;
      }

      .st3 {
        fill: #b9b8b8;
      }

      .st4 {
        fill: #e3e3e3;
      }

      .st5 {
        fill: #d0d0d0;
      }

      .st6 {
        fill: #1d1d1b;
      }

      .st7 {
        fill: #51848d;
      }

      .st8 {
        fill: #68656a;
      }

      .st9 {
        fill: #fff;
      }

      .st10 {
        fill: #040505;
      }

      .st11 {
        fill: #3a393e;
      }

      .st12 {
        clip-path: url(#clippath);
      }
    </style>
    <clipPath id="clippath">
      <rect class="st0" x="19.84" y="19.84" width="243.78" height="243.78"/>
    </clipPath>
  </defs>
  <rect class="st7" x="19.84" y="19.84" width="243.78" height="243.78"/>
  <g class="st12">
    <path class="st1" d="M80.42,213.51s6.07,12.3-19.3,19.61c-25.37,7.31-46.01,36.4-46.01,36.4l53.75,3.16,12.29-39.56-.73-19.61Z"/>
    <path class="st1" d="M203.45,71.01s4.73-15.91,6.02-18.49c1.29-2.58,5.59-.86,9.89-6.02,4.3-5.16,7.74-26.09,18.06-28.95,10.32-2.87,29.24-4.59,29.24-4.59l9.46,253.7-50.74,2.86s-39.99-45.43-39.99-47.15,18.06-151.36,18.06-151.36"/>
    <path class="st10" d="M112.74,92.28s3.6-1.09,7.15-.48c3.55.61,4.5.77,4.5.77l17.04-4.15s1.35-2.21,6.52-1.08l5.17,1.13s-4.03-7.76-2.71-12.65l1.33-4.89.74,2.81s1.01-5.92,2.56-7.85l1.55-1.93s-1.08,3.47-.34,6.28l.74,2.81s4.62-17,10.65-22.3c3.49-3.07,6.26-4.79,7.97-5.7,1.24-.66,1.93-.89,1.93-.89l-2.5,3.23s16.84-12.96,20.2-12.62c3.36.33,3.29,6.41,3.29,6.41l1.43-1.22s2.84,14.72,3.1,18.86l.26,4.14,1.63-3.81s6.76,17.44,5.33,27.18-2.11,12.31-2.11,12.31l3.33-3.82s-2.12,6.7-3.98,7.6l-1.86.9,7.37,2.48s-5.02.85-8.42,2.21l-3.4,1.37s8.24,3.12,10.08,6.6l1.84,3.48s-6.11-2.75-7.53-3l-1.42-.24s9.09,8.14,12.63,18.74c3.55,10.6,3.25,15.18,3.25,15.18l-2.83-3.41s12.23,19.64,10.61,29.11l-1.62,9.47s-.04-8.29-1.6-13.43c-1.56-5.14-2.9-5.83-2.9-5.83,0,0-3.75,9.07,1.04,16.72,4.78,7.64,6.06,12.98,6.06,12.98l-8.38-8.02s2.59,3.37,2.53,7.99l-.06,4.62s-.01-5.61-2.92-8.54c-2.91-2.94-3.77-3.57-3.77-3.57,0,0,2.38,6.01,2.25,8.19l-.13,2.17-3.15-2.97s9.87,17.78,11.56,29.28.1,12.2,4.43,16.84,14.14,17.05,15.26,21.87c1.12,4.82,8.39,11.67,8.6,19.26l-173.27-29.69s-1.97-78.08-4.61-79.76-6.05-7.37-5.15-14.04c.9-6.67,2.15-12.55,2.15-12.55l-3.5,4.76,1.18-6.87s-.95,1.3-4.5.69l-3.55-.61s5.13,1.37,6.85-2.97c1.72-4.34,1.92-5.52,1.92-5.52,0,0-2.85-.42-6.85,3-4,3.43-4.73,7.69-4.73,7.69,0,0,1.26-8.8,6.76-11.03,5.5-2.23,1.54-7.54,1.54-7.54l-6.2-.82,2.51-1.86-4.26-.73s3.05-6.44.87-12.18c-2.19-5.74-4.82-8.87-4.82-8.87l2.13.36s-4.19-8.27-4.76-13.49c-.57-5.21,1.06-6.15,1.06-6.15l.74,2.81s-2.43-11.14-2.85-18.04c-.43-6.9-1.54-12.94,2.23-13.02,3.77-.09,13.15,3.47,19.24,10.61s8.16,12.12,8.16,12.12l-3.39-10.09s10.3,9.57,13.17,12.74l2.87,3.17-1.23-7.04,6.33,5.71.53-3.08s5,3.54,6.13,6.9l1.13,3.36.03-5.85s4.34.26,3.88,7.24"/>
    <path class="st4" d="M176.33,186.28s7.72,4.74,10.77,11.11c3.05,6.37,2.16,11.58,2.16,11.58l-2.3-6.49s3.02,12.22,3.59,18.89c.56,6.68-.69,12.55-.69,12.55l-1.6-3.44s.61,4.98-1.41,6.82l-2.02,1.85s1.48-4.38-.28-6.87l-1.77-2.5s1.21,11.42-1.99,13.06c-3.21,1.64-4.67,1.64-4.67,1.64,0,0,1.83-.66,1.6-2.9-.23-2.23-3.76,1.31-4.53,5.8-.77,4.5-6.86,5.89-6.86,5.89,0,0,2.81-.74,2.87-5.36.06-4.62-2.18-7.2-2.18-7.2,0,0-4.27,19.25-7.55,19.91l-3.28.66s1.12-2.25,1.87-3.82c.76-1.58,1.99,9.12,1.99,9.12l-92.95,2.92s4.29-25.42,6.36-28.97l2.07-3.55-2.5,2.25s.78-5.47,1.54-9c.77-3.53,1.43-5.85,1.59-9.72.17-3.87-2.79,3.42-2.79,3.42,0,0,2.42-9.82.16-13.74-2.25-3.92-5.56-14.48-5.32-24.43.24-9.95,2.31-13.5,2.31-13.5l-2.07,3.54s-2-2.54-1.16-6.05c.85-3.51.26-4.59,1.32-7.82,1.06-3.23,4.93-12.07,4.93-12.07,0,0-.28,10.67.49,13.24l.78,2.57.37-3.59,1.21,2.89s-.77-4.03,3.77-4.96c4.55-.93,7.62-.4,7.62-.4,0,0,.05,5.37-3.15,7.01-3.21,1.64-5.65,1.71-5.65,1.71,0,0,3.9,2.86,6.07,2.99,2.17.13,3.44-.14,3.44-.14l-3.41,2.83s6.07,1.53,9.48.16c3.4-1.37,3.7-5.95,3.72-10.33.02-4.38,2.33-7.88,4.7-8.94l2.38-1.06s20.03,40.96,26.41,44.98c6.38,4.02,26.88,3.87,30.6.61s11.49-14.93,13.96-13.21"/>
    <path class="st5" d="M112.62,179.75s9.92,19.25,16.93,24.85c7.01,5.6,23.17,2.93,28.56,1.66,5.39-1.27,10.66-8.34,13.05-12.89,2.38-4.54,3.74-6.99,3.74-6.99,0,0-.78,9.23-2.21,12.87-1.43,3.64-4.8,3.99-5.02,9.44-.21,5.45,1.51,13.1,1.51,13.1,0,0-.22-2.98-2.45-7.64-2.22-4.66-1.48-5.88-1.48-5.88,0,0-3.6,5.61-.79,10.94,2.81,5.33,5.1,7.2,5.1,7.2,0,0-5.09-1.14-7.3-5.4-2.21-4.26-2.5-9.26-2.5-9.26,0,0-3.08.41-3.41,6.24-.33,5.83.37,7.82,2.57,13.02,2.2,5.19,3.86,6.15,3.86,6.15,0,0-4.18.09-7.26-5.53-3.09-5.61-4.32-15.59-4.32-15.59,0,0-2.89,1.38-3.39,4.64l-.5,3.26-1.45-4.4s-5.54-2.82-7.78,1.08c-2.25,3.9-.75,13.92,1.47,16.58,0,0-7.02-7.36-7.22-13.28-.2-5.92.53-7.8.53-7.8,0,0-4.33,1.93-3.69,6.73.64,4.79.72,6.15.72,6.15,0,0-8.06-5.53-5.6-12.07,2.46-6.54,2.82-7.87,2.26-7.74-.56.14-2.57-2.47-4.47.54-1.9,3.01-5.15,12.63-3.54,17.32,1.6,4.69-1.99,9.29-1.99,9.29,0,0,1.4-4.85.04-8.69-1.37-3.85-2.72-14.12-1.82-18.11.9-3.99,2.71-9.31,1.94-11.31s-7.14,4.68-7.92,9.22c-.78,4.54-7.33,14.13-11.31,14.11,0,0,4.68-5.49,6.55-9.58,1.88-4.09.04-9.76,1.97-14.78,1.93-5.02,2.7-5.43,2.7-5.43,0,0-3.54-1.29-4.94,2.56-1.4,3.85-4.26,6.44-4.26,6.44,0,0,1.95-2.74,2.59-6.11.64-3.37,3.6-11.03,5.08-12.38,1.48-1.35-1.08-2.79-2.44.49-1.36,3.28-.96,4.82-3.29,6.69l-2.33,1.88s2.07-3.49,2.4-7c.33-3.51.67-10.16,1.51-12.67.84-2.51,3.63-3.66,3.63-3.66,0,0,4.15,8.38,5.96,11.74"/>
    <path class="st9" d="M112.62,179.75s2.96,8.31,4.32,13.17c1.36,4.86,9.96,15.84,14.85,17.17,4.89,1.33,8.55,4.15,18.94,3.25,10.39-.9,12.86-5.35,16.11-8.69,3.25-3.34,8.01-15.44,9.48-18.36,1.47-2.92-2.29-9.41-2.29-9.41l1.66.28-1.64-4.67,1.42.24s1.19-1.26-4.55-7.6c-5.74-6.35-10.96-10.16-13.5-13.04-2.54-2.87-3.74-7.22-3.74-7.22,0,0-4.6-4.44-4.62-8.59-.02-4.15,1.68-5.56,2.13-8.16.45-2.61-4.38-8.55-.65-13.27,3.73-4.72,3.02-3.38,4.45-6.06,1.43-2.68-8.95-11.77-10.91-14.54-1.96-2.77-2.66-5.82-2.66-5.82,0,0-13.87,1.28-19.17,3.78,0,0-1.73,7.26-3.47,8.91-1.75,1.65-8.65,7.78-10.91,11.05-2.26,3.27-1.78,10.42-.93,13.98.85,3.56,3.52,6.49,1.72,7.02-1.79.53-6.13,6.12-6.43,7.78-.3,1.65-.51,3-.51,3l1.91-1.3.21,5.88s3.16-2.81,3.52-2.04c.36.76-2.91,5.59-2,7.42.91,1.83-2.41,8.36-1.8,13.34.61,4.98,2.3,6.49,2.3,6.49l-.03-2.69,2.03,5.22,1.43-1.22s1.52,3.92,3.33,4.71"/>
    <path class="st4" d="M108.97,154.51s2.88,4.62,7.64,3.43c4.75-1.19,7.8-5.92,7.83-4.83.03,1.09-.52,7.55-3.21,9.9-2.69,2.35-6.38,2.39-8.86,1.03-2.47-1.36-6.63-1.27-5.72,3.97,0,0-1.14-5.44-.64-9.15.5-3.72,1.36-7.14,2.96-4.35"/>
    <path class="st5" d="M122.14,195.28s5.85,17.09,29.79,13.88c23.95-3.21,17.88-24.72,17.88-24.72,0,0,1.53,19.51-11.78,20.4,0,0-7.49-.55-9.69.29-2.2.84-7.07,1.71-12.23,1.07-5.16-.64-13.97-10.92-13.97-10.92"/>
    <path class="st11" d="M134.91,189.42s-2.7-11.67,7.06-13.17c9.76-1.5,14.34.99,17.02,6.33,2.68,5.33.76,9.39.76,9.39l-24.84-2.55Z"/>
    <path class="st2" d="M146.83,184.89s-11.36.25-11.92,4.54c-.56,4.29,2.5,11.84,13.98,12.49,11.48.65,10.86-9.94,10.86-9.94,0,0,3.27-7.72-12.92-7.09"/>
    <path class="st10" d="M137.51,193.75s7.64.84,6.56-1.33c-1.08-2.17-3.11-2.37-4.15-2.48-1.03-.11,2.42,1.2-2.42,3.81"/>
    <path class="st10" d="M157.23,192.87s-6.87,1.13-6.59-1.13c.28-2.26,2.59-3.32,3.8-2.38,1.22.94-1.85,1.12,2.79,3.51"/>
    <path class="st5" d="M98.86,198.85s-3.82,6.66-4.36,11.19c-.53,4.54-3.98,11.99-6.49,13.76l-2.51,1.76s4.18,1.2,7.31-1.43l3.13-2.63s1.04,6.76-3.28,9.19l-4.32,2.43s6.04.3,8.54-2.92c2.5-3.23,4.65-5.78,5.29-8.11l.64-2.33-4.77,6.49s.14-5.09-.44-7.39l-.58-2.29s-2.96,5.83-5.99,6.53c0,0,4.62-8.47,4.87-10.62.25-2.15,1.55-11.19,2.94-13.63"/>
    <path class="st5" d="M118.82,231.75s-2.98,4.61.74,11.34c3.72,6.73,11.59,13.44,11.59,13.44l-.24-5.16.93,1.14,2.76-3.67-3.33.4-2.8-2.67.49,5.69s-12.43-9.93-10.14-20.5"/>
    <path class="st2" d="M101.83,111.86s-2.81.74-4.72,4.8c-.96,2.03-1.24,3.69-1.29,4.84-.05,1.15.15,1.79.15,1.79l3.13-2.63s-3.04,6.05-3.73,15.93c-.69,9.88-.44,15.53-.44,15.53,0,0-1.8-18.59.19-27.02l-2.29,2.29s.09-12.48,9-15.52"/>
    <path class="st2" d="M165.95,102.37s9.27,5,13.2,9.09l3.93,4.09-4.97-2.31s8.92,9.08,11.34,16.32c2.42,7.24,2.29,9.41,2.29,9.41,0,0-7.94-22.56-20.58-27.41l5.7.49s-9.11-9.6-10.91-9.67"/>
    <path class="st2" d="M168.66,132.72s4.17,1.26,4.91,4.13c.74,2.87-.09,4.51-.09,4.51,0,0,2.15-2.33,1.04-5.35-1.11-3.02-5.86-3.29-5.86-3.29"/>
    <path class="st2" d="M161.13,136.64s-1.61,2.19-.75,4.4l.86,2.2s-3.8-4.22-.1-6.6"/>
    <path class="st11" d="M166.01,134.55s-4.11-.8-4.12,4.82c0,5.62,10.52,4.07,9.35-1,0,0-.71-3.04-2.97-3.43,0,0,1.47,2.63.23,4.27-1.24,1.63-4.48.71-5.32-.91-.84-1.62,2.83-3.74,2.83-3.74"/>
    <path class="st8" d="M163.65,140.36s1.07.87,2.56.99c1.5.12,2.55-.8,2.55-.8,0,0-2.6,3.53-5.12-.19"/>
    <path class="st8" d="M109.18,149.4s2.38,3.7,6.42,4.12c4.04.42,7.23-2.19,8.41-2.67,1.18-.48,1.52-2.48.71-4.13-.81-1.65-2.86-6.52-5.92-7.05-3.06-.52-7.05,1.95-8.55,3.47-1.49,1.53-2.9,3.33-2.9,3.33,0,0-.31.65,1.83,2.93"/>
    <path class="st10" d="M110.41,147s-.36,3.79,5.18,4.6c5.53.81,8.17-3.25,8.27-3.85.1-.61-1.38-6.45-4.82-7.1-3.44-.65-8.64.03-8.63,6.36"/>
    <path class="st11" d="M116.28,141.3s-3.91.03-4.14,4.44c-.24,4.41,4.52,4.81,6.66,4.35,2.13-.46,3.82-3.87,2.78-5.83-1.03-1.96-2.45-2.48-2.45-2.48,0,0,2.75,6.37-1.14,5.84-3.89-.53-4.2-4.01-1.7-6.32"/>
    <path class="st8" d="M113.59,145.28s-.54,3.16,3.25,3.38c0,0-4.82,1.76-3.25-3.38"/>
    <path class="st4" d="M130.37,147.27s3.5-10.09,2.43-14.18c-1.07-4.09-5.34-6.34-5.34-6.34,0,0,3,4.08,3.16,7.95.16,3.87-1.1,12.01-1.7,12.32-.6.31.95,1.8,1.45.25"/>
    <path class="st4" d="M144.82,124.8s-.04.22-.1.61c-.35,2.15-1.34,9.48.6,13.12,2.28,4.3,3.61,5.35,2.81,5.21-.8-.14-3.04-2.71-4.44-5.49-1.4-2.78-.9-11.74,1.14-13.45"/>
    <path class="st3" d="M121.08,200.33s7.22,12.09,25.24,13.18c0,0,9.51.98,16.58-4.75,0,0-4.36,5.46-16.27,5.65-11.91.19-22.69-5.28-25.55-14.07"/>
    <path class="st4" d="M177.22,236.56s6.02,9.03,4.73,14.62c-1.29,5.59-6.02,6.45-6.02,6.45l-.43-4.3s-2.58,10.75-5.16,13.33l-2.58,2.58-9.89-.86-2.58-13.33,10.75-15.91,11.18-2.58Z"/>
    <path class="st4" d="M180.23,230.11s4.58-2.9,5.59,2.15c1.01,5.05,1.29,10.75,1.29,10.75l-3.01-1.72s4.3,7.31,4.73,11.61c.43,4.3-3.87,5.59-3.87,5.59l-.43-6.02s-3.87,6.02-3.01,8.17c.86,2.15,7.74,3.87,7.74,6.45s.86,5.16.86,5.16l-31.39-2.15,21.5-39.99Z"/>
    <path class="st4" d="M186.95,202.48s7.47,17.31,7.9,24.19c.43,6.88-1.29,11.18-1.29,11.18l-1.29-4.73-.86,10.75-4.3-.86s7.31,8.6,8.17,12.47c.86,3.87-.43,7.74-.43,7.74l-2.58-5.59-2.15,14.62-16.34-14.62,14.19-29.24-1.02-25.91Z"/>
    <path class="st4" d="M190.12,231.83s4.3,9.46,5.16,12.9c.86,3.44,2.15,6.45,2.15,6.45l-4.3-2.15s6.45,9.89,6.88,14.62-5.16,10.75-5.16,10.75l-10.75.43-3.01-33.97,9.03-9.03Z"/>
  </g>
  <g>
    <path class="st6" d="M93.62,251.66v-15.18h3.64c3.58,0,5.32,1.6,5.32,3.84,0,1.84-1.22,3.2-3.26,3.4,2.68.42,4.04,2.02,4.04,4,0,2.14-1.68,3.94-5.72,3.94h-4.02ZM101.12,247.54c0-1.52-1.08-2.86-3.88-3.1-.48-.04-1.02-.08-1.62-.08-.02,2.04-.02,4.22-.02,5.54.64.04,1.26.06,1.94.06,2.36,0,3.58-.78,3.58-2.42ZM100.5,240.6c0-1.58-.98-2.46-3.4-2.46h-1.34c-.06,1.2-.08,3-.12,4.84.34.02.92.04,1.32.04,2.32,0,3.54-.7,3.54-2.42Z"/>
    <path class="st6" d="M114.64,247.28c0,2.78-1.98,4.72-4.68,4.72s-4.66-1.98-4.66-4.72,1.96-4.78,4.68-4.78,4.66,2,4.66,4.78ZM107.22,247.28c0,1.9,1.16,3.34,2.82,3.34s2.66-1.38,2.66-3.3-1.12-3.4-2.8-3.4-2.68,1.38-2.68,3.36Z"/>
    <path class="st6" d="M118.44,245.06v6.6h-1.74v-5.5c0-1.6-.24-2.64-.52-3.3h1.28c.18.34.32.86.36,1.28.66-.92,1.7-1.62,2.76-1.62.56,0,.96.14,1.3.4v1.96c-.56-.4-1-.56-1.62-.56-.7,0-1.36.28-1.82.74Z"/>
    <path class="st6" d="M126.8,251.9c-2.62,0-4.02-1.98-4.02-4.32s1.62-5,4.8-5c1.02,0,1.78.28,2.4.74v-7.16l1.96-.18c-.2,2.8-.24,10.5-.24,13,0,1.02.12,2.06.28,2.68h-1.2c-.1-.34-.18-.78-.22-1.2-.94.88-2.18,1.44-3.76,1.44ZM129.98,247c0-2.02-.72-3.04-2.48-3.04s-2.78,1.5-2.78,3.38.98,3.06,2.8,3.06c.98,0,1.86-.44,2.46-.96v-2.44Z"/>
    <path class="st6" d="M135.42,247.44c0,1.92,1.28,2.92,3.22,2.92.9,0,1.68-.22,2.4-.66v1.1c-.74.72-1.84,1.2-2.98,1.2-2.5,0-4.26-1.56-4.26-4.24,0-3.16,2.16-5.26,4.86-5.26,1.92,0,2.92,1.24,2.92,2.68,0,.6-.18,1.2-.54,1.68l-5.54-.18c-.06.28-.08.52-.08.76ZM138.36,243.98c-1.02,0-2.06.52-2.58,1.66l4.26-.06c0-1.02-.56-1.6-1.68-1.6Z"/>
    <path class="st6" d="M145.26,245.06v6.6h-1.74v-5.5c0-1.6-.24-2.64-.52-3.3h1.28c.18.34.32.86.36,1.28.66-.92,1.7-1.62,2.76-1.62.56,0,.96.14,1.3.4v1.96c-.56-.4-1-.56-1.62-.56-.7,0-1.36.28-1.82.74Z"/>
    <path class="st6" d="M161.06,242.86h2.2c-1.4,1.62-3.06,3.44-4.02,3.98,1.04.8,3.2,3.24,4.2,4.82h-2.34c-.2-.8-3.32-4.32-3.94-4.36-.02,1-.04,3.06-.04,4.36h-1.68v-15.5l1.98-.18c-.1,1.52-.26,6-.3,10.98.62-.06,2.86-2.58,3.94-4.1Z"/>
    <path class="st6" d="M173.22,247.28c0,2.78-1.98,4.72-4.68,4.72s-4.66-1.98-4.66-4.72,1.96-4.78,4.68-4.78,4.66,2,4.66,4.78ZM165.8,247.28c0,1.9,1.16,3.34,2.82,3.34s2.66-1.38,2.66-3.3-1.12-3.4-2.8-3.4-2.68,1.38-2.68,3.36Z"/>
    <path class="st6" d="M175.32,236.16l1.96-.18c-.2,2.88-.26,12.6-.26,15.68h-1.7v-15.5Z"/>
    <path class="st6" d="M181.88,238.7c0,.64-.52,1.16-1.16,1.16s-1.16-.52-1.16-1.16.54-1.16,1.16-1.16,1.16.52,1.16,1.16ZM179.68,242.86l1.92-.28c-.18,1.62-.22,6-.22,9.08h-1.7v-8.8Z"/>
    <path class="st6" d="M185.06,247.44c0,1.92,1.28,2.92,3.22,2.92.9,0,1.68-.22,2.4-.66v1.1c-.74.72-1.84,1.2-2.98,1.2-2.5,0-4.26-1.56-4.26-4.24,0-3.16,2.16-5.26,4.86-5.26,1.92,0,2.92,1.24,2.92,2.68,0,.6-.18,1.2-.54,1.68l-5.54-.18c-.06.28-.08.52-.08.76ZM188,243.98c-1.02,0-2.06.52-2.58,1.66l4.26-.06c0-1.02-.56-1.6-1.68-1.6Z"/>
  </g>
</svg>