<?xml version="1.0" encoding="UTF-8"?>
<svg id="Vrstva_1" xmlns="http://www.w3.org/2000/svg" version="1.1" viewBox="0 0 283.46 283.46">
  <!-- Generator: Adobe Illustrator 30.1.0, SVG Export Plug-In . SVG Version: 2.1.1 Build 136)  -->
  <defs>
    <style>
      .st0 {
        fill: #ffd241;
      }

      .st1 {
        fill: #4f266a;
      }

      .st2 {
        fill: #fff;
      }

      .st3 {
        fill: none;
        stroke: #fff;
        stroke-linecap: round;
        stroke-linejoin: round;
        stroke-width: 5px;
      }
    </style>
  </defs>
  <rect class="st1" y="0" width="283.46" height="283.46"/>
  <polygon class="st3" points="-136.17 11.82 -229.34 -80.72 -322.5 11.82 -304.67 11.82 -304.67 117.27 -154 117.27 -154 11.82 -136.17 11.82"/>
  <path class="st0" d="M-200.93-7.59c-7.81.06-14.88,3.25-20.02,8.38-5.18,5.18-8.38,12.33-8.38,20.24,0-7.9-3.2-15.06-8.38-20.24-5.14-5.13-12.21-8.32-20.02-8.38-15.86-.12-28.84,13.26-28.84,29.13h0c0,14.05,5.99,27.44,16.46,36.81l40.78,36.49,40.78-36.49c10.47-9.37,16.46-22.76,16.46-36.81h0c0-15.86-12.98-29.24-28.84-29.13h0Z"/>
  <rect class="st3" x="84.44" y="188.89" width="116.46" height="22.27"/>
  <rect class="st3" x="84.44" y="108.91" width="116.46" height="22.27"/>
  <rect class="st0" x="84.44" y="134.2" width="18.71" height="52.29"/>
  <rect class="st0" x="182.18" y="133.66" width="18.71" height="52.87"/>
  <rect class="st0" x="133.31" y="133.66" width="18.71" height="52.87"/>
  <rect class="st3" x="84.44" y="131.72" width="18.71" height="57.16"/>
  <rect class="st3" x="182.18" y="131.13" width="18.71" height="57.8"/>
  <rect class="st3" x="133.31" y="131.13" width="18.71" height="57.8"/>
  <g>
    <g>
      <path class="st3" d="M250.48,120.98c-9.43-52.16-55.06-91.73-109.94-91.73S43.15,66.15,31.68,115.66"/>
      <polygon class="st2" points="16.54 94.43 20.96 92.09 32.49 113.88 53.39 100.79 56.04 105.04 30.59 120.97 16.54 94.43"/>
    </g>
    <g>
      <path class="st3" d="M30.59,160.98c9.43,52.16,55.06,91.73,109.94,91.73s97.38-36.9,108.85-86.42"/>
      <polygon class="st2" points="264.52 187.52 260.1 189.86 248.58 168.07 227.68 181.16 225.03 176.91 250.48 160.98 264.52 187.52"/>
    </g>
  </g>
  <polygon class="st0" points="142.67 84.84 109.8 99.84 173.93 99.84 142.67 84.84"/>
  <polygon class="st3" points="141.67 71.12 71.41 108.95 211.94 108.95 141.67 71.12"/>
</svg>