<?xml version="1.0" encoding="UTF-8"?>
<svg id="Vrstva_1" xmlns="http://www.w3.org/2000/svg" version="1.1" viewBox="0 0 283.46 283.46">
  <!-- Generator: Adobe Illustrator 30.1.0, SVG Export Plug-In . SVG Version: 2.1.1 Build 136)  -->
  <defs>
    <style>
      .st0 {
        fill: #ffd241;
      }

      .st1 {
        fill: #4f266a;
      }

      .st2 {
        fill: #fff;
      }

      .st3 {
        fill: none;
        stroke: #fff;
        stroke-linecap: round;
        stroke-linejoin: round;
        stroke-width: 5px;
      }
    </style>
  </defs>
  <rect class="st1" y="0" width="283.46" height="283.46"/>
  <rect class="st0" x="57.89" y="54.2" width="145.55" height="97.75" rx="9.86" ry="9.86"/>
  <rect class="st3" x="51.87" y="49.18" width="145.55" height="97.75" rx="9.86" ry="9.86"/>
  <path class="st3" d="M55.29,52.28l63.79,54.32c3.16,2.69,7.8,2.69,10.96,0l63.73-54.14"/>
  <line class="st3" x1="55.29" y1="143.91" x2="110.71" y2="99.47"/>
  <line class="st3" x1="138.44" y1="99.47" x2="193.99" y2="143.91"/>
  <circle class="st0" cx="196.83" cy="201.98" r="38.12"/>
  <circle class="st3" cx="189.55" cy="201.58" r="38.12"/>
  <g>
    <path class="st1" d="M177.3,192.23v20.87h-5.44v-20.87h5.44ZM190.8,192.23l-9.8,11.73-.35-.82-4.96,6.04-1.04-4.39,10.12-12.55h6.04,0ZM182.77,199.12l8.41,13.97h-6.16l-6.32-10.94,4.08-3.04h0Z"/>
    <path class="st1" d="M199.59,196.97c1.6,0,2.93.23,4,.68,1.06.45,1.9,1.05,2.5,1.8s.98,1.55,1.12,2.42l-4.96,1.64c-.15-.9-.42-1.58-.81-2.04-.39-.45-.95-.68-1.69-.68-.67,0-1.24.15-1.69.46-.45.31-.79.79-1.03,1.45s-.35,1.51-.35,2.55.13,1.87.38,2.51.61,1.11,1.07,1.39,1.01.43,1.65.43c.52,0,.97-.1,1.31-.3.35-.2.64-.49.87-.87.23-.38.38-.84.44-1.39l4.84,1.55c-.15.93-.54,1.76-1.19,2.48s-1.49,1.3-2.55,1.72c-1.05.42-2.29.64-3.7.64-1.73,0-3.24-.32-4.52-.97-1.28-.64-2.28-1.58-2.97-2.81-.7-1.23-1.04-2.71-1.04-4.44s.35-3.21,1.04-4.44,1.67-2.17,2.93-2.81,2.7-.97,4.35-.97h0ZM205.43,189.76l-3.44,5.47h-5.22l-3.44-5.47h3.89l2.15,2.81,2.18-2.81h3.89,0Z"/>
  </g>
  <g>
    <path class="st3" d="M93.85,160.55c-2.23,10.88-5.55,46.2,44.71,47.66"/>
    <polygon class="st2" points="80.43 168.49 82.28 170.86 93.93 161.74 102.17 174.03 104.66 172.36 94.62 157.39 80.43 168.49"/>
    <polygon class="st2" points="128 219.82 126.08 217.52 137.42 208.03 127.12 197.41 129.28 195.32 141.82 208.26 128 219.82"/>
  </g>
</svg>