<?xml version="1.0" encoding="UTF-8"?>
<svg id="Vrstva_1" xmlns="http://www.w3.org/2000/svg" version="1.1" viewBox="0 0 283.46 283.46">
  <!-- Generator: Adobe Illustrator 30.2.1, SVG Export Plug-In . SVG Version: 2.1.1 Build 1)  -->
  <defs>
    <style>
      .st0 {
        fill: #ffd241;
      }

      .st1 {
        fill: #fff;
      }

      .st2 {
        fill: none;
        stroke: #4f266a;
        stroke-linecap: round;
        stroke-linejoin: round;
        stroke-width: 3px;
      }
    </style>
  </defs>
  <g>
    <polygon class="st1" points="183.96 4.67 40.8 6.04 43.41 278.73 246 276.79 243.96 63.75 184.53 64.32 183.96 4.67"/>
    <polygon class="st1" points="183.96 4.67 184.53 64.32 243.96 63.75 183.96 4.67 183.96 4.67"/>
  </g>
  <rect class="st0" x="41.77" y="208.37" width="203.27" height="68.42"/>
  <g>
    <polygon class="st2" points="183.96 4.67 40.8 6.04 43.41 278.73 246 276.79 243.96 63.75 184.53 64.32 183.96 4.67"/>
    <polygon class="st2" points="183.96 4.67 184.53 64.32 243.96 63.75 183.96 4.67 183.96 4.67"/>
  </g>
  <line class="st2" x1="63" y1="87" x2="224" y2="87"/>
  <line class="st2" x1="63" y1="112" x2="224" y2="112"/>
  <line class="st2" x1="63" y1="137" x2="224" y2="137"/>
  <line class="st2" x1="63" y1="162" x2="224" y2="162"/>
  <line class="st2" x1="63" y1="187" x2="224" y2="187"/>
  <g>
    <path class="st1" d="M112.08,229.66c4.38,0,7.74,1.21,10.07,3.65,2.33,2.43,3.5,5.88,3.5,10.35s-1.17,7.92-3.5,10.35c-2.33,2.43-5.69,3.65-10.07,3.65h-11.87v-27.99h11.87ZM111.36,252.14c2.37,0,4.11-.71,5.19-2.14,1.09-1.43,1.63-3.54,1.63-6.34s-.54-4.91-1.63-6.34-2.82-2.14-5.19-2.14h-3.86v16.96h3.86Z"/>
    <path class="st1" d="M143.21,229.24c2.83,0,5.26.57,7.32,1.72,2.05,1.15,3.63,2.79,4.73,4.94s1.65,4.74,1.65,7.76-.55,5.61-1.65,7.76c-1.1,2.15-2.68,3.8-4.73,4.94-2.05,1.15-4.49,1.72-7.32,1.72s-5.27-.57-7.34-1.72c-2.06-1.14-3.65-2.79-4.75-4.94-1.1-2.15-1.65-4.74-1.65-7.76s.55-5.61,1.65-7.76,2.69-3.8,4.75-4.94,4.51-1.72,7.34-1.72h0ZM143.21,234.97c-1.36,0-2.5.32-3.44.97s-1.64,1.62-2.12,2.91c-.48,1.29-.72,2.89-.72,4.81s.24,3.49.72,4.79c.48,1.3,1.19,2.28,2.12,2.93s2.08.97,3.44.97,2.49-.32,3.41-.97,1.62-1.63,2.1-2.93c.48-1.3.72-2.9.72-4.79s-.24-3.53-.72-4.81c-.48-1.29-1.18-2.26-2.1-2.91-.92-.65-2.06-.97-3.41-.97Z"/>
    <path class="st1" d="M186.72,249.64c-.54,1.95-1.4,3.56-2.59,4.81s-2.6,2.18-4.24,2.76-3.45.87-5.43.87c-2.83,0-5.27-.57-7.34-1.72-2.06-1.14-3.65-2.79-4.75-4.94-1.1-2.15-1.65-4.74-1.65-7.76s.55-5.61,1.65-7.76,2.69-3.8,4.75-4.94,4.5-1.72,7.29-1.72c1.95,0,3.75.28,5.39.83s3.03,1.39,4.16,2.52,1.94,2.59,2.42,4.37l-6.4,2.59c-.4-1.75-1.04-2.95-1.93-3.6s-2.01-.97-3.37-.97-2.48.32-3.46.97c-.97.65-1.72,1.62-2.25,2.91-.52,1.29-.79,2.89-.79,4.81s.24,3.49.72,4.79c.48,1.3,1.21,2.28,2.18,2.93s2.18.97,3.63.97c1.36,0,2.51-.37,3.46-1.12s1.59-1.9,1.93-3.46l6.62,1.87h0Z"/>
  </g>
</svg>