<?xml version="1.0" encoding="UTF-8"?>
<svg id="Vrstva_1" xmlns="http://www.w3.org/2000/svg" version="1.1" viewBox="0 0 283.46 283.46">
  <!-- Generator: Adobe Illustrator 30.1.0, SVG Export Plug-In . SVG Version: 2.1.1 Build 136)  -->
  <defs>
    <style>
      .st0 {
        fill: #ffd241;
      }

      .st1 {
        fill: none;
        stroke: #4f266a;
        stroke-linecap: round;
        stroke-linejoin: round;
        stroke-width: 3px;
      }
    </style>
  </defs>
  <path class="st0" d="M210.18,38.76c-16.84.13-32.07,7-43.14,18.06-11.16,11.16-18.06,26.58-18.06,43.61,0-17.03-6.9-32.45-18.06-43.61-11.07-11.05-26.3-17.93-43.14-18.06-34.18-.26-62.14,28.58-62.14,62.76h0c0,30.28,12.9,59.13,35.46,79.32l87.87,78.63,87.87-78.63c22.57-20.19,35.46-49.04,35.46-79.32h0c0-34.18-27.96-63.01-62.14-62.76h.02Z"/>
  <path class="st1" d="M195.7,38.76c-16.84.13-32.07,7-43.14,18.06-11.16,11.16-18.06,26.58-18.06,43.61,0-17.03-6.9-32.45-18.06-43.61-11.07-11.05-26.3-17.93-43.14-18.06-34.18-.26-62.14,28.58-62.14,62.76h0c0,30.28,12.9,59.13,35.46,79.32l87.87,78.63,87.87-78.63c22.57-20.19,35.46-49.04,35.46-79.32h0c0-34.18-27.96-63.01-62.14-62.76h.02Z"/>
  <path class="st1" d="M31.29,94.52s13.37-35.19,50.79-34.08"/>
</svg>