<?xml version="1.0" encoding="UTF-8"?>
<svg id="Vrstva_1" xmlns="http://www.w3.org/2000/svg" version="1.1" viewBox="0 0 283.46 283.46">
  <!-- Generator: Adobe Illustrator 30.1.0, SVG Export Plug-In . SVG Version: 2.1.1 Build 136)  -->
  <defs>
    <style>
      .st0 {
        fill: #ffd241;
      }

      .st1 {
        fill: none;
        stroke: #4f266a;
        stroke-linecap: round;
        stroke-linejoin: round;
        stroke-width: 3px;
      }
    </style>
  </defs>
  <polygon class="st1" points="272 134.47 145.83 9.15 19.65 134.47 43.8 134.47 43.8 277.28 247.85 277.28 247.85 134.47 272 134.47"/>
  <path class="st0" d="M198.28,121.7c-10.58.08-20.16,4.4-27.11,11.35-7.01,7.01-11.35,16.71-11.35,27.41,0-10.7-4.34-20.39-11.35-27.41-6.96-6.94-16.53-11.27-27.11-11.35-21.48-.16-39.05,17.96-39.05,39.44h0c0,19.03,8.11,37.16,22.29,49.85l55.23,49.42,55.23-49.42c14.19-12.69,22.29-30.82,22.29-49.85h0c0-21.48-17.57-39.6-39.05-39.44h.01Z"/>
  <path class="st1" d="M184.3,121.7c-10.58.08-20.16,4.4-27.11,11.35-7.01,7.01-11.35,16.71-11.35,27.41,0-10.7-4.34-20.39-11.35-27.41-6.96-6.94-16.53-11.27-27.11-11.35-21.48-.16-39.05,17.96-39.05,39.44h0c0,19.03,8.11,37.16,22.29,49.85l55.23,49.42,55.23-49.42c14.19-12.69,22.29-30.82,22.29-49.85h0c0-21.48-17.57-39.6-39.05-39.44h.01,0Z"/>
  <path class="st1" d="M82.3,156.74s8.4-22.12,31.92-21.42"/>
</svg>