<?xml version="1.0" encoding="UTF-8"?>
<svg id="Layer_1" xmlns="http://www.w3.org/2000/svg" version="1.1" viewBox="0 0 152.41 108">
  <!-- Generator: Adobe Illustrator 30.2.1, SVG Export Plug-In . SVG Version: 2.1.1 Build 1)  -->
  <defs>
    <style>
      .st0 {
        fill: none;
      }

      .st1 {
        fill: #f79e1b;
      }

      .st2 {
        fill: #eb001b;
      }

      .st3 {
        fill: #ff5f00;
      }
    </style>
  </defs>
  <rect class="st0" width="152.41" height="108"/>
  <g>
    <rect class="st3" x="60.41" y="25.7" width="31.5" height="56.61"/>
    <path class="st2" d="M62.41,54c0-11.48,5.38-21.71,13.75-28.3-6.12-4.82-13.85-7.7-22.25-7.7-19.88,0-36,16.12-36,36s16.12,36,36,36c8.4,0,16.12-2.88,22.25-7.7-8.37-6.59-13.75-16.82-13.75-28.3Z"/>
    <path class="st1" d="M134.41,54c0,19.88-16.12,36-36,36-8.4,0-16.12-2.88-22.25-7.7,8.37-6.59,13.75-16.82,13.75-28.3s-5.38-21.71-13.75-28.3c6.12-4.82,13.85-7.7,22.25-7.7,19.88,0,36,16.12,36,36Z"/>
    <path class="st1" d="M130.97,76.31v-1.16h.47v-.24h-1.19v.24h.47v1.16h.26ZM133.28,76.31v-1.4h-.36l-.42.96-.42-.96h-.36v1.4h.26v-1.05l.39.91h.27l.39-.91v1.06h.26Z"/>
  </g>
</svg>