<?xml version="1.0" encoding="UTF-8"?>
<svg id="Vrstva_1" xmlns="http://www.w3.org/2000/svg" version="1.1" viewBox="0 0 283.46 283.46">
  <!-- Generator: Adobe Illustrator 30.1.0, SVG Export Plug-In . SVG Version: 2.1.1 Build 136)  -->
  <defs>
    <style>
      .st0 {
        fill: #4f266a;
      }

      .st1 {
        fill: #fff;
      }

      .st2 {
        fill: none;
        stroke: #4f266a;
        stroke-linecap: round;
        stroke-linejoin: round;
        stroke-width: 3px;
      }
    </style>
  </defs>
  <path class="st0" d="M497.55,73.87c-5.2.04-9.89,2.16-13.31,5.57-3.44,3.44-5.57,8.2-5.57,13.45,0-5.25-2.13-10.01-5.57-13.45-3.42-3.41-8.11-5.53-13.31-5.57-10.55-.08-19.17,8.82-19.17,19.36h0c0,9.34,3.98,18.24,10.94,24.47l27.11,24.26,27.11-24.26c6.96-6.23,10.94-15.13,10.94-24.47h0c0-10.55-8.63-19.44-19.17-19.36h0Z"/>
  <rect class="st1" x="60.02" y="81.93" width="48.71" height="48.71" rx="4.57" ry="4.57"/>
  <rect class="st1" x="119.21" y="81.93" width="48.71" height="48.71"/>
  <rect class="st1" x="178.4" y="81.93" width="48.71" height="48.71"/>
  <path class="st1" d="M108.73,145.87v32.87l-46.12-36.98c.6-.3,1.27-.46,1.98-.46h39.56c2.53,0,4.58,2.05,4.58,4.57Z"/>
  <path class="st1" d="M167.92,141.3v45.45l-15.81-13.43c-5.34-4.54-13.17-4.54-18.5,0l-14.4,12.26v-44.28h48.71Z"/>
  <polygon class="st1" points="223.86 141.3 178.4 177.67 178.4 141.3 223.86 141.3"/>
  <path class="st2" d="M241.68,106.28h14.28c5.45,0,9.86,4.42,9.86,9.86v145.25c0,5.45-4.41,9.86-9.86,9.86H30.02c-5.44,0-9.86-4.41-9.86-9.86V116.14c0-5.44,4.42-9.86,9.86-9.86h14.29"/>
  <line class="st2" x1="44.31" y1="91.02" x2="24.74" y2="107.68"/>
  <line class="st2" x1="261.25" y1="107.69" x2="241.68" y2="90.56"/>
  <path class="st2" d="M67.51,71.26L135.23,13.6c5.33-4.54,13.16-4.54,18.5,0l65.89,57.66"/>
  <path class="st2" d="M23.12,267.4l96.09-81.82,14.4-12.26c5.33-4.54,13.16-4.54,18.5,0l15.81,13.43,94.95,80.66"/>
  <g>
    <polyline class="st2" points="23.11 110.09 44.31 127.09 62.61 141.76 108.73 178.74 116.43 184.91"/>
    <polyline class="st2" points="169.35 184.91 178.4 177.67 223.86 141.3 241.68 127.04 262.87 110.09"/>
  </g>
  <polyline class="st2" points="241.68 127.04 241.68 106.28 241.68 90.56 241.68 71.26 219.62 71.26 67.51 71.26 44.31 71.26 44.31 91.02 44.31 106.28 44.31 127.09"/>
</svg>