<?xml version="1.0" encoding="UTF-8"?>
<svg id="Vrstva_1" xmlns="http://www.w3.org/2000/svg" version="1.1" viewBox="0 0 283.46 283.46">
  <!-- Generator: Adobe Illustrator 30.1.0, SVG Export Plug-In . SVG Version: 2.1.1 Build 136)  -->
  <defs>
    <style>
      .st0 {
        fill: #ffd241;
      }

      .st1 {
        fill: #fff;
        stroke: #4f266a;
        stroke-linecap: round;
        stroke-linejoin: round;
        stroke-width: 3px;
      }
    </style>
  </defs>
  <polygon class="st0" points="262.78 194 142.14 258.22 21.51 194 142.14 141.34 262.78 194"/>
  <polygon class="st1" points="262.78 172.8 142.14 237.02 21.51 172.8 142.14 120.14 262.78 172.8"/>
  <polygon class="st1" points="262.78 151.6 142.14 215.82 21.51 151.6 142.14 98.94 262.78 151.6"/>
  <polygon class="st1" points="262.78 130.4 142.14 194.62 21.51 130.4 142.14 77.74 262.78 130.4"/>
  <polygon class="st1" points="262.78 109.2 142.14 173.42 21.51 109.2 142.14 56.54 262.78 109.2"/>
  <polygon class="st1" points="262.78 88 142.14 152.22 21.51 88 142.14 35.34 262.78 88"/>
</svg>