<?xml version="1.0" encoding="UTF-8"?>
<svg id="Vrstva_1" xmlns="http://www.w3.org/2000/svg" version="1.1" viewBox="0 0 283.46 283.46">
  <!-- Generator: Adobe Illustrator 30.2.1, SVG Export Plug-In . SVG Version: 2.1.1 Build 1)  -->
  <defs>
    <style>
      .st0 {
        fill: #ffd241;
      }

      .st1 {
        fill: #fff;
      }

      .st2 {
        fill: none;
        stroke: #4f266a;
        stroke-linecap: round;
        stroke-linejoin: round;
        stroke-width: 3px;
      }
    </style>
  </defs>
  <g>
    <polygon class="st1" points="183.96 4.67 40.8 6.04 43.41 278.73 246 276.79 243.96 63.75 184.53 64.32 183.96 4.67"/>
    <polygon class="st1" points="183.96 4.67 184.53 64.32 243.96 63.75 183.96 4.67 183.96 4.67"/>
  </g>
  <rect class="st0" x="41.77" y="208.37" width="203.27" height="68.42"/>
  <g>
    <polygon class="st2" points="183.96 4.67 40.8 6.04 43.41 278.73 246 276.79 243.96 63.75 184.53 64.32 183.96 4.67"/>
    <polygon class="st2" points="183.96 4.67 184.53 64.32 243.96 63.75 183.96 4.67 183.96 4.67"/>
  </g>
  <path class="st0" d="M212.19,137.95c-10.74-11.15-40.06-6.61-47.08-5.78-10.33-9.91-17.35-21.89-19.82-26.02,3.72-11.15,6.2-22.3,6.61-34.28,0-10.33-4.13-21.48-15.69-21.48-4.13,0-7.85,2.48-9.91,5.78-4.96,8.67-2.89,26.02,4.96,43.78-4.54,12.8-8.67,25.19-20.24,47.08-11.98,4.96-37.17,16.52-39.24,28.91-.83,3.72.41,7.43,3.3,10.33,2.89,2.48,6.61,3.72,10.33,3.72,15.28,0,30.15-21.06,40.48-38.82,8.67-2.89,22.3-7.02,35.93-9.5,16.11,14.04,30.15,16.11,37.58,16.11,9.91,0,13.63-4.13,14.87-7.85,2.07-4.13.83-8.67-2.07-11.98h0ZM201.86,144.97c-.41,2.89-4.13,5.78-10.74,4.13-7.85-2.07-14.87-5.78-21.06-10.74,5.37-.83,17.35-2.07,26.02-.41,3.3.83,6.61,2.89,5.78,7.02h0ZM132.89,59.89c.83-1.24,2.07-2.07,3.3-2.07,3.72,0,4.54,4.54,4.54,8.26-.41,8.67-2.07,17.35-4.96,25.61-6.2-16.52-4.96-28.08-2.89-31.8h.01ZM132.07,140.01c3.3-6.61,7.85-18.17,9.5-23.13,3.72,6.2,9.91,13.63,13.22,16.93,0,.41-12.8,2.89-22.72,6.2ZM107.7,156.53c-9.5,15.69-19.41,25.61-24.78,25.61-.83,0-1.65-.41-2.48-.83-1.24-.83-1.65-2.07-1.24-3.72,1.24-5.78,11.98-13.63,28.5-21.06Z"/>
  <g>
    <path class="st1" d="M106.09,259.01v-29.63h10.18c2.18,0,4.16.3,5.93.89,1.77.59,3.19,1.58,4.25,2.98s1.59,3.29,1.59,5.68-.53,4.2-1.59,5.68-2.47,2.58-4.23,3.29-3.68,1.07-5.77,1.07h-3.68v10.04h-6.68ZM112.77,243.65h3.27c1.85,0,3.22-.41,4.11-1.23.89-.82,1.34-1.98,1.34-3.5s-.49-2.67-1.46-3.29-2.36-.93-4.18-.93h-3.09v8.95h.01Z"/>
    <path class="st1" d="M133.17,259.01v-29.58h8.36c3.03,0,5.65.51,7.86,1.52,2.21,1.01,3.93,2.6,5.16,4.77,1.23,2.17,1.84,4.95,1.84,8.34s-.61,6.19-1.82,8.41c-1.21,2.21-2.9,3.85-5.07,4.93-2.17,1.08-4.69,1.61-7.57,1.61h-8.77.01ZM139.85,253.6h1.32c1.64,0,3.09-.3,4.36-.91s2.26-1.6,2.98-3c.71-1.39,1.07-3.27,1.07-5.64s-.36-4.22-1.07-5.57-1.7-2.3-2.98-2.86c-1.27-.56-2.73-.84-4.36-.84h-1.32v18.81h0Z"/>
    <path class="st1" d="M162.03,259.01v-29.63h18.68v5.64h-11.99v6.86h10.27v5.64h-10.27v11.5h-6.69Z"/>
  </g>
</svg>