<?xml version="1.0" encoding="UTF-8"?>
<svg id="Vrstva_1" xmlns="http://www.w3.org/2000/svg" version="1.1" viewBox="0 0 283.46 283.46">
  <!-- Generator: Adobe Illustrator 30.1.0, SVG Export Plug-In . SVG Version: 2.1.1 Build 136)  -->
  <defs>
    <style>
      .st0 {
        fill: #ffd241;
      }

      .st1 {
        fill: none;
        stroke: #4f266a;
        stroke-linecap: round;
        stroke-linejoin: round;
        stroke-width: 3px;
      }
    </style>
  </defs>
  <path class="st0" d="M271.83,117.11c-7.53-16.93-30.5-23.21-51.2-13.99l-58.17,25.88,25.88-58.17c9.21-20.7,2.94-43.67-13.99-51.2-16.93-7.54-38.19,3.18-47.4,23.89-9.22,20.7-2.94,43.67,13.99,51.21,6.6,2.93,13.86,3.08,20.81.96l-18.65,41.92L13.22,195.4l35.15-.11,86.12-38.32-38.32,86.12-.11,35.14,57.79-129.87,41.92-18.66c-2.13,6.95-1.99,14.21.96,20.81,7.54,16.93,30.51,23.2,51.21,13.99,20.7-9.21,31.42-30.48,23.89-47.4ZM146.7,81.77c-9.61-4.27-12.72-19.15-6.79-32.47,5.93-13.33,19.06-20.98,28.67-16.7,9.62,4.27,12.73,19.15,6.8,32.47-5.93,13.33-19.06,20.98-28.68,16.7ZM242.17,151.55c-13.32,5.93-28.2,2.82-32.47-6.8-4.28-9.61,3.37-22.74,16.69-28.67,13.33-5.93,28.21-2.82,32.48,6.79,4.27,9.62-3.37,22.75-16.7,28.68Z"/>
  <path class="st1" d="M269.83,110.45c-7.53-16.93-30.5-23.21-51.2-13.99l-58.17,25.88-19.35,8.61L11.22,188.74l35.15-.11,86.12-38.32,19.36-8.61,41.92-18.66c-2.13,6.95-1.99,14.21.96,20.81,7.54,16.93,30.51,23.2,51.21,13.99,20.7-9.21,31.42-30.48,23.89-47.4ZM240.17,144.89c-13.32,5.93-28.2,2.82-32.47-6.8-4.28-9.61,3.37-22.74,16.69-28.67,13.33-5.93,28.21-2.82,32.48,6.79,4.27,9.62-3.37,22.75-16.7,28.68Z"/>
  <path class="st1" d="M172.36,12.98c-16.93-7.54-38.19,3.18-47.4,23.89-9.22,20.7-2.94,43.67,13.99,51.21,6.6,2.93,13.86,3.08,20.81.96l-18.65,41.92,19.35-8.61,25.88-58.17c9.21-20.7,2.94-43.67-13.99-51.2ZM173.39,58.41c-5.93,13.33-19.06,20.98-28.68,16.7-9.61-4.27-12.72-19.15-6.79-32.47,5.93-13.33,19.06-20.98,28.67-16.7,9.62,4.27,12.73,19.15,6.8,32.47ZM94.18,236.43l-.11,35.14,57.79-129.87-19.36,8.61-38.32,86.12Z"/>
  <rect class="st0" x="12.22" y="206.64" width="68" height="68"/>
</svg>