<?xml version="1.0" encoding="UTF-8"?>
<svg id="Vrstva_1" xmlns="http://www.w3.org/2000/svg" version="1.1" viewBox="0 0 283.46 283.46">
  <!-- Generator: Adobe Illustrator 30.2.1, SVG Export Plug-In . SVG Version: 2.1.1 Build 1)  -->
  <defs>
    <style>
      .st0 {
        fill: #ffd23f;
      }

      .st1 {
        fill: none;
        stroke: #4f266a;
        stroke-linecap: round;
        stroke-linejoin: round;
        stroke-width: 5px;
      }
    </style>
  </defs>
  <rect class="st1" x="34.85" y="5" width="216.15" height="272.01" rx="14.22" ry="14.22"/>
  <rect class="st1" x="53.18" y="23.09" width="179.48" height="211.85"/>
  <circle class="st1" cx="142.92" cy="255.75" r="13"/>
  <path class="st0" d="M146.45,56.17l14.69,45.21h47.54c4.03,0,5.7,5.15,2.44,7.52l-38.46,27.94,14.69,45.21c1.24,3.83-3.14,7.01-6.4,4.65l-38.46-27.94-38.46,27.94c-3.26,2.37-7.64-.82-6.4-4.65l14.69-45.21-38.46-27.94c-3.26-2.37-1.58-7.52,2.44-7.52h47.54s14.69-45.21,14.69-45.21c1.24-3.83,6.66-3.83,7.91,0Z"/>
</svg>