<?xml version="1.0" encoding="UTF-8"?>
<svg id="Vrstva_1" xmlns="http://www.w3.org/2000/svg" version="1.1" viewBox="0 0 1100 1800">
  <!-- Generator: Adobe Illustrator 30.1.0, SVG Export Plug-In . SVG Version: 2.1.1 Build 136)  -->
  <defs>
    <style>
      .st0 {
        fill: #e3d7e8;
      }
    </style>
  </defs>
  <path class="st0" d="M1256.82,58.07c0,5.86-2.37,11.16-6.21,15s-9.14,6.22-15,6.22h-236.43c1.63,0,3.22.18,4.74.54-3.96.89-7.5,2.9-10.27,5.67-3.84,3.84-6.21,9.14-6.21,15,0,10.09,7.04,18.53,16.48,20.68-1.52.36-3.11.54-4.74.54h78.34c11.72,0,21.22,9.5,21.22,21.22,0,5.86-2.37,11.17-6.21,15.01s-9.15,6.21-15.01,6.21h-275.28c-11.71,0-21.21-9.5-21.21-21.22,0-5.86,2.38-11.17,6.21-15.01,3.84-3.84,9.15-6.21,15-6.21h-111.21c-11.71,0-21.21-9.5-21.21-21.22,0-5.86,2.37-11.16,6.21-15,3.84-3.84,9.14-6.21,15-6.21h162.1c-1.28,0-2.53-.11-3.75-.33,4.36-.78,8.25-2.89,11.25-5.89,3.84-3.84,6.21-9.14,6.21-15,0-10.43-7.53-19.11-17.45-20.88,1.22-.23,2.46-.34,3.74-.34h-162.1c-11.71,0-21.21-9.5-21.21-21.22,0-5.86,2.37-11.16,6.21-15,3.84-3.84,9.14-6.21,15-6.21h197.03c-11.72,0-21.22-9.5-21.22-21.22,0-5.86,2.37-11.17,6.21-15.01,3.84-3.84,9.15-6.21,15.01-6.21h308.14c11.72,0,21.22,9.5,21.22,21.22,0,5.86-2.37,11.17-6.21,15.01-3.84,3.84-9.15,6.21-15.01,6.21h-197.02c1.63,0,3.22.18,4.74.54-3.96.89-7.5,2.9-10.27,5.67-3.84,3.84-6.21,9.14-6.21,15,0,10.09,7.04,18.53,16.48,20.68-1.52.36-3.11.54-4.74.54h236.43c11.71,0,21.21,9.5,21.21,21.22Z"/>
  <path class="st0" d="M644.93,147.78c0,5.86-2.37,11.16-6.21,15s-9.14,6.22-15,6.22h-236.43c1.63,0,3.22.18,4.74.54-3.96.89-7.5,2.9-10.27,5.67-3.84,3.84-6.21,9.14-6.21,15,0,10.09,7.04,18.53,16.48,20.68-1.52.36-3.11.54-4.74.54h78.34c11.72,0,21.22,9.5,21.22,21.22,0,5.86-2.37,11.17-6.21,15.01s-9.15,6.21-15.01,6.21H190.35c-11.71,0-21.21-9.5-21.21-21.22,0-5.86,2.38-11.17,6.21-15.01,3.84-3.84,9.15-6.21,15-6.21h-111.21c-11.71,0-21.21-9.5-21.21-21.22,0-5.86,2.37-11.16,6.21-15,3.84-3.84,9.14-6.21,15-6.21h162.1c-1.28,0-2.53-.11-3.75-.33,4.36-.78,8.25-2.89,11.25-5.89,3.84-3.84,6.21-9.14,6.21-15,0-10.43-7.53-19.11-17.45-20.88,1.22-.23,2.46-.34,3.74-.34H79.14c-11.71,0-21.21-9.5-21.21-21.22,0-5.86,2.37-11.16,6.21-15,3.84-3.84,9.14-6.21,15-6.21h197.03c-11.72,0-21.22-9.5-21.22-21.22,0-5.86,2.37-11.17,6.21-15.01,3.84-3.84,9.15-6.21,15.01-6.21h308.14c11.72,0,21.22,9.5,21.22,21.22,0,5.86-2.37,11.17-6.21,15.01-3.84,3.84-9.15,6.21-15.01,6.21h-197.02c1.63,0,3.22.18,4.74.54-3.96.89-7.5,2.9-10.27,5.67-3.84,3.84-6.21,9.14-6.21,15,0,10.09,7.04,18.53,16.48,20.68-1.52.36-3.11.54-4.74.54h236.43c11.71,0,21.21,9.5,21.21,21.22Z"/>
  <path class="st0" d="M307.92-48.02c0,5.86-2.37,11.16-6.21,15s-9.14,6.22-15,6.22H50.28c1.63,0,3.22.18,4.74.54-3.96.89-7.5,2.9-10.27,5.67-3.84,3.84-6.21,9.14-6.21,15,0,10.09,7.04,18.53,16.48,20.68-1.52.36-3.11.54-4.74.54h78.34c11.72,0,21.22,9.5,21.22,21.22,0,5.86-2.37,11.17-6.21,15.01s-9.15,6.21-15.01,6.21H-146.66c-11.71,0-21.21-9.5-21.21-21.22,0-5.86,2.38-11.17,6.21-15.01,3.84-3.84,9.15-6.21,15-6.21h-111.21c-11.71,0-21.21-9.5-21.21-21.22,0-5.86,2.37-11.16,6.21-15,3.84-3.84,9.14-6.21,15-6.21H-95.77c-1.28,0-2.53-.11-3.75-.33,4.36-.78,8.25-2.89,11.25-5.89,3.84-3.84,6.21-9.14,6.21-15,0-10.43-7.53-19.11-17.45-20.88,1.22-.23,2.46-.34,3.74-.34h-162.1c-11.71,0-21.21-9.5-21.21-21.22,0-5.86,2.37-11.16,6.21-15,3.84-3.84,9.14-6.21,15-6.21H-60.84c-11.72,0-21.22-9.5-21.22-21.22,0-5.86,2.37-11.17,6.21-15.01,3.84-3.84,9.15-6.21,15.01-6.21H247.3c11.72,0,21.22,9.5,21.22,21.22,0,5.86-2.37,11.17-6.21,15.01-3.84,3.84-9.15,6.21-15.01,6.21H50.28c1.63,0,3.22.18,4.74.54-3.96.89-7.5,2.9-10.27,5.67-3.84,3.84-6.21,9.14-6.21,15,0,10.09,7.04,18.53,16.48,20.68-1.52.36-3.11.54-4.74.54h236.43c11.71,0,21.21,9.5,21.21,21.22Z"/>
  <path class="st0" d="M1501.64,346.08c0,5.86-2.37,11.16-6.21,15s-9.14,6.22-15,6.22h-236.43c1.63,0,3.22.18,4.74.54-3.96.89-7.5,2.9-10.27,5.67-3.84,3.84-6.21,9.14-6.21,15,0,10.09,7.04,18.53,16.48,20.68-1.52.36-3.11.54-4.74.54h78.34c11.72,0,21.22,9.5,21.22,21.22,0,5.86-2.37,11.17-6.21,15.01s-9.15,6.21-15.01,6.21h-275.28c-11.71,0-21.21-9.5-21.21-21.22,0-5.86,2.38-11.17,6.21-15.01,3.84-3.84,9.15-6.21,15-6.21h-111.21c-11.71,0-21.21-9.5-21.21-21.22,0-5.86,2.37-11.16,6.21-15,3.84-3.84,9.14-6.21,15-6.21h162.1c-1.28,0-2.53-.11-3.75-.33,4.36-.78,8.25-2.89,11.25-5.89,3.84-3.84,6.21-9.14,6.21-15,0-10.43-7.53-19.11-17.45-20.88,1.22-.23,2.46-.34,3.74-.34h-162.1c-11.71,0-21.21-9.5-21.21-21.22,0-5.86,2.37-11.16,6.21-15,3.84-3.84,9.14-6.21,15-6.21h197.03c-11.72,0-21.22-9.5-21.22-21.22,0-5.86,2.37-11.17,6.21-15.01,3.84-3.84,9.15-6.21,15.01-6.21h308.14c11.72,0,21.22,9.5,21.22,21.22,0,5.86-2.37,11.17-6.21,15.01-3.84,3.84-9.15,6.21-15.01,6.21h-197.02c1.63,0,3.22.18,4.74.54-3.96.89-7.5,2.9-10.27,5.67-3.84,3.84-6.21,9.14-6.21,15,0,10.09,7.04,18.53,16.48,20.68-1.52.36-3.11.54-4.74.54h236.43c11.71,0,21.21,9.5,21.21,21.22Z"/>
  <path class="st0" d="M163.8,639.8c0,5.86-2.37,11.16-6.21,15s-9.14,6.22-15,6.22H-93.84c1.63,0,3.22.18,4.74.54-3.96.89-7.5,2.9-10.27,5.67-3.84,3.84-6.21,9.14-6.21,15,0,10.09,7.04,18.53,16.48,20.68-1.52.36-3.11.54-4.74.54H-15.5c11.72,0,21.22,9.5,21.22,21.22,0,5.86-2.37,11.17-6.21,15.01s-9.15,6.21-15.01,6.21h-275.28c-11.71,0-21.21-9.5-21.21-21.22,0-5.86,2.38-11.17,6.21-15.01,3.84-3.84,9.15-6.21,15-6.21h-111.21c-11.71,0-21.21-9.5-21.21-21.22,0-5.86,2.37-11.16,6.21-15,3.84-3.84,9.14-6.21,15-6.21h162.1c-1.28,0-2.53-.11-3.75-.33,4.36-.78,8.25-2.89,11.25-5.89,3.84-3.84,6.21-9.14,6.21-15,0-10.43-7.53-19.11-17.45-20.88,1.22-.23,2.46-.34,3.74-.34h-162.1c-11.71,0-21.21-9.5-21.21-21.22,0-5.86,2.37-11.16,6.21-15,3.84-3.84,9.14-6.21,15-6.21h197.03c-11.72,0-21.22-9.5-21.22-21.22,0-5.86,2.37-11.17,6.21-15.01,3.84-3.84,9.15-6.21,15.01-6.21H103.18c11.72,0,21.22,9.5,21.22,21.22,0,5.86-2.37,11.17-6.21,15.01-3.84,3.84-9.15,6.21-15.01,6.21H-93.84c1.63,0,3.22.18,4.74.54-3.96.89-7.5,2.9-10.27,5.67-3.84,3.84-6.21,9.14-6.21,15,0,10.09,7.04,18.53,16.48,20.68-1.52.36-3.11.54-4.74.54h236.43c11.71,0,21.21,9.5,21.21,21.22Z"/>
  <path class="st0" d="M1613.96,639.8c0,5.86-2.37,11.16-6.21,15s-9.14,6.22-15,6.22h-236.43c1.63,0,3.22.18,4.74.54-3.96.89-7.5,2.9-10.27,5.67-3.84,3.84-6.21,9.14-6.21,15,0,10.09,7.04,18.53,16.48,20.68-1.52.36-3.11.54-4.74.54h78.34c11.72,0,21.22,9.5,21.22,21.22,0,5.86-2.37,11.17-6.21,15.01s-9.15,6.21-15.01,6.21h-275.28c-11.71,0-21.21-9.5-21.21-21.22,0-5.86,2.38-11.17,6.21-15.01,3.84-3.84,9.15-6.21,15-6.21h-111.21c-11.71,0-21.21-9.5-21.21-21.22,0-5.86,2.37-11.16,6.21-15,3.84-3.84,9.14-6.21,15-6.21h162.1c-1.28,0-2.53-.11-3.75-.33,4.36-.78,8.25-2.89,11.25-5.89,3.84-3.84,6.21-9.14,6.21-15,0-10.43-7.53-19.11-17.45-20.88,1.22-.23,2.46-.34,3.74-.34h-162.1c-11.71,0-21.21-9.5-21.21-21.22,0-5.86,2.37-11.16,6.21-15,3.84-3.84,9.14-6.21,15-6.21h197.03c-11.72,0-21.22-9.5-21.22-21.22,0-5.86,2.37-11.17,6.21-15.01,3.84-3.84,9.15-6.21,15.01-6.21h308.14c11.72,0,21.22,9.5,21.22,21.22,0,5.86-2.37,11.17-6.21,15.01-3.84,3.84-9.15,6.21-15.01,6.21h-197.02c1.63,0,3.22.18,4.74.54-3.96.89-7.5,2.9-10.27,5.67-3.84,3.84-6.21,9.14-6.21,15,0,10.09,7.04,18.53,16.48,20.68-1.52.36-3.11.54-4.74.54h236.43c11.71,0,21.21,9.5,21.21,21.22Z"/>
  <path class="st0" d="M57.93,1036.22c0,5.86-2.37,11.16-6.21,15s-9.14,6.22-15,6.22h-236.43c1.63,0,3.22.18,4.74.54-3.96.89-7.5,2.9-10.27,5.67-3.84,3.84-6.21,9.14-6.21,15,0,10.09,7.04,18.53,16.48,20.68-1.52.36-3.11.54-4.74.54h78.34c11.72,0,21.22,9.5,21.22,21.22,0,5.86-2.37,11.17-6.21,15.01s-9.15,6.21-15.01,6.21h-275.28c-11.71,0-21.21-9.5-21.21-21.22,0-5.86,2.38-11.17,6.21-15.01,3.84-3.84,9.15-6.21,15-6.21h-111.21c-11.71,0-21.21-9.5-21.21-21.22,0-5.86,2.37-11.16,6.21-15,3.84-3.84,9.14-6.21,15-6.21h162.1c-1.28,0-2.53-.11-3.75-.33,4.36-.78,8.25-2.89,11.25-5.89,3.84-3.84,6.21-9.14,6.21-15,0-10.43-7.53-19.11-17.45-20.88,1.22-.23,2.46-.34,3.74-.34h-162.1c-11.71,0-21.21-9.5-21.21-21.22,0-5.86,2.37-11.16,6.21-15,3.84-3.84,9.14-6.21,15-6.21h197.03c-11.72,0-21.22-9.5-21.22-21.22,0-5.86,2.37-11.17,6.21-15.01,3.84-3.84,9.15-6.21,15.01-6.21H-2.69c11.72,0,21.22,9.5,21.22,21.22,0,5.86-2.37,11.17-6.21,15.01-3.84,3.84-9.15,6.21-15.01,6.21h-197.02c1.63,0,3.22.18,4.74.54-3.96.89-7.5,2.9-10.27,5.67-3.84,3.84-6.21,9.14-6.21,15,0,10.09,7.04,18.53,16.48,20.68-1.52.36-3.11.54-4.74.54H36.72c11.71,0,21.21,9.5,21.21,21.22Z"/>
  <path class="st0" d="M1474.21,1036.22c0,5.86-2.37,11.16-6.21,15s-9.14,6.22-15,6.22h-236.43c1.63,0,3.22.18,4.74.54-3.96.89-7.5,2.9-10.27,5.67-3.84,3.84-6.21,9.14-6.21,15,0,10.09,7.04,18.53,16.48,20.68-1.52.36-3.11.54-4.74.54h78.34c11.72,0,21.22,9.5,21.22,21.22,0,5.86-2.37,11.17-6.21,15.01s-9.15,6.21-15.01,6.21h-275.28c-11.71,0-21.21-9.5-21.21-21.22,0-5.86,2.38-11.17,6.21-15.01,3.84-3.84,9.15-6.21,15-6.21h-111.21c-11.71,0-21.21-9.5-21.21-21.22,0-5.86,2.37-11.16,6.21-15,3.84-3.84,9.14-6.21,15-6.21h162.1c-1.28,0-2.53-.11-3.75-.33,4.36-.78,8.25-2.89,11.25-5.89,3.84-3.84,6.21-9.14,6.21-15,0-10.43-7.53-19.11-17.45-20.88,1.22-.23,2.46-.34,3.74-.34h-162.1c-11.71,0-21.21-9.5-21.21-21.22,0-5.86,2.37-11.16,6.21-15,3.84-3.84,9.14-6.21,15-6.21h197.03c-11.72,0-21.22-9.5-21.22-21.22,0-5.86,2.37-11.17,6.21-15.01,3.84-3.84,9.15-6.21,15.01-6.21h308.14c11.72,0,21.22,9.5,21.22,21.22,0,5.86-2.37,11.17-6.21,15.01-3.84,3.84-9.15,6.21-15.01,6.21h-197.02c1.63,0,3.22.18,4.74.54-3.96.89-7.5,2.9-10.27,5.67-3.84,3.84-6.21,9.14-6.21,15,0,10.09,7.04,18.53,16.48,20.68-1.52.36-3.11.54-4.74.54h236.43c11.71,0,21.21,9.5,21.21,21.22Z"/>
  <path class="st0" d="M489.64,824.04c0,5.86-2.37,11.16-6.21,15s-9.14,6.22-15,6.22h-236.43c1.63,0,3.22.18,4.74.54-3.96.89-7.5,2.9-10.27,5.67-3.84,3.84-6.21,9.14-6.21,15,0,10.09,7.04,18.53,16.48,20.68-1.52.36-3.11.54-4.74.54h78.34c11.72,0,21.22,9.5,21.22,21.22,0,5.86-2.37,11.17-6.21,15.01s-9.15,6.21-15.01,6.21H35.06c-11.71,0-21.21-9.5-21.21-21.22,0-5.86,2.38-11.17,6.21-15.01,3.84-3.84,9.15-6.21,15-6.21h-111.21c-11.71,0-21.21-9.5-21.21-21.22,0-5.86,2.37-11.16,6.21-15,3.84-3.84,9.14-6.21,15-6.21H85.95c-1.28,0-2.53-.11-3.75-.33,4.36-.78,8.25-2.89,11.25-5.89,3.84-3.84,6.21-9.14,6.21-15,0-10.43-7.53-19.11-17.45-20.88,1.22-.23,2.46-.34,3.74-.34H-76.15c-11.71,0-21.21-9.5-21.21-21.22,0-5.86,2.37-11.16,6.21-15,3.84-3.84,9.14-6.21,15-6.21H120.88c-11.72,0-21.22-9.5-21.22-21.22,0-5.86,2.37-11.17,6.21-15.01,3.84-3.84,9.15-6.21,15.01-6.21h308.14c11.72,0,21.22,9.5,21.22,21.22,0,5.86-2.37,11.17-6.21,15.01-3.84,3.84-9.15,6.21-15.01,6.21h-197.02c1.63,0,3.22.18,4.74.54-3.96.89-7.5,2.9-10.27,5.67-3.84,3.84-6.21,9.14-6.21,15,0,10.09,7.04,18.53,16.48,20.68-1.52.36-3.11.54-4.74.54h236.43c11.71,0,21.21,9.5,21.21,21.22Z"/>
  <path class="st0" d="M269.4,1279.84c0,5.86-2.37,11.16-6.21,15s-9.14,6.22-15,6.22H11.76c1.63,0,3.22.18,4.74.54-3.96.89-7.5,2.9-10.27,5.67-3.84,3.84-6.21,9.14-6.21,15,0,10.09,7.04,18.53,16.48,20.68-1.52.36-3.11.54-4.74.54h78.34c11.72,0,21.22,9.5,21.22,21.22,0,5.86-2.37,11.17-6.21,15.01s-9.15,6.21-15.01,6.21H-185.18c-11.71,0-21.21-9.5-21.21-21.22,0-5.86,2.38-11.17,6.21-15.01,3.84-3.84,9.15-6.21,15-6.21h-111.21c-11.71,0-21.21-9.5-21.21-21.22,0-5.86,2.37-11.16,6.21-15,3.84-3.84,9.14-6.21,15-6.21h162.1c-1.28,0-2.53-.11-3.75-.33,4.36-.78,8.25-2.89,11.25-5.89,3.84-3.84,6.21-9.14,6.21-15,0-10.43-7.53-19.11-17.45-20.88,1.22-.23,2.46-.34,3.74-.34h-162.1c-11.71,0-21.21-9.5-21.21-21.22,0-5.86,2.37-11.16,6.21-15,3.84-3.84,9.14-6.21,15-6.21H-99.36c-11.72,0-21.22-9.5-21.22-21.22,0-5.86,2.37-11.17,6.21-15.01,3.84-3.84,9.15-6.21,15.01-6.21H208.78c11.72,0,21.22,9.5,21.22,21.22,0,5.86-2.37,11.17-6.21,15.01-3.84,3.84-9.15,6.21-15.01,6.21H11.76c1.63,0,3.22.18,4.74.54-3.96.89-7.5,2.9-10.27,5.67-3.84,3.84-6.21,9.14-6.21,15,0,10.09,7.04,18.53,16.48,20.68-1.52.36-3.11.54-4.74.54h236.43c11.71,0,21.21,9.5,21.21,21.22Z"/>
  <path class="st0" d="M1100,1279.84c0,5.86-2.37,11.16-6.21,15s-9.14,6.22-15,6.22h-236.43c1.63,0,3.22.18,4.74.54-3.96.89-7.5,2.9-10.27,5.67-3.84,3.84-6.21,9.14-6.21,15,0,10.09,7.04,18.53,16.48,20.68-1.52.36-3.11.54-4.74.54h78.34c11.72,0,21.22,9.5,21.22,21.22,0,5.86-2.37,11.17-6.21,15.01s-9.15,6.21-15.01,6.21h-275.28c-11.71,0-21.21-9.5-21.21-21.22,0-5.86,2.38-11.17,6.21-15.01,3.84-3.84,9.15-6.21,15-6.21h-111.21c-11.71,0-21.21-9.5-21.21-21.22,0-5.86,2.37-11.16,6.21-15,3.84-3.84,9.14-6.21,15-6.21h162.1c-1.28,0-2.53-.11-3.75-.33,4.36-.78,8.25-2.89,11.25-5.89,3.84-3.84,6.21-9.14,6.21-15,0-10.43-7.53-19.11-17.45-20.88,1.22-.23,2.46-.34,3.74-.34h-162.1c-11.71,0-21.21-9.5-21.21-21.22,0-5.86,2.37-11.16,6.21-15,3.84-3.84,9.14-6.21,15-6.21h197.03c-11.72,0-21.22-9.5-21.22-21.22,0-5.86,2.37-11.17,6.21-15.01,3.84-3.84,9.15-6.21,15.01-6.21h308.14c11.72,0,21.22,9.5,21.22,21.22,0,5.86-2.37,11.17-6.21,15.01-3.84,3.84-9.15,6.21-15.01,6.21h-197.02c1.63,0,3.22.18,4.74.54-3.96.89-7.5,2.9-10.27,5.67-3.84,3.84-6.21,9.14-6.21,15,0,10.09,7.04,18.53,16.48,20.68-1.52.36-3.11.54-4.74.54h236.43c11.71,0,21.21,9.5,21.21,21.22Z"/>
  <path class="st0" d="M1308.76,1488.86c0,5.86-2.37,11.16-6.21,15s-9.14,6.22-15,6.22h-236.43c1.63,0,3.22.18,4.74.54-3.96.89-7.5,2.9-10.27,5.67-3.84,3.84-6.21,9.14-6.21,15,0,10.09,7.04,18.53,16.48,20.68-1.52.36-3.11.54-4.74.54h78.34c11.72,0,21.22,9.5,21.22,21.22,0,5.86-2.37,11.17-6.21,15.01s-9.15,6.21-15.01,6.21h-275.28c-11.71,0-21.21-9.5-21.21-21.22,0-5.86,2.38-11.17,6.21-15.01,3.84-3.84,9.15-6.21,15-6.21h-111.21c-11.71,0-21.21-9.5-21.21-21.22,0-5.86,2.37-11.16,6.21-15,3.84-3.84,9.14-6.21,15-6.21h162.1c-1.28,0-2.53-.11-3.75-.33,4.36-.78,8.25-2.89,11.25-5.89,3.84-3.84,6.21-9.14,6.21-15,0-10.43-7.53-19.11-17.45-20.88,1.22-.23,2.46-.34,3.74-.34h-162.1c-11.71,0-21.21-9.5-21.21-21.22,0-5.86,2.37-11.16,6.21-15,3.84-3.84,9.14-6.21,15-6.21h197.03c-11.72,0-21.22-9.5-21.22-21.22,0-5.86,2.37-11.17,6.21-15.01,3.84-3.84,9.15-6.21,15.01-6.21h308.14c11.72,0,21.22,9.5,21.22,21.22,0,5.86-2.37,11.17-6.21,15.01-3.84,3.84-9.15,6.21-15.01,6.21h-197.02c1.63,0,3.22.18,4.74.54-3.96.89-7.5,2.9-10.27,5.67-3.84,3.84-6.21,9.14-6.21,15,0,10.09,7.04,18.53,16.48,20.68-1.52.36-3.11.54-4.74.54h236.43c11.71,0,21.21,9.5,21.21,21.22Z"/>
  <path class="st0" d="M370.22,1529.52c0,5.86-2.37,11.16-6.21,15s-9.14,6.22-15,6.22H112.58c1.63,0,3.22.18,4.74.54-3.96.89-7.5,2.9-10.27,5.67-3.84,3.84-6.21,9.14-6.21,15,0,10.09,7.04,18.53,16.48,20.68-1.52.36-3.11.54-4.74.54h78.34c11.72,0,21.22,9.5,21.22,21.22,0,5.86-2.37,11.17-6.21,15.01s-9.15,6.21-15.01,6.21H-84.36c-11.71,0-21.21-9.5-21.21-21.22,0-5.86,2.38-11.17,6.21-15.01,3.84-3.84,9.15-6.21,15-6.21h-111.21c-11.71,0-21.21-9.5-21.21-21.22,0-5.86,2.37-11.16,6.21-15,3.84-3.84,9.14-6.21,15-6.21H-33.47c-1.28,0-2.53-.11-3.75-.33,4.36-.78,8.25-2.89,11.25-5.89,3.84-3.84,6.21-9.14,6.21-15,0-10.43-7.53-19.11-17.45-20.88,1.22-.23,2.46-.34,3.74-.34h-162.1c-11.71,0-21.21-9.5-21.21-21.22,0-5.86,2.37-11.16,6.21-15,3.84-3.84,9.14-6.21,15-6.21H1.46c-11.72,0-21.22-9.5-21.22-21.22,0-5.86,2.37-11.17,6.21-15.01,3.84-3.84,9.15-6.21,15.01-6.21h308.14c11.72,0,21.22,9.5,21.22,21.22,0,5.86-2.37,11.17-6.21,15.01-3.84,3.84-9.15,6.21-15.01,6.21H112.58c1.63,0,3.22.18,4.74.54-3.96.89-7.5,2.9-10.27,5.67-3.84,3.84-6.21,9.14-6.21,15,0,10.09,7.04,18.53,16.48,20.68-1.52.36-3.11.54-4.74.54h236.43c11.71,0,21.21,9.5,21.21,21.22Z"/>
  <path class="st0" d="M642.81,1802.12c0,5.86-2.37,11.16-6.21,15s-9.14,6.22-15,6.22h-236.43c1.63,0,3.22.18,4.74.54-3.96.89-7.5,2.9-10.27,5.67-3.84,3.84-6.21,9.14-6.21,15,0,10.09,7.04,18.53,16.48,20.68-1.52.36-3.11.54-4.74.54h78.34c11.72,0,21.22,9.5,21.22,21.22,0,5.86-2.37,11.17-6.21,15.01s-9.15,6.21-15.01,6.21H188.23c-11.71,0-21.21-9.5-21.21-21.22,0-5.86,2.38-11.17,6.21-15.01,3.84-3.84,9.15-6.21,15-6.21h-111.21c-11.71,0-21.21-9.5-21.21-21.22,0-5.86,2.37-11.16,6.21-15,3.84-3.84,9.14-6.21,15-6.21h162.1c-1.28,0-2.53-.11-3.75-.33,4.36-.78,8.25-2.89,11.25-5.89,3.84-3.84,6.21-9.14,6.21-15,0-10.43-7.53-19.11-17.45-20.88,1.22-.23,2.46-.34,3.74-.34H77.02c-11.71,0-21.21-9.5-21.21-21.22,0-5.86,2.37-11.16,6.21-15,3.84-3.84,9.14-6.21,15-6.21h197.03c-11.72,0-21.22-9.5-21.22-21.22,0-5.86,2.37-11.17,6.21-15.01,3.84-3.84,9.15-6.21,15.01-6.21h308.14c11.72,0,21.22,9.5,21.22,21.22,0,5.86-2.37,11.17-6.21,15.01-3.84,3.84-9.15,6.21-15.01,6.21h-197.02c1.63,0,3.22.18,4.74.54-3.96.89-7.5,2.9-10.27,5.67-3.84,3.84-6.21,9.14-6.21,15,0,10.09,7.04,18.53,16.48,20.68-1.52.36-3.11.54-4.74.54h236.43c11.71,0,21.21,9.5,21.21,21.22Z"/>
  <path class="st0" d="M1287.32,1741.7c0,5.86-2.37,11.16-6.21,15s-9.14,6.22-15,6.22h-236.43c1.63,0,3.22.18,4.74.54-3.96.89-7.5,2.9-10.27,5.67-3.84,3.84-6.21,9.14-6.21,15,0,10.09,7.04,18.53,16.48,20.68-1.52.36-3.11.54-4.74.54h78.34c11.72,0,21.22,9.5,21.22,21.22,0,5.86-2.37,11.17-6.21,15.01s-9.15,6.21-15.01,6.21h-275.28c-11.71,0-21.21-9.5-21.21-21.22,0-5.86,2.38-11.17,6.21-15.01,3.84-3.84,9.15-6.21,15-6.21h-111.21c-11.71,0-21.21-9.5-21.21-21.22,0-5.86,2.37-11.16,6.21-15,3.84-3.84,9.14-6.21,15-6.21h162.1c-1.28,0-2.53-.11-3.75-.33,4.36-.78,8.25-2.89,11.25-5.89,3.84-3.84,6.21-9.14,6.21-15,0-10.43-7.53-19.11-17.45-20.88,1.22-.23,2.46-.34,3.74-.34h-162.1c-11.71,0-21.21-9.5-21.21-21.22,0-5.86,2.37-11.16,6.21-15,3.84-3.84,9.14-6.21,15-6.21h197.03c-11.72,0-21.22-9.5-21.22-21.22,0-5.86,2.37-11.17,6.21-15.01,3.84-3.84,9.15-6.21,15.01-6.21h308.14c11.72,0,21.22,9.5,21.22,21.22,0,5.86-2.37,11.17-6.21,15.01-3.84,3.84-9.15,6.21-15.01,6.21h-197.02c1.63,0,3.22.18,4.74.54-3.96.89-7.5,2.9-10.27,5.67-3.84,3.84-6.21,9.14-6.21,15,0,10.09,7.04,18.53,16.48,20.68-1.52.36-3.11.54-4.74.54h236.43c11.71,0,21.21,9.5,21.21,21.22Z"/>
  <path class="st0" d="M38.44,346.08c0,5.86-2.37,11.16-6.21,15s-9.14,6.22-15,6.22h-236.43c1.63,0,3.22.18,4.74.54-3.96.89-7.5,2.9-10.27,5.67-3.84,3.84-6.21,9.14-6.21,15,0,10.09,7.04,18.53,16.48,20.68-1.52.36-3.11.54-4.74.54h78.34c11.72,0,21.22,9.5,21.22,21.22,0,5.86-2.37,11.17-6.21,15.01s-9.15,6.21-15.01,6.21h-275.28c-11.71,0-21.21-9.5-21.21-21.22,0-5.86,2.38-11.17,6.21-15.01,3.84-3.84,9.15-6.21,15-6.21h-111.21c-11.71,0-21.21-9.5-21.21-21.22,0-5.86,2.37-11.16,6.21-15,3.84-3.84,9.14-6.21,15-6.21h162.1c-1.28,0-2.53-.11-3.75-.33,4.36-.78,8.25-2.89,11.25-5.89,3.84-3.84,6.21-9.14,6.21-15,0-10.43-7.53-19.11-17.45-20.88,1.22-.23,2.46-.34,3.74-.34h-162.1c-11.71,0-21.21-9.5-21.21-21.22,0-5.86,2.37-11.16,6.21-15,3.84-3.84,9.14-6.21,15-6.21h197.03c-11.72,0-21.22-9.5-21.22-21.22,0-5.86,2.37-11.17,6.21-15.01,3.84-3.84,9.15-6.21,15.01-6.21H-22.18c11.72,0,21.22,9.5,21.22,21.22,0,5.86-2.37,11.17-6.21,15.01-3.84,3.84-9.15,6.21-15.01,6.21h-197.02c1.63,0,3.22.18,4.74.54-3.96.89-7.5,2.9-10.27,5.67-3.84,3.84-6.21,9.14-6.21,15,0,10.09,7.04,18.53,16.48,20.68-1.52.36-3.11.54-4.74.54H17.23c11.71,0,21.21,9.5,21.21,21.22Z"/>
</svg>