<?xml version="1.0" encoding="UTF-8"?>
<svg id="Vrstva_1" xmlns="http://www.w3.org/2000/svg" version="1.1" viewBox="0 0 283.46 283.46">
  <!-- Generator: Adobe Illustrator 30.1.0, SVG Export Plug-In . SVG Version: 2.1.1 Build 136)  -->
  <defs>
    <style>
      .st0 {
        fill: #edd88e;
      }

      .st1 {
        fill: #fff;
      }

      .st2 {
        fill: #f9eed7;
      }

      .st3 {
        fill: #efe0c5;
      }
    </style>
  </defs>
  <rect class="st0" x="-8.08" y="-5" width="298.08" height="298.08"/>
  <path class="st1" d="M56.57,21.53s1.99-.36,3.76-.21,4.66.12,7.99,1.2,7.89,3.97,10.67,6.46,10.23,12.27,11.73,14.33,2.02,7.06,2.02,7.06l.7-2.11s1.43,4.26,1.23,9.81c-.2,5.55-.26,20.52-.99,23.2,0,0,5.18-24.94,5.32-26.96,0,0,2.07,3.28,3.1,10.65,1.03,7.37,2.47,49.69,1.49,54.77,0,0,1.51-19.53,4.48-32.67.85-3.77,1.83-7.02,2.92-9.13,0,0-2.04,17.98-1.77,20.6l.27,2.63s.62-9.53-.57-11.01.71-4.87.71-4.87c0,0,1.04,9.9,3,14.69s6.82,16.02,8.27,19.52l1.46,3.5-3.21-9.34s3.61,7.72,8.38,13.35,25.22,24.59,28.78,32.26c3.56,7.67,7.7,29.12,7.7,29.12,0,0-.14.5.81.73,0,0-.1-12.92-.49-17.96s.68-11.38-9.86-19.27c0,0,5.48,1.57,12.81,7.83,7.33,6.26,13.02,10.73,14.67,20.76,1.65,10.03,3.16,18.59,3.16,18.59,0,0-.26-13.79-1.04-17.93s-4.03-10.29-4.03-10.29c0,0,3.25,1.03,8.44,5.37,5.19,4.34,9.19,10.11,9.19,10.11,0,0-1.8-3.7-3.15-5.33,0,0,5.68,4.26,8.54,7.34s3.89,10.68,3.89,10.68c0,0,1.29-5.52,1.22-8.92s0-3.6,0-3.6c0,0,.21,2.32,1.98,4.43s5.15,8.58,5.83,11.07l.69,2.49s.96-3.63.27-5.19-1.39-2.29-1.39-2.29c0,0,1.42-.19,2.12,2.63s.42,5.7.42,5.7c0,0,1.75-2.19,1.72-4.83s1.12-4.74,1.12-4.74c0,0-.66,2.95-.36,4.48s.36,2.51.36,2.51c0,0,.82-4.17,1.31-5.19l.49-1.02s-.36,3.54-.01,4.79.43,2.89.43,2.89c0,0,2.91-5.22,3.13-7.1l.23-1.88s.99,2.04-.51,5.8c-1.5,3.77-1.17,5.73-1.17,5.73,0,0,6.67-7.79,7.41-8.27s-3.68,5.15-4.92,7.59-2.64,6.09-2.23,8.43-2.63,8.29-2.06,9.63.45,7.18.89,9.14,5.5,7.95,5.5,7.95c0,0-6.2-5.77-6.4-7.41l-.2-1.64s-2.73,7.36-2.42,10.03c.31,2.68,1.4,5.42,1.4,5.42,0,0-1.67-1.39-2.01-3.58s.03-5.5.03-5.5c0,0-2.01.49-1.78,2.57s.82,3.86.82,3.86c0,0-1.47-1.74-1.51-2.5s-.63,1.52-1.74,2.3l-1.11.78s.74-.59,1.1-1.93-.95-.33-.95-.33c0,0-1.55,2.78-3.55,4.54l-1.99,1.76-.46-.41s-2.3,3.26-3.29,3.21l-.99-.06s2.69-2.07,3.43-3.6.4-3.71.4-3.71c0,0-.74,1.64-1.14,1.27l-.4-.36s-.43.24-.76.26-2.1,1.77-2.82,1.75,1.09-3.2.21-7.22l-.88-4.02s-.34,9.81-.22,10.13-.05,1.1-.05,1.1c0,0-.85-.45-1.28-1.36l-.43-.91s-1.88,5.93-1.64,7.19l.23,1.25s-1.19-.65-.84-3.36.96-6.65.96-6.65c0,0-2.15,6-2.17,6.61l-.02.61s-.9-.39-.59-1.67,1.25-6.28,1.25-6.28c0,0-2.3,5.13-2.54,5.86s-.46.98-.63.81,1.41-3.66,1.54-6.15-.01-3.25-.01-3.25l-2.26,7.88s-.29-2.24.05-4.13l.34-1.89s-1.8,3.29-2.74,5.27l-.94,1.98s2.9-8.36,2.59-10.92l-.31-2.57s-2.36,7.17-2.31,8.05-.47,1.46-.47,1.46l-.5-3.05-1.38.96.79-1.58-1.59,1.19s2.74-4.22,3.01-5.23l.28-1.01s-7.34,8.54-8.87,8.74l-1.53.19s3.79-3.18,4.18-5.12c.39-1.95.58-5.53.58-5.53,0,0-3.64,3.94-4,5.28s-.83,1.86-.83,1.86c0,0-.45-2.18.71-4.05s1.59-3.06,1.59-3.06c0,0-2.5,1.51-4.05,4.4s-1.82,2.96-1.82,2.96c0,0,.4-2.77,1.29-4.58l.89-1.81-2.31,2.11.22-1.06s-2.14,3.09-3.06,3.3l-.92.22s2.55-2.62,3.17-4.35,1.88-5.93,1.88-5.93c0,0-3.41,4.04-5.11,7.1l-1.7,3.06s-.43.24-.55.03.89-2.85.89-2.85l-1.06,1.65s1.12-4.63,1.45-6.74l.32-2.11s-5.5,5.09-5.85,4.78l-.35-.31s-1.11.07-1.54.09-1.39.62-1.39.62l2.89-3.57-3.88,3.51.1-1.27s-1.11.78-1.08.39,2.42-3.98,2.42-3.98c0,0-4.53,2.85-4.36,2.31s.36-.99.36-.99c0,0-.48,1.35-.65.15l-.18-1.2s-2.24.41-1.93-.06-1.52-1.22-1.52-1.22c0,0,5.54-1.76,9.82-5.02s11.3-9.59,12.22-10.85l.92-1.26s-17.18,10.79-23,12.98c-5.82,2.19-7.82,1.86-7.82,1.86,0,0,4.28-1.28,6.13-2.54s2.23-1.55,2.23-1.55c0,0-4.34,1.12-5.3,1.61s-3.81,1.8-3.81,1.8c0,0,5.17-4.02,6.87-5.22s2.01-1.43,2.01-1.43c0,0-7.4,3.49-11.6,4.21s-6.19.5-6.19.5c0,0,5.6-1.13,8.76-2.79l3.16-1.66s-12.15,4.13-14.79,4.17-3.21-.26-3.21-.26c0,0,10.81-4.61,15.82-6.48s15.19-7.98,22.97-15.51c0,0-11.92,9.45-23.7,9.22-11.79-.24-22.06-4.02-27.97-6.39s-24.9-13.66-24.9-13.66c0,0,4.77,1.66,7.71,2.22l2.95.55s-9.56-3.77-12.17-5.28-1.67-1.28-1.67-1.28l4.79,1.99s-4.75-2.27-10.82-7.71c-6.07-5.44-29.52-30.73-36.22-43.62-6.7-12.89-16.79-36.43-16.45-36.12s3.29,3.89,3.29,3.89c0,0-2.99-7.37-5.74-12.34-2.75-4.97-4.13-10.06-3.71-9.48s3.89,5.67,5.65,7.67l1.76,1.99s-4.56-10.97-5.48-16.7c-.92-5.73-.21-6.87-.21-6.87l.65.79s.26-3.31.62-2.78,1.04,4.89,1.04,4.89c0,0,.44-1.07.56-.86s1.02,2.58,1.57,3.6l.55,1.02s-3.84-11.78-4.13-16.22.95-8.85,1.24-8.48.88,2.04.88,2.04c0,0-.35-3.45-.17-6.1s2.65-7.96,2.65-7.96l.51.36s2.15-4.96,4.17-7.32,2.59-2.89,2.59-2.89c0,0-1.45,2.66.09,5.61,1.54,2.94,1.95,3.52,1.95,3.52,0,0-2.05-4.34-1.7-6.95s5.14-6.66,5.93-7.31,5.65-3.28,7.29-3.59,3.1-.49,3.1-.49Z"/>
  <path class="st0" d="M181.04,233.16c-.33.33,7.94-11.66,10.88-14.24,0,0-9.21,12.61-10.88,14.24Z"/>
  <path class="st0" d="M166.24,230.12s6.66-4.88,7.93-5.83-4.95,5.99-7.93,5.83Z"/>
  <path class="st0" d="M155.77,221.78c-.45-.11,9.44-4.48,12.13-5.61l2.69-1.14s-12.9,7.23-14.81,6.75Z"/>
  <path class="st0" d="M187.19,237s2.48-3.23,5.55-8.29c3.07-5.06,3.46-5.96,3.46-5.96,0,0-8.5,11.58-9.01,14.25Z"/>
  <path class="st0" d="M210.22,244.37s-.57-3.32-.25-7.41c.33-4.09,1.19-6.45,1.19-6.45l-.94,13.85Z"/>
  <polygon class="st0" points="176.76 229.33 174.07 232.33 179.04 228.42 176.76 229.33"/>
  <path class="st0" d="M95.58,185.35s4.3,2.19,6.62,2.39l2.32.2-8.94-2.59Z"/>
  <path class="st3" d="M139.38,179.55s19.82,18.39,54.26,32.57c34.44,14.18,29.85,9.13,29.85,9.13l-8.92-4.54-59.8-29.37-22.62-15.31s.29,1.82,7.23,7.53Z"/>
  <path class="st2" d="M264.77,230.06s-3.85-2.93-7.92-4.08-67.91-18.51-96.28-37.37c-28.37-18.86-50.16-30.87-67.37-62.99-17.22-32.12-23.4-47.68-34.71-95.36l-1.21-6.09s-.43,14.22,17.17,66.51c0,0,10.27,24.85,18.4,38.6s13.81,21.14,25.67,32.81c11.86,11.67,44.48,32.77,53.88,37.65,9.4,4.88,32.72,17.73,61.26,24.07,0,0,17.15,5.31,21.82,6.15,4.67.84,10.89,1.18,9.3.1Z"/>
  <path class="st2" d="M36.23,71.87s5.04,9.74,11.35,16.43l6.31,6.7s-13.05-9.19-17.66-23.13Z"/>
  <path class="st2" d="M33.03,47.73s2.03,11.47,10.16,24.05c8.13,12.58,9.23,14.61,9.23,14.61,0,0-20.75-23.4-19.39-38.66Z"/>
  <path class="st0" d="M133.63,142.89s3.58,3.63,3.98,10.66,1.52,13.46,1.52,13.46c0,0-2.52-7.89-2.75-12.06s-2.75-12.06-2.75-12.06Z"/>
  <path class="st0" d="M223.39,206.86s-1.6,6.44-2.09,5.82,2.09-5.82,2.09-5.82Z"/>
  <path class="st0" d="M197.7,191.52s3.92,9.59,2.7,11.42l-2.7-11.42Z"/>
</svg>