<?xml version="1.0" encoding="UTF-8"?>
<svg id="Vrstva_1" xmlns="http://www.w3.org/2000/svg" xmlns:xlink="http://www.w3.org/1999/xlink" version="1.1" viewBox="0 0 283.46 283.46">
  <!-- Generator: Adobe Illustrator 30.1.0, SVG Export Plug-In . SVG Version: 2.1.1 Build 136)  -->
  <defs>
    <style>
      .st0 {
        fill: none;
      }

      .st1 {
        fill: #1e1c18;
      }

      .st2 {
        fill: #e3d5b5;
      }

      .st3 {
        fill: #ccbe9a;
      }

      .st4 {
        fill: #524f4a;
      }

      .st5 {
        fill: #d6c6a3;
      }

      .st6 {
        fill: #8a8275;
      }

      .st7 {
        fill: #b29c7d;
      }

      .st8 {
        clip-path: url(#clippath-1);
      }

      .st9 {
        clip-path: url(#clippath-2);
      }

      .st10 {
        fill: #fff;
      }

      .st11 {
        fill: #d2b953;
      }

      .st12 {
        fill: #3a3732;
      }

      .st13 {
        fill: #777064;
      }

      .st14 {
        fill: #e9e0c4;
      }

      .st15 {
        fill: #efda81;
      }

      .st16 {
        fill: #e2cb69;
      }

      .st17 {
        fill: #b2a080;
      }

      .st18 {
        clip-path: url(#clippath);
      }
    </style>
    <clipPath id="clippath">
      <rect class="st0" x="19.84" y="19.84" width="243.78" height="243.78"/>
    </clipPath>
    <clipPath id="clippath-1">
      <rect class="st0" x="137.83" y="137.9" width="3.37" height="2.29"/>
    </clipPath>
    <clipPath id="clippath-2">
      <rect class="st0" x="19.84" y="19.84" width="243.78" height="243.78"/>
    </clipPath>
  </defs>
  <rect class="st3" x="19.84" y="19.84" width="243.78" height="243.78"/>
  <g class="st18">
    <path class="st17" d="M17.79,180.92s10.17,7.63,17.38,20.35c7.21,12.72,8.48,22.47,8.48,22.47,0,0-11.45-16.96-3.81-42.82,7.63-25.86,10.6-36.46,10.6-36.46v5.94l2.54-10.18s4.66,6.36,8.06,19.93c3.39,13.57,0,25.86,0,25.86,0,0,3.82-4.24,3.82-8.48v-6.78s3.82,11.87,7.21,25.44c3.39,13.57-3.81,31.8-3.81,31.8,0,0,.85-7.21,11.02-15.26l10.18-8.06,1.27,6.78s-1.7-21.62,1.7-36.46c3.39-14.84,3.82-16.11,3.82-16.11,0,0,12.72,10.6,23.32,38.58l10.6,27.98s-21.62-43.24-18.65-55.11,40.28-23.74,40.28-23.74l35.61,69.95s.85-23.32,22.47-29.68l21.62-6.36s1.7,24.59-3.39,34.76l-5.09,10.17,19.93-41.12,5.93,13.57s-9.75-32.22-2.97-43.24c6.78-11.02,11.45-19.93,11.45-19.93l8.48,42.4v91.15H15.25l2.54-87.33Z"/>
    <path class="st16" d="M159.46,126.94s3.08-.86,6.04-3.21c2.96-2.34.49-4.32,5.92-5.67,5.43-1.36,18.99-6.17,18.25-8.02-.74-1.85-9.87.86-13.94,1.85-4.07.99-6.79.99-6.79.99,0,0,2.35-2.22,1.73-4.07-.62-1.85-1.11-1.23-3.46-.12-2.34,1.11-5.92,2.34-8.26,2.1-2.34-.25-2.71-1.6-7.89-1.85-5.18-.25-6.66.12-6.66.12,0,0,5.55.37,7.28-2.71,1.73-3.08.74-4.69,2.84-8.14,2.1-3.45,7.65-12.83,11.35-13.69,3.7-.86,4.32-2.1,3.45-2.47-.86-.37-1.6-.49-1.6-.49,0,0,7.15-6.29,7.28-7.65.12-1.36-.99-1.97-2.47-1.23-1.48.74-13.81,12.83-13.81,12.83,0,0,2.1-6.66,2.22-8.63.12-1.97.86-3.21-.12-2.71-.99.49-.86,2.59-.86,2.59,0,0-.99-6.91-3.45-7.52-2.47-.62-2.71.99-2.47,3.58.25,2.59-1.48,10.48-5.67,14.92-4.19,4.44-8.02,5.8-10.98,8.14l-2.96,2.34s3.33-3.33,3.45-10.11c.12-6.78-1.36-13.2.86-21.46,2.22-8.26,6.17-27.75,5.55-28.37-.62-.62-.86-.12-2.59,2.96-1.73,3.08-11.72,33.3-11.72,33.3,0,0-.74-19.37-3.33-25.16-2.59-5.8-10.61-10.48-12.33-10.11-1.73.37-.62,1.85.74,3.45,1.36,1.6,7.77,7.4,7.15,12.21-.62,4.81-2.22,22.94-2.22,22.94,0,0-4.69-6.04-6.54-18.87-1.85-12.83.74-29.6-.25-30.84-.99-1.23-2.34,1.97-3.33,4.32-.99,2.34-2.1,27.75-1.97,30.96s-.86,7.03-.86,7.03c0,0-7.03-17.64-15.29-26.27-8.26-8.63-13.45-10.11-16.65-9.5-3.21.62-3.45,2.34-2.71,2.71.74.37,7.65,1.85,12.21,6.91,4.56,5.06,9.38,14.92,10.49,18.13,1.11,3.21,1.23,3.58,1.23,3.58,0,0-22.08-37.62-23.56-36.88-1.48.74,8.63,19.36,11.22,25.78,2.59,6.41,5.06,22.45,5.06,22.45l.74,5.8,8.26,17.51,61.42,26.27Z"/>
    <path class="st2" d="M117.28,197.37s-5.8-.74-10.24,2.71c-4.44,3.45-10.98,13.82-12.33,18.5-1.36,4.69-3.19,16.12-3.19,16.12l25.77-16.73v-20.6Z"/>
    <path class="st5" d="M115.43,202.55s-3.08-1.6-8.14.74c-5.06,2.34-10.85,13.07-12.33,17.64-1.48,4.56-3.82,15.91-5.3,20.85-1.48,4.93-1.48,15.91-1.36,20.23.12,4.32.49,5.8.49,5.8l16.9.12,9.5-58.34.25-7.03Z"/>
    <path class="st2" d="M109.87,211.93s1.6-4.07.86-4.93c-.74-.86-11.1,7.28-13.94,15.79-2.84,8.51-1.36,9.74-2.71,14.56-1.36,4.81-3.21,12.33-3.7,19.86-.49,7.52-.25,10.61-.25,10.61l9.13-.12s-.49-13.07,0-16.65c.49-3.58,4.69-16.4,5.8-20.6s3.21-13.2,3.82-15.17c.62-1.97.99-3.33.99-3.33"/>
    <path class="st5" d="M120.48,176.9s1.11,2.71-.25,4.69c-1.36,1.97-4.93,15.42-6.17,20.11-1.23,4.69-1.11,7.4-1.11,7.4l6.41-16.28,2.84-9.13-1.73-6.78Z"/>
    <path class="st5" d="M118.88,170.61s.74,6.17,1.23,7.89c.49,1.73.86,2.96.37,5.18-.49,2.22-6.04,19.61-7.4,24.92-1.36,5.3-5.06,14.8-6.29,21.71-1.23,6.91-3.58,8.76-4.07,15.66-.49,6.91-.25,21.96-.25,21.96l79.19-.37,10.36-.25-8.76-65.49-16.65-38.98s-45.27-33.67-48.47-38.85c-3.21-5.18-15.05-23.43-15.05-23.43,0,0-4.07-3.82-4.69-6.17-.62-2.34-7.52-18.01-15.67-23.81-8.14-5.8-9.13-2.22-8.88-1.36.25.86,6.29,11.96,9.37,19.12,3.08,7.15,5.67,14.92,6.41,17.88.74,2.96,2.1,14.93,4.56,20.97,2.47,6.04,8.39,13.57,11.35,16.03,2.96,2.47,11.84,19.86,11.84,19.86l1.48,7.52Z"/>
    <path class="st2" d="M78.42,71.32s8.88,11.59,10.36,14.43l1.48,2.84s1.97.37,3.08,2.59c1.11,2.22.86,9.5.86,9.5,0,0,3.08,1.85,4.44,6.54,1.36,4.69.86,5.92.86,5.92,0,0,2.22,4.32,2.59,6.41l.37,2.1s2.1.49,4.07,5.3c1.97,4.81,1.85,5.92,1.85,5.92,0,0,3.33-.12,5.55,1.48l2.22,1.6s3.45-1.11,5.8,1.48c2.34,2.59,3.33,5.8,3.33,5.8,0,0,6.91,5.8,7.77,8.14.86,2.34-.74,6.17-1.97,8.26s-1.73,8.39-2.22,13.69c-.49,5.3,2.22,8.39,5.3,8.76,3.08.37,4.44-8.02,4.93-9.74.49-1.73.99-1.85.99-1.85,0,0-1.85,5.8,1.23,8.39,3.08,2.59,6.54-3.08,6.54-3.08,0,0,.12,3.7,3.33,4.69,3.21.99,5.06-.99,5.06-.99,0,0,.12,3.82,1.48,4.56,1.36.74-3.08,8.02-8.39,8.02s-6.54-.99-6.54-.99c0,0-4.32,2.34-8.02,1.6-3.7-.74-4.32-1.97-4.32-1.97,0,0,.12,11.6,2.22,13.2,2.1,1.6,4.56.86,4.56.86,0,0-3.33,5.43-1.73,8.14,1.6,2.71,4.32,1.97,4.32,1.97,0,0-.12,2.71-.37,4.19-.25,1.48-3.58,4.19-1.73,6.79,1.85,2.59,6.66,2.84,6.66,2.84,0,0-1.85,6.29-.62,8.26,1.23,1.97,1.48,2.22,1.48,2.22,0,0-4.56,2.71-3.21,6.54,1.36,3.82,2.1,4.44,2.1,4.44,0,0-1.11,4.19.86,6.04,1.97,1.85,3.08,2.1,3.08,2.1,0,0,.74,8.39,1.97,9.25l41.94-.25-17.88-96.33s-15.66-28-16.16-28.37c-.49-.37-37-33.8-37-33.8,0,0-19.49-10.85-20.97-12.83-1.48-1.97-9.5-23.81-21.71-28.12,0,0-1.48.49.12,3.45"/>
    <path class="st14" d="M105.31,97.59s5.18-.37,9.74,1.48c4.56,1.85,6.29,4.69,6.29,4.69,0,0-2.59-4.56,0-5.06,2.59-.49,6.78,1.97,7.52,3.33,0,0,2.84.86,4.93,2.59,2.1,1.73,2.84,4.69,2.84,4.69,0,0,3.58-1.23,6.41.86,2.84,2.1,2.34,6.79,2.34,6.79,0,0,7.15,1.85,9.25,4.44,2.1,2.59,1.97,3.21,1.97,3.21,0,0,6.66,2.47,10.36,6.54,3.7,4.07,7.4,8.63,7.15,10.85-.25,2.22-.74,2.34-.74,2.34,0,0,5.06,6.17,5.43,8.51.37,2.34-1.48,2.71-1.48,2.71,0,0,6.78,5.67,6.54,8.02-.25,2.34-2.84,2.84-2.84,2.84,0,0,2.71,4.69,3.95,9.74,1.23,5.06,1.6,16.4,1.6,16.4,0,0,1.73,4.93,1.73,5.67s-.99.86-.99.86c0,0,3.21,6.04,3.33,7.52,0,0,14.92,7.4,19.98,21.59,0,0,4.56,6.78,4.07,12.21,0,0,1.48,6.91,1.11,9.5,0,0,2.22,11.59,2.1,14.55-.12,2.96-.49,4.93-.49,4.93l-31.58-1.48-27.75-.74s.49-7.89.86-10.24l.37-2.34s-2.96-4.81-2.71-7.4c.25-2.59.49-3.33.49-3.33,0,0-2.71-2.47-2.35-5.06.37-2.59.49-3.21.49-3.21,0,0-1.36-3.08-1.36-5.8s1.11-5.3,1.11-5.3c0,0-3.7-3.7-4.69-6.04-.99-2.34,1.6-8.26,1.6-8.26,0,0-2.34.62-3.08-2.22-.74-2.84.62-6.91,1.48-7.65l.86-.74s5.55.74,8.76-.12c3.21-.86,4.19-3.21,4.19-3.21,0,0,3.82-.25,4.93-3.58,1.11-3.33-.62-7.89-.62-7.89,0,0-.12-1.11.49-4.93.62-3.82-4.69-11.1-4.69-11.1,0,0-6.29-5.67-7.4-5.67,0,0-6.29-.25-8.14-1.11-1.85-.86-1.85-1.36-1.85-1.36,0,0-4.93.37-6.17-1.85-1.23-2.22-1.23-6.29-1.23-6.29,0,0-11.1-7.03-10.73-11.84.37-4.81-10.48-14.68-10.48-14.68,0,0-8.26-13.81-11.1-17.51l-2.84-3.7-5.43-8.76s5.55,1.23,6.41,1.6"/>
    <path class="st2" d="M188.32,206.13c-.37,0-7.28-.12-8.51,2.96-1.23,3.08-2.34,11.97-.86,18.75,1.48,6.78,2.71,11.1,2.59,17.51-.12,6.41.37,18.87,1.48,21.21,1.11,2.34,1.23,2.72,1.23,2.72h8.26s-4.69-9.74-4.69-15.17v-5.43s1.23.62,2.47,0c1.23-.62,1.23-1.6,1.23-1.6,0,0-1.97,1.23-2.71,0-.74-1.23-1.6-3.33-1.6-3.33,0,0,.49.74,2.22.74s2.1-1.36,2.1-1.36c0,0-5.3-3.95-6.29-7.15l-.99-3.21s.25.62,1.36.25c1.11-.37,1.36-.99,1.36-.99,0,0-4.44-8.51-5.43-14.31-.99-5.8,1.36-8.76,3.08-9.87,1.73-1.11,5.55-1.11,5.55-1.11l-1.85-.62Z"/>
    <path class="st7" d="M179.07,210.82s-3.21,6.91-3.33,10.24c-.12,3.33,2.1,15.42,2.34,19.24.25,3.82-.74,18.87-.25,22.45.49,3.58,1.73,6.78,1.73,6.78l4.69-.25s-2.84-13.94-2.22-18.38c.62-4.44-.25-13.57-.86-15.66-.62-2.1-3.58-9.25-2.1-24.42"/>
    <path class="st7" d="M134.3,132.25s-4.56,2.22-4.93,4.69c-.37,2.47.25,6.78,2.47,8.76,2.22,1.97,5.06,1.85,8.14,1.48,3.08-.37,4.44-2.22,4.44-2.22l-10.11-12.7Z"/>
    <path class="st5" d="M145.15,143.84s-.12,1.6-4.44,2.34c-4.32.74-9.87-2.22-10.11-5.67s-.62-5.55,3.7-8.26c4.32-2.71,9-.12,10.73,3.21,1.73,3.33.86,7.65.12,8.39"/>
    <path class="st7" d="M132.57,141.87s-1.85-5.55,2.1-7.77c3.95-2.22,8.02.37,8.76,3.08.74,2.71-.74,7.03-3.21,7.65-2.47.62-7.15,0-7.65-2.96"/>
    <path class="st14" d="M132.94,140.39s-.37-4.32,4.07-5.18c4.44-.86,5.67,3.58,5.67,4.93s-.49,3.82-4.32,4.32c-3.82.49-5.3-1.6-5.43-4.07"/>
    <path class="st12" d="M135.78,142.86s-2.22-3.08-.74-5.18c1.48-2.1,4.81-1.6,5.67-.49.86,1.11,1.73,3.33.49,4.69-1.24,1.36-4.19,1.6-5.43.99"/>
    <path class="st1" d="M136.27,140.64s-.86-2.22,1.6-2.84c2.47-.62,2.96,2.96,2.59,3.7-.37.74-4.56,1.11-4.19-.86"/>
  </g>
  <g class="st8">
    <path class="st6" d="M139.8,137.9c-.14,0-.28.04-.43.12.63.43.98,1.26,1.12,2.01.4-.07.69-.13.71-.13h0c-.02-.08-.39-1.73-1.23-1.97-.05-.02-.11-.02-.17-.02"/>
    <path class="st13" d="M139.38,138.02c-.74.37-1.5,1.51-1.5,1.51-.03.07-.04.13-.04.18v.04c.02.34.49.44,1.09.44.52,0,1.12-.08,1.58-.16-.14-.76-.49-1.59-1.12-2.01"/>
  </g>
  <g class="st9">
    <path class="st7" d="M94.95,118.06c.29.26,1.73,3.82,3.08,7.15,1.36,3.33,5.92,9.5,9.75,11.1,0,0,1.73-.49,3.82.12,2.1.62,2.96,1.36,2.96,1.36,0,0,3.33.25,5.43,1.85,2.1,1.6,2.84,2.96,2.84,2.96,0,0,3.58,2.84,4.69,4.93s1.23,2.47,1.23,2.47c0,0,2.59,1.23,2.71,3.82.12,2.59-2.22,6.17-2.84,7.89-.62,1.73-1.85,8.02-1.6,8.39.25.37.86.37.86.37,0,0-1.24,1.97-1.11,2.47.12.49-.12,4.19-1.11,3.7-.99-.49-1.23-2.34-1.23-2.34,0,0,.99,1.48-1.11-.37-2.1-1.85-3.08-4.32-3.08-4.32,0,0-13.2-24.79-14.06-26.27s-7.03-7.52-9.25-12.58c-2.22-5.06-3.45-14.06-1.97-12.7"/>
    <path class="st12" d="M129.61,152.6s-5.18-6.29-7.15-7.52c-1.97-1.24-5.92-4.69-8.26-5.18-2.34-.49-4.93-1.48-6.54-.99-1.6.49-.62,3.08-1.36,3.7-.74.62-3.33,3.95-3.95,11.72-.62,7.77,3.82,19.49,7.03,21.34,0,0,.86-.86.74-3.08-.12-2.22.49-4.56.49-4.56,0,0,1.73,2.34,4.81,3.58,3.08,1.23,8.39.37,8.39.37,0,0,1.11,1.97,1.6,1.73.49-.25.12-5.55.86-8.39.74-2.84,3.45-8.26,3.83-9.62.37-1.36-.49-3.08-.49-3.08"/>
    <path class="st4" d="M111.97,141.75s-3.45,1.36-4.32,2.59c-.86,1.23-3.08,9.25-2.22,14.93.86,5.67,3.21,8.02,3.7,7.28.49-.74,2.34-2.84,2.47-3.82,0,0,5.68-.74,8.51-3.33,2.84-2.59,4.81-6.78,4.32-9-.49-2.22-1.48-3.58-4.56-4.93-3.08-1.36-3.82-.49-5.43-1.73-1.6-1.23-1.6-2.1-2.47-1.97"/>
    <path class="st4" d="M112.83,164.32s1.11-.12,3.7-.99c2.59-.86,5.8-4.07,6.54-5.67.74-1.6,2.22-3.33,3.45-3.33s2.34.62,2.34,1.6-2.34,4.32-3.08,6.78c-.74,2.47-.12,5.18-.74,6.04-.62.86-11.47-2.1-12.21-4.44"/>
    <path class="st16" d="M75.34,72.06s-.25-3.08,1.11-3.58c1.36-.49,5.55,1.11,7.89,3.45,2.34,2.34,5.43,5.92,5.43,5.92v-2.71s-19-19.36-22.94-22.08c-3.95-2.71-12.09-7.52-20.85-7.28-8.76.25-10.24,5.43-9.37,6.17.86.74,8.14-1.23,14.06.37,5.92,1.6,9.62,3.33,14.68,7.89,5.06,4.56,9.99,11.84,9.99,11.84"/>
    <path class="st15" d="M110.86,91.05s-1.11-8.14-5.67-13.94c-4.56-5.8-23.19-34.54-23.19-34.54,0,0,16.03,28,19.12,34.78,3.08,6.78,5.67,10.48,6.04,14.18.37,3.7.37,4.32.37,4.32,0,0,3.58-3.21,3.33-4.81"/>
    <path class="st15" d="M111.48,45.54s.86,26.27,3.33,32.44c2.47,6.17,3.45,9.62,4.19,13.32.74,3.7.62,5.06.62,5.06,0,0,3.7-10.48,3.82-11.35l.12-.86s-5.3-10.48-6.78-13.45c-1.48-2.96-4.56-24.42-4.19-28.99.37-4.56.37-5.55.37-5.55,0,0-1.73,7.77-1.48,9.37"/>
    <path class="st15" d="M141.33,55.78s-4.19,17.76-3.82,24.42c.37,6.66.37,12.95-2.47,17.64-2.84,4.69-2.84,3.45-2.84,3.45,0,0,2.59-11.35,2.96-16.4.37-5.06.25-10.98,1.97-17.51,1.73-6.54,4.19-11.59,4.19-11.59"/>
    <path class="st11" d="M165.13,114.12c.36.07-8.02.12-10.98,1.11l-2.96.99s5.18-3.82,13.94-2.1"/>
    <path class="st11" d="M107.04,70.45l-1.36,7.52-1.48-1.97s1.48-4.57.49-7.77c-.99-3.21-2.59-8.02-2.59-8.02l4.93,10.24Z"/>
    <path class="st11" d="M129.49,75.39s-1.11,3.58-2.71,4.93c-1.6,1.36-2.1,1.73-2.1,1.73l4.81-6.66Z"/>
    <path class="st11" d="M144.53,96.6s2.84-3.21,6.91-3.82c4.07-.62,5.43-2.47,4.81-2.96-.62-.49-1.11-.86-1.11-.86,0,0,1.11-1.11,1.24-2.96l.12-1.85s-1.48,4.44-2.71,5.18l-1.23.74s1.6-.62,1.73.25c.12.86-9,2.34-9.74,6.29"/>
    <path class="st2" d="M99.31,97.51s10.05,6.4,13.25,10.97c3.2,4.57,3.2,10.51,3.2,10.51,0,0,6.86,2.28,9.14,7.31,2.29,5.03,2.29,12.34,2.29,12.34l-12.79-9.14-15.08-31.99Z"/>
    <path class="st2" d="M118.96,114.42s5.94.46,9.14,2.74c3.2,2.28,3.66,8.68,3.66,8.68,0,0-2.29-7.77-12.79-11.42"/>
    <path class="st2" d="M115.76,105.28s6.4.46,10.05,3.2c3.65,2.74,2.28,8.68,2.28,8.68,0,0,1.83-5.03-12.34-11.88"/>
    <path class="st2" d="M135.41,122.64s7.77-.91,10.51,5.48l2.74,6.4s2.28-15.08-13.25-11.88"/>
    <path class="st2" d="M162.83,150.97s8.68,11.42,8.68,16.45-8.68,1.83-8.68,1.83l2.28,5.48s9.6,1.83,8.23-7.31c-1.37-9.14-10.51-16.45-10.51-16.45"/>
    <path class="st2" d="M152.77,198.95s-1.37,8.22,2.74,10.97c4.11,2.74,8.68-1.83,8.68-1.83,0,0,9.14,1.83,12.34-.92,3.2-2.74.91-7.77.91-7.77,0,0-.46,12.79-13.71,5.03,0,0-7.31,10.51-9.14-6.85l-1.83,1.37Z"/>
    <path class="st2" d="M148.85,207.98s.27,7.88,5.75,9.25c5.48,1.37,6.85-1.83,6.85-1.83,0,0,.46,3.66,5.48,3.2,5.03-.46,5.03-2.29,5.03-2.29,0,0-7.77,8.23-11.88,3.2,0,0-9.14,2.74-13.25-1.83-4.11-4.57,2.02-9.71,2.02-9.71"/>
    <path class="st2" d="M157.11,243.87s1.6,5.34,5.26,5.34,5.94-4.11,5.94-4.11c0,0-5.03,9.6-11.88,5.48-6.85-4.11.68-6.71.68-6.71"/>
    <path class="st2" d="M161.91,234.13s1.37,4.57,5.03,4.57,5.03-4.11,5.03-4.11c0,0-3.65,5.94-10.05-.46"/>
    <path class="st2" d="M194.35,245.56s5.48,10.97,8.68,9.14l3.2-1.83s-1.83,5.94-5.03,4.57c-3.2-1.37-6.85-11.88-6.85-11.88"/>
    <path class="st2" d="M191.61,256.07s4.11,8.68,9.6,8.68,7.77-3.66,7.77-3.66c0,0-2.74,9.14-10.05,6.85-7.31-2.28-7.31-11.88-7.31-11.88"/>
    <path class="st2" d="M191.16,230.94s1.83,9.14,5.48,10.05c3.66.91,7.31-1.83,7.31-1.83,0,0-2.74,5.03-7.77,3.66-5.03-1.37-5.03-11.88-5.03-11.88"/>
    <path class="st2" d="M197.1,230.02s.91,2.74,4.57,2.74,5.48-4.11,5.48-4.11c0,0-5.48,4.57-10.05,1.37"/>
    <path class="st5" d="M94.37,235.43s-1.13,15.55,0,17.34c1.13,1.79,4.62-2.83,4.62-2.83l.19,18.19-10.18.09s2.26-30.06,5.37-32.79"/>
    <path class="st7" d="M104.94,230.51s.27-.67.13-.09c-.81,3.39-3.95,15.39-4.68,22.91-.85,8.82-1.12,14.33-1.12,14.33l-2.01.18s-3.7-4.33,7.68-37.34"/>
    <path class="st2" d="M188.14,248.63s5.65,12.72,11.31,14.23c5.41,1.44,14.57-8.54,16.2-12.44.08-.18.13-.35.18-.5,0,0,4.32,13.88,1.6,19.49l-27.88-.05s-3.21-18.75-1.41-20.73"/>
  </g>
  <g>
    <path class="st10" d="M93.22,254.8h-2.38v-18.22h2.66c-.12,1.56-.24,5.02-.29,8.64.94-.07,4.32-3.74,8.26-8.64h3.05c-4.46,5.14-6.86,7.75-8.16,8.52,1.73,1.25,4.68,4.63,8.83,9.7h-3.43c-3.02-4.06-7.27-9.12-8.5-9.12-.02,3.65-.05,7.3-.05,9.12Z"/>
    <path class="st10" d="M110.98,249.04c-.7,1.9-1.39,3.82-2.04,5.76h-2.69c2.21-5.95,5.11-12.87,7.73-18.55h1.8c1.82,5.3,4.58,12.46,7.25,18.55h-2.95c-.79-1.94-1.49-3.86-2.18-5.76h-6.91ZM117.29,247.38c-1.03-2.83-1.97-5.45-2.66-7.73-.89,2.16-1.94,4.82-3.07,7.73h5.74Z"/>
    <path class="st10" d="M127.68,254.8h-2.38v-18.22h2.66c-.12,1.56-.24,5.02-.29,8.64.94-.07,4.32-3.74,8.26-8.64h3.05c-4.46,5.14-6.86,7.75-8.16,8.52,1.73,1.25,4.68,4.63,8.83,9.7h-3.43c-3.02-4.06-7.27-9.12-8.5-9.12-.02,3.65-.05,7.3-.05,9.12Z"/>
    <path class="st10" d="M145.44,249.04c-.7,1.9-1.39,3.82-2.04,5.76h-2.69c2.21-5.95,5.11-12.87,7.73-18.55h1.8c1.82,5.3,4.58,12.46,7.25,18.55h-2.95c-.79-1.94-1.49-3.86-2.18-5.76h-6.91ZM151.76,247.38c-1.03-2.83-1.97-5.45-2.66-7.73-.89,2.16-1.94,4.82-3.07,7.73h5.74Z"/>
    <path class="st10" d="M174.89,245.75c0,4.73-3.1,9.05-10.03,9.05h-5.09v-18.22h4.58c7.01,0,10.54,4.18,10.54,9.17ZM164.36,252.81c5.54,0,7.87-3.17,7.87-6.96,0-4.08-2.67-7.22-7.58-7.22h-2.3c-.12,3.62-.17,10.3-.19,14.19h2.21Z"/>
    <path class="st10" d="M192.61,248.1c0,4.9-3.7,7.03-7.46,7.03s-6.84-2.04-6.84-6.65c0-2.78-.07-10.49-.14-11.91h2.64v11.4c0,3.62,2.14,4.92,4.8,4.92s4.66-1.3,4.66-5.21c0-2.18.05-9.77.07-11.11h2.5c-.1,1.49-.22,9.12-.22,11.52Z"/>
  </g>
</svg>