<?xml version="1.0" encoding="UTF-8"?>
<svg id="Vrstva_1" xmlns="http://www.w3.org/2000/svg" xmlns:xlink="http://www.w3.org/1999/xlink" version="1.1" viewBox="0 0 283.46 283.46">
  <!-- Generator: Adobe Illustrator 30.1.0, SVG Export Plug-In . SVG Version: 2.1.1 Build 136)  -->
  <defs>
    <style>
      .st0 {
        fill: none;
      }

      .st1 {
        fill: #c6984f;
      }

      .st2 {
        fill: #372614;
      }

      .st3 {
        fill: #aa7d3b;
      }

      .st4 {
        fill: #4e6a7a;
      }

      .st5 {
        clip-path: url(#clippath-1);
      }

      .st6 {
        clip-path: url(#clippath-2);
      }

      .st7 {
        fill: #8c6430;
      }

      .st8 {
        fill: #988e85;
      }

      .st9 {
        fill: #fff;
      }

      .st10 {
        fill: #cedfed;
      }

      .st11 {
        fill: #d8d4cc;
      }

      .st12 {
        fill: #dbb279;
      }

      .st13 {
        fill: #c8b093;
      }

      .st14 {
        fill: #e3ecf3;
      }

      .st15 {
        clip-path: url(#clippath);
      }
    </style>
    <clipPath id="clippath">
      <rect class="st0" x="19.84" y="19.84" width="243.78" height="243.78"/>
    </clipPath>
    <clipPath id="clippath-1">
      <rect class="st0" x="124.16" y="88.38" width="2.45" height="2.09"/>
    </clipPath>
    <clipPath id="clippath-2">
      <rect class="st0" x="19.84" y="19.84" width="243.78" height="243.78"/>
    </clipPath>
  </defs>
  <rect class="st4" x="19.84" y="19.84" width="243.78" height="243.78"/>
  <g class="st15">
    <path class="st14" d="M80.35,122.49s.42.53,7.58-1.26c7.16-1.79,42.12-13.37,47.59-14.43,5.48-1.05,18.95-1.68,23.06-2.53,4.11-.84,10.32.21,13.27,4.74s2.95,9.9.21,10.74c-2.74.84-5.26-.95-10.42-2.53-5.16-1.58-9.9-1.68-14.74,2.53-4.84,4.21-3.47,3.37-8,6.74-4.53,3.37-10.95,7.79-11.58,22.64-.63,14.85-1.47,17.16,5.48,33.38,6.95,16.22,21.48,27.17,40.54,34.22,19.06,7.06,22.53,7.06,26.22,11.9,3.69,4.84,14.22,29.69,19.48,35.59l1.37,1.26,64.02-.11-.11-108.98s-25.16-32.64-40.01-35.06c-14.85-2.42-27.27,4.11-34.22,13.79-6.95,9.69-7.58,12.22-9.58,16.64-2,4.42-10.63,13.58-14.63,16.53-4,2.95-4.21,4.11-6,4.53-1.79.42-8.95,1.37-13.79-1.79-4.84-3.16-8.42-7.16-8.85-12.11-.42-4.95.53-9.58,2.95-10,2.42-.42,9.79,1.68,12.85,1.68h3.37l-2,.63s6.53,1.16,11.79-2.53c5.26-3.68,10.32-12.32,13.27-15.48,2.95-3.16,6.42-14.11,4.84-22.11-1.58-8-3.16-22.96-20.95-32.85,0,0-7.47-5.69-16.53-7.58-9.06-1.9-20.64-2.32-27.9-1.26-7.27,1.05-35.06,25.06-35.06,25.06l-3.79,1.58-19.69,26.43Z"/>
    <path class="st14" d="M115.42,90.38s3.05-3.26,4.53-5.37c1.47-2.11,6.74-7.48,13.69-11.27,6.95-3.79,20.64-4,24.85-3.69,4.21.32,15.48,2.95,16.64,3.69,1.16.74,2.21,1.05,2.21,1.05,0,0-8.74-6.32-27.17-5.9-18.43.42-20.85,2.32-32.64,11.79,0,0-5.79,5.16-7.9,7.26-2.11,2.11-9.48,6.84-9.58,8.11-.11,1.26,15.37-5.69,15.37-5.69"/>
    <path class="st10" d="M102.36,94.59s5.48-3.9,8.63-4.74c3.16-.84,6.21-1.47,8.32-2.84,2.11-1.37,3.89-3.37,7.26-3.37s6,1.26,6.42,2.21c.42.95,1.37,3.05-.84,5.05-2.21,2-2.74,2.42-2.74,2.42,0,0,10-.95,9.69.74-.32,1.68-4.63,2.63-7.69,3.26-3.05.63-12,1.9-17.69,5.58-5.69,3.69-7.06,7.48-5.69,7.9,1.37.42,12.64-1.16,17.37-2.32,4.74-1.16,9.58-1.68,9.58-1.68,0,0-6.32,2.42-9.48,3.47-3.16,1.05-42.54,13.48-45.17,12.21-2.63-1.26,19.69-26.43,19.69-26.43l2.32-1.47Z"/>
    <path class="st7" d="M31.71,142.29s-2.95.84-2.63,0c.32-.84,15.48-14.21,45.7-31.06l-43.07,31.06Z"/>
    <path class="st1" d="M116.68,89.64s-3.58-.63-17.06,6.42c-13.48,7.05-49.7,30.32-52.12,32.11-2.42,1.79-16.85,13.58-16.43,14.11.42.53-.63.74,2.21.11,2.84-.63,51.59-22.22,58.12-24.95,6.53-2.74,13.9-5.58,14-6.53.1-.95-.95-1.58-.21-2.53.74-.95,2.42-4.21,6.21-5.9,3.79-1.68,24.11-6.84,23.27-7.16-.84-.32-8-.53-8-.53,0,0,4-2.32,3.58-5.79-.42-3.47-3.47-4.11-6.32-3.26-2.84.84-4.74,2.95-4.74,2.95l-2.53.95Z"/>
    <path class="st3" d="M128.05,96.38s-14.53,4-19.06,6.32c-4.53,2.32-17.06,7.9-27.06,13.06-10,5.16-50.86,26.53-50.86,26.53,0,0,28.79-17.07,33.42-19.6,4.63-2.53,43.03-20.31,44.92-21.15,1.89-.84,17.9-6.67,18.64-5.16"/>
    <path class="st3" d="M52.98,132.39s36.01-17.69,40.01-19.48c4-1.79,11.37-6.32,11.27-5.79-.1.53-17.69,9.69-30.85,16-13.16,6.32-20.43,9.27-20.43,9.27"/>
    <path class="st3" d="M63.51,120.49l24.11-13.79s2.11.21,6.32-1.16c4.21-1.37,6.63-3.48,6.63-3.48,0,0-.21,3.48-13.06,5.37,0,0-23.9,13.69-24.01,13.06"/>
    <path class="st7" d="M91.2,105.22s7.9-6.2,8.32-3.37c.08.56-8.32,3.37-8.32,3.37"/>
    <path class="st12" d="M114.89,95.32s3.26-5.9,6.53-8.32c3.26-2.42,6.84-2,8.42,0,1.58,2,1.37,5.79-3.68,7.79-5.05,2-12.53,4.21-12.42,3.16.1-1.05,1.16-2.63,1.16-2.63"/>
    <path class="st1" d="M115.84,95.53s.06-.12.17-.34c.82-1.64,4.61-8.69,8.89-9.24,4.84-.63,4.42,3.9,4.32,5.05s-.42,2-5.69,3.79c-5.26,1.79-8.84,2.42-7.69.74"/>
    <path class="st3" d="M120.16,93.64s-.84-5.58,3.05-6.84c3.9-1.26,5.16.74,5.69,3.05.53,2.32-.74,3.16-4.74,4.11-4,.95-4-.32-4-.32"/>
    <path class="st7" d="M122.26,93.43s-1.79-1.37-1.16-4.11c.63-2.74,4.53-2.42,5.58-1.26,1.05,1.16,2,3.16.74,4.42-1.26,1.26-4.53,1.58-5.16.95"/>
    <path class="st13" d="M123.21,93.01s-2.21-.74-1.47-3.68,4.63-2.21,5.58,0c.95,2.21-1.58,4-4.11,3.68"/>
    <path class="st2" d="M123.84,91.95s-1.9-.84-.95-2.53c.95-1.69,3.05-.32,3.16.63.11.95-.42,2-2.21,1.9"/>
  </g>
  <g class="st5">
    <path class="st11" d="M125.74,88.37h0l-.54.58c.47.29.82.73.86,1.1.01.13.02.27,0,.4.26-.02.47-.1.52-.3.21-.74-.84-1.79-.84-1.79"/>
    <path class="st8" d="M125.19,88.96l-1.03,1.1s1.07.41,1.79.41c.04,0,.07,0,.11,0,.01-.13.01-.27,0-.4-.04-.37-.39-.81-.86-1.1"/>
  </g>
  <g class="st6">
    <path class="st10" d="M222.61,140.92s4.63,1.26,8,1.16c3.37-.11,11.58,4.21,12.74,8.42s5.37,6.32,4.84,11.58-1.79,12.11-1.16,18.53c.63,6.42,6.85,18.95,9.79,22.74,2.95,3.79,1.9-.42,1.9-.42,0,0,7.37,15.06,9.9,17.9,2.53,2.84,12.32,30.22,14.11,36.43,1.79,6.21,1.68,8.11,1.68,8.11l-24.43.11s-2.42-16.95-2.11-21.17l.32-4.21s-1.37,1.68-1.47.84c-.11-.84-2.11-6.95-2.63-11.9l-.53-4.95s-1.48,1.58-2.21.53c-.74-1.05-1.9.11-5.05-8,0,0-.42,2.74-3.26,4.74-2.84,2-3.37,1.26-2-.84,1.37-2.11,1.68-3.47,1.68-3.47,0,0-3.47,3.9-3.69,3.26-.21-.63,1.26-2.53,2-4.11l.74-1.58s-3.9,2.21-4.74,3.79c-.84,1.58-2.32,1.89-2.11,1.05.21-.84.95-6.85,2.53-8.85l1.58-2s-5.16,4.11-4.63,2c.53-2.11,3.26-10.95,2.95-10.85-.32.1-3.26,4.11-3.37,3.05-.1-1.05,1.16-11.27,2.11-13.06l.95-1.79s-3.05,2.95-3.37,1.79c-.32-1.16,2.21-10.53,3.16-12.42.95-1.9-2.63,3.69-2.32,2.84.32-.84,1.26-5.37,2.42-6.74l1.16-1.37s-3.58,3.26-2.95,2.42c.63-.84,1.37-4.53,2.63-6.11l1.26-1.58s-1.89,2.1-1.89,1.37.21-2.21.21-2.21c0,0-1.16,3.37-1.37,3.05-.21-.32-.74-2.63-.74-2.63,0,0,.11,4.95-.42,4.21-.53-.74-1.47-5.16-1.47-5.16,0,0,2,7.27.74,6.53-1.26-.74-3.16-6-3.16-6,0,0,.11,3.16,1.37,4.74,1.26,1.58.95,1.9.95,1.9,0,0-3.16-.11-4.85-3.79-1.68-3.68-1.68-4.11-1.68-4.11,0,0-1.47,2.84-1.16,4.11.32,1.26,0,1.9-.74.74-.74-1.16-.53-4.95-.53-4.95,0,0-.32,5.26-.74,5.16-.42-.1-2.11-4.84-1.58-5.79.52-.95-.21.74-2.42,3.79-2.21,3.05-4.21,3.26-4.21,3.26,0,0,1.05-.42,1.9-2.42.84-2-2.32,1.79-2,.84.32-.95,2.32-2.42,3.37-5.79,1.05-3.37,0-9.9,1.37-13.58,1.37-3.68,2-4.21,2-4.21,0,0-3.26,2.32-4.11,4-.84,1.68-.32-2.74.74-5.05,1.05-2.32,2.74-3.68,4-3.9"/>
    <path class="st10" d="M250.3,172.72s-.95,7.26-.1,10.42c.84,3.16,1.26,3.58,1.58,3.26.32-.32.32-2.42.32-2.42,0,0,.11,1.69,2.53,7.06,2.42,5.37,7.48,9.69,7.58,9.06.11-.63.32-2.32.32-2.32,0,0,1.79,7.9,5.26,9.37,3.47,1.47,4,1.58,4,1.58,0,0-6.84-4.63-9.16-13.9,0,0-.63,4-1.68,2.53s-6.11-6.74-8.85-15.79c0,0-.21,2.74-.74,2.21-.53-.53-1.05-11.06-1.05-11.06"/>
    <path class="st10" d="M221.98,192.51s.63,2.63,1.68,1.68c1.05-.95,1.16-2.95,1.16-2.95,0,0,1.16.95,1.79-.32.63-1.26.74-3.9.74-3.9,0,0-2.21,4.32-2.53,3.26-.32-1.05-.95-2.11-.95-2.11,0,0,.53,6.42-1.9,4.32"/>
    <path class="st10" d="M201.76,177.24s-1.16-3.05,0-3.58c1.16-.53,3.68,2.32,3.58,4.95-.1,2.63-.42,13.27-1.26,21.37-.84,8.11,2.32,22.96,4.42,25.27,2.1,2.32,3.58-1.47,3.58-1.47,0,0,1.79,3.58.74,4.95-1.05,1.37-5.79,1.68-8.42-8.64-2.63-10.32-1.79-26.22-1.37-32.85.42-6.63-1.26-10-1.26-10"/>
    <path class="st10" d="M209.34,227.37s5.48,11.58,7.48,13.16c2,1.58,2.53.32,2.53.32,0,0,9.79,11.06,14.11,14.64,4.32,3.58,18.11,9.58,18.11,9.58,0,0-25.17-13.48-31.69-26.01,0,0-1.58,1.68-2.53.53-.95-1.16-6-12.21-6-12.21h-2Z"/>
    <path class="st10" d="M254.09,160.29s4.63,10.53,4.95,9.48c.32-1.05-.1-2.21-.1-2.21,0,0,2.1,4.74,5.37,8.11,3.26,3.37,7.26,7.26,7.26,7.26,0,0-10.42-10.85-12.95-18.43l-.32,1.79s-4.11-6.84-4.21-6"/>
    <path class="st10" d="M173.33,121.65s-1.37,1.58-4.95-.21c-3.58-1.79-14.43-3.16-17.69-1.26-3.26,1.9-7.9,8.63-6.74,8.42,1.16-.21,5.05-6.11,8.95-6.63,3.9-.53,9.69,5.37,13.9,6.53,4.21,1.16,8.11-5.58,6.53-6.84"/>
    <path class="st10" d="M135.42,135.02c-.42.42-2.53,6.11-2,6.53.53.42,1.37-4.63,2.21-5.48.84-.84-.21-1.05-.21-1.05"/>
    <path class="st10" d="M178.38,147.24s-2.21.84-1.9,1.05c.32.21,2.95-.32,2.95-.32,0,0-2.42,1.26-1.58,1.58.84.32,7.26-1.79,9.79-5.05,2.53-3.26,2.32-3.89,2.32-3.89,0,0-1.68,4.42-10.21,8.11,0,0,2.74-1.68,1.68-1.68s-3.05.21-3.05.21"/>
    <path class="st10" d="M146.27,93.43c-.31.07,4.63-.84,6.95-2.21,2.32-1.37,3.16-2.95,3.16-2.95,0,0-2.21,3.37-10.11,5.16"/>
    <path class="st10" d="M147.53,91.74s6.95-3.26,8.11-4.84c1.16-1.58.84-2.32.84-2.32l-2.21,2.42,1.16-3.58s-3.58,4.21-4.63,4.84l-1.05.63s2-1.05,4.42-3.37l-1.26,2.63.84-.42-6.21,4Z"/>
    <path class="st10" d="M132.05,83.22s.42.95,2.42.63c2-.32,3.05-.95,3.05-.95,0,0-3.05,2.11-2.42,2.32.63.21,2.84-.1,2.84-.1,0,0-2,.1-1.37-.53.63-.63,2.21-2.21,1.79-2.21s-5.37,1.26-6.32.84"/>
    <path class="st10" d="M128.58,105.01s0-1.16,3.26-.95c3.26.21,10.32-1.79,10.32-1.79,0,0-5.05,2.21-7.26,2.53-2.21.32-4.11.1-4.74.1s-1.58.11-1.58.11"/>
    <path class="st14" d="M171.96,107.54s2.74,3.05,3.16,4.63c.42,1.58.32,5.69-.1,6.74-.42,1.05-.32.42.1,2.11.42,1.68-.74,3.05,0,3.05s4.42-5.05,2.63-10.64c-1.79-5.58-5.79-5.9-5.79-5.9"/>
    <path class="st10" d="M190.28,97.32s5.9,5.69,6.11,4.95c.21-.74-.74-2.21-.74-2.21,0,0,.84,2.32-5.37-2.74"/>
    <path class="st10" d="M187.02,93.74s4.84,4.11,6,3.79c1.16-.32-.53-1.68-.53-1.68,0,0,1.47,2.63-5.48-2.11"/>
    <path class="st10" d="M174.8,146.81s-2,1.16-3.9,1.16-.74-.84-.74-.84c0,0-3.37-.11-7.06-.11s-6,1.79-6,1.79c0,0,.84-2.21,6.21-2.63,5.37-.42,8.53,0,8.53,0,0,0-1.48,1.26-.53,1.05.95-.21,3.47-.42,3.47-.42"/>
    <path class="st10" d="M162.8,169.77s4.21,3.26,7.37,3.68c3.16.42,9.06.84,11.9-.63,2.84-1.47,4.53-2.21,4.21-1.37-.32.84-5.37,6.84-9.16,7.26-3.79.42-6.11-1.47-8.42-3.05-2.32-1.58-7.37-6.21-5.9-5.9"/>
    <path class="st7" d="M105.96,103.57s-46.56,22.66-57.19,28.98c0,0,25.44-15.42,57.19-28.98"/>
  </g>
  <g>
    <path class="st9" d="M91.49,255.14h-1.78c-1.82-5.3-4.66-12.46-7.34-18.55h3c2.21,5.52,4.13,10.78,5.47,14.95,1.63-3.94,3.74-9.48,5.59-14.95h2.71c-2.18,5.95-5.04,12.87-7.66,18.55Z"/>
    <path class="st9" d="M119.28,245.58c0,5.26-4.44,9.55-9.89,9.55s-9.79-4.08-9.79-9.31,4.42-9.55,9.89-9.55,9.79,4.08,9.79,9.31ZM102.31,245.7c0,4.2,3.26,7.32,7.22,7.32s7.03-3.12,7.03-7.32-3.26-7.34-7.22-7.34-7.03,3.14-7.03,7.34Z"/>
    <path class="st9" d="M133.94,252.38l-.34,2.42h-10.78v-18.22h2.66c-.22,2.81-.26,11.64-.29,16.08,3.1-.02,6.55-.1,8.74-.29Z"/>
    <path class="st9" d="M139.66,249.04c-.7,1.9-1.39,3.82-2.04,5.76h-2.69c2.21-5.95,5.11-12.87,7.73-18.55h1.8c1.82,5.3,4.58,12.46,7.25,18.55h-2.95c-.79-1.94-1.49-3.86-2.18-5.76h-6.91ZM145.97,247.38c-1.03-2.83-1.97-5.45-2.66-7.73-.89,2.16-1.94,4.82-3.07,7.73h5.74Z"/>
    <path class="st9" d="M159.24,255.14h-1.78c-1.82-5.3-4.66-12.46-7.34-18.55h3c2.21,5.52,4.13,10.78,5.47,14.95,1.63-3.94,3.74-9.48,5.59-14.95h2.71c-2.18,5.95-5.04,12.87-7.66,18.55Z"/>
    <path class="st9" d="M171.29,254.8h-2.38v-18.22h2.67c-.12,1.56-.24,5.02-.29,8.64.94-.07,4.32-3.74,8.26-8.64h3.05c-4.46,5.14-6.86,7.75-8.16,8.52,1.73,1.25,4.68,4.63,8.83,9.7h-3.43c-3.02-4.06-7.27-9.12-8.5-9.12-.02,3.65-.05,7.3-.05,9.12Z"/>
    <path class="st9" d="M189.05,249.04c-.7,1.9-1.39,3.82-2.04,5.76h-2.69c2.21-5.95,5.11-12.87,7.73-18.55h1.8c1.82,5.3,4.58,12.46,7.25,18.55h-2.95c-.79-1.94-1.49-3.86-2.18-5.76h-6.91ZM195.36,247.38c-1.03-2.83-1.97-5.45-2.66-7.73-.89,2.16-1.94,4.82-3.07,7.73h5.74Z"/>
  </g>
</svg>