<?xml version="1.0" encoding="UTF-8"?>
<svg id="Vrstva_1" xmlns="http://www.w3.org/2000/svg" xmlns:xlink="http://www.w3.org/1999/xlink" version="1.1" viewBox="0 0 283.46 283.46">
  <!-- Generator: Adobe Illustrator 30.1.0, SVG Export Plug-In . SVG Version: 2.1.1 Build 136)  -->
  <defs>
    <style>
      .st0 {
        fill: none;
      }

      .st1 {
        fill: #325f61;
      }

      .st2 {
        fill: #4a6189;
      }

      .st3 {
        fill: #13253b;
      }

      .st4 {
        fill: #1f3549;
      }

      .st5 {
        fill: #5d73a1;
      }

      .st6 {
        fill: #c93647;
      }

      .st7 {
        fill: #4d7a7f;
      }

      .st8 {
        fill: #010102;
      }

      .st9 {
        fill: #fff;
      }

      .st10 {
        fill: #09131e;
      }

      .st11 {
        fill: #6b7eb0;
      }

      .st12 {
        fill: #bc212d;
      }

      .st13 {
        fill: #285054;
      }

      .st14 {
        fill: #8193bc;
      }

      .st15 {
        clip-path: url(#clippath);
      }
    </style>
    <clipPath id="clippath">
      <rect class="st0" x="19.84" y="19.84" width="243.78" height="243.78"/>
    </clipPath>
  </defs>
  <rect class="st7" x="19.84" y="19.84" width="243.78" height="243.78"/>
  <g class="st15">
    <path class="st12" d="M145.07,95.69s11.65-2.68,24.07,0,39.16,13.37,53.68,27.89c14.52,14.52,23.31,27.13,28.28,50.82,4.97,23.69,4.2,62.85-5.54,89.22l-84.06-.38-.76-22.93-30.18-69.73-21.01-36.68-7.26-17.77,20.82-13.18,21.97-7.26Z"/>
    <path class="st8" d="M181.98,260.47s2.16-5.03,3.29-9.65c1.13-4.62,4-9.34,6.06-8.52,2.05.82,1.13,7.6-.62,10.37-1.75,2.77-8.93,9.34-8.73,7.8"/>
    <path class="st8" d="M212.06,261.6s-2.05-8.93.1-8.73c2.16.2,1.13,7.39-.1,8.73"/>
    <path class="st8" d="M224.69,249.28s-1.34-15.2,1.34-14.99c2.67.21-1.34,14.99-1.34,14.99"/>
    <path class="st8" d="M237.63,251.74s-1.95-10.78.51-9.34c2.46,1.44-.51,9.34-.51,9.34"/>
    <path class="st8" d="M199.95,248.56s-1.23-12.73,1.23-15.81c2.46-3.08,4.31-2.98,5.34-.82,1.03,2.16-3.18,8.52-4.21,10.68-1.03,2.16-2.36,5.96-2.36,5.96"/>
    <path class="st8" d="M196.25,235.42s-1.44-8.32.62-11.91c2.05-3.59,3.39-9.03,5.03-8.83,1.64.21,2.16,6.06.62,8.73-1.54,2.67-4.72,6.26-5.24,7.49-.51,1.23-1.03,4.52-1.03,4.52"/>
    <path class="st8" d="M179,228.54s3.39-5.54,4.31-8.73c.92-3.18,2.77-4.01,3.08-4.01s.82,5.96-.51,8.11c-1.34,2.16-6.88,4.62-6.88,4.62"/>
    <path class="st8" d="M175,240.76s3.49-11.3,5.54-10.99c2.05.31,2.46,7.08-5.54,10.99"/>
    <path class="st8" d="M167.6,244.76s3.9-4.31,5.13-2.98c1.23,1.33-3.9,8.22-6.67,9.04-2.77.82,1.54-6.06,1.54-6.06"/>
    <path class="st8" d="M216.27,234.49s.31-17.76,2.98-17.46c2.67.31.31,13.45-2.98,17.46"/>
    <path class="st8" d="M238.04,229.15s-4.72-8.32-1.95-8.11c2.77.21,1.95,8.11,1.95,8.11"/>
    <path class="st8" d="M245.33,233.16s-1.95-5.13,0-4.31,0,4.31,0,4.31"/>
    <path class="st8" d="M246.05,214.78s-1.64-2.98-.21-2.98.21,2.98.21,2.98"/>
    <path class="st8" d="M241.12,205.74s-2.77-6.57-.72-6.37c2.05.2.72,6.37.72,6.37"/>
    <path class="st8" d="M226.34,213.44s1.54-11.81,3.29-10.88c1.75.92-3.29,10.88-3.29,10.88"/>
    <path class="st8" d="M211.76,218.68s-.31-17.15,2.26-16.64c2.57.51-2.26,16.64-2.26,16.64"/>
    <path class="st8" d="M190.6,214.26s6.47-19.61,8.01-18.59-1.33,13.14-8.01,18.59"/>
    <path class="st8" d="M179.51,217.96s6.98-6.78,6.98-11.4-6.98,11.4-6.98,11.4"/>
    <path class="st8" d="M218.43,197.01s-.82-13.35,1.03-12.32c1.85,1.03-1.03,12.32-1.03,12.32"/>
    <path class="st8" d="M232.29,187.67s-2.77-7.5-.82-6.88c1.95.62.82,6.88.82,6.88"/>
    <path class="st8" d="M241.53,187.98c-.31,0-2.98-3.49-1.44-3.49s1.44,3.49,1.44,3.49"/>
    <path class="st8" d="M223.36,170.21s-4.31-7.08-1.95-6.88c2.36.2,1.95,6.88,1.95,6.88"/>
    <path class="st8" d="M231.16,164.36s-3.39-1.95-1.54-2.36c1.85-.41,1.54,2.36,1.54,2.36"/>
    <path class="st8" d="M215.14,177.19s-8.32-9.75-5.96-10.68c2.36-.92,5.96,10.68,5.96,10.68"/>
    <path class="st8" d="M195.12,175.76s-6.06-12.53-3.8-13.14c2.26-.62,3.8,13.14,3.8,13.14"/>
    <path class="st8" d="M184.75,187.26s.51-11.71,3.18-10.17c2.67,1.54-3.18,10.17-3.18,10.17"/>
    <path class="st8" d="M170.58,167.23s-4.72-12.63-1.85-12.84c2.87-.2,1.85,12.84,1.85,12.84"/>
    <path class="st8" d="M195.12,157.48s-5.44-6.78-3.7-7.19c1.74-.41,3.7,7.19,3.7,7.19"/>
    <path class="st8" d="M208.57,155.43s-4.52-4.52-2.77-4.93c1.75-.41,2.77,4.93,2.77,4.93"/>
    <path class="st8" d="M215.66,150.29s-2.26-2.36-1.03-2.67c1.23-.31,1.03,2.67,1.03,2.67"/>
    <path class="st8" d="M195.22,138.89s-2.88-2.36-1.34-2.77c1.54-.41,1.34,2.77,1.34,2.77"/>
    <path class="st8" d="M191.73,144.03s-5.34-4.93-3.7-5.75c1.64-.82,3.7,5.75,3.7,5.75"/>
    <path class="st8" d="M174.28,155.01s-7.91-10.37-5.44-10.88c2.46-.51,5.44,10.88,5.44,10.88"/>
    <path class="st8" d="M174.79,141.36s-8.73-5.75-6.16-7.09c2.57-1.33,6.16,7.09,6.16,7.09"/>
    <path class="st8" d="M171.91,130.58s-5.96-3.08-4.11-4.01c1.85-.92,4.11,4.01,4.11,4.01"/>
    <path class="st8" d="M180.85,129.34s-3.7-2.05-2.57-2.77c1.13-.72,2.57,2.77,2.57,2.77"/>
    <path class="st8" d="M164.73,121.13s-5.13-1.34-3.49-2.26c1.65-.93,3.49,2.26,3.49,2.26"/>
    <path class="st8" d="M154.66,166.41s-5.65-9.96-2.36-10.06c3.29-.1,2.36,10.06,2.36,10.06"/>
    <path class="st8" d="M153.53,152.55c-.41-.1-8.73-10.47-6.57-11.5,2.16-1.03,6.57,11.5,6.57,11.5"/>
    <path class="st8" d="M153.02,144.64c-.31-.1-6.57-11.19-4.62-11.6,1.95-.41,4.62,11.6,4.62,11.6"/>
    <path class="st8" d="M153.84,132.32s-6.98-5.54-4.83-6.37c2.16-.82,4.83,6.37,4.83,6.37"/>
    <path class="st8" d="M152.61,121.85s-5.75-2.67-4.11-3.39c1.64-.72,4.11,3.39,4.11,3.39"/>
    <path class="st8" d="M151.99,116.1s-4.62-.62-2.77-1.95c1.85-1.33,2.77,1.95,2.77,1.95"/>
    <path class="st8" d="M136.8,112.81s-4.21-1.75-2.46-2.16c1.75-.41,2.46,2.16,2.46,2.16"/>
    <path class="st8" d="M137.62,117.12s-3.7-1.95-2.16-2.26c1.54-.31,2.16,2.26,2.16,2.26"/>
    <path class="st8" d="M135.67,124.11s-6.16-7.09-3.29-7.09,3.29,7.09,3.29,7.09"/>
    <path class="st8" d="M138.64,134.99s-7.6-8.93-5.85-9.96c1.75-1.03,5.85,9.96,5.85,9.96"/>
    <path class="st8" d="M137.52,147.62c-.31,0-8.32-16.33-5.24-15.51,3.08.82,5.24,15.51,5.24,15.51"/>
    <path class="st8" d="M141.42,159.84s-7.39-5.44-6.06-7.39c1.33-1.95,6.06,7.39,6.06,7.39"/>
    <path class="st8" d="M146.55,169.7s-.15-.08-.41-.21c-1.84-.96-9.18-4.95-8.01-6.57,1.33-1.85,8.42,6.78,8.42,6.78"/>
    <path class="st8" d="M126.73,117.43s-2.67-4.31.31-4.11c2.98.21-.31,4.11-.31,4.11"/>
    <path class="st8" d="M127.35,125.44s-3.49-8.01-1.54-7.19c1.95.82,1.54,7.19,1.54,7.19"/>
    <path class="st3" d="M120.26,147c0-.41-1.03-22.9,1.95-23.1,2.98-.21,1.85,14.07,1.85,14.07,0,0,2.36,0,3.18,2.46.82,2.46.41,4.62.41,4.62,0,0,2.26,2.26,2.88,4.93.62,2.67.21,3.18.21,3.18,0,0,3.49,5.24,3.49,7.09v1.85s2.77,2.46,3.29,4.52l.51,2.05s3.08-2.36,4.83,0c1.75,2.36.82,5.44.82,5.44l-18.38,7.29-5.03-34.4Z"/>
    <path class="st10" d="M5.22,262.9l56.13.27,44.22-66.54,33.78-21.19s-.93-2.36-1.23-3.49c-.31-1.13-2.98-6.16-3.8-7.19-.82-1.03-5.24,5.75-6.16,3.9-.92-1.85-1.03-4.41-1.03-4.41,0,0-1.03,1.44-1.54.51-.51-.92.62-10.37.62-10.37,0,0-.41,2.88-1.23,1.85-.82-1.03-1.13-9.45-1.13-9.45,0,0,.1,2.16-.82,1.13-.92-1.03-.92-2.46-.92-2.46,0,0-.72,6.26-1.23,5.13-.51-1.13-1.23-12.01-1.23-12.01,0,0-1.13.31-2.47-1.03-1.33-1.33-12.94-9.45-12.94-9.45l-13.14,21.67-17.56,24.03-11.3-34.4-42.61,2.16-14.41,121.34Z"/>
    <path class="st8" d="M103.42,155.12c-.31,0-23.31,15.3-23.31,15.3l-2.67,9.04,6.47,9.65,2.47,5.44,2.05,4,2.88-.41,21.46-8.93,16.12-9.34s.51-4.31-1.34-8.62c-1.85-4.31-2.16-5.03-2.16-5.03,0,0-1.33,1.85-1.75.92-.41-.92-1.03-8.83-1.03-8.83,0,0-.92-1.85-.2-4.21,0,0-4.72-5.03-4.72-6.47s-7.81,1.03-7.81,1.03l-4.72,8.42-1.75-1.95Z"/>
    <path class="st3" d="M83.09,206.25s-.51-4.31,18.89-13.76c19.41-9.45,39.74-18.89,43.95-21.05,4.21-2.15,10.99-3.8,15.81-3.9,4.83-.1,11.71,2.98,17.25,9.65,5.54,6.67,5.96,18.28,5.44,22.08-.51,3.8-6.78,27.21-11.09,37.48-4.31,10.27-11.85,26.48-11.85,26.48l-106.44-.19,16.12-40.77,11.91-16.02Z"/>
    <path class="st10" d="M94.49,263.65s2.98-3.39,4.42-8.73l1.44-5.34s2.77.82,4.62-.92,4-7.08,3.8-12.63c-.21-5.54-.72-6.78-.72-6.78,0,0,1.03.72,2.67-1.03l1.64-1.75s4.31,4.93,7.91,4.62c3.59-.31,5.75-11.81,5.75-11.81,0,0,1.33,5.14,3.39,3.29,2.05-1.85,2.36-6.88,2.36-6.88,0,0,5.34,1.64,7.19-1.85,1.85-3.49,1.44-9.04,1.44-9.04,0,0,4.52,4,5.96,3.49,1.44-.51.82-13.86.82-13.86,0,0,2.57,3.08,3.59.21,1.03-2.88.62-5.44.62-5.44,0,0,1.13,1.13,1.34-1.44.21-2.57-.21-4.42-.21-4.42,0,0,5.03,4.62,6.16,3.18,1.13-1.44.92-3.7.92-3.7,0,0,.21,1.85,1.23-.1,1.03-1.95-.31-4.83-.31-4.83,0,0,6.68,3.59,7.6,1.85.92-1.75.82-2.67.82-2.67,0,0,2.77.72,3.08-.93s.62-4.83.62-4.83c0,0,13.96,5.96,11.91,28.96-2.05,23-23.05,62.93-23.05,62.93l-67.01.42Z"/>
    <path class="st3" d="M114.41,241.78s2.36,4.52,5.03,3.08c2.67-1.44,4-7.29,4-7.29,0,0-1.03,10.78-4.11,10.58-3.08-.21-4.93-6.37-4.93-6.37"/>
    <path class="st3" d="M126.01,237.06s2.26,2.88,4.41,1.54c2.16-1.33,4.11-10.27,4.11-10.27,0,0-1.95,11.91-3.8,12.53-1.85.62-4.72-3.8-4.72-3.8"/>
    <path class="st3" d="M139.06,232.34s.72,1.74,2.36.92c1.64-.82,1.95-9.65,1.95-9.65,0,0,.31,11.91-1.23,11.91s-3.08-3.18-3.08-3.18"/>
    <path class="st3" d="M150.97,222.89s.72,3.9,2.57,2.98c1.85-.92,1.95-11.6,1.95-11.6,0,0-1.23,14.48-4.52,8.62"/>
    <path class="st3" d="M161.34,213.03s1.13,4.31,2.57,2.67c1.44-1.64,2.05-10.88,2.05-10.88,0,0,.82,13.86-2.26,13.04-3.08-.82-2.36-4.83-2.36-4.83"/>
    <path class="st3" d="M131.56,250.72s3.18,2.16,4.93.82c1.75-1.33,4.21-6.16,4.21-6.16,0,0-3.08,8.93-5.03,8.32-1.95-.62-4.11-2.98-4.11-2.98"/>
    <path class="st3" d="M150.76,250s1.85.92,3.49-.31c1.64-1.23,3.39-10.78,3.39-10.78,0,0-1.85,12.73-6.88,11.09"/>
    <path class="st3" d="M161.75,235.72s.62,2.98,2.46,2.57c1.85-.41,4.11-9.55,4.11-9.55,0,0-1.75,11.19-3.8,11.19s-2.77-4.21-2.77-4.21"/>
    <path class="st13" d="M85.25,201.74s-20.13,48.16-23.31,52.78c-3.18,4.62-6.26,6.06-6.06,1.34.21-4.72,7.29-37.38,7.29-37.38,0,0-20.85,30.7-30.29,31.63,0,0,1.75-6.57,4.42-12.53,2.67-5.96,8.52-22.49,8.52-22.49,0,0-35.73,32.45-42.82,36.04-7.09,3.59-9.34,4.72-8.83,3.7s22.8-37.07,22.8-37.07c0,0-31.63,20.85-34.09,18.48-2.46-2.36,5.54-24.44,20.95-32.45,0,0,19.1-21.36,21.56-22.49,2.46-1.13,3.8-1.64,3.8-1.64,0,0-9.14,4.62-9.55,2.88-.41-1.74,10.06-9.24,10.06-9.24l24.34-5.96,32.65,27.72-1.44,6.68Z"/>
    <path class="st3" d="M150.45,94.94s-10.58,2.36-15.81,5.96c-5.24,3.59-6.26,7.29-7.09,8.63-.82,1.33-1.85-.72-1.85-.72l-3.9,7.6s-4.82,11.29-5.54,10.99c-.72-.31,1.64-7.91,1.64-7.91,0,0-2.26,1.75-1.95.72.31-1.03,4.42-8.52,4.42-8.52,0,0-2.88,2.98-2.77,2.26.1-.72.31-2.05.31-2.05,0,0-.51,3.9-1.64,4.52s-2.05,3.18-3.18,4.52l-1.13,1.33s6.37-1.64,5.96-.1c-.41,1.54-2.36,9.96-3.08,10.16-.72.21-.92-.51-.92-.51,0,0,2.57,3.9,2.57,5.96s-4.01,8.32-4.21,6.37c-.2-1.95-.2-4.72-.2-4.72,0,0-1.54,3.7-1.95,2.88-.41-.82-.51-2.05-.51-2.05,0,0,2.36,3.7-.21,11.4-2.57,7.7-6.98,13.35-7.19,11.91-.2-1.44,1.23-5.96,1.23-5.96,0,0-16.94,14.68-17.56,13.45-.62-1.23-.72-2.05-.72-2.05l-3.7,3.7s4-.31,5.65.62c1.64.92-4.93,5.13-4.93,5.13,0,0,3.08-.1,2.57.92-.51,1.03-1.33,1.64-1.33,1.64,0,0,1.44,2.46,5.03,2.67,3.59.21,14.17-4.42,13.45-1.34-.72,3.08-11.19,11.19-11.19,11.19,0,0-5.44,11.19-6.47,12.22l-1.03,1.03,1.95-9.96s-16.22,22.59-16.74,21.26c-.51-1.34,6.37-23.82,6.37-23.82,0,0-9.34,19.82-9.96,18.18-.62-1.64.72-21.36.72-21.36,0,0-3.7,2.57-3.9,1.13-.21-1.44,6.26-17.25,6.26-17.25,0,0-23.62,23.1-23.21,20.44.41-2.67,4.72-10.48,4.72-10.48,0,0-1.75,2.26-2.16,1.13-.41-1.13,3.8-16.74,3.8-16.74,0,0-38.92,9.65-38.51,7.91.41-1.75,32.14-23.1,37.99-25.06,5.85-1.95,6.16-1.74,6.16-1.74l.1-1.75s-8.42-2.77-18.79-3.9c-10.37-1.13-26.9,1.85-26.9,1.85,0,0,26.7,1.23,30.5,3.29,3.8,2.05-25.98,5.75-27.83,6.88-1.85,1.13-8.62-16.43-8.62-16.43,0,0,17.66-7.08,28.85-8.32,11.19-1.23,9.96-.72,11.5-2.36,1.54-1.64,4.31-6.06,5.03-7.49.72-1.44,2.77-11.6,7.29-19.72,4.52-8.11,16.94-28.03,30.81-29.78,13.86-1.74,22.08.93,27.83,2.36,5.75,1.44,12.32,4.42,14.68,4.72,2.36.31,19.3,15.2,19.3,15.2"/>
    <path class="st10" d="M75.29,253.08s5.03,3.9,8.11,2.88,5.44-9.55,5.44-9.55c0,0,5.85,2.88,8.21.72,2.36-2.16,1.85-15.61,1.85-15.61,0,0,.41,20.64-10.68,13.14,0,0-3.18,9.45-5.54,9.45s-7.39-1.03-7.39-1.03"/>
    <path class="st10" d="M102.29,223.81s4.31,3.28,6.98,1.54c2.67-1.75,2.98-9.34,2.98-9.34,0,0,.2,11.19-9.96,7.8"/>
    <path class="st10" d="M123.34,202.87s1.54,1.95,3.29,1.44c1.75-.51,1.23-4.42,1.23-4.42,0,0-.62,5.24-4.52,2.98"/>
    <path class="st10" d="M130.94,197.22s1.03,2.26,3.29-.41c2.26-2.67,2.46-7.08,2.46-7.08,0,0-1.95,8.62-5.75,7.5"/>
    <path class="st10" d="M141.83,188.28s3.7.82,4.31-.82c.62-1.64.41-2.77.41-2.77,0,0,.1,4.01-4.72,3.59"/>
    <path class="st3" d="M61.22,201.74s-19.31,35.43-21.77,38.2c-2.46,2.77-4.93,5.03-4.93,5.03,0,0-2.67,5.55-1.64,5.55s8.47-3.67,9.35-6.26c.6-1.8-1.13-2.77.31-6.16,1.44-3.39,20.23-37.07,18.69-36.35"/>
    <path class="st3" d="M38.42,204S7.31,242.09,4.85,243.32c-2.46,1.23-5.13,2.36-5.13,2.36,0,0-6.67,9.65-5.65,9.75,1.03.1,12.22-5.75,14.17-7.6,1.95-1.85-.51-4.31.2-5.96.72-1.64,31.01-39.12,29.98-37.89"/>
    <path class="st3" d="M3.72,205.02c0,.31-11.19,15.1-9.86,15.81,1.33.72,15.09-7.7,15.09-7.7,0,0-5.75,2.36-6.26,1.85-.51-.51,18.17-21.26,23.62-25.67,5.44-4.41,6.26-5.24,6.26-5.24,0,0-14.89,11.09-23.41,21.36-8.52,10.27-9.86,9.96-9.86,9.96l4.41-10.37Z"/>
    <path class="st3" d="M15.01,209.13s11.71-10.88,16.84-13.76c5.13-2.88,11.19-9.24,12.22-10.68,1.03-1.44-4.52,7.6-9.24,11.81-4.72,4.21-17.87,21.25-17.87,21.25l-7.8,5.03s5.03-7.91,5.85-13.66"/>
    <path class="st13" d="M60.71,157.38s-8.93,15.71-6.78,14.79c2.16-.92,14.68-11.29,14.68-11.29,0,0-12.32,9.14-12.73,8.83s4.83-12.32,4.83-12.32"/>
    <path class="st13" d="M72.21,140.33s-6.47,9.14-4.11,9.14,18.69-8.42,18.69-8.42c0,0-6.98,26.39-4.52,25.47,2.46-.92,11.09-14.89,11.09-14.89,0,0,0,1.95,1.13,1.95s7.39-4.93,7.39-4.93c0,0-8.01,5.75-8.01,1.64,0,0-11.19,15.2-11.09,14.38.1-.82,5.34-25.16,5.34-25.16,0,0-18.79,9.45-18.48,8.42.31-1.03,2.57-7.6,2.57-7.6"/>
    <path class="st13" d="M40.07,136.22s-4.31,1.23-2.16,1.95c2.16.72,12.94-.82,12.94-.82,0,0-.51,1.54,1.13,2.05,1.64.51,14.99-2.26,14.99-2.26,0,0-15.3,2.88-15.81-.62,0,0-14.89,2.67-11.09-.31"/>
    <path class="st3" d="M41.09,155.73c.45,1.36-24.13,17.46-25.67,15.3-1.54-2.16,14.27-14.79,14.27-14.79,0,0,10.99-1.74,11.4-.51"/>
    <path class="st8" d="M45.51,130.88s4.21-2.46,5.24-4.11c1.03-1.64,1.33-4.42,1.33-4.42,0,0-1.64,7.7-.82,7.6.82-.1,3.08-4.93,3.08-4.93,0,0-2.67,5.34-1.54,5.34s8.01-10.27,8.01-10.27c0,0-2.36,7.29-1.75,9.04.62,1.75,2.05,2.36,2.05,2.36,0,0-.1-1.85.51-2.67l.62-.82s-.92,2.77,0,2.88c.92.1,1.95-2.77,3.49-3.9,1.54-1.13,4-6.06,4.31-7.39.31-1.34-.92-1.44-.92-1.44l3.18-2.57s-.93,6.78-2.67,9.24c-1.75,2.47-2.77,5.03-1.13,6.68,1.64,1.64,3.08,1.95,3.08,1.95,0,0-2.26-.31-3.49-.92-1.23-.62-7.39-.72-9.75-.21-2.36.51-4,.41-4,.41,0,0,3.49-2.67,3.59-3.9.1-1.23-4.72,3.39-6.06,3.8-1.34.41.1-1.64-1.03-1.75-1.13-.1-5.34,0-5.34,0"/>
    <path class="st8" d="M69.74,127.8s.41,4.31,1.85,3.7c1.44-.62,4.11-7.19,4.52-9.04.41-1.85-.1-4.31-.1-4.31,0,0,2.36-2.46,3.08-3.39l.72-.92-.92,5.03s-2.88,6.98-1.95,7.09c.92.1,2.26-.82,2.26-.82,0,0-3.9,5.75-2.57,6.47,1.34.72,6.47-3.49,6.47-3.49,0,0,.21,3.29,2.05,4.11,1.85.82,8.22-2.16,8.22-2.16,0,0-2.05,3.08-1.03,3.8,1.03.72,6.06-.72,6.06-.72,0,0-.1.41,2.46.51,2.57.1,5.75-1.54,5.75-1.54,0,0-1.44,6.16-.31,7.19,1.13,1.03,2.16,1.23,2.16,1.23,0,0-2.36,1.33-4.62,3.08l-2.26,1.75s1.23-3.08-.62-4.31c-1.85-1.23-6.26.51-6.26.51,0,0-1.44-3.49-3.08-3.49h-1.64s-.82-2.46-3.7-2.67c-2.88-.2-4.62,1.03-4.62,1.03,0,0-.51-1.64-3.08-1.64h-3.59s-.72-1.74-2.05-1.54c-1.34.21-4.21-1.54-3.18-5.44"/>
    <path class="st10" d="M58.14,113.53s-2.57,7.6-1.03,7.19c1.54-.41,4.01-4.42,4.01-4.42,0,0-3.39,6.88-4.31,5.65-.92-1.23,0-7.19,1.33-8.42"/>
    <path class="st10" d="M66.25,106.65s-3.9,10.16-1.95,9.14c1.95-1.03,3.7-5.03,3.7-5.03,0,0-3.49,4.93-3.39,4.11.1-.82,1.64-8.21,1.64-8.21"/>
    <path class="st10" d="M75.08,110.86s-2.26,6.16-.82,6.16,2.16-1.23,2.16-1.23c0,0-3.49,2.36-1.33-4.93"/>
    <path class="st10" d="M80.53,121.74l4-3.8s-1.44,5.96-.62,6.16l.82.21s-.72-3.39,1.03-7.91c0,0-5.03,4.31-5.24,5.34"/>
    <path class="st10" d="M91.1,120.51s.62.72,1.54.41c.92-.31,4.11-4.31,4.11-4.31,0,0-.41,9.55.51,9.55s1.13-.92,1.13-.92c0,0-.92,2.26-1.85,1.74-.92-.51-.92-7.91-.92-7.91,0,0-3.9,4.52-4.52,1.44"/>
    <path class="st12" d="M114.41,112.09s-7.5,6.16-8.32,6.88c-.82.72,1.64.41,1.75,1.54.1,1.13-.62,5.44-.1,4.93.51-.51,1.54-3.8,2.46-5.13.92-1.33,4.21-8.21,4.21-8.21"/>
    <path class="st10" d="M100.55,94.02s4.52-2.46,4.93-4.41c.41-1.95,1.13-7.5,2.57-8.83,1.44-1.34,3.18-1.64,3.18-1.64,0,0-3.49-1.03-1.85-1.23,1.64-.21,4.93-.31,7.8.92,2.88,1.23,5.55,4.93,6.47,5.13.93.21.1,3.18-.72,4.11-.82.92,2.46,4.62.31,7.19-2.16,2.57-4.62,4.31-8.93,4.62-4.31.31-9.55.62-9.34-.41.21-1.03,1.33-1.64,1.33-1.64,0,0-4.31,1.13-3.59.1.72-1.03,1.23-1.23,1.23-1.23,0,0-4.93,0-3.18-.82l1.74-.82s-4.31,0-1.95-1.03"/>
    <path class="st10" d="M119.96,79.03s3.08,3.59,4.52,4.01c1.44.41,1.03,1.44.82,3.08-.21,1.64,1.34,4.11,1.34,5.03s-.51,1.95-.51,1.95c0,0,1.44-.51,1.44-2.26s-.82-4.93-.51-6.57c.31-1.64-2.16-2.88-3.18-3.18s-3.8-2.88-3.9-2.05"/>
    <path class="st3" d="M119.85,88.89s-.1,5.03-3.8,5.65c-3.7.62-7.29-3.18-7.6-6.37-.31-3.18.92-6.57,5.03-6.88,4.11-.31,6.47,6.16,6.37,7.6"/>
    <path class="st4" d="M109.17,86.93s1.33-1.23,2.36-2.05c1.03-.82,3.8-1.33,5.13-.21,1.33,1.13,1.95,3.29,2.16,2.77.2-.51-1.13-4.72-4.52-5.03-3.39-.31-4.62,2.16-5.13,4.52"/>
    <path class="st4" d="M109.59,88.78s.31-.31.82.41c.51.72.93,2.77,3.39,3.18,2.46.41,3.49-.82,3.9-1.95.41-1.13.61-2.16,1.03-1.64s-.1,4.41-2.98,4.83c-2.88.41-5.96-1.54-6.16-4.83"/>
    <path class="st8" d="M110.92,88.37s.1-2.88,2.46-3.18c2.36-.31,3.59,1.23,3.8,3.08.21,1.85,0,3.39-2.16,3.6-2.16.2-3.8-1.23-4.11-3.49"/>
    <path class="st10" d="M112.05,90.02s-.62-3.8,1.44-4.11c2.06-.31,3.18,1.85,3.39,3.39.21,1.54-4.21,1.34-4.83.72"/>
    <path class="st2" d="M114.1,88.68s-1.75-1.64-.62-1.85c1.13-.21.62,1.85.62,1.85"/>
    <path class="st8" d="M121.19,90.02s.62,3.29-.82,4.62c-1.44,1.33-3.49,1.54-3.49,1.54,0,0,2.88.62,4.31-.82,1.44-1.44,0-5.34,0-5.34"/>
    <path class="st8" d="M106.81,91.35s.41,2.36,3.59,3.59c3.18,1.23,4.83,1.23,4.83,1.23l-.41.93s-3.7.1-5.75-.82c-2.05-.92-3.7-4.52-2.26-4.93"/>
    <path class="st10" d="M77.03,96.59s-3.18,5.96-2.26,5.54l1.85-.82s-1.44,1.33-.31,1.33,4.72-3.7,4.72-3.7c0,0-2.05,4.41-.72,4.41s3.08-1.44,3.08-1.44c0,0-3.08,1.13-2.67.31.41-.82,1.44-5.03,1.44-5.03,0,0-5.96,5.03-4.72,4.11,1.23-.92-.62-.92-.62-.92,0,0-1.85,2.16.21-3.8"/>
    <path class="st11" d="M129.2,79.23s-.51,2.67.21,3.9l.72,1.23s-1.85,4.42-1.74,6.68c.1,2.26,1.54,4.72,2.98,4.83,1.44.1,4.52-3.39,7.5-2.67,2.98.72.92,3.59,2.46,4.01,1.54.41,8.93-4.42,8.93-4.42l34.4-19.92s10.78-6.88,15.4-7.6c4.62-.72,9.24-2.77,12.12-1.95,2.88.82,5.13.62,5.96,2.98.82,2.36.31,6.57,1.33,6.26,1.03-.31,2.16-5.85.82-10.88-1.34-5.03-9.04-10.99-16.94-11.19-7.91-.21-16.74,8.63-20.23,10.58-3.49,1.95-21.46,12.73-29.78,14.68-8.32,1.95-18.48,3.6-20.13,3.6s-4-.1-4-.1"/>
    <path class="st2" d="M151.17,94.74s13.35-8.21,18.59-10.99c5.24-2.77,23.93-14.17,26.18-15.5,2.26-1.33,5.75-2.57,7.39-2.57s3.59-1.54,6.16-1.54,6.68,1.23,7.91,2.16,1.13,2.46,1.13,2.46c0,0,1.54-3.9-2.98-5.24-4.52-1.34-8.21-.31-10.88.21-2.67.51-5.03-.21-5.96-.21s-16.84,10.47-22.9,13.14c-6.06,2.67-19.31,10.17-24.44,11.4-5.13,1.23-15.61,5.14-14.07,5.14s2.67.2,2.98,1.33c.31,1.13.1,2.88,1.64,2.98,1.54.1,9.24-2.77,9.24-2.77"/>
    <path class="st5" d="M131.46,80.88s0,1.95,1.95,2.26c1.95.31,14.17-3.18,19.51-5.24,5.34-2.05,28.03-13.35,33.89-17.46,5.85-4.11,10.58-5.44,13.76-5.44s6.16,1.13,6.06,2.05c-.1.92-5.34,2.26-5.34,2.26,0,0,2.26-2.46-.21-2.77-2.46-.31-5.54.41-15.81,6.16-10.27,5.75-25.36,14.48-31.73,16.74s-23.82,8.73-22.08,1.44"/>
    <path class="st5" d="M139.77,90.12s17.15-6.78,33.58-14.99c16.43-8.21,25.57-14.38,26.08-15.2.51-.82-4.62,1.44-10.47,4.72-5.85,3.29-41.79,19.92-46.11,21.67-4.31,1.75-7.29,1.34-6.47,2.46.82,1.13,3.39,1.34,3.39,1.34"/>
    <path class="st5" d="M208.88,58.29c.31,0,6.57,1.23,8.42,3.29,1.85,2.05,2.16,2.98,2.16,2.26s-5.13-7.7-8.32-9.34c-3.18-1.64-7.09-1.95-7.09-1.95,0,0,2.77,1.85,3.9,3.29,1.13,1.44.93,2.46.93,2.46"/>
    <path class="st14" d="M129.2,79.23s.62-.72,2.46-.82c1.85-.1,16.33-1.23,27.52-6.06,11.19-4.83,25.36-13.45,28.44-15.71,3.08-2.26,18.07-14.07,29.98-.51,0,0,5.24,5.13,2.57,15.1,0,0,.92-8.73-2.77-13.25-3.7-4.52-9.55-7.09-14.68-6.78-5.13.31-11.19,5.03-16.33,8.52-5.13,3.49-28.34,16.33-37.38,18.17-9.04,1.85-15.61,2.57-16.74,2.57s-3.39-.82-3.08-1.23"/>
    <path class="st6" d="M147.07,102.85s2.05-4.93,11.91-4.93,53.81,13.14,72.29,39.02c18.48,25.88,16.84,37.38,14.79,35.73-2.05-1.64-11.91-26.7-29.99-39.84-18.07-13.14-41.07-22.18-50.11-22.59-9.04-.41-20.13-4.93-18.89-7.39"/>
    <path class="st3" d="M57.09,247.85s-2.76,11.08-.25,11.13c4.18.08,6.44-6.61,7.28-8.28.84-1.67-2.01-.92-2.09-2.26-.08-1.34,6.61-30.21,6.11-28.12s-7.78,27.45-8.45,27.62c-.67.17-2.6-.08-2.6-.08"/>
    <path class="st1" d="M82.36,204.58s-17.16,42.01-18.16,43.19c-1,1.17-1.67.42-1.67.42l7.03-27.2,12.81-16.4Z"/>
    <path class="st1" d="M42.61,240.9s3.35-7.28,6.11-11.97c2.76-4.69,14.56-26.7,14.56-26.7,0,0-.84,13.81-1.67,15.48-.84,1.67-18.58,25.44-18.75,24.86-.17-.59-.25-1.67-.25-1.67"/>
    <path class="st1" d="M9.63,242.99s3.6-5.61,6.28-9.29c2.68-3.68,29.71-35.82,30.63-36.49.92-.67,3.26-1.51,3.26-1.51,0,0-3.01,17.24-5.69,19.5-2.68,2.26-34.31,30.38-34.31,30.38l-.17-2.6Z"/>
    <path class="st1" d="M5.62,212.19s28.62-28.04,29.12-28.29c.5-.25,12.47-6.19,11.8-4.94-.67,1.25-25.36,22.68-31.55,27.78-6.19,5.11-9.37,5.44-9.37,5.44"/>
    <path class="st3" d="M109.33,114.76s-1.23,3.39-.31,3.39,4-4,4-4c0,0-7.55,8.32-6.31,8.32s3.85.62,3.85.62l6.62-11.09-1.54-2.46-6.32,5.24Z"/>
    <path class="st3" d="M118.72,115.99s-3.7,8.47-4.78,7.55c-1.08-.92,4.78-7.55,4.78-7.55"/>
    <path class="st3" d="M113.95,114.76c0,.46-.46,5.54.62,5.08,1.08-.46.46-5.85.46-5.85l-1.08.77Z"/>
    <path class="st3" d="M119.8,115.22c-1.08.77-5.54,2.77-3.85,2.93,1.69.15,3.85-2.93,3.85-2.93"/>
    <path class="st3" d="M112.1,119.07s-1.54,6.62.46,5.39c2-1.23.46-5.7.46-5.7l-.92.31Z"/>
    <path class="st10" d="M132.26,100.54s-4.56,6.85-5.89,6.27l-1.33-.57s-3.99,10.84-5.32,11.6c-1.33.76,4.75-13.88,4.75-13.88,0,0,1.52,1.52,3.04.38,1.52-1.14,4.75-3.8,4.75-3.8"/>
    <path class="st10" d="M102.02,129.82s1.33.95,3.99-.76c2.66-1.71,3.23-2.28,3.23-2.28,0,0-2.47,12.55-.38,11.79,2.09-.76,7.03-12.74,7.03-12.74,0,0-5.32,9.32-5.51,7.23-.19-2.09.57-7.42.57-7.42l-8.94,4.18Z"/>
    <path class="st10" d="M111.15,113.85s-2.85,3.23-1.33,3.23,3.42-1.71,3.42-1.71c0,0-2.85,5.14-2.28,5.14s6.23-8.52,6.23-8.52c0,0-7.56,4.52-6.42,3.76,1.14-.76.38-1.9.38-1.9"/>
    <path class="st10" d="M99.74,118.22s-3.04,4.75-.95,4.56c2.09-.19,7.03-7.42,7.03-7.42,0,0-6.46,6.85-6.08,2.85"/>
    <path class="st10" d="M105.25,121.27s1.14,1.71,2.66,1.14c1.52-.57,3.23-4.18,3.23-4.18,0,0-4.18,5.13-5.89,3.04"/>
    <path class="st10" d="M112.86,123.55c-.28.93,5.32-4.75,5.32-4.75,0,0-4.75,2.85-5.32,4.75"/>
    <path class="st10" d="M106.4,79.03s-.41,6.16-3.7,8.21c-3.29,2.05-6.57,10.68-8.22,9.04-1.64-1.64,2.06-8.21,2.06-8.21,0,0,2.05,2.47,4.52-2.05,2.47-4.52,5.34-6.98,5.34-6.98"/>
    <path class="st10" d="M75.6,88.06s-2.88,6.16,2.46,5.34c0,0-2.46.82-2.46-5.34"/>
    <path class="st10" d="M82.17,105.73s-2.05,6.57,2.05,6.16c4.11-.41,2.88-.82,2.88-.82,0,0-6.16,2.05-4.93-5.34"/>
    <path class="st10" d="M65.33,95.87s-3.7,8.62-1.23,8.62h2.46s-3.29.41-1.23-8.62"/>
    <path class="st10" d="M90.38,98.74s-.41,6.98,2.05,6.98h2.46s-2.88.82-4.52-6.98"/>
    <path class="st10" d="M79.7,83.96s-.82,6.16.41,5.34l1.23-.82s-1.23,1.64-1.64-4.52"/>
    <path class="st10" d="M118.31,101.62s-11.09,6.98-11.5,5.75c-.41-1.23.82-4.11.82-4.11,0,0,0,4.93,10.68-1.64"/>
  </g>
  <g>
    <path class="st9" d="M84.35,244.82c3.02,0,5.57-.05,6.62-.17v2.06c-1.06-.1-3.58-.14-6.65-.14-.05,2.74-.05,5.86-.05,8.23h-2.38v-18.22h10.03v2.35c-1.22-.19-4.27-.26-7.44-.29-.07,1.34-.1,3.67-.14,6.17Z"/>
    <path class="st9" d="M108.21,254.8h-3.19c-2.33-3.55-6.19-7.99-6.67-8.04-.46-.02-.96-.07-1.46-.14-.02,2.45-.05,6.43-.05,8.18h-2.38v-18.22h4.44c4.51,0,6.74,2.18,6.74,5.09,0,2.45-1.73,4.15-4.85,4.63,1.58,1.1,4.25,4.2,7.42,8.5ZM96.9,244.91c.58.07,1.1.1,1.61.1,3.14,0,4.49-1.27,4.49-3.17s-1.34-3.26-4.42-3.26h-1.54c-.07,1.37-.1,3.7-.14,6.34Z"/>
    <path class="st9" d="M113.03,244.74c2.95,0,5.3-.05,6.6-.17v1.92c-1.3-.1-3.67-.14-6.62-.14-.02,2.35-.05,4.83-.05,6.38,3.1-.02,6.55-.1,8.59-.29l-.36,2.35h-10.61v-18.22h10.03v2.35c-1.3-.19-4.39-.26-7.44-.29-.07,1.32-.1,3.67-.14,6.1Z"/>
    <path class="st9" d="M135.44,246.42h2.54c-.14,1.49-.29,4.66-.29,7.03-1.1,1.03-2.86,1.7-5.11,1.7-6.29,0-9.55-4.32-9.55-9s3.62-9.94,10.42-9.94c1.75,0,3.14.22,4.06.43v2.78c-1.15-.6-2.76-.91-4.44-.91-4.73,0-7.37,3.6-7.37,7.54s2.42,6.84,7.2,6.84c.94,0,1.75-.12,2.54-.34v-6.14Z"/>
    <path class="st9" d="M144.32,249.04c-.7,1.9-1.39,3.82-2.04,5.76h-2.69c2.21-5.95,5.11-12.87,7.73-18.55h1.8c1.82,5.3,4.58,12.46,7.25,18.55h-2.95c-.79-1.94-1.49-3.86-2.18-5.76h-6.91ZM150.64,247.38c-1.03-2.83-1.97-5.45-2.66-7.73-.89,2.16-1.94,4.82-3.07,7.73h5.74Z"/>
    <path class="st9" d="M163.09,254.8h-2.4v-16.15c-2.28.02-4.97.1-6.43.29v-2.35h15.36v2.35c-1.44-.19-4.2-.26-6.34-.29-.17,4.42-.19,13.01-.19,16.15Z"/>
    <path class="st9" d="M174.25,254.8h-2.38v-18.22h2.66c-.12,1.56-.24,5.02-.29,8.64.94-.07,4.32-3.74,8.26-8.64h3.05c-4.46,5.14-6.86,7.75-8.16,8.52,1.73,1.25,4.68,4.63,8.83,9.7h-3.43c-3.02-4.06-7.27-9.12-8.5-9.12-.02,3.65-.05,7.3-.05,9.12Z"/>
    <path class="st9" d="M192.01,249.04c-.7,1.9-1.39,3.82-2.04,5.76h-2.69c2.21-5.95,5.11-12.87,7.73-18.55h1.8c1.82,5.3,4.58,12.46,7.25,18.55h-2.95c-.79-1.94-1.49-3.86-2.18-5.76h-6.91ZM198.32,247.38c-1.03-2.83-1.97-5.45-2.66-7.73-.89,2.16-1.94,4.82-3.07,7.73h5.74Z"/>
  </g>
</svg>