<?xml version="1.0" encoding="UTF-8"?>
<svg id="Vrstva_1" xmlns="http://www.w3.org/2000/svg" xmlns:xlink="http://www.w3.org/1999/xlink" version="1.1" viewBox="0 0 283.46 283.46">
  <!-- Generator: Adobe Illustrator 30.1.0, SVG Export Plug-In . SVG Version: 2.1.1 Build 136)  -->
  <defs>
    <style>
      .st0 {
        fill: none;
      }

      .st1 {
        fill: #3f3b25;
      }

      .st2 {
        fill: #2c2916;
      }

      .st3 {
        fill: #bfd6d8;
      }

      .st4 {
        fill: #9abcc1;
      }

      .st5 {
        fill: #1289a5;
      }

      .st6 {
        fill: #87acaf;
      }

      .st7 {
        fill: #0f7c8e;
      }

      .st8 {
        clip-path: url(#clippath-1);
      }

      .st9 {
        clip-path: url(#clippath-2);
      }

      .st10 {
        fill: #9b9270;
      }

      .st11 {
        fill: #a69586;
      }

      .st12 {
        fill: #fff;
      }

      .st13 {
        fill: #cec162;
      }

      .st14 {
        fill: #7c7761;
      }

      .st15 {
        fill: #e0d799;
      }

      .st16 {
        fill: #119dc4;
      }

      .st17 {
        fill: #709799;
      }

      .st18 {
        fill: #0a666b;
      }

      .st19 {
        fill: #5e5944;
      }

      .st20 {
        fill: #edf4f4;
      }

      .st21 {
        clip-path: url(#clippath);
      }

      .st22 {
        fill: #d0e2e2;
      }
    </style>
    <clipPath id="clippath">
      <rect class="st0" x="19.84" y="19.84" width="243.78" height="243.78"/>
    </clipPath>
    <clipPath id="clippath-1">
      <rect class="st0" x="136.23" y="46.77" width="2.23" height="1.75"/>
    </clipPath>
    <clipPath id="clippath-2">
      <rect class="st0" x="19.84" y="19.84" width="243.78" height="243.78"/>
    </clipPath>
  </defs>
  <g class="st21">
    <path class="st1" d="M100.29,103.8s-48.07-14.51-46.85-15.21c1.22-.7,23.42,4.53,23.42,4.53,0,0-16.1-5.92-14.01-6.1,2.09-.18,33.82,11.74,33.82,11.74l3.63,5.04Z"/>
    <path class="st19" d="M104.65,101.3s-11.84-4.18-12.19-3.14c-.35,1.05,14.09,11.7,17.23,11.42,3.14-.27-5.04-8.29-5.04-8.29"/>
    <rect class="st11" x="16.4" y="16.83" width="251.46" height="251.46"/>
    <path class="st4" d="M63.82,275.87s-6.46-16.14-5.17-22.17c1.29-6.02,22.39-21.37,33.8-26.94,11.41-5.56,30.81-6.83,53.12-8.15,22.31-1.32,64.23,10.6,70.69,18.54,6.46,7.94,13.57,19.23,12.92,27.47-.65,8.25-10.98,15.35-10.98,15.35l-154.37-4.11Z"/>
    <path class="st17" d="M87.98,243.05s26.82,14.7,30.1,16.63c3.28,1.92,16.7,12.46,16.7,12.46l84.46-1.11s-11.47-4.99-12.11-8.32c-.64-3.33-4.23-16.21-4.23-16.21l-28.54,5.24-27.08-3.08s18.96,10.76,11.49,11.02c-7.46.26-5.66.01-10.58-2.08-4.93-2.09-6.06-9.95-6.06-9.95,0,0-52.88-9-54.16-4.59"/>
    <path class="st14" d="M125.58,103.6s-21.8-4.56-23.37-2.99c-1.57,1.57,5.05,7.9,9.4,10.13,4.35,2.23,65.67,13.38,65.67,13.38,0,0,7.13-17.03,7.66-23.84.52-6.81-3.31-7.16-3.31-7.16,0,0-1.92-9.4-3.48-9.06l-1.57.35s1.35-13.59-2.11-13.76c-3.46-.17-12.17,12.37-12.17,12.37l-36.72,20.58Z"/>
    <polygon class="st11" points="110.41 112.8 127.29 103.8 121.54 98 90.19 96.95 96.46 109.04 110.41 112.8"/>
    <path class="st2" d="M177.4,161.39s.06,3.66,12.77,9.06c12.72,5.4,17.59,6.44,19.16,5.92,1.57-.52,18.46,12.88,27.69,11.93,9.23-.95-4.01-19.42-4.01-19.42l-48.25-39.36-8.73-1.92-1.37,14.28-.7,12.19,3.43,7.31Z"/>
    <path class="st2" d="M109.87,172.19s-5.75,4.18-9.75,6.1c-4.01,1.92-5.23,2.26-5.23,2.26,0,0,.17,4.35-6.1,8.71-6.27,4.35-38.67,18.81-46.15,17.07-7.49-1.74-2.44-11.67-2.44-11.67l39.01-43.02,19.16-18.46,13.24,20.55-1.74,18.46Z"/>
    <path class="st16" d="M112.31,207.55s.52,4,1.22,5.4c.7,1.39,2.44,9.75,1.92,12.37-.52,2.61-1.03,4.53.1,6.44,0,0,.08.52-4.28,1.57-4.35,1.04-23.34,2.26-25.08,10.1l3.31-.7,25.25,6.79s.87,4.18,3.31,4.18,3.31-2.26,3.31-2.26l14.81-2.26s4.14,1.05,4.95,0c.8-1.04,1.85-1.22,2.37-3.13.52-1.92-.69-10.8-7.14-13.59-6.44-2.79-9.58-1.83-9.58-1.83,0,0,.87-.96-1.39-3.22-2.26-2.26-4.01-6.1-4.53-9.23-.52-3.14-1.05-7.84-.52-9.93.52-2.09-.7-4.35-.7-4.35l-7.32,3.66Z"/>
    <path class="st16" d="M166.48,206.33s-.87,2.61-.7,5.57c.18,2.96-.35,7.84-1.39,11.84-1.05,4.01-2.79,6.1-2.79,7.84,0,0-8.36-.7-10.45,0-2.09.7-3.83,3.83-3.83,3.83l-1.92,13.24s-1.57,2.79,0,2.79,16.9-11.84,16.9-11.84c0,0,10.28,21.25,11.32,20.03,1.04-1.22,1.74-5.92,1.74-5.92l22.29-6.27s7.32,3.66,6.97,1.57c-.35-2.09-4.88-5.75-12.71-7.66-7.84-1.92-18.29-7.32-18.99-7.32h-.7s.7-1.04.17-4.18c-.52-3.14-.17-11.15.35-14.81.52-3.66.52-8.71.52-8.71h-6.79Z"/>
    <path class="st5" d="M116.49,234.37s-2.96,1.92-9.41,1.92-16.37,4.18-17.59,6.44c0,0,15.5,5.05,19.51,6.97,4,1.92,6.55,2.03,6.55,2.03,0,0,.07-8.83.94-12.48.87-3.66,0-4.88,0-4.88"/>
    <path class="st5" d="M122.42,237.16s-1.22,10.28-2.79,13.41l-1.57,3.13s4.7-2.55,8.01-1.97c3.31.58,13.75-2.1,13.75-2.1,0,0-4.17-2.2-8.53-5.33-4.35-3.14-8.88-7.14-8.88-7.14"/>
    <path class="st5" d="M126.77,233.01s6.1-1.24,9.93,2.24c3.83,3.48,6.79,10.8,6.79,10.8l-2.37,3.14s-15.92-15.99-14.35-16.17"/>
    <path class="st5" d="M174.67,257.06s-.18-5.1-1.23-7.89c-1.04-2.79-3.31-9.93-2.26-10.8,1.04-.87,11.32,2.09,15.33,3.83s15.26,6.97,15.26,6.97c0,0-2.54-.52-8.81,1.57-6.27,2.09-18.28,6.32-18.28,6.32"/>
    <path class="st5" d="M146.83,250.79s10.25.83,14.6,2.05c4.35,1.22,10.01,4.23,10.01,4.23,0,0-6.7-20.77-8.27-21.12-1.57-.35-15.79,12.46-16.35,14.85"/>
    <path class="st5" d="M159.13,234.37s-11.81,10.62-13.73,14.28c0,0-1.92-9.75,0-11.49,1.92-1.74,13.17-4.01,13.73-2.79"/>
    <path class="st5" d="M116.88,232.79s1.01.51,2.92,0c1.92-.51,4.36-.85,4.36-2.25s-4.18-6.62-4.36-9.23c-.17-2.61-.87-11.84-1.74-11.84s.35,8.92.7,11.77c.35,2.86,3.31,7.21,3.14,8.6-.18,1.39-5.01,2.94-5.01,2.94"/>
    <path class="st5" d="M170.91,210.69s-2.34,0-3.04,6.62c-.7,6.62-2.26,14.6,0,15.48,2.26.89,3.57.23,3.57.23,0,0-2.52,1.89-6.01,1.01-3.48-.87.87-13.94,1.39-18.47.52-4.53,4.09-4.88,4.09-4.88"/>
    <path class="st5" d="M116.14,229.67c.52,0,1.08.93,3.31,0,2.23-.93-3.31,0-3.31,0"/>
    <path class="st5" d="M167.77,230.89s2.88,1,3.14-.81c.27-1.81,0-5.29,0-5.29,0,0,.53,6.09-3.14,6.1"/>
    <path class="st5" d="M116.88,227.23h2.4s-2.36-1.04-2.4,0"/>
    <path class="st5" d="M167.77,227.98h1.63s-1.39-.99-1.63,0"/>
    <path class="st4" d="M108.83,174.28s-.52,8.01,0,12.02c.52,4.01,1.74,10.62,1.57,13.93-.18,3.31-1.05,9.23,3.31,9.23s8.01-.35,8.36-4.53c.35-4.18.7-5.57,0-7.49l-.7-1.92s4.88,6.97,15.67,6.97,19.79,2.26,27.05-5.92c0,0-1.35,10.28,2.73,12.19,4.09,1.92,6.81.7,7.85-3.66,1.04-4.35,1.21-10.79,1.21-13.15s1.22-6.19,1.39-11.24c.17-5.05-2.61-10.28-2.61-10.28l-65.84,3.83Z"/>
    <path class="st3" d="M108.6,162.27s-1.32,12.28,0,21.95c0,0,1.1-3.48,1.97-3.31.87.17,10.1,18.11,22.64,19.16,0,0-11.11-5.4-15.13-12.02-4.03-6.62-3.11-10.28-3.19-12.19-.08-1.92-6.29-13.59-6.29-13.59"/>
    <path class="st3" d="M175.54,165.23s2.39,14.88,1.75,18.11c0,0-1.23-3.48-1.75-2.26-.52,1.22-9.23,13.06-13.59,14.98l-4.35,1.92s12.54-9.75,13.84-14.28c1.31-4.53-.41-14.28-.41-14.28l4.5-4.18Z"/>
    <path class="st22" d="M108.6,162.27s2.44,9.07,4.41,13.41c1.97,4.35,5.99,17.59,22.07,22.29,16.07,4.7,28.1-6.62,31.06-10.1,2.96-3.48,4.86-8.15,5.74-10.95s.54-4.72,2.8-8.38c2.26-3.66,1.04-14.8,1.04-14.8l-3.31-11.15-10.1-23.51-32.05-25.95s-10.62,24-11.15,24.45c-.52.45-9.58,31.11-9.58,31.11l-.93,13.59Z"/>
    <path class="st20" d="M128.94,112.63s-8.22,21.42-8.33,27.52c-.11,6.1-5.23,12.19-5.72,18.11-.49,5.92-.42,24.73,20.18,29.26,20.61,4.53,31.89-11.84,32.7-17.76.8-5.92-.83-15.33-3.67-21.77-2.84-6.44-2.49-2.96-6.5-10.62-4.01-7.66-23.17-33.79-28.65-24.73"/>
    <path class="st1" d="M108.01,151.47s-7.37-4.88-14.68-1.04c-7.32,3.83-19.51,15.33-28.91,25.43-9.4,10.1-16.55,19.68-15.33,22.12,1.22,2.44,3.13,2.09,3.13,2.09,0,0-2.79,3.48-6.79,3.83-4.01.35-8.19,2.61-9.75-5.92-1.57-8.53,14.11-24.73,21.95-32.74,7.84-8.01,30.83-29.09,37.97-36.23,7.14-7.14,12.42-9.06,12.42-9.06v31.53Z"/>
    <path class="st1" d="M176.04,119.24c.54.18,22.14,14.11,35.38,24.21,13.24,10.1,34.66,22.64,36.58,33.96,1.92,11.32-3.83,11.59-12.19,10.93-8.36-.66,0-.83.52-2.75.52-1.92-5.57-12.02-13.41-19.16-7.84-7.14-34.49-25.08-38.32-27.87-3.83-2.79-9.04-4.18-9.92-7.66-.88-3.48,1.37-11.67,1.37-11.67"/>
    <path class="st1" d="M95.94,165.23s-6.44,8.36-12.37,9.58c-5.92,1.22-7.55.7-11.79,4.53s-2.85,6.27-5.46,8.97c-2.61,2.7-12.54,7.93-11.84,5.14.7-2.79,26.13-30.35,35.01-35.46,8.88-5.12,16.02-6.16,16.37-3.38.35,2.79-9.93,10.62-9.93,10.62"/>
    <path class="st1" d="M181.81,140.15s26.47,18.11,34.83,25.08c8.36,6.97,16.72,16.2,16.55,18.64-.17,2.44-16.02-7.51-18.11-10.2-2.09-2.69-4.18-7.39-5.75-7.05-1.57.35-14.98-3.66-18.81-6.97-3.83-3.31-5.05-5.4-6.97-7.66-1.92-2.26-5.4-13.06-1.74-11.84"/>
    <path class="st19" d="M173.27,75l-9.23,34.59-1.22-.8s9.23-34.84,10.45-33.79"/>
    <path class="st19" d="M176.04,89.64c.07-.79-6.43,23.17-5.73,23.17s5.53-20.9,5.73-23.17"/>
    <path class="st19" d="M180.2,97.39c.21.78-6.8,19.91-5.74,20.19,1.07.28,5.74-20.19,5.74-20.19"/>
    <path class="st19" d="M125.58,103.6s-10.09,3.97-10.81,5.02c0,0-8.69,5.44-8.9,8.95,0,0-9.7,6.9-9.12,10.29l.58,3.4s-3.65.91-3.13,5.94c.52,5.03,2.43,2.85,2.43,2.85,0,0,.35,3.58,1.92,3.93l1.57.35s-.69,1.92,1.31,2.44l2,.52s.31,3.83,2.45,4.01l2.13.17s-1.51,9.58.59,10.8c2.1,1.21,3.89-10.97,3.89-10.97,0,0,4.36-8.2,4.53-11.24.18-3.04,2.77-18.51,4.35-22.47,1.58-3.96,4.24-10.63,4.21-13.97"/>
    <path class="st4" d="M125.58,77.44s-.03,6.27.84,9.58c.87,3.31-2.14,21.83-4.25,28.54l-2.11,6.71s8.45-16.61,10.19-17.13c1.74-.52,4.88,1.38,6.27,2.34,1.39.97,1.74,0,1.74,0,0,0,4.34,8.8,5.22,7.41l.88-1.39s8.54,14.28,9.23,12.89l.69-1.39s7.32,13.06,8.54,12.19l1.22-.87s1.99,1.51,6.22,13.21l4.23,11.7s-8.01-26.82-9.76-30.65c-1.74-3.83-4.01-12.71-3.31-24.21.7-11.5,5.05-31.35,2.96-45.81-2.09-14.46-5.92-23.51-13.76-26.13-7.84-2.61-17.42,4.53-17.42,4.53v8.53l-7.63,29.96Z"/>
    <path class="st6" d="M129.38,81.28s13.59-.7,16.37-5.05c2.79-4.36,2.44-7.32,2.26-11.15-.17-3.83,1.22-4.18.87-5.57-.35-1.39-3.83-4.53-3.14-8.01.7-3.48,1.39-6.44,0-8.71-1.39-2.26,5.23.52,6.1,5.05.87,4.53.35,2.96,1.39,9.76,1.04,6.79.7,25.25-5.05,28.22-5.75,2.96-19.51,0-18.81-4.53"/>
    <path class="st3" d="M118.93,38.08s5.35-4.53,10.43-5.05c5.08-.52,17.12-1.06,19.37.95,2.25,2.01-7.07,1.84-7.2,4.1-.13,2.26,3,4.35,3.35,6.45.35,2.09.69,5.05-.35,7.14-1.04,2.09-.35,2.09.52,5.23.87,3.13,1.22,6.83-.35,7.6-1.57.76-25.78-26.41-25.78-26.41"/>
    <path class="st18" d="M81.83,65.25s28.61-7.84,32.94-9.06c4.33-1.22,6.07-.35,5.29-1.57-.78-1.22-2-2.61-2-2.61l19.68,2.61,3.79,3.31-5.71,2.26-15.76-.7-38.23,5.75Z"/>
    <path class="st5" d="M74.39,69s15.54-1.04,20.77-1.96c5.23-.91,14.76.3,21.16,3.61,6.4,3.31,8.23,8.41,12.15,8.54,3.92.13,13.83-7.71,15.02-9.93,1.18-2.22,1.27-3.6,1.77-5.26.51-1.66-.59-4.93-1.25-6.5-.65-1.57-2.99-3.4-1.69-5.49,1.3-2.09,3.53-6.53,0-9.54-3.53-3-7.58-2.22-10.45-3.13-2.87-.91-7.05-4.09-12.93-1.26-5.88,2.83-1.44,5.44-6.14,6.36-4.7.92-28.87,4.18-31.87,6.01-3,1.83-7.31,6.01-6.53,6.14.39.07,2.37-1.11,4.92-2.29,2.61-1.21,5.83-2.41,8.54-2.28,5.36.26,16.04.78,20.75.65,4.72-.13,16.96.19,21.83,1.7,4.87,1.51,8.75,2.61,8.75,2.61,0,0-14.89-.39-20.25.26-5.36.65-41.67,8.23-44.54,11.76"/>
    <path class="st16" d="M138.66,41.98c.13.38-5.38-1.59-13.07.76-7.7,2.35-23.03,6.4-31.43,7.32-8.4.91-16.89,2.48-19.77,6.53,0,0-1.18.52-.65-1.7.52-2.22,9.54-6.14,13.32-6.92,3.79-.78,18.62-3.74,23.35-5.99,4.73-2.24,8.26-5.37,14.01-5.05,5.75.32,6.09,2.8,7.45,2.41,1.35-.39,6.14.7,6.79,2.64"/>
    <path class="st16" d="M134.87,44.57s2.09-2.74,4.83-1.57c2.74,1.18,4.06,3.27,2.62,6.4-1.44,3.14-3.01,2.61-5.75,2.61s-2.56-1.57-2.56-1.57c0,0,3.31,1.17,5.57.52,2.26-.65,2.17-3.71,1.8-5.49-.36-1.77-4.85-2.09-6.51-.91"/>
    <path class="st18" d="M133.21,47.49s.9-3.83,4.53-2.92c3.63.91,3.11,5.55.92,6.01-2.2.46-5.45.22-5.45-3.09"/>
    <path class="st13" d="M134.01,48.53s-.91-2.81,2.79-3.43c0,0,2.96-.03,2.77,3.43,0,0-.61,1.36-2.77,1.53-2.16.17-2.79-1.53-2.79-1.53"/>
    <path class="st2" d="M135.28,48.29s-.34-1.64,1.11-1.78c1.44-.14,1.78,1.39,1.4,2.02-.39.63-2.31.87-2.5-.24"/>
  </g>
  <g class="st8">
    <path class="st15" d="M138.46,46.77l-.78.29c.29.44.32,1.04.14,1.4.35.04.63.06.64.06v-1.75Z"/>
    <path class="st10" d="M137.68,47.06l-1.39.51c-.04.06-.05.12-.06.17v.04c.03.41.94.6,1.58.68.18-.36.16-.96-.14-1.4"/>
  </g>
  <g class="st9">
    <path class="st16" d="M134.78,57.59c-.43-.04-12.45-.35-20.29,1.04s-32.83,6.1-36.32,7.49c-3.48,1.39-3.79,2.87-3.79,2.87,0,0,5.96-2.44,10.75-3.31,4.79-.87,24.99-4.44,30.13-4.7,5.14-.26,27.26-2.68,19.51-3.4"/>
    <path class="st7" d="M77.83,68.21s15.77-1.83,21.17-2.26c5.4-.44,21.16-1.05,25.77,0,4.62,1.04,9.06,2.24,11.06-.58,2-2.82,1.52-4.21,1.52-4.21,0,0-2.92-.52-3.44,0-.52.52.27,2.65-1.3,3.33-1.57.68-3.75-1.12-11.32-1.22-7.58-.1-39.01,2.6-43.46,4.95"/>
    <path class="st17" d="M131.67,86.81s2.97,2.87,3.21,1.48c.24-1.39.2-1.83.2-1.83,0,0,.68,5.05-.73,4.79-1.41-.26-2.68-4.44-2.68-4.44"/>
    <path class="st17" d="M137.34,90.77s1.72,2.61,2.24,1.52c.51-1.09,0-2.67,0-2.67,0,0-.11,2.28-2.24,1.15"/>
    <path class="st17" d="M141.37,91.9s2.19,3.29,2.46,1.47c.27-1.82,0-3.04,0-3.04,0,0-.34,2.85-2.46,1.57"/>
    <path class="st17" d="M138.46,96.95s2.72,3.31,2.92,2.26c.2-1.04,0-2.26,0-2.26,0,0-.46,2.09-2.92,0"/>
    <path class="st17" d="M144.54,96.34s1.31,2.54,1.83,1.66c.52-.88,0-2.59,0-2.59,0,0,.09,2.32-1.83.93"/>
    <path class="st17" d="M150.46,100.78s2.35,3.05,2.61,2c.26-1.05-.44-2.87-.44-2.87,0,0,.44,2.53-2.18.87"/>
    <path class="st17" d="M148.19,106.53s2.26,2.96,2.61,2.09c.35-.87-.35-2.61-.35-2.61,0,0-.09,2.18-2.26.52"/>
    <path class="st17" d="M142.32,107.48s.88,2.33,1.63,1.3c.76-1.03.58-1.73.58-1.73,0,0-.77,1.73-2.22.43"/>
    <path class="st17" d="M134.78,101.21s.99,1.58,1.45,1.05c.46-.52,0-2.35,0-2.35,0,0,.2,2.16-1.45,1.3"/>
    <path class="st17" d="M155.77,104.44s1.39,1.92,1.83,1.57c.43-.35-.44-2.41-.44-2.41,0,0,.52,1.71-1.39.84"/>
    <path class="st17" d="M156.74,69.43s.85,2.09,1.55.78c.7-1.31,0-3.83,0-3.83,0,0,.12,3.83-1.55,3.05"/>
    <path class="st17" d="M156.74,77.36s-.03.96.98,0c1.01-.96,0-3.48,0-3.48,0,0-.17,4.27-.98,3.48"/>
    <path class="st17" d="M155.33,83.28s1.31,3.06,1.74,1.79c.44-1.27,0-3.45,0-3.45,0,0-.17,4.01-1.74,1.65"/>
    <path class="st17" d="M160.56,82.67s1.13-.26,1.13-1.04-.57-3.84-.57-3.84c0,0-.13,5.84-.57,4.89"/>
    <path class="st17" d="M157.67,93.92s.37.54.93,0c.56-.54-.47-3.59-.47-3.59,0,0,.13,4.04-.46,3.59"/>
    <path class="st17" d="M150.9,95.03s2.11,2.09,2.23.78c.12-1.31,0-3.26,0-3.26,0,0,.05,3.87-2.23,2.48"/>
    <path class="st17" d="M156.3,98.69s1.57,1.8,1.87.73c.3-1.08-.71-3.17-.71-3.17,0,0,.77,4.01-1.15,2.44"/>
    <path class="st17" d="M149.08,88.15s.77,1.13,1.38.52c.61-.61.44-1.68.44-1.68,0,0-.68,1.6-1.82,1.16"/>
    <path class="st17" d="M155.33,110.74s2.16,2.84,2.39,1.36c.23-1.48-.45-2.51-.45-2.51,0,0,.33,2.66-1.93,1.15"/>
    <path class="st17" d="M151.79,115.67s2.32,3.48,2.76,2.53c.44-.96,0-1.79,0-1.79,0,0-.81,1.26-2.76-.74"/>
    <path class="st19" d="M162.04,105.49s7.83,3.46,10.28,6.53c2.45,3.07,2.61,6.35,2.61,6.35,0,0,3.68,6.16,4.41,9.96.73,3.8,0,6.59,0,6.59,0,0,1.14,3.22.33,5.49-.81,2.26-2.26,2.18-2.26,2.18,0,0,1.55,1.57-.11,2.79l-1.66,1.22s.78,2.61.78,4.09-.37,1.74-.37,1.74c0,0,2.38,5.94,2.63,8.19.37,3.32-1.98,1.99-1.98,1.99l-1.15,3.49s-4.89-17.98-5.9-20.77c-.97-2.68-6.26-17.2-7.02-21.57-.76-4.38-1.57-13.86-1.14-18.27h.55Z"/>
    <path class="st14" d="M100.29,133.96s-2.44,2.44-2.26,4.62c.17,2.18,1.13,1.83,1.13,1.83,0,0,.09,2.7,1.14,2.44s1.14-.61,1.14-.61c0,0,.61,3.22,1.48,3.05l.87-.18s.97,3.66,2.1,3.66,1.21-.78,1.21-.78c0,0,1.23,1.94,1.82,1.54,0,0-.71,8.91,0,8.91h.71s.11-6.01.8-9.49l.68-3.48s-1.91,2.87-2.5,2.35c-.59-.52.65-5.05,1.27-6.45l.62-1.39s-3.4,2.87-3.74,5.14c-.35,2.26-1.37,1.44-1.66-.26-.28-1.7,1.08-4.79,2-6.1l.92-1.31s-2.67,3.66-3.45,5.66c-.78,2-2-.7-1.82-2.26.17-1.57,3.14-5.05,3.14-5.05,0,0-3.18,3.12-3.9,4.26-.72,1.14-2.11,1.75-2.11.44s2.18-4.53,3.22-5.57l1.04-1.04s-4.55,3.91-5.05,5.14c0,0-1.13-1.05,1.22-5.05"/>
    <path class="st14" d="M103.34,124.64s-2.3,4.27-1.37,4.44c.93.17,1.98,0,1.98,0,0,0-.71,3.86.6,3.89,1.31.03,1.83-.41,1.83-.41,0,0,.58,3.75,2.21,3.22,1.63-.52,2.5-1.57,2.5-1.57,0,0,.09,4.27,2.09,4.27s3.05-6.18,3.05-6.18c0,0-3.31,8.36-4.62.17,0,0-4.53,4.7-4.44-1.74,0,0-3.22,3.96-2.62-2.7,0,0-2.96,2.18-1.21-3.4"/>
    <path class="st14" d="M108.6,118.37s-.67,5.15,0,5.23c.67.09,1.27,0,1.27,0,0,0-1.62,4.88.54,4.62l2.17-.26s-.18,2.96,1.05,2.96,3.05-1.83,3.05-1.83c0,0-4.61,2.87-3.14-2.96,0,0-4.07,3.48-3.12-3.05,0,0-1.95.42-1.81-4.71"/>
    <path class="st14" d="M171.71,146.15s2.26.33,2.79-1.14c.52-1.47-.52-2.52-.52-2.52,0,0,3.23-.44,3.31-2.09.08-1.65-1.24-3.57-1.24-3.57,0,0,1.99,1.13,1.35-2.96-.64-4.09-1.35-4.79-1.35-4.79,0,0,1.18,7.68-.75,6.37-1.93-1.32-.36.34-.36.34,0,0,2.82,4.47-1.65,6.27,0,0,.89,3.44-1.57,4.09"/>
    <path class="st14" d="M168.05,135.79s2.53,3.13,3.66,2.7c1.13-.44.35-2.7.35-2.7,0,0,1.31-.7,1.22-1.92-.09-1.22-.61-2.31-.61-2.31,0,0,1.57-1.44,1.31-3.96s-2.26-5.49-2.26-5.49c0,0,3.78,7.56,0,8.79,0,0,1.16,6.36-.68,4.09,0,0,1.81,4.1-2.98.79"/>
    <path class="st14" d="M165.52,126.57s2.44,3.73,3.48,2.51c1.05-1.22.35-3.13.35-3.13,0,0,1.68-1.95,1.67-2.98-.02-1.03-3.53-5.95-3.53-5.95,0,0,3.88,5.53.78,8.32,0,0,2.56,6.12-2.75,1.23"/>
    <path class="st17" d="M129.68,94.4s1.22,2.2,1.98,1.85c.76-.35.87-1.85.87-1.85,0,0,.16,3.12-.87,2.98-1.03-.14-1.98-2.98-1.98-2.98"/>
    <path class="st17" d="M127.29,100.61s.65.96,1.1.59c.45-.37.45-1.3.45-1.3,0,0,.14,2.53-.77,2.46-.91-.07-.77-1.75-.77-1.75"/>
    <path class="st17" d="M143.44,102.37s.22,1.53,1.12,1.23c.9-.29,1.01-1.23,1.01-1.23,0,0-1.22,1.53-2.13,0"/>
    <path class="st17" d="M157.46,62.12s.95.42,1.32-1.2c.37-1.61-.66-4.29-.66-4.29,0,0,.24,3.35-.66,5.48"/>
    <path class="st17" d="M161.37,68.21s1.19,4.35.32,4.46c-.87.11-1.13,0-1.13,0,0,0,1.03-.16.81-4.46"/>
  </g>
  <g>
    <path class="st12" d="M117.15,254.8h-2.4v-16.15c-2.28.02-4.97.1-6.43.29v-2.35h15.36v2.35c-1.44-.19-4.2-.26-6.34-.29-.17,4.42-.19,13.01-.19,16.15Z"/>
    <path class="st12" d="M128.35,244.74c2.95,0,5.3-.05,6.6-.17v1.92c-1.3-.1-3.67-.14-6.62-.14-.02,2.35-.05,4.83-.05,6.38,3.1-.02,6.55-.1,8.59-.29l-.36,2.35h-10.61v-18.22h10.03v2.35c-1.3-.19-4.39-.26-7.44-.29-.07,1.32-.1,3.67-.14,6.1Z"/>
    <path class="st12" d="M153.51,254.8h-3.19c-2.33-3.55-6.19-7.99-6.67-8.04-.46-.02-.96-.07-1.46-.14-.02,2.45-.05,6.43-.05,8.18h-2.38v-18.22h4.44c4.51,0,6.75,2.18,6.75,5.09,0,2.45-1.73,4.15-4.85,4.63,1.58,1.1,4.25,4.2,7.42,8.5ZM142.2,244.91c.58.07,1.1.1,1.61.1,3.14,0,4.49-1.27,4.49-3.17s-1.34-3.26-4.42-3.26h-1.54c-.07,1.37-.1,3.7-.14,6.34Z"/>
    <path class="st12" d="M158.33,244.74c2.95,0,5.3-.05,6.6-.17v1.92c-1.3-.1-3.67-.14-6.62-.14-.02,2.35-.05,4.83-.05,6.38,3.1-.02,6.55-.1,8.59-.29l-.36,2.35h-10.61v-18.22h10.03v2.35c-1.3-.19-4.39-.26-7.44-.29-.07,1.32-.1,3.67-.14,6.1Z"/>
    <path class="st12" d="M168.26,260.68c-1.06,0-2.02-.41-2.69-.98v-1.75c.55.29,1.27.48,1.94.48,1.39,0,2.45-.74,2.45-2.42v-19.42h2.69c-.24,3.19-.29,15.6-.29,19.61,0,3.1-2.04,4.49-4.1,4.49Z"/>
  </g>
</svg>