<?xml version="1.0" encoding="UTF-8"?>
<svg id="Vrstva_1" xmlns="http://www.w3.org/2000/svg" xmlns:xlink="http://www.w3.org/1999/xlink" version="1.1" viewBox="0 0 283.46 283.46">
  <!-- Generator: Adobe Illustrator 30.1.0, SVG Export Plug-In . SVG Version: 2.1.1 Build 136)  -->
  <defs>
    <style>
      .st0 {
        fill: none;
      }

      .st1 {
        fill: #f2da97;
      }

      .st2 {
        fill: #9e9c9b;
      }

      .st3 {
        fill: #777;
      }

      .st4 {
        fill: #b5b4b4;
      }

      .st5 {
        fill: #c1bdbc;
      }

      .st6 {
        fill: #e2e1e0;
      }

      .st7 {
        fill: #e0c685;
      }

      .st8 {
        fill: #524f4f;
      }

      .st9 {
        fill: #fff;
      }

      .st10 {
        fill: #d3cfcd;
      }

      .st11 {
        fill: #ba8888;
      }

      .st12 {
        fill: #efbfb9;
      }

      .st13 {
        fill: #9c9a9a;
      }

      .st14 {
        fill: #e0ada9;
      }

      .st15 {
        fill: #a07070;
      }

      .st16 {
        clip-path: url(#clippath);
      }

      .st17 {
        fill: #3d3c3c;
      }
    </style>
    <clipPath id="clippath">
      <rect class="st0" x="19.84" y="19.84" width="243.78" height="243.78"/>
    </clipPath>
  </defs>
  <rect class="st4" x="19.84" y="19.84" width="243.78" height="243.78"/>
  <g class="st16">
    <path class="st10" d="M103.34,151.79s-4.91-3.87-5.95-4.56c-1.04-.69-2.62,40.8-2.62,40.8,0,0,24.03-3.93,28.91-10.12,4.88-6.19-20.34-26.11-20.34-26.11"/>
    <path class="st10" d="M106.59,153.42s1.35,1.08,3.79,0c2.44-1.08,5.14-2.98,6.77-10.96,1.62-7.99,4.74-18.68,4.74-20.57s-2.17-5.01-2.57-9.75c-.41-4.74,2.57-16.11,4.06-20.3,1.49-4.19,2.17-7.44,2.03-9.34-.13-1.89-.13-3.79.95-6.5,1.08-2.71,2.84-4.33,4.74-4.74,1.9-.4,5.41-1.76,6.23-2.3.81-.54,9.61-4.06,14.62-4.2,5.01-.13,11.23,2.03,11.64,2.16.41.14.68,2.17.68,2.17l-4.06,10.29-7.04,11.64-7.71,12.99-3.25,8.53.95,9.34s-.95.41-2.84,1.35c-1.9.95-4.74,6.23-4.87,9.2-.14,2.98.68,9.47,0,13.4-.68,3.92-2.71,11.23-2.84,13.67-.13,2.43-1.62,6.73-2.03,8.44-.41,1.71-5.55,9.84-8.12,10.78h-19.08v-26.94l3.25,1.62Z"/>
    <path class="st5" d="M143.13,121.88s-2.46,2.23-3.27,2.6c-.82.37-3.32,4.46-3.65,5.93-.32,1.47-.46,6.02-.39,7.26.07,1.24.08,6.3-.32,7.6,0,0-.22-7.68-.54-11.69-.32-4.01-.64-6.23.21-8.64.85-2.41,1.78-1.54,3.84-4.68l4.13,1.62Z"/>
    <path class="st5" d="M140.32,114.64s-.58,2.44-.58,3.92.13,3.05-.47,3.93c-.61.88-6.91-.2-3.76,14.01,0,0-.53-6.05,1.8-9.02,0,0,1.22-2.68,3.01-3.7,1.79-1.02,2.81-1.9,2.81-1.9l-2.81-7.24Z"/>
    <path class="st5" d="M140.32,114.64s-.46,5.17-2.42,7.54c-1.96,2.38-2.28,1.55-2.74,3.87l-.47,2.31,5.63-6.62v-7.1Z"/>
    <path class="st12" d="M163.03,67.88s-.27,4.2-1.9,6.77c-1.62,2.57-3.93,5.28-4.6,6.5-.68,1.22-2.57,6.09-3.65,7.17-1.08,1.08-4.87,6.23-6.09,8.39-1.22,2.17-5.96,11.1-6.23,13.94-.27,2.84-.95,9.47,2.57,11.23,0,0,2.57-1.08,4.2-1.08s10.42,1.76,15.7,3.25c5.28,1.49,29.51,10.29,34.11,11.64,4.6,1.35,27.75,8.39,28.02,7.58.27-.81-.95-1.89-2.3-3.11-1.35-1.22-23.96-25.58-26.53-28.42-2.57-2.84-21.38-22.6-22.6-24.09-1.22-1.49-9.97-8.89-11.5-9.2,0,0,6.09-5.28,7.31-5.68,1.22-.41,13.26-3.79,19.35-4.87,6.09-1.08,33.29-5.01,35.46-5.14,2.17-.14,7.98-1.22,9.88-1.22s15.16-1.49,16.51-1.9c1.35-.41,3.52-1.35,4.33-.81.81.54,1.35,1.89,1.35,1.89,0,0,1.22-1.08,0-3.11-1.22-2.03-8.12.81-9.2.81s-26.53,1.35-49.27,4.47c-22.74,3.11-30.32,4.47-31.81,4.47s-2.57-.41-2.57-.41l-.54.95Z"/>
    <path class="st5" d="M151.93,73.33s-.27-.96,0-1.32c.27-.36,1.18-1.57,1.34-1.8.16-.23,1.07-1.6,3.49-1.46,2.42.14,4.35.91,4.56,1.89.2.98-.3,2.94-.89,3.71-.59.77-3.49,2.67-4.24,2.69-.75.02-2.46-.55-3.03-1.21-.57-.66-1.23-2.51-1.23-2.51"/>
    <path class="st1" d="M152.91,71.78s-.41.77-.32,1.66c.09.89.66,2.32,1.94,2.64,1.27.32,3.69-.16,4.88-1.55,1.18-1.39,1.69-2.83,1.34-3.51-.34-.68-1.28-1.87-3.49-1.87s-4.17,1.57-4.35,2.62"/>
    <path class="st2" d="M158.76,72.53s.23-.93,0-1.46c-.23-.52-1.17-1.3-2.18-1.23-1.01.07-2.22,1.07-2.31,2.1-.09,1.03.73,2.01,1.6,2.12.87.11,2.62-.45,2.89-1.53"/>
    <path class="st17" d="M156.37,73.49s-1.28-.12-1.39-1.43c-.11-1.31,1.41-1.64,1.73-1.64s1.53.21,1.6,1.16c.07.96-.42,1.9-1.94,1.91"/>
    <path class="st5" d="M164.99,69.16s10.69-1.21,13.8-1.75c3.11-.54,23.62-3.86,26.12-4.13,2.5-.27,22.8-2.84,26.66-3.11,3.86-.27,8.59-.74,11.91-.95,3.32-.2,5.89-.47,6.43-.61.54-.14,1.96-.27,1.96-.27,0,0-.74.61-9.41,1.35-8.66.75-37.36,4.26-40.74,4.67-3.38.41-25.51,4.45-27.88,4.8-2.37.35-10.22,1.01-8.87,0"/>
    <path class="st11" d="M161.36,78.91s4.37,2.77,5.86,3.93c1.49,1.15,7.38,6.57,8.86,8.19,1.49,1.62,9.95,10.22,10.49,11.03.54.81,9.81,10.49,10.49,11.23.68.74,13.19,14.28,13.74,14.82.54.54,7.38,8.46,8.12,9.2.74.74,5.34,4.25,5.31,4.73-.03.48-1.93,0-1.93,0l-10.76-5.54-7.71-6.43-9.34-9.41-10.42-12.45-11.17-12.72-6.02-6.49-5.89-4.4-1.08-1.62v-3.14l1.45-.92Z"/>
    <path class="st15" d="M162.82,82.7s5.75,6.29,7.78,7.78c2.03,1.49,18.07,17.05,20.37,19.08,2.3,2.03,17.26,18.61,17.26,18.61,0,0-14.25-14.5-17.87-18.54-3.62-4.04-12.93-12.11-13.53-12.65-.61-.54-9.05-7.02-9.5-7.5-.45-.48-5.93-7.12-4.51-6.78"/>
    <path class="st15" d="M172.17,94.7s11.15,9.49,13.79,11.92c2.64,2.43,16.24,16.54,18.88,19.39,2.64,2.84,7.01,7.71,8.53,9.24,1.52,1.52,6.09,3.96,6.6,4.26.51.31,4.36,2.12,4.26,2.53-.1.41-7.3-1.63-7.3-1.63l-32.59-29.83-13.91-14.82,1.74-1.06Z"/>
    <path class="st14" d="M162.08,84.32s3.72,2.17,6.16,5.01c2.44,2.84,12.86,14.21,16.04,18.27,3.18,4.06,9.61,11.3,10.62,12.52,1.01,1.22,11.64,11.98,14.75,14.21,3.11,2.23,11.71,6.97,12.59,7.11.88.14,2.31.67,2.78,1.01.47.34.68,1.29,0,1.43-.68.13-1.58-.74-2.77-1.03-1.2-.29-10.9-4.99-14.76-7.97-3.86-2.98-24.23-24.23-26.39-26.73-2.17-2.5-13.81-13.2-16.24-15.43-2.44-2.23-7.94-5.61-8.54-6.94-.6-1.32-.6-2.34.21-4.64.81-2.3,3.86-5.32,4.32-6.06.46-.75,3.39-1.68,6.03-2.41,2.64-.73,10.17-2.01,10.17-2.01,0,0-6.24,2.22-7.12,2.83-.88.62-3.51,3.05-5.1,3.56-1.59.51-3.85,2.14-3.98,4.1-.13,1.96.23,2.55,1.23,3.18"/>
    <path class="st15" d="M212.29,132.1s4.2,4.53,4.94,5.28c.74.74,1.35,1.01,1.35,1.01,0,0-5.82-6.36-6.29-6.29"/>
    <path class="st14" d="M141.64,113.69s.61,4.13,1.83,5.14c1.22,1.02,3.18,1.42,3.18,1.42,0,0-3.65-.07-4.33-1.83s-.68-4.74-.68-4.74"/>
    <path class="st5" d="M146.38,73.77s-3.45,2.77-2.23,4.87c1.22,2.1,5.62,2.71,6.02,3.38.41.68.41,1.01.41,1.01,0,0-1.76-1.35-2.57-1.35s-4.53-1.49-4.74-3.28c-.2-1.79,2.1-4.84,3.11-4.63"/>
    <path class="st5" d="M158.86,66.93s2.4.27,2.81.68c.4.41.4.81.4.81,0,0,.81-1.9-3.21-1.49"/>
    <path class="st5" d="M146.91,88.11s.35.74-.26,1.35c-.61.61-6.5,7.99-7.24,9.54-.74,1.56-1.01,2.37-1.01,2.37,0,0,.21-2.17,1.93-4.8,1.73-2.64,5.24-6.77,5.58-7.44.34-.68.92-1.35,1.01-1.01"/>
    <path class="st5" d="M128.17,155.92s-2.1,2.57-2.37,2.3.74-1.62.74-1.62c0,0-1.99,2.3-.79,2.1,1.2-.2,2.42-2.78,2.42-2.78"/>
    <path class="st5" d="M129.46,163.16s-2.71,4.06-4.4,5.21c-1.69,1.15-2.03,1.22-2.23.75l-.2-.47s-.27,1.15.47,1.15,6.02-4.06,6.36-6.63"/>
    <path class="st10" d="M156.05,71.31s-.14.38.18.64c.32.27,1.09.27,1.09.27,0,0-.8.63-1.29.28-.49-.35-.53-1.05.03-1.19"/>
    <path class="st12" d="M161.15,83.45s5.98,4.19,7.55,5.86c1.57,1.68,5.69,6.93,6.05,7.33.36.4,7,7.34,7.4,7.84.4.51,5.94,7.21,6.45,7.82.51.61,8.62,10.07,8.91,10.33.29.26,11.21,10.99,11.67,11.34.46.35-6.83-4.62-15.81-15.18-8.98-10.56-15.04-17.62-18.12-20.86-3.08-3.24-6.14-8.07-10.3-11.22l-3.8-3.27Z"/>
    <path class="st12" d="M162.68,84.54s-1.55-1.3-1.7-2.18c-.15-.88.16-2.19.38-2.71,0,0-.74.98-.64,2.44.11,1.46.39,1.63,3.11,3.67l-1.16-1.23Z"/>
    <path class="st14" d="M144.14,109.77s3.11,5.28,6.02,7.21c2.91,1.93,5.72,3.28,5.72,3.28,0,0-10.12-1.15-11.74-10.49"/>
    <path class="st14" d="M152.46,118.4s5.19,2.1,7.46,2.79c2.27.69,9.45,3.51,11.61,4.38,2.16.87,3.09,1.41,3.09,1.41,0,0-13.74-4.84-15.13-5.24-1.39-.4-7.52-2.59-8.9-3.35-1.38-.76,1.88,0,1.88,0"/>
    <path class="st14" d="M179.55,128.53s10.27,4.01,11.89,4.48c1.62.46,7.8,2.24,7.8,2.24l-19.68-6.72Z"/>
    <path class="st5" d="M132.53,152.93s-.54,5.13-.9,6.43c-.36,1.3-1.17,1.07-1.17.54v-.54s.09.84.5.08c.4-.77,1.57-6.51,1.57-6.51"/>
    <path class="st14" d="M144.14,105.43s.61-3.61,1.62-4.97c1.01-1.35,2.74-3.98,3.86-5.76,1.12-1.78-2,4.71-2.98,6.14-.98,1.42-1.69,3.76-1.69,5.28s.1,2.03.1,2.03c0,0-1.18-1.4-.91-2.71"/>
    <path class="st14" d="M256.41,60.71s-1.09-1.74-1.72-1.74-2.12.38-4.16.71c0,0,3.02-1.6,4.28-1.33,0,0,1.67.57,1.6,2.37"/>
    <path class="st7" d="M153.23,71.96s-1.02,2.89,1.04,3.35c2.06.46,3.43-.3,3.43-.3,0,0-2.65.3-3.43-.2-.78-.51-.91-1.44-1.04-1.91-.13-.47.41-1.24.41-1.24l-.41.31Z"/>
    <path class="st10" d="M101.58,150.44s-6.5-6.23-23.01-12.99c-16.51-6.77-23.82-9.62-23.82-9.62l13.55,15.85,34.77,15.43-1.49-8.66Z"/>
    <path class="st10" d="M63.01,144.89s14.08.54,17.6,1.22c3.52.68,17.05,6.37,19.42,7.71,2.37,1.34,4.54,5.28,4.54,5.28l-.81,16.51-40.74-30.72Z"/>
    <path class="st5" d="M96.44,186.98s-11.37,3.52-18.14,3.65-10.83-.95-15.29-.41c-4.47.54-28.15.57-36.54.42-8.39-.15-14.08.17-19.08.08-5.01-.09-7.31,2.29-8.53.01l-1.22-2.27s-13.67-1.35-17.6-3.52c-3.92-2.17-1.76-2.57-5.14-4.06-3.38-1.49-9.07-4.33-9.07-5.28s-8.12-6.7-8.12-6.7l4.06-4.4,21.25-4.26,26.93,3.99s46.69,22.2,48.99,22.6c2.3.41,37.49.14,37.49.14"/>
    <path class="st17" d="M76.27,139.83s-.27-1.7-1.08-1.63l-.81.06s-.41-1.62-1.22-1.62h-.81s-2.95-2.3-4.05-1.89l-1.1.41s-1.35-2.84-2.3-2.7l-.95.13s-1.49-1.69-2.03-1.39c-.54.3-1.85-1.25-1.85-1.25,0,0-7.62-3.46-10.06-4.27-2.44-.81-7.17-1.37-7.17-1.37,0,0-2.44-.8-3.65-.8h-1.22s-5.14-1.35-6.77-1.35h-1.62s-6.23-.74-9.47-.64c-3.25.1-9.47.64-9.47.64,0,0-10.15-2.03-11.64-1.49-1.49.54.54,2.18.54,2.18,0,0-4.06-.42-2.98,1.27l1.08,1.69s-10.02.27-9.47,1.22c.54.95,8.12.8,8.12.8,0,0-5.69,1.64-4.19,2.11,1.49.47,4.6.26,4.6.26,0,0-10.02,1.97-16.24,4.27-6.23,2.3-7.31,5-6.5,4.8.81-.2,2.71-1.07,2.71-1.07,0,0-2.57,1.29,2.84,0,5.41-1.29,9.88-2.65,9.88-2.65,0,0-4.87,2.84-4.33,3.72l.54.88s-2.44.21-2.17,1.05l.27.84s-12.45,3.65-15.43,6.23c-2.98,2.57-4.6,4.68-2.71,4.98,1.89.3,2.03,0,2.03,0,0,0-2.16,3.41.14,3.68,2.3.27,4.87-.67,4.87-.67l-3.38,3.38s-4.47-.81-4.47,0v.81s-4.33.41-4.46,1.22l-.14.81s-2.57-.14-1.35,1.62l1.22,1.76s-8.93,1.08-8.93,2.84v1.76s-1.62.54.54,1.76c2.17,1.22,7.04,1.49,7.04,1.49,0,0-.54,2.17.81,1.89,1.35-.27,25.31,2.17,25.31,2.17,0,0-12.99-2.71-13.4-3.52-.41-.81,3.52-.81,3.52-.81,0,0-11.5-1.76-11.5-2.71s3.79-.95,3.79-.95c0,0-6.63-.41-6.36-1.62.27-1.22,10.29-3.38,14.35-3.79,4.06-.41,5.14-.41,5.14-.41,0,0-7.58,1.35-5.96,2.03,1.62.68,4.87.95,4.87.95,0,0-7.85,1.08-7.58,1.76.27.68,11.1,1.49,11.1,1.49,0,0-.27,1.35,3.11,1.35,0,0-4.33,1.62-2.98,2.03,1.35.41,3.38,0,3.38,0,0,0-.27.81,2.3.81s3.65-1.22,3.65-1.22c0,0-3.25,2.57-1.35,2.44l1.89-.13s1.49.27,3.38.13l1.9-.13s-2.03,1.89,0,1.35c2.03-.54,3.65-2.98,5.55-3.52l1.9-.54s-6.09,3.25-4.2,3.38c1.9.14,3.79-1.22,3.79-1.22,0,0,1.22,1.76,1.49.68.27-1.08,2.03-2.98,3.38-2.98s4.47,1.9,5.82,1.76c0,0,1.49,4.06,4.47,4.06h2.98s.14,1.35,6.09,1.49c5.96.14,8.39,3.11,11.51,4.19,3.11,1.08,9.47,3.52,13.94,3.79,4.47.27,11.77,2.03,14.89-1.22l3.65-5.14,5.62-26.96s-6.7-4.85-8.46-5.66c-1.76-.81-2.15-1.35-2.15-1.35,0,0-.41-.66,2.83-.95,3.24-.29,2.61,1.61,4.71.37,2.1-1.25,8.5.23,8.5.23l15.69,6.57s-2.77-2.43-4.67-2.98c-1.89-.54-1.35-2.84-2.98-2.84s-3.65.27-4.06-1.08c-.41-1.35-2.17-.27-3.79-1.49s-3.92-3.93-5.62-4.06c-1.69-.14-2.64-1.54-2.64-1.54"/>
    <path class="st6" d="M102.53,172.7s1.32,2.23,1.32,5.07-2.94,9.54-14.72,11.98c-11.78,2.44-18.55.59-18.55.59,0,0-7.23-.09-5.61-1.69,0,0,5.07-1.23,4.67-1.94,0,0-5.68.81-6.19.81s1.32-1.72,1.32-1.72c0,0-3.76,1.22-3.76.71s2-2.13,2-2.13c0,0-5.31,4.6-5.48,3.82-.17-.78,2.97-4.02,2.97-4.02,0,0-6.94,5.08-6.82,3.65.12-1.42,6.52-10.56,6.52-10.56,0,0-11.88,8.43-11.98,7.41-.1-1.01,8.12-9.07,8.12-9.07,0,0-7.31,4.81-7.31,3.89s1.01-2.94,1.01-2.94c0,0-.3.03,0-.95,0,0-6.96,5.27-7.03,4.17l-.07-1.09s-4.47,3.8-4.67,3.17c-.2-.63,4.87-10.07,4.87-10.07,0,0-.41.1-.2-1.22.2-1.32,6.7-10.32,6.7-10.32,0,0-17.23,15.27-17.6,14.42-.37-.85.85-1.97.85-1.97,0,0-3.25,3.89-3.35,2.91-.1-.98,10.05-14.28,10.05-14.28,0,0-7.1,8.56-7.1,7.58s3.86-8.09,3.86-8.09c0,0-5.68,5.55-5.99,4.91l-.31-.64s-2.23,2.1-2.44.64c-.2-1.46.61-2.57.61-2.57,0,0-7.92,5.18-7.92,4.26s6.77-7.17,6.77-7.17c0,0-7.28,4.43-7.68,4.03-.41-.4,3.15-4.67,3.15-4.67,0,0-6.09,4.57-6.19,3.65-.1-.91,7-9.44,7-9.44,0,0-8.32,6.97-8.53,6.43-.2-.54,0-1.66,0-1.66,0,0-1.83,1.42-1.83.51s10.15-10.96,10.15-10.96c0,0-9.44,6.8-9.34,5.99.1-.81.91-2.27.91-2.27,0,0-8.22,4.35-7.82,2.75.41-1.6,14.72-10.74,14.72-10.74,0,0-.1-1.01,1.12-1.73,1.22-.71,8.83-3.04,8.83-3.04,0,0-3.45,1.72-1.93,1.83,1.52.1,7.72-.41,7.72-.41,0,0-2.03.91-.71.91h2.44s-5.38,3.55-3.86,3.45c1.52-.1,7.11-1.43,7.11-1.43,0,0,.1.92.81.92s1.42-.1,1.42-.1c0,0-2.13,1.83-1.01,1.93,1.12.1,4.97-1.93,4.97-1.93,0,0-.41.41.71.61,1.12.2,3.55,0,3.55,0,0,0-1.73,2.94-.3,2.74,1.42-.2,1.7-2,1.7-2,0,0,.2-.54.57-.75.37-.2-.44,1.83,1.49,1.93,1.93.1,5.38-.81,5.38-.81,0,0-1.32,1.12.91,1.12h2.23s.09,1.57,1.62,1.52c1.53-.05,1.15,2.36,2.64,2.13,1.49-.22.88.07,4.16,1.08,3.28,1.01,16.34,9.88,19.69,12.42,3.35,2.54,8.96,6.9,9.64,8.43"/>
    <path class="st3" d="M13.35,185.6s.25,1.27,1.98,1.47c1.73.2,2.28,0,2.28,0,0,0,2.89,2.13,4.16,2.54,1.27.41,2.44.41,2.44.41,0,0-.35.51-3.3-.25s-3.3-2.13-3.3-2.13c0,0-4.52,1.01-4.26-2.03"/>
    <path class="st10" d="M22.88,143.94s-2.77,1.62-2.64,2.23c.14.61,1.69,0,1.69,0,0,0-5.41,4.06-5.62,4.33-.2.27,7.9-5.41,7.9-5.41,0,0-5.28,2.17-1.34-1.15"/>
    <path class="st10" d="M27.07,145.64s-3.76,2.57-2.86,2.71c.9.14,5.02-1.35,5.02-1.35,0,0-3.66,2.98-3.25,3.25.41.27,8.26-3.01,8.26-3.01,0,0-7.98,6.46-6.7,6.59,1.29.13,4.33-2.44,4.33-2.44,0,0-5.95,8.05-4.81,8.12,1.15.07,5.21-5.55,5.21-5.55,0,0-.47.54,2.3.34,2.78-.2,3.52-1.72,3.52-1.72,0,0-.47,2.54-5.82,2.33,0,0-5.62,6.29-5.89,5.35-.27-.95,3.18-6.56,3.18-6.56,0,0-2.64,1.56-2.5-.14.14-1.69,4.02-4.53,4.02-4.53,0,0-5.82,2.73-5.83,1.5-.01-1.23,1.82-2.24,1.82-2.24,0,0-3.38,1.22-3.65.54-.27-.68,3.65-3.18,3.65-3.18"/>
    <path class="st10" d="M37.15,155.45s-4.4,4.93-3.18,4.9c1.22-.03,7.65-6.05,7.65-6.05,0,0-1.76,3.21-.61,3.03,1.15-.18,7.78-6.14,7.78-6.14,0,0-7.38,7.31-8.05,6.77-.68-.54-.54-1.42-.54-1.42,0,0-5.57,4.94-6.44,4.4-.87-.54.42-3.18,3.39-5.48"/>
    <path class="st10" d="M47.1,157.68s-1.22,1.56.95,1.42c2.16-.13,7.78-3.72,7.78-3.72,0,0-7.71,4.67-8.73,2.3"/>
    <path class="st10" d="M52.04,162.82s-2.37,3.66-1.42,3.35c.95-.31,1.42-.58,1.42-.58,0,0-5.68,9.27-4.6,9.34,1.08.07,8.39-7.16,8.39-7.16,0,0-8.12,9.12-8.8,7.83-.68-1.29,3.38-8.73,3.38-8.73,0,0-3.11.54,1.62-4.06"/>
    <path class="st10" d="M57.66,175.74s.54.63,1.35.25c.81-.38,5.89-4.37,5.89-4.37,0,0-3.59,4.58-2.16,4.49,1.42-.09,1.69-.37,1.69-.37,0,0-1.96,2.58-.74,2.45,1.22-.14,9.07-6.9,9.07-6.9,0,0-8.59,8.66-9.47,7.58s-.27-2.17-.27-2.17c0,0-1.35-.06-1.35-.71s.68-1.6.68-1.6c0,0-4.06,3.57-4.67,1.34"/>
    <path class="st10" d="M71.33,175.61s-6.09,7.99-5.01,7.92c1.08-.07,4.67-2.77,4.67-2.77,0,0-5.01,4.13-5.21,3.32-.2-.81,4.33-8.26,5.55-8.46"/>
    <path class="st8" d="M65.77,141.2s-5.07-1.09-6.56-3.17c-1.49-2.08-13.53-6.14-13.53-6.14,0,0,10.83,2.84,12.99,3.93,2.17,1.08,2.17,2.91,3.38,3.28,1.22.37,3.72,2.1,3.72,2.1"/>
    <path class="st8" d="M30.75,126.89s-3.5-2.71-7.35-3.38c-3.84-.68-4.63-.66-4.63-.66,0,0,5,1.35,6.48,2.02l1.48.67s-5.63-1.24-7.96-1.23h-2.33s4.57.42,6.96,1.23c2.38.81,7.53,2.68,9.42,3.17l1.9.49-3.97-2.3Z"/>
    <path class="st13" d="M130.68,177.91s1.33-.23,1,1.98c-.33,2.21-2.29,4.28-2.29,4.28,0,0,2.48-1.18,2.29,0-.19,1.18-2.05,2.21-7.89,4.47-5.84,2.26-17.34,3.08-17.34,3.08,0,0,9.34-2.31,14.75-4.75,5.41-2.44,8.66-5.55,8.93-6.5.27-.95.54-2.57.54-2.57"/>
    <path class="st13" d="M133.75,177.91s-.18.55,0,2.85c.18,2.3-.08,2.84-.08,2.84h1.34s.19-4.62-1.26-5.69"/>
    <path class="st13" d="M-4.98,191.73s-2.08,2.49,4.4,2.43c6.48-.07,12.3-2.61,16.89-2.43,4.58.19,16.66,0,16.66,0l-20.44,1.22s-22.59,6.82-17.51-1.21"/>
    <path class="st13" d="M23.4,194.16s26.04.07,32.43,0c6.38-.07,18.22.13,25.96.03,7.73-.1,16.19-2.78,16.19-2.78,0,0-3.8,4.58-40.32,4.24,0,0-39.47-1.5-34.26-1.49"/>
    <path class="st13" d="M155.89,171.28s8.93,12.96,2.42,20.44c-6.51,7.47-58.29,13.6-58.29,13.6,0,0,61.81.21,64.81-13.33,3-13.54-8.94-20.71-8.94-20.71"/>
    <path class="st13" d="M189.39,185.6s6.95,2.06,0,10.18c-6.95,8.13-24.07,9.54-24.07,9.54,0,0,31.82-1.59,32.02-11.17.2-9.58-7.94-8.56-7.94-8.56"/>
    <path class="st13" d="M174.61,178.96s5.34,3.08,4.94,6.94c-.4,3.87-4.94,7.63-4.94,7.63,0,0,16.83-8.29,0-14.57"/>
    <path class="st13" d="M129.46,210.04s26.43-4.24,31.69-6.6l5.26-2.36s-.38,6.13-36.96,8.96"/>
    <path class="st13" d="M55.73,215.22s26.45,1.42,44.29,0c17.84-1.42,19.07-1.89,19.07-1.89,0,0-44.13,7.54-57.09,8.01-12.96.47-6.28-6.13-6.28-6.13"/>
  </g>
  <g>
    <path class="st9" d="M92.56,254.8v-18.22h4.39c4.54,0,6.84,2.26,6.84,5.23s-2.28,5.28-6.34,5.28c-.79,0-1.61-.1-2.47-.24-.02,2.38-.05,6.19-.05,7.94h-2.38ZM95,245.27c.48.07.96.1,1.42.1,3.34,0,4.73-1.32,4.73-3.36s-1.39-3.43-4.51-3.43h-1.49c-.07,1.39-.1,4.03-.14,6.7Z"/>
    <path class="st9" d="M108.92,244.74c2.95,0,5.3-.05,6.6-.17v1.92c-1.3-.1-3.67-.14-6.62-.14-.02,2.35-.05,4.83-.05,6.38,3.1-.02,6.55-.1,8.59-.29l-.36,2.35h-10.61v-18.22h10.03v2.35c-1.3-.19-4.39-.26-7.44-.29-.07,1.32-.1,3.67-.14,6.1Z"/>
    <path class="st9" d="M131.44,252.38l-.34,2.42h-10.78v-18.22h2.66c-.22,2.81-.26,11.64-.29,16.08,3.1-.02,6.55-.1,8.74-.29Z"/>
    <path class="st9" d="M133.76,236.58h2.66c-.24,3.19-.29,14.52-.29,18.22h-2.38v-18.22Z"/>
    <path class="st9" d="M143.2,254.8h-2.38v-18.22h2.66c-.12,1.56-.24,5.02-.29,8.64.94-.07,4.32-3.74,8.26-8.64h3.05c-4.46,5.14-6.86,7.75-8.16,8.52,1.73,1.25,4.68,4.63,8.83,9.7h-3.43c-3.02-4.06-7.27-9.12-8.5-9.12-.02,3.65-.05,7.3-.05,9.12Z"/>
    <path class="st9" d="M160.96,249.04c-.7,1.9-1.39,3.82-2.04,5.76h-2.69c2.21-5.95,5.11-12.87,7.73-18.55h1.8c1.82,5.3,4.58,12.46,7.25,18.55h-2.95c-.79-1.94-1.49-3.86-2.18-5.76h-6.91ZM167.27,247.38c-1.03-2.83-1.97-5.45-2.66-7.73-.89,2.16-1.94,4.82-3.07,7.73h5.74ZM164.03,235.48l-1.22-.1,3.02-4.82h2.3l-4.1,4.92Z"/>
    <path class="st9" d="M177.66,254.8h-2.38v-18.22h2.83c1.9,2.38,3.72,4.8,5.54,7.22,1.58,2.11,3.14,4.22,4.68,6.36v-13.58h2.59c-.24,3.19-.34,14.47-.34,18.36h-1.75c-2.09-3.02-4.15-5.93-6.29-8.76-1.61-2.14-3.24-4.27-4.9-6.36v14.98Z"/>
  </g>
</svg>