<?xml version="1.0" encoding="UTF-8"?>
<svg id="Vrstva_1" xmlns="http://www.w3.org/2000/svg" xmlns:xlink="http://www.w3.org/1999/xlink" version="1.1" viewBox="0 0 283.46 283.46">
  <!-- Generator: Adobe Illustrator 30.1.0, SVG Export Plug-In . SVG Version: 2.1.1 Build 136)  -->
  <defs>
    <style>
      .st0 {
        fill: none;
      }

      .st1 {
        fill: #871912;
      }

      .st2 {
        fill: #766e6f;
      }

      .st3 {
        fill: #b9b8b8;
      }

      .st4 {
        fill: #ae3627;
      }

      .st5 {
        fill: #382423;
      }

      .st6 {
        fill: #929191;
      }

      .st7 {
        fill: #af1e1f;
      }

      .st8 {
        fill: #ba452f;
      }

      .st9 {
        fill: #bc6e2d;
      }

      .st10 {
        fill: #6b7235;
      }

      .st11 {
        clip-path: url(#clippath-1);
      }

      .st12 {
        clip-path: url(#clippath-3);
      }

      .st13 {
        clip-path: url(#clippath-2);
      }

      .st14 {
        fill: #46471d;
      }

      .st15 {
        fill: #fff;
      }

      .st16 {
        fill: #4f4f25;
      }

      .st17 {
        fill: #a11d1d;
      }

      .st18 {
        fill: #1e1515;
      }

      .st19 {
        fill: #771611;
      }

      .st20 {
        fill: #adacac;
      }

      .st21 {
        clip-path: url(#clippath);
      }
    </style>
    <clipPath id="clippath">
      <rect class="st0" x="19.84" y="19.84" width="243.78" height="243.78"/>
    </clipPath>
    <clipPath id="clippath-1">
      <rect class="st0" x="68.76" y="76.73" width="2.19" height="4"/>
    </clipPath>
    <clipPath id="clippath-2">
      <rect class="st0" x="68.85" y="76.21" width=".64" height="2.31"/>
    </clipPath>
    <clipPath id="clippath-3">
      <rect class="st0" x="19.84" y="19.84" width="243.78" height="243.78"/>
    </clipPath>
  </defs>
  <rect class="st10" x="19.84" y="19.84" width="243.78" height="243.78"/>
  <g class="st21">
    <path class="st14" d="M151.12,49.69c2.77,0,12.78,19.35,12.85,29.15.07,9.79,0,15.97,0,15.97,0,0-15,7.07-20.59-2.94l-5.58-10.01s1.4,3.08-.99,10.01l-2.39,6.92s-4.82,12.4-5.8-6.92c-.98-19.32,3.44-33.71,3.44-33.71,0,0-.17,10.37-9.87,15.5-9.7,5.13-6.43,8.3-6.43,8.3,0,0-9.65-17.04-3.06-26.77,6.6-9.72-16.83-10.72-16.83-10.72,0,0,1.79,57.42.73,62.65l-1.06,5.23-30.28-33.42s-9.96-4.65-.72-23.74c9.24-19.1,8.09-25.82,8.09-25.82l-26.77,11.01s4.16,80.92,6.15,97.6l1.99,16.68-31.99-37.78L10.81,14.98h139.74l.57,34.71Z"/>
    <path class="st16" d="M79.29,267.2s.89-29.15,8.12-33.01l7.22-3.86s27.46,22.13,31.08,30.87c3.63,8.74,53.95-2.93,53.95-2.93,0,0,4.77-10.85,15.32-19.82l10.55-8.97s12.51,3.16,10.91,20.44l-1.6,17.28,16.08-18.86,6.05,21.84s-2.45,8.45,4.15-11.89c6.61-20.34,10.12-15.59,10.12-15.59,0,0,10.77,14.49,11.4,18.5.62,4.01,6,10.73,6,10.73l-189.36-4.73Z"/>
    <path class="st16" d="M17.69,191.71s1.95-21.02,8.96-33.53c7.02-12.51,21.41-10.38,21.41-10.38,0,0,8.37,29.61,1.22,43.79l-7.15,14.18s8.08-26.02,18.01-27.82l9.93-1.81s4.25,14.69-2.58,23.79c-6.83,9.09-10.7,12.1-10.7,12.1,0,0,6.3-7.82,22.49-7.88l16.19-.07s-7.21,18.42-19.69,21.06c-12.48,2.64-15.64,0-15.64,0h28.22s-11.26,14.49-24.6,13.5c-13.34-.99-21.84,0-21.84,0l18.23,22.56s6.6-18.82,10.81-18.5l4.2.33s6.67,15.03,7.57,19.6l.9,4.57H16.67l1.03-75.49Z"/>
    <path class="st16" d="M22.67,36.04s26.75,50.83,29.46,65.41c2.71,14.59,4.66,22.4,4.66,22.4,0,0-25.66-5.55-30.74-24.46l-5.08-18.91s12.7,32.02,12.7,48.6v16.58l-25.4-15.32L2.35,2.59l27.22,4.23-6.9,29.21Z"/>
    <path class="st16" d="M22.67,26.66s2.77,20.11,10.05,27.73c7.28,7.63,14.56,13.17,14.56,13.17,0,0,2.77-12.48,0-28.43-2.77-15.95-6.59-22.2-6.59-22.2h24.61s0,18.04,3.47,33.3c3.47,15.25,20.11,34.32,20.11,34.32,0,0,2.08-16.99,2.08-30.16s-5.2-37.46-5.2-37.46h9.01s-1.04,27.4,1.39,39.53c2.43,12.13,3.12,13.52,3.12,13.52,0,0,10.05-19.76,11.09-31.55,1.04-11.79,0-23.23,0-23.23l18.03,1.72s-3.12,18.74,2.08,30.18c5.2,11.44,11.79,15.25,11.79,15.25,0,0,3.12-6.59,4.16-16.64,1.04-10.05-2.08-30.51-2.08-30.51h21.49s-.35,16.29,12.13,24.96c12.48,8.67,16.99,9.71,16.99,9.71,0,0,.35-17.68-1.39-24.61-1.73-6.93-4.51-10.05-4.51-10.05H22.67v11.44Z"/>
    <path class="st16" d="M21.34,129.03s5.64,16.01,5.64,22.46-1.91,19.83,0,24.85c1.91,5.02,1.91,13.38,8.36,13.86,6.45.48,6.45.72,16.96,4.3,10.51,3.58,49.46,18.4,57.34,18.88,7.88.48,11.23,1.43,14.57,4.3,3.35,2.87,17.68,10.99,23.41,14.33,5.73,3.35,22.46,12.19,28.19,12.9,5.73.72,22.46-1.67,28.43,0,5.97,1.67,9.08,2.63,12.19,5.02,3.1,2.39,20.07,6.93,20.07,6.93l26.76,8.36v15.21s-37.75-6.38-39.9-9c-2.15-2.63-6.16-8.12-14.31-8.12s-13.4-2.63-18.66-3.82c-5.26-1.19-30.15-6.45-39.68-11.71-9.54-5.26-28.89-18.88-33.19-19.59q-4.3-.72-7.41-2.39c-3.11-1.67-43.72-16.25-60.93-19.59-17.2-3.34-25.15-2.63-27.86-5.26-2.72-2.63-7.5-23.42-7.74-31.78-.24-8.36.24-24.61.48-32.97.24-8.36-.54-11.94-.54-11.94l7.8,4.78Z"/>
    <path class="st14" d="M129.6,202.34c-.36,1.22-18.64,25.65-25.53,33.29-6.9,7.63-24.79,31.57-24.79,31.57h96.94s9.71-25.72,14.7-35.65c4.99-9.92,17.97-54.14,18.48-74.15.51-20.01-4.07-49.63,2.29-76.17,6.36-26.54,15.27-66.01,15.27-66.01h-29.52s-5.65,39.73-6.52,53.72c-.86,14,.16,14.25-2.9,27.74-3.05,13.49-8.73,38.16-9.96,42.62-1.23,4.46-48.46,63.04-48.46,63.04"/>
    <path class="st16" d="M120.16,243.77s16.99-2.54,31.61-12.47c14.63-9.92,10.55-10.74,20.22-17.33,9.67-6.59,15.97-49.85,18.93-71.99,2.95-22.14,3.16-29.27,3.95-27.74.79,1.53-2.77,51.26-5.32,68.13-2.55,16.87-7.31,32.65-13.33,41.04-6.01,8.4-5.77,3.82-9.58,11.96-3.81,8.14-22.51,34.57-22.51,34.57h-54.1s27.31-25.63,30.12-26.17"/>
    <path class="st8" d="M112.41,220.03s1.9.44,3.51,0c1.61-.44,4.24-1.78,6.87-1.77,2.63.01,3.81,1.77,5.56,2.5,1.75.73,4.24.57,4.24-1.25s-2.34-6.79-4.97-6.94c-2.63-.15-8.77-.73-9.36,0-.58.73-5.85,7.46-5.85,7.46"/>
    <path class="st8" d="M127.47,202.34s-18.57,11.55-19.01,13.16c-.44,1.61-.15,10.67,0,12.57.15,1.9-2.63,4.83-2.63,6s5.99-6.43,6.58-7.9c.58-1.46.44-5.12,1.61-6.73,1.17-1.61,5.85-4.83,8.04-6.43,2.19-1.61,6.29-3.95,6.29-3.95l-.88-6.73Z"/>
    <path class="st1" d="M105.83,178.94s3.95,3.51,5.7,4.24c1.75.73,8.48,6.14,10.82,11.26,2.34,5.12,2.34,6.73,4.09,7.9,0,0-.29,7.02,3.51,7.46,3.8.44,2.92-.73,5.7-.88,2.78-.15,9.5-2.93,9.94-8.04.44-5.12,0-6.46,0-6.46,0,0,4.39,4.85,11.55,3.39,7.16-1.46,8.63-6.73,8.63-6.73,0,0,6.43,3.46,8.63,3.34l2.19-.12s7.16,3.51,12.13,2.78c4.97-.73,5.26-1.61,5.26-1.61l-14.62-18.86-33.48-2.63h-31.87l-9.94.88,1.75,4.1Z"/>
    <path class="st17" d="M124.25,191.93s-8.19-7.73-7.02-9.77c1.17-2.05,2.34-2.05,7.75-1.9,5.41.15,13.89,3.14,15.64,5.81,1.76,2.67,2.49,15.1-1.02,16.56-3.51,1.46-8.77,0-9.07-2.19-.29-2.19-5.56-2.53-6.29-8.5"/>
    <path class="st17" d="M149.03,181.72s1.83,3.95,2.71,6.43c.88,2.49,3.66,5.7,5.7,4.68,2.05-1.02,2.49-4.39,2.19-7.46-.29-3.07-4.53-3.95-6.58-4.24s-3.8-1.32-4.02.58"/>
    <path class="st17" d="M166.65,183.18c.09.85,8.04,8.87,8.92,8.53l.88-.34s.15-1.02,1.32-.44c1.17.58,8.19,3.46,8.04,2.1-.15-1.37-19.59-13.94-19.15-9.85"/>
    <path class="st19" d="M129.6,177.33s10.73,2.46,13.36,5.03c2.63,2.57,2.63,12.05,2.63,12.05,0,0,1.61-3.95,1.61-8.54s-1.17-7.37-2.78-8.54c-1.61-1.17-14.82,0-14.82,0"/>
    <path class="st4" d="M129.6,219.44s2.55-.95,2.69.99c.15,1.94-2.69,4.72-2.69,4.72,0,0,.68-3.66,0-5.7"/>
    <path class="st4" d="M125.71,206.72s-.31.82-3.22,3.17c-2.9,2.35-10.82,7.63-10.67,8.37.15.74.44,3.31-.44,2.9-.88-.41-.03-1.43-.6-3.62,0,0,14.93-10.09,14.93-10.82"/>
    <path class="st18" d="M70.01,143.12s.58,7.9,2.49,13.31c1.9,5.41,9.65,16.96,18.42,21.2,0,0,2.49,1.76,9.65,1.76s5.41-2.36,8.04-2.57c2.63-.21,7.46,1.54,14.33,1.54s30.69,3.66,43.71.44c0,0,9.13,1.91,12.43,1.8,0,0,27.34,32.56,30.41,35.19,3.07,2.63,15.06,27.49,22.95,26.9,7.9-.58,9.5-4.53,9.5-4.53,0,0,17.4,2.19,11.4-13.01,0,0-29.24-32.36-36.55-38.33l-18.72-14.89-56-41.57-46.2,4.14-23.69,6.14-2.19,2.49Z"/>
    <path class="st5" d="M191.8,186.53s32.61,47.39,37.14,49.59c4.53,2.19,8.04,2.34,8.04,2.34,0,0-3.07-10.77-15.21-28.56-12.14-17.79-21.06-24.28-21.06-24.28,0,0-8.48,1.41-9.8,0l.88.91Z"/>
    <path class="st5" d="M204.23,185.62s5.56,1.32,7.16,1.2l1.61-.12s24.86,28.95,28.37,36.11c3.51,7.17,5.26,11.38,5.26,11.38,0,0-7.31-.56-11.84-6.7-4.53-6.14-20.91-31.05-23.39-34.09-2.49-3.04-7.16-7.78-7.16-7.78"/>
    <path class="st5" d="M78.63,151.89s9.8,4.68,15.79,5.41c5.99.73,9.65-2.7,9.65-2.7,0,0-3.51,1.68-8.33,1.1-4.83-.58-15.06-3.8-15.06-3.8h-2.05Z"/>
    <path class="st5" d="M91.35,151.16s10.24,2.63,14.48,2.19c4.24-.44,4.96-1.46,4.96-1.46,0,0-11.83,1.46-18.7-1.9l-.73,1.17Z"/>
    <path class="st5" d="M105.83,148.38s5.56,2.05,7.9,1.61c2.34-.44,3.39-.77,3.39-.77,0,0-8.07,1.07-10.27-1.42l-1.02.59Z"/>
    <path class="st5" d="M115.04,145.17s1.46.88,4.97,0c3.51-.88,3.95-1.46,3.95-1.46,0,0-7.02,1.75-8.92,0v1.46Z"/>
    <path class="st5" d="M84.77,164.47s4.68,3.22,8.19,3.65c3.51.44,4.39-1.83,4.39-1.83,0,0,.15,4.02-4.39,3.88-4.53-.15-10.23-5.7-10.23-5.7h2.05Z"/>
    <path class="st5" d="M98.52,163.74s7.9,2.05,10.38,1.46c2.49-.58,2.57-3.07,2.57-3.07,0,0,1.52,4.09-3.16,4.09s-11.55-2.05-11.55-2.05l1.75-.44Z"/>
    <path class="st5" d="M107.29,156.72c.44.29,7.38,3.65,9.83,3.65h3.04s-9.65-3.07-11.99-4.53l-.88.88Z"/>
    <path class="st5" d="M111.71,154.65s6.4,3.39,10.06,3.46l3.66.07s-9.07-.6-13.01-4.78l-.7,1.24Z"/>
    <path class="st5" d="M117.09,151.89s7.46,3.36,11.26,3.95l3.8.59s-9.06-.19-15.06-3.02l-2.05-1.51h2.05Z"/>
    <path class="st5" d="M121.62,149.99s10.24,4.24,13.3,4.17c0,0-8.77.22-13.3-3.29v-.88Z"/>
    <path class="st5" d="M123.96,164.47s12.43,5.26,37.43,9.5c25,4.24,19.03,3.98,19.03,3.98,0,0-40.96-6.17-57.92-12.9l1.46-.58Z"/>
    <path class="st5" d="M130.95,160.37s40.08,12.57,45.28,13.6l5.19,1.02s-14.15-.15-51.82-13.74l1.35-.88Z"/>
    <path class="st5" d="M116.21,168.56s11.79,4.1,22.2,5.41c10.41,1.32,12.31,1.02,12.31,1.02,0,0-5.85,3.37-35.68-4.82l-3.57-1.03,4.74-.59Z"/>
    <path class="st20" d="M123.59,135.08s2.41,5.56,8.99,8.63c6.58,3.07,15.35,10.09,20.47,10.45,0,0,30.27,19.67,34.21,19.08l15.06-1.12s2.19-3.85,1.9-6.92c-.29-3.07-6.73-11.03-6.73-11.03,0,0-23.45-28.45-35.19-28.88-11.74-.44-38.72,9.8-38.72,9.8"/>
    <path class="st6" d="M184.78,170.17s6.73,6.35,10.53,7.78c3.8,1.43,6.14,0,6.14,0,0,0,3.6,6.1,7.02,5.52,0,0,9.07,6.24,8.33,3.34-.73-2.9-7.46-10-7.46-10,0,0-.15-2.81-1.17-5.6-1.02-2.8-3.95-6.01-3.95-6.01,0,0-1.04,5.27-4.97,4.97-3.93-.3-4.39,0-4.39,0,0,0-4.97,1.76-10.09,0"/>
    <path class="st6" d="M167.82,150.05c-.02-1.12,6.58,7.16,14.91,7.35,8.33.19,12.13-.98,12.13-.98,0,0-6.29,1.75-18.64,1.75,0,0-8.26-.46-8.4-8.13"/>
    <path class="st6" d="M149.03,129.08s5.72,8.19,13.28,9.65c7.56,1.46,17.36,0,17.36,0,0,0-6.73,3.07-18.28,1.32-11.55-1.76-14.18-10.38-14.18-10.38l1.83-.59Z"/>
    <path class="st6" d="M144.14,147.8s9.96,2.84,15.58,2.15l5.62-.69s-4.38,2.83-10.6,2.44c-6.21-.39-10.6-3.9-10.6-3.9"/>
    <path class="st6" d="M163.44,160.37s10.97,3.95,14.77,3.8c3.8-.15,4.53,0,4.53,0,0,0-4.83,1.09-9.65.29-4.82-.8-9.65-4.1-9.65-4.1"/>
    <path class="st7" d="M41.64,83.9s-2.34-4.82-2.63-7.16c0,0-1.46-1.02-1.61-4.82-.15-3.8,1.61-12.57,3.65-13.89,0,0,2.63-5.56,5.41-7.46l2.78-1.9s1.32-2.49,4.53-2.93c3.22-.44,4.24,0,4.24,0,0,0,5.7-2,8.33-.19,2.63,1.8,5.7,6.04,5.7,6.04,0,0,4.97,4.09,5.41,5.99.44,1.9.88,5.7,2.34,6.14,1.46.44,23.9,3.8,37.32,32.9,0,0,3.19,5.7,6.47,7.16,3.29,1.46,37.3,17.11,38.72,21.49,0,0,1.8,1.32,0,1.61-1.8.29-2.53,0-2.53,0l-44.74-21.05-58.19-17.98-15.21-3.95Z"/>
    <path class="st17" d="M39.89,73.38s-.58-1.61,0-4.68c.58-3.07-.44-6,1.17-7.17l1.61-1.17s1.32-4.82,3.36-6.43c2.05-1.61,3.51-1.9,3.51-1.9,0,0-.88-3.95,2.78-4.39,3.65-.44,5.12,0,5.12,0,0,0,2.34-1.32,5.56-1.17,3.22.15,7.02,4.82,7.02,4.82,0,0,3.95,2.05,5.12,5.56,1.17,3.51,2.05,6.29,4.39,7.6,2.34,1.32,3.07,2.49,3.07,2.49,0,0-4.53.58-6.29,2.05l-1.75,1.46s-6.14-.44-8.63.73c-2.49,1.17-2.49,5.12-2.49,5.12,0,0-.88,5.7,2.34,7.17,3.22,1.46,7.9.15,9.21-2.19,1.32-2.34,1.17-4.24,1.17-4.24,0,0,7.16-.15,10.38-1.32,3.22-1.17,7.31-.29,10.24,1.32,2.92,1.61,9.65,14.62,12.72,18.57,3.07,3.95,7.75,9.94,13.01,11.99,5.26,2.05,33.42,14.13,34.95,16.52,1.52,2.39,1.02,5.26,0,5.7-1.02.44-1.93-.73-1.93-.73,0,0-1.43.93-2.02.83l-.59-.1s-2.62.87-2.89.54c-.27-.34-1.49,0-1.49,0,0,0,.84,4.1-.39,4.49-1.22.39-4-.64-4-.64,0,0-1.05,1.35-2.94-.57,0,0-3.06.89-4.08,0,0,0-2.78,3.2-6,2.76,0,0-3.36,1.61-4.82-.73,0,0-3.22,2.49-4.68,1.9l-1.46-.59s-3.66.62-5.12.67l-1.46.06s-.41,2.19-2.1,2.19-2.28-.58-2.28-.58c0,0-1.02,1.76-2.78.58,0,0-3.36-.36-4.24.4-.88.77-2.49.53-3.8.28-1.32-.25-2.19-2-2.19-2,0,0-1.17,1.9-2.49,1.02-1.32-.88-2.34-.15-2.34-.15,0,0-2.92.73-3.22-.15,0,0-1.46,1.52-3.36,1.27-1.9-.25-3.07-.69-3.07-.69,0,0-1.32.98-2.19.93l-.88-.05s-1.46,1.61-2.78,1.17l-1.32-.44s-1.61,2.49-2.49,2.19l-.88-.29s.84,6.35-.46,5.52c-1.3-.84-5.68-14.17-4.37-23.66,1.32-9.49,5.7-13.73,4.68-17.82-1.02-4.09-9.5-13.89-10.67-14.48-1.17-.59-4.79-3.22-5.56-4.53-.76-1.32-13.16-4.53-13.16-4.53,0,0-2.92-7.46-1.75-10.53"/>
    <path class="st19" d="M42.81,87.27s7.44,1.07,8.77.59c0,0,.88,1.32,3.8,3.07,2.92,1.76,5.26,2.78,6.72,5.41s9.09,10.83,9.06,11.99c-.03,1.16.3-5.12-4.38-10.53-4.68-5.41-11.11-11.7-11.84-14.18-.73-2.49-2.92-1.61-4.09-.88-1.17.73-8.04,1.47-8.04,1.47,0,0-.88,1.74,0,3.06"/>
    <path class="st9" d="M41.64,83.9s-.58,3.22,0,3.8c.58.59,1.9,0,1.9,0,0,0-1.17-1.59-.73-3.5l-1.17-.3Z"/>
    <path class="st1" d="M71.17,101.6s6.3,7.01,8.93,6.87c2.63-.14,6.43-3.5,6.87-5.26l.44-1.75s-1.61,3.21-5.7,3.51c-4.09.29-10.54-3.36-10.54-3.36"/>
    <path class="st1" d="M77.46,112.85s3.36,2.19,3.8,4.39c.44,2.19-4.24,6.73-6.87,11.11-2.63,4.39-3.66,6.68-3.95,6.49-.29-.2-.58-6.19,2.78-12.33,3.36-6.14.89-9.65,2.56-9.65h1.68Z"/>
    <path class="st1" d="M77.17,96.77s5.35,1.29,8.01-.16c2.66-1.45,2.37-9.7,2.95-8.64.59,1.06.15,8.22-2.48,10.56-2.63,2.34-11.11-.79-11.11-.79l2.63-.96Z"/>
    <path class="st1" d="M72.93,65.92s-3.51-.15-4.68-1.9c-1.17-1.75-7.75-3.07-10.67-3.07s-5.26,2.49-5.26,2.49c0,0-1.57-3.36,4.48-3.66,6.05-.29,10.73,0,12.19,1.9,1.46,1.9,3.95,4.24,3.95,4.24"/>
    <path class="st19" d="M73.68,75.52s-.47-2.15-2.51-2.62c-2.05-.47-5.08-.11-6.19,1.68-1.1,1.78-1.09,5.76,0,7.39,1.09,1.62,5.19,1.36,7.18.47,1.99-.89,2.03-5.76,1.52-6.92"/>
    <path class="st1" d="M71.17,73.69s-4.04-.37-5.03.73c-1,1.1-1.42,6.03-.31,7.55,1.1,1.52,5.56.63,6.45-.42.89-1.05,1.17-4.82.67-5.87-.51-1.05-.87-1.94-1.76-1.99"/>
    <path class="st9" d="M71.9,80.39s-1.05,1.57-3.57,1.57-2.41-2.92-2.51-3.76c-.1-.85.63-3.26,2.46-3.31,1.83-.05,3.41.63,3.62,2.36.21,1.73.11,2.25,0,3.15"/>
    <path class="st20" d="M67.29,80.81s-1.08-1.83-.63-3.67c.45-1.84,3.2-1.73,3.98-.99.79.73,1.17,3.21,0,4.45-1.17,1.25-2.88.26-3.35.21"/>
    <path class="st18" d="M68.39,80.29s-.89-.6-.89-1.85.76-1.72,1.56-1.72,1.06,1.63.95,2.57c-.1.94-1,1.05-1.62,1"/>
  </g>
  <g class="st11">
    <path class="st3" d="M70.22,76.73s.42,1.31.32,2.52c-.11,1.2-1.77,1.36-1.77,1.36.24.08.45.12.64.12h.05c1.23-.02,1.49-1.51,1.5-2.49v-.05c0-1.13-.73-1.46-.73-1.46"/>
  </g>
  <g class="st13">
    <path class="st3" d="M69.14,76.21c-.12,0-.22.09-.22.09-.02.16-.04.3-.05.44.06,0,.12,0,.18,0,.17,0,.31.07.43.19,0,0,0-.01,0-.02-.03-.57-.2-.69-.35-.69"/>
    <path class="st2" d="M69.06,76.73c-.06,0-.12,0-.18,0-.01.18-.02.35-.02.5v.08c0,1.03.33,1.2.35,1.2,0,0,.35-.59.29-1.6-.12-.12-.26-.19-.43-.19"/>
  </g>
  <g class="st12">
    <path class="st1" d="M59.95,81.23s-.37,1.04-.21,2.67c.16,1.63,1,3.3,2.31,3.62,1.31.32,2.03-.06,2.11.44.09.5-2.17.73-3.58-.09-1.42-.82-2.15-6.43-.63-6.64"/>
    <path class="st16" d="M82.73,7.67s2.2,15.01,7.31,27.94c5.11,12.93,8.97,14.27,8.97,14.27,0,0,.03-7.5,2.06-25.28l2.03-17.78h9.31s4.3,24.06,11.19,32.17c6.88,8.12,28.18,10.89,28.18,10.89l-9.68-38.82h23.25l7.75,17.3s-1.97,14.88,0,25.88l1.97,11s11.46-39.09,7-50.02c-4.46-10.93-99.33-7.55-99.33-7.55"/>
    <path class="st16" d="M7.79,187.7s10.42-17.39,20.87-19.52c10.45-2.13,13.25-4.09,13.25-4.09,0,0-2.29,19.18-4.66,27.5-2.37,8.32-9.71,5.6-9.71,5.6l21.74-5.6s3.55,5.91,1.65,16.67c-1.9,10.76-43.14,34.3-43.14,34.3,0,0,10.57-.75,34.12-3.92,23.56-3.17,21.84,0,21.84,0,0,0-21.25,31.54-44.96,31.54s-37.25-7.1-37.25-7.1l5.93-62.5,20.32-12.88Z"/>
    <path class="st14" d="M134.92,15.22s1.27,29.1,3.48,34.67l2.21,5.57-5.69-40.24Z"/>
    <path class="st14" d="M75.79,14.98s1.41,28.85,3.5,36.48l2.09,7.63-2.79-44.11h-2.79Z"/>
    <path class="st14" d="M93,14.02s6.13,17.45,7.25,26.17c1.11,8.72.82,9.69.82,9.69,0,0-3.01-22.56-3.72-28.67-.71-6.11-4.34-7.2-4.34-7.2"/>
    <path class="st14" d="M29.57,14.02s5.27,19.26,7.82,27.99l2.55,8.72-6.91-35.98-3.47-.73Z"/>
    <path class="st14" d="M13.54,59.68s15.13,24.36,23.85,38.05l8.73,13.69S14.02,71.54,13.54,59.68"/>
    <path class="st14" d="M176.23,14.02l13.09,25.44s-7.64-25.08-13.09-25.44"/>
    <polygon class="st14" points="204.26 244.9 189.32 269.94 193.99 269.94 204.26 244.9"/>
    <path class="st14" d="M248.92,250.7s5.94,18.56,5.69,20.87c-.24,2.31-.96-20.22-5.69-20.87"/>
    <path class="st14" d="M37.39,155.79s.9,24.62-2.63,35.92c-3.54,11.3-15.53,15.72-15.53,15.72,0,0,18.42-10.64,18.17-51.64"/>
    <path class="st14" d="M59.1,191.71s-16.74,11.63-17.72,20.32c-.98,8.69,17.72-20.32,17.72-20.32"/>
    <path class="st14" d="M75.79,216.69s-30.39,9.22-27.48,9.94c2.91.73,27.48-9.94,27.48-9.94"/>
  </g>
  <g>
    <path class="st15" d="M95.53,239.75c-.89-.82-2.28-1.22-3.5-1.22-1.9,0-2.98,1.1-2.98,2.71,0,3.89,7.42,3.65,7.42,8.86,0,3.22-2.64,5.06-5.71,5.06-2.04,0-3.65-.79-4.78-1.73v-1.66c1.2.67,2.9,1.18,4.37,1.18,1.99,0,3.48-.94,3.48-2.76,0-3.58-7.42-3.24-7.42-8.79,0-3.14,2.59-5.18,5.76-5.18,1.37,0,2.52.26,3.36.53v3Z"/>
    <path class="st15" d="M102.25,254.8h-2.38v-18.22h2.66c-.12,1.56-.24,5.02-.29,8.64.94-.07,4.32-3.74,8.26-8.64h3.05c-4.46,5.14-6.86,7.75-8.16,8.52,1.73,1.25,4.68,4.63,8.83,9.7h-3.43c-3.02-4.06-7.27-9.12-8.5-9.12-.02,3.65-.05,7.3-.05,9.12Z"/>
    <path class="st15" d="M120.01,249.04c-.7,1.9-1.39,3.82-2.04,5.76h-2.69c2.21-5.95,5.11-12.87,7.73-18.55h1.8c1.82,5.3,4.58,12.46,7.25,18.55h-2.95c-.79-1.94-1.49-3.86-2.18-5.76h-6.91ZM126.32,247.38c-1.03-2.83-1.97-5.45-2.66-7.73-.89,2.16-1.94,4.82-3.07,7.73h5.74Z"/>
    <path class="st15" d="M145.45,252.38l-.34,2.42h-10.78v-18.22h2.66c-.22,2.81-.26,11.64-.29,16.08,3.1-.02,6.55-.1,8.74-.29Z"/>
    <path class="st15" d="M150.15,254.8h-2.38v-18.22h2.83c1.9,2.38,3.72,4.8,5.54,7.22,1.58,2.11,3.14,4.22,4.68,6.36v-13.58h2.59c-.24,3.19-.34,14.47-.34,18.36h-1.75c-2.09-3.02-4.15-5.93-6.29-8.76-1.61-2.14-3.24-4.27-4.9-6.36v14.98ZM154.81,235.46l-2.9-4.82,1.22-.1,2.62,3.1,2.62-3.1,1.1.1-2.93,4.82h-1.73Z"/>
    <path class="st15" d="M170.29,249.04c-.7,1.9-1.39,3.82-2.04,5.76h-2.69c2.21-5.95,5.11-12.87,7.73-18.55h1.8c1.82,5.3,4.58,12.46,7.25,18.55h-2.95c-.79-1.94-1.49-3.86-2.18-5.76h-6.91ZM176.6,247.38c-1.03-2.83-1.97-5.45-2.66-7.73-.89,2.16-1.94,4.82-3.07,7.73h5.74ZM173.36,235.48l-1.22-.1,3.02-4.82h2.3l-4.1,4.92Z"/>
    <path class="st15" d="M186.99,254.8h-2.38v-18.22h2.66c-.12,1.56-.24,5.02-.29,8.64.94-.07,4.32-3.74,8.26-8.64h3.05c-4.46,5.14-6.86,7.75-8.16,8.52,1.73,1.25,4.68,4.63,8.83,9.7h-3.43c-3.02-4.06-7.27-9.12-8.5-9.12-.02,3.65-.05,7.3-.05,9.12Z"/>
  </g>
</svg>