<?xml version="1.0" encoding="UTF-8"?>
<svg id="Vrstva_1" xmlns="http://www.w3.org/2000/svg" version="1.1" viewBox="0 0 100 18.8">
  <!-- Generator: Adobe Illustrator 30.1.0, SVG Export Plug-In . SVG Version: 2.1.1 Build 136)  -->
  <defs>
    <style>
      .st0 {
        fill: #fff;
      }
    </style>
  </defs>
  <g>
    <path class="st0" d="M4.5,2.51c.96,0,1.79.16,2.49.49.7.33,1.24.79,1.62,1.39.38.6.57,1.32.57,2.15s-.19,1.57-.57,2.17c-.38.6-.92,1.06-1.62,1.39-.7.33-1.53.49-2.49.49H.97v5.7H-.08V2.51h4.58ZM4.37,9.61c1.21,0,2.13-.27,2.76-.8.63-.54.94-1.29.94-2.27s-.31-1.73-.94-2.27c-.63-.54-1.55-.81-2.76-.81H.97v6.14h3.41Z"/>
    <path class="st0" d="M12.6,16.29V2.51h9.42v.96h-8.38v5.33h6.62v.98h-6.62v5.56h8.71v.96h-9.76Z"/>
    <path class="st0" d="M26.85,2.51v13.79h-1.04V2.51h1.04ZM35.79,2.51l-5.77,5.91-.17.17-3.55,3.61v-1.42l8.11-8.27h1.38ZM30.11,7.73l5.83,8.57h-1.27l-5.39-7.94.84-.63Z"/>
    <path class="st0" d="M43,2.3c1.27,0,2.34.25,3.21.75s1.54,1.27,2,2.3l-.88.67c-.4-.98-.97-1.68-1.7-2.11-.73-.43-1.63-.65-2.71-.65-.82,0-1.52.13-2.09.39-.57.26-1,.6-1.3,1.02-.29.43-.44.9-.44,1.43,0,.63.2,1.15.62,1.58.41.43,1.18.76,2.31,1.01l2.7.58c1.35.29,2.3.71,2.85,1.25s.83,1.25.83,2.13c0,.75-.22,1.42-.66,2.01s-1.04,1.04-1.81,1.36c-.77.32-1.66.48-2.69.48s-1.87-.14-2.64-.41c-.77-.27-1.42-.65-1.95-1.15-.53-.49-.92-1.09-1.17-1.79l.92-.71c.19.65.52,1.22.97,1.68.45.47,1.01.82,1.68,1.05.67.24,1.41.36,2.24.36.78,0,1.48-.11,2.09-.32.61-.22,1.09-.53,1.43-.95.34-.42.51-.93.51-1.55s-.21-1.08-.62-1.48-1.14-.71-2.18-.92l-2.84-.63c-.88-.19-1.59-.45-2.13-.77s-.94-.71-1.18-1.16c-.24-.45-.37-.96-.37-1.54,0-.71.2-1.36.61-1.95.4-.59.98-1.07,1.73-1.43.75-.36,1.64-.54,2.67-.54Z"/>
    <path class="st0" d="M52.09,16.29V2.51h9.42v.96h-8.38v5.33h6.62v.98h-6.62v5.56h8.71v.96h-9.76Z"/>
    <path class="st0" d="M69.55,2.3c1.27,0,2.34.25,3.21.75s1.54,1.27,2,2.3l-.88.67c-.4-.98-.97-1.68-1.7-2.11-.73-.43-1.63-.65-2.71-.65-.82,0-1.52.13-2.09.39-.57.26-1,.6-1.3,1.02-.29.43-.44.9-.44,1.43,0,.63.2,1.15.62,1.58.41.43,1.18.76,2.31,1.01l2.7.58c1.35.29,2.3.71,2.85,1.25s.83,1.25.83,2.13c0,.75-.22,1.42-.66,2.01s-1.04,1.04-1.81,1.36c-.77.32-1.66.48-2.69.48s-1.87-.14-2.64-.41c-.77-.27-1.42-.65-1.95-1.15-.53-.49-.92-1.09-1.17-1.79l.92-.71c.19.65.52,1.22.97,1.68.45.47,1.01.82,1.68,1.05.67.24,1.41.36,2.24.36.78,0,1.48-.11,2.09-.32.61-.22,1.09-.53,1.43-.95.34-.42.51-.93.51-1.55s-.21-1.08-.62-1.48-1.14-.71-2.18-.92l-2.84-.63c-.88-.19-1.59-.45-2.13-.77s-.94-.71-1.18-1.16c-.24-.45-.37-.96-.37-1.54,0-.71.2-1.36.61-1.95.4-.59.98-1.07,1.73-1.43.75-.36,1.64-.54,2.67-.54Z"/>
    <path class="st0" d="M84.11,2.3c1.31,0,2.44.29,3.38.87.95.58,1.68,1.4,2.19,2.45.52,1.06.78,2.32.78,3.78s-.26,2.72-.78,3.78c-.51,1.06-1.24,1.88-2.19,2.45-.95.58-2.07.87-3.38.87s-2.42-.29-3.37-.87c-.95-.58-1.69-1.4-2.2-2.45s-.77-2.32-.77-3.78.26-2.72.77-3.78,1.25-1.88,2.2-2.45c.95-.58,2.08-.87,3.37-.87ZM84.11,3.26c-1.07,0-2,.25-2.79.74-.79.49-1.39,1.2-1.82,2.12-.43.92-.64,2.01-.64,3.28s.21,2.36.64,3.28c.42.92,1.03,1.63,1.82,2.12s1.72.74,2.79.74,2.02-.25,2.8-.74c.78-.49,1.39-1.2,1.82-2.12.43-.92.65-2.01.65-3.28s-.21-2.36-.65-3.28c-.43-.92-1.04-1.63-1.82-2.12-.78-.49-1.71-.74-2.8-.74Z"/>
  </g>
  <rect class="st0" x="95.02" y="11.37" width="4.92" height="4.92" transform="translate(83.64 111.31) rotate(-90)"/>
</svg>