<?xml version="1.0" encoding="UTF-8"?>
<svg id="Vrstva_1" xmlns="http://www.w3.org/2000/svg" version="1.1" viewBox="0 0 181.89 38">
  <!-- Generator: Adobe Illustrator 30.2.1, SVG Export Plug-In . SVG Version: 2.1.1 Build 1)  -->
  <defs>
    <style>
      .st0 {
        font-family: WorkSans-Bold, 'Work Sans';
        font-weight: 700;
      }

      .st0, .st1, .st2 {
        isolation: isolate;
      }

      .st0, .st2 {
        font-size: 12px;
      }

      .st3 {
        fill: #ffd23f;
      }

      .st4 {
        fill: #fff;
      }

      .st2 {
        font-family: WorkSans-Regular, 'Work Sans';
      }
    </style>
  </defs>
  <g class="st1">
    <text class="st0" transform="translate(.36 -88.73)"><tspan x="0" y="0">PE</tspan></text>
    <text class="st2" transform="translate(15.95 -88.73)"><tspan x="0" y="0">[</tspan></text>
    <text class="st0" transform="translate(20.12 -88.73)"><tspan x="0" y="0">KS</tspan></text>
    <text class="st2" transform="translate(36.18 -88.73)"><tspan x="0" y="0">]</tspan></text>
    <text class="st0" transform="translate(40.36 -88.73)"><tspan x="0" y="0">ESO</tspan></text>
  </g>
  <g>
    <path class="st3" d="M12.51,6.15c1.82,0,3.37.29,4.65.88,1.28.59,2.26,1.43,2.93,2.53s1.01,2.44,1.01,4.01-.33,2.91-1.01,4.01c-.67,1.1-1.65,1.94-2.93,2.53-1.28.59-2.83.88-4.65.88h-4.42v7.42H2.3V6.15h10.22-.01ZM11.6,16.64c1.22,0,2.13-.25,2.75-.76s.93-1.28.93-2.31-.31-1.8-.93-2.31c-.62-.51-1.53-.76-2.75-.76h-3.51v6.14h3.51Z"/>
    <path class="st3" d="M24.49,28.4V6.15h17.33v4.48h-11.53v4.52h9.17v4.21h-9.17v4.55h11.97v4.48h-17.77,0Z"/>
    <path class="st4" d="M54,6.15h-5.16v25.56h5.16v2.36h-7.69V3.79h7.69v2.36Z"/>
    <path class="st3" d="M63.9,6.15v22.25h-5.8V6.15h5.8ZM78.3,6.15l-10.45,12.51-.37-.88-5.29,6.44-1.11-4.69,10.79-13.39h6.44-.01ZM69.73,13.5l8.97,14.9h-6.57l-6.74-11.67,4.35-3.24h-.01Z"/>
    <path class="st3" d="M90.34,5.81c2.07,0,3.89.32,5.48.96,1.59.64,2.96,1.58,4.13,2.82l-2.8,3.74c-.97-1.01-2.01-1.77-3.12-2.28-1.11-.51-2.38-.76-3.79-.76-.83,0-1.51.09-2.02.27-.52.18-.89.43-1.11.74-.22.32-.34.67-.34,1.08,0,.47.22.87.66,1.2s1.15.6,2.14.83l3.74.84c2.23.52,3.86,1.27,4.89,2.26s1.55,2.3,1.55,3.94-.41,2.91-1.21,4c-.81,1.09-1.92,1.91-3.34,2.46s-3.03.83-4.85.83c-1.48,0-2.9-.16-4.25-.49s-2.56-.79-3.64-1.4c-1.08-.61-1.99-1.3-2.73-2.09l2.8-3.88c.56.65,1.25,1.23,2.07,1.74s1.72.91,2.7,1.2c.98.29,1.97.44,2.98.44.79,0,1.44-.08,1.97-.24s.92-.39,1.16-.71c.25-.31.37-.69.37-1.11,0-.47-.17-.87-.5-1.2-.34-.33-.98-.6-1.92-.83l-4.11-.91c-1.26-.29-2.38-.68-3.36-1.16s-1.75-1.13-2.31-1.96c-.56-.82-.85-1.85-.85-3.09,0-1.39.38-2.64,1.15-3.73.77-1.09,1.87-1.95,3.31-2.58,1.44-.63,3.16-.94,5.16-.94h-.01Z"/>
    <path class="st4" d="M101.26,31.71h5.16V6.15h-5.16v-2.36h7.69v30.28h-7.69s0-2.36,0-2.36Z"/>
    <path class="st3" d="M115,28.4V6.15h17.33v4.48h-11.53v4.52h9.17v4.21h-9.17v4.55h11.97v4.48h-17.77Z"/>
    <path class="st3" d="M145.68,5.81c2.07,0,3.89.32,5.48.96,1.58.64,2.96,1.58,4.13,2.82l-2.8,3.74c-.97-1.01-2.01-1.77-3.12-2.28-1.11-.51-2.38-.76-3.79-.76-.83,0-1.51.09-2.02.27-.52.18-.89.43-1.11.74-.22.32-.33.67-.33,1.08,0,.47.22.87.66,1.2s1.15.6,2.14.83l3.74.84c2.23.52,3.86,1.27,4.89,2.26s1.55,2.3,1.55,3.94-.4,2.91-1.21,4c-.81,1.09-1.92,1.91-3.34,2.46s-3.03.83-4.86.83c-1.48,0-2.9-.16-4.25-.49s-2.56-.79-3.64-1.4c-1.08-.61-1.99-1.3-2.73-2.09l2.8-3.88c.56.65,1.25,1.23,2.07,1.74s1.72.91,2.7,1.2,1.97.44,2.99.44c.78,0,1.44-.08,1.97-.24s.92-.39,1.16-.71c.25-.31.37-.69.37-1.11,0-.47-.17-.87-.5-1.2-.34-.33-.98-.6-1.92-.83l-4.11-.91c-1.26-.29-2.38-.68-3.36-1.16s-1.75-1.13-2.31-1.96-.84-1.85-.84-3.09c0-1.39.38-2.64,1.15-3.73.76-1.09,1.87-1.95,3.3-2.58,1.44-.63,3.16-.94,5.16-.94h-.02Z"/>
    <path class="st3" d="M168.76,5.81c2.25,0,4.19.46,5.82,1.37,1.63.91,2.88,2.22,3.76,3.93.88,1.71,1.31,3.76,1.31,6.17s-.44,4.46-1.31,6.17c-.88,1.71-2.13,3.02-3.76,3.93-1.63.91-3.57,1.37-5.82,1.37s-4.19-.46-5.83-1.37c-1.64-.91-2.9-2.22-3.78-3.93s-1.31-3.76-1.31-6.17.44-4.46,1.31-6.17c.88-1.71,2.13-3.02,3.78-3.93,1.64-.91,3.59-1.37,5.83-1.37ZM168.76,10.36c-1.08,0-1.99.26-2.73.78-.74.52-1.31,1.29-1.69,2.31-.38,1.02-.57,2.3-.57,3.83s.19,2.78.57,3.81c.38,1.03.94,1.81,1.69,2.33.74.52,1.65.78,2.73.78s1.98-.26,2.71-.78,1.29-1.29,1.67-2.33c.38-1.03.57-2.3.57-3.81s-.19-2.8-.57-3.83c-.38-1.02-.94-1.79-1.67-2.31s-1.64-.78-2.71-.78Z"/>
  </g>
</svg>