<?xml version="1.0" encoding="UTF-8"?>
<svg id="Vrstva_1" xmlns="http://www.w3.org/2000/svg" xmlns:xlink="http://www.w3.org/1999/xlink" version="1.1" viewBox="0 0 283.46 283.46">
  <!-- Generator: Adobe Illustrator 30.1.0, SVG Export Plug-In . SVG Version: 2.1.1 Build 136)  -->
  <defs>
    <style>
      .st0 {
        fill: none;
      }

      .st1 {
        fill: #0b0b0c;
      }

      .st2 {
        fill: #e08827;
      }

      .st3 {
        fill: #e5dbd2;
      }

      .st4 {
        fill: #8d8d8e;
      }

      .st5 {
        fill: #d8d8d8;
      }

      .st6 {
        fill: #1d1d1b;
      }

      .st7 {
        fill: #dbdddd;
      }

      .st8 {
        fill: #432918;
      }

      .st9 {
        fill: #f3924c;
      }

      .st10 {
        fill: #f2f2f2;
      }

      .st11 {
        fill: #69362a;
      }

      .st12 {
        fill: #916523;
      }

      .st13 {
        fill: #c7c6c6;
      }

      .st14 {
        clip-path: url(#clippath);
      }
    </style>
    <clipPath id="clippath">
      <rect class="st0" x="19.84" y="19.84" width="243.78" height="243.78"/>
    </clipPath>
  </defs>
  <rect class="st11" x="19.84" y="19.84" width="243.78" height="243.78"/>
  <g class="st14">
    <path class="st2" d="M113.25,87.93s-6.74-17.07,4.68-11.96c11.41,5.11,29.68,20.76,29.68,20.76,0,0,8.98.76,11.88,0,2.9-.76,24.64.22,30.08-1.41,5.44-1.63,16.96-4.02,19.02-4.13,2.07-.11,26.53-21.96,28.59-23.05,2.07-1.09,15-5.98,15.11,7.39.11,13.37-5.65,47.18-9.35,48.48-3.7,1.3-4.46,2.5-4.13,3.26.33.76,12.28,10.76,9.46,32.18,0,0,.98,76.03-23.7,104.17H28.03s25.55-32.85,54.79-45.35c0,0,6.09-4.46,9.67-7.72,3.59-3.26,28.7-30,31.42-32.07,2.72-2.07,5.33-15.22,5.44-15.98.11-.76-1.2-19.89,4.46-26.63,0,0,.33.33.11-1.74-.22-2.07-21.31-44.24-20.65-46.2"/>
    <path class="st3" d="M138.21,182.71s-10.74-14.93.91-20.75c0,0,5.64-2.46,7.28-1.46,1.64,1,5.37-6.36,10.92-3,5.55,3.36,17.29,13.83,17.75,14.65s.55,3.18,1.27,3.55c.73.36,9.19-18.57,29.58-2,0,0,2.46-.27,2-2.09-.46-1.82,4.79-24.5,18.38-17.93,0,0,2.28,1.27,5.64.82s15.11,4.71,16.29,10.5c1.18,5.79-2.26,86.04-23.66,98.62l-30.68-.12,2.18-6.82s-10.1-10.92-10.24-13.24c-.14-2.32-31.67,1.91-21.43-20.75,0,0,1.37-4.23.68-5.46-.68-1.23-29.18-31.37-26.88-34.52"/>
    <path class="st5" d="M156.2,181.46s3.77-9.99,17.45,2.03c13.68,12.02,37.84,1.07,37.84,1.07,0,0,14.08-1.9,15.44-1.97,1.36-.07-17.35,34.9-38.02,34.35-20.67-.55-32.71-35.48-32.71-35.48"/>
    <path class="st3" d="M113.28,79.24s1.29-3.52,6.97.47c5.68,3.99,26.19,21.18,26.66,22.33.47,1.15,5.48,19.69,4.87,20.57-.61.88-7.78,8.66-9.2,8.26-1.42-.41-12.65-15.16-13.4-17.46-.74-2.3-17.6-25.11-15.9-33.84v-.34Z"/>
    <path class="st3" d="M212.82,107.05s-6.84-5.07,2.37-15.23c9.2-10.15,24.5-22.26,26.8-21.86s9.47.27,8.05,11.98c-1.42,11.71-6.77,32.55-8.12,34.31-1.35,1.76-9.54,9.14-11.3,9.14s-12.99-10.15-12.99-11.37-3.32-7.04-4.8-6.97"/>
    <path class="st13" d="M181.27,193.96s3.98,8.3,11.39,7c7.41-1.3,10.15-6.11,10.15-7.34s.62-2.95-2.47-3.09c-3.09-.14-12.49-.48-15.71.55-3.23,1.03-3.5,1.3-3.36,2.88"/>
    <path class="st4" d="M181.85,192.6s11.7-4.47,19.35-1.11c0,0-3.19,3.84-8.06,4.8-4.87.96-11.29-3.7-11.29-3.7"/>
    <path class="st8" d="M158.57,148.74s-2.66,1.54-2.97,1.02c-.31-.51,0-1.95.92-2.87.92-.92,4.71-7.99,11.98-4.4,7.27,3.58,6.86,7.99,6.86,7.99,0,0-4.3,5.22-11.16,2.97-6.86-2.25-5.63-4.71-5.63-4.71"/>
    <path class="st8" d="M199.52,147.75s0-9.15,2.56-10.38c2.56-1.23,9.52-2.97,13.62.92,4.1,3.89,3.57,4.81,2.6,4.61-.97-.2-2.5-.2-2.5-.2,0,0-1.41,4.78-5.42,5.05-4,.27-10.89,1.26-10.86,0"/>
    <path class="st12" d="M160.62,147.2s2.15-4.4,5.53-3.28c3.38,1.13,5.53,3.57,5.53,4.45s-2.42,4.88-6.25,4.46c-3.83-.42-5.71-4.24-4.81-5.63"/>
    <path class="st12" d="M202.86,143.11s1.78-6.24,5.05-5.43c3.28.82,5.22,2.56,5.12,3.17-.1.61-1.33,6.04-4.4,6.24-3.07.21-5.94-3.49-5.77-3.99"/>
    <path class="st1" d="M163.2,143.82s2.54-.38,4.25.6-.52,6.48-.52,6.48c0,0-3.93,1.03-3.73-7.08"/>
    <path class="st1" d="M205.69,138.23s1.26-1.53,3.93,0c2.66,1.53-.37,6.93-.37,6.93,0,0-.66-.2-1.3-.51-.65-.31-2.26-6.42-2.26-6.42"/>
    <path class="st10" d="M176.29,173.54s-10.31-16.1-22.57-16.88c-12.26-.78-4.34,7.27-4.34,7.27,0,0-7.08-13.73-15.68.42-8.6,14.15,12.07,23.31,12.07,23.31,0,0,11.51-5.67,13.18-9.01,1.66-3.34,14.7,4.84,14.7,4.84l2.64-9.94Z"/>
    <path class="st10" d="M205.69,174.48s4.89-17.63,9.58-20.47c4.69-2.84,12.9-3.26,14.01,0,0,0,13.87,0,14.84,2.6.97,2.6,5.41,21.33-1.53,23.97-6.94,2.64-26.29,2.34-28.22,3.58-1.93,1.25-8.69,3.49-8.69,3.49v-13.18Z"/>
    <path class="st7" d="M161.69,147.11s3.65-2.13,4.34-1.95c.7.17.86,1.95.86,1.95h-5.2Z"/>
    <path class="st7" d="M204.57,141.73s3.78-1.94,4.11-1.94.56,1.94.56,1.94h-4.68Z"/>
    <path class="st10" d="M138.97,158.68s13.15-4.6,19.63-.92c6.48,3.68-2.25,10.89-2.4,10.89s-17.22-9.97-17.22-9.97"/>
    <path class="st10" d="M215.27,154.01s13.25-7.38,28.86,2.6l-15.27,5.88-13.59-8.48Z"/>
    <path class="st9" d="M176.29,173.54s.43-34.23,2.74-35.94c2.31-1.71,11.74-4.79,14.63,1.18,2.89,5.97,12.26,34.92,12.26,34.92l-29.63-.16Z"/>
    <path class="st10" d="M179.62,193.2s7.41-2.13,10.29-2.26,12.07.14,13.24,1.13c1.17.99,6.31-8.2,5.9-11.49-.41-3.29-6.59-15.44-18.52-14.89,0,0-15.78,1.65-17.15,15.85,0,0,1.03,11.39,6.24,11.66"/>
    <path class="st1" d="M184.42,174.27s6.52-4.73,12.21,0c0,0,5.01,4.67,0,9.19,0,0-5.63,3.77-12.9,0,0,0-4.25-6.24.69-9.19"/>
    <path class="st9" d="M177.35,139.79s-9.47-13.18-27.37,5.36c0,0-3.74-4.01,0-7.54,3.74-3.52,23.95-21.7,35.62-2.36l-1.99,4.55h-6.26Z"/>
    <path class="st9" d="M193.65,138.79s14.78-19.78,32.4,0c0,0,5.6-1.53,3.64-4.4-1.96-2.87-25.87-26.39-42.67.89l6.63,3.51Z"/>
    <path class="st9" d="M166.03,135.27s9.61,1.6,12.74,9.88c3.13,8.28,16.91-1.41,16.91-1.41,0,0,3.85-10.64,8.84-12.85,4.99-2.21-7.53-2.78-7.53-2.78,0,0-6.7,3.14-17.07.84-10.37-2.3-13.89,6.33-13.89,6.33"/>
  </g>
  <g>
    <path class="st6" d="M98.03,239.55l-.36,2.9h-9.48v-15.18h3.2c-.18,2.32-.22,8.92-.24,12.52,2.26-.02,4.82-.08,6.88-.24Z"/>
    <path class="st6" d="M102.32,229.59c0,.86-.7,1.56-1.56,1.56s-1.54-.7-1.54-1.56.68-1.56,1.54-1.56,1.56.7,1.56,1.56ZM99.3,233.55l2.88-.1c-.2,2.04-.24,5.92-.24,9h-2.64v-8.9Z"/>
    <path class="st6" d="M106.42,232.17l-2.48-4.22,1.52-.08,2.12,2.48,2.14-2.48,1.3.08-2.46,4.22h-2.14ZM104,241.65v-1.72c.8.56,1.7.82,2.6.82s1.24-.3,1.24-.76c0-1.28-3.66-.92-3.66-3.82,0-1.84,1.62-2.98,3.54-2.98,1,0,1.64.14,2.2.38v2.48c-.54-.36-1.18-.68-2-.68-.7,0-1.06.26-1.06.72,0,1.26,3.6.96,3.6,3.88,0,2.14-1.84,2.84-3.46,2.84-1.32,0-2.26-.4-3-1.16Z"/>
    <path class="st6" d="M118.58,233.55h3.1c-1.28,1.74-2.8,3.4-3.62,3.92,1.1.92,2.94,3.22,3.98,4.98h-3.38c-.36-.96-3.14-4.26-3.62-4.3-.02,1.52-.04,3.2-.04,4.3h-2.64v-15.56l2.9-.12c-.1,1.48-.26,6.48-.3,10.98.54-.08,2.54-2.5,3.62-4.2Z"/>
    <path class="st6" d="M125.18,242.77c-1.62,0-2.54-.74-2.54-2.34,0-1.9,1.6-3.44,4.94-3.76v-.3c0-.64-.36-.96-1.24-.96-1.02,0-1.86.22-2.82.66v-2.5c1.12-.26,2.08-.38,3.04-.38,2.34,0,3.58.98,3.58,3.04,0,1.7-.06,2.76-.06,3.86,0,1.02.16,1.82.38,2.36h-2.1c-.1-.48-.16-1.08-.16-1.66-.46,1.3-1.72,1.98-3.02,1.98ZM125.12,239.95c0,.46.24.74.74.74.58,0,1.68-.52,1.7-2.44-1.76.34-2.44,1-2.44,1.7Z"/>
    <path class="st6" d="M146.97,238.05c0,2.84-2.18,4.76-4.98,4.76s-4.82-1.98-4.82-4.76,2.1-4.86,4.92-4.86,4.88,2.02,4.88,4.86ZM139.98,238.05c0,1.6.86,2.64,2.14,2.64s2.02-.96,2.02-2.58-.84-2.74-2.12-2.74-2.04,1.08-2.04,2.68Z"/>
    <path class="st6" d="M150.22,242.89h-1.56c.12-.96.18-2.3.18-3.38v-12.62l2.92-.12c-.16,2.5-.24,4.64-.24,7.4.8-.62,1.68-.94,2.92-.94,2.5,0,4,1.94,4,4.44,0,2.68-1.6,5.06-4.86,5.06-1.42,0-2.42-.54-3.06-1.28-.08.46-.18.94-.3,1.44ZM151.52,238.33c0,1.56.66,2.34,1.96,2.34,1.22,0,2.04-1.14,2.04-2.68s-.62-2.58-2.04-2.58c-.8,0-1.46.3-1.96.74v2.18Z"/>
    <path class="st6" d="M162.34,238.19c0,1.4.86,2.32,2.7,2.32.78,0,1.6-.2,2.46-.66v1.68c-.82.8-2.02,1.28-3.24,1.28-2.32,0-4.42-1.52-4.42-4.42s2-5.2,5.06-5.2c2.18,0,3.24,1.26,3.24,2.86,0,.74-.28,1.46-.72,1.98l-5.06-.2c-.02.14-.02.24-.02.36ZM164.64,235.11c-.82,0-1.58.44-1.96,1.28l3.3-.1c0-.72-.5-1.18-1.34-1.18Z"/>
    <path class="st6" d="M173.56,242.81c-2.2,0-4.22-1.4-4.22-4.46,0-3.38,2.42-5.16,4.9-5.16.74,0,1.46.14,2.06.38v2.66c-.64-.4-1.32-.58-2.04-.58-1.48,0-2.42.96-2.42,2.38s.92,2.24,2.32,2.24c.74,0,1.5-.24,2.14-.68v1.92c-.46.78-1.54,1.3-2.74,1.3Z"/>
    <path class="st6" d="M179.74,233.55c.12.24.22.64.24.94.78-.68,1.94-1.22,3.26-1.22,1.84,0,3.44,1.06,3.44,3.72v5.46h-2.66v-5.12c0-1.24-.72-1.76-1.56-1.76-.52,0-1.02.18-1.48.46v6.42h-2.68v-6.48c0-.84-.12-1.76-.34-2.42h1.78Z"/>
    <path class="st6" d="M190.9,242.77c-1.62,0-2.54-.74-2.54-2.34,0-1.9,1.6-3.44,4.94-3.76v-.3c0-.64-.36-.96-1.24-.96-1.02,0-1.86.22-2.82.66v-2.5c1.12-.26,2.08-.38,3.04-.38,2.34,0,3.58.98,3.58,3.04,0,1.7-.06,2.76-.06,3.86,0,1.02.16,1.82.38,2.36h-2.1c-.1-.48-.16-1.08-.16-1.66-.46,1.3-1.72,1.98-3.02,1.98ZM192.16,232.19l-1.66-.08,2.82-4.18h2.56l-3.72,4.26ZM190.84,239.95c0,.46.24.74.74.74.58,0,1.68-.52,1.7-2.44-1.76.34-2.44,1-2.44,1.7Z"/>
  </g>
</svg>