<?xml version="1.0" encoding="UTF-8"?>
<svg id="Vrstva_1" xmlns="http://www.w3.org/2000/svg" xmlns:xlink="http://www.w3.org/1999/xlink" version="1.1" viewBox="0 0 283.46 283.46">
  <!-- Generator: Adobe Illustrator 30.1.0, SVG Export Plug-In . SVG Version: 2.1.1 Build 136)  -->
  <defs>
    <style>
      .st0 {
        fill: none;
      }

      .st1 {
        fill: #2f200d;
      }

      .st2 {
        fill: #78573a;
      }

      .st3 {
        fill: #fff;
      }

      .st4 {
        fill: #5a422a;
      }

      .st5 {
        fill: #b09781;
      }

      .st6 {
        fill: #170c00;
      }

      .st7 {
        fill: #9d8167;
      }

      .st8 {
        fill: #402e1a;
      }

      .st9 {
        clip-path: url(#clippath);
      }
    </style>
    <clipPath id="clippath">
      <rect class="st0" x="19.84" y="19.84" width="243.78" height="243.78"/>
    </clipPath>
  </defs>
  <rect class="st5" x="19.84" y="19.84" width="243.78" height="243.78"/>
  <g class="st9">
    <path class="st7" d="M5.03,142.38s7.4-10.53,21.27-13.4c13.87-2.87,23.9-3.45,33.46-11.3,9.55-7.85,24.8-24.25,61.58-26.82,36.77-2.57,64.52,4.67,80.25-3.02s6.43-9.27,16.16-18.77c9.73-9.49,11.12-4.97,12.51-16.09,1.39-11.12-6.62-15.9,4.32-24.04,10.94-8.14,31.29-9.11,31.29-9.11v260.85L5.03,272.12v-129.74Z"/>
    <path class="st4" d="M253.08,213.68c-6.15-2.89-10.24-.84-10.24-.84,0,0-5.18-7.95-7.96-9.4,0,0,5.91-11.45,3.13-19.53-2.77-8.08-10.97-20.97-18.92-25.79,0,0,1.45-7.35-4.7-25.31-6.15-17.96-9.76-27.96-11.21-31.7-1.45-3.74-2.53-15.31-15.67-28.69-13.14-13.38-19.16-19.77-31.1-23.74-11.93-3.98-29.89-1.33-39.41,3.01,0,0-8.32,2.05-12.29,1.69-3.98-.36-16.03,19.77-16.03,19.77,0,0-3.98,14.82.96,24.83,0,0,.24,1.81-.6,4.1-.84,2.29-1.21,15.55-1.33,17.84-.12,2.29-3.38,22.06-2.77,32.06l.6,10s-10.61,13.26-14.34,20.97c-3.74,7.71-3.25,14.94-3.25,14.94,0,0-5.67,3.25-8.44,5.42-2.77,2.17-4.46,3.74-4.46,3.74,0,0-4.34-2.65-5.67-2.05s-3.98-3.13-6.15-1.93l-2.17,1.21s-3.74-2.65-4.82,0c-1.09,2.65-.96,4.34-.96,4.34,0,0-3.13,2.05-3.5,4.34s0,3.25,0,3.25c0,0-.48,4.58.96,6.75,1.45,2.17,3.25,3.13,3.25,3.13,0,0,3.86,7.11,7.84,9.52,3.98,2.41,21.69,8.2,29.29,5.06,0,0,7.71,2.77,13.62,1.93,5.9-.84,4.94-.56,9.76-.89,1.97-.13,3.94-.59,5.58-1.09-.26,1.67-.19,4.17,1.89,5.95,3.38,2.89,8.44,1.93,8.44,1.93,0,0,.84,1.69,3.62.48,2.77-1.21,4.58-1.08,4.58-1.08,0,0,2.65-1.08,3.86-1.57,1.2-.48,6.51-.48,8.2-.84,1.69-.36,6.43-.14,7.47-3.62.42-1.4.49-2.54.44-3.42.74-.06,1.33-.12,1.73-.19,4.7-.84,1.69-3.13,13.98-.48.72.16,1.49.29,2.29.41.04,1.63.32,4.77,1.81,5.74,2.05,1.33,3.25,1.21,3.86,1.44.6.24,1.57,1.45,8.07.84,6.51-.6,3.5-2.29,9.64-2.53,6.15-.24,14.46-.84,13.98-5.18-.05-.45-.11-.87-.19-1.27,2.48-.04,6.95.14,8.98,1.75,2.89,2.29,7.71,5.54,11.45,6.51,3.74.96,10.37,3.49,17.96,3.49s15.43-9.52,17.72-11.69c2.29-2.17,7.23-8.56,7.35-11.81.12-3.25,0-8.92-6.15-11.81"/>
    <path class="st8" d="M188.36,94.23s.48,12.17-5.66,18.8c-6.15,6.63-11.09,8.8-17.48,10-6.39,1.21-7.96.6-11.09,3.38-3.13,2.77-5.3,7.23-11.57,7.84-6.27.6-19.04-3.13-24.11-3.62-5.06-.48-6.03-.24-7.71-2.41-1.69-2.17-2.41-4.1-4.22-4.94-1.81-.84-5.91-1.57-7.83-3.74-1.93-2.17-3.62-3.62-3.62-3.62,0,0-4.22-4.58-4.58-8.68-.36-4.1-1.6-4.61-1.6-4.61,0,0,.76,20.52,1.6,21.73.84,1.21,1.69,30.25,2.29,38.81.6,8.56,7.23,28.57,9.52,32.42,2.29,3.86,6.03,18.8,7.59,24.83,1.57,6.03,1.57,8.2-.48,10.85l-2.05,2.65s6.39-1.33,12.53-2.17c6.15-.84,13.5-.84,16.63,2.17s4.06,4.53,4.06,4.53c0,0,6.31-10.44,7.15-14.06.84-3.62,2.41-12.65,2.41-12.65,0,0,3.01.48,3.01,4.46s.48,8.8,2.17,10.85c1.69,2.05,3.25,11.13,3.25,11.13,0,0,2.29-13.54,5.06-16.92,2.77-3.38,10.37-6.03,14.95-4.34,4.58,1.69,9.16,7.95,10.61,12.05,1.45,4.1,6.39,6.21,6.56,8.25,0,0,4.52-19.1,6.33-22.47,1.81-3.37,6.51-12.29,6.51-15.31s.6-3.01,0-3.01-7.95,10-12.78,9.64c-4.82-.36-6.51-11.69-5.67-17.84.84-6.15,4.1-9.76,2.53-12.42-1.57-2.65-1.93-17.48-.72-22.66,1.21-5.18,2.65-8.56.12-14.95-2.53-6.39-5.18-15.67-3.86-19.65,1.32-3.98,4.82-6.87,5.3-13.14.48-6.27-5.18-11.21-5.18-11.21"/>
    <path class="st8" d="M91.46,189.93s3.5,9.64,4.7,13.14c1.2,3.49,6.99,14.34,8.32,23.02l1.33,8.68s-3.62,3.86-3.7,5.86c0,0-4.62,1.74-7.51,1.86-2.89.12-4.82.72-8.8.96-3.98.24-14.08-.63-12.65-2.77.48-.72.48-18.56-3.62-23.02-4.1-4.46-9.76-7.59-9.76-7.59,0,0,3.37-6.99,12.77-11.57,9.4-4.58,18.92-8.56,18.92-8.56"/>
    <path class="st8" d="M238.98,214.88s-4.7-9.04-13.62-10.12c-8.92-1.08-10.49,0-11.45-1.08-.96-1.08-5.3-7.23-5.3-7.23,0,0-8.68,17.72-10.24,22.3-1.57,4.58-2.6,18.49-2.6,18.49,0,0,4.46-.37,6.72.69,2.26,1.06,9.88,6.07,10.57,6.38.68.31-1.2-10.5,1.34-15.32,2.53-4.82,4.46-5.42,10.37-8.08,5.91-2.65,5.18-3.74,8.68-4.7,3.5-.96,5.54-1.33,5.54-1.33"/>
    <path class="st4" d="M91.02,71.23c-.54-.92-9.57-8.32-11-12.62-1.43-4.29-.27-11.72,4.38-13.24,4.65-1.52,14.85,6.35,14.85,6.35,0,0,3.49.16,5.46,1.65,1.97,1.48,1.79,3.54,1.79,3.54,0,0-14.05,16.73-15.48,14.31"/>
    <path class="st8" d="M98.8,58.32s-1.61.92-5.36-2.3c-3.76-3.22-10.29-5.73-10.02-2.95.27,2.77,2.44,9.48,5.47,11.27,3.03,1.79,1.75,2.19,5.03.65,3.28-1.54,7.92-6.78,4.89-6.66"/>
    <path class="st4" d="M137.19,55.48c-.18-.27-1-4.71-.72-8.48.27-3.77,6.13-12.81,12.42-10.84,6.29,1.97,8.7,6.08,9.51,11.36.81,5.28-2.33,12.79-2.33,15.84s.98,4.29-2.06,4.03c-3.04-.27-7.25-5.64-9.39-6.35-2.15-.71-7.43-5.55-7.43-5.55"/>
    <path class="st8" d="M147.92,59.6c-1.16-.45-4.92-1.88-5.73-5.37-.81-3.49-1.43-13.06,4.47-13.42,5.9-.36,7.07,5.04,7.34,11.06.27,6.03.54,8.89-.63,10.32-1.16,1.43-5.46-2.6-5.46-2.6"/>
    <path class="st2" d="M112.85,118.29s2.42-1.79,5.9-3.22,6.62-4.38,7.69-5.46c1.07-1.07,2.15-3.76,2.68-6.17.54-2.41-2.06-4.74-3.85-6.62-1.79-1.88-7.16-10.47-8.23-12.53-1.07-2.06-3.94-4.92-8.23-4.2-4.29.72-7.25,1.25-8.59,5.1-1.34,3.85-1.34,7.96-4.47,11.09-3.13,3.13-5.19,5.69-4.92,9.57.27,3.88,2.51,7.51,4.39,8.95,1.88,1.43,2.77,3.22,4.56,5.37,1.79,2.15,5.55,3.85,13.06-1.88"/>
    <path class="st4" d="M118.76,108.54s-1.7,5.01-6.89,8.59c-5.19,3.58-5.55,3.13-8.41,2.95-2.86-.18-3.49-4.65-3.49-4.65,0,0-.71-.36,2.15-.36s7.69-1.7,12.17-4.12l4.47-2.42Z"/>
    <path class="st8" d="M102.21,116.86s2.24.72,6.26-.72c4.03-1.43,7.39-6.04,7.04-5.85s-7.49,3.54-10.71,4.43c-3.22.89-4.83.71-4.83.71,0,0,1.54,1.3,2.24,1.43"/>
    <path class="st1" d="M106.23,102.19s-.18,5.82-2.33,8.5c-2.15,2.68-2.95,3.34-5.01,3.68-2.06.34-5.99-4.22-6.62-7.17-.63-2.95-1.52-4.92,1.07-7.25,2.6-2.32,7.51-2.77,9.66-1.7,2.15,1.07,3.22,3.94,3.22,3.94"/>
    <path class="st6" d="M93.44,101.74s7.16-1.34,9.13,1.25c1.97,2.6,3.04,4.56,1.34,7.7-1.7,3.13-3.42,3.79-5.47,3.68-2.05-.1-5.54-3.93-6.83-8.33,0,0-.94-3.41,1.83-4.3"/>
    <path class="st1" d="M98.92,104.6s-.87,3.52,0,3.28c.87-.24,3.38-2.21,2.48-2.39-.9-.18-2.3-1.74-2.48-.89"/>
    <path class="st1" d="M94.78,104.96s1.16,2.39.72,2.94c-.45.55-3.13-1.13-2.69-1.86.45-.72,1.97-1.08,1.97-1.08"/>
    <path class="st2" d="M120.28,118.2c.36,0,.63,1.16,2.6,1.52,1.97.36,11.27,1.97,12.79,1.79s1.7-.51,1.43.01c-.27.52-7.16,1.24-12.97,1.15-5.82-.09-11.27-4.38-11.27-4.38,0,0,4.06-2.94,5.47-3.04l1.95,2.95Z"/>
    <path class="st8" d="M113.3,77.84s-.21-3.49,3.06-3.8c3.27-.32,9.83-.85,12.84,0,3.01.85,3.64-.11,5.12,4.33,1.48,4.44-.95,8.77-6.44,10.88-5.49,2.11-9.83-3.49-10.83-4.96-1-1.47-3.94-5-3.75-6.45"/>
    <path class="st8" d="M102.32,75.73s-4.35-2.01-6.72.95c-2.37,2.96-3,6.76-2.05,9.3.95,2.54,2.43,4.97,4.17,4.86,1.74-.1,3.61-5.69,4.6-7.5.99-1.81,0-7.61,0-7.61"/>
    <path class="st4" d="M118.06,79.98s.11-4.24,4.97-4.14c4.86.11,6.55,2.85,6.18,3.49-.37.63-1.22,3.27-5.18,4.23-3.96.95-5.97-3.57-5.97-3.57"/>
    <path class="st4" d="M95.13,81.65c-.03-.11.86-3.28,2.81-3.39s3.95,1.7,4.17,3.39c.21,1.68-.88,3.9-3.19,3.9s-3.47-2.52-3.79-3.9"/>
    <path class="st6" d="M119.75,79.98s1.27-1.07,2.96-.97c1.69.11,2.43.76,3.49.75h1.06s-3.28,2.2-5.07,2.15c-1.8-.05-2.43-1.93-2.43-1.93"/>
    <path class="st6" d="M96.29,81.65c.32,0,1.02-1.44,2.62-1.2s2.24,1.46,2.24,1.46c0,0-.67.58-2.24.58s-2.62-.84-2.62-.84"/>
    <path class="st2" d="M121.33,80.43s.57.92,2.17.03l-2.17-.03Z"/>
    <path class="st2" d="M98.1,81.46s.32.66,1.69,0h-1.69Z"/>
    <path class="st2" d="M110.24,239.61s-1.06,5.18-.74,7.92l.32,2.75s4.12-10.04.42-10.67"/>
    <path class="st2" d="M115.52,240.13c-.37-.23-1.65,2.4-1.16,5.81.49,3.42.52,4.33.52,4.33,0,0,2.33-9.09.64-10.14"/>
    <path class="st2" d="M118.8,236.22s-1.04,8.57,0,10.14c1.04,1.57,1.58,2.11,1.58,2.11,0,0,1.48-13.63-1.58-12.26"/>
    <path class="st2" d="M123.66,235.7c-.11.32.16,9.24.82,10.64l.66,1.4s.63-9.4,0-11.09c-.63-1.69-1.48-.95-1.48-.95"/>
    <path class="st2" d="M129.58,235.53c-.92.3-.85,3.06,0,6.1.85,3.04,2.64,6.42,2.64,6.1s-.21-13-2.64-12.21"/>
    <path class="st2" d="M163.17,236.96s-2.91,4.31-2.78,6.96l.14,2.65s3.49-8.56,2.64-9.61"/>
    <path class="st2" d="M166.98,237.7s-1.48,4.95-1.59,7.49l-.11,2.54s3.28-9.09,1.69-10.04"/>
    <path class="st2" d="M170.99,237.7s-1.49,1.39-1.06,5.02c.43,3.63.49,5.02.49,5.02,0,0,2.15-9.51.57-10.04"/>
    <path class="st2" d="M173.42,237.7s-1.38,1.58-.95,5.02c.43,3.44,1.37,5.76,1.37,5.76,0,0,.95-11.09-.42-10.78"/>
    <path class="st2" d="M177.76,236.96s-1.28,3.44-1.06,5.76c.22,2.32,1.06,4.49,1.06,4.49,0,0,1.9-10.25,0-10.25"/>
    <path class="st8" d="M218.22,234.11s-1.37,8.23.53,11.09c1.9,2.86,9.3,3.49,16.17,1.38,6.87-2.11,12.68-4.33,13.74-6.97,1.06-2.64,3.28-3.49,2.64-5.49s-4.65-6.44-7.29-6.44-4.23-2.22-8.03-1.9c-3.8.32-9.09,2.96-11.94,5.39-2.85,2.43-4.97,1.16-5.81,2.96"/>
    <path class="st8" d="M238.98,219.74s-3.11,2.54-2.27,4.97c.85,2.43,4.33,3.38,4.33,3.38,0,0,.48.59,2.32.21,1.84-.38,2.83,1.69,2.83,1.69,0,0-.04-.56,1.29,0s1.06,1.69,1.06,1.69c0,0-.21.74,1.59,1.27,1.8.53,5.71-2.01,5.71-4.65s-.85-4.97-1.8-4.86l-.95.11s.86-2.11-1.68-2.43l-2.54-.32s-1.27-1.16-3.07-1.06c-1.8.11-2.01.63-2.01.63,0,0-2.12-2.75-4.81-.63"/>
    <path class="st8" d="M250.66,234.43s2.96-.32,4.12-2.11c1.16-1.8,0-2.33,0-2.33,0,0-5.34,1.57-4.12,4.44"/>
    <path class="st8" d="M46.74,235.5c-.07-.47-8.88-6.14-8.24-10.26.63-4.12,1.69-6.7,6.97-8.53,5.28-1.83,8.88-1.55,12.05,0,3.17,1.56,4.54,3.46,8.24,7.58,3.7,4.12,4.38,3.27,5.92,5.92,1.54,2.65,5.9,10.54,0,10.94-5.9.4-24.72-4.25-24.94-5.64"/>
    <path class="st8" d="M40.19,224.71c-.53-.32-7.29-.42-7.08-4.54.21-4.12,1.9-4.73,1.9-4.73,0,0,1.16-4.26,2.64-4.15s1.8,2.01,1.8,2.01c0,0,.74-3.38,3.07-2.64,2.32.74,2.53,1.48,2.53,1.48,0,0,1.16-2.64,3.8-1.58,2.64,1.06,3.28,2.75,3.28,2.75,0,0,1.91-3.7,4.44-.42,2.53,3.28,1.69,5.6,1.69,5.6l-18.07,6.23Z"/>
    <path class="st8" d="M106.5,56.92s6.06-2.26,8.53-1.71c2.47.55,3.14.65,4.72-.09,1.58-.74,5.11-2.84,7.5-2.84s4.59.73,4.59.73c0,0-3.84-.02-7.31,1.59s-4.84,3.07-6.85,2.98c-2.01-.09-2.1-1.55-5.85-.73-3.75.82-6.39.44-5.33.07"/>
  </g>
  <g>
    <path class="st3" d="M95.12,227.27c0,3.08.26,12.52.48,15.18h-3.08l-.26-11.04c-.98,2.94-2.5,6.84-4.1,10.42h-1.86c-1.3-3.64-2.66-7.26-3.98-10.42l-.18,11.04h-3.1c.2-2.66.48-12.1.48-15.18h4c1.52,3.54,2.98,7.34,3.94,10.22,1.12-2.8,2.48-6.4,3.82-10.22h3.84Z"/>
    <path class="st3" d="M100.34,238.19c0,1.4.86,2.32,2.7,2.32.78,0,1.6-.2,2.46-.66v1.68c-.82.8-2.02,1.28-3.24,1.28-2.32,0-4.42-1.52-4.42-4.42s2-5.2,5.06-5.2c2.18,0,3.24,1.26,3.24,2.86,0,.74-.28,1.46-.72,1.98l-5.06-.2c-.02.14-.02.24-.02.36ZM102.64,235.11c-.82,0-1.58.44-1.96,1.28l3.3-.1c0-.72-.5-1.18-1.34-1.18Z"/>
    <path class="st3" d="M111.52,242.75c-2.56,0-4.18-1.78-4.18-4.48,0-2.42,1.62-5.02,4.82-5.02.88,0,1.54.18,2.1.5v-6.86l2.88-.12c-.16,2.4-.2,9.7-.2,12.56,0,1.06.08,2.3.22,3.12h-1.62c-.12-.42-.22-.8-.28-1.28-.92,1.08-2.14,1.58-3.74,1.58ZM114.26,237.69c0-1.6-.66-2.38-1.96-2.38s-2.04,1.2-2.04,2.7c0,1.64.72,2.54,2.08,2.54.76,0,1.44-.28,1.92-.72v-2.14Z"/>
    <path class="st3" d="M124.16,242.51h-2.32c-.72-2.44-2.48-6.64-3.72-8.96h3.06c.64,1.52,1.64,4.38,2.02,5.8.64-1.62,1.52-4.12,1.94-5.8h2.72c-.76,2.14-2.72,6.54-3.7,8.96Z"/>
    <path class="st3" d="M130.72,238.19c0,1.4.86,2.32,2.7,2.32.78,0,1.6-.2,2.46-.66v1.68c-.82.8-2.02,1.28-3.24,1.28-2.32,0-4.42-1.52-4.42-4.42s2-5.2,5.06-5.2c2.18,0,3.24,1.26,3.24,2.86,0,.74-.28,1.46-.72,1.98l-5.06-.2c-.02.14-.02.24-.02.36ZM131.92,232.17l-2.48-4.22,1.52-.08,2.12,2.48,2.14-2.48,1.3.08-2.46,4.22h-2.14ZM133.02,235.11c-.82,0-1.58.44-1.96,1.28l3.3-.1c0-.72-.5-1.18-1.34-1.18Z"/>
    <path class="st3" d="M142,242.75c-2.56,0-4.18-1.78-4.18-4.48,0-2.42,1.62-5.02,4.82-5.02.88,0,1.54.18,2.1.5v-6.86l2.88-.12c-.16,2.4-.2,9.7-.2,12.56,0,1.06.08,2.3.22,3.12h-1.62c-.12-.42-.22-.8-.28-1.28-.92,1.08-2.14,1.58-3.74,1.58ZM144.74,237.69c0-1.6-.66-2.38-1.96-2.38s-2.04,1.2-2.04,2.7c0,1.64.72,2.54,2.08,2.54.76,0,1.44-.28,1.92-.72v-2.14Z"/>
    <path class="st3" d="M157.78,242.45h-2.66v-15.56l2.9-.12c-.14,1.66-.26,5.24-.26,7.02.7-.32,1.52-.52,2.28-.52,1.84,0,3.46,1.06,3.46,3.72v5.46h-2.66v-5.12c0-1.24-.72-1.76-1.56-1.76-.52,0-1,.18-1.46.46-.02,2.76-.04,4.86-.04,6.42Z"/>
    <path class="st3" d="M167.24,233.55c.12.24.22.64.24.94.78-.68,1.94-1.22,3.26-1.22,1.84,0,3.44,1.06,3.44,3.72v5.46h-2.66v-5.12c0-1.24-.72-1.76-1.56-1.76-.52,0-1.02.18-1.48.46v6.42h-2.68v-6.48c0-.84-.12-1.76-.34-2.42h1.78Z"/>
    <path class="st3" d="M178.54,238.19c0,1.4.86,2.32,2.7,2.32.78,0,1.6-.2,2.46-.66v1.68c-.82.8-2.02,1.28-3.24,1.28-2.32,0-4.42-1.52-4.42-4.42s2-5.2,5.06-5.2c2.18,0,3.24,1.26,3.24,2.86,0,.74-.28,1.46-.72,1.98l-5.06-.2c-.02.14-.02.24-.02.36ZM179.74,232.17l-2.48-4.22,1.52-.08,2.12,2.48,2.14-2.48,1.3.08-2.46,4.22h-2.14ZM180.84,235.11c-.82,0-1.58.44-1.96,1.28l3.3-.1c0-.72-.5-1.18-1.34-1.18Z"/>
    <path class="st3" d="M189.82,242.75c-2.56,0-4.18-1.78-4.18-4.48,0-2.42,1.62-5.02,4.82-5.02.88,0,1.54.18,2.1.5v-6.86l2.88-.12c-.16,2.4-.2,9.7-.2,12.56,0,1.06.08,2.3.22,3.12h-1.62c-.12-.42-.22-.8-.28-1.28-.92,1.08-2.14,1.58-3.74,1.58ZM192.56,237.69c0-1.6-.66-2.38-1.96-2.38s-2.04,1.2-2.04,2.7c0,1.64.72,2.54,2.08,2.54.76,0,1.44-.28,1.92-.72v-2.14Z"/>
    <path class="st3" d="M200.08,242.19c-.7-2.24-2.42-6.24-3.64-8.64h3.06c.62,1.54,1.64,4.34,2.02,5.78.62-1.56,1.48-4.04,1.92-5.78h2.74c-.78,2.2-2.66,6.4-3.64,8.72-.98,2.26-1.98,4.62-2.56,6.18h-2.82c.66-1.64,1.86-4.3,2.92-6.26ZM201.88,232.19l-1.66-.08,2.82-4.18h2.56l-3.72,4.26Z"/>
  </g>
</svg>