<?xml version="1.0" encoding="UTF-8"?>
<svg id="Vrstva_1" xmlns="http://www.w3.org/2000/svg" xmlns:xlink="http://www.w3.org/1999/xlink" version="1.1" viewBox="0 0 283.46 283.46">
  <!-- Generator: Adobe Illustrator 30.1.0, SVG Export Plug-In . SVG Version: 2.1.1 Build 136)  -->
  <defs>
    <style>
      .st0 {
        fill: none;
      }

      .st1 {
        fill: #d17c7e;
      }

      .st2 {
        fill: #2e2e38;
      }

      .st3 {
        fill: #e5e5e5;
      }

      .st4 {
        fill: #fff;
      }

      .st5 {
        fill: #353533;
      }

      .st6 {
        fill: #605d73;
      }

      .st7 {
        fill: #767587;
      }

      .st8 {
        fill: #1b100c;
      }

      .st9 {
        fill: #454844;
      }

      .st10 {
        fill: #ad6869;
      }

      .st11 {
        clip-path: url(#clippath);
      }
    </style>
    <clipPath id="clippath">
      <rect class="st0" x="19.84" y="19.84" width="243.78" height="243.78"/>
    </clipPath>
  </defs>
  <rect class="st9" x="19.84" y="19.84" width="243.78" height="243.78"/>
  <g class="st11">
    <path class="st5" d="M10.96,228.25s13.19-3.73,22.65-1.43c9.46,2.29,1.43,1.15,19.49,1.15s34.97,2.58,58.19.57c23.22-2.01,62.49-10.89,81.13-10.89s75.11,1.15,75.11,1.15l-1.15,52.17-254.85.29-.57-43Z"/>
    <path class="st10" d="M160.18,209.93c0,.28-.19,2.34-2.06,4.03-1.87,1.68.56,5.33,1.03,6.27.47.94,1.87,6.74,1.68,9.36-.19,2.62-.96,10.39-1.7,11.98-.74,1.59-1.02,2.62-1.02,2.62,0,0,.56.56-.09.94-.65.37-11.7,2.9-15.35,2.81-3.65-.09-8.05,0-8.05,0l-1.4,2.81s.75,1.03,3.37,1.4c2.62.38,13.48.75,17.13,0,3.65-.75,3.37-1.68,4.87-1.03,1.5.65,4.12,1.5,5.9.37,1.78-1.12,1.68-2.34,1.68-2.34,0,0,.56,1.97,1.4,1.22.84-.75.84-4.87-.65-6.55-1.5-1.68-1.03-8.8-1.03-9.36s.47-16.1.75-17.88c.28-1.78-1.22-7.3-1.22-7.3l-5.24.65Z"/>
    <path class="st1" d="M125.92,212.74s.19,2.43,0,3.46c-.19,1.03-.94,1.78-.75,2.81.19,1.03.33,1.31.4,2.34.07,1.03.82,2.9.82,3.56s-.25,9.55-1.25,13.57c-1,4.03-1.28,5.9-1.09,6.65l.19.75s-1.12,1.12-1.69,1.87c-.56.75-1.12,1.22-1.12,1.22,0,0-13.67,4.31-16.76,4.59-3.09.28-6.08.75-7.58.65-1.5-.09-2.34-.91-2.53.01-.19.92,1.22,2.42,3.75,2.42s10.58-.47,16.85-1.59c6.27-1.12,6.65-2.06,9.55-2.15,2.9-.09,6.74,0,8.61-.75,1.87-.75.66-3.93.84-3.56.19.37,3.65,3.56,4.49,2.71.84-.84-4.02-5.99-4.96-6.93-.94-.94-.94-3.56-1.22-4.87-.28-1.31-.47-8.05.09-11.51.56-3.46,1.78-8.61,1.78-10.77s-1.4-4.96-1.4-4.96l-7.02.47Z"/>
    <path class="st7" d="M159.06,208.43s.09,1.22,1.12,1.5c1.03.28,3,.47,4.77,0,1.78-.47,1.5-2.15,1.5-2.15l-7.39.65Z"/>
    <path class="st7" d="M117.51,199.73c.55,0,3.17,2.62,3.36,4.21.19,1.59,2.9,6.83,4.21,8.33,1.31,1.5,1.97,2.15,5.8,1.87,3.84-.28,3.09-4.77,3.46-6.36.37-1.59,3.09-4.21,5.9-4.12s9.92,3.56,13.1,4.77c3.18,1.22,14.98-.31,19.94-1.47,4.96-1.15,5.9-.78,12.92-1.34,7.02-.56,18.07-1.5,18.07-1.5l-19.94-15.54-44.18-6.65-9.97,10.51-12.67,7.28Z"/>
    <path class="st6" d="M123.06,203.31c.2,0,2.93,1,8-.4,5.07-1.4,7.2-2.73,10.86-2.93,3.66-.2,5.86-3.6,5.8-5.8-.07-2.2-3.87-6.47-3.87-6.47l-13.06-21.33-16.06-8.26-16.33-7.07s6.86-16.2,11.13-16.93c4.27-.73,26.46-1,28.66-1.33,2.2-.33,2.73-5,2.2-5.33-.53-.33-13.99-2.4-16.66-3.07-2.67-.67-6.46-.6-11.2-2.73-4.73-2.13-4.93-4.4-5.6-5.47-.67-1.07-5.73-12.4-5.73-12.4,0,0,3-33.46.93-37.39-2.07-3.93-10.26-13.4-21.59-12.66,0,0,4.47,2.93,6.33,3.47,1.87.53,5.73.87,7.26,7.2,1.53,6.33,1.67,18.13-.27,24.79-1.93,6.66-7.33,19.53-9.93,25.66-2.6,6.13-1.13,16.79-1.13,16.79,0,0-1.8,18.26.13,27.46,1.93,9.2,9.33,23.33,19.46,31.72,10.13,8.4,15.19,8.38,16.42,9.84,1.23,1.46,4.25,2.62,4.25,2.62"/>
    <path class="st7" d="M86.87,121.74s.33,2.47,1.73,2.6c1.4.13,3.67-2.8,6-2.6,2.33.2,4.53,3.07,6.4,3.87,1.87.8,13.69-3.06,13.13-3.28-.56-.22-5.61-2.57-7.84-7.37,0,0-1.23-3.88-.56-7.88.67-4,4.07-17.2,4.6-20.93.53-3.73,2-13.66,2.07-18.13.07-4.46.13-4.67.27-6.46.13-1.8.2-12.06-2.67-17.26s-5-10.46-13.66-10.53c-8.66-.07-13.33,3.33-14.73,4.4-1.4,1.07-2.4,2.4-2.4,2.4l.33,13.16s4.4,1.04,5.67,1.51c1.27.47,4.8,1.8,6.53,2.53,1.73.73,9.07,6.33,9.07,10.26s-1.25,23.19-4.12,29.99c-2.88,6.8-5.01,9.66-6.47,12.93-1.47,3.27-3.55,9.89-3.33,10.8"/>
    <path class="st1" d="M90.47,40.56s.73-2.8,2.33-2.87c1.6-.07,3.75.07,3.88,2.13s-2.54,2.8-3.74,2.6c-1.2-.2-2.74-1.08-2.47-1.87"/>
    <path class="st8" d="M91,40.76s.78-2.33,2.56-2.33,2.31,1.13,2.31,1.93-2.07,1.6-3.2,1.27c-1.13-.33-1.67-.87-1.67-.87"/>
    <path class="st7" d="M94.06,39.69s.8-.67.73,0c-.07.67-.73.33-.73,0"/>
    <path class="st3" d="M188.05,194.56s18.07,13.4,27.93,17.04c9.86,3.65,10.83,1.54,10.83,1.54,0,0,4.27.97,5.13-2.05.85-3.02-3.93-12.71-10.15-15.22-6.21-2.51-25.65-6.67-25.65-6.67l-8.09,5.36Z"/>
    <path class="st10" d="M59.87,51.49s.67,1.53,2.93,1.67,2.67.27,3.2,0c.53-.27,13.93.92,15.93.56,2-.36,1.93-.93,1.73-1.08-.2-.15-.2-2.35-.2-2.35l-13.4-1.33-10.2,2.53Z"/>
    <path class="st1" d="M58.61,52.02s.33-2.33,1.93-3.4c1.6-1.07,4.4-1.2,5.93-1.73,1.53-.53,7.6-3.4,9.2-4.43,1.6-1.03,3.93-1.99,4.87-2.38.93-.38,3.06-1.71,3.23-.68.17,1.03-1.56,3.36-1.7,5.56-.13,2.2.87,4.2,1.4,4.4.53.2,1.2.53.8,1.4-.4.87-1.2,1.47-3.73,1.27-2.53-.2-6.61-1.53-9.04-1.47-2.43.07-7.03.43-8.49.81-1.47.39-5.13.99-4.4.65"/>
    <path class="st8" d="M71.82,46.49s3.58-2.05,3.79-.93c.2,1.12-3.79.93-3.79.93"/>
    <path class="st2" d="M186.44,155.19c3.9,1.73,20.86,13.4,23.39,16.26,2.53,2.87,8.4,13,8.4,13l4.6.07c10.6,1.4,15.33,10.73,15.46,12.33.13,1.6-6.33-.67-6.33-.67,0,0,2.6,3.27,2.13,3.87-.47.6-13.8-5.07-13.8-5.07,0,0,5.6,6.27,5.26,6.73-.33.47-.93-.33-.93-.33,0,0,1.6,2.8,1.53,3.93-.07,1.13-1.07,1.33-1.07,1.33,0,0,.87,2.13-.93,2-1.8-.13-10.66-6.33-10.66-6.33l6.2,5.46s.4.33-1.4.27c-1.8-.07-27.07-14.08-27.07-14.08-1.55.58-5.32.32-5.32.32-.93.5-5.53-.13-5.53-.13-.87.31-3.4-.04-3.4-.04-.87.27-5.6-.87-5.6-.87-1.13.27-2.87-.6-2.87-.6-1.33.33-9.2-1.8-9.2-1.8-1.8.26-5-.46-5-.46,0,0-2.67,1.67-10.46-1.33-7.8-3-9.6-13.93-9.6-13.93-1.07,0-3.27-2.8-3.27-2.8-1.33-.2-5.67-6-5.67-6-1.53,0-7.46-4.33-7.46-4.33l-2.8-.2c-2.8-.2-4.07-3.2-4.07-3.2h-2.8c-2.8,0-4.46-1.2-4.46-1.2-2.27.33-4.47-3.13-4.47-3.13-.6-.07-2-2.4-1.93-6.4.07-4,1.93-10.33,1.93-10.33,0,0,6.67-6.86,11.32-8.22,4.65-1.36,15.16-1.28,15.16-1.28,0,0-.27-2.81,1.57-3.13,1.84-.32,28.51,1.36,42.77,14.58,14.26,13.21,12.05,13.8,16.35,15.71"/>
    <path class="st3" d="M195.17,192.33s3.42.34,3.59-1.31c0,0,14.02,1.48,15.22,2.34,0,0,5.47,6.39,1.99,6.78-3.48.4-20.86-6.73-20.81-7.81"/>
    <path class="st3" d="M172.49,169.48s10.6,10.66,17.16,14.19c6.55,3.53,13.51,6.1,13.51,6.1,0,0-12.83-6.67-16.59-9.69-3.76-3.02-14.08-10.6-14.08-10.6"/>
    <path class="st3" d="M172.49,179.68s1.48,2.68,8.04,6.21c6.56,3.53,14.65,6.44,14.65,6.44,0,0-13.91-7.07-17.5-9.52-3.59-2.45-5.19-3.14-5.19-3.14"/>
    <path class="st3" d="M155.44,166.51s12.48,13,22.06,13.68c0,0-6.61-2.96-8.72-4.16-2.11-1.2-13.34-9.52-13.34-9.52"/>
    <path class="st3" d="M161.2,163.6s.07.05.21.14c1.46.94,10.08,6.28,18.14,6.64l-18.35-6.78Z"/>
    <path class="st3" d="M153.67,171.07s14.65,15.5,22.06,19.04c7.41,3.53,8.95,3.88,8.95,3.88,0,0-9.92-5.13-11.12-6.16-1.2-1.03-19.89-16.76-19.89-16.76"/>
    <path class="st3" d="M161.71,159.84s14.59,5.13,19.72,8.21c5.13,3.08,6.33,3.71,6.33,3.71,0,0-14.31-10.72-26.05-11.91"/>
    <path class="st3" d="M182.52,163.49s-4.16,1.25-9.8-.51l-5.64-1.77s13.45,5.76,15.45,2.28"/>
    <path class="st3" d="M153.96,172.72s4.45,10.49,3.19,11.91c-1.25,1.42-4.27,3.76-12.65-3.93,0,0,8.49,10.38,13,4.67,0,0,1.82-4.39-3.53-12.65"/>
    <path class="st3" d="M136.86,169.7s4.16,9.24,7.35,10.77l3.19,1.54s-3.76-1.94-4.85-3.7c-1.08-1.77-5.7-8.61-5.7-8.61"/>
    <path class="st3" d="M136.97,179.17c.17.17,3.31,5.64,7.58,6.78l4.28,1.14s-5.99-2.22-7.01-3.48-4.85-4.45-4.85-4.45"/>
    <path class="st3" d="M162.8,155.74s11.51,5.7,14.19,4.85c2.68-.86-.57-6.1-1.54-6.84l-.97-.74s4.56,5.25,2.62,6.39c-1.94,1.14-14.31-3.65-14.31-3.65"/>
    <path class="st3" d="M178.87,161.27s5.64,2.11,6.67.57-1.25-2.91-1.25-2.91c0,0,1.94,1.43.63,2.05-1.31.63-6.04.29-6.04.29"/>
    <path class="st3" d="M188.62,161.95c.23,0,4.39.17,4.05-1.43l-.34-1.6s0,1.6-.51,1.77c-.51.17-3.19,1.25-3.19,1.25"/>
    <path class="st3" d="M179.78,158.76c.17.06,3.19-1.03,2.57-2.51-.63-1.48-3.19-4.5-3.19-4.5,0,0,4.33,3.25,4.1,5.87-.23,2.62-3.48,1.14-3.48,1.14"/>
    <path class="st3" d="M165.13,152.49c.17,0,3.02,1.14,3.08-.68l.06-1.82s3.48,3.31,3.99,1.71l.51-1.6s4.62,2.34,4.73,1.2c.11-1.14-1.54-2.74-1.54-2.74,0,0,1.2,2.17.46,2.17s-4.39-1.31-4.39-1.31c0,0,0,1.65-.68,1.48-.68-.17-4.11-2.28-4.11-2.28,0,0,.68,2.57-.11,3.08-.8.51-1.99.8-1.99.8"/>
    <path class="st3" d="M142.79,155.05s12.88,7.35,16.47,5.87c3.59-1.48,1.65-10.6-.06-13.22l-1.71-2.62s1.99,4.28,2.28,5.87c.29,1.6,1.48,8.21-1.08,8.67-2.57.46-15.9-4.56-15.9-4.56"/>
    <path class="st3" d="M138.97,148.38s13.85,3.48,15.96-.8c2.11-4.27-1.71-6.84-1.71-6.84,0,0,2.74,5.24.17,6.9s-14.42.74-14.42.74"/>
    <path class="st3" d="M144.78,165.2s6.61.74,8.27-1.31c1.65-2.05,1.54-2.68,1.54-2.68,0,0-1.2,2.68-4.56,2.96-3.36.29-5.24,1.03-5.24,1.03"/>
    <path class="st3" d="M128.54,167.88s18.13,6.27,15.73-10.72c0,0,1.94,8.61-7.18,10.03-9.12,1.42-8.55.68-8.55.68"/>
    <path class="st3" d="M126.2,166s9.18-2.22,8.61-10.55c0,0,.63,5.47-8.61,10.55"/>
    <path class="st3" d="M140.11,149.87s1.2,8.27-4.27,10.43c0,0,3.42-2.91,4.27-10.43"/>
    <path class="st3" d="M119.24,156.19s16.99-2.11,17.79-8.49c.8-6.39.23-7.07.23-7.07,0,0,.34,8.44-3.93,10.26-4.28,1.82-14.08,5.3-14.08,5.3"/>
    <path class="st3" d="M112.86,156.76s9.29-3.99,12.77-7.35c3.48-3.36,3.36-3.76,6.04-4.85,2.68-1.08,4.56-4.45,4.56-4.45,0,0-3.88,3.13-6.27,4.16s-4.1,4.56-6.61,5.87c-2.51,1.31-10.49,6.61-10.49,6.61"/>
    <path class="st3" d="M104.54,155.05s6.33-.85,9.41-4.05c3.08-3.19,9.75-10.32,9.75-10.32,0,0-8.49,8.84-11.46,10.26-2.96,1.43-7.69,4.1-7.69,4.1"/>
    <path class="st3" d="M99.98,149.3s3.82.23,5.59-.34c1.77-.57,2.17-.8,2.17-.8,0,0-6.27,4.28-7.75,1.14"/>
    <path class="st3" d="M125.74,128.03s.1.04.27.1c1.47.55,8.57,3.2,11.48,4.12l3.25,1.03s-11-6.5-14.99-5.24"/>
    <path class="st6" d="M98.62,59.73s7.09,1.42,9.27-.11c2.18-1.53,2.18-2.94,2.18-2.94,0,0,.44,6.87-11.45,3.05"/>
  </g>
  <g>
    <path class="st4" d="M99.73,242.45h-2.96v-15.18h3.2c-.08,1.1-.14,3.4-.18,5.88,1.46-.06,5.62-.08,7.12,0v-5.88h3.18c-.2,2.66-.24,12.1-.24,15.18h-2.94v-6.88c-1.52-.06-5.78-.04-7.14.02-.04,2.72-.04,5.44-.04,6.86Z"/>
    <path class="st4" d="M119.73,242.45c-.1-.18-.22-.6-.24-.9-.94.72-2.18,1.18-3.38,1.18-1.82,0-3.42-1.06-3.42-3.72v-5.46h2.66v5.12c0,1.24.7,1.76,1.54,1.76.54,0,1.02-.18,1.5-.46v-6.42h2.68v6.48c0,.84.1,1.76.32,2.42h-1.66Z"/>
    <path class="st4" d="M123.07,241.65v-1.72c.8.56,1.7.82,2.6.82s1.24-.3,1.24-.76c0-1.28-3.66-.92-3.66-3.82,0-1.84,1.62-2.98,3.54-2.98,1,0,1.64.14,2.2.38v2.48c-.54-.36-1.18-.68-2-.68-.7,0-1.06.26-1.06.72,0,1.26,3.6.96,3.6,3.88,0,2.14-1.84,2.84-3.46,2.84-1.32,0-2.26-.4-3-1.16Z"/>
    <path class="st4" d="M133.37,242.77c-1.62,0-2.54-.74-2.54-2.34,0-1.9,1.6-3.44,4.94-3.76v-.3c0-.64-.36-.96-1.24-.96-1.02,0-1.86.22-2.82.66v-2.5c1.12-.26,2.08-.38,3.04-.38,2.34,0,3.58.98,3.58,3.04,0,1.7-.06,2.76-.06,3.86,0,1.02.16,1.82.38,2.36h-2.1c-.1-.48-.16-1.08-.16-1.66-.46,1.3-1.72,1.98-3.02,1.98ZM133.31,239.95c0,.46.24.74.74.74.58,0,1.68-.52,1.7-2.44-1.76.34-2.44,1-2.44,1.7Z"/>
    <path class="st4" d="M150.41,242.51h-2.32c-.72-2.44-2.48-6.64-3.72-8.96h3.06c.64,1.52,1.64,4.38,2.02,5.8.64-1.62,1.52-4.12,1.94-5.8h2.72c-.76,2.14-2.72,6.54-3.7,8.96Z"/>
    <path class="st4" d="M156.89,238.19c0,1.4.86,2.32,2.7,2.32.78,0,1.6-.2,2.46-.66v1.68c-.82.8-2.02,1.28-3.24,1.28-2.32,0-4.42-1.52-4.42-4.42s2-5.2,5.06-5.2c2.18,0,3.24,1.26,3.24,2.86,0,.74-.28,1.46-.72,1.98l-5.06-.2c-.02.14-.02.24-.02.36ZM159.19,235.11c-.82,0-1.58.44-1.96,1.28l3.3-.1c0-.72-.5-1.18-1.34-1.18Z"/>
    <path class="st4" d="M164.49,226.89l2.9-.12c-.18,2.42-.26,12.6-.26,15.68h-2.64v-15.56Z"/>
    <path class="st4" d="M175.79,233.55h3.1c-1.28,1.74-2.8,3.4-3.62,3.92,1.1.92,2.94,3.22,3.98,4.98h-3.38c-.36-.96-3.14-4.26-3.62-4.3-.02,1.52-.04,3.2-.04,4.3h-2.64v-15.56l2.9-.12c-.1,1.48-.26,6.48-.3,10.98.54-.08,2.54-2.5,3.62-4.2Z"/>
    <path class="st4" d="M182.38,242.77c-1.62,0-2.54-.74-2.54-2.34,0-1.9,1.6-3.44,4.94-3.76v-.3c0-.64-.36-.96-1.24-.96-1.02,0-1.86.22-2.82.66v-2.5c1.12-.26,2.08-.38,3.04-.38,2.34,0,3.58.98,3.58,3.04,0,1.7-.06,2.76-.06,3.86,0,1.02.16,1.82.38,2.36h-2.1c-.1-.48-.16-1.08-.16-1.66-.46,1.3-1.72,1.98-3.02,1.98ZM183.64,232.19l-1.66-.08,2.82-4.18h2.56l-3.72,4.26ZM182.33,239.95c0,.46.24.74.74.74.58,0,1.68-.52,1.7-2.44-1.76.34-2.44,1-2.44,1.7Z"/>
  </g>
</svg>