<?xml version="1.0" encoding="UTF-8"?>
<svg id="Vrstva_1" xmlns="http://www.w3.org/2000/svg" xmlns:xlink="http://www.w3.org/1999/xlink" version="1.1" viewBox="0 0 283.46 283.46">
  <!-- Generator: Adobe Illustrator 30.1.0, SVG Export Plug-In . SVG Version: 2.1.1 Build 136)  -->
  <defs>
    <style>
      .st0 {
        fill: none;
      }

      .st1 {
        fill: #9e5819;
      }

      .st2 {
        fill: #542f03;
      }

      .st3 {
        fill: #43352b;
      }

      .st4 {
        fill: #dadada;
      }

      .st5 {
        fill: #fff;
      }

      .st6 {
        fill: #372b22;
      }

      .st7 {
        fill: #74410e;
      }

      .st8 {
        fill: #826658;
      }

      .st9 {
        fill: #b3682b;
      }

      .st10 {
        clip-path: url(#clippath);
      }

      .st11 {
        fill: #894d14;
      }

      .st12 {
        fill: #060608;
      }
    </style>
    <clipPath id="clippath">
      <rect class="st0" x="19.84" y="19.84" width="243.78" height="243.78"/>
    </clipPath>
  </defs>
  <rect class="st8" x="19.84" y="19.84" width="243.78" height="243.78"/>
  <g class="st10">
    <path class="st3" d="M10.79,151.27s68.99-9.37,82.36-20.1c13.37-10.73,21.92-14.02,20.89-9.67-1.03,4.35-47.54,31.93-47.54,31.93,0,0,20.55,3.24,19.47,6.49-1.08,3.25-40.03-3.25-40.03-3.25,0,0,21.27,15.96,16.51,17.24-4.76,1.28-28.47-11.83-28.47-11.83,0,0,3.18,9.24,0,11.92-3.18,2.68-14.14-8.68-14.14-8.68,0,0,.14,10.28-2.57,11.36-2.7,1.08-6.49-25.42-6.49-25.42"/>
    <path class="st3" d="M14.57,7.32s60.58,7.06,113.59,11.76C181.17,23.79,254.93,2.61,256.72,1.44c1.79-1.18,7.14-3.53,6.9,2.35-.24,5.88-12.24,10-12.24,10,0,0,8.21,5.46,8.21,8.91s-23.26-6.55-23.26-6.55c0,0,12.98,3.81,12.44,9.55-.54,5.74-23.04-3.99-23.04-3.99l-14.4,3.99s13.69,23.38,7.18,24.56c-6.51,1.18-19.09-20.58-19.09-20.58,0,0-44,1.76-44.65,1.76s25.71,33.78,24.16,38.06-24.16-23.9-24.16-23.9c0,0,16.09,26.41,15.29,29.35-.8,2.94-7.5,5.78-12.7,0-5.2-5.78-25.42-29.35-25.42-29.35,0,0,11.36,40.26.54,40.1-10.82-.16-14.06,0-14.06,0,0,0-40.03,53.94-46.52,43.94-6.49-10-7.03-24.63-7.03-24.63,0,0,1.62,33.45-8.11,24.63-9.74-8.82-7.03-64.1-7.03-64.1,0,0-2.7,59.41-9.19,59.11-6.49-.3-13.79-19.64-13.79-19.64,0,0-6.76,19.94-9.47,19.64l-2.7-.3V7.32Z"/>
    <path class="st3" d="M26.74,229.41s4.06-23.63,11.63-24.17c7.57-.54,12.44-5.95,22.18,0,9.74,5.95,16.23,5.95,18.93,5.95s19.47,3.97,23.8,5.5c4.33,1.53,109.1,13.62,114.86,17.31,5.76,3.69,3.49-1.06,7.6,7.26,4.11,8.33,10.06,19.14,10.6,25.09v5.95H14.57s3.25-41.44,12.17-42.89"/>
    <path class="st11" d="M221.84,89.34s.59-21.45-2.37-30.03c-2.96-8.58-7.69-14.35-8.28-13.9-.59.44,0,2.66-1.33,7.1-1.33,4.44-1.33,12.13-2.51,17.31-1.18,5.18-1.18,13.9.44,15.53,1.63,1.63,14.05,3.99,14.05,3.99"/>
    <path class="st4" d="M217.7,139.18c.44.3,3.25,6.21,3.25,6.21l-12.13,6.8-7.1-8.87,5.33-5.18,10.65,1.04Z"/>
    <path class="st11" d="M200.09,173.35s9.32,2.37,14.49-.59c5.18-2.96,10.95-10.5,10.95-10.5,0,0,8.88-3.11,10.8-3.11s6.81-1.04,9.76-2.96c2.96-1.92,6.51-3.4,4.88-5.47-1.63-2.07-3.55-2.37-3.55-2.37,0,0,3.11-1.92,1.18-3.25-1.92-1.33-7.1-.89-7.1-.89,0,0,3.85-2.96.44-3.7-3.4-.74-8.88,1.78-8.88,1.78l-24.26,16.42-8.73,14.64Z"/>
    <path class="st7" d="M195.66,216.69s6.51.15,10.21,0c3.7-.15,4.88,3.4,4.88,3.4,0,0,6.36,1.92,6.51,4.88.15,2.96-1.33.59.15,2.96,1.48,2.37.29,4.88-.59,5.62-.89.74-18.34-5.77-18.34-5.77l-16.86-.89,14.05-10.21Z"/>
    <path class="st4" d="M198.61,174.24s3.85,4.59,4.73,9.17c.89,4.59-.3,3.85-.3,3.85l-.59,11.24-.59-.44s1.63,9.62-3.85,17.16c-5.47,7.54-6.21,9.47-13.31,11.83l-7.1,2.37,16.27-54.58,4.73-.59Z"/>
    <path class="st11" d="M138.41,226.31s-35.06,4.14-51.47-17.6c-16.42-21.74-14.64-52.07-9.32-66.26,5.32-14.2,12.43-24.26,13.31-32.39.89-8.14.74-10.94-9.76-10.35-10.5.59-47.48-14.79-47.19-23.81,0,0,3.25-3.85,7.69-4.44l4.44-.59s-1.18-2.37-4.14-2.07c-2.96.3-4.29-.89-4.29-.89,0,0,.44-4.14,3.99-5.92,3.55-1.77,13.61-3.4,13.61-3.4l-2.37-1.63s5.62-3.7,13.31-3.55c7.69.15,8.43.15,8.43.15,0,0-3.25-2.07-1.04-2.96,2.22-.89,13.9-2.51,21.45-.74l7.54,1.78s-.3-1.33.74-1.63c1.04-.29,15.83,7.99,20.86,12.57l5.03,4.59s3.1-6.36,5.47-4.88c2.37,1.48,11.24,18.93,12.28,20.41,1.04,1.48,1.48.59,1.48.59,0,0,4.73-4.14,3.7,5.77s-7.4,26.33-11.54,32.39c-4.14,6.06-2.22,104.87-2.22,104.87"/>
    <path class="st11" d="M170.07,235.62s3.85,1.03,9.76,1.78c5.92.74,10.21,1.33,11.98,2.07,1.77.74,13.31,2.81,15.53,1.18,2.22-1.63,1.04-4.29,1.04-4.29,0,0,.3,2.37,4.73,1.18,4.44-1.18,5.03-3.55,5.03-3.55,0,0-1.92-7.54-7.54-7.99-5.62-.44-25.74-.44-27.36-.3-1.63.15-5.03.74-5.03.74l-8.13,9.17Z"/>
    <path class="st6" d="M219.17,144.66s-.74-4.14.74-5.32c1.48-1.18,6.8-2.22,10.65-.15,3.85,2.07,9.47,10.21,9.17,13.61-.29,3.4-19.97-.59-20.56-8.13"/>
    <path class="st1" d="M170.66,107.97s-4.44,1.92-8.13,4.29c-3.7,2.37-17.75,4.73-29.43,12.42-11.69,7.69-21.15,34.32-18.64,50.73,2.51,16.42,11.24,33.43,17.16,38.46,5.92,5.03,3.1,9.47,4.14,12.13,1.04,2.66,3.7,6.06,9.76,6.66,6.07.59,12.87,1.33,16.42,2.07,3.55.74,7.4,2.07,11.54-.44,4.14-2.51,18.05-19.38,21.89-30.32,3.85-10.95,2.22-24.85-.3-28.1,0,0,6.36-1.18,10.21-3.85,3.85-2.66,7.25-6.95,7.25-6.95,0,0,2.22-2.07,4.88-2.66,2.66-.59,5.77-1.63,5.77-1.63,0,0,2.37,3.11,5.18,3.7,2.81.59,4.88,1.63,4.73-.15-.15-1.77-2.81-5.18-2.81-5.18,0,0,7.54,3.99,10.21,2.37,2.66-1.63,0-5.03,0-5.03,0,0,1.92-.59,1.63-1.92-.3-1.33-3.11-4.14-5.62-5.03-2.52-.89-7.84-.89-7.84-.89,0,0,6.36-.3,6.51-1.77.15-1.48-3.25-3.11-6.36-3.11s-6.06,1.92-8.14,2.22c-2.07.3-1.03-1.33-1.48-1.33s-2.66.89-4.59,1.92c-1.92,1.03-1.77,2.37-5.62,1.48-3.85-.89-5.92-4.29-4.88-5.32,1.04-1.03,3.25-.89,5.03-2.66,0,0,1.78-.74,3.4-.44,1.63.3,3.85,2.07,6.8,1.78,2.96-.3,4.14-2.37,4.14-2.37,0,0,7.25.89,9.61-2.51,0,0,3.11.74,4.14-1.48,1.04-2.22,1.18-4.73-.59-9.17-1.78-4.44-1.92-8.73-1.92-11.24s.59-6.21-3.11-10.8c-3.7-4.59-3.4-9.17-8.13-13.76-4.73-4.59-12.57-7.84-22.48-5.77,0,0-11.09,3.55-15.97,10.65-4.88,7.1-7.25,9.02-10.21,10.65-2.96,1.63-4.14,2.37-4.14,2.37"/>
    <path class="st11" d="M157.2,169.21s5.03-5.03,14.2-5.18c9.17-.15,21.6,9.47,21.6,9.47,0,0-9.76-7.99-15.97-10.36-6.21-2.37-10.95-4.88-12.43-7.99-1.48-3.11-4.44-6.21-7.4-4.73-2.96,1.48-3.55,6.66.15,8.43,3.7,1.77,6.51,2.96,6.51,2.96,0,0-9.76,7.54-6.66,7.4"/>
    <path class="st11" d="M204.68,94.81s3.11-2.66,2.81-6.21c-.3-3.55-3.4-8.88-3.11-11.09.3-2.22-.44-24.85-1.63-27.66-1.18-2.81-3.55-3.55-3.55-3.55,0,0-8.87,9.32-13.16,18.93-4.29,9.61,1.92,25.74,2.37,29.88.44,4.14,3.7,10.5,6.8,8.87,3.11-1.63,3.7-5.03,5.62-5.77,1.92-.74,3.55-2.81,3.55-2.81l.3-.59Z"/>
    <path class="st11" d="M181.31,108.27s-2.22,8.43,3.11,17.45c5.32,9.02,15.09,13.9,18.64,14.5,3.55.59,1.04,1.18-.15,1.33-1.18.15-13.16-3.4-20.41-16.57-7.25-13.16-1.18-16.71-1.18-16.71"/>
    <path class="st11" d="M191.81,124.69s3.55,6.8,8.43,9.61c4.88,2.81,6.8,3.85,6.8,3.85,0,0-7.99-1.63-11.83-5.77-3.85-4.14-3.4-7.69-3.4-7.69"/>
    <path class="st11" d="M188.7,106.05s-1.33,3.25-.59,6.21l.74,2.96s-3.7-4.58-2.07-8.73,1.92-.44,1.92-.44"/>
    <path class="st2" d="M230.56,131.94s-.59,4.14,2.51,4.59c0,0-5.18.44-2.51-4.59"/>
    <path class="st2" d="M213.7,135.19c.44,0,4.29,4.14,6.21,4.14s3.55-.3,3.55-.3c0,0-2.96,2.22-5.77.15-2.81-2.07-3.99-3.99-3.99-3.99"/>
    <path class="st11" d="M203.79,112.41s3.11-7.25,8.13-5.47c5.03,1.78,7.99,7.99,5.92,11.39-2.07,3.4-3.25,2.66-3.25,2.66,0,0-5.92,2.07-8.28.3-2.37-1.77-3.1-7.84-2.51-8.88"/>
    <path class="st9" d="M205.71,112.41s1.18-2.81,4.14-2.96c2.96-.15,5.92,2.22,6.51,4.73.59,2.51.44,4.29-1.92,5.33-2.37,1.03-7.84-.59-8.73-3.7-.89-3.11,0-3.4,0-3.4"/>
    <path class="st12" d="M207.05,112.26s2.37-2.22,4.44-1.18c2.07,1.04,3.7,3.4,3.55,5.77-.15,2.37-4.14,2.22-5.33,1.63-1.18-.59-3.4-2.51-2.66-6.21"/>
    <path class="st4" d="M210.89,112.85s-2.37,2.07-1.48,2.96c.89.89,1.48-2.96,1.48-2.96"/>
  </g>
  <g>
    <path class="st5" d="M82.7,242.55h-2.44c-1.2-3.58-3.98-10.54-6.06-15.28h3.6c1.5,3.68,3.06,8.08,3.96,11.04,1.2-2.92,2.84-7.38,4-11.04h3.28c-1.82,4.96-4.36,11.06-6.34,15.28Z"/>
    <path class="st5" d="M90.68,238.19c0,1.4.86,2.32,2.7,2.32.78,0,1.6-.2,2.46-.66v1.68c-.82.8-2.02,1.28-3.24,1.28-2.32,0-4.42-1.52-4.42-4.42s2-5.2,5.06-5.2c2.18,0,3.24,1.26,3.24,2.86,0,.74-.28,1.46-.72,1.98l-5.06-.2c-.02.14-.02.24-.02.36ZM92.98,235.11c-.82,0-1.58.44-1.96,1.28l3.3-.1c0-.72-.5-1.18-1.34-1.18Z"/>
    <path class="st5" d="M102.96,242.51h-2.32c-.72-2.44-2.48-6.64-3.72-8.96h3.06c.64,1.52,1.64,4.38,2.02,5.8.64-1.62,1.52-4.12,1.94-5.8h2.72c-.76,2.14-2.72,6.54-3.7,8.96Z"/>
    <path class="st5" d="M109.44,238.19c0,1.4.86,2.32,2.7,2.32.78,0,1.6-.2,2.46-.66v1.68c-.82.8-2.02,1.28-3.24,1.28-2.32,0-4.42-1.52-4.42-4.42s2-5.2,5.06-5.2c2.18,0,3.24,1.26,3.24,2.86,0,.74-.28,1.46-.72,1.98l-5.06-.2c-.02.14-.02.24-.02.36ZM111.74,235.11c-.82,0-1.58.44-1.96,1.28l3.3-.1c0-.72-.5-1.18-1.34-1.18Z"/>
    <path class="st5" d="M119.7,236.45v6h-2.68v-5.48c0-1.64-.2-2.64-.48-3.42h1.76c.18.38.34.98.36,1.4.7-1.04,1.84-1.72,2.94-1.72.48,0,.88.12,1.22.3v2.78c-.44-.32-.92-.48-1.48-.48-.6,0-1.22.22-1.64.62Z"/>
    <path class="st5" d="M130.44,233.55h3.1c-1.28,1.74-2.8,3.4-3.62,3.92,1.1.92,2.94,3.22,3.98,4.98h-3.38c-.36-.96-3.14-4.26-3.62-4.3-.02,1.52-.04,3.2-.04,4.3h-2.64v-15.56l2.9-.12c-.1,1.48-.26,6.48-.3,10.98.54-.08,2.54-2.5,3.62-4.2Z"/>
    <path class="st5" d="M137.04,242.77c-1.62,0-2.54-.74-2.54-2.34,0-1.9,1.6-3.44,4.94-3.76v-.3c0-.64-.36-.96-1.24-.96-1.02,0-1.86.22-2.82.66v-2.5c1.12-.26,2.08-.38,3.04-.38,2.34,0,3.58.98,3.58,3.04,0,1.7-.06,2.76-.06,3.86,0,1.02.16,1.82.38,2.36h-2.1c-.1-.48-.16-1.08-.16-1.66-.46,1.3-1.72,1.98-3.02,1.98ZM136.98,239.95c0,.46.24.74.74.74.58,0,1.68-.52,1.7-2.44-1.76.34-2.44,1-2.44,1.7Z"/>
    <path class="st5" d="M158.82,238.05c0,2.84-2.18,4.76-4.98,4.76s-4.82-1.98-4.82-4.76,2.1-4.86,4.92-4.86,4.88,2.02,4.88,4.86ZM151.84,238.05c0,1.6.86,2.64,2.14,2.64s2.02-.96,2.02-2.58-.84-2.74-2.12-2.74-2.04,1.08-2.04,2.68Z"/>
    <path class="st5" d="M162.08,242.89h-1.56c.12-.96.18-2.3.18-3.38v-12.62l2.92-.12c-.16,2.5-.24,4.64-.24,7.4.8-.62,1.68-.94,2.92-.94,2.5,0,4,1.94,4,4.44,0,2.68-1.6,5.06-4.86,5.06-1.42,0-2.42-.54-3.06-1.28-.08.46-.18.94-.3,1.44ZM163.38,238.33c0,1.56.66,2.34,1.96,2.34,1.22,0,2.04-1.14,2.04-2.68s-.62-2.58-2.04-2.58c-.8,0-1.46.3-1.96.74v2.18Z"/>
    <path class="st5" d="M174.22,238.19c0,1.4.86,2.32,2.7,2.32.78,0,1.6-.2,2.46-.66v1.68c-.82.8-2.02,1.28-3.24,1.28-2.32,0-4.42-1.52-4.42-4.42s2-5.2,5.06-5.2c2.18,0,3.24,1.26,3.24,2.86,0,.74-.28,1.46-.72,1.98l-5.06-.2c-.02.14-.02.24-.02.36ZM176.52,235.11c-.82,0-1.58.44-1.96,1.28l3.3-.1c0-.72-.5-1.18-1.34-1.18Z"/>
    <path class="st5" d="M185.44,242.81c-2.2,0-4.22-1.4-4.22-4.46,0-3.38,2.42-5.16,4.9-5.16.74,0,1.46.14,2.06.38v2.66c-.64-.4-1.32-.58-2.04-.58-1.48,0-2.42.96-2.42,2.38s.92,2.24,2.32,2.24c.74,0,1.5-.24,2.14-.68v1.92c-.46.78-1.54,1.3-2.74,1.3Z"/>
    <path class="st5" d="M191.62,233.55c.12.24.22.64.24.94.78-.68,1.94-1.22,3.26-1.22,1.84,0,3.44,1.06,3.44,3.72v5.46h-2.66v-5.12c0-1.24-.72-1.76-1.56-1.76-.52,0-1.02.18-1.48.46v6.42h-2.68v-6.48c0-.84-.12-1.76-.34-2.42h1.78Z"/>
    <path class="st5" d="M202.78,242.77c-1.62,0-2.54-.74-2.54-2.34,0-1.9,1.6-3.44,4.94-3.76v-.3c0-.64-.36-.96-1.24-.96-1.02,0-1.86.22-2.82.66v-2.5c1.12-.26,2.08-.38,3.04-.38,2.34,0,3.58.98,3.58,3.04,0,1.7-.06,2.76-.06,3.86,0,1.02.16,1.82.38,2.36h-2.1c-.1-.48-.16-1.08-.16-1.66-.46,1.3-1.72,1.98-3.02,1.98ZM204.04,232.19l-1.66-.08,2.82-4.18h2.56l-3.72,4.26ZM202.72,239.95c0,.46.24.74.74.74.58,0,1.68-.52,1.7-2.44-1.76.34-2.44,1-2.44,1.7Z"/>
  </g>
</svg>