<?xml version="1.0" encoding="UTF-8"?>
<svg id="Vrstva_1" xmlns="http://www.w3.org/2000/svg" xmlns:xlink="http://www.w3.org/1999/xlink" version="1.1" viewBox="0 0 283.46 283.46">
  <!-- Generator: Adobe Illustrator 30.1.0, SVG Export Plug-In . SVG Version: 2.1.1 Build 136)  -->
  <defs>
    <style>
      .st0 {
        fill: none;
      }

      .st1 {
        fill: #523731;
      }

      .st2 {
        fill: #d6d6d6;
      }

      .st3 {
        fill: #332511;
      }

      .st4 {
        fill: #c78e5e;
      }

      .st5 {
        fill: #fff;
      }

      .st6 {
        fill: #2d2720;
      }

      .st7 {
        fill: #ba743c;
      }

      .st8 {
        fill: #ab9a87;
      }

      .st9 {
        fill: #ba776a;
      }

      .st10 {
        fill: silver;
      }

      .st11 {
        fill: #cea981;
      }

      .st12 {
        fill: #ba9975;
      }

      .st13 {
        fill: #807466;
      }

      .st14 {
        fill: #dcb798;
      }

      .st15 {
        fill: #ededed;
      }

      .st16 {
        clip-path: url(#clippath);
      }
    </style>
    <clipPath id="clippath">
      <rect class="st0" x="19.84" y="19.84" width="243.78" height="243.78"/>
    </clipPath>
  </defs>
  <rect class="st8" x="19.84" y="19.84" width="243.78" height="243.78"/>
  <g class="st16">
    <path class="st13" d="M16.6,213.75s5.68-16.63,17.85-15.01c12.17,1.62-3.65,12.58,14.2.41,17.85-12.17,15.01-10.55,17.85-12.17,2.84-1.62,14.2-2.43,14.2-2.43l5.27-.41s7.3-4.06,8.11-5.27c.81-1.22-17.04-9.74,11.36-20.69,28.4-10.95,39.35-10.55,53.14-19.88,13.79-9.33,34.89-8.93,50.3-12.58,15.42-3.65,32.45-8.92,33.67-8.92s28.8,5.68,28.8,5.68l2.03,153.75-258.81-3.65,2.03-58.82Z"/>
    <path class="st15" d="M91.65,102.47s-2.43,21.64-6.22,22.72c-3.79,1.08-10.01-9.19-10.01-9.19l15.14-15.15,1.08,1.62Z"/>
    <path class="st3" d="M85.29,209.43c.81-.68,2.7-6.76,4.33-7.98,1.62-1.22,12.17-5.27,14.47-5.27s11.09,1.49,17.44,2.03c6.35.54,14.2.14,14.87.68s3.92,7.98,4.6,9.19c.68,1.22,1.62,8.25,1.76,13.39.14,5.14.27,32.39.27,35.26s-.14,7.47-.14,7.47l-59.9.14s-.13-19.2,1.22-24.88c1.35-5.68,1.35-20.69,1.08-23.93s0-6.08,0-6.08"/>
    <path class="st7" d="M131.94,191.44s4.46.54,5.54,2.03c1.08,1.49,2.43,4.46,1.08,5.68-1.35,1.22-5.68-.54-6.22-.81-.54-.27-4.33,0-7.71,0s-4.33-.68-3.65-1.62c.68-.95,10.95-5.27,10.95-5.27"/>
    <path class="st1" d="M137.22,195.91s2.98,6.9,1.89,9.87c0,0,2.43-2.03,1.89-5.54-.54-3.52-2.84-5.95-3.79-4.33"/>
    <path class="st7" d="M116.26,197.66s-.41.81-2.7-.54c-2.3-1.35-4.6-4.33-6.63-4.87-2.03-.54-4.06-1.49-4.87,1.62-.81,3.11.54,3.38,2.16,4.06,1.62.68,4.06,2.3,4.06,2.3,0,0-6.49-.27-8.79-.95-2.3-.68-5-2.3-5.95-.27-.95,2.03-1.35,5,.68,5.14,2.03.14,1.76-.41,4.33-.14,2.57.27,3.79.68,7.44.95,3.65.27,6.49.27,6.08,1.62-.41,1.35-3.11,4.19-3.24,6.22-.14,2.03-.81,4.19,2.57,2.98,3.38-1.22,2.97-3.92,4.87-5.27s4.06-4.46,5.95-3.92c1.89.54,1.35,3.51,5,3.65,3.65.14,5.95-3.52,4.33-5.14-1.62-1.62-3.11-1.08-5.81-2.3-2.71-1.22-5.68-2.3-5.95-2.97-.27-.68.81-2.71,0-3.25-.81-.54-3.52,1.08-3.52,1.08"/>
    <path class="st1" d="M130.32,206.99s-1.08,1.89-.68,2.84c.41.95,1.22,3.38.68,4.73-.54,1.35-1.08,1.76-.68,1.89.41.13,2.97-2.43,2.43-5.68-.54-3.25-1.22-3.92-1.76-3.79"/>
    <path class="st1" d="M109.9,212.4s1.22-.14,1.22,1.22-7.03,7.03-7.03,5.81,5.27-7.3,5.82-7.03"/>
    <path class="st1" d="M87.46,205.64s-.41-4.06,2.7-5.14c3.11-1.08,4.06-1.62,4.19-.41.14,1.22-2.03,1.35-3.25,1.89s-3.38,2.57-3.65,3.65"/>
    <path class="st1" d="M102.47,192.39s-3.38,2.43-4.06,3.79c-.68,1.35-.4,3.38.27,2.97.68-.41,0-1.49,1.08-2.43,1.08-.95,2.16-.68,2.16-1.08s.54-3.25.54-3.25"/>
    <path class="st2" d="M127.08,174.41s-2.7,7.03-3.92,9.47c-1.22,2.43-3.25,9.33-4.73,10.68-1.49,1.35-1.35,3.65-.68,4.33.68.68,1.35,5.54,4.06,4.87,2.71-.68,2.3-2.98,6.36-5.41,4.06-2.43,10.01-10.14,11.9-13.66,1.89-3.52,2.71-4.33,1.62-6.22s-12.58-6.76-14.6-4.06"/>
    <path class="st15" d="M130.19,175.49s2.43.95,4.33,3.38c1.89,2.43,7.17,11.76,11.36,12.71,4.19.95,7.3-2.43,8.65-2.16,1.35.27,2.57,1.49,5.68-.54s5.68-5.41,5.68-5.41c0,0,11.09,3.65,15.28,2.57,4.19-1.08-12.98-16.9-12.98-16.9,0,0-39.35-4.73-48.41-6.63-9.06-1.89-12.03-3.11-12.03-3.11,0,0-8.11,1.08-14.2-1.62-6.08-2.71-20.69-17.71-20.69-17.71,0,0,12.98-15.69,12.04-15.96-.95-.27-.41-13.12-.41-13.12l-40.7,1.08s3.52,7.17,7.17,8.92c3.65,1.76,3.92,1.49,5.14,2.97,1.22,1.49,3.24,9.06,5.14,11.49,1.89,2.43,5.82,5.68,8.11,7.84,2.3,2.16,3.92,4.19,5.27,6.08,1.35,1.89,4.87,7.57,11.22,12.71,6.36,5.14,11.36,8.38,16.09,11.76,4.73,3.38,12.17,4.46,18.26,3.65,6.08-.81,8.79-2.3,10.01-2.03"/>
    <path class="st2" d="M169.27,172.92s10.95,15.42,17.58,18.8c6.62,3.38,8.65,3.92,10.28,1.35,1.62-2.57,1.76-3.65,1.76-3.65,0,0,3.51,0,4.33-3.11.81-3.11-.13-5.54-.13-5.54,0,0,4.19,1.08,6.9-1.35,2.7-2.43,2.3-4.6,2.3-4.6,0,0,5.81,3.65,7.57,1.76,1.76-1.89-1.62-4.19-1.62-4.19,0,0,15.82,2.97,16.36.68.54-2.3-5.41-7.98-5.41-7.98,0,0-25.15,6.22-25.69,6.22s-25.29.41-25.69.41-9.6-1.76-9.6-1.76l1.08,2.97Z"/>
    <path class="st14" d="M166.29,171.84s1.35,1.22,10.95,2.84c9.6,1.62,30.02-1.22,42.46-4.33,12.44-3.11,28.8-13.39,29.34-15.82.54-2.43-5.81-6.76-9.33-6.63-3.52.13-4.06-3.25-10.68-5.41-6.63-2.16-17.85-5.27-21.63-5.27s-20.82-7.71-20.82-7.71l7.71,20.96-10.28,9.19-11.49,4.6-7.57,2.84,1.35,4.73Z"/>
    <path class="st11" d="M111.66,164.4s10.28,5.82,19.61,7.3c9.33,1.49,13.39.13,13.39.13,0,0,11.49,5.95,15.82,4.46l4.33-1.49s5.82-1.49,6.36-3.25l.54-1.76s4.33-1.35,4.73-1.89l.41-.54s5.27-.54,6.36-1.89l1.08-1.35s4.06-2.16,4.6-3.52c.54-1.35.54-1.89.54-1.89,0,0,7.03-2.03,8.25-4.73l1.22-2.71s4.73-.54,4.6-5.14c-.14-4.6-.54-5.68-.54-5.68,0,0,4.46-1.08,4.19-5.27-.27-4.19-1.35-5-1.35-5,0,0,1.89-4.33-1.22-6.49-3.11-2.16-6.63.81-12.51-1.42-5.88-2.23-9.53-4.06-9.53-4.06,0,0,.81-5.48-1.01-7.3l-1.83-1.82s3.04-2.84,1.22-5.27c-1.83-2.43-6.69-5.48-6.69-5.48,0,0,1.82-2.84-2.84-4.87-4.66-2.03-8.72-2.23-8.72-2.23,0,0-13.59-5.68-24.54-7.3-10.95-1.62-10.55.61-16.43-1.22-5.88-1.83-12.78-6.29-17.24-7.71-4.46-1.42-7.1-4.46-7.71-5.88-.61-1.42-12.17-13.18-25.76-16.02-13.59-2.84-27.18,4.66-33.27,21.91-6.08,17.24-3.04,31.64,9.53,39.76,12.58,8.11,22.11,6.69,28.8,3.85,6.69-2.84,12.78-13.39,12.78-13.39,0,0-.81,12.17-3.25,15.41-2.43,3.25-14.81,11.97-13.79,17.04,1.01,5.07,14.81,25.96,25.56,27.38,10.75,1.42,14.33-.68,14.33-.68"/>
    <path class="st12" d="M88.2,119.03s3.25.61,7.3-.41c4.06-1.01,8.32-9.13,10.95-12.98,2.64-3.85,2.23-11.97,5.07-14.81,2.84-2.84.4-10.75-5.27-13.18-5.68-2.43-12.78.61-14.2,4.06-1.42,3.45,3.18,6.08.95,9.53-2.23,3.45-7.03,25.76-4.8,27.79"/>
    <path class="st15" d="M62.85,71.77s5.68-6.49,12.37-5.07c6.69,1.42,13.39,5.48,15.21,10.95,1.83,5.48.61,24.34-5.07,30.42-5.68,6.09-7.3,10.75-22.92,10.35-15.62-.41-24.34-14.81-25.56-18.66-1.22-3.85-1.83-18.46,3.04-24.75,4.87-6.29,14.6-13.39,22.92-3.24"/>
    <path class="st2" d="M63.05,108.28s-5.48-11.97-6.69-15.82c-1.22-3.85.3-9.23-4.06-9.13-4.36.1-7.51,3.45-5.48,6.9,2.03,3.45,3.55,4.36,5.27,4.36s3.24.81,3.55,1.42c.3.61,8.42,17.24,9.63,16.53,1.22-.71,6.79-16.23,7.5-16.84.71-.61,1.62-1.42,3.04-1.32,1.42.1,5.48-1.83,5.78-4.97.3-3.14.91-5.27-2.03-6.69-2.94-1.42-6.39-.81-7.51,1.52-1.12,2.33-.41,7.4-1.01,10.14-.61,2.74-4.26,13.39-4.97,14.5-.71,1.12-3.04-.61-3.04-.61"/>
    <path class="st9" d="M63.86,99.97s-1.12,2.54-1.12,4.26,0,3.75.61,4.77c.61,1.01,1.11,2.13,1.93,1.01.81-1.11,1.93-3.04,2.03-4.66.1-1.62-1.01-7.2-3.45-5.38"/>
    <path class="st6" d="M53.92,86.27s-2.53-2.43-5.38.3.51,6.39,2.74,6.29c2.23-.1,3.85-.81,3.96-2.94.1-2.13-1.32-3.65-1.32-3.65"/>
    <path class="st6" d="M72.58,87.29s1.42-3.65,4.87-2.84c3.45.81,3.55,4.67,1.82,6.19-1.72,1.52-4.36.81-5.27.3-.91-.51-1.62-2.64-1.42-3.65"/>
    <path class="st2" d="M50.68,88.1s-.91,1.42.1,1.52c1.01.1.41-1.62-.1-1.52"/>
    <path class="st10" d="M180.79,174.91s8.82,9.33,12.68,11.36l3.85,2.03s-3.45-.1-8.42-3.85c-4.97-3.75-9.63-9.43-9.63-9.43l1.52-.1Z"/>
    <path class="st10" d="M192.96,174.71s5.88,4.06,7.4,4.77c1.52.71,1.32,1.12,1.01,1.12s-8.32-4.56-9.53-5.58l1.12-.3Z"/>
    <path class="st2" d="M75.62,87.09s-.91,1.22,0,1.32c.91.1.3-1.11,0-1.32"/>
    <path class="st2" d="M60.82,123.6s1.52,3.96,7.71,2.84c6.19-1.12,8.52-5.07,10.45-5.98,1.93-.91,3.65-2.64,3.65-2.64,0,0-.91,2.13-2.94,3.25-2.03,1.12-5.17,5.27-8.82,7s-8.42.91-10.04-4.46"/>
    <path class="st4" d="M111.66,164.4s1.59-4.29.37-4.8c0,0,27.92,11.39,32.62,12.24,0,0-2.6,3.99-20.55-1.28,0,0-11.49-4.7-12.44-6.15"/>
    <path class="st11" d="M184.24,164.47s14.2,0,32.45-2.23c18.26-2.23,23.23-9.53,22.31-10.35-.91-.81-1.62-.81-1.62-.81,0,0,1.22.3.41,1.32-.81,1.01-6.29,7.71-26.27,9.03-19.98,1.32-27.48,1.42-27.48,1.42l-1.01,1.12,1.22.51Z"/>
    <path class="st11" d="M194.08,156.15s9.63.71,18.05,0c8.42-.71,15.52-3.04,15.21-5.37-.31-2.33-2.33-2.74-2.33-2.74,0,0,1.72,1.42,1.42,2.64-.3,1.22-8.22,4.26-17.34,4.46-9.13.2-14.1-.1-14.1-.1l-.91,1.12Z"/>
    <path class="st12" d="M121.67,156.25s32.96,14.91,37.32,15.11c4.36.2,5.38-.1,5.38-.1,0,0-6.69-.31-8.82-1.62-2.13-1.32-32.96-14.2-33.87-13.39"/>
    <path class="st12" d="M134.14,151.59s31.54,15.42,34.38,16.12c2.84.71,2.03,1.22,2.03,1.22,0,0-1.42.41-12.37-4.66s-24.54-11.97-24.04-12.68"/>
    <path class="st12" d="M148.54,149.76s23.22,15.82,25.05,16.53c1.82.71,2.33.71,2.33.71,0,0,1.32,1.12-4.97-1.42-6.29-2.53-22.41-15.82-22.41-15.82"/>
    <path class="st12" d="M160.61,148.75s19.57,11.76,22.62,11.76h3.04s.81,2.33-5.38,0c-6.19-2.33-21.8-10.95-20.28-11.76"/>
    <path class="st12" d="M117.31,157.37c1.35-.12,4.87-2.03,5.68-3.55.81-1.52,1.22-1.83,1.22-1.83,0,0,10.95-1.93,12.37-3.35,1.42-1.42,1.01-1.12,1.42-1.42.41-.3,10.34-1.52,12.88-3.75,2.53-2.23,3.24-2.74,3.24-2.74,0,0-2.23,2.03-5.98,3.14-3.75,1.12-10.85,1.72-11.26,2.23-.4.51-1.42,2.23-5.38,3.04-3.96.81-8.72.41-8.72.91s-1.62,3.14-3.25,4.77c-1.62,1.62-3.35,2.64-2.23,2.53"/>
    <path class="st12" d="M82.52,143.17s9.23,7.91,14.71,5.88c5.48-2.03,6.69-4.06,6.69-4.06,0,0,7.4.91,10.55-.71l3.14-1.62s8.62-1.42,11.26-3.85c2.64-2.43,2.94-3.55,2.94-3.55,0,0,.71,2.64-4.56,5.58-5.27,2.94-8.52,2.64-8.52,2.64,0,0-4.67,2.74-8.42,2.74s-5.58-.3-5.58-.3c0,0-4.77,5.17-9.63,4.66-4.87-.51-12.68-6.9-12.58-7.4"/>
    <path class="st12" d="M91.04,124.41s16.94,3.24,20.69-1.12c0,0,15.52-2.43,16.43-6.69,0,0-.81,9.94-15.31,7.91,0,0-10.14,7.4-21.81-.1"/>
  </g>
  <g>
    <path class="st5" d="M100.49,230.65c-.68-.52-1.9-.86-2.92-.86-1.16,0-1.86.54-1.86,1.54,0,2.58,5.62,2.74,5.62,7.1,0,2.74-2.18,4.32-4.84,4.32-1.82,0-3.32-.72-4.32-1.5v-2.1c.94.54,2.46.96,3.72.96s2.16-.52,2.16-1.58c0-2.4-5.6-2.64-5.6-6.9,0-2.7,2.3-4.66,5.3-4.66,1.08,0,1.98.16,2.74.36v3.32Z"/>
    <path class="st5" d="M112.81,238.05c0,2.84-2.18,4.76-4.98,4.76s-4.82-1.98-4.82-4.76,2.1-4.86,4.92-4.86,4.88,2.02,4.88,4.86ZM105.83,238.05c0,1.6.86,2.64,2.14,2.64s2.02-.96,2.02-2.58-.84-2.74-2.12-2.74-2.04,1.08-2.04,2.68Z"/>
    <path class="st5" d="M119.07,242.51h-2.32c-.72-2.44-2.48-6.64-3.72-8.96h3.06c.64,1.52,1.64,4.38,2.02,5.8.64-1.62,1.52-4.12,1.94-5.8h2.72c-.76,2.14-2.72,6.54-3.7,8.96Z"/>
    <path class="st5" d="M125.77,242.77c-1.62,0-2.54-.74-2.54-2.34,0-1.9,1.6-3.44,4.94-3.76v-.3c0-.64-.36-.96-1.24-.96-1.02,0-1.86.22-2.82.66v-2.5c1.12-.26,2.08-.38,3.04-.38,2.34,0,3.58.98,3.58,3.04,0,1.7-.06,2.76-.06,3.86,0,1.02.16,1.82.38,2.36h-2.1c-.1-.48-.16-1.08-.16-1.66-.46,1.3-1.72,1.98-3.02,1.98ZM125.71,239.95c0,.46.24.74.74.74.58,0,1.68-.52,1.7-2.44-1.76.34-2.44,1-2.44,1.7Z"/>
    <path class="st5" d="M138.07,233.55h1.68c.16.48.26.86.32,1.36.88-1.1,2.12-1.66,3.68-1.66,2.6,0,4.22,1.76,4.22,4.44s-1.56,5.08-4.86,5.08c-.84,0-1.48-.16-2.06-.52v6.2h-2.88c.14-2,.2-7.64.2-11.94,0-1.24-.1-2.14-.3-2.96ZM141.05,238.29c0,1.62.72,2.42,1.94,2.42,1.28,0,2.06-1.14,2.06-2.7s-.68-2.54-2.04-2.54c-.8,0-1.46.32-1.96.76v2.06Z"/>
    <path class="st5" d="M151.75,242.77c-1.62,0-2.54-.74-2.54-2.34,0-1.9,1.6-3.44,4.94-3.76v-.3c0-.64-.36-.96-1.24-.96-1.02,0-1.86.22-2.82.66v-2.5c1.12-.26,2.08-.38,3.04-.38,2.34,0,3.58.98,3.58,3.04,0,1.7-.06,2.76-.06,3.86,0,1.02.16,1.82.38,2.36h-2.1c-.1-.48-.16-1.08-.16-1.66-.46,1.3-1.72,1.98-3.02,1.98ZM153.01,232.19l-1.66-.08,2.82-4.18h2.56l-3.72,4.26ZM151.69,239.95c0,.46.24.74.74.74.58,0,1.68-.52,1.7-2.44-1.76.34-2.44,1-2.44,1.7Z"/>
    <path class="st5" d="M159.05,226.89l2.9-.12c-.18,2.42-.26,12.6-.26,15.68h-2.64v-15.56Z"/>
    <path class="st5" d="M166.07,238.19c0,1.4.86,2.32,2.7,2.32.78,0,1.6-.2,2.46-.66v1.68c-.82.8-2.02,1.28-3.24,1.28-2.32,0-4.42-1.52-4.42-4.42s2-5.2,5.06-5.2c2.18,0,3.24,1.26,3.24,2.86,0,.74-.28,1.46-.72,1.98l-5.06-.2c-.02.14-.02.24-.02.36ZM168.37,235.11c-.82,0-1.58.44-1.96,1.28l3.3-.1c0-.72-.5-1.18-1.34-1.18Z"/>
    <path class="st5" d="M175.11,233.55c.12.24.22.64.24.94.78-.68,1.94-1.22,3.26-1.22,1.84,0,3.44,1.06,3.44,3.72v5.46h-2.66v-5.12c0-1.24-.72-1.76-1.56-1.76-.52,0-1.02.18-1.48.46v6.42h-2.68v-6.48c0-.84-.12-1.76-.34-2.42h1.78Z"/>
    <path class="st5" d="M186.29,242.77c-1.62,0-2.54-.74-2.54-2.34,0-1.9,1.6-3.44,4.94-3.76v-.3c0-.64-.36-.96-1.24-.96-1.02,0-1.86.22-2.82.66v-2.5c1.12-.26,2.08-.38,3.04-.38,2.34,0,3.58.98,3.58,3.04,0,1.7-.06,2.76-.06,3.86,0,1.02.16,1.82.38,2.36h-2.1c-.1-.48-.16-1.08-.16-1.66-.46,1.3-1.72,1.98-3.02,1.98ZM187.55,232.19l-1.66-.08,2.82-4.18h2.56l-3.72,4.26ZM186.23,239.95c0,.46.24.74.74.74.58,0,1.68-.52,1.7-2.44-1.76.34-2.44,1-2.44,1.7Z"/>
  </g>
</svg>