<?xml version="1.0" encoding="UTF-8"?>
<svg id="Vrstva_1" xmlns="http://www.w3.org/2000/svg" xmlns:xlink="http://www.w3.org/1999/xlink" version="1.1" viewBox="0 0 141.73 141.73">
  <!-- Generator: Adobe Illustrator 30.1.0, SVG Export Plug-In . SVG Version: 2.1.1 Build 136)  -->
  <defs>
    <style>
      .st0 {
        fill: none;
      }

      .st1 {
        fill: #e1874f;
      }

      .st2 {
        fill: #a05e30;
      }

      .st3 {
        fill: #9c5c2f;
      }

      .st4 {
        fill: #ba6d38;
      }

      .st5 {
        fill: #cb763d;
      }

      .st6 {
        fill: #5f2d12;
      }

      .st7 {
        clip-path: url(#clippath-1);
      }

      .st8 {
        clip-path: url(#clippath-2);
      }

      .st9 {
        fill: #c16935;
      }

      .st10 {
        fill: #706f6f;
      }

      .st11 {
        fill: #ea8646;
      }

      .st12 {
        fill: #d77c41;
      }

      .st13 {
        clip-path: url(#clippath);
      }

      .st14 {
        fill: #da834d;
      }
    </style>
    <clipPath id="clippath">
      <rect class="st0" x="12.05" y="1.42" width="117.35" height="117.35"/>
    </clipPath>
    <clipPath id="clippath-1">
      <rect class="st0" x="32.26" y="50.91" width="21.54" height="18.82"/>
    </clipPath>
    <clipPath id="clippath-2">
      <rect class="st0" x="12.05" y="1.42" width="117.35" height="117.35"/>
    </clipPath>
  </defs>
  <g>
    <path class="st10" d="M60.12,124.46c.26.05.49.13.69.22l-.26,1.27-.13.06c-.41-.22-.77-.34-1.09-.34-.37,0-.65.13-.85.4-.2.26-.3.64-.3,1.13,0,.56.11.99.32,1.28.22.3.52.44.92.44.36,0,.76-.1,1.2-.3l.12.1-.16,1.24c-.48.15-.97.23-1.48.23-.77,0-1.37-.25-1.8-.75s-.65-1.2-.65-2.09.24-1.65.71-2.18c.47-.52,1.13-.79,1.97-.79.26,0,.53.03.79.08Z"/>
    <path class="st10" d="M63.11,121.97c.14.14.21.34.21.6,0,.27-.08.49-.23.65-.15.16-.36.24-.62.24s-.47-.07-.61-.22c-.14-.14-.21-.35-.21-.61s.08-.48.23-.64c.16-.16.37-.24.64-.24.25,0,.44.07.58.22ZM61.77,127.77l-.06-3.17,1.57-.13-.07,3.14.07,2.46h-1.6l.08-2.3Z"/>
    <path class="st10" d="M69.42,125.13c.37.48.56,1.14.56,1.99,0,.98-.24,1.74-.73,2.27-.49.53-1.16.8-2.03.8-.41,0-.86-.09-1.34-.28l-.84.3-.19-.16.08-2.28-.07-6.01,1.58-.12-.05,3.64h.07c.22-.22.44-.39.65-.52.21-.13.44-.25.7-.34.7,0,1.24.24,1.61.71ZM68.15,128.72c.22-.29.34-.73.34-1.32,0-.55-.09-.97-.27-1.26-.18-.29-.45-.43-.81-.43-.33,0-.67.17-1.03.5l-.02,1.37.02,1.36c.3.14.58.22.84.22.4,0,.71-.14.94-.43Z"/>
    <path class="st10" d="M76.4,129.03l-.14.84c-.29.19-.6.29-.91.3-.23-.04-.42-.13-.58-.28-.15-.14-.27-.35-.35-.62h-.11c-.46.45-.93.74-1.42.88-.61,0-1.07-.14-1.39-.41-.32-.28-.47-.67-.46-1.19l.02-1.42-.06-2.52,1.55-.13-.04,3.54c0,.28.05.49.17.64.12.14.3.22.54.22.35,0,.7-.16,1.04-.47v-3.79l1.53-.13-.11,4.15c0,.13.02.22.07.28.04.06.12.08.21.08.09,0,.2-.02.32-.05l.11.1Z"/>
    <path class="st10" d="M78.89,127.61l.08,2.46h-1.6l.08-2.32-.07-5.99,1.6-.12-.1,5.96Z"/>
    <path class="st10" d="M84.81,127.48l-3.24.02c.07,1,.58,1.5,1.52,1.5.5,0,1.05-.14,1.66-.42l.13.08-.24,1.19c-.61.22-1.18.34-1.72.34-.88,0-1.57-.26-2.07-.77-.5-.51-.75-1.22-.75-2.12s.24-1.61.73-2.13c.49-.52,1.15-.79,1.98-.79.71,0,1.26.19,1.65.58.39.39.58.93.58,1.63,0,.18-.02.42-.06.7l-.18.19ZM83.66,126.41c0-.32-.07-.56-.22-.73-.14-.16-.36-.25-.64-.25-.31,0-.57.1-.78.31s-.35.5-.42.88l2.03-.05.02-.17Z"/>
  </g>
  <g class="st13">
    <path class="st4" d="M57.66,27.5s.9-1.59,1.24-3.24c.35-1.66.55-2.76.55-2.76v-1.45c0-.55.76-1.72.9-2.69.14-.97.9-1.66.9-1.66l-1.24-.41s-.21-2.21,1.24-3.38c1.45-1.17,2.41-1.73,2.41-1.73l.62.35s-1.17,2.28-.48,2.28,4,0,5.17.69c1.17.69,1.73,2,2.62.48.9-1.52.9-2.07.9-2.07,0,0,.9.69,1.1-.07s.28-1.66.28-1.66c0,0,1.1.62,1.17,1.59.07.97,0,3.79-.97,4.97-.97,1.17-2.41,2.97-2.41,2.97,0,0,.76,1.17,1.17,2,.41.83,1.72,3.1,1.72,3.73s-16.9,2.07-16.9,2.07"/>
    <path class="st3" d="M58.35,27.85s3.86-3.59,4.14-4.69c.28-1.1,2-1.86,2.28-2.42.28-.55.41-1.9.41-1.9,0,0,2.83.45,2.83,1.35s-.35,1.45-.35,1.45c0,0,2.73,2.11,4.35,3.1,1.62,1,2.55.69,2.55.69l-16.21,2.42Z"/>
    <path class="st11" d="M66.01,25.78s5.66-.62,12.14,0c6.49.62,14.9,1.52,23.39,9.32,8.49,7.8,11.45,13.66,13.18,17.94,1.73,4.28,3.38,13.39,1.1,20.84-2.28,7.45-5.04,14.7-14.9,21.25-9.87,6.56-20.22,9.31-20.22,9.31,0,0-17.87,4.21-20.28,3.8-2.41-.41-7.11-3.86-13.66-6.62-6.56-2.76-25.53-19.66-22.56-39.47,2.97-19.8,20.91-29.53,25.67-32.01,4.76-2.48,10.21-3.31,12.07-3.66s4.07-.69,4.07-.69"/>
    <path class="st12" d="M61.04,27.85s-13.32,2.07-22.35,12.07c-9.04,10-11.2,19.26-11.04,30.5.16,11.23,14.9,25.25,19.46,28.29,0,0,2.9,1.52,4.28,1.79,0,0,8.89-4.83,19.35-5.52,10.46-.69,18.46,2.35,18.46,2.35,0,0,14.21-5.66,19.87-14.9,5.66-9.25,3.86-30.08-1.79-37.81-5.66-7.73-20.42-16.56-28.01-17.11-7.59-.55-8.35-1.29-18.22.35"/>
    <path class="st2" d="M60.69,105.19s3.38,2.89,4.42,3.06c1.04.18,17.8-3.06,17.8-3.06,0,0,4.97-4.35,5.52-4.8.55-.45-4.69,3.65-5.45,3.93s-2.28.1-2.28.1c0,0,2.42-4.14,1.86-4.07-.55.07-1.4,1.8-2.15,1.56-.75-.25-1.37.24-1.37.24l-1.7,2.16s.44-3.26,0-2.98c-.44.28.18,2.17-1.55,1.67-1.72-.5-2.07-1.33-2.07-1.33,0,0,.27,2.73-.9,2.64-1.17-.09-2.43-2.09-2.43-2.09,0,0,1.02,2.48,0,2.62s-1.64-.53-1.64-.53c0,0,.69.74-.07.95-.76.21-1.95-.55-1.95-.55,0,0,.47.35,0,.9-.47.55-1.71.57-2.12.59l-.41.03s.9.69.21.76c-.69.07-3.73-1.79-3.73-1.79"/>
    <path class="st5" d="M76.09,28.79s12.5,1.29,21.53,8.93c9.03,7.64,13.15,15.25,13.39,29.53,0,0-.24,7.67-2.19,11.08,0,0,1.22.79-15.27,3-16.49,2.21-24.08,1.65-34.84-1.24-10.76-2.9-15.73-6.85-17.8-18.05-2.07-11.2,7.04-26.11,12.42-28.87,5.38-2.76,13.79-4.86,22.77-4.38"/>
  </g>
  <g class="st7">
    <path class="st1" d="M39.71,50.91c-.1,0-.2,0-.31.01,0,0-5.11,2.07-6.35,5.52-.5,1.39-.78,3.04-.78,4.6v.1c0,2.26.59,4.35,1.89,5.24,1.99,1.37,3.75,3.35,8.73,3.35.14,0,.28,0,.43,0-1.06-2.1-1.84-4.62-2.41-7.69-.6-3.22-.27-6.75.63-10.2-.36-.54-.91-.93-1.83-.93"/>
    <path class="st14" d="M41.54,51.84c-.9,3.46-1.23,6.98-.63,10.2.57,3.06,1.35,5.58,2.41,7.69.42,0,.86-.03,1.33-.07,6.35-.52,10.07-6.31,8.97-10.73s-9.36-3.54-10.58-3.96c-.79-.27-.75-2.02-1.49-3.13"/>
  </g>
  <g class="st8">
    <path class="st4" d="M61.32,107.13s-20.56-10.54-26.63-17.25c-6.07-6.71-9.66-15.34-9.66-15.34l-1.79-9.5s-1.38,12.28,5.38,22.08c6.76,9.8,22.1,17.35,28.44,19.71,0,0,3.72,2.37,5.37,2.09,1.66-.28-1.1-1.79-1.1-1.79"/>
    <path class="st9" d="M75.81,104.78s4.83-3.31,6.07-3.45c1.24-.14,1.93.14,1.93.55s-.48,1.74-.48,1.74c0,0,3.65-3.01,5.86-3.12l2.21-.1v2.19s-1.01-.26-3.45,0c-2.45.26-4.34,3.02-4.34,3.02h-2.97l-4.83-.83Z"/>
    <path class="st6" d="M63.32,109.47s-4.28.62-4.83.76c-.55.14-2.14.34-2.14.34l1.03.34,5.93-.73s3.17-.65,3.38,0c.21.66.55,2.52.76,2.52s.48-.9.48-.9c0,0,2.83-.07,3.66-.41l.83-.34s1.79,1.93,3.79,1.66c2-.28,1.13-.69,1.13-.69l-.37-.34,1.24-.28s1.24.28,3.1.28,4.62-.76,5.31-1.1l.69-.34s-4,1.06-4.83.88c-.83-.19-2.42-.88-2.42-.88,0,0,5.38,0,8.76-.41,3.38-.41,4.14-1.86,4.14-1.86v-.41s-4.14,1.79-6,1.86c-1.86.07-3.11-.46-3.11-.46,0,0,2.28-.52,2.28-.68s.07-.72.07-.72c0,0,12.28-3.17,15.25-5.31,2.97-2.14,4.83-8.76,4.83-8.76l-1.03,1.31s-.97,5.04-3.93,6.48c-2.97,1.45-9.38,3.8-13.73,4.97l-1.45.21s1.17-.14.97-.83c-.21-.69-1.04-.69-1.04-.69l-7.59,1.45-3.99-.53-4.43,1.84-4.07,1.26-2.69.53Z"/>
    <path class="st9" d="M62.42,111.54s1.66.48,2.69.48,2.42-.9,2.35-1.45-.41-1.63-.41-1.63c0,0,2.18-.25,3.37,0,1.19.25,1.53-.11,1.53-.11,0,0-1.1-2.46-2.69-2.6s-3.04.28-3.31.62c-.28.35-.75.5-1.65.68-.9.18-4.42.22-1.87,4.02"/>
    <path class="st9" d="M70.73,105.61s1.01-.62,1.63-.76c.62-.14,2.35-1.17,3.04-1.17s1.96.08,1.96.08l1.56.54s2.21.41,2.42.35,2.69,0,2.69,0l1.53.38s-2.21,1.57-3.18,1.18c-.97-.39-2.22-.15-2.22-.15,0,0-1.55,1.14-2.01,1.21-.47.07.62.55-.78,0-1.41-.55-.24-.41-2.1-.69-1.86-.28-1.93.41-2.55.55-.62.14-1.97.28-1.97.28,0,0-2.32-1.59,0-1.8"/>
    <path class="st4" d="M83.95,100.4s14.9-11.07,17.59-18.52c2.69-7.45,2.76-8.56,2.76-8.56,0,0-1.38,7.31-3.24,10.9-1.86,3.59-16.77,17.66-17.11,16.18"/>
    <path class="st3" d="M58.56,41.44s1.65,42.64,11.52,58.23c0,0-12.48-17.39-11.52-58.23"/>
    <path class="st3" d="M68.63,33.3s6.49,62.93,5.24,66.38c0,0-6.21-64.31-5.24-66.38"/>
    <path class="st3" d="M78.98,97.05s5.66-25.39,3.86-38.5l-1.79-13.11s7.73,17.25-2.07,51.61"/>
    <path class="st4" d="M82.57,97.05s10.76-10.76,13.25-21.11c2.48-10.35,2.21-15.84,2.21-15.84,0,0,3.04,20.81-15.46,36.96"/>
    <path class="st4" d="M48.22,71.25s3.03,14.63,8.13,20.84c5.11,6.21,5.8,6.76,5.8,6.76,0,0-12.97-10.32-13.93-27.6"/>
    <path class="st4" d="M38.41,81.46s8.11,13.3,17.94,18.9c0,0-11.18-5.52-17.94-18.9"/>
    <path class="st4" d="M58.5,99.67s4.01,4.56,6.59,5.57c0,0-3.25-.06-6.59-5.57"/>
    <path class="st4" d="M49.79,98.85s8.09,5.52,9.15,5.87c0,0-2.99-.93-9.15-5.87"/>
    <path class="st4" d="M85.54,100.51s3.92-1.36,7.43-3.45l3.52-2.1-10.95,5.55Z"/>
    <path class="st4" d="M89.19,92.76s-6.33,6.18-7.3,6.92c0,0,5.54-3.93,7.3-6.92"/>
    <path class="st4" d="M65.97,101.78s1.14,1.55,1.85,1.32c.7-.23,0-1.32,0-1.32,0,0,.35,1.72-1.85,0"/>
    <path class="st4" d="M75.81,100.94c-.6.22,1.56-.52,1.81-3.2.25-2.69,0-3.66,0-3.66,0,0,.26,6.12-1.81,6.86"/>
  </g>
</svg>