<?xml version="1.0" encoding="UTF-8"?>
<svg id="Vrstva_1" xmlns="http://www.w3.org/2000/svg" xmlns:xlink="http://www.w3.org/1999/xlink" version="1.1" viewBox="0 0 141.73 141.73">
  <!-- Generator: Adobe Illustrator 30.1.0, SVG Export Plug-In . SVG Version: 2.1.1 Build 136)  -->
  <defs>
    <style>
      .st0 {
        fill: none;
      }

      .st1 {
        fill: #34643b;
      }

      .st2 {
        fill: #4b7241;
      }

      .st3 {
        fill: #2a5430;
      }

      .st4 {
        fill: #305e37;
      }

      .st5 {
        fill: #777335;
      }

      .st6 {
        fill: #5a7c45;
      }

      .st7 {
        fill: #706f6f;
      }

      .st8 {
        fill: #678445;
      }

      .st9 {
        fill: #204526;
      }

      .st10 {
        clip-path: url(#clippath);
      }
    </style>
    <clipPath id="clippath">
      <rect class="st0" x="2.84" width="136.06" height="133.94"/>
    </clipPath>
  </defs>
  <g class="st10">
    <path class="st2" d="M105.79,43.39s6.24-.96,10.24,0,15.17,5.44,16.96,12.32c1.79,6.88,1.76,14.94-1.12,17.63-2.88,2.69-11.52,9.25-12.96,9.73-1.44.48-3.19,1.32-4.8,1.32,0,0-48.64,2.52-53.28,2.68s-9.6.96-15.2-1.12c-5.6-2.08-16.8-12.61-16.8-12.61l6.08-23.87,44.96-4.64,25.92-1.44Z"/>
    <path class="st1" d="M115.87,49.63s-4.48-1.92-8.32-1.92-6.48-.16-8-.4-1.68.24-3.92,0-2.32.16-4.8,0c-2.48-.16-8.64.4-10.32.48-1.68.08-12.48,1.12-14.48,1.12s-5.2.72-8.08.72-11.68,1.44-11.92,1.28c-.24-.16,6.56-1.43,8-1.83s3.52-.17,4.8-.41c1.28-.24,1.84-.56,1.84-.56,0,0,2.56.16,4.24.08,1.68-.08,6.19-.4,6.19-.4,0,0,3.57-.16,6.29-.56s4.96-.64,7.28-.8c2.32-.16,3.04.16,4.08,0,1.04-.16,2.08-.8,2.08-.8,0,0,1.92.64,3.2.4,0,0,7.2.16,8.16-.4,0,0,6.72-.32,9.12,0,2.4.32,6.4,1.52,6.4,1.12s-6.8-2.88-8-3.04c-1.2-.16-1.44-.53-3.6-.75-2.16-.21-2.8-.03-3.6,0-.8.03-1.04-.89-2.64-.89s-4.08.79-4.08.79c0,0-1.84-.59-3.12-.43-1.28.16-1.76.67-2.56.53-.8-.13-2.32.21-4.48,0-2.16-.21-3.44-.43-4.48,0-1.04.43-.88.43-3.68.43s-3.52-.93-5.12-.43c-1.6.51-2.64.83-4.16.91-1.52.08-2.32-.16-3.6.08-1.28.24-1.68.64-4.8.48-3.12-.16-4,0-4,0,0,0-.88-.96-2.72-.48s-2.24,1.12-2.24,1.12c0,0-2-.16-2.72.48,0,0-5.04.93-5.84.95,0,0-1.76-.57-4.48,0,0,0-.88-.71-2.4-.39-1.52.32-2.48.96-2.48.96,0,0-2.8.64-3.04,1.52,0,0-3.92-.4-5.28,1.36,0,0-3.12.08-5.36,1.52,0,0-8.16,1.76-10.08,7.28,0,0-.72,2.72-.72,3.92s-.8,4.08-.8,4.56,1.04,5.28,3.84,7.2c2.8,1.92,11.92,6.16,12.88,7.04.96.88,3.44,2.24,4.48,2.4s2,.48,3.04,1.04c1.04.56,3.44,1.92,4.72,1.92s3.84.72,4.32.88c.48.16,3.6.8,5.28.64,0,0,2.8,1.44,5.44.88,0,0,3.44.96,5.12.48,0,0,11.2,1.2,13.68,1.12,0,0,2.48.97,3.84,0,0,0,1.28.64,2.8-.16,0,0,3.52.08,5.12.16,1.6.08,2.72.72,5.36-.48,0,0,6.08-.32,7.68-1.2,0,0,11.68-1.36,15.76-3.04,4.08-1.68,7.7-3.99,9.12-4.32s5.6-4.96,4.88-4.64c-.72.32-2.72,1.52-5.28,1.92-2.56.4-2,.64-4.16,1.2-2.16.56-4.48,1.04-6.96,1.52-2.48.48-8.32,1.2-11.52,1.76-3.2.56-4.64.4-6.4.96-1.76.56-1.2.88-4.32.8-3.12-.08-5.04-.32-7.36,0-2.32.32-1.6.32-5.04.32s-7.04.24-7.04.24c0,0-2.88.48-2.88-.16s-.48-.96,1.04-.96,2.08.24,2.8.24,3.68-.4,3.68-.4c0,0,.88-.64,3.6-.4,2.72.24,2.64-.24,5.68-.4s3.44.4,4.96.32c1.52-.08,2.96-.24,5.04-.8s3.2-1.28,5.36-1.28,5.28-.56,5.28-.56c0,0,8.48-1.92,9.76-2.48,1.28-.56,1.68-1.04,1.68-1.04,0,0,4.56.72,5.92-.4l1.36-1.12s3.44-2.56,3.28-4c-.16-1.44-1.36-.96-3.76-.88-2.4.08-4.64-.4-6.8.32-2.16.72-2.72,1.18-6.24,1.47-3.52.29-3.76.53-6.48.53s-6.56,1.04-6.56,1.04c0,0,.96-2.66-.8-1.57-1.76,1.09-1.12,1.73-1.12,1.73,0,0,1.04.24-3.92.32-4.96.08-3.76.32-8.4.48-4.64.16-4.88.24-6.48.24s-4.8-.8-6.56-.8-4.8.8-4.8.8c0,0-8.16.24-11.6.24s-7.12,0-6.24-.4c.88-.4,1.92-.32,3.76-.48,1.84-.16,7.76-.48,7.76-.48,0,0,5.6.08,7.92-.48,2.32-.56,4.88-.08,5.92-.08s1.92-.48,2.88-.16c.96.32,1.28.32,1.28.32,0,0,3.36.08,6.32-.56s4.16-.1,5.68-.69c1.52-.59,6.64-1.95,8.96-1.95s3.28-.8,4.56-.8,8.08-1.12,10.56-1.44c2.48-.32,5.28-1.12,7.2-1.52s5.44-1.76,6.64-3.04,1.36-3.92.56-4.8c-.8-.88-5.6-2-6.72-1.92-1.12.08-4.08-.08-6.8,0-2.72.08-3.36.32-6.64.4s-4.72.32-4.72.32c0,0-1.44-.64-3.28-.32s-2.24.8-4.4.8-7.84.48-8.88.56-2.48-.4-3.76-.24c-1.28.16-5.2,1.04-4.16.24,1.04-.8,4.24-1.04,4.24-1.04l5.2-.4s3.52-.88,4.72-.88,2.8-.4,4-.32,2,0,2,0c0,0,4.72-.88,6.08-.88s3.12-.4,4.64-.64c1.52-.24,8-1.36,9.92-1.2,1.92.16,3.92.48,4.96,0,1.04-.48,1.68-1.04.56-1.92-1.12-.88-3.36-3.2-4.8-2.72"/>
    <path class="st4" d="M16.43,74.27s.72,1.36,2,1.84c1.28.48-.16-.56,1.84,1.2,2,1.76,3.2.48,4.48,2.32,1.28,1.84,4.56,2.4,5.68,2s.96.8,4.56,1.68c3.6.88,3.52.64,4,.88s1.76,1.92,3.76,2.24,2.64.08,4.64,0,2.08.48,3.84.16c1.76-.32,2.47-.32,5.52.1,3.05.42,3.12-.5,5.52-.34,2.4.16,4.41.41,7.44.34,3.03-.07,4.72.74,9.68.11,4.96-.63,11.76-1.75,14.08-1.41,2.32.34,20.32-.74,21.52-1.14,1.2-.4-2.49,1.57-9.68,3.35-7.19,1.79-9.55,1.48-9.55,1.48,0,0-5.16,1.9-8.2,1.26,0,0-2,1.45-5.28.91,0,0-4.24-.2-4.48,0-.24.2-2.56.83-3.04.2,0,0-3.43.64-4.32,0,0,0-13.04-1.51-13.44-1.19-.4.32-5.2-.32-5.36-1.04,0,0-2.88,1.44-5.44-.88,0,0-3.34.52-8.83-1.46,0,0-1.09.34-4.77-1.1s-4.72-1.44-4.72-1.44c0,0-2.72-1.6-3.2-2-.48-.4-3.48-2.68-5.27-3.6s-14.7-4.62-11.36-13.59c0,0,.11-5.63,1.65-7.61,0,0,2.58-3.12,5.78-4.16,3.2-1.04,6.72-1.04,8.4-1.04s4.4-.88,4.96-.4,1.04.64,0,1.12c-1.04.48-2.08.08-2.16,1.36-.08,1.28,1.28,1.76.16,2.56-1.12.8-2.56,1.84-6.08,3.28s-5.36,3.44-4.88,5.84c.48,2.4,2,3.68,2.8,3.36.8-.32,2.16,3.6,2.48,4.64.32,1.04.72.64.8,1.92s.79,2.08-.88,2.4-5.44-3.92-4.64-4.16"/>
    <path class="st9" d="M90.59,87.36s0,.83,1.08,1c1.08.16,2.76-.16,3.08-.6l.32-.44s.04,1.4-1.92,1.52c-1.96.12-3.32-.51-2.56-1.48"/>
    <path class="st9" d="M64.55,89.23s.6.64,1.36.56c.76-.08.84-.56.84-.56,0,0-.6.4-1.1,0s-1.18-.56-1.1,0"/>
    <path class="st9" d="M91.59,86.75s1.48-.08,2.04,0,.6.56.6.56c0,0-1.68-.4-2.24-.3-.56.1-.4-.26-.4-.26"/>
    <path class="st3" d="M48.87,85.55s1.6-.4,2,0,1.28.52,1.36.24c.08-.28-2.68-1.68-3.36-.24"/>
    <path class="st5" d="M60.51,85.43s2.64.76,2.76,0c.12-.76-3.04-.44-2.76,0"/>
    <path class="st3" d="M52.51,82.87s-.8.96.32,1,1.2-.8,1.28-.24c.08.56-1.32.72-1.88.56-.56-.16-.72-1.2.28-1.32"/>
    <path class="st3" d="M69.43,79.67s-.4.92.44.92.8-.46.8-.46c0,0,.01,1.22-1.33.82-1.35-.4.1-1.28.1-1.28"/>
    <path class="st3" d="M69.03,81.59s-.68.68,0,.92c.68.24,1.44.04,1.36-.46s-.36-.46-.36-.46c0,0,1.49.32.37,1.28-1.13.96-2.44-.7-1.63-1.28.8-.58.27,0,.27,0"/>
    <path class="st3" d="M83.83,79.67l.72.16s.96-.04.68-.44l-.28-.4s1.52.68,0,1.36c-1.52.68-1.12-.68-1.12-.68"/>
    <path class="st5" d="M103.51,78.15s1.44.48,1.4,0c-.04-.48-1.52-.84-1.4,0"/>
    <path class="st3" d="M117.87,75.47s.84.36.96,0c0,0,.08.72-.96,0"/>
    <path class="st5" d="M66.36,76.31s.8.64.84.24c.04-.4-.8-.68-.84-.24"/>
    <path class="st5" d="M46.15,78.99s.76,1.28,1.16.68-.64-1.16-1.16-.68"/>
    <path class="st5" d="M41.39,74.35s1,.8.96,0-.24-.44-.48-.4c-.24.04-.68-.04-.48.4"/>
    <path class="st5" d="M33.99,73.35s.76.81.92.21c.16-.6-.24-.64-.46-.6-.22.04-.46.39-.46.39"/>
    <path class="st3" d="M33.11,79.67s.48.98,1.2.87c.72-.11.16-.43.16-.43,0,0,1.04.84-.48.92-1.52.08-.88-1.36-.88-1.36"/>
    <path class="st3" d="M25.95,78.81s-.04.54.44,1.02c.48.48.64.36.36.52-.28.16-1.6-1.08-.8-1.54"/>
    <path class="st3" d="M23.27,69.47s-.72,1.28.28,1.56,1.36,0,1.36,0c0,0-.68.8-1.48.56-.8-.24-1-2.2-.16-2.12"/>
    <path class="st3" d="M27.63,67.35s-.6,1.16.76,1.24c1.36.08-.01.6-.45.44-.43-.16-1.03-1.56-.31-1.68"/>
    <path class="st3" d="M30.11,62.59s.04,1.08.8.88c.76-.2.72.2.72.2,0,0-1.2.44-1.52.08-.32-.36-.44-1.28,0-1.16"/>
    <path class="st5" d="M23.51,60.39s.12,1.28.88.56c.76-.72-.24-.76-.44-.76s-.44.2-.44.2"/>
    <path class="st5" d="M31.91,49.79s.88.68,1,0-.52-.56-.68-.44c-.16.12-.32.44-.32.44"/>
    <path class="st3" d="M37.19,65.51s.28.84,1.04.8c.76-.04.76-.64.76-.64,0,0,.52.79,0,1-.52.2-2.4-.08-1.8-1.16"/>
    <path class="st5" d="M40.71,59.95s.08.68.44.52c.36-.16.4-.64-.44-.52"/>
    <path class="st5" d="M42.36,57.19s.2.28.56.2c.36-.08.04-.6-.28-.6s-.28.4-.28.4"/>
    <path class="st5" d="M44.23,62.23s.52.6.6,0c.08-.6-.6,0-.6,0"/>
    <path class="st5" d="M29.15,59.31s.63.76.67.28c.05-.48-.35-.64-.67-.28"/>
    <path class="st3" d="M40.31,52.31s1.08.04,2.04-.28,0-.4,0-.4c0,0,1.16-.24.72.34-.44.58-3.64.66-2.76.34"/>
    <path class="st8" d="M47.63,47.23s1.24-.8,2.28-.72l1.04.08s-1.96-1-3.32.64"/>
    <path class="st8" d="M42.71,48.95s2.21-.21,1.82-.32c-.39-.11-1.82.32-1.82.32"/>
    <path class="st3" d="M52.07,54.43s-.52.48.32.52c.84.04,1.92-.36,1.6-.88-.32-.52-1.01-.36-1.01-.36,0,0,.73.38.33.61-.4.23-.44-.25-.64-.25s-.6.36-.6.36"/>
    <path class="st3" d="M56.75,61.97s.24.64.96.62c.72-.03.96-.59.76-.91-.2-.32-.64-.08-.56,0,.08.08.07.56-.27.56s-.89-.27-.89-.27"/>
    <path class="st3" d="M58.27,68.75s1.56.35,1.44-.54c-.12-.9-.79-.62-.72-.46.08.16.2.15,0,.46-.2.31-.72.54-.72.54"/>
    <path class="st5" d="M64.83,71.15s.64.92.92.2c.28-.72-.92-.2-.92-.2"/>
    <path class="st5" d="M77.55,73.15s.2.49.72.21c.52-.29-.36-.69-.72-.21"/>
    <path class="st5" d="M81.52,72.43s-.13.59.55.5c.68-.1-.14-.9-.55-.5"/>
    <path class="st5" d="M72.27,62.23s.44.61.72.27c.28-.35-.32-.95-.72-.27"/>
    <path class="st5" d="M63.28,57.1s.48.27.6,0-.55-.33-.6,0"/>
    <path class="st3" d="M62.95,50.55s-.04,1.26,1.24,1.03c1.28-.23,1.64-.63,1.6-1.19-.04-.56-.48-.71-.48-.71,0,0,.24,1.15-.48,1.19s-.95-.78-.95-.78c0,0-.77-.38-.93.46"/>
    <path class="st5" d="M71.63,59.44s.12.48.64.32c.52-.16-.12-.72-.64-.32"/>
    <path class="st8" d="M61.67,45.51s2.08-.56,3.16-.48l1.08.08s-2.2-1.24-4.24.4"/>
    <path class="st8" d="M56.99,47.71s2.92-.68,3.4-.48c.48.2.39-.04.39-.04,0,0-2.72-.6-3.79.52"/>
    <path class="st8" d="M72.05,46.29s2.82-.82,3.54-.78-1.17-1-3.54.78"/>
    <path class="st8" d="M88.03,45.99s.72-.44,1.36-.48c.64-.04,1.16-.1.92-.27-.24-.17-2.48-.04-3.28.37s1,.37,1,.37"/>
    <path class="st5" d="M90.63,48.71s1.72-.28.72-.48c-1-.2-.72.48-.72.48"/>
    <path class="st5" d="M86.83,54.32s1,.69,1,0-1,0-1,0"/>
    <path class="st5" d="M96.19,54.63s1.4.42,1.04-.31c-.36-.73-1.04.31-1.04.31"/>
    <path class="st5" d="M98.71,60.79s1.2.6,1.04,0c-.16-.6-1.04,0-1.04,0"/>
    <path class="st3" d="M100.79,67.99s.84.56,1.64.4c.8-.16.64-.64.64-.64,0,0,.49,1.04-1.13,1.04s-1.15-.8-1.15-.8"/>
    <path class="st5" d="M8.05,65.16s.34-1.69.77-1.27c.43.42-.35,4.04-.77,3.69s-.12-2.07-.12-2.07l.12-.35Z"/>
    <path class="st6" d="M102.53,46.29s2.06-.2,4.63,0c2.57.19,2.83-.71,4.37,0,1.54.71,4.63.88,5.66,1.31,1.03.43,3.17.6,3,0-.17-.6-5.49-2.7-4.2-2.94,1.29-.24,2.23.47,3.34,1.1,1.11.63,8.15.39,11.53,6.04,3.38,5.65,3.75,10.9,3.32,14.31-.43,3.41.01,5.7-5.54,9.97,0,0-9.19,2.26-9.8,2.28-.62.01.41-1.24,2.21-1.68,1.8-.45,3.86-2.17,4.03-3.24.17-1.07-.6-3.3-1.2-3.3s-1.54-.08-4.37,0c-2.83.09-4.89.7-7.29.82-2.4.12-7.03-.05-4.54-.39,2.49-.34,14.92-3.19,16.21-3.91,1.29-.72,3.09-2.78,3.34-4.06.26-1.29-1.71-3.52-2.66-4.46-.94-.94-9.86-.43-9.35-1.46.52-1.03,1.48-1.03,3.14-1.03s3.98-1.03,3.98-3-1.63-3.78-4.46-3.95c-2.83-.17-3.94-1.03-6.26-1.2-2.31-.17-10.72-1.14-9.09-1.22"/>
  </g>
  <g>
    <path class="st7" d="M58.96,125.1c.43.48.65,1.17.65,2.08,0,.98-.23,1.72-.7,2.24-.46.52-1.13.77-2,.77-.82,0-1.44-.24-1.87-.72-.43-.48-.65-1.17-.65-2.08,0-.98.23-1.72.7-2.24s1.13-.77,2-.77c.82,0,1.44.24,1.87.72ZM56.15,125.85c-.17.26-.26.67-.26,1.24,0,.74.09,1.26.26,1.57.18.31.46.47.86.47s.66-.13.83-.38c.17-.25.26-.67.26-1.24,0-.73-.09-1.25-.27-1.57-.18-.32-.47-.47-.86-.47s-.66.13-.83.38Z"/>
    <path class="st7" d="M62.26,127.61l.08,2.46h-1.6l.08-2.32-.07-5.99,1.6-.12-.1,5.96ZM63.88,127.01c.43.7,1.08,1.63,1.94,2.8v.17c-.29.06-.59.11-.91.15-.32.04-.51.06-.58.07l-.17-.07c-.7-.99-1.31-1.98-1.82-2.96v-.11l1.39-1.98.29-.58h1.68l-1.82,2.52Z"/>
    <path class="st7" d="M71.97,129.03l-.14.84c-.3.19-.6.29-.91.3-.23-.04-.42-.13-.58-.28-.15-.14-.27-.35-.35-.62h-.11c-.46.45-.93.74-1.42.88-.61,0-1.07-.14-1.39-.41-.32-.28-.47-.67-.46-1.19l.02-1.42-.06-2.52,1.55-.13-.04,3.54c0,.28.05.49.17.64.12.14.3.22.54.22.35,0,.7-.16,1.04-.47v-3.79l1.52-.13-.11,4.15c0,.13.02.22.07.28s.11.08.21.08c.09,0,.2-.02.32-.05l.11.1Z"/>
    <path class="st7" d="M76.23,124.5v1.48l-.17.06c-.14-.06-.28-.08-.44-.08-.46,0-.88.3-1.26.9v.76l.08,2.46h-1.6l.1-2.3-.07-3.17,1.51-.13v1.09s.08,0,.08,0c.39-.72.88-1.08,1.46-1.08.07,0,.17,0,.3.02Z"/>
    <path class="st7" d="M78.49,127.61l.08,2.46h-1.6l.08-2.32-.07-5.99,1.6-.12-.1,5.96ZM80.11,127.01c.43.7,1.08,1.63,1.94,2.8v.17c-.29.06-.59.11-.91.15-.32.04-.51.06-.58.07l-.17-.07c-.7-.99-1.31-1.98-1.82-2.96v-.11l1.39-1.98.29-.58h1.68l-1.82,2.52Z"/>
    <path class="st7" d="M86.32,124.8c.35.28.52.66.52,1.16,0,.14-.02.6-.07,1.37,0,.22-.02.45-.04.69-.02.24-.02.44-.02.61,0,.14.02.23.06.28s.11.08.22.08c.08,0,.18-.02.31-.05l.12.1-.14.84c-.26.17-.55.27-.88.3-.24-.02-.44-.11-.6-.26-.16-.15-.27-.35-.32-.62h-.08c-.4.42-.81.72-1.24.89-.58,0-1.03-.16-1.36-.46s-.49-.7-.49-1.21c0-.4.1-.71.31-.94.2-.23.51-.38.93-.46l1.84-.35v-.49c0-.52-.26-.78-.77-.78-.25,0-.51.06-.79.17s-.59.29-.93.53l-.12-.07-.18-1.06c.34-.22.71-.38,1.1-.5s.78-.17,1.18-.17c.62,0,1.1.14,1.45.41ZM84.09,127.84c-.13.03-.22.09-.28.16-.06.08-.09.19-.09.34,0,.21.06.37.17.49.11.12.27.17.47.17.31,0,.64-.18.98-.55l.02-.89-1.27.28Z"/>
  </g>
</svg>