<?xml version="1.0" encoding="UTF-8"?>
<svg id="Vrstva_1" xmlns="http://www.w3.org/2000/svg" xmlns:xlink="http://www.w3.org/1999/xlink" version="1.1" viewBox="0 0 141.73 141.73">
  <!-- Generator: Adobe Illustrator 30.1.0, SVG Export Plug-In . SVG Version: 2.1.1 Build 136)  -->
  <defs>
    <style>
      .st0 {
        fill: none;
      }

      .st1 {
        fill: #dbd8dd;
      }

      .st2 {
        fill: #931830;
      }

      .st3 {
        fill: #b03957;
      }

      .st4 {
        fill: #7e982c;
      }

      .st5 {
        fill: #706f6f;
      }

      .st6 {
        fill: #b3506c;
      }

      .st7 {
        fill: #ac1027;
      }

      .st8 {
        fill: #699331;
      }

      .st9 {
        fill: #54732a;
      }

      .st10 {
        clip-path: url(#clippath);
      }
    </style>
    <clipPath id="clippath">
      <rect class="st0" x="5.67" width="130.11" height="119.9"/>
    </clipPath>
  </defs>
  <g>
    <path class="st5" d="M51.83,122.09c-.46.42-1.02.98-1.69,1.69h-.35c-.62-.69-1.18-1.25-1.68-1.69l.4-.61h.16c.53.42.96.78,1.31,1.1.31-.3.74-.66,1.3-1.1h.16l.41.61ZM51.65,124.5v1.48l-.17.06c-.14-.06-.28-.08-.44-.08-.46,0-.88.3-1.26.9v.76l.08,2.46h-1.6l.1-2.3-.07-3.17,1.51-.13v1.09s.08,0,.08,0c.39-.72.88-1.08,1.46-1.08.07,0,.17,0,.3.02Z"/>
    <path class="st5" d="M56.77,127.48l-3.24.02c.07,1,.58,1.5,1.52,1.5.5,0,1.05-.14,1.66-.42l.13.08-.24,1.19c-.61.22-1.18.34-1.72.34-.88,0-1.57-.26-2.07-.77-.5-.51-.75-1.22-.75-2.12s.24-1.61.73-2.13c.49-.52,1.15-.79,1.98-.79.71,0,1.26.19,1.65.58.39.39.58.93.58,1.63,0,.18-.02.42-.06.7l-.18.19ZM55.61,126.41c0-.32-.07-.56-.22-.73s-.36-.25-.64-.25c-.31,0-.57.1-.78.31s-.35.5-.42.88l2.03-.05.02-.17Z"/>
    <path class="st5" d="M62.77,127.61l.04,1.01c0,.14.02.23.05.28s.1.08.2.08c.09,0,.2-.02.32-.05l.11.1-.13.84c-.27.17-.57.27-.89.3-.25-.02-.46-.11-.62-.25-.17-.14-.28-.34-.35-.59h-.1c-.39.36-.79.64-1.2.83-.78,0-1.39-.25-1.82-.75s-.65-1.19-.65-2.08c0-.94.25-1.67.74-2.17s1.18-.76,2.06-.76c.23,0,.49.02.77.07l-.02-2.7,1.58-.12-.1,5.96ZM59.23,127c0,.63.1,1.11.29,1.43.19.32.47.48.84.48s.68-.16.97-.49l.02-.66-.04-2.06c-.31-.14-.61-.22-.89-.22-.8,0-1.2.51-1.2,1.52Z"/>
    <path class="st5" d="M65.98,127.61l.08,2.46h-1.6l.08-2.32-.07-5.99,1.6-.12-.1,5.96ZM67.6,127.01c.43.7,1.08,1.63,1.94,2.8v.17c-.29.06-.59.11-.91.15-.32.04-.51.06-.58.07l-.17-.07c-.7-.99-1.31-1.98-1.82-2.96v-.11l1.39-1.98.29-.58h1.68l-1.82,2.52Z"/>
    <path class="st5" d="M71.41,125.38l.84,3.19h.08l1.01-3.11.2-.97h1.39l-1.87,5.58h-1.72l-1.58-5.54,1.49-.07.16.92Z"/>
    <path class="st5" d="M77.15,121.97c.14.14.21.34.21.6,0,.27-.08.49-.23.65-.15.16-.36.24-.62.24s-.47-.07-.61-.22c-.14-.14-.21-.35-.21-.61s.08-.48.23-.64.37-.24.64-.24c.25,0,.44.07.58.22ZM75.81,127.77l-.06-3.17,1.57-.13-.07,3.14.07,2.46h-1.6l.08-2.3Z"/>
    <path class="st5" d="M81.91,124.46c.26.05.49.13.69.22l-.26,1.27-.13.06c-.41-.22-.77-.34-1.09-.34-.37,0-.65.13-.85.4s-.3.64-.3,1.13c0,.56.11.99.32,1.28.22.3.52.44.92.44.36,0,.76-.1,1.2-.3l.12.1-.16,1.24c-.48.15-.97.23-1.48.23-.77,0-1.37-.25-1.8-.75s-.65-1.2-.65-2.09.24-1.65.71-2.18c.47-.52,1.13-.79,1.97-.79.26,0,.53.03.79.08ZM82.82,122.09c-.46.42-1.02.98-1.69,1.69h-.35c-.62-.69-1.18-1.25-1.68-1.69l.4-.61h.16c.53.42.96.78,1.31,1.1.31-.3.74-.66,1.3-1.1h.16l.41.61Z"/>
    <path class="st5" d="M84.97,127.61l.08,2.46h-1.6l.08-2.32-.07-5.99,1.6-.12-.1,5.96ZM86.59,127.01c.43.7,1.08,1.63,1.94,2.8v.17c-.29.06-.59.11-.91.15-.32.04-.51.06-.58.07l-.17-.07c-.7-.99-1.31-1.98-1.82-2.96v-.11l1.39-1.98.29-.58h1.68l-1.82,2.52Z"/>
    <path class="st5" d="M92.8,124.8c.35.28.52.66.52,1.16,0,.14-.02.6-.07,1.37,0,.22-.02.45-.04.69-.02.24-.02.44-.02.61,0,.14.02.23.06.28s.11.08.22.08c.08,0,.18-.02.31-.05l.12.1-.14.84c-.26.17-.55.27-.88.3-.24-.02-.44-.11-.6-.26-.16-.15-.27-.35-.32-.62h-.08c-.4.42-.81.72-1.24.89-.58,0-1.03-.16-1.36-.46s-.49-.7-.49-1.21c0-.4.1-.71.31-.94.2-.23.51-.38.93-.46l1.84-.35v-.49c0-.52-.26-.78-.77-.78-.25,0-.51.06-.79.17s-.59.29-.93.53l-.12-.07-.18-1.06c.34-.22.71-.38,1.1-.5s.78-.17,1.18-.17c.62,0,1.1.14,1.45.41ZM90.57,127.84c-.13.03-.22.09-.28.16-.06.08-.09.19-.09.34,0,.21.06.37.17.49.11.12.27.17.47.17.31,0,.64-.18.98-.55l.02-.89-1.27.28Z"/>
  </g>
  <g class="st10">
    <path class="st1" d="M99.3,101.67s-.39,1.02-.46,3.28c-.07,2.26-.46,6.05.46,7.22l.93,1.17s-1.27-.75-.93-5.03c.35-4.28,0-6.64,0-6.64"/>
    <path class="st1" d="M102.7,98.75s.44,2.67,1.9,3.3c1.46.64,4.16,2.02,6.34,2.02s4.01-.44,4.89-1.17,1.33-1.24,1.33-1.24c0,0-1.04,2.99-4.83,2.84-3.79-.14-8.04-1.87-8.82-2.46-.78-.59-1.32-1.81-1.32-1.81l.52-1.49Z"/>
    <path class="st1" d="M95.66,98.34s.84,1.8.92,2.89c.07,1.09.88,2.48,0,3.79s-1.98,2.41-.92,3.28,1.32,2.41,1.32,2.41c0,0,0-1.48-.88-2.41-.87-.93.34-2.04.88-3.5.54-1.46-.18-2.7,0-3.72.18-1.02.07-3.03-.33-2.75-.4.28-.99,0-.99,0"/>
    <path class="st1" d="M97.74,98.9s-.58,5.62,0,7.73c.58,2.12-.07,4.52,1.71,6.64,1.79,2.11,2.08,2.19,2.08,2.19,0,0-4.18-1.52-4.05-8.28,0,0-.7-7.62-.3-8.57.41-.95.56.29.56.29"/>
    <path class="st9" d="M88.99,30.86s-.88-1.53,0-1.53,1.68.76,1.68.76c0,0,1.31-1.79,1.46-.76.15,1.02.44,2.99.88,3.94.44.95,5.49,11.38,6.57,16.77,1.08,5.4,1.45,8.61,1.45,8.61l-1.45,1.82-5.99-16.63-6.78-10.28s.8-3.06,2.19-2.7"/>
    <path class="st8" d="M68.31,23.93s7.34,2.04,12.77,5.4c5.43,3.35,11.56,7.95,15.2,17.57,3.65,9.63,3.94,13.16,3.94,13.16,0,0-.73,1.42-1.9,1.42s-2.4-.72-2.4-.72c0,0-.37-7.3-1.47-10.87-1.09-3.57-5.91-12.83-11.01-15.97-5.1-3.14-10.79-7.37-14-7.95-3.21-.58-9.99-1.53-12.91-1.53s-5.98.14-7.88.51c-1.9.36-4.96,1.68-7,2.33-2.04.66-2.63.66-2.63.66,0,0,8.31-3.5,11.01-4.01,2.7-.51,7.29-.8,10.14-.8s8.12.8,8.12.8"/>
    <path class="st8" d="M46.18,15.47c-.15.15-1.17.15-1.97-.8-.8-.95-.88-1.6-1.31-1.82-.44-.22-.58-1.02-2.19-1.09-1.6-.07-2.19.73-2.19.73,0,0-.95-1.54-1.82-.73-.88.81-1.46,1.1-2.04,2.19-.58,1.09-1.02,2.19-1.02,2.19,0,0-.73.15-.73.44s-1.82.15-1.68,1.17l.15,1.02s-.73.73-.66,1.31l.07.58s-.88-.36-.8.58.51,1.75-.8,1.9c-1.31.15-2.33,2.12-2.11,2.77.22.66-.5-.22-.03,1.02.47,1.24,4.11,1.48,5.14,2.09s7.29-1.13,7.29-1.13l8.67-2.81,3.95-1.06,9.7-.29,7.15,1.17,6.93,2.48,6.96,3.08s-.55-.9-.55-2.57,1.09-2.19-.15-2.12c-1.24.07-1.05.51-1.05.51,0,0-.11-.58-.33,0l-.22.58s-.73-.15-.73.44-.08,1.25-.08,1.25l-3.85-1.88s-.59-.98-.67-1.49c-.07-.51.22-1.09-.15-1.39-.36-.29-.95-.66-.95-.66,0,0-.66-.58-1.24-.88-.58-.29-.73.29-.73-.58s.07-1.31-.07-1.82c-.15-.51-.29-2.26-.95-2.19l-.66.07s-2.42-1.53-2.16-.73c.26.8,2.16,2.04,2.16,3.21s-.36,2.48.66,2.92c1.02.44,2.41.88,2.41,1.39s.33,1.31.33,1.31l-5.55-1.9s-.26-1.68,0-2.63,1.12-2.04,0-2.04-1.49.8-1.49.8c0,0-.32-.07-.67.51l-.35.58s-2.77-1.6-2.99-4.01c-.22-2.41-1.09-2.84-1.09-2.84,0,0,1.09-.88-.37-1.02s-1.02-.15-1.02-.15c0,0,2.77-2.12,1.46-2.04-1.31.07-2.84.66-2.92,2.26-.07,1.61,2.12,3.14,2.48,4.38.37,1.24.37,1.6-.07,1.53-.44-.07-.66-.73-1.53-.44-.88.29-.66.95-1.75.8-1.09-.15-.66-.66-1.6-1.6-.95-.95-2.04-2.62-2.04-2.62,0,0-1.09-1.24-1.53-.95l-.44.29s-.88-.37-1.39.29l-.51.66s-1.02-1.24-1.9-.8c-.88.44-1.31.95-1.31.95,0,0-.58-.88-1.09-.36"/>
    <path class="st4" d="M44.65,32.02c-.22.07-2.7,1.39-4.3,0-1.6-1.39-5.1-4.23-6.13-4.38-1.02-.15-1.53,0-1.53,0,0,0-.37-.22-1.17-.29-.8-.07-2.04,0-2.04,0,0,0-.74-.12-1.39-.03-.64.09-1.21.03-1.21.03,0,0-1.12-.29-1.63,0-.51.29-1.53-.51-1.97.37-.44.88-.88,1.29-.88,1.29,0,0-1.17-.06-1.46.93-.29.99-.88,1.94-.88,1.94,0,0-1.17.95-.8,1.46.36.51.8,1.02.8,1.02,0,0-.88.22.07.8s1.02.73,1.6.95c.58.22,1.46.07,1.39.36-.07.29-2.22-.44-2.57-.22-.35.22-.42.8-.42.8,0,0-.51,0-.94.29-.44.29-.81.51-.81.51,0,0-.8-.95-1.17,0s-.44,2.11-.44,2.11c0,0-.66.22-1.17.37-.51.15-1.31.58-1.31.58,0,0-1.46,1.24-1.6,2.19l-.15.95s-1.53.44-1.53,1.31.58.88-.29,1.68c-.88.8-.73,1.82-.51,2.55.22.73.51,1.68.51,1.68,0,0-1.24.66-1.09,1.46.15.8.8.95.8.95,0,0,0,1.9.66,2.63,0,0-.15,2.12.66,2.33,0,0-.51,1.75,1.17,2.41,0,0-.29,1.68.51,1.75.8.07,1.46,0,1.46,0,0,0,.88,1.82,1.53,1.97.66.15.66.51.88,1.02.22.51.8.58.8.58,0,0,.36,1.68,1.24,1.75.88.07,1.39.58,2.26.44.88-.15,2.48-.44,2.48-.44,0,0,2.69.56,3.06.46l.37-.1s2.19-.88,2.77-1.24c.58-.36,1.17.8,1.97.8s1.97-.44,1.97-.44c0,0,2.04-.22,2.55-.95.51-.73,0-.73.51-.73s.73.51,1.39,0c.66-.51.88-1.31.88-1.31,0,0,1.75,0,1.82-.73l.07-.73s.58-.58.58-1.31.15-1.36.15-1.36c0,0,.36.99.58.99s.8.73,1.9.73,1.82-.22,2.84-.36c1.02-.15,1.6-1.02,1.6-1.02,0,0,1.09-.22,1.24-.77.15-.55.29-.91.29-.91,0,0,1.31-.66,1.31-1.82s-.07-1.6-.07-1.6c0,0,.8-.37.07-1.24l-.73-.88s.22-.95,0-1.46c-.22-.51-.95-1.24-.95-1.24,0,0,1.17,0,.88-.8-.29-.8-1.09-1.39-1.09-1.39,0,0-1.02-2.11-1.02-2.63s.66-1.87.66-2.17.51.35.51-.31-1.09-2.19-.22-2.41c.88-.22,1.09-.66.95-.95s0-.95,0-.95c0,0,.36-.58.22-1.17-.15-.58-.44-1.17-.73-1.97-.29-.8-.22-2.33-1.02-2.33s-1.67-.22-2.06.05c-.39.27-1.32-.39-1.32-.39,0,0,.29-2.03-1.35-1.48"/>
    <path class="st8" d="M78.56,30.13s-6.2-2.7-13.05-2.77c-6.85-.07-11.45,1.53-13.93,2.77-2.48,1.24-8.24,5.03-9.85,6.49-1.6,1.46-9.92,10.72-11.81,12.62-.17.17-.37.39-.61.66-2.42,2.76-7.99,10.24-8.65,10.57-.73.36,3.19-2.85,8.97-9.99,0,0,8.97-9.48,10.06-10.72,1.09-1.24,9.04-7,10.72-7.88,1.68-.88,7.73-3.04,11.67-2.87,3.94.17,13.05,1.63,15.02,2.21,1.97.58,7.53,3.53,7.53,3.53l-6.07-4.63Z"/>
    <path class="st9" d="M37.72,18.09s1.53,1.68,3.57,2.19c2.04.51,1.17.16,4.08.48,2.92.32,6.42,1.71,6.42,1.71l-6.56-.51s-3.57-.35-5.32-1.19c-1.75-.85-2.19-2.67-2.19-2.67"/>
    <path class="st8" d="M43.34,37.49s-.73,3.5-1.68,5.98c-.95,2.48-1.9,2.92-2.63,6.34-.73,3.43,1.82,7.88,1.82,7.88,0,0-.73,1.46-1.79-.36-1.06-1.82-1.35-3.06-1.35-4.3s-.29-.44,0-2.55c.29-2.12.07-3.06,1.35-4.45,1.28-1.39,2.59-3.5,2.74-4.38.14-.88,1.53-4.16,1.53-4.16"/>
    <path class="st8" d="M31.38,55.8c-.22,1.75-.95,5.11-1.97,5.69-1.02.58-1.09.07-3.57,1.31-2.48,1.24-3.5.97-3.5.7s5.18-1.6,6.27-3.74c1.09-2.14,2.77-3.96,2.77-3.96"/>
    <path class="st8" d="M34.73,42.31c-.88.22-3.88,3.06-7.85,3.72-3.97.66-6.37,1.09-7.9,3.06-1.53,1.97-.44,1.97-1.53,1.97s.15-4.59,4.89-5.47c4.74-.88,8.53-1.75,8.6-2.41.07-.66,3.79-.88,3.79-.88"/>
    <path class="st9" d="M30.94,25.09s-.22.66,3.5.66,5.15-.47,7,0c1.85.47,5.76-1.9,5.76-1.9,0,0-2.19.86-6.35.98-4.16.11-7.66.33-8.39.33s-1.53-.07-1.53-.07"/>
    <path class="st2" d="M93.09,62.8s-1.11-1.24-.53-1.24,1.31.58,1.39,0c.07-.58-1.02-.8,1.53-.8s3.3.58,4.1-.29c.79-.88.79-2.04,1.01-2.26.22-.22,1.53-.88,1.53-.88,0,0,1.75.36,1.9,1.53.15,1.17.44,1.17.8,2.41l.36,1.24-12.09.29Z"/>
    <path class="st3" d="M97.67,61.85s5.69.15,7.51.66c1.82.51,9.63,3.43,11.23,9.92,1.6,6.49,2.41,10.21.73,14.22-1.68,4.01-6.93,9.63-9.92,10.87-2.99,1.24-4.45.95-4.67,1.97-.22,1.02.36,2.99.8,3.43.44.44-.66,1.09-.66,1.09,0,0-.58-.88-1.17-.88s-.66.07-.22.88c.44.8.88,1.39.95,1.6s-1.02.66-1.97-.58c-.95-1.24-1.17-2.19-1.17-2.77s0-1.53-.8-2.41c-.8-.88-6.64-3.21-8.53-4.23-1.9-1.02-9.26-6.27-8.68-14.51.58-8.24,1.82-11.45,5.69-14.66,3.86-3.21,7.44-4.3,10.87-4.59"/>
    <path class="st7" d="M97.16,97.88s-4.59-1.82-11.52-6.85c-6.93-5.03-2.77-18.23-1.31-20.49,1.46-2.26,4.67-5.76,10.87-6.78,6.2-1.02,9.41,1.38,12.18,2.62,2.77,1.24,6.53,2.88,8.53,8.02,2,5.14,1.24,11.52.29,13.05-.95,1.53-8.02,8.97-10.65,9.55-2.63.58-3.28,1.68-3.43,2.41-.14.73.73,2.48-.22,2.63-.95.15-2.33-.51-2.44-1.53-.11-1.02-2.3-2.62-2.3-2.62"/>
    <path class="st6" d="M84.98,76.8s-.88,1.24-.36,2.62c.51,1.39,1.02,1.82,1.09,1.31.07-.51-.22-1.02,0-2.33.22-1.31-.32-2.52-.73-1.6"/>
    <path class="st1" d="M100.97,105.64s.2.98,2.17,1.86c1.97.88,3.28.73,4.23,1.09.95.37,1.68.29,1.82,1.17.15.88-.44,1.68.73.95,1.17-.73,3.28-1.53,3.28-1.53,0,0-2.55,1.31-3.28.95-.73-.37-.22-1.43-1.09-1.81-.88-.38-2.77-.09-4.16-.82-1.38-.73-2.41-1.9-2.41-1.9,0,0-1.01.24-1.29.04"/>
    <path class="st1" d="M102.7,104s2.55,2.19,5.11,2.85c2.55.65,7.51,2.18,9.92,3.2,2.41,1.02,2.84,1.68,4.89,2.19,2.04.51,5.1,1.24,6.85,2.26,1.75,1.02,2.85,1.39,2.85,1.39,0,0-4.38-2.62-6.78-3.35-2.41-.73-5.21-1.75-7.46-3.14-2.24-1.39-9.03-2.84-11.58-4.16-2.55-1.31-3.14-2.33-3.14-2.33l-.66,1.09Z"/>
    <path class="st1" d="M100.97,102.91s1.02,2.59,2.61,2.7c1.58.11,2.62-.73,5.69-.58,3.06.15,6.64.84,6.64.84,0,0-6.78-1.28-10.06-.26-3.28,1.02-4.3-.51-4.3-.51l-.56-2.19Z"/>
    <path class="st9" d="M59.6,29.15s-2.26.25-3.79,2.66c-1.53,2.41-.95,8.02-.95,8.02,0,0,.15,1.24.51,1.31.37.07,2.26,1.24,2.48,1.82.22.58.15.96.15.96l.07,1.45s-.8,2.53-1.31,2.54c-.51.01-.95-1.59-.95-1.59,0,0-1.03-.22-.95-.8.08-.58-.11-.78-.11-.78,0,0-.62.07-.76-.81l-.15-.89s-.58.51-1.24-.29l-.66-.8s.05,1.11-.51-.58c-.56-1.69-.73-.88-.51-2.04.22-1.17-2.11-4.16-2.11-4.16l-4.16-3.14s-1.31-1.53-1.31-2.19.58-.94.95-.69c.37.25,1.82.1,1.97.47.15.36,1.6,1.57,2.33.82.73-.75,7.67-2.03,7.67-2.03l3.34.74Z"/>
  </g>
</svg>