<?xml version="1.0" encoding="UTF-8"?>
<svg id="Vrstva_1" xmlns="http://www.w3.org/2000/svg" xmlns:xlink="http://www.w3.org/1999/xlink" version="1.1" viewBox="0 0 141.73 141.73">
  <!-- Generator: Adobe Illustrator 30.1.0, SVG Export Plug-In . SVG Version: 2.1.1 Build 136)  -->
  <defs>
    <style>
      .st0 {
        fill: none;
      }

      .st1 {
        fill: #767a38;
      }

      .st2 {
        fill: #e2b22c;
      }

      .st3 {
        fill: #f7c63b;
      }

      .st4 {
        fill: #9fa24b;
      }

      .st5 {
        fill: #919545;
      }

      .st6 {
        fill: #ebbf2f;
      }

      .st7 {
        fill: #b0b357;
      }

      .st8 {
        fill: #ffd555;
      }

      .st9 {
        fill: #706f6f;
      }

      .st10 {
        clip-path: url(#clippath);
      }
    </style>
    <clipPath id="clippath">
      <rect class="st0" x="12.98" y="7.31" width="114.58" height="114.58"/>
    </clipPath>
  </defs>
  <g>
    <path class="st9" d="M57.68,125.13c.38.47.56,1.14.56,2,0,.98-.24,1.73-.73,2.26s-1.17.8-2.05.8c-.26,0-.52-.02-.8-.07l.04,2.17h-1.58l.08-4.52-.07-3.17,1.52-.13v.82s.07,0,.07,0c.22-.22.44-.39.65-.52.21-.13.44-.25.7-.34.7,0,1.23.24,1.61.71ZM56.43,128.7c.22-.3.32-.73.32-1.31s-.09-.98-.27-1.27c-.18-.28-.45-.43-.8-.43s-.69.17-1.04.52v1.39s.01,1.36.01,1.36c.29.12.56.18.83.18.42,0,.73-.15.95-.44Z"/>
    <path class="st9" d="M62.98,124.8c.35.28.52.66.52,1.16,0,.14-.02.6-.07,1.37,0,.22-.02.45-.04.69-.02.24-.02.44-.02.61,0,.14.02.23.06.28.04.05.11.08.22.08.08,0,.18-.02.31-.05l.12.1-.14.84c-.26.17-.55.27-.88.3-.24-.02-.44-.11-.6-.26-.16-.15-.27-.35-.32-.62h-.08c-.4.42-.81.72-1.24.89-.58,0-1.03-.16-1.36-.46s-.49-.7-.49-1.21c0-.4.1-.71.31-.94.2-.23.51-.38.93-.46l1.84-.35v-.49c0-.52-.26-.78-.77-.78-.25,0-.51.06-.79.17s-.59.29-.93.53l-.12-.07-.18-1.06c.34-.22.71-.38,1.1-.5s.78-.17,1.18-.17c.62,0,1.1.14,1.45.41ZM60.75,127.84c-.13.03-.22.09-.28.16-.06.08-.09.19-.09.34,0,.21.06.37.17.49.11.12.27.17.47.17.31,0,.64-.18.98-.55l.02-.89-1.27.28Z"/>
    <path class="st9" d="M69.67,125.13c.38.47.56,1.14.56,2,0,.98-.24,1.73-.73,2.26s-1.17.8-2.05.8c-.26,0-.52-.02-.8-.07l.04,2.17h-1.58l.08-4.52-.07-3.17,1.52-.13v.82s.07,0,.07,0c.22-.22.44-.39.65-.52.21-.13.44-.25.7-.34.7,0,1.23.24,1.61.71ZM68.42,128.7c.22-.3.32-.73.32-1.31s-.09-.98-.27-1.27c-.18-.28-.45-.43-.8-.43s-.69.17-1.04.52v1.39s.01,1.36.01,1.36c.29.12.56.18.83.18.42,0,.73-.15.95-.44Z"/>
    <path class="st9" d="M74.65,124.5v1.48l-.17.06c-.14-.06-.28-.08-.44-.08-.46,0-.88.3-1.26.9v.76l.08,2.46h-1.6l.1-2.3-.07-3.17,1.51-.13v1.09s.08,0,.08,0c.39-.72.88-1.08,1.46-1.08.07,0,.17,0,.3.02Z"/>
    <path class="st9" d="M76.88,121.97c.14.14.21.34.21.6,0,.27-.08.49-.23.65-.15.16-.36.24-.62.24s-.47-.07-.61-.22c-.14-.14-.21-.35-.21-.61s.08-.48.23-.64.37-.24.64-.24c.25,0,.44.07.58.22ZM75.55,127.77l-.06-3.17,1.57-.13-.07,3.14.07,2.46h-1.6l.08-2.3Z"/>
    <path class="st9" d="M80.13,127.61l.08,2.46h-1.6l.08-2.32-.07-5.99,1.6-.12-.1,5.96ZM81.75,127.01c.43.7,1.08,1.63,1.94,2.8v.17c-.29.06-.59.11-.91.15-.32.04-.51.06-.58.07l-.17-.07c-.7-.99-1.31-1.98-1.82-2.96v-.11l1.39-1.98.29-.58h1.68l-1.82,2.52Z"/>
    <path class="st9" d="M87.96,124.8c.35.28.52.66.52,1.16,0,.14-.02.6-.07,1.37,0,.22-.02.45-.04.69-.02.24-.02.44-.02.61,0,.14.02.23.06.28s.11.08.22.08c.08,0,.18-.02.31-.05l.12.1-.14.84c-.26.17-.55.27-.88.3-.24-.02-.44-.11-.6-.26-.16-.15-.27-.35-.32-.62h-.08c-.4.42-.81.72-1.24.89-.58,0-1.03-.16-1.36-.46s-.49-.7-.49-1.21c0-.4.1-.71.31-.94.2-.23.51-.38.93-.46l1.84-.35v-.49c0-.52-.26-.78-.77-.78-.25,0-.51.06-.79.17s-.59.29-.93.53l-.12-.07-.18-1.06c.34-.22.71-.38,1.1-.5s.78-.17,1.18-.17c.62,0,1.1.14,1.45.41ZM85.73,127.84c-.13.03-.22.09-.28.16-.06.08-.09.19-.09.34,0,.21.06.37.17.49.11.12.27.17.47.17.31,0,.64-.18.98-.55l.02-.89-1.27.28Z"/>
  </g>
  <g class="st10">
    <path class="st2" d="M39.12,24.69s1.08-2.02,10.37-3.77c9.3-1.75,16.57-1.35,21.29,1.89,4.72,3.23,3.37.19,7.95-.51,4.58-.7,16.44-.3,20.34,4.42l3.91,4.72-37.73,20.88-20.21-11.05-5.93-16.57Z"/>
    <path class="st6" d="M43.03,26.31s1.48-3.1,7.95-3.64c6.47-.54,14.42-1.75,17.25,0,2.83,1.75,4.58,2.56,3.91,4.58-.67,2.02-3.64,7.82-3.64,7.82l-15.76,1.04-9.7-9.79Z"/>
    <path class="st6" d="M71.73,33.59c0-.54,1.62-5.93,3.23-7.68,1.62-1.75,3.5-2.69,8.08-2.83,4.58-.13,3.37.94,5.93,1.21,2.56.27,5.93.94,6.33,2.29.4,1.35-6.74,4.31-9.03,6.06-2.29,1.75-6.6,4.85-6.6,4.85l-7.95-3.91Z"/>
    <path class="st3" d="M75.77,33.86s1.75-5.66,3.23-5.66,3.5-.01,2.83,2.08c-.67,2.09-3.91,3.58-3.91,3.58h-2.16Z"/>
    <path class="st4" d="M52.06,33.86s2.56.27,4.58,0,3.1-.67,4.58-.94c1.48-.27,9.43.12,11.99.53,2.56.41,2.96-.8,4.72.41,1.75,1.21,2.56,2.56,2.56,3.64s-8.76,5.66-12.4,6.33c-3.64.67-4.72,1.08-5.79.81-1.08-.27-8.76-6.83-9.16-7.68s-1.08-3.1-1.08-3.1"/>
    <path class="st1" d="M62.43,46.25s.67,1.48,3.1,1.48,6.2-5.1,6.2-5.1c0,0-8.84,2.6-10.4,1.43l1.1,2.18Z"/>
    <path class="st5" d="M54.48,34.73s1.43.64,1.49,1.16c.06.52,0,1,0,1,0,0,1.49.67,1.68,1.01.2.34,0,1.42,0,1.42,0,0,.53-.68,1.27-.54.74.14,1.35,1.35,1.21,1.89l-.13.54s.4-.67,1.55,0c.77.45.81.84.88,1.11.03.13.07.24.2.32.4.25.81-1.44,2.16-1.5,1.35-.07,2.22,1.06,2.36,1.5s.2.79.47.38c.27-.4.94-1.95,2.02-2.22,1.08-.27,2.11.4,2.64-.34.53-.74.26-1.49,1.81-1.69,1.55-.2,1.21,0,1.55-.2.34-.2,1.35-1.82,1.89-1.62.54.2-1.75-1.95-1.75-1.95l.88,1.55s-1.28.81-1.15,1.42c0,0-3.49-.18-3.77,2.42,0,0-1.55-.67-2.9-.34s-1.48,1.95-1.48,1.95c0,0-1.36-2.86-4.24-.81l-.27.61s-.47-2.15-2.29-1.55c0,0-.4-2.76-2.49-2.02,0,0-.4-1.68-1.55-1.68,0,0,.1-1.92-2.02-1.82"/>
    <path class="st7" d="M59.88,35.63s2.62-3.61,2.22-5.36c-.4-1.75-2.63-4.84-4.04-5.11-1.42-.27-1.95-1.55-2.76-1.55s-.94.94-2.83,1.01c-1.89.07-6.74-.67-6.33-3.57.4-2.9,1.08-2.63,1.08-2.63,0,0,.02,4.65,2.44,4.4,2.42-.25,4.16-.32,2.41-2.93-1.75-2.61-3.03-5.24-3.03-5.24,0,0,3.57-1.68,6.74-.67,3.17,1.01,9.45,5.66,10.28,7.21.83,1.55,2.05,3.5,2.65,6.2.61,2.69.66,4.24,1.58,4.78.92.54,2.62,1.22,2.62,1.22,0,0,1.33.8.79,1.74s-3.97,2.29-6,2.36c-2.02.07-3.97.4-5.79,0s-2.01-1.86-2.01-1.86"/>
    <path class="st5" d="M55.42,22.61s3.66.28,5.9,3.07c2.25,2.79,2.72,5.38,2.65,7.15-.07,1.77-2.61,3.79-3.03,3.28-.42-.51.05-2.25.05-2.25,0,0,2.91-4.58-2.95-8.69,0,0-.88.27-2.76-1.55,0,0-1.55,1.42-3.23,1.42s-6.92-.74-5.95-4.78c0,0,.02-2.02,1.1-1.82,1.08.2.12,3.89,2.75,4.37,2.64.48,4.75-.3,5.47-.19"/>
    <path class="st1" d="M49.02,14.66s-1.08,2.36-1.75,2.9c-.67.54-.44,1.04-.8,1.86-.37.83-.05,3.34,3.18,3.41,3.22.07,4.03-.21,3.09-2.44-.94-2.23-3.71-5.73-3.71-5.73"/>
    <path class="st4" d="M54.99,18.41s7.51,1.7,9.67,5.54c2.15,3.84,3.91,9.06,4.24,9.08.33.02-2.61-9.22-4.91-10.97-2.3-1.75-7.82-4.27-9-3.65"/>
    <path class="st4" d="M55.63,15.46s5.49,1.5,8.6,4.83c0,0-2.31-3.89-8.6-4.83"/>
    <path class="st4" d="M64.79,30.28s.87,3.3.74,5.33c-.13,2.02-.74,2.08-.74,2.08,0,0,.94-1.42,0-7.41"/>
    <path class="st3" d="M54.48,36.89s-5.73-10.24-11.99-12.06c-6.26-1.82-12.33,2.22-15.02,10.71-2.69,8.49,1.21,14.28.88,20.55-.34,6.27-2.16,16.5,1.75,26.48,3.91,9.97,8.89,19.67,12.87,21.29,3.98,1.62,8.15,2.96,8.15,2.96,0,0,26,2.36,27.28,2.83,1.28.47,6.33,1.75,11.25-1.28l4.92-3.03s10.78-10.98,14.35-22.97c3.57-11.99,5.05-17.45,2.36-31.26-2.69-13.81-2.09-22.03-13.14-24.45,0,0-4.18-2.19-14.15,6.39,0,0-3.47,2.94-3.91,4.16-.43,1.22-9.03,7.52-9.03,7.52l-4.24,3.28-5.48-.27-6.85-10.85Z"/>
    <path class="st2" d="M44.44,93.34s.67,5.32-.47,6.26c-1.15.94-8.7-6.26-8.7-6.26,0,0,2.88,8.76,7.98,11.25,5.1,2.49,7.86,2.22,7.86,2.22l-6.67-13.47Z"/>
    <path class="st2" d="M83.52,101.42s1.48,2.9,4.18,3.84c2.69.94,12.03-6.02,12.03-6.02,0,0-6.91,10.26-13.98,11.47-7.07,1.21-8.25-1.25-8.25-1.25,0,0,4.88-8.19,6.03-8.05"/>
    <path class="st6" d="M39.12,38.96s7.45-4.18,11.15-3.56c3.7.62,9.52,5.08,11.68,7.79,2.16,2.72,2.68,3.42,4.09,3.22,1.41-.2,8.49-7.09,10.7-8.18,2.21-1.09,6.37-2.02,11.01.1,4.65,2.12,8.39,7.48,8.99,22.94.61,15.46-6.37,31.53-12.43,39.11-6.06,7.58-5.77,12.09-14.05,13.04-8.28.95-14.34,1.38-17.17-3.1-2.83-4.48-14.75-24.89-17.28-37.83-2.53-12.93-2.8-25.02,3.3-33.53"/>
    <path class="st8" d="M44.04,27.33s-2.49-.81-5.12.87c-2.63,1.68-3.5,5.58-2.9,6.53.61.95,1.95,1.96,2.69,2.16.74.2-.07,1.86.1,2.51.17.65,3.27-1.77,4.89-1.91s2.52-1.2,1.43-1.24c-1.09-.04-2.3.9-2.3.9,0,0-.2-2.51.67-3.17.88-.67,1.56-6.48.53-6.66"/>
    <path class="st8" d="M87.56,37.69s2.16.68,3.84,1.82c1.68,1.15,2.36,3.21,3.03,3.12.67-.09,6.87-5.48,7.01-8.78.13-3.3-2.24-4.96-6.11-4.58-3.87.38-7.16,2.3-7.56,4.05-.4,1.75-.2,4.37-.2,4.37"/>
    <path class="st3" d="M43.43,43.2s-.74-1.94.74-3.69c1.48-1.75,6.26-2.65,8.93-.55,2.66,2.1,7.79,9.58,10.89,9.85,3.09.27,6.46-2.16,9.43-4.38s6.2-5.87,11.25-4.92c5.05.94,5.12,6.33,1.82,8.22-3.3,1.89-7.48,1.41-11.11,1.68-3.64.27-4.47,3.7-8.84,3.84-4.37.14-4.7-2.09-7.2-3.3-2.49-1.21-8.02-2.16-11.45-3.03s-4.45-3.73-4.45-3.73"/>
    <path class="st8" d="M38.38,46.86s-3.37,15.16-.34,26.14c3.03,10.98,8.15,22.7,9.36,24.93,1.21,2.22,3.71,8.89,3.71,8.89,0,0-13.41-21.83-15.7-34.42-2.29-12.6-1.08-26.88,2.96-25.53"/>
    <path class="st8" d="M28.75,37.49s-1.08,2.61,0,8.01c1.08,5.4,1.62,9.71.54,16.98-1.08,7.28.88,16.71,2.63,20.75,1.75,4.04,3.7,11.5,3.9,11.87s-9.85-15.22-8.68-28.24c1.17-13.01.38-16.71-.62-19.4-1-2.69-.24-12.42,3.62-17.53,0,0-1.12,2.76-1.12,4.05s-.27,3.51-.27,3.51"/>
    <path class="st8" d="M97.26,67.81s-1.14,10.24-3.57,17.45c-2.43,7.21-10.17,16.16-10.17,16.16,0,0,9.57-18.05,11.12-25.46,1.55-7.41,2.15-13.44,2.15-13.44,0,0,.63,4.03.47,5.29"/>
  </g>
</svg>