<?xml version="1.0" encoding="UTF-8"?>
<svg id="Vrstva_1" xmlns="http://www.w3.org/2000/svg" xmlns:xlink="http://www.w3.org/1999/xlink" version="1.1" viewBox="0 0 141.73 141.73">
  <!-- Generator: Adobe Illustrator 30.1.0, SVG Export Plug-In . SVG Version: 2.1.1 Build 136)  -->
  <defs>
    <style>
      .st0 {
        fill: none;
      }

      .st1 {
        fill: #a9bd41;
      }

      .st2 {
        fill: #779c28;
      }

      .st3 {
        fill: #80a82b;
      }

      .st4 {
        fill: #98b743;
      }

      .st5 {
        fill: #706f6f;
      }

      .st6 {
        fill: #6f8e2c;
      }

      .st7 {
        fill: #5a7423;
      }

      .st8 {
        clip-path: url(#clippath);
      }
    </style>
    <clipPath id="clippath">
      <rect class="st0" x="2.84" y="6.38" width="136.06" height="114.8"/>
    </clipPath>
  </defs>
  <g>
    <path class="st5" d="M41.08,126.59c0-.29-.05-.51-.18-.66-.13-.15-.32-.23-.56-.23-.36,0-.74.17-1.15.52l-.02,1.39.08,2.46h-1.6l.08-2.32-.07-5.99,1.6-.12-.06,3.64h.07c.44-.4.92-.69,1.45-.86.61,0,1.07.14,1.39.41.32.28.47.67.46,1.19l-.04,1.6.06,2.45h-1.6l.08-3.48Z"/>
    <path class="st5" d="M45.56,127.61l.08,2.46h-1.6l.08-2.32-.07-5.99,1.6-.12-.1,5.96Z"/>
    <path class="st5" d="M50.8,124.8c.35.28.52.66.52,1.16,0,.14-.02.6-.07,1.37,0,.22-.02.45-.04.69-.02.24-.02.44-.02.61,0,.14.02.23.06.28.04.05.11.08.22.08.08,0,.18-.02.31-.05l.12.1-.14.84c-.26.17-.55.27-.88.3-.24-.02-.44-.11-.6-.26-.16-.15-.27-.35-.32-.62h-.08c-.4.42-.81.72-1.24.89-.58,0-1.03-.16-1.36-.46s-.49-.7-.49-1.21c0-.4.1-.71.31-.94.2-.23.51-.38.93-.46l1.84-.35v-.49c0-.52-.26-.78-.77-.78-.25,0-.51.06-.79.17s-.59.29-.93.53l-.12-.07-.18-1.06c.34-.22.71-.38,1.1-.5s.78-.17,1.18-.17c.62,0,1.1.14,1.45.41ZM48.57,127.84c-.13.03-.22.09-.28.16-.06.08-.09.19-.09.34,0,.21.06.37.17.49.11.12.27.17.47.17.31,0,.64-.18.98-.55l.02-.89-1.27.28Z"/>
    <path class="st5" d="M53.9,125.38l.84,3.19h.08l1.01-3.11.2-.97h1.39l-1.87,5.58h-1.72l-1.58-5.54,1.49-.07.16.92Z"/>
    <path class="st5" d="M59.75,127.61l.08,2.46h-1.6l.08-2.32-.07-5.99,1.6-.12-.1,5.96ZM61.37,127.01c.43.7,1.08,1.63,1.94,2.8v.17c-.29.06-.59.11-.91.15-.32.04-.51.06-.58.07l-.17-.07c-.7-.99-1.31-1.98-1.82-2.96v-.11l1.39-1.98.29-.58h1.68l-1.82,2.52Z"/>
    <path class="st5" d="M68.13,125.1c.43.48.65,1.17.65,2.08,0,.98-.23,1.72-.7,2.24-.46.52-1.13.77-2,.77-.82,0-1.44-.24-1.87-.72-.43-.48-.65-1.17-.65-2.08,0-.98.23-1.72.7-2.24s1.13-.77,2-.77c.82,0,1.44.24,1.87.72ZM65.32,125.85c-.17.26-.26.67-.26,1.24,0,.74.09,1.26.26,1.57.18.31.46.47.86.47s.66-.13.83-.38c.17-.25.26-.67.26-1.24,0-.73-.09-1.25-.27-1.57-.18-.32-.47-.47-.86-.47s-.66.13-.83.38Z"/>
    <path class="st5" d="M70.78,125.38l.84,3.19h.08l1.01-3.11.2-.97h1.39l-1.87,5.58h-1.72l-1.58-5.54,1.49-.07.16.92Z"/>
    <path class="st5" d="M76.04,125.34l1,3.12h.1l1-2.99.2-.98h1.37l-1.82,5.21c-.19.54-.41.98-.65,1.31-.24.33-.54.6-.9.82-.36.21-.82.39-1.39.55h-.12c-.27-.28-.5-.59-.67-.95l.05-.16c.5-.09.92-.22,1.25-.39.33-.17.64-.44.94-.81l-2.04-5.54,1.51-.07.19.89ZM78.25,121.4l.58.86-.02.16c-.18.11-.31.19-.4.24-1,.62-1.65,1.01-1.94,1.18h-.16s-.38-.61-.38-.61c.93-.74,1.65-1.36,2.17-1.84h.16Z"/>
    <path class="st5" d="M85.66,124.67l-.22,1.18-.19.06c-.23-.15-.46-.27-.7-.35-.23-.08-.44-.12-.61-.12-.19,0-.34.05-.46.15-.11.1-.17.22-.17.37,0,.17.07.3.22.41.15.1.38.22.7.35.32.13.58.25.79.37s.39.29.53.5c.15.21.22.47.22.79s-.08.62-.25.89c-.16.28-.41.5-.75.67s-.75.26-1.24.26c-.58,0-1.17-.12-1.79-.36l.18-1.25.16-.1c.25.21.52.37.83.5s.57.19.8.19c.22,0,.38-.05.5-.16.12-.11.18-.24.18-.39,0-.17-.07-.3-.22-.41-.15-.1-.38-.22-.7-.35-.33-.14-.6-.27-.8-.39-.21-.12-.39-.28-.53-.5-.15-.22-.22-.48-.22-.8,0-.52.2-.95.59-1.28s.92-.5,1.6-.5c.54,0,1.06.09,1.54.28Z"/>
    <path class="st5" d="M90.5,124.8c.35.28.52.66.52,1.16,0,.14-.02.6-.07,1.37,0,.22-.02.45-.04.69-.02.24-.02.44-.02.61,0,.14.02.23.06.28s.11.08.22.08c.08,0,.18-.02.31-.05l.12.1-.14.84c-.26.17-.55.27-.88.3-.24-.02-.44-.11-.6-.26-.16-.15-.27-.35-.32-.62h-.08c-.4.42-.81.72-1.24.89-.58,0-1.03-.16-1.36-.46s-.49-.7-.49-1.21c0-.4.1-.71.31-.94.2-.23.51-.38.93-.46l1.84-.35v-.49c0-.52-.26-.78-.77-.78-.25,0-.51.06-.79.17s-.59.29-.93.53l-.12-.07-.18-1.06c.34-.22.71-.38,1.1-.5s.78-.17,1.18-.17c.62,0,1.1.14,1.45.41ZM88.28,127.84c-.13.03-.22.09-.28.16-.06.08-.09.19-.09.34,0,.21.06.37.17.49.11.12.27.17.47.17.31,0,.64-.18.98-.55l.02-.89-1.27.28Z"/>
    <path class="st5" d="M94.19,127.61l.08,2.46h-1.6l.08-2.32-.07-5.99,1.6-.12-.1,5.96Z"/>
    <path class="st5" d="M99.43,124.8c.35.28.52.66.52,1.16,0,.14-.02.6-.07,1.37,0,.22-.02.45-.04.69-.02.24-.02.44-.02.61,0,.14.02.23.06.28s.11.08.22.08c.08,0,.18-.02.31-.05l.12.1-.14.84c-.26.17-.55.27-.88.3-.24-.02-.44-.11-.6-.26-.16-.15-.27-.35-.32-.62h-.08c-.4.42-.81.72-1.24.89-.58,0-1.03-.16-1.36-.46s-.49-.7-.49-1.21c0-.4.1-.71.31-.94.2-.23.51-.38.93-.46l1.84-.35v-.49c0-.52-.26-.78-.77-.78-.25,0-.51.06-.79.17s-.59.29-.93.53l-.12-.07-.18-1.06c.34-.22.71-.38,1.1-.5s.78-.17,1.18-.17c.62,0,1.1.14,1.45.41ZM99.03,121.4l.58.86-.02.16c-.18.11-.31.19-.4.24-1,.62-1.65,1.01-1.94,1.18h-.16s-.38-.61-.38-.61c.93-.74,1.65-1.36,2.17-1.84h.16ZM97.21,127.84c-.13.03-.22.09-.28.16-.06.08-.09.19-.09.34,0,.21.06.37.17.49.11.12.27.17.47.17.31,0,.64-.18.98-.55l.02-.89-1.27.28Z"/>
    <path class="st5" d="M104.62,128.69l.13.12-.16.95c-.41.21-.82.34-1.25.38-1.08-.11-1.62-.64-1.62-1.58l.06-1v-2.06h-.76l-.06-.08.08-.88h.71v-.92l1.45-.47.11.1-.04,1.3h1.43l.05.08-.07.88h-1.43l-.07,2.69c0,.26.05.44.14.55.1.11.26.16.48.16.26,0,.52-.07.8-.2Z"/>
  </g>
  <g class="st8">
    <path class="st7" d="M55.94,52.96l9.16-7.84,12.45-7.82,13.75-4.6,15.59,8.89,3.44,13.96,3.37,15.99s-6.58,10.11-7.69,10.79-36.93,4.56-36.93,4.56l-17.84,2.38-11.23-11.49,3.12-13.49,12.81-11.33Z"/>
    <path class="st7" d="M67.28,89.25s10.64-1.17,11.6-1.17,7.7-1.88,7.7-1.88l3.55-2.26,5.35,1.23-1.56,2.52-6.97,1.1-3.73,1.81-4.63,1.88-5.89.71-5.41-3.95Z"/>
    <polygon class="st2" points="71.98 40.49 72.22 40.67 81.51 47.32 75.56 57.87 62.93 54.85 62.93 45.83 71.98 40.49"/>
    <path class="st3" d="M62.6,51.32s5-1.58,6.98-3.01c1.98-1.43,1.98-2.97,3.46-4.23,1.48-1.26,2-2.57,2-2.57l-3.1-1.62-9.83,5.63.49,5.8Z"/>
    <path class="st1" d="M70.57,43.75s1.15.36,2.69,1.86c1.54,1.49.69,2.76,2.49,4.68,1.8,1.92,6.03,5.52,6.03,5.52,0,0,1.34-5.8.82-6.62-.51-.82-3.44-4.58-5.48-5.18-2.03-.61-.68.03-2.09-.69-1.41-.71-4.15-.22-4.47.44"/>
    <path class="st4" d="M64.03,48.75s1.76,1.59,2.97,3.19c1.21,1.59,1.65,2.09,3.98,2.47,2.34.38,3.97,1.13,4.58,1.76.61.62-9.38-.22-10.54-1.43-1.15-1.21-.99-5.99-.99-5.99"/>
    <path class="st3" d="M68.83,51.82s1.74,1.84,3.12,1.08,2.04-1.63,1.87-2.24c-.16-.61-2.2-1.49-2.2-1.49,0,0,.6-.82,2.22.67,1.62,1.48,3.49,3.24,3.49,3.24,0,0-2.58-1.1-3.41,0-.82,1.1-4.92.82-5.1-1.26"/>
    <polygon class="st3" points="79.42 66.93 73.43 58.63 65.02 56.61 68.7 68.25 79.42 66.93"/>
    <path class="st4" d="M71.62,67.43l.61-2.58s2.09-1.82,2.69-1.05c.6.77-.13,1.39.84,2.04s1.97,1.3,1.97,1.3c0,0-5.12,1.27-6.11.29"/>
    <path class="st2" d="M67.6,62.91s6.28.24,6.69.71c.4.46-1.03.63-1.52,1.51-.49.88-.79,1.88-.79,1.88l-4.04.8-.33-4.9Z"/>
    <polygon class="st6" points="52.99 66.55 50.24 69.52 52.99 80.95 57.24 79.25 52.99 66.55"/>
    <path class="st7" d="M53.76,69.96s-2.09,2.26-.99,3.71c1.1,1.45,1.07,1.4,1.28,2.83.21,1.43,1.09,2.53,1.09,2.53l7.2.77-4.07-5.36-4.51-4.47Z"/>
    <path class="st3" d="M105.68,91.22s6.6-7.23,8.96-10.02c2.36-2.79,3.4-7.07,3.48-9.27.09-2.2-.47-7.47,0-9.29.47-1.81,1.57-4.84.25-4.78-1.32.05-5.71,2.62-8.79,4.14-3.08,1.52-4.88,4.21-6.29,5.31-1.41,1.1-5.2,2.91-6.24,4.18s-1.7,3.38-1.7,3.38c0,0,8.68,16.4,10.33,16.35"/>
    <path class="st7" d="M79.64,101.61s1.49,3.46,2.64,4.12c1.15.66,1.76.44,1.76.44l6.71-5.37s-10.06.59-11.11.81"/>
    <path class="st1" d="M124.97,60.51s1.66-1.94,2.43-1.88c.76.06,1.97,2.37,2.03,3.58.05,1.21-1.59,3.24-3.13,4.67-1.54,1.43-3.23,3.02-4.12,3.35-.89.33-2.09.33-2.09.33l1.43-8.08s2.63-2.09,3.46-1.98"/>
    <path class="st1" d="M94.09,29.32s.24-.56,1.21-2.58c.97-2.01,3.46-3.86,4.75-3.54,1.29.32.81.97,2.33,1.45,1.53.48,2.42.45,4.91,1.59,2.5,1.15,7.89,3.24,9.34,5.09,1.45,1.85,4.27,7.08,6.2,7.97,1.93.88,4.91,2.42,4.91,4.19s-.56,2.82-1.37,3.38c-.11.08-.36.25-.7.49-2.19,1.51-8.31,5.71-8.31,5.71l-1.61,3.54h-5.23l-3.14-6.92-2.9-6.84-4.11-5.88-6.28-7.65Z"/>
    <path class="st3" d="M125.41,50.01s-2.25,2.5-3.38,3.62c-1.13,1.13-2.58,2.17-2.58,2.17,0,0-2.58-1.45-2.49-2.9.08-1.45,3.22-2.74,4.22-3.7,1.01-.97,1.73-1.93,3.66-2.74s2.56-.93,2.56-.93c0,0-1.5,3.93-1.99,4.47"/>
    <path class="st4" d="M116.34,53.8s-1.21-3.35,1.7-4.62c2.91-1.26,8.37-3.94,9.35-3.65,0,0-5.5,3.59-6.66,4.58-1.15.99-4.03,2.09-3.72,3.68.31,1.59.7,2,.7,2l-1.37-2Z"/>
    <path class="st1" d="M122.44,64.35s-1.87-3.74-2.47-5.06c-.6-1.32-2.25-3.49-2.25-3.49,0,0-1.41-1.89-.62-2.72,0,0,1.58,1.98,2.59,2.97,1,.99,2.49,2.8,2.76,4.83.28,2.03,0,3.46,0,3.46"/>
    <path class="st6" d="M80.92,37.17l11.69,13.49,16.1,9.85s.15-5.09-1.26-6.51c-1.41-1.42-4.79-10.51-4.79-10.51l-19.8-8.26-1.93,1.94Z"/>
    <path class="st4" d="M58.26,24.4s3.68-3.63,4.51-4.51c.82-.88,1.15-1.37,1.98-1.37s1.54.88,2.14-.38c.6-1.26,1.81-3.35,4.67-3.35s5.71,1.04,6.04,1.59c.33.55.77.06.77.88s-1.26,3.13-.77,3.85c.5.71,1.48,1.87,3.08,1.59,1.59-.27,1.87-.99,4.01-.99s4.89,2.31,6.76,3.79,4.01,3.79,4.56,4.62c.55.82.16.55,1.54,1.59s2.03,2.09,3.96,4.18c1.92,2.09,1.48,2.86,1.48,2.86,0,0,1.98,1.48,2.2,2.75.22,1.26,0,3.02,1.76,4.67,1.76,1.65,2.91,5.96,3.79,6.74.88.79,2.2,2.05,2.2,2.05l-4.23,3.67s-.33-.64-.39-2.02c-.05-1.38-.22-3.28-.6-3.7-.39-.42-1.81-.48-2.53-1.69s.06-1.65-1.15-2.2c-1.21-.55-2.8-2.09-3.24-3.19-.44-1.1-1.04-1.54-1.87-1.87-.82-.33-2.25-1.43-3.13-1.65-.88-.22-2.75-2.53-3.57-2.91-.82-.39-1.98-.28-2.91-.99-.93-.72-2.75-.93-2.75-.93l-8.41-2.14-14.62-3.85-5.28-7.09Z"/>
    <path class="st3" d="M65.63,30.45s.06-1.1-1.04-1.37c-1.1-.27-2.03-.82-3.08-2.8-1.04-1.98-4.29-2.86-5.06-3.11-.77-.25-1.87-1.12-1.76-1.89.11-.77.6-1.59-1.15-1.59s-1.59.44-3.24.44-3.63.17-4.29,1.37c-.66,1.21.17,1.04-1.04,3.02-1.21,1.98-3.41,8.41-3.41,8.41,0,0-.38.77-1.7,1.37-1.32.6-1.04,1.59-1.04,1.59,0,0-1.87,3.13-2.64,3.46-.77.33,5.06,5.39,5.06,5.39l4.23,10.11,6.87-1.92,5.44-13.85,7.86-8.63Z"/>
    <path class="st3" d="M16.83,76.5s-1.15,1.04-2.2,1.9c-1.04.85-1.76,1.84-1.76,1.84l1.15.99s-.88-.44-1.15-.55c-.27-.11.22,1.76-.27,2.58-.49.82-.39,4.84-.39,4.84l13.46-7.14,5.22-4.45h-14.07Z"/>
    <path class="st3" d="M37.38,39.52s-1.98-.3-4.18.37c-2.2.67-3.13,1.72-3.63,3.09-.49,1.37-1.43,2.36-2.47,3.74s-3.57,4.42-4.07,6.19c-.5,1.78-.77,3.75-1.48,4.58-.71.82-3.19,4-1.76,7.11,0,0-2.14,4.1-1.81,5.2,0,0-1.98,3.08-2.2,4.18-.22,1.1.77,3.46,1.37,4.12.6.66,4.01.11,5.93-.44,1.92-.55,1.89-.49,3.47-.33,1.58.16,4.66-.66,4.66-.66l10.33-35.5s-2.03-.88-4.18-1.65"/>
    <path class="st3" d="M25.02,80.29s-2.91,2.09-4.12,2.58c-1.21.49-7.31,3.3-7.53,4.01-.22.71-2.31,1.26-2.03,1.7.27.44.77.27,1.21,1.32.44,1.04.44,1.26.77,1.26h.6s-.55.33.22,1.59c.77,1.26,3.35,5.72,4.73,6.59,1.37.88,3.24,1.87,4.83,1.87s2.75-1.26,3.46-1.59c.71-.33,2.03-.28,4.34-.28,0,0,.93-.22,1.87-.55.93-.33,3.41.16,5.28.66,1.87.5,4.56-.06,5.33-.17.77-.11-6.26-16.76-6.26-16.76l-6.25-6.68s-.78.25-2.26.63c0,0-.58.14-1.1,1.48-.52,1.35-1.96.71-3.08,2.31"/>
    <path class="st6" d="M27.67,60.51s1.52-.82,2.62-.93c1.1-.11.52.79,2.42,0,1.89-.79,2.64-.94,2.64-.94l7.42,10.45-1.21,3.35-7.86-4.27-6.03-5.68s-1.39-1.36,0-1.98"/>
    <path class="st2" d="M42.49,68.64s-3.52.33-5.17-1.65c-1.65-1.98-2.47-3.02-1.87-3.35.6-.33,1.03-1.13.64-1.76s-2.02-3.85-2.29-5.6c-.28-1.76-1.15-4.29-2.25-4.67-1.1-.39-1.81-.5-1.65-1.98.17-1.48,1.7-.99,2.64-2.53.93-1.54-.05-2.14,1.15-2.69,1.21-.55,1.62-1.15,2.4-1.92.78-.77,1.44-1.65,1.5-2.09.06-.44-.22-.88-.22-.88,0,0,3.96.44,5.88,2.86,1.92,2.42,1.81,8.9,3.3,8.79,1.48-.11,2.97-3.46,2.64-5-.33-1.54-1.32-1.48-.72-2.58.61-1.1-.35-2.17.76-3.69,1.11-1.53,1.93-1.14,3.2-2.35s1.15-3.41,2.86-4.45c1.7-1.04,2.36-.44,4.12-1.7,1.76-1.26,7.31-.49,9.12-.27,1.81.22,8.35,2.75,10.39,4.01,2.03,1.26,2.58,2.47,2.58,2.47l-26.32,15.93-12.69,15.11Z"/>
    <path class="st3" d="M62.06,35.61s1.95-3.08,4.19-3.41c2.24-.33,12.9,2.69,16.25,4.5,3.35,1.82,3.52,2.48,5.66,2.75,2.14.28,3.78,1.64,4.01,2.36.23.72-1.54,6.98-1.54,6.98,0,0-7.75-.28-10.06-.61-2.31-.33-3.85-2.8-4.61-3.52-.77-.71-.11-.77-1.54-1.1-1.43-.33-1.7-1.05-1.7-1.05,0,0-1.76-.6-1.26-1.54,0,0-.93-.13-1.59-1.11-.66-.98-.93-2.13-1.92-2.3-.99-.16-1.98,0-2.64-.6-.66-.61-2.86.27-3.24,1.04-.38.77-1.26,3.41-1.26,3.41,0,0-2.2-2.97-1.81-4.18.38-1.21,3.08-1.65,3.08-1.65"/>
    <path class="st2" d="M25.84,92.49s2.21-.95,3.07-1.67c.86-.72.72-1.41,1.44-2.28.72-.88.59-1.42,1.35-2.45.77-1.04.59-.88,1.4-2.07.81-1.18,2.34-2.62,2.34-2.62,0,0,4.01,2.75,2.8,4.65-.39.6-2.26,3.56-2.98,4.96-.72,1.4-3.91,3.34-5.38,3.59-1.47.25-1.23-.34-1.23-.34,0,0,3.36-1.44,4.27-2.25.9-.81,1.31-1.4,1.62-2.26.32-.86,1.04-2.2,1.35-2.97.32-.77.18-1.58-.13-2.12-.32-.54-.12-1.67-.85-1.08-.73.59-1.81,3.42-3.07,4.46-1.26,1.04-1.2,2.03-1.95,2.8-.75.77-4.09,2.84-4.05,1.67"/>
    <path class="st2" d="M111.35,83.11s2.69-8.81,1.86-11.29c-.82-2.47-.99-3.08-3.13-2.69-2.14.39-4.45,1.76-6.26,2.69-1.81.94-7.09,3.39-7.09,3.39l-.77.79,9.34,8.35h1.7s3.61-.42,4.35-1.24"/>
    <path class="st4" d="M67.93,100.18s-.22,2.53-3.08,2.75c-2.86.22-4.07-1.59-5.6-1.37-1.54.22-.71-.22-3.3.55-2.58.77-4.4,1.65-6.37,1.43-1.98-.22-4.62-3.3-6.21-5.11-1.59-1.81-4.18-7.31-4.51-8.68-.33-1.37-2.25-5.39-2.31-5.88-.06-.49,0-.66,0-.66h.6l-1.06-.39s-4.77-5.44-5.81-8.24-2.45-6.54-1.64-8.41c.81-1.87-1-3.35-1.61-4.12-.6-.77.62-1.54.62-1.54,0,0-.51,1.37.7,1.76,1.21.38,3.74,1.65,5.11,3.24,1.37,1.59,2.31,3.41,4.07,4.18,1.76.77,2.36.49,4.01,1.76,1.65,1.26,11.04,14.84,11.98,15.5.94.66,5.01,4.43,6.33,3.94,1.32-.49,2.6-2.2,2.6-2.2l5.47,11.51Z"/>
    <path class="st2" d="M72.39,92.65s2.75-1.1,4.62-1.1,1.7-.22,3.16-.93c1.46-.72,6.24-2.75,7.99-3.08,1.76-.33,4.67-.44,5.94-.71,1.26-.27,3.07-2.8,4.94-2.8s5,2.58,5.77,4.07c.77,1.48,1.26,5.6,1.26,5.6l-13.02,5.71-10.11-1.26-6.1-.82-4.45-4.67Z"/>
    <path class="st3" d="M70.46,99.9s1.48.28,3.13,1.04c1.65.77,1.87,1.48,4.01,1.43,2.14-.06,2.56-.44,2.56-.44,0,0,1.24.99,4.26.82,3.02-.16,6.59-2.11,6.59-2.11l3.08-2.95s-2.64-.11-4.56,0c-1.92.11-2.53.67-4.4-.05-1.87-.72-2.25-1.16-4.23-.99-1.98.17-1.98.37-2.75-.03-.77-.4-1.59-1.01-1.59-1.01l-6.1,4.29Z"/>
    <path class="st3" d="M62.66,100.29c.22,0,1.37-.22,2.64,0,1.26.22,3.41.73,5.39-.05,1.98-.78,4.34-3.58,5.17-3.85.82-.27,2.91-1.81,3.02-2.47s0-1.1,0-1.1c0,0-.61,1.65-1.15,1.37-.55-.28-.39-1.92-2.75-1.92s-2.86.38-3.57-.28c-.71-.66-4.01-3.33-5.77-3.45-1.76-.12-3.02.65-3.02.65,0,0-.55,1.26-.77,2.09-.22.83-.82,1.19-.6,3.32.22,2.12,1.1,4.05,1.21,4.49.11.44.22,1.21.22,1.21"/>
    <path class="st6" d="M84.69,106.66s5.55-.71,9.12-1.37c3.57-.66,10.11-4.94,11.26-6.54,1.15-1.59.99-3.79.99-3.79l-8.85,3.35-4.72,2.48-8.46,5.37.66.49Z"/>
    <path class="st2" d="M91.56,103.15c.1-.15.55-1.48,2.25-2.33,1.7-.85,4.67-1.95,6.98-2.56,2.31-.6,6-3.24,7.92-5.06,1.92-1.81,7.2-11.76,9.83-12.75,2.64-.99,3.98-.99,4.02-2.31.04-1.32-1.99-1.65-1.99-1.65l-3.66-.22-12.88,16.04s-3.95,3.75-9.94,5.29c-5.99,1.54-.19.05-.19.05,0,0-5.14,3.51-5.75,4.25-.6.74-3.02,2.78-3.41,3.16-.38.38-.71,1.1-.71,1.1,0,0,6.86-1.99,7.53-3.02"/>
    <path class="st4" d="M122.44,64.35s.47,5.06-.7,7.36c-1.17,2.31-2.84,5.22-2,5.61.83.38,1.63-.59,1.63-.59,0,0-.28,1.41-1.85,1.66-1.58.25-1.81-.08-2.6-1.07s0-12.73,0-12.73c0,0-1.73-8.43-2.66-9.14-.93-.71-.38-.6-.38-.6,0,0,1.56-2.99,2.59-3.78,0,0-1.77,1.2,3.01,6.31,0,0,2.31,3.9,2.97,6.98"/>
    <path class="st3" d="M122.17,72.91s-.06,4.9-2.09,4.74c-2.03-.17.91-5.03,1.88-6.44l.21,1.71Z"/>
    <path class="st2" d="M51.89,86.17s4.29,4.62,5.88,5.06c1.59.44,3.08-.77,4.83-2.03,0,0,3.07-1.47,5.79.55,0,0,3.71.77,6.63.44,2.91-.33,3.27-1.11,5.5-.91,2.22.2,4.12-1.24,5.08-1.67.96-.44,2.55-2.25,2.55-2.25l-5.88-2.69-8.35-5.66-11.15,5.3-10.88,3.87Z"/>
    <path class="st1" d="M73.48,77.92s-.39,2.25-.71,3.3c-.33,1.04.99,5.55.99,5.55,0,0,1.48-.82,3.13-1.43,1.65-.6,2.42-1.15,3.85-1.32,1.43-.16,2.64-.33,3.3-.88,0,0,1.26.27,6.15-.85,4.89-1.13,10.28-3.94,11.59-3.82,1.32.11,1.04.33,1.04.33,0,0,.05-.55-2.47-1.43-2.53-.88-4.12-3.19-6.76-3.52-2.64-.33-3.19-.22-6.7.28-3.52.49-4.45,1.1-6.98.82-2.53-.27-8.57.22-11.65,1.32-3.08,1.1-3.23,1.53-5.65,2.3-2.42.77-6.88,2.98-8.42,3.72-1.54.74-4.29,1.86-4.29,1.86,0,0,1.15,2.65,3.27,2.41,2.12-.24,1.73-1.72,3.93-1.22,2.2.5,3.52.93,5.11.6,1.59-.33.99-.83,2.42-.6,1.43.22,5.44,2.09,5.82.66.39-1.43-.88-2.09,0-3.19.88-1.1,3.02-4.89,3.02-4.89"/>
    <path class="st4" d="M106.56,84.15s-1.04.42-4.01.64c-2.97.22-3.78-.8-5.17,0-1.38.8-1.99,1.96-4.34,2.19-2.35.23-4.89-1.65-4.89-1.65,0,0-1.21.42-2.56.24-1.35-.18-2.68-1.91-2.68-1.91l1.11-.52s9.48-1.75,12.51-2.92c0,0,3.65-2.19,5.57-1.83,1.92.36,2.03,3.38,2.97,3.9.93.52,1.48,1.86,1.48,1.86"/>
    <path class="st2" d="M40.02,81.55s-.06.71,1.81.74c1.87.03,3.46-.88,4.89-.37,1.43.51,3.45,2.54,3.76,3.42.31.88,3.75,3.19,3.75,3.19,0,0-2.07-4.67-3.99-6.24-1.92-1.57-4.29-1.18-5.66-1.02-1.37.17-3.68.93-4.56.28"/>
    <path class="st3" d="M47.41,93.2s1.9-1.48,4.2-1.1c2.31.38,2.39,1.32,4.08,1.81,1.69.49,2.26.66,3.24,1.7.98,1.04,1.75,1.59,1.75,1.59,0,0-.82-2.14-2.42-3.19-1.59-1.04-.77-.06-3.24-1.37-2.47-1.32-7.2-1.26-7.61.55"/>
    <path class="st2" d="M47.41,55.29s2.21,1.15,3.46,2.47c1.24,1.32,2.56,4.07,2.56,4.07,0,0,.6,3.85-.55,5.71-1.15,1.87-1.59,1.79-.99,3.67.6,1.88.44,3.81,1.04,6.17.6,2.36,1.02,2.48.49,2.85-.53.36-1.21,2.26-2.89,1.44-1.67-.82-4.69.06-5.68-.71-.99-.77-3.08-8.52-2.91-10.66.17-2.14.66-7.36,1.7-8.79,1.04-1.43,3.06-2.64,3.48-3.63.42-.99-1.61-2.47.28-2.58"/>
    <path class="st1" d="M43.04,79.19s-2.54-2.97-2.14-6.76c.4-3.79,1.54-8.17,1.87-9.52.33-1.36,3.55-4.49,4.36-5.04,0,0-.18.77-1.06,1.76-.88.99-2.69,3.08-2.86,4.73s-.71,8.24.55,11.51c1.26,3.27,1.59,4.7,2.69,4.7s2.42-.85,3.13-.34c.71.51,1.87,1.33,2.31.34.44-.99,1.95-2.21,3.81-2.09,1.85.11,5.79.67,5.79.67l-4.1,1.69s-1.47-.37-2-.84c-.53-.47-1.11.3-1.34.96-.23.66-1.61,1.73-2.87,1.73s-3.08-1.78-3.76-1.27-3.21.91-4.37-2.22"/>
    <path class="st6" d="M49.14,76.5s-.82-1.76-.82-3.19-.1-2.53-.52-3.68c-.42-1.15-.68-1.37-.68-1.37,0,0,.92.25,1.47,2.95.55,2.71,0,3.2.82,4.25.82,1.04.17,2.41,1.45,2.2,1.28-.21,1.58-.94,1.58-.94,0,0-.83,2.39-2.04,1.63-1.21-.76-1.26-1.85-1.26-1.85"/>
    <path class="st4" d="M46.23,56.93s-.33-2.09-1.1-1.65c-.77.44-1.87.93-2.64,1.04-.77.11-.94.61-.94.61l1.21,2.31,3.46-2.31Z"/>
    <path class="st6" d="M41.56,56.93s.97,4.57,1.65,5.07c0,0,3.95-3.38,3.92-4.14-.03-.76-.54-2.06-.54-2.06,0,0-1.27,1.41-2.01,2.06s-3.02-.93-3.02-.93"/>
    <path class="st6" d="M41.28,48.8s2.64,2.93,3.9,4.11c1.26,1.17,3.96-1.47,3.96-1.47,0,0-1.64,2.96-4.14,2.3-2.51-.65-1.46-1.77-2.56-2.61-1.1-.84-1.15-2.33-1.15-2.33"/>
    <path class="st6" d="M48.31,55.8v-2.55s-.44.22,1.1-1.26c1.54-1.48.9-1.65,3.03-2.14,2.13-.49,6.09-2.53,7.24-3.85,1.15-1.32.88-3.41.88-3.41,0,0,.62.38.92,2.64.29,2.25-.37,3.35-1.19,4.84-.82,1.48-2.47,2.47-2.03,4.07.44,1.59,1.26,3.02,1.32,4.23.06,1.21-2.35,3.65-2.35,3.65l-3.81-.18s-3.08-4.51-5.11-6.02"/>
    <path class="st1" d="M82.38,74.94s6.97-3.72,8.5-5.15c1.54-1.43,1.93-1.65,3.86-1.54,1.93.11,1.73,1.13,3.6.64,1.87-.49,5.99-3.51,6.21-4.29.22-.78,2.26-4.17,3.12-5.36.85-1.19.82-3.96,3.79-4.4,2.97-.44,7.7,1,7.55,3.02-.14,2.02-.29,2.64-.29,2.64,0,0,.27-2.4-1.76-1.59-2.04.82-9.86,5.19-11.54,6.61-1.68,1.42-1.21,3.33-3.74,4.43-2.53,1.1-4.07.58-7.36,1.25-3.3.67-4.89.67-6.15,1.22-1.26.55-5.78,2.51-5.78,2.51"/>
    <path class="st3" d="M63.37,70.56s-2.2-2.25-2.69-4.01c-.49-1.76-2.13-4.51-3.29-6.04-1.16-1.54-1.72-3.02-2.48-3.02s-4,8.78-2.71,11.09c1.29,2.32,2.33,5.37,4.2,5.61,1.87.24,6.98-3.63,6.98-3.63"/>
    <path class="st1" d="M64.86,69.3s3.02-2.14,5.93-2.31c2.91-.17,1.67.99,5.59,0,3.92-.99,4.58-1.04,8.09-.82,3.52.22,4.51.33,7.2,1.04,2.69.71,3.7,1.04,3.38,1.04s-2.61.96-5.83,2.02c-3.22,1.06-3.29,1.55-6.85,1.94-3.56.38-4.47.57-6.82,1.17-2.35.59-1.36-.4-4.22.37-2.86.77-3.19,1.06-6.48,1.19-3.3.13-8.46-.75-8.46-.75,0,0,5.4-2.36,8.46-4.89"/>
    <path class="st2" d="M60.68,78.35l-4.29-4.16s2.8.15,5.38.24c2.58.09,4.51.2,7.03-.24,2.53-.44,3.63-.77,5.55-1.04,1.92-.28,5.82-.93,8.79-1.48,2.97-.55,5.55-1.48,6.87-2.03,1.32-.55,2.16-.73,2.16-.73,0,0-6.63,5.48-9.81,6.04-3.18.57-9.06-.02-12.33,1.12-3.29,1.15-8.54,2.91-8.54,2.91l-.83-.62Z"/>
    <path class="st4" d="M60.08,56.61s2.09-8.63,2.92-7.81c.82.82,1.1,4.99,2.63,7s1.48,4.05,2.31,6.63c.82,2.58.89,4.93.89,4.93,0,0-5.27,2.51-5.49,3.23,0,0-3.18-2.5-4.65-8.16,0,0-2.57-2.19,1.39-5.82"/>
    <path class="st2" d="M90.63,48.8s-3.3-4.23-3.85-5.06c-.55-.82-4.91,1.52-5.28,3.02-.36,1.5-.33,3.74,0,5.22.33,1.48.19,1.47-.26,4.39-.46,2.92-.35,4.52-.24,6.06.11,1.54,1.36,3.63,1.36,3.63,0,0,4.4.28,6.85.85l1.4-18.11Z"/>
    <path class="st1" d="M79.86,59.65s-4.18-4.53-6.15-4.37c-1.98.16-8.37-1.51-8.9-2.38-.53-.87-.7-1.57-.7-1.57,0,0,.54,4.99,2.19,6.53,1.65,1.54,1.81,1.1,6.1,1.79s7.47,0,7.47,0"/>
    <path class="st3" d="M83.27,66.07s-1.71-6.17-3.41-6.42c0,0-4.84.35-6.16.17,0,0,1.44,3.04,2.95,4.2,1.51,1.16,2.36,2.35,2.36,2.35,0,0,3.04-.3,4.26-.3"/>
    <path class="st3" d="M85.13,66.22s-1.98-6.54-1.76-8.35c.22-1.81,2.75-5.82,4.07-7.2,1.32-1.38,3.9-3.02,5.82-4.34,1.92-1.32,3.96-1.43,3.96-1.43l-1.15-.82.66-.59s2.36.32,3.13,1.75c.77,1.43-.55,1.43,1.32,2.64,1.87,1.21,2.8,2.05,3.46,3.47.66,1.42,2.04,2.63,2.73,3.95.68,1.32.3,3.96.3,3.96l-22.53,6.98Z"/>
    <path class="st4" d="M88.87,50.66s3.8,1.48,6.24,1.9c2.44.42,2.39-.66,4.86.35,2.47,1.01,4.96,2.11,6.37,3.7,1.41,1.59,1.76,3.02,1.43,4.17-.33,1.15-3.29,4.02-3.29,4.02,0,0-4.4,5.47-8.03,4.09-3.63-1.38-4.61-1.07-5.38-1.84-.77-.78-2.53-7.92-2.64-9.57-.11-1.65.44-6.82.44-6.82"/>
    <path class="st3" d="M69.25,26.16s3.85,4.51,7.39,5.22c3.54.71,5.52,1.98,6.95,2.64,1.43.66,4.23,0,4.23,0,0,0-3.38.22-4.91-.77-1.52-.99-5.14-1.81-6.27-2.36-1.13-.55-7.39-4.72-7.39-4.72"/>
    <path class="st2" d="M16.43,76.85s.3,1.62,1.02,1.89c.72.27,1.13-.3,2.03-.24.9.06,1.79-.36,2.92-.67,1.13-.3,3.07-.05,4.48-.18,1.41-.13,4.11-1.65,4.11-1.65,0,0-2.68,1.27-4.57.99-1.9-.28-4.28.44-5.1.62-.81.18-4.25,2.12-4.9-.76"/>
    <path class="st2" d="M16.62,84.87s4.9-1.48,5.57-2.07c.68-.59.29-.77,1.21-1.4.92-.62,1.94-1.27,2.84-1.61.9-.33,1.54-.27,2.3-1.29.76-1.02,1.01-1.76,1.01-1.76,0,0-.91,1.96-2.22,2.07-1.31.11-3.44,1.44-4.25,1.99-.81.55-1.16,1.59-2.65,2.26-1.49.68-6.73,2.71-7.06,3.81l3.24-2.01Z"/>
    <path class="st2" d="M19.48,76.99s2.03-2.01,3.52-2.12c1.49-.11,3.44,1.56,4.67,1.4,1.23-.15,1.88-.41,1.88-.41,0,0-.01.78-2.9.88-2.89.1-2.62-.37-4.15,0-1.53.37-4.9,1.73-3.02.25"/>
    <path class="st2" d="M25.03,99.2s2.16-.45,3-.9,1.05-1,2.97-1.42c1.92-.42,3.12-1.26,3.12-1.26,0,0-3.58,1.01-4.54,1.3-.97.29-1.42.97-2.13,1.19-.71.22-2.42,1.09-2.42,1.09"/>
    <path class="st6" d="M46.59,55.8s.83-.89,2.55.53c0,0-1.93-.99-2.11.9-.18,1.88-.44-1.43-.44-1.43"/>
    <path class="st2" d="M88.87,50.66s-1.21,4.51-1.05,6.98c.16,2.47,1.02,3.09-.01,4.79-1.03,1.7-2.68,3.79-2.68,3.79,0,0,5.44,3.38,12.01,2.86,0,0-6.12-2.26-6.16-4.48-.03-2.22-1.81-4.4-2.34-5.67-.51-1.21.22-8.26.22-8.26"/>
    <path class="st1" d="M27.67,60.51s-1.42.09-.79,2.4.56,4.27.79,7.05c.23,2.78,3.42,8.37,5.33,10.99,1.91,2.62,2.81,3.4,3.7,5.82.89,2.43,4.95,10.85,8.51,13.69,0,0-7.18-14.02-7.62-15.64-.44-1.62.12-2.28.12-2.28,0,0-5.33-3.48-7.83-10.11-2.49-6.63-.15-6.9-1.01-8.82-.59-1.31-1.2-3.11-1.2-3.11"/>
    <path class="st3" d="M34.11,76.28s3.42,4.34,4.36,4.67c.94.33-4.36-4.67-4.36-4.67"/>
    <path class="st3" d="M48.26,96.55s-1.86-5-1.67-7.28c.19-2.28,1.32-3.82.54-5.25-.79-1.43-1.91-1.73-1.91-1.73,0,0,.79.8,1.37,2.53.58,1.72-.69,3.38-.36,5.91.33,2.53,2.03,5.82,2.03,5.82"/>
    <path class="st3" d="M51.17,99.2s2.69-1.71,5.22-2.65c2.54-.93,4.29,1.32,4.29,1.32,0,0-2.15-2.95-9.51,1.32"/>
    <path class="st2" d="M62.66,100.29s-3.13-5.82-2.69-7.09c.44-1.26,2.64-4.01,2.64-4.01,0,0-1.12,3.2.06,11.1"/>
    <path class="st4" d="M78.87,92.82s1.26,1.7-2.25,3.54-4.86,3.28-5.63,3.75c-.78.47-2.14.53-2.14.53,0,0,2.25-1.17,3.76-2.33s3.32-2.2,4.4-2.88c1.07-.69,2.26-1.23,1.87-2.61"/>
    <path class="st2" d="M63.35,94.48s-.13-3.38,3-2.74l3.13.65s-8.33-6.25-6.14,2.09"/>
    <path class="st2" d="M65.63,96.73s1.31,2.62,4.39,1.04c3.09-1.59,5.54-2.8,5.54-2.8,0,0-5.91,2.3-6.98,2.25-1.07-.05-2.95-.49-2.95-.49"/>
    <path class="st7" d="M77,91.55s1.97-.48,7.03.75c5.07,1.23,8.44-.93,11.53-1.08,3.1-.15,4.41-1.95,4.41-1.95,0,0-2.54,1.25-5.89.86-3.34-.39-2.92,1.1-5.94,1.18-3.01.08-7.99-.7-7.99-.7,0,0-4.21-.89-3.16.93"/>
    <path class="st7" d="M77.72,100.29s2.9.82,6.31,0c3.42-.82,6.59-1.18,6.59-1.18,0,0-7.79,3.16-12.91,1.18"/>
    <path class="st7" d="M90.63,103.8s2.73,1.6,7.52-1.86l4.79-3.46s-7.99,9.33-12.32,5.32"/>
    <path class="st7" d="M84.03,106.17s5.64-1.08,7.4-2.6c1.76-1.52,1.43-2.26,2.86-2.62,1.43-.37,10.62-2.81,11.78-5.58,0,0-9.24,3.74-11.02,4.35-1.78.61-3.33,1.84-3.74,2.58-.41.74-3.32,2.24-4.17,2.51-.86.27-3.1,1.37-3.1,1.37"/>
    <path class="st7" d="M93.87,97.7s-3.84,3.91-6.29,4.49c-2.45.58-2.5.58-2.5.58,0,0,1.57-1.19,3.89-2.18,2.32-.99,4.9-2.88,4.9-2.88"/>
    <path class="st4" d="M106.56,84.15s3.44-.25,4.45-.79c0,0-5.15,2.73-7.72,1.37-2.56-1.37,3.26-.58,3.26-.58"/>
    <path class="st3" d="M93.87,97.7s1.06-2.13,4.28-2.74c3.22-.61,13.94-12.67,13.94-12.67,0,0-8.9,12.67-12.11,12.91-2.5.19-6.11,2.5-6.11,2.5"/>
    <path class="st2" d="M51.17,27.98s.35,1.91-1.38,4.72c-1.73,2.81-3.24,3.34-3.56,4.56-.32,1.22,0,4.68,0,4.68,0,0-2.87-4.62-1.02-6.1,1.85-1.48,3.64-1.23,5.96-7.87"/>
    <path class="st1" d="M73.7,19.9s1.53,8.41,6.16,9.46c4.62,1.05,5.67,1.25,8.56,2.29,2.89,1.05,5.9,3.86,8.73,6.67,2.83,2.8,5.5,5.17,5.5,5.17,0,0-8.99-7.58-11.91-8.52-2.92-.94-4.28-2.56-7.82-3.31-3.55-.75-11.93-6.11-9.22-11.76"/>
    <path class="st4" d="M66.23,71.21c-2.77-1.63,5.71,0,5.71,0,0,0-5.01.42-5.71,0"/>
    <path class="st4" d="M75.04,70.94s2.33-.52,4.82-.66c2.48-.14,5.91-1.14,5.91-1.14,0,0-5.45.32-6.68.83-1.23.5-4.09-.03-4.05.98"/>
    <path class="st3" d="M70.98,52.3s2.08-.02,1.47-.98c-.61-.96-1.18-.69-1.47-1.46s.51-1.76,1.39-1.69c.88.08,1.32.35,1.32.35,0,0-1.08-1.04-1.76-.96-.68.08-2.18.63-2.14,1.62.04.99.5,1.17-.19,1.48-.69.31,0,1.94,1.36,1.64"/>
    <path class="st3" d="M69.01,49.95s-1.15,1.61-.69,2.39c.46.78,1.03,1.39,1.03,1.39,0,0-4.82-3.37-.34-3.78"/>
    <path class="st1" d="M72.88,44.8s-1.49-.11-2.76.38c-1.26.5-2.51.82-2.51.82,0,0,3.32-3.34,4.99-3.02,1.66.32,2.27.97,2.27.97l-1.99.84Z"/>
    <path class="st4" d="M74.36,45.8s1.01.46,1.39,1.49c.38,1.03.99,2.18,1.97,2.95.98.77,2.14,1.26,2.14,1.26,0,0-1.98-1.59-2.53-2.33-.55-.74-1.11-1.39-1.58-2.42-.46-1.04-1.39-.96-1.39-.96"/>
    <path class="st4" d="M67.1,56.38s-.1,1.23,1.72,1.43c1.83.21,2.85-.13,4.25.06,1.4.19,3.36,1.04,3.36,1.04,0,0-1.96-.58-4.06-.62-2.11-.04-6.41.47-5.27-1.91"/>
    <path class="st2" d="M68.83,36.18s.71.15,1.56,1.3c.84,1.15,1.49.5,2.18,1.8.69,1.3,2.91,2.36,3.87,3.31s1.88,1.9,1.88,1.9c0,0-2.15-2.83-2.99-3.4-.84-.57-1.85-1.01-2.25-1.64-.39-.62-.21-1.01-.86-1.51-.65-.5-.71-.13-1.24-.68-.52-.55-2.16-1.08-2.16-1.08"/>
    <path class="st4" d="M114.92,32.7s-1.5,4.75,3.21,6.71c4.7,1.97,9.27,6.12,9.27,6.12l-2.55.93s1.06-1.98-4.76-4.52c-5.82-2.54-7.8-5.84-5.17-9.24"/>
    <path class="st4" d="M110.92,30.24c-1.28-.28-8.18-1.53-10.22-2.89-2.04-1.35-2.54.74-2.54.74l.94.53s.96-.52,3.56.73c2.6,1.26,8.27.88,8.27.88"/>
    <path class="st6" d="M61.1,49.95s3.01-1.11,3.92-1.73c.91-.62,3.34-2.67,4.08-3.2.73-.53,3.5-2.06,3.98-2.06.48,0-.14-.71-2.25,0-2.11.71-4.96,3.47-5.4,3.79-.44.32-4.33,3.2-4.33,3.2"/>
  </g>
</svg>