<?xml version="1.0" encoding="UTF-8"?>
<svg id="Vrstva_1" xmlns="http://www.w3.org/2000/svg" version="1.1" viewBox="0 0 283.46 283.46">
  <!-- Generator: Adobe Illustrator 30.1.0, SVG Export Plug-In . SVG Version: 2.1.1 Build 136)  -->
  <defs>
    <style>
      .st0 {
        fill: #a99588;
      }

      .st1 {
        fill: #695c60;
      }

      .st2 {
        fill: #b2868b;
      }

      .st3 {
        fill: #baa99c;
      }

      .st4 {
        fill: #4c4346;
      }

      .st5 {
        fill: #836193;
      }

      .st6 {
        fill: #080706;
      }

      .st7 {
        fill: #694932;
      }

      .st8 {
        fill: #dbd1ca;
      }

      .st9, .st10 {
        fill: #efeae6;
      }

      .st11 {
        fill: #c9bfb8;
      }

      .st12 {
        fill: #744f86;
      }

      .st13 {
        fill: #352215;
      }

      .st14 {
        fill: #593c28;
      }

      .st10 {
        isolation: isolate;
        opacity: .63;
      }

      .st15 {
        fill: #968074;
      }

      .st16 {
        fill: #7f5b43;
      }
    </style>
  </defs>
  <rect class="st5" x="-4.84" y="-122.87" width="294.2" height="457.76"/>
  <path class="st12" d="M75.48,208.76s8.45,5.54,11.52,10.58c3.07,5.04,22.63,11.47,26.54,9.79s11.45-9.75,15.64-9.48c4.19.27,26.17-.13,30.12,3.7s22.11,17.8,26.58,15.84,2.67-18.58,7.48-19.49,28.88-1.96,30.53,1.64,5.84,9.19,11.15,10.58,20.3,3.73,27.61,7.45,12.34,3.44,19.04,9.03,9.22,9.22-2.51,13.41,30.02,56.92,20.87,61.67-40.58-4-61.12-4h-107.7c-27.85,0-72.05,2.79-75.51,0-3.47-2.79-16.79-71.64-15.66-77.23s-6.69-24.86,2.81-25.98,32.61-7.53,32.61-7.53v.02h0Z"/>
  <path class="st12" d="M21.36,214.89c6.71-2.4,27.2,7.51,23.94,11.16s-5.22,19.62-5.24,16.22-26.52-24.58-18.7-27.37h0Z"/>
  <path class="st8" d="M18.46,134.18s0,11.29,1.11,19.06,2.78,24.8.93,31.65-6.48,19.99-8.33,25.73-2.78,7.96-1.11,7.96,12.59-11.84,14.62-17.4,10.55-20.91,10.55-20.91c0,0,16.84,33.13,22.39,34.05s9.62-.93,9.62-.93c0,0,3.89,1.11,3.89-.19v-1.3s4.26,2.22,3.89-.56-1.48-7.22-6.48-9.44-6.29-2.22-6.29-2.22c0,0,.37-3.89-2.59-5.74,0,0,1.85-4.63,0-5.92,0,0,.93-2.04-.56-4.63,0,0,12.59-2.59,12.96-7.03,0,0,14.25,4.81,24.61,7.4s32.94,3.89,39.24,5.55c6.29,1.67,20.17,11.1,28.5,12.4s11.29.56,11.29.56c0,0,7.96,2.22,11.29,1.67,3.33-.56,4.07-1.3,4.07-1.3,0,0-2.78,8.33-1.67,10.36s2.04,8.7,7.22,9.44,12.96,0,12.96,0c0,0,6.11,1.77,7.96.33,0,0,4.44.78,5.37-1.44s-5.18-9.25-7.77-11.29-6.11-.93-6.11-.93c0,0,2.41-1.11-.19-3.15,0,0,1.85-.74,2.78-3.7s.19-7.03.19-7.03c0,0-20.91-9.44-27.76-12.03-6.85-2.59-114.56-39.61-115.12-39.61s-51.45-9.44-51.45-9.44v.03h0Z"/>
  <path class="st9" d="M26.05,162.13s0,7.22,1.85,9.44,2.41,4.04,0,7.2-5.92,8.71-1.85,14.27c4.07,5.55,7.59,6.85,7.59,6.85,0,0,.19,4.63,3.33,6.48,0,0-2.22,7.59,1.67,10.55,0,0,1.48,5,5.55,5.55s4.63-1.48,4.63-1.48c0,0,3.15,2.23,6.11,1.58s2.96-2.13,2.96-2.13c0,0,2.04,1.48,3.52.19s-2.04-11.66-5-12.59l-2.96-.93s-.37-5-2.41-7.4c0,0,1.67-4.78.37-7.3l-1.3-2.51s.93-7.03,6.29-12.4,7.03-16.66,13.14-14.62,1.48,6.48,23.32,13.33,36.09,5.18,40.9,7.77,1.67,6.66,2.22,9.25,1.67,3.89,1.67,3.89c0,0-2.41,2.78-1.85,4.26l.56,1.48s-1.85,3.7-4.63,5.92-.19,4.81-2.22,6.29-4.07,6.04-2.04,8.3c2.03,2.26,7.96,0,7.96,0,0,0,2.41,2.25,6.85,2.62s5.55-1.48,5.55-1.48c0,0,2.96,1.67,5.18,0,0,0,5.55,1.6,6.29-1.14s-2.22-10.33-3.7-10.89l-1.48-.56s1.11.56.19-2.04c0,0,5-2.04,6.11-4.44s.56-12.21,4.63-14.44c4.07-2.22,11.47-.56,21.47,2.22,9.99,2.78,14.48,7.46,26.49,3.73,12.01-3.73,22.74-21.13,22.74-25.57s1.48-6.48,3.33-9.25,1.11-10.92,1.11-10.92c0,0,1.48,2.78,4.81,0s4.44-7.96,5.37-9.07,8.51-12.77,8.51-12.77c0,0,2.41-25.54.74-28.87s-5.55-9.07-6.48-11.66-12.77-22.02-12.77-22.02c0,0-9.44-2.22-14.81,0s-8.88,5-10.73,7.59-19.62,19.25-19.62,19.25h-5.37c-2.96,0-6.66,5.37-6.66,5.37,0,0-3.15-.56-6.66,0s-5,4.07-5,4.07c0,0-3.15,1.67-9.25.74s-18.69-4.44-37.76-7.96-47.93-3.15-66.44-.37-37.94,17.58-39.61,38.68c0,0-.19,9.44,2.59,14.62s4.07,8.14,4.07,9.62.93,3.7.93,3.7h0Z"/>
  <path class="st16" d="M241.32,73.82s3.01,7.95,5.24,10.49,5.08,5.24,5.72,6.51,3.76,3.46,3.76,3.46c0,0,2.12-4.73,2.12-9.18s.64-6.67-4.13-8.9c0,0,.64-1.91-3.02-4.29s-8.43-4.68-10.64-5.11-4.14,1.13-3.02,2.09,2.91,2.28,3.98,4.93h0Z"/>
  <path class="st16" d="M25.13,138.44s2.04-9.25,5.55-10.55,9.81.93,13.14,0,6.66-2.96,4.63-5-3.52-3.52-7.59-5.37c-4.07-1.85-7.96-2.41-5.55-5.74s2.32-8.31.99-7.32-10.61,4.28-16.44,22.23c0,0,1.76-1.4,3.24.63,1.48,2.03-1.04,13.56,2.04,11.1v.02h-.01Z"/>
  <path class="st8" d="M28.83,186.74s.19,2.41,3.52,3.52,8.7.93,12.4,1.11,4.32,1.11,4.32,1.11c0,0-.62-3.33-5.06-2.87s-11.35.21-15.18-2.87h0Z"/>
  <path class="st8" d="M31.05,196.18s3.77,2.04,7.9,1.48,10.12.1,10.12.1c0,0-6.85.46-9.01,1.01s-7.36.45-9.01-2.59h0Z"/>
  <path class="st8" d="M38.95,213.02s1.91-3.15,4.69-4.44c2.78-1.3,8.01-1.59,8.01-1.59,0,0-6.9-1.38-9.3.85s-3.39,5.18-3.39,5.18h-.01Z"/>
  <path class="st8" d="M136.36,213.02s3.52-.56,8.14,0,8.14-.25,8.14-.25c0,0-7.96-1.6-11.29-1.42s-5,1.67-5,1.67h0Z"/>
  <path class="st8" d="M138.21,204.32s-.93.06,6.29,2.25,8.88,2.19,8.88,2.19c0,0-12.82-.2-15.18-4.44h0Z"/>
  <path class="st8" d="M139.33,199.03s.36,1.59,5.17,2.33,5.74-.93,8.88.93,4.26,2.04,4.26,2.04c0,0-3.89-2.22-6.66-1.67s-11.44.15-11.64-3.62h0Z"/>
  <path class="st16" d="M98.6,127.15s-5.18,6.48-8.7,6.11-4.44-9.62-7.4-8.33-3.33,3.15-3.33,3.15c0,0-1.48-3.7-4.44-1.48s.37,9.2-.74,12.19-3.52,2.81,1.11,8.17,9.44,11.66,22.76,14.44c13.33,2.78,16.07.49,15.72-2.9s3.9-5.24,2.61-9.32-6.85-6.17-7.22-10.39,3.7-10.33,6.48-11.63,6.48-1.48,6.66,2.96c.18,4.44,1.11,12.03,3.89,18.32,2.78,6.29,4.48,10.59,3.35,15.47-1.13,4.88,5.55,22.24,12.2,27.26s17.57,1.68,20.35-2.57,4.18-4.26,3.85-12.12-6.25-9.9-4.4-13.42,1.3-8.14.56-12.03,2.78-15.18,2.59-22.21.56-11.29,2.96-15.92,4.07-9.81,4.07-9.81c0,0-4.5,1.43-7.99.9,0,0-1.08,2.62-5.15,6.87-4.07,4.26-5.74,7.03-5.74,7.03,0,0,7.03-9.81,6.48-11.47s-4.66-1.3-9.27-1.3-8.5,1.67-8.5,1.67c0,0-1.67-1.57-6.85-2.45s-5.18.78-9.62-1.25-8.14,0-10.55,0-1.67-2.18-5.74-.9-10.18-1.15-12.77-.4-2.78,3.53-5.74,6.86-7.4,3.7-4.81,6.66c2.59,2.96,6.29,1.48,8.14,5s-7.96,10.55,5.18,6.85h0Z"/>
  <path class="st7" d="M150.61,121.56s-2.41,4.85-6.11,12.62c-3.7,7.77-.16,7.34-5.17,13.48s-6.86,14.98-7.6,20.39,3.52,8.33,3.52,8.33c0,0-5.3,1.06-4.69-12.05.62-13.12,7.68-16.63,8.77-20.7s6.65-18.95,11.27-22.06h0Z"/>
  <path class="st7" d="M146.54,113.27s-7.03,8.88-9.25,17.21-3.33,15.45-3.33,15.45c0,0-.93-11.38,2.41-18.59s10.18-14.07,10.18-14.07h0Z"/>
  <path class="st7" d="M247.83,143.74s.32,10.01,3.5,19.7,6.04,20.18,15.57,21.77,9.85-2.38,9.22-4.77-7.95-13.51-9.38-21.77c-1.43-8.26-2.38-19.23-1.59-25.58.79-6.36,0-21.61-2.07-24.79s-3.97-1.43-3.97-1.43l-11.28,36.87h0Z"/>
  <path class="st0" d="M240.04,148.98s2.07.56,3.02-3.05,3.34-8.86,4.77-10.29,0-4.13,0-4.13c0,0-1.78,3.5-4.24,3.65,0,0,.74,4-.53,5.1s-1.75.46-1.75,1.89.48,6.98-1.27,6.83Z"/>
  <path class="st7" d="M214.83,74.4s-5.93,3.56-7.36,4.99-4.61,4.45-7.31,5.4-7.63,10.02-6.67,16.85,4.45,13.98,4.45,13.98h1.59s12.87-19.39,12.71-23.99,2.59-17.22,2.59-17.22h0Z"/>
  <path class="st8" d="M182.84,100.52s.32,1.43-.79,7.95c-1.11,6.51-.55,15.57.84,21.13l1.39,5.56s-3.81-6.2-4.45-15.25c-.64-9.06.95-12.39,1.43-14.78s1.59-4.61,1.59-4.61h0Z"/>
  <path class="st16" d="M208.26,82.56s-2.22,6.67-2.07,9.38-3.02,10.96-5.24,14.46-4.29,15.89-4.45,28.76,2.54,15.89,1.27,22.56c-1.27,6.67-3.61,23.45-6.97,27.85s10.31,10.21,15.55,8.1,10.96-14.19,13.67-25.31c2.7-11.12,1.75-17,1.75-17,0,0,5.56,4.93,10.96,4.45s8.74-9.53,8.58-13.67-.64-4.77-.64-4.77c0,0-4.77,2.07-6.2-2.22s-.16-11.12-1.59-15.1-5.24-8.11-4.13-13.67,2.07-4.29,4.29-7.47,1.43-6.99,1.43-6.99c0,0,2.86-4.45,2.07-6.51s-5.72-14.46-9.22-14.94-7.15,3.91-7.15,3.91c0,0-4.04-.8-5.35,0s-5.59,4.92-6.56,8.16v.02Z"/>
  <path class="st7" d="M210.33,84.79s-1.09,3.95,0,6.99,3.75,5.4,4.5,13.03,2.65,22.41,2.33,26.7c-.32,4.29,4.45,16.69,4.61,19.86,0,0,2.86-1.69,3.81-9.98s-.32-12.11-2.86-17.51-4.77-14.3-3.97-18.43-1.33-7.05-3.92-10.44-4.02-6.88-4.5-10.22h0Z"/>
  <path class="st7" d="M209.85,103.22s1.28,6.36-.63,12.39c-1.91,6.04-2.99,16.53,1.05,22.72,4.04,6.2,5.46,8.58,7.61,13.03s1.99,5.88,1.99,5.88c0,0,0-5.51-1.11-8.24s-8.26-11.07-9.53-19.41.95-10.42,2.22-16.33-1.6-10.04-1.6-10.04Z"/>
  <path class="st7" d="M221.61,101.63s-.79,8.9.79,12.55,4.61,7.47,5.56,13.35c.95,5.88.79,7.47,4.13,11.92s6.83,3.65,6.83,3.65c0,0-8.74-4.77-9.69-15.89,0,0,.32-3.97-2.38-8.26-2.7-4.29-3.97-6.67-3.97-9.69s-1.27-7.62-1.27-7.62h0Z"/>
  <path class="st7" d="M258.19,138.5s-3.05.95-4.48,6.04-1.11,13.51-1.11,13.51c0,0,.47-11.65,2.78-14.88s2.81-4.66,2.81-4.66h0Z"/>
  <path class="st7" d="M253.07,77.31s.58.84-.51,2.53-2.03,6.29-.81,8.35,2.8,3.63,4.13,3.19,1.69-6.1,1.69-8.35-.74-3.19-2.2-3.19-.8-3-2.3-2.53Z"/>
  <path class="st7" d="M232.62,93.54c.04-.29,1.22-1.88,1.13-3.85s-2.72-2.91-3.19-4.41-1.24-5.35-4.65-5.44-6.23,1.78-7.17,6.85-.09,7.6,1.69,9.1,2.73,1.41,3.57,2.35.65,1.95,2.81,2.38,5.35-3.6,5.82-6.98h-.01Z"/>
  <path class="st14" d="M220.98,91.46c.02-.26.09-6.17,2.44-8.24s5.16,1.03,6.01,2.63,2.81,3.35,3.1,4.35.02.21-.83.88-1.71,3.78-4.43,4.53-3.94-.29-4.69-1.32-1.73-.79-1.6-2.83Z"/>
  <path class="st14" d="M253.54,80.52s2.04-.47,3,2.02.22,7.56-1.5,7.66-3.2-4.29-3.38-5.84.04-3.17,1.88-3.84h0Z"/>
  <path class="st9" d="M231.12,89.2s0,1.44-.56,1.44-2.07,2.53-4.51,2.91-3.75-2.53-3.19-5.44,1.43-3.18,3.19-3.74,5.07,4.84,5.07,4.84h0Z"/>
  <path class="st9" d="M251.74,84.79s.31-3.35,2.56-3.44c2.25-.09,2.73,3.67,2.66,4.51s-1.33,3.71-2.58,3.35-2.12-3.3-2.12-3.3c0,0-.45-.68-.52-1.11h0Z"/>
  <path class="st13" d="M222.75,88.95s0,.27.39.57,1.18.61,2.76.68c3.15.15,3.09-3.92,3.09-3.92,0,0-1.29-2.6-2.95-1.92s-2.17.12-3.3,4.59h.01Z"/>
  <path class="st13" d="M251.67,84.36c.31,2.14,1.41,2.19,2.63,2.15,1.7-.07,2.17-2.58,2.07-3.57s-.57-2.5-2.82-2.42-1.88,3.84-1.88,3.84h0Z"/>
  <path class="st6" d="M224.24,87.22s2.37.72,3.31,0,0-2.43-1.19-2.43-1.84.34-2.12,2.43Z"/>
  <path class="st6" d="M252.57,83.13s.22.39,1.44.39c2.16,0,1.29-1.6.82-2.11s-2.26-.33-2.26,1.72h0Z"/>
  <path class="st0" d="M247.27,132.87s1.46,1.79,3.91,1.31,4.9-1.68,6.39-4.32,2.2-9.01-1.2-9.85-7.49,4.52-9.1,12.86h0Z"/>
  <path class="st15" d="M248.86,130.97s3.27-7.63,5.15-7.42,1.24,3.53.53,5.22-1.47,3.92.29,4.01c1.76.09,5.39-5.5,4.54-9.23s-2.93-4.66-4.98-4.01-5.81,8.48-6.07,9.3.54,2.14.54,2.14h0Z"/>
  <path class="st3" d="M255.38,121.97s1.91.66,1.59,2.53-3.85,8.93-2.13,9.67,3.78.47,5.75-3.95,3.29-11.15,3.38-15.21-2.22-10.43-3.28-12.48-1.75-4.9-3.54-7.11-8.38-9.39-12.13-8.93-7.32,3.65-7.04,10.12c.28,6.47-1.71,9.57-.95,11.64s2.26,2.63,1.42,5.25-1.03,2.81-.66,9.85,1.41,12.94,6.48,12.1,4.91-7.11,6.15-10.03,3.9-4.2,4.97-3.47v.02h0Z"/>
  <path class="st0" d="M243.41,106.4s.73-5.07,5.06-6.76,10.51-1.4,12.21,2.91,2.59,7.8.84,11.54-5.04,4.88-7.82,4.5-6.63-1.41-8.51-5.16c-1.88-3.75-2.34-5.08-1.78-7.04h0Z"/>
  <path class="st1" d="M249.98,114.47s-.73-.84-2.15-.94-3.39-5.72-2.36-7.98,8.18-4.03,11.49-3.92,4.88,1.87,5.51,4.76-.48,5.07-1.14,6.1-1.32,3.66-4.37,4.03-6.33.38-6.99-2.06h.01Z"/>
  <path class="st4" d="M247.27,111.03s.73,1.28,2.42.53,1.29-2.61,3.13-2.39,2.54,1.82,2,3.04-1.46,1.97-2.26,1.13-2.12-.66-2.78-.38-2.78-.97-2.52-1.94h0Z"/>
  <path class="st4" d="M258.82,111.03s-.69-1.28.68-1.87,2.26-.92,2.58.02l.32.94s-1.94-.61-1.87.42-1.39,2.67-1.7.5h0Z"/>
  <path class="st8" d="M170.37,129.6s2.15,18.36,8.34,27.65,12.87,12.39,12.87,12.39c0,0-12.63-12.16-15.02-20.02-2.38-7.86-2.62-24.79-6.2-20.02h.01Z"/>
  <path class="st8" d="M166.79,188s4.53-2.92,9.53-2.42,10.73-.06,10.73-.06c0,0-.93.72-7.38,1.24-6.45.52-10.02.05-12.88,1.24h0Z"/>
  <path class="st2" d="M222.85,90.68s1.32,1.98,3.2,1.74,3.25-2.28,3.85-2.21,1.17-.4,1.17-.4c0,0,1.57,1.19-.4,1.32,0,0-2.92,3.26-5.24,2.73s-2.47-2.28-2.57-3.17h0Z"/>
  <path class="st2" d="M252.57,86.76s1.53,1.59,2.44,1.54,1.5-1.08,1.5-1.08c0,0-.88,2.57-2.16,2.33s-1.78-2.8-1.78-2.8h0Z"/>
  <path class="st13" d="M222.73,87.54c.62-2.41,2.4-3.54,4.07-3.3s2.19,2.03,2.19,2.03c0,0-1.92-1.72-3.13-1.49s-2.67,2.27-3.01,4.44c0,0-.41-.54-.12-1.69h0Z"/>
  <path class="st14" d="M253.7,80.52s-.84.11-1.13.56-1.04,2.75-.25,5l-.27-.08s-.79-1.43-.31-4.06c0,0,.54-1.56,1.96-1.43h0Z"/>
  <path class="st10" d="M225.53,86.08s-1.93.04-1.43.64,2.35-.34,2.14-.56-.71-.09-.71-.09h0Z"/>
  <path class="st10" d="M253.39,82.06s-1.05.12-.93.47,1.59.04,1.46-.23-.53-.23-.53-.23h0Z"/>
  <path class="st11" d="M58.54,174.82s5.25-13.08,9.48-12.67c4.24.41,6.95,5.72,9.26,7.19s18.32,7.79,22.12,8.71c0,0-18.15-4.43-23.63-5.77s-7.44-.83-10.03-.31-7.21,2.84-7.21,2.84h0Z"/>
  <path class="st11" d="M45.3,223.06s-1.53-3.83,0-3.52,1.63,4.55.91,4.55-.91-1.03-.91-1.03Z"/>
  <path class="st11" d="M52.41,223.35s-1.24-4.99,0-3.83,1.24,3.82,0,3.83Z"/>
  <path class="st11" d="M55.82,223.35s-1.65-3.54-.72-3.83,2.47,4.52.72,3.83Z"/>
  <path class="st11" d="M60.37,221.47s-3.15-3.68-1.83-3.68,3.57,4.31,1.83,3.68Z"/>
  <path class="st11" d="M130.99,224.92s-1.34-3.02,0-3.11,1.34,4.6.52,4.22-.52-1.11-.52-1.11h0Z"/>
  <path class="st11" d="M142.46,226.67s-2.79-3.83-1.14-3.83,3.02,4.77,1.14,3.83Z"/>
  <path class="st11" d="M151.05,226.8s-2.08-3.54-1.19-3.95,3.47,4.8,1.19,3.95Z"/>
  <path class="st11" d="M157.64,226.05c-.57.12-3.8-3.41-2.87-3.72s4.4,3.4,2.87,3.72Z"/>
</svg>