<?xml version="1.0" encoding="UTF-8"?>
<svg id="Vrstva_1" xmlns="http://www.w3.org/2000/svg" version="1.1" viewBox="0 0 283.46 283.46">
  <!-- Generator: Adobe Illustrator 30.1.0, SVG Export Plug-In . SVG Version: 2.1.1 Build 136)  -->
  <defs>
    <style>
      .st0 {
        fill: #325f61;
      }

      .st1 {
        fill: #1f3549;
      }

      .st2 {
        fill: #4a6189;
      }

      .st3 {
        fill: #6b7fb0;
      }

      .st4 {
        fill: #13253b;
      }

      .st5 {
        fill: #010102;
      }

      .st6 {
        fill: #5d73a1;
      }

      .st7 {
        fill: #836193;
      }

      .st8 {
        fill: #c93647;
      }

      .st9 {
        fill: #09131e;
      }

      .st10 {
        fill: #285054;
      }

      .st11 {
        fill: #bc212d;
      }

      .st12 {
        fill: #8193bc;
      }
    </style>
  </defs>
  <rect class="st7" x="-4.84" y="-141.3" width="294.2" height="457.76"/>
  <path class="st11" d="M133.42,107.96s12.44-2.85,25.7,0c13.26,2.85,41.81,14.28,57.31,29.77,15.5,15.5,24.88,28.96,30.18,54.25,5.3,25.29,4.49,67.1-5.91,95.24l-89.74-.41-.81-24.47-32.22-74.45-22.43-39.16-7.75-18.97,22.23-14.07,23.46-7.75h0Z"/>
  <path class="st5" d="M172.82,283.88s2.3-5.38,3.51-10.3,4.28-9.97,6.47-9.1,1.21,8.11-.66,11.07-9.53,9.97-9.32,8.33h0Z"/>
  <path class="st5" d="M204.95,285.09s-2.19-9.53.11-9.32,1.21,7.89-.11,9.32Z"/>
  <path class="st5" d="M218.43,271.93s-1.43-16.23,1.43-16.01-1.43,16.01-1.43,16.01Z"/>
  <path class="st5" d="M232.24,274.57s-2.08-11.51.55-9.97-.55,9.97-.55,9.97Z"/>
  <path class="st5" d="M192.01,271.17s-1.32-13.59,1.32-16.88,4.61-3.18,5.7-.88-3.4,9.1-4.5,11.4-2.52,6.36-2.52,6.36h0Z"/>
  <path class="st5" d="M188.06,257.13s-1.54-8.88.66-12.72,3.62-9.64,5.38-9.42,2.3,6.47.66,9.32-5.05,6.69-5.59,8-1.1,4.83-1.1,4.83h0Z"/>
  <path class="st5" d="M169.64,249.79s3.62-5.92,4.61-9.32,2.96-4.28,3.29-4.28.88,6.36-.55,8.66-7.34,4.94-7.34,4.94h0Z"/>
  <path class="st5" d="M165.37,262.84s3.73-12.06,5.92-11.73,2.63,7.56-5.92,11.73Z"/>
  <path class="st5" d="M157.47,267.12s4.17-4.61,5.48-3.18-4.17,8.77-7.13,9.64,1.65-6.47,1.65-6.47h0Z"/>
  <path class="st5" d="M209.44,256.15s.33-18.97,3.18-18.64c2.85.33.33,14.36-3.18,18.64h0Z"/>
  <path class="st5" d="M232.68,250.45s-5.05-8.88-2.08-8.66,2.08,8.66,2.08,8.66Z"/>
  <path class="st5" d="M240.46,254.72s-2.08-5.48,0-4.61,0,4.61,0,4.61Z"/>
  <path class="st5" d="M241.23,235.1s-1.76-3.18-.22-3.18.22,3.18.22,3.18Z"/>
  <path class="st5" d="M235.97,225.45s-2.96-7.02-.77-6.8.77,6.8.77,6.8Z"/>
  <path class="st5" d="M220.18,233.68s1.65-12.61,3.51-11.62-3.51,11.62-3.51,11.62Z"/>
  <path class="st5" d="M204.62,239.26s-.33-18.31,2.41-17.76-2.41,17.76-2.41,17.76Z"/>
  <path class="st5" d="M182.03,234.56s6.91-20.94,8.55-19.85-1.43,14.03-8.55,19.85Z"/>
  <path class="st5" d="M170.19,238.5s7.45-7.23,7.45-12.17-7.45,12.17-7.45,12.17Z"/>
  <path class="st5" d="M211.74,216.14s-.88-14.25,1.1-13.15-1.1,13.15-1.1,13.15Z"/>
  <path class="st5" d="M226.54,206.16s-2.96-8-.88-7.34.88,7.34.88,7.34Z"/>
  <path class="st5" d="M236.41,206.49c-.33,0-3.18-3.73-1.54-3.73s1.54,3.73,1.54,3.73Z"/>
  <path class="st5" d="M217,187.52s-4.61-7.56-2.08-7.34,2.08,7.34,2.08,7.34Z"/>
  <path class="st5" d="M225.33,181.28s-3.62-2.08-1.65-2.52,1.65,2.52,1.65,2.52Z"/>
  <path class="st5" d="M208.24,194.98s-8.88-10.41-6.36-11.4,6.36,11.4,6.36,11.4Z"/>
  <path class="st5" d="M186.86,193.45s-6.47-13.37-4.06-14.03,4.06,14.03,4.06,14.03Z"/>
  <path class="st5" d="M175.78,205.72s.55-12.5,3.4-10.85-3.4,10.85-3.4,10.85Z"/>
  <path class="st5" d="M160.66,184.34s-5.05-13.48-1.97-13.7,1.97,13.7,1.97,13.7Z"/>
  <path class="st5" d="M186.86,173.93s-5.81-7.23-3.95-7.67,3.95,7.67,3.95,7.67Z"/>
  <path class="st5" d="M201.22,171.74s-4.83-4.83-2.96-5.27,2.96,5.27,2.96,5.27Z"/>
  <path class="st5" d="M208.79,166.26s-2.41-2.52-1.1-2.85,1.1,2.85,1.1,2.85Z"/>
  <path class="st5" d="M186.96,154.08s-3.07-2.52-1.43-2.96,1.43,2.96,1.43,2.96Z"/>
  <path class="st5" d="M183.24,159.57s-5.7-5.27-3.95-6.14,3.95,6.14,3.95,6.14Z"/>
  <path class="st5" d="M164.6,171.3s-8.44-11.07-5.81-11.62,5.81,11.62,5.81,11.62Z"/>
  <path class="st5" d="M165.15,156.72s-9.32-6.14-6.58-7.56,6.58,7.56,6.58,7.56Z"/>
  <path class="st5" d="M162.08,145.21s-6.36-3.29-4.39-4.28,4.39,4.28,4.39,4.28Z"/>
  <path class="st5" d="M171.62,143.89s-3.95-2.19-2.74-2.96,2.74,2.96,2.74,2.96Z"/>
  <path class="st5" d="M154.4,135.12s-5.48-1.43-3.73-2.41,3.73,2.41,3.73,2.41Z"/>
  <path class="st5" d="M143.66,183.46s-6.03-10.63-2.52-10.74,2.52,10.74,2.52,10.74Z"/>
  <path class="st5" d="M142.46,168.66c-.44-.11-9.32-11.18-7.02-12.28s7.02,12.28,7.02,12.28Z"/>
  <path class="st5" d="M141.91,160.23c-.33-.11-7.02-11.95-4.94-12.39s4.94,12.39,4.94,12.39Z"/>
  <path class="st5" d="M142.78,147.07s-7.45-5.92-5.16-6.8,5.16,6.8,5.16,6.8Z"/>
  <path class="st5" d="M141.47,135.89s-6.14-2.85-4.39-3.62,4.39,3.62,4.39,3.62Z"/>
  <path class="st5" d="M140.81,129.75s-4.94-.66-2.96-2.08,2.96,2.08,2.96,2.08Z"/>
  <path class="st5" d="M124.58,126.24s-4.5-1.86-2.63-2.3,2.63,2.3,2.63,2.3Z"/>
  <path class="st5" d="M125.46,130.85s-3.95-2.08-2.3-2.41c1.65-.33,2.3,2.41,2.3,2.41Z"/>
  <path class="st5" d="M123.39,138.31s-6.58-7.56-3.51-7.56,3.51,7.56,3.51,7.56Z"/>
  <path class="st5" d="M126.56,149.92s-8.11-9.53-6.25-10.63,6.25,10.63,6.25,10.63Z"/>
  <path class="st5" d="M125.35,163.41c-.33,0-8.88-17.43-5.59-16.56,3.28.88,5.59,16.56,5.59,16.56Z"/>
  <path class="st5" d="M129.52,176.45s-7.89-5.81-6.47-7.89c1.42-2.08,6.47,7.89,6.47,7.89Z"/>
  <path class="st5" d="M135,186.97s-.16-.08-.44-.23c-1.97-1.02-9.8-5.28-8.55-7.01,1.43-1.97,8.99,7.23,8.99,7.23h0Z"/>
  <path class="st5" d="M113.84,131.17s-2.85-4.61.33-4.39-.33,4.39-.33,4.39Z"/>
  <path class="st5" d="M114.5,139.72s-3.73-8.55-1.65-7.67,1.65,7.67,1.65,7.67Z"/>
  <path class="st4" d="M106.94,162.75c0-.44-1.1-24.44,2.08-24.66s1.97,15.02,1.97,15.02c0,0,2.52,0,3.4,2.63s.44,4.94.44,4.94c0,0,2.41,2.41,3.07,5.27s.22,3.4.22,3.4c0,0,3.73,5.59,3.73,7.56v1.97s2.96,2.63,3.51,4.83l.55,2.19s3.29-2.52,5.16,0,.88,5.81.88,5.81l-19.63,7.78-5.38-36.72v-.02Z"/>
  <path class="st9" d="M-15.88,286.48l59.93.29,47.22-71.04,36.06-22.62s-.99-2.52-1.32-3.73-3.18-6.58-4.06-7.67-5.59,6.14-6.58,4.17-1.1-4.72-1.1-4.72c0,0-1.1,1.54-1.65.55s.66-11.07.66-11.07c0,0-.44,3.07-1.32,1.97s-1.21-10.08-1.21-10.08c0,0,.11,2.3-.88,1.21s-.99-2.63-.99-2.63c0,0-.77,6.69-1.32,5.48s-1.32-12.83-1.32-12.83c0,0-1.21.33-2.63-1.1s-13.81-10.08-13.81-10.08l-14.03,23.13-18.75,25.65-12.06-36.72-45.5,2.3-15.39,129.54.02-.02Z"/>
  <path class="st5" d="M88.96,171.41c-.33,0-24.88,16.34-24.88,16.34l-2.85,9.64,6.91,10.3,2.63,5.81,2.19,4.28,3.07-.44,22.91-9.53,17.21-9.97s.55-4.61-1.43-9.21l-2.3-5.38s-1.43,1.97-1.86.99-1.1-9.42-1.1-9.42c0,0-.99-1.97-.22-4.5,0,0-5.05-5.38-5.05-6.91s-8.33,1.1-8.33,1.1l-5.05,8.99-1.86-2.08h0Z"/>
  <path class="st4" d="M67.25,226s-.55-4.61,20.18-14.69,42.43-20.18,46.92-22.47,11.73-4.06,16.88-4.17,12.5,3.18,18.42,10.3c5.92,7.13,6.36,19.52,5.81,23.57s-7.23,29.05-11.84,40.01c-4.61,10.96-12.65,28.27-12.65,28.27l-113.64-.2,17.21-43.52,12.72-17.1h-.02Z"/>
  <path class="st9" d="M79.43,287.28s3.18-3.62,4.72-9.32l1.54-5.7s2.96.88,4.94-.99,4.28-7.56,4.06-13.48-.77-7.23-.77-7.23c0,0,1.1.77,2.85-1.1l1.76-1.86s4.61,5.27,8.44,4.94,6.14-12.61,6.14-12.61c0,0,1.43,5.48,3.62,3.51s2.52-7.34,2.52-7.34c0,0,5.7,1.76,7.67-1.97s1.54-9.64,1.54-9.64c0,0,4.83,4.28,6.36,3.73s.88-14.8.88-14.8c0,0,2.74,3.29,3.84.22s.66-5.81.66-5.81c0,0,1.21,1.21,1.43-1.54s-.22-4.72-.22-4.72c0,0,5.38,4.94,6.58,3.4s.99-3.95.99-3.95c0,0,.22,1.97,1.32-.11s-.33-5.16-.33-5.16c0,0,7.13,3.84,8.11,1.97s.88-2.85.88-2.85c0,0,2.96.77,3.29-.99s.66-5.16.66-5.16c0,0,14.91,6.36,12.72,30.92-2.19,24.55-24.61,67.19-24.61,67.19l-71.54.46h-.02Z"/>
  <path class="st4" d="M100.69,263.94s2.52,4.83,5.38,3.29,4.28-7.78,4.28-7.78c0,0-1.1,11.51-4.39,11.29s-5.27-6.8-5.27-6.8Z"/>
  <path class="st4" d="M113.07,258.89s2.41,3.07,4.72,1.65,4.39-10.96,4.39-10.96c0,0-2.08,12.72-4.06,13.37s-5.05-4.06-5.05-4.06Z"/>
  <path class="st4" d="M127,253.84s.77,1.86,2.52.99,2.08-10.3,2.08-10.3c0,0,.33,12.72-1.32,12.72s-3.29-3.4-3.29-3.4h0Z"/>
  <path class="st4" d="M139.71,243.76s.77,4.17,2.74,3.18,2.08-12.39,2.08-12.39c0,0-1.32,15.46-4.83,9.21h0Z"/>
  <path class="st4" d="M150.79,233.24s1.21,4.61,2.74,2.85,2.19-11.62,2.19-11.62c0,0,.88,14.8-2.41,13.92s-2.52-5.16-2.52-5.16Z"/>
  <path class="st4" d="M119,273.47s3.4,2.3,5.27.88,4.5-6.58,4.5-6.58c0,0-3.29,9.53-5.38,8.88s-4.39-3.18-4.39-3.18h0Z"/>
  <path class="st4" d="M139.49,272.7s1.97.99,3.73-.33,3.62-11.51,3.62-11.51c0,0-1.97,13.59-7.34,11.84h0Z"/>
  <path class="st4" d="M151.23,257.46s.66,3.18,2.63,2.74,4.39-10.19,4.39-10.19c0,0-1.86,11.95-4.06,11.95s-2.96-4.5-2.96-4.5Z"/>
  <path class="st10" d="M69.55,221.18s-21.49,51.41-24.88,56.35-6.69,6.47-6.47,1.43,7.78-39.9,7.78-39.9c0,0-22.25,32.78-32.34,33.77,0,0,1.86-7.02,4.72-13.37,2.85-6.36,9.1-24.01,9.1-24.01,0,0-38.15,34.65-45.72,38.48-7.56,3.84-9.97,5.05-9.42,3.95S-3.36,238.29-3.36,238.29c0,0-33.77,22.25-36.39,19.74s5.92-26.09,22.36-34.65c0,0,20.39-22.8,23.02-24.01s4.06-1.76,4.06-1.76c0,0-9.75,4.94-10.19,3.07s10.74-9.86,10.74-9.86l25.98-6.36,34.87,29.6-1.54,7.13v-.02Z"/>
  <path class="st4" d="M139.16,107.17s-11.29,2.52-16.88,6.36-6.69,7.78-7.56,9.21-1.97-.77-1.97-.77l-4.17,8.11s-5.16,12.06-5.92,11.73,1.76-8.44,1.76-8.44c0,0-2.41,1.86-2.08.77s4.72-9.1,4.72-9.1c0,0-3.07,3.18-2.96,2.41s.33-2.19.33-2.19c0,0-.55,4.17-1.76,4.83s-2.19,3.4-3.4,4.83l-1.21,1.43s6.8-1.76,6.36-.11-2.52,10.63-3.29,10.85-.99-.55-.99-.55c0,0,2.74,4.17,2.74,6.36s-4.28,8.88-4.5,6.8-.22-5.05-.22-5.05c0,0-1.65,3.95-2.08,3.07s-.55-2.19-.55-2.19c0,0,2.52,3.95-.22,12.17s-7.45,14.25-7.67,12.72,1.32-6.36,1.32-6.36c0,0-18.09,15.68-18.75,14.36s-.77-2.19-.77-2.19l-3.95,3.95s4.28-.33,6.03.66-5.27,5.48-5.27,5.48c0,0,3.29-.11,2.74.99s-1.43,1.76-1.43,1.76c0,0,1.54,2.63,5.38,2.85s15.13-4.72,14.36-1.43-11.95,11.95-11.95,11.95c0,0-5.81,11.95-6.91,13.04l-1.1,1.1,2.08-10.63s-17.32,24.12-17.87,22.69,6.8-25.43,6.8-25.43c0,0-9.97,21.16-10.63,19.41s.77-22.8.77-22.8c0,0-3.95,2.74-4.17,1.21s6.69-18.42,6.69-18.42c0,0-25.21,24.66-24.77,21.81s5.05-11.18,5.05-11.18c0,0-1.86,2.41-2.3,1.21s4.06-17.87,4.06-17.87c0,0-41.55,10.3-41.11,8.44s34.32-24.66,40.56-26.75,6.58-1.86,6.58-1.86l.11-1.86s-8.99-2.96-20.07-4.17c-11.07-1.21-28.72,1.97-28.72,1.97,0,0,28.5,1.32,32.56,3.51s-27.74,6.14-29.71,7.34-9.21-17.54-9.21-17.54c0,0,18.86-7.56,30.81-8.88s10.63-.77,12.28-2.52,4.61-6.47,5.38-8,2.96-12.39,7.78-21.05c4.83-8.66,18.09-29.93,32.89-31.79,14.8-1.86,23.57.99,29.71,2.52s13.15,4.72,15.68,5.05,20.61,16.23,20.61,16.23h-.02Z"/>
  <path class="st9" d="M58.92,275.99s5.38,4.17,8.66,3.07,5.81-10.19,5.81-10.19c0,0,6.25,3.07,8.77.77s1.97-16.66,1.97-16.66c0,0,.44,22.03-11.4,14.03,0,0-3.4,10.08-5.92,10.08s-7.89-1.1-7.89-1.1h0Z"/>
  <path class="st9" d="M87.75,244.75s4.61,3.51,7.45,1.65,3.18-9.97,3.18-9.97c0,0,.22,11.95-10.63,8.33h0Z"/>
  <path class="st9" d="M110.22,222.39s1.65,2.08,3.51,1.54,1.32-4.72,1.32-4.72c0,0-.66,5.59-4.83,3.18Z"/>
  <path class="st9" d="M118.34,216.35s1.1,2.41,3.51-.44c2.41-2.85,2.63-7.56,2.63-7.56,0,0-2.08,9.21-6.14,8Z"/>
  <path class="st9" d="M129.96,206.82s3.95.88,4.61-.88.44-2.96.44-2.96c0,0,.11,4.28-5.05,3.84h0Z"/>
  <path class="st4" d="M43.9,221.18s-20.61,37.82-23.24,40.78-5.27,5.38-5.27,5.38c0,0-2.85,5.92-1.76,5.92s9.04-3.92,9.97-6.69c.64-1.92-1.21-2.96.33-6.58s21.59-39.57,19.96-38.81Z"/>
  <path class="st4" d="M19.57,223.59s-33.22,40.67-35.85,41.99-5.48,2.52-5.48,2.52c0,0-7.13,10.3-6.03,10.41s13.04-6.14,15.13-8.11-.55-4.61.22-6.36,33.11-41.77,32.01-40.45h0Z"/>
  <path class="st4" d="M-17.49,224.68c0,.33-11.95,16.12-10.52,16.88s16.12-8.22,16.12-8.22c0,0-6.14,2.52-6.69,1.97S.82,212.63,6.62,207.92s6.69-5.59,6.69-5.59c0,0-15.9,11.84-24.99,22.8-9.1,10.96-10.52,10.63-10.52,10.63l4.72-11.07h0Z"/>
  <path class="st4" d="M-5.43,229.07s12.5-11.62,17.98-14.69,11.95-9.86,13.04-11.4-4.83,8.11-9.86,12.61c-5.05,4.5-19.08,22.69-19.08,22.69l-8.33,5.38s5.38-8.44,6.25-14.58h0Z"/>
  <path class="st10" d="M43.35,173.82s-9.53,16.77-7.23,15.79,15.68-12.06,15.68-12.06c0,0-13.15,9.75-13.59,9.42s5.16-13.15,5.16-13.15h0Z"/>
  <path class="st10" d="M55.63,155.62s-6.91,9.75-4.39,9.75,19.96-8.99,19.96-8.99c0,0-7.45,28.17-4.83,27.19s11.84-15.9,11.84-15.9c0,0,0,2.08,1.21,2.08s7.89-5.27,7.89-5.27c0,0-8.55,6.14-8.55,1.76,0,0-11.95,16.23-11.84,15.35s5.7-26.86,5.7-26.86c0,0-20.07,10.08-19.74,8.99s2.74-8.11,2.74-8.11Z"/>
  <path class="st10" d="M21.32,151.24s-4.61,1.32-2.3,2.08c2.3.77,13.81-.88,13.81-.88,0,0-.55,1.65,1.21,2.19,1.76.55,16.01-2.41,16.01-2.41,0,0-16.34,3.07-16.88-.66,0,0-15.9,2.85-11.84-.33Z"/>
  <path class="st4" d="M22.42,172.06c.48,1.44-25.76,18.64-27.41,16.34s15.24-15.79,15.24-15.79c0,0,11.73-1.86,12.17-.55Z"/>
  <path class="st5" d="M27.13,145.54s4.5-2.63,5.59-4.39,1.43-4.72,1.43-4.72c0,0-1.76,8.22-.88,8.11s3.29-5.27,3.29-5.27c0,0-2.85,5.7-1.65,5.7s8.55-10.96,8.55-10.96c0,0-2.52,7.78-1.86,9.64s2.19,2.52,2.19,2.52c0,0-.11-1.97.55-2.85l.66-.88s-.99,2.96,0,3.07,2.08-2.96,3.73-4.17,4.28-6.47,4.61-7.89-.99-1.54-.99-1.54l3.4-2.74s-.99,7.23-2.85,9.86-2.96,5.38-1.21,7.13,3.29,2.08,3.29,2.08c0,0-2.41-.33-3.73-.99s-7.89-.77-10.41-.22-4.28.44-4.28.44c0,0,3.73-2.85,3.84-4.17s-5.05,3.62-6.47,4.06.11-1.76-1.1-1.86-5.7,0-5.7,0h0Z"/>
  <path class="st5" d="M53,142.25s.44,4.61,1.97,3.95,4.39-7.67,4.83-9.64-.11-4.61-.11-4.61c0,0,2.52-2.63,3.29-3.62l.77-.99-.99,5.38s-3.07,7.45-2.08,7.56,2.41-.88,2.41-.88c0,0-4.17,6.14-2.74,6.91s6.91-3.73,6.91-3.73c0,0,.22,3.51,2.19,4.39s8.77-2.3,8.77-2.3c0,0-2.19,3.29-1.1,4.06s6.47-.77,6.47-.77c0,0-.11.44,2.63.55s6.14-1.65,6.14-1.65c0,0-1.54,6.58-.33,7.67s2.3,1.32,2.3,1.32c0,0-2.52,1.43-4.94,3.29l-2.41,1.86s1.32-3.29-.66-4.61-6.69.55-6.69.55c0,0-1.54-3.73-3.29-3.73h-1.76s-.88-2.63-3.95-2.85-4.94,1.1-4.94,1.1c0,0-.55-1.76-3.29-1.76h-3.84s-.77-1.86-2.19-1.65-4.5-1.65-3.4-5.81h0Z"/>
  <path class="st9" d="M40.61,127.01s-2.74,8.11-1.1,7.67,4.28-4.72,4.28-4.72c0,0-3.62,7.34-4.61,6.03s0-7.67,1.43-8.99h0Z"/>
  <path class="st9" d="M49.28,119.67s-4.17,10.85-2.08,9.75,3.95-5.38,3.95-5.38c0,0-3.73,5.27-3.62,4.39s1.76-8.77,1.76-8.77Z"/>
  <path class="st9" d="M58.7,124.15s-2.41,6.58-.88,6.58,2.3-1.32,2.3-1.32c0,0-3.73,2.52-1.43-5.27h0Z"/>
  <path class="st9" d="M64.52,135.78l4.28-4.06s-1.54,6.36-.66,6.58l.88.22s-.77-3.62,1.1-8.44c0,0-5.38,4.61-5.59,5.7h0Z"/>
  <path class="st9" d="M75.81,134.47s.66.77,1.65.44,4.39-4.61,4.39-4.61c0,0-.44,10.19.55,10.19s1.21-.99,1.21-.99c0,0-.99,2.41-1.97,1.86s-.99-8.44-.99-8.44c0,0-4.17,4.83-4.83,1.54Z"/>
  <path class="st11" d="M100.69,125.47s-8,6.58-8.88,7.34,1.76.44,1.86,1.65-.66,5.81-.11,5.27,1.65-4.06,2.63-5.48,4.5-8.77,4.5-8.77h0Z"/>
  <path class="st9" d="M85.89,106.18s4.83-2.63,5.27-4.72,1.21-8,2.74-9.42,3.4-1.76,3.4-1.76c0,0-3.73-1.1-1.97-1.32s5.27-.33,8.33.99,5.92,5.27,6.91,5.48.11,3.4-.77,4.39,2.63,4.94.33,7.67-4.94,4.61-9.53,4.94-10.19.66-9.97-.44,1.43-1.76,1.43-1.76c0,0-4.61,1.21-3.84.11s1.32-1.32,1.32-1.32c0,0-5.27,0-3.4-.88l1.86-.88s-4.61,0-2.08-1.1h0Z"/>
  <path class="st9" d="M106.61,90.18s3.29,3.84,4.83,4.28,1.1,1.54.88,3.29,1.43,4.39,1.43,5.38-.55,2.08-.55,2.08c0,0,1.54-.55,1.54-2.41s-.88-5.27-.55-7.02-2.3-3.07-3.4-3.4-4.06-3.07-4.17-2.19h0Z"/>
  <path class="st4" d="M106.5,100.7s-.11,5.38-4.06,6.03-7.78-3.4-8.11-6.8.99-7.02,5.38-7.34,6.91,6.58,6.8,8.11h0Z"/>
  <path class="st1" d="M95.1,98.61s1.43-1.32,2.52-2.19,4.06-1.43,5.48-.22,2.08,3.51,2.3,2.96-1.21-5.05-4.83-5.38-4.94,2.3-5.48,4.83Z"/>
  <path class="st1" d="M95.54,100.59s.33-.33.88.44.99,2.96,3.62,3.4,3.73-.88,4.17-2.08.66-2.3,1.1-1.76-.11,4.72-3.18,5.16-6.36-1.65-6.58-5.16Z"/>
  <path class="st5" d="M96.96,100.15s.11-3.07,2.63-3.4,3.84,1.32,4.06,3.29,0,3.62-2.3,3.84-4.06-1.32-4.39-3.73Z"/>
  <path class="st9" d="M98.17,101.9s-.66-4.06,1.54-4.39,3.4,1.97,3.62,3.62-4.5,1.43-5.16.77Z"/>
  <path class="st2" d="M100.36,100.48s-1.86-1.76-.66-1.97.66,1.97.66,1.97Z"/>
  <path class="st5" d="M107.93,101.9s.66,3.51-.88,4.94-3.73,1.65-3.73,1.65c0,0,3.07.66,4.61-.88s0-5.7,0-5.7h0Z"/>
  <path class="st5" d="M92.58,103.33s.44,2.52,3.84,3.84,5.16,1.32,5.16,1.32l-.44.99s-3.95.11-6.14-.88-3.95-4.83-2.41-5.27Z"/>
  <path class="st9" d="M60.79,108.92s-3.4,6.36-2.41,5.92l1.97-.88s-1.54,1.43-.33,1.43,5.05-3.95,5.05-3.95c0,0-2.19,4.72-.77,4.72s3.29-1.54,3.29-1.54c0,0-3.29,1.21-2.85.33s1.54-5.38,1.54-5.38c0,0-6.36,5.38-5.05,4.39s-.66-.99-.66-.99c0,0-1.97,2.3.22-4.06h0Z"/>
  <path class="st3" d="M116.48,90.4s-.55,2.85.22,4.17l.77,1.32s-1.97,4.72-1.86,7.13,1.65,5.05,3.18,5.16,4.83-3.62,8-2.85.99,3.84,2.63,4.28,9.53-4.72,9.53-4.72l36.72-21.27s11.51-7.34,16.45-8.11,9.86-2.96,12.94-2.08,5.48.66,6.36,3.18.33,7.02,1.43,6.69,2.3-6.25.88-11.62-9.64-11.73-18.09-11.95-17.87,9.21-21.59,11.29-22.91,13.59-31.79,15.68-19.74,3.84-21.49,3.84-4.28-.11-4.28-.11v-.02Z"/>
  <path class="st2" d="M139.93,106.95s14.25-8.77,19.85-11.73,25.54-15.13,27.95-16.56,6.14-2.74,7.89-2.74,3.84-1.65,6.58-1.65,7.13,1.32,8.44,2.3,1.21,2.63,1.21,2.63c0,0,1.65-4.17-3.18-5.59s-8.77-.33-11.62.22-5.38-.22-6.36-.22-17.98,11.18-24.44,14.03-20.61,10.85-26.09,12.17-16.66,5.48-15.02,5.48,2.85.22,3.18,1.43.11,3.07,1.76,3.18,9.86-2.96,9.86-2.96h0Z"/>
  <path class="st6" d="M118.89,92.15s0,2.08,2.08,2.41,15.13-3.4,20.83-5.59,29.93-14.25,36.17-18.64c6.24-4.39,11.29-5.81,14.69-5.81s6.58,1.21,6.47,2.19-5.7,2.41-5.7,2.41c0,0,2.41-2.63-.22-2.96s-5.92.44-16.88,6.58c-10.96,6.14-27.08,15.46-33.88,17.87s-25.43,9.32-23.57,1.54h0Z"/>
  <path class="st6" d="M127.76,102.01s18.31-7.23,35.85-16.01c17.54-8.77,27.3-15.35,27.84-16.23s-4.94,1.54-11.18,5.05c-6.24,3.51-44.62,21.27-49.23,23.13s-7.78,1.43-6.91,2.63,3.62,1.43,3.62,1.43h0Z"/>
  <path class="st6" d="M201.55,68.03c.33,0,7.02,1.32,8.99,3.51s2.3,3.18,2.3,2.41-5.48-8.22-8.88-9.97-7.56-2.08-7.56-2.08c0,0,2.96,1.97,4.17,3.51s.99,2.63.99,2.63h0Z"/>
  <path class="st12" d="M116.48,90.4s.66-.77,2.63-.88,17.43-1.32,29.38-6.47c11.95-5.16,27.08-14.36,30.37-16.77s19.3-15.02,32.01-.55c0,0,5.59,5.48,2.74,16.12,0,0,.99-9.32-2.96-14.14s-10.19-7.56-15.68-7.23-11.95,5.38-17.43,9.1-30.26,17.43-39.9,19.41-16.66,2.74-17.87,2.74-3.62-.88-3.29-1.32h0Z"/>
  <path class="st8" d="M135.55,115.61s2.19-5.27,12.72-5.27,57.44,14.03,77.18,41.66c19.74,27.63,17.98,39.9,15.79,38.15s-12.72-28.5-32.01-42.54c-19.3-14.03-43.85-23.68-53.5-24.12s-21.49-5.27-20.18-7.89h0Z"/>
  <path class="st4" d="M39.49,270.41s-2.95,11.83-.27,11.88c4.47.09,6.88-7.06,7.77-8.85s-2.15-.99-2.23-2.41,7.06-32.25,6.53-30.02-8.31,29.31-9.02,29.48-2.77-.09-2.77-.09h0Z"/>
  <path class="st0" d="M66.47,224.22s-18.32,44.86-19.39,46.1-1.78.45-1.78.45l7.51-29.04,13.67-17.51h0Z"/>
  <path class="st0" d="M24.03,262.99s3.57-7.77,6.53-12.78,15.55-28.5,15.55-28.5c0,0-.9,14.75-1.78,16.53s-19.84,27.16-20.01,26.54-.27-1.78-.27-1.78h-.02Z"/>
  <path class="st0" d="M-11.18,265.22s3.84-5.99,6.7-9.92,31.72-38.24,32.7-38.96,3.48-1.61,3.48-1.61c0,0-3.22,18.4-6.08,20.82s-36.63,32.43-36.63,32.43l-.18-2.77h0Z"/>
  <path class="st0" d="M-15.46,232.34s30.56-29.93,31.09-30.2,13.31-6.61,12.6-5.27S1.15,221.08-5.46,226.53c-6.61,5.45-10.01,5.8-10.01,5.8h0Z"/>
  <path class="st4" d="M95.27,128.32s-1.32,3.62-.33,3.62,4.28-4.28,4.28-4.28c0,0-8.05,8.88-6.75,8.88s4.11.66,4.11.66l7.08-11.84-1.65-2.63-6.75,5.59h0Z"/>
  <path class="st4" d="M105.3,129.64s-3.95,9.04-5.1,8.05,5.1-8.05,5.1-8.05Z"/>
  <path class="st4" d="M100.19,128.32c0,.49-.49,5.92.66,5.43s.49-6.25.49-6.25l-1.15.82Z"/>
  <path class="st4" d="M106.45,128.82c-1.15.82-5.92,2.96-4.11,3.13s4.11-3.13,4.11-3.13Z"/>
  <path class="st4" d="M98.22,132.93s-1.65,7.08.49,5.76.49-6.09.49-6.09l-.99.33h0Z"/>
  <path class="st9" d="M119.74,113.14s-4.87,7.3-6.29,6.7l-1.42-.61s-4.26,11.57-5.69,12.39,5.07-14.82,5.07-14.82c0,0,1.63,1.63,3.25.4s5.07-4.06,5.07-4.06h0Z"/>
  <path class="st9" d="M87.46,144.4s1.42,1.01,4.26-.81,3.46-2.43,3.46-2.43c0,0-2.64,13.4-.4,12.59s7.51-13.6,7.51-13.6c0,0-5.69,9.95-5.89,7.72s.61-7.92.61-7.92l-9.54,4.47h0Z"/>
  <path class="st9" d="M97.21,127.35s-3.04,3.46-1.42,3.46,3.66-1.83,3.66-1.83c0,0-3.04,5.48-2.43,5.48s6.65-9.09,6.65-9.09c0,0-8.07,4.83-6.85,4.01s.4-2.03.4-2.03h0Z"/>
  <path class="st9" d="M85.03,132.02s-3.25,5.07-1.01,4.87,7.51-7.92,7.51-7.92c0,0-6.9,7.3-6.5,3.04h0Z"/>
  <path class="st9" d="M90.92,135.27s1.22,1.83,2.84,1.22,3.46-4.47,3.46-4.47c0,0-4.47,5.48-6.29,3.25h0Z"/>
  <path class="st9" d="M99.03,137.7c-.29.99,5.69-5.07,5.69-5.07,0,0-5.07,3.04-5.69,5.07Z"/>
  <path class="st9" d="M92.14,90.18s-.44,6.58-3.95,8.77-7.02,11.4-8.77,9.64,2.19-8.77,2.19-8.77c0,0,2.19,2.63,4.83-2.19s5.7-7.45,5.7-7.45h0Z"/>
  <path class="st9" d="M59.25,99.82s-3.07,6.58,2.63,5.7c0,0-2.63.88-2.63-5.7Z"/>
  <path class="st9" d="M66.27,118.68s-2.19,7.02,2.19,6.58,3.07-.88,3.07-.88c0,0-6.58,2.19-5.27-5.7h0Z"/>
  <path class="st9" d="M48.29,108.16s-3.95,9.21-1.32,9.21h2.63s-3.51.44-1.32-9.21Z"/>
  <path class="st9" d="M75.04,111.22s-.44,7.45,2.19,7.45h2.63s-3.07.88-4.83-7.45Z"/>
  <path class="st9" d="M63.64,95.43s-.88,6.58.44,5.7l1.32-.88s-1.32,1.76-1.76-4.83Z"/>
  <path class="st9" d="M104.86,114.29s-11.84,7.45-12.28,6.14.88-4.39.88-4.39c0,0,0,5.27,11.4-1.76Z"/>
</svg>