<?xml version="1.0" encoding="UTF-8"?>
<svg id="Vrstva_1" xmlns="http://www.w3.org/2000/svg" version="1.1" viewBox="0 0 283.46 425.2">
  <!-- Generator: Adobe Illustrator 30.1.0, SVG Export Plug-In . SVG Version: 2.1.1 Build 136)  -->
  <defs>
    <style>
      .st0 {
        fill: #6b7fb0;
      }

      .st1 {
        fill: #325f61;
      }

      .st2 {
        fill: #4a6189;
      }

      .st3 {
        fill: #836193;
      }

      .st4 {
        fill: #13253b;
      }

      .st5 {
        fill: #1f3549;
      }

      .st6 {
        fill: #5d73a1;
      }

      .st7 {
        fill: #c93647;
      }

      .st8 {
        fill: #010102;
      }

      .st9 {
        fill: #09131e;
      }

      .st10 {
        fill: #bc212d;
      }

      .st11 {
        fill: #285054;
      }

      .st12 {
        fill: #8193bc;
      }
    </style>
  </defs>
  <rect class="st3" x="-4.84" width="294.2" height="457.76"/>
  <path class="st10" d="M139.73,232.41s13.61-3.12,28.11,0,45.74,15.62,62.69,32.57c16.96,16.96,27.22,31.68,33.02,59.35,5.8,27.67,4.91,73.4-6.47,104.19l-98.17-.45-.89-26.77-35.25-81.44-24.54-42.84-8.48-20.75,24.32-15.39,25.66-8.48Z"/>
  <path class="st8" d="M182.83,424.86s2.52-5.88,3.84-11.27,4.68-10.91,7.08-9.95,1.32,8.87-.72,12.11-10.43,10.91-10.19,9.11Z"/>
  <path class="st8" d="M217.97,426.18s-2.4-10.43.12-10.19,1.32,8.63-.12,10.19Z"/>
  <path class="st8" d="M232.72,411.79s-1.56-17.75,1.56-17.51-1.56,17.51-1.56,17.51Z"/>
  <path class="st8" d="M247.83,414.67s-2.28-12.59.6-10.91-.6,10.91-.6,10.91Z"/>
  <path class="st8" d="M203.82,410.95s-1.44-14.87,1.44-18.47c2.88-3.6,5.04-3.48,6.24-.96s-3.72,9.95-4.92,12.47-2.76,6.96-2.76,6.96Z"/>
  <path class="st8" d="M199.5,395.6s-1.68-9.71.72-13.91,3.96-10.55,5.88-10.31,2.52,7.08.72,10.19-5.52,7.32-6.12,8.75-1.2,5.28-1.2,5.28Z"/>
  <path class="st8" d="M179.35,387.57s3.96-6.48,5.04-10.19,3.24-4.68,3.6-4.68.96,6.96-.6,9.47-8.03,5.4-8.03,5.4Z"/>
  <path class="st8" d="M174.68,401.84s4.08-13.19,6.48-12.83,2.88,8.27-6.48,12.83Z"/>
  <path class="st8" d="M166.04,406.52s4.56-5.04,6-3.48-4.56,9.59-7.8,10.55,1.8-7.08,1.8-7.08Z"/>
  <path class="st8" d="M222.89,394.52s.36-20.75,3.48-20.39c3.12.36.36,15.71-3.48,20.39Z"/>
  <path class="st8" d="M248.31,388.29s-5.52-9.71-2.28-9.47,2.28,9.47,2.28,9.47Z"/>
  <path class="st8" d="M256.82,392.96s-2.28-6,0-5.04,0,5.04,0,5.04Z"/>
  <path class="st8" d="M257.66,371.5s-1.92-3.48-.24-3.48.24,3.48.24,3.48Z"/>
  <path class="st8" d="M251.91,360.94s-3.24-7.68-.84-7.44.84,7.44.84,7.44Z"/>
  <path class="st8" d="M234.64,369.94s1.8-13.79,3.84-12.71-3.84,12.71-3.84,12.71Z"/>
  <path class="st8" d="M217.61,376.05s-.36-20.03,2.64-19.43-2.64,19.43-2.64,19.43Z"/>
  <path class="st8" d="M192.9,370.9s7.56-22.91,9.35-21.71-1.56,15.35-9.35,21.71Z"/>
  <path class="st8" d="M179.95,375.22s8.15-7.91,8.15-13.31-8.15,13.31-8.15,13.31Z"/>
  <path class="st8" d="M225.4,350.75s-.96-15.59,1.2-14.39-1.2,14.39-1.2,14.39Z"/>
  <path class="st8" d="M241.59,339.84s-3.24-8.75-.96-8.03.96,8.03.96,8.03Z"/>
  <path class="st8" d="M252.39,340.2c-.36,0-3.48-4.08-1.68-4.08s1.68,4.08,1.68,4.08Z"/>
  <path class="st8" d="M231.16,319.45s-5.04-8.27-2.28-8.03,2.28,8.03,2.28,8.03Z"/>
  <path class="st8" d="M240.27,312.62s-3.96-2.28-1.8-2.76,1.8,2.76,1.8,2.76Z"/>
  <path class="st8" d="M221.57,327.61s-9.71-11.39-6.96-12.47,6.96,12.47,6.96,12.47Z"/>
  <path class="st8" d="M198.18,325.93s-7.08-14.63-4.44-15.35,4.44,15.35,4.44,15.35Z"/>
  <path class="st8" d="M186.07,339.36s.6-13.67,3.72-11.87-3.72,11.87-3.72,11.87Z"/>
  <path class="st8" d="M169.52,315.97s-5.52-14.75-2.16-14.99,2.16,14.99,2.16,14.99Z"/>
  <path class="st8" d="M198.18,304.58s-6.36-7.91-4.32-8.39,4.32,8.39,4.32,8.39Z"/>
  <path class="st8" d="M213.89,302.18s-5.28-5.28-3.24-5.76,3.24,5.76,3.24,5.76Z"/>
  <path class="st8" d="M222.17,296.19s-2.64-2.76-1.2-3.12,1.2,3.12,1.2,3.12Z"/>
  <path class="st8" d="M198.3,282.87s-3.36-2.76-1.56-3.24,1.56,3.24,1.56,3.24Z"/>
  <path class="st8" d="M194.22,288.87s-6.24-5.76-4.32-6.72,4.32,6.72,4.32,6.72Z"/>
  <path class="st8" d="M173.84,301.7s-9.23-12.11-6.36-12.71,6.36,12.71,6.36,12.71Z"/>
  <path class="st8" d="M174.44,285.75s-10.19-6.72-7.2-8.27,7.2,8.27,7.2,8.27Z"/>
  <path class="st8" d="M171.08,273.16s-6.96-3.6-4.8-4.68,4.8,4.68,4.8,4.68Z"/>
  <path class="st8" d="M181.51,271.72s-4.32-2.4-3-3.24,3,3.24,3,3.24Z"/>
  <path class="st8" d="M162.68,262.13s-6-1.56-4.08-2.64,4.08,2.64,4.08,2.64Z"/>
  <path class="st8" d="M150.93,315.01s-6.6-11.63-2.76-11.75,2.76,11.75,2.76,11.75Z"/>
  <path class="st8" d="M149.61,298.82c-.48-.12-10.19-12.23-7.68-13.43s7.68,13.43,7.68,13.43Z"/>
  <path class="st8" d="M149.01,289.59c-.36-.12-7.68-13.07-5.4-13.55s5.4,13.55,5.4,13.55Z"/>
  <path class="st8" d="M149.97,275.2s-8.15-6.48-5.64-7.44,5.64,7.44,5.64,7.44Z"/>
  <path class="st8" d="M148.53,262.97s-6.72-3.12-4.8-3.96,4.8,3.96,4.8,3.96Z"/>
  <path class="st8" d="M147.81,256.25s-5.4-.72-3.24-2.28,3.24,2.28,3.24,2.28Z"/>
  <path class="st8" d="M130.06,252.41s-4.92-2.04-2.88-2.52,2.88,2.52,2.88,2.52Z"/>
  <path class="st8" d="M131.02,257.45s-4.32-2.28-2.52-2.64,2.52,2.64,2.52,2.64Z"/>
  <path class="st8" d="M128.75,265.61s-7.2-8.27-3.84-8.27,3.84,8.27,3.84,8.27Z"/>
  <path class="st8" d="M132.22,278.32s-8.87-10.43-6.84-11.63,6.84,11.63,6.84,11.63Z"/>
  <path class="st8" d="M130.9,293.07c-.36,0-9.71-19.07-6.12-18.11s6.12,18.11,6.12,18.11Z"/>
  <path class="st8" d="M135.46,307.34s-8.63-6.36-7.08-8.63,7.08,8.63,7.08,8.63Z"/>
  <path class="st8" d="M141.46,318.85s-.18-.09-.48-.25c-2.15-1.12-10.72-5.78-9.35-7.67,1.56-2.16,9.83,7.91,9.83,7.91Z"/>
  <path class="st8" d="M118.31,257.81s-3.12-5.04.36-4.8-.36,4.8-.36,4.8Z"/>
  <path class="st8" d="M119.03,267.16s-4.08-9.35-1.8-8.39,1.8,8.39,1.8,8.39Z"/>
  <path class="st4" d="M110.76,292.35c0-.48-1.2-26.74,2.28-26.98s2.16,16.43,2.16,16.43c0,0,2.76,0,3.72,2.88s.48,5.4.48,5.4c0,0,2.64,2.64,3.36,5.76s.24,3.72.24,3.72c0,0,4.08,6.12,4.08,8.27v2.16s3.24,2.88,3.84,5.28l.6,2.4s3.6-2.76,5.64,0,.96,6.36.96,6.36l-21.47,8.51-5.88-40.17Z"/>
  <path class="st9" d="M-23.6,427.7l65.56.32,51.65-77.71,39.45-24.74s-1.08-2.76-1.44-4.08-3.48-7.2-4.44-8.39-6.12,6.72-7.2,4.56-1.2-5.16-1.2-5.16c0,0-1.2,1.68-1.8.6s.72-12.11.72-12.11c0,0-.48,3.36-1.44,2.16s-1.32-11.03-1.32-11.03c0,0,.12,2.52-.96,1.32s-1.08-2.88-1.08-2.88c0,0-.84,7.32-1.44,6s-1.44-14.03-1.44-14.03c0,0-1.32.36-2.88-1.2s-15.11-11.03-15.11-11.03l-15.35,25.3-20.51,28.06-13.19-40.17-49.77,2.52-16.83,141.71Z"/>
  <path class="st8" d="M91.09,301.82c-.36,0-27.22,17.87-27.22,17.87l-3.12,10.55,7.56,11.27,2.88,6.36,2.4,4.68,3.36-.48,25.06-10.43,18.83-10.91s.6-5.04-1.56-10.07l-2.52-5.88s-1.56,2.16-2.04,1.08-1.2-10.31-1.2-10.31c0,0-1.08-2.16-.24-4.92,0,0-5.52-5.88-5.52-7.56s-9.11,1.2-9.11,1.2l-5.52,9.83-2.04-2.28Z"/>
  <path class="st4" d="M67.34,361.54s-.6-5.04,22.07-16.07c22.67-11.03,46.41-22.07,51.33-24.58s12.83-4.44,18.47-4.56c5.64-.12,13.67,3.48,20.15,11.27,6.48,7.8,6.96,21.35,6.36,25.78s-7.91,31.78-12.95,43.77c-5.04,11.99-13.84,30.92-13.84,30.92l-124.31-.22,18.83-47.61,13.91-18.71Z"/>
  <path class="st9" d="M80.66,428.58s3.48-3.96,5.16-10.19l1.68-6.24s3.24.96,5.4-1.08,4.68-8.27,4.44-14.75-.84-7.91-.84-7.91c0,0,1.2.84,3.12-1.2l1.92-2.04s5.04,5.76,9.23,5.4,6.72-13.79,6.72-13.79c0,0,1.56,6,3.96,3.84s2.76-8.03,2.76-8.03c0,0,6.24,1.92,8.39-2.16s1.68-10.55,1.68-10.55c0,0,5.28,4.68,6.96,4.08s.96-16.19.96-16.19c0,0,3,3.6,4.2.24s.72-6.36.72-6.36c0,0,1.32,1.32,1.56-1.68s-.24-5.16-.24-5.16c0,0,5.88,5.4,7.2,3.72s1.08-4.32,1.08-4.32c0,0,.24,2.16,1.44-.12s-.36-5.64-.36-5.64c0,0,7.8,4.2,8.87,2.16s.96-3.12.96-3.12c0,0,3.24.84,3.6-1.08s.72-5.64.72-5.64c0,0,16.31,6.96,13.91,33.82s-26.92,73.5-26.92,73.5l-78.26.5Z"/>
  <path class="st4" d="M103.92,403.04s2.76,5.28,5.88,3.6,4.68-8.51,4.68-8.51c0,0-1.2,12.59-4.8,12.35s-5.76-7.44-5.76-7.44Z"/>
  <path class="st4" d="M117.47,397.52s2.64,3.36,5.16,1.8,4.8-11.99,4.8-11.99c0,0-2.28,13.91-4.44,14.63s-5.52-4.44-5.52-4.44Z"/>
  <path class="st4" d="M132.7,392s.84,2.04,2.76,1.08,2.28-11.27,2.28-11.27c0,0,.36,13.91-1.44,13.91s-3.6-3.72-3.6-3.72Z"/>
  <path class="st4" d="M146.61,380.97s.84,4.56,3,3.48,2.28-13.55,2.28-13.55c0,0-1.44,16.91-5.28,10.07Z"/>
  <path class="st4" d="M158.73,369.46s1.32,5.04,3,3.12,2.4-12.71,2.4-12.71c0,0,.96,16.19-2.64,15.23s-2.76-5.64-2.76-5.64Z"/>
  <path class="st4" d="M123.95,413.47s3.72,2.52,5.76.96,4.92-7.2,4.92-7.2c0,0-3.6,10.43-5.88,9.71s-4.8-3.48-4.8-3.48Z"/>
  <path class="st4" d="M146.37,412.63s2.16,1.08,4.08-.36,3.96-12.59,3.96-12.59c0,0-2.16,14.87-8.03,12.95Z"/>
  <path class="st4" d="M159.21,395.96s.72,3.48,2.88,3,4.8-11.15,4.8-11.15c0,0-2.04,13.07-4.44,13.07s-3.24-4.92-3.24-4.92Z"/>
  <path class="st11" d="M69.86,356.27s-23.51,56.24-27.22,61.64-7.32,7.08-7.08,1.56,8.51-43.65,8.51-43.65c0,0-24.34,35.86-35.38,36.94,0,0,2.04-7.68,5.16-14.63,3.12-6.96,9.95-26.26,9.95-26.26,0,0-41.73,37.9-50.01,42.09-8.27,4.2-10.91,5.52-10.31,4.32s26.62-43.29,26.62-43.29c0,0-36.94,24.34-39.81,21.59s6.48-28.54,24.46-37.9c0,0,22.31-24.94,25.18-26.26s4.44-1.92,4.44-1.92c0,0-10.67,5.4-11.15,3.36s11.75-10.79,11.75-10.79l28.42-6.96,38.14,32.38-1.68,7.8Z"/>
  <path class="st4" d="M146.01,231.55s-12.35,2.76-18.47,6.96-7.32,8.51-8.27,10.07-2.16-.84-2.16-.84l-4.56,8.87s-5.64,13.19-6.48,12.83,1.92-9.23,1.92-9.23c0,0-2.64,2.04-2.28.84s5.16-9.95,5.16-9.95c0,0-3.36,3.48-3.24,2.64s.36-2.4.36-2.4c0,0-.6,4.56-1.92,5.28s-2.4,3.72-3.72,5.28l-1.32,1.56s7.44-1.92,6.96-.12-2.76,11.63-3.6,11.87-1.08-.6-1.08-.6c0,0,3,4.56,3,6.96s-4.68,9.71-4.92,7.44-.24-5.52-.24-5.52c0,0-1.8,4.32-2.28,3.36s-.6-2.4-.6-2.4c0,0,2.76,4.32-.24,13.31s-8.15,15.59-8.39,13.91,1.44-6.96,1.44-6.96c0,0-19.79,17.15-20.51,15.71s-.84-2.4-.84-2.4l-4.32,4.32s4.68-.36,6.6.72-5.76,6-5.76,6c0,0,3.6-.12,3,1.08s-1.56,1.92-1.56,1.92c0,0,1.68,2.88,5.88,3.12s16.55-5.16,15.71-1.56-13.07,13.07-13.07,13.07c0,0-6.36,13.07-7.56,14.27l-1.2,1.2,2.28-11.63s-18.95,26.38-19.55,24.82,7.44-27.82,7.44-27.82c0,0-10.91,23.15-11.63,21.23s.84-24.94.84-24.94c0,0-4.32,3-4.56,1.32s7.32-20.15,7.32-20.15c0,0-27.58,26.98-27.1,23.86s5.52-12.23,5.52-12.23c0,0-2.04,2.64-2.52,1.32s4.44-19.55,4.44-19.55c0,0-45.45,11.27-44.97,9.23s37.54-26.98,44.37-29.26,7.2-2.04,7.2-2.04l.12-2.04s-9.83-3.24-21.95-4.56c-12.11-1.32-31.42,2.16-31.42,2.16,0,0,31.18,1.44,35.62,3.84s-30.34,6.72-32.5,8.03-10.07-19.19-10.07-19.19c0,0,20.63-8.27,33.7-9.71s11.63-.84,13.43-2.76,5.04-7.08,5.88-8.75,3.24-13.55,8.51-23.03c5.28-9.47,19.79-32.74,35.98-34.78,16.19-2.04,25.78,1.08,32.5,2.76s14.39,5.16,17.15,5.52,22.55,17.75,22.55,17.75Z"/>
  <path class="st9" d="M58.23,416.23s5.88,4.56,9.47,3.36,6.36-11.15,6.36-11.15c0,0,6.84,3.36,9.59.84s2.16-18.23,2.16-18.23c0,0,.48,24.1-12.47,15.35,0,0-3.72,11.03-6.48,11.03s-8.63-1.2-8.63-1.2Z"/>
  <path class="st9" d="M89.77,382.05s5.04,3.84,8.15,1.8,3.48-10.91,3.48-10.91c0,0,.24,13.07-11.63,9.11Z"/>
  <path class="st9" d="M114.35,357.59s1.8,2.28,3.84,1.68,1.44-5.16,1.44-5.16c0,0-.72,6.12-5.28,3.48Z"/>
  <path class="st9" d="M123.23,350.99s1.2,2.64,3.84-.48,2.88-8.27,2.88-8.27c0,0-2.28,10.07-6.72,8.75Z"/>
  <path class="st9" d="M135.94,340.56s4.32.96,5.04-.96.48-3.24.48-3.24c0,0,.12,4.68-5.52,4.2Z"/>
  <path class="st4" d="M41.8,356.27s-22.55,41.37-25.42,44.61-5.76,5.88-5.76,5.88c0,0-3.12,6.48-1.92,6.48s9.89-4.29,10.91-7.32c.7-2.1-1.32-3.24.36-7.2s23.62-43.29,21.83-42.45Z"/>
  <path class="st4" d="M15.18,358.91s-36.34,44.49-39.22,45.93-6,2.76-6,2.76c0,0-7.8,11.27-6.6,11.39s14.27-6.72,16.55-8.87-.6-5.04.24-6.96,36.22-45.69,35.02-44.25Z"/>
  <path class="st4" d="M-25.36,360.1c0,.36-13.07,17.63-11.51,18.47s17.63-8.99,17.63-8.99c0,0-6.72,2.76-7.32,2.16s21.23-24.82,27.58-29.98,7.32-6.12,7.32-6.12c0,0-17.39,12.95-27.34,24.94-9.95,11.99-11.51,11.63-11.51,11.63l5.16-12.11Z"/>
  <path class="st4" d="M-12.16,364.9s13.67-12.71,19.67-16.07,13.07-10.79,14.27-12.47-5.28,8.87-10.79,13.79c-5.52,4.92-20.87,24.82-20.87,24.82l-9.11,5.88s5.88-9.23,6.84-15.95Z"/>
  <path class="st11" d="M41.2,304.46s-10.43,18.35-7.91,17.27,17.15-13.19,17.15-13.19c0,0-14.39,10.67-14.87,10.31s5.64-14.39,5.64-14.39Z"/>
  <path class="st11" d="M54.63,284.55s-7.56,10.67-4.8,10.67,21.83-9.83,21.83-9.83c0,0-8.15,30.82-5.28,29.74s12.95-17.39,12.95-17.39c0,0,0,2.28,1.32,2.28s8.63-5.76,8.63-5.76c0,0-9.35,6.72-9.35,1.92,0,0-13.07,17.75-12.95,16.79s6.24-29.38,6.24-29.38c0,0-21.95,11.03-21.59,9.83s3-8.87,3-8.87Z"/>
  <path class="st11" d="M17.1,279.76s-5.04,1.44-2.52,2.28,15.11-.96,15.11-.96c0,0-.6,1.8,1.32,2.4s17.51-2.64,17.51-2.64c0,0-17.87,3.36-18.47-.72,0,0-17.39,3.12-12.95-.36Z"/>
  <path class="st4" d="M18.3,302.54c.53,1.58-28.18,20.39-29.98,17.87s16.67-17.27,16.67-17.27c0,0,12.83-2.04,13.31-.6Z"/>
  <path class="st8" d="M23.45,273.52s4.92-2.88,6.12-4.8,1.56-5.16,1.56-5.16c0,0-1.92,8.99-.96,8.87s3.6-5.76,3.6-5.76c0,0-3.12,6.24-1.8,6.24s9.35-11.99,9.35-11.99c0,0-2.76,8.51-2.04,10.55s2.4,2.76,2.4,2.76c0,0-.12-2.16.6-3.12l.72-.96s-1.08,3.24,0,3.36,2.28-3.24,4.08-4.56,4.68-7.08,5.04-8.63-1.08-1.68-1.08-1.68l3.72-3s-1.08,7.91-3.12,10.79-3.24,5.88-1.32,7.8,3.6,2.28,3.6,2.28c0,0-2.64-.36-4.08-1.08s-8.63-.84-11.39-.24-4.68.48-4.68.48c0,0,4.08-3.12,4.2-4.56s-5.52,3.96-7.08,4.44.12-1.92-1.2-2.04-6.24,0-6.24,0Z"/>
  <path class="st8" d="M51.75,269.92s.48,5.04,2.16,4.32,4.8-8.39,5.28-10.55-.12-5.04-.12-5.04c0,0,2.76-2.88,3.6-3.96l.84-1.08-1.08,5.88s-3.36,8.15-2.28,8.27,2.64-.96,2.64-.96c0,0-4.56,6.72-3,7.56s7.56-4.08,7.56-4.08c0,0,.24,3.84,2.4,4.8s9.59-2.52,9.59-2.52c0,0-2.4,3.6-1.2,4.44s7.08-.84,7.08-.84c0,0-.12.48,2.88.6s6.72-1.8,6.72-1.8c0,0-1.68,7.2-.36,8.39s2.52,1.44,2.52,1.44c0,0-2.76,1.56-5.4,3.6l-2.64,2.04s1.44-3.6-.72-5.04-7.32.6-7.32.6c0,0-1.68-4.08-3.6-4.08h-1.92s-.96-2.88-4.32-3.12-5.4,1.2-5.4,1.2c0,0-.6-1.92-3.6-1.92h-4.2s-.84-2.04-2.4-1.8-4.92-1.8-3.72-6.36Z"/>
  <path class="st9" d="M38.2,253.25s-3,8.87-1.2,8.39,4.68-5.16,4.68-5.16c0,0-3.96,8.03-5.04,6.6s0-8.39,1.56-9.83Z"/>
  <path class="st9" d="M47.68,245.22s-4.56,11.87-2.28,10.67,4.32-5.88,4.32-5.88c0,0-4.08,5.76-3.96,4.8s1.92-9.59,1.92-9.59Z"/>
  <path class="st9" d="M57.99,250.13s-2.64,7.2-.96,7.2,2.52-1.44,2.52-1.44c0,0-4.08,2.76-1.56-5.76Z"/>
  <path class="st9" d="M64.35,262.85l4.68-4.44s-1.68,6.96-.72,7.2l.96.24s-.84-3.96,1.2-9.23c0,0-5.88,5.04-6.12,6.24Z"/>
  <path class="st9" d="M76.7,261.41s.72.84,1.8.48,4.8-5.04,4.8-5.04c0,0-.48,11.15.6,11.15s1.32-1.08,1.32-1.08c0,0-1.08,2.64-2.16,2.04s-1.08-9.23-1.08-9.23c0,0-4.56,5.28-5.28,1.68Z"/>
  <path class="st10" d="M103.92,251.57s-8.75,7.2-9.71,8.03,1.92.48,2.04,1.8-.72,6.36-.12,5.76,1.8-4.44,2.88-6,4.92-9.59,4.92-9.59Z"/>
  <path class="st9" d="M87.73,230.47s5.28-2.88,5.76-5.16,1.32-8.75,3-10.31,3.72-1.92,3.72-1.92c0,0-4.08-1.2-2.16-1.44s5.76-.36,9.11,1.08,6.48,5.76,7.56,6,.12,3.72-.84,4.8,2.88,5.4.36,8.39-5.4,5.04-10.43,5.4-11.15.72-10.91-.48,1.56-1.92,1.56-1.92c0,0-5.04,1.32-4.2.12s1.44-1.44,1.44-1.44c0,0-5.76,0-3.72-.96l2.04-.96s-5.04,0-2.28-1.2Z"/>
  <path class="st9" d="M110.4,212.96s3.6,4.2,5.28,4.68,1.2,1.68.96,3.6,1.56,4.8,1.56,5.88-.6,2.28-.6,2.28c0,0,1.68-.6,1.68-2.64s-.96-5.76-.6-7.68-2.52-3.36-3.72-3.72-4.44-3.36-4.56-2.4Z"/>
  <path class="st4" d="M110.28,224.47s-.12,5.88-4.44,6.6-8.51-3.72-8.87-7.44,1.08-7.68,5.88-8.03,7.56,7.2,7.44,8.87Z"/>
  <path class="st5" d="M97.81,222.19s1.56-1.44,2.76-2.4,4.44-1.56,6-.24,2.28,3.84,2.52,3.24-1.32-5.52-5.28-5.88-5.4,2.52-6,5.28Z"/>
  <path class="st5" d="M98.29,224.35s.36-.36.96.48,1.08,3.24,3.96,3.72,4.08-.96,4.56-2.28.72-2.52,1.2-1.92-.12,5.16-3.48,5.64-6.96-1.8-7.2-5.64Z"/>
  <path class="st8" d="M99.84,223.87s.12-3.36,2.88-3.72,4.2,1.44,4.44,3.6,0,3.96-2.52,4.2-4.44-1.44-4.8-4.08Z"/>
  <path class="st9" d="M101.16,225.79s-.72-4.44,1.68-4.8,3.72,2.16,3.96,3.96-4.92,1.56-5.64.84Z"/>
  <path class="st2" d="M103.56,224.23s-2.04-1.92-.72-2.16.72,2.16.72,2.16Z"/>
  <path class="st8" d="M111.84,225.79s.72,3.84-.96,5.4-4.08,1.8-4.08,1.8c0,0,3.36.72,5.04-.96s0-6.24,0-6.24Z"/>
  <path class="st8" d="M95.05,227.35s.48,2.76,4.2,4.2,5.64,1.44,5.64,1.44l-.48,1.08s-4.32.12-6.72-.96-4.32-5.28-2.64-5.76Z"/>
  <path class="st9" d="M60.27,233.47s-3.72,6.96-2.64,6.48l2.16-.96s-1.68,1.56-.36,1.56,5.52-4.32,5.52-4.32c0,0-2.4,5.16-.84,5.16s3.6-1.68,3.6-1.68c0,0-3.6,1.32-3.12.36s1.68-5.88,1.68-5.88c0,0-6.96,5.88-5.52,4.8s-.72-1.08-.72-1.08c0,0-2.16,2.52.24-4.44Z"/>
  <path class="st0" d="M121.19,213.2s-.6,3.12.24,4.56l.84,1.44s-2.16,5.16-2.04,7.8,1.8,5.52,3.48,5.64,5.28-3.96,8.75-3.12,1.08,4.2,2.88,4.68,10.43-5.16,10.43-5.16l40.17-23.27s12.59-8.03,17.99-8.87,10.79-3.24,14.15-2.28,6,.72,6.96,3.48.36,7.68,1.56,7.32,2.52-6.84.96-12.71-10.55-12.83-19.79-13.07-19.55,10.07-23.62,12.35-25.06,14.87-34.78,17.15-21.59,4.2-23.51,4.2-4.68-.12-4.68-.12Z"/>
  <path class="st2" d="M146.85,231.31s15.59-9.59,21.71-12.83c6.12-3.24,27.94-16.55,30.58-18.11s6.72-3,8.63-3,4.2-1.8,7.2-1.8,7.8,1.44,9.23,2.52,1.32,2.88,1.32,2.88c0,0,1.8-4.56-3.48-6.12-5.28-1.56-9.59-.36-12.71.24s-5.88-.24-6.96-.24-19.67,12.23-26.74,15.35-22.55,11.87-28.54,13.31-18.23,6-16.43,6,3.12.24,3.48,1.56.12,3.36,1.92,3.48,10.79-3.24,10.79-3.24Z"/>
  <path class="st6" d="M123.83,215.12s0,2.28,2.28,2.64,16.55-3.72,22.79-6.12,32.74-15.59,39.57-20.39,12.35-6.36,16.07-6.36,7.2,1.32,7.08,2.4-6.24,2.64-6.24,2.64c0,0,2.64-2.88-.24-3.24s-6.48.48-18.47,7.2c-11.99,6.72-29.62,16.91-37.06,19.55s-27.82,10.19-25.78,1.68Z"/>
  <path class="st6" d="M133.54,225.91s20.03-7.91,39.22-17.51c19.19-9.59,29.86-16.79,30.46-17.75s-5.4,1.68-12.23,5.52-48.81,23.27-53.85,25.3-8.51,1.56-7.56,2.88,3.96,1.56,3.96,1.56Z"/>
  <path class="st6" d="M214.25,188.73c.36,0,7.68,1.44,9.83,3.84s2.52,3.48,2.52,2.64-6-8.99-9.71-10.91-8.27-2.28-8.27-2.28c0,0,3.24,2.16,4.56,3.84s1.08,2.88,1.08,2.88Z"/>
  <path class="st12" d="M121.19,213.2s.72-.84,2.88-.96,19.07-1.44,32.14-7.08c13.07-5.64,29.62-15.71,33.22-18.35s21.11-16.43,35.02-.6c0,0,6.12,6,3,17.63,0,0,1.08-10.19-3.24-15.47s-11.15-8.27-17.15-7.91c-6,.36-13.07,5.88-19.07,9.95s-33.1,19.07-43.65,21.23-18.23,3-19.55,3-3.96-.96-3.6-1.44Z"/>
  <path class="st7" d="M142.06,240.78s2.4-5.76,13.91-5.76,62.84,15.35,84.43,45.57c21.59,30.22,19.67,43.65,17.27,41.73s-13.91-31.18-35.02-46.53c-21.11-15.35-47.97-25.9-58.52-26.38s-23.51-5.76-22.07-8.63Z"/>
  <path class="st4" d="M36.97,410.12s-3.23,12.94-.29,13c4.89.1,7.53-7.72,8.5-9.68s-2.35-1.08-2.44-2.64,7.72-35.28,7.14-32.84-9.09,32.06-9.87,32.25-3.03-.1-3.03-.1Z"/>
  <path class="st1" d="M66.49,359.59s-20.04,49.07-21.21,50.43-1.95.49-1.95.49l8.21-31.77,14.95-19.16Z"/>
  <path class="st1" d="M20.06,402.01s3.91-8.5,7.14-13.98,17.01-31.18,17.01-31.18c0,0-.98,16.13-1.95,18.08s-21.7,29.71-21.89,29.03-.29-1.95-.29-1.95Z"/>
  <path class="st1" d="M-18.45,404.45s4.2-6.55,7.33-10.85,34.7-41.83,35.77-42.62,3.81-1.76,3.81-1.76c0,0-3.52,20.13-6.65,22.77s-40.07,35.48-40.07,35.48l-.2-3.03Z"/>
  <path class="st1" d="M-23.14,368.48s33.43-32.74,34.01-33.04,14.56-7.23,13.78-5.77-29.62,26.49-36.85,32.45-10.95,6.35-10.95,6.35Z"/>
  <path class="st4" d="M97.99,254.69s-1.44,3.96-.36,3.96,4.68-4.68,4.68-4.68c0,0-8.81,9.71-7.38,9.71s4.5.72,4.5.72l7.74-12.95-1.8-2.88-7.38,6.12Z"/>
  <path class="st4" d="M108.96,256.13s-4.32,9.89-5.58,8.81,5.58-8.81,5.58-8.81Z"/>
  <path class="st4" d="M103.38,254.69c0,.54-.54,6.48.72,5.94s.54-6.84.54-6.84l-1.26.9Z"/>
  <path class="st4" d="M110.22,255.23c-1.26.9-6.48,3.24-4.5,3.42s4.5-3.42,4.5-3.42Z"/>
  <path class="st4" d="M101.22,259.73s-1.8,7.74.54,6.3.54-6.66.54-6.66l-1.08.36Z"/>
  <path class="st9" d="M124.76,238.08s-5.33,7.99-6.88,7.33l-1.55-.67s-4.66,12.66-6.22,13.55,5.55-16.21,5.55-16.21c0,0,1.78,1.78,3.55.44s5.55-4.44,5.55-4.44Z"/>
  <path class="st9" d="M89.45,272.28s1.55,1.11,4.66-.89,3.78-2.66,3.78-2.66c0,0-2.89,14.66-.44,13.77s8.22-14.88,8.22-14.88c0,0-6.22,10.88-6.44,8.44s.67-8.66.67-8.66l-10.44,4.89Z"/>
  <path class="st9" d="M100.11,253.63s-3.33,3.78-1.55,3.78,4-2,4-2c0,0-3.33,6-2.66,6s7.27-9.94,7.27-9.94c0,0-8.83,5.28-7.49,4.39s.44-2.22.44-2.22Z"/>
  <path class="st9" d="M86.79,258.73s-3.55,5.55-1.11,5.33,8.22-8.66,8.22-8.66c0,0-7.55,7.99-7.11,3.33Z"/>
  <path class="st9" d="M93.23,262.29s1.33,2,3.11,1.33,3.78-4.89,3.78-4.89c0,0-4.89,6-6.88,3.55Z"/>
  <path class="st9" d="M102.11,264.95c-.32,1.08,6.22-5.55,6.22-5.55,0,0-5.55,3.33-6.22,5.55Z"/>
  <path class="st9" d="M94.57,212.96s-.48,7.2-4.32,9.59-7.68,12.47-9.59,10.55,2.4-9.59,2.4-9.59c0,0,2.4,2.88,5.28-2.4s6.24-8.15,6.24-8.15Z"/>
  <path class="st9" d="M58.59,223.51s-3.36,7.2,2.88,6.24c0,0-2.88.96-2.88-6.24Z"/>
  <path class="st9" d="M66.27,244.14s-2.4,7.68,2.4,7.2,3.36-.96,3.36-.96c0,0-7.2,2.4-5.76-6.24Z"/>
  <path class="st9" d="M46.6,232.63s-4.32,10.07-1.44,10.07h2.88s-3.84.48-1.44-10.07Z"/>
  <path class="st9" d="M75.86,235.98s-.48,8.15,2.4,8.15h2.88s-3.36.96-5.28-8.15Z"/>
  <path class="st9" d="M63.39,218.71s-.96,7.2.48,6.24l1.44-.96s-1.44,1.92-1.92-5.28Z"/>
  <path class="st9" d="M108.48,239.34s-12.95,8.15-13.43,6.72.96-4.8.96-4.8c0,0,0,5.76,12.47-1.92Z"/>
</svg>