<?xml version="1.0" encoding="UTF-8"?>
<svg id="Vrstva_1" xmlns="http://www.w3.org/2000/svg" version="1.1" viewBox="0 0 283.46 425.2">
  <!-- Generator: Adobe Illustrator 30.1.0, SVG Export Plug-In . SVG Version: 2.1.1 Build 136)  -->
  <defs>
    <style>
      .st0 {
        fill: #110a0c;
      }

      .st1 {
        fill: #fff;
        opacity: .25;
      }

      .st2 {
        fill: #736268;
      }

      .st3 {
        fill: #afa475;
      }

      .st4 {
        fill: #32262c;
      }

      .st5 {
        fill: #3b2d34;
      }

      .st6 {
        fill: #fec900;
      }

      .st7 {
        fill: #b9bf7b;
      }

      .st8 {
        fill: #c4c3d7;
        opacity: 0;
      }
    </style>
  </defs>
  <rect class="st6" x="-4.84" width="294.2" height="457.76"/>
  <path class="st8" d="M59.99,354.24s-15.86.34-15.52,4.39,21.6,9.45,36.78,10.46,46.57-1.35,66.48-1.69c19.91-.34,77.62-13.16,83.02-16.54s-13.84-4.72-25.99-5.06c-12.15-.34-39.82,0-39.82,0l-104.95,8.44Z"/>
  <path class="st5" d="M19.24,288.85s4.81-12.66,8.86-16.2,9.62-15.44,34.42-14.68,31.89,7.34,58.97,11.14c27.08,3.8,45.05,4.3,71.63,1.52s46.57,4.81,47.84,18.22.76,32.14-20.75,41.76c-21.51,9.62-77.45,32.65-116.43,34.68-38.98,2.02-71.37-15.95-80.23-31.64-8.86-15.69-8.69-35.07-4.3-44.8Z"/>
  <path class="st7" d="M31.39,271.39s2.28,2.28,0,5.32-8.16,12.07-9.11,9.62,6.33-14.43,9.11-14.93Z"/>
  <path class="st0" d="M41.51,264.55s-9.01,5.58-11.39,11.39-11.91,11.05-12.85,19.19c-.94,8.15-3.35,17.76,13.61,26.37,16.96,8.61,40.75,9.87,45.31,11.39s26.07,3.04,55.18,1.52,55.94-15.69,65.81-19.49c9.87-3.8,16.2-14.46,13.92-17.23s-15.19-.12-22.02,2.1-53.4,5.76-73.15,4.49c-19.74-1.27-58.72-22.11-62.52-25.23s-5.82-6.16-4.81-7.68,4.56-3.54,4.56-3.54c0,0-6.12-3.53-11.64-3.29Z"/>
  <path class="st1" d="M55.2,284.81s-2.8-1.66-5.28,0-8.19,9.37-9.48,14.7,1.24,7.32,4.97,8.71,13.06,4.82,14.92,2.02,6.16-15.61,6.37-18.03-6.22-4.97-8.39-5.75-3.11-1.66-3.11-1.66Z"/>
  <path class="st5" d="M83.31,294.42s4.77,6.83,5.78,10.12,10.12,10.38,15.69,11.64,17.21,5.32,36.7,4.81,27.08-9.32,32.65-13.27,9.11-5.6,9.87-7.68-100.41-8.16-100.7-5.63Z"/>
  <path class="st2" d="M45.88,262.53s7.78.76,7.53,3.04c0,0,10.38-3.04,21.51-3.04s18.48,2.02,28.85,5.57c10.38,3.54,39.99,8.12,59.99,6.47,20-1.66,47.79-4.4,54.65-3.18,0,0-11.75-3.53-53.89,0-31.05,2.6-76.18-10.95-90.36-13.45s-29.69,2.35-29.69,2.35c0,0-.23,2.02,1.4,2.24Z"/>
  <path class="st4" d="M200.97,286.74s9.36,2.62,12.15,5.4,15.44,18.73,15.44,23.79-2.69,11.65-2.69,11.65c0,0,11.34-5.7,12.46-14.37s-13.45-40.14-13.45-40.14c0,0-5.17-.59-8.72,0s-22.27,1.84-22.27,1.84c0,0-.25,2.34,4.56,2.95s7.09,1.2,7.09,1.2c0,0-12.66,1.69-11.64,3.71s7.09,3.96,7.09,3.96Z"/>
  <path class="st3" d="M211.55,278.48s-15.19-.66-15.23-2.19c0,0,7.26.51,11.98,0s13.38-3.04,16.56-3.21,8.58,1.52,12.8,3.88-2.19,8.27-2.19,8.27l3.46,26.47s.77,6.98-7.72,12.34c-8.49,5.36-5.34,3.55-5.34,3.55,0,0,4.04-4.56,4.21-7.43s-1.18-10.27-2.7-12.73-9.72-12.42-11.27-14.78-7.55-7.58-11.84-6.92-9.79-2.36-7.93-2.36,7.59-.84,10.46-1.86,4.77-3.04,4.77-3.04Z"/>
  <path class="st7" d="M267.7,289.11s-5.23-1.18-9.79-1.69-11.31-1.35-11.31-1.35c0,0-7.14-13.02-22.55-13.26,0,0,.62,6-2.42,7.01s-5.54,1.13-5.54,1.13c0,0,7.05,3.42,7.56,8.15l.51,4.72s6.75,6.41,7.26,10.12,1.79,9.81,4.56,9.96,3.12,0,3.12,0c0,0,6.16-5.57,7.34-7.42s.67-4.09,4.22-3.48,15.86-3.78,17.04-4.45,0-9.45,0-9.45Z"/>
  <path class="st3" d="M228.22,289.78s1.69,6.38,3.04,7.92,1.35,2.77,1.35,2.77c0,0,1.43-1.58,5.78-1.58s16.16-.7,19.87-1.2,6.24-2.57,6.24-2.57c0,0-8.94,1.74-13.84,1.74s-9.96.83-13.67,0-8.77-7.08-8.77-7.08Z"/>
  <path class="st0" d="M35.35,339.73s11.19,13.45,27.47,18.4c26.36,8.02,47.61,3.72,54.95,3.19,5.23-.38,11.98-1.77,11.98-1.77,0,0,.09-1.09-6.83-1.09s-35.27-1.52-53.32-6.58c-18.05-5.06-30.37-15.19-32.4-15.19s-1.86,3.04-1.86,3.04Z"/>
</svg>