<?xml version="1.0" encoding="UTF-8"?>
<svg id="Vrstva_1" xmlns="http://www.w3.org/2000/svg" version="1.1" viewBox="0 0 283.46 425.2">
  <!-- Generator: Adobe Illustrator 30.1.0, SVG Export Plug-In . SVG Version: 2.1.1 Build 136)  -->
  <defs>
    <style>
      .st0 {
        fill: #2d0f0c;
      }

      .st1 {
        fill: #c4b8b7;
      }

      .st2 {
        fill: #e5b5b1;
      }

      .st3 {
        fill: #cfa763;
      }

      .st4 {
        fill: #841b11;
      }

      .st5 {
        fill: #421c1a;
      }

      .st6 {
        fill: #a92c16;
      }

      .st7 {
        fill: #f3d1cd;
      }

      .st8 {
        fill: #fec900;
      }
    </style>
  </defs>
  <rect class="st8" x="-4.84" width="294.2" height="457.76"/>
  <path class="st1" d="M120.67,196.44s-8.49.76-6.21,7.86c0,0-3.04,3.55-1.52,6.59,0,0-11.15,13.56,5.58,16.1s48.92-.13,48.92-.13c0,0,14.45-1.52,4.69-15.59,0,0,.51-4.31-2.03-6.72,0,0,2.41-9.25-7.48-9.25s-41.95,1.14-41.95,1.14Z"/>
  <path class="st6" d="M103.18,247.52s.63-1.39,2.15-1.77,6.84.13,6.84.13c0,0,1.01.13,1.52,1.77s.38,57.29.38,57.29c0,0-1.01,2.15-1.9,2.53s-6.72,0-6.72,0c0,0-1.65-1.39-1.9-2.92s-.38-57.03-.38-57.03Z"/>
  <path class="st6" d="M169.97,247.9s.76-1.39,2.15-1.9,6.59,0,6.59,0c0,0,1.39,1.52,1.52,2.41s0,56.53,0,56.53c0,0-.89,2.41-2.03,2.66s-6.59,0-6.59,0c0,0-1.52-.38-1.77-2.79s.13-56.91.13-56.91Z"/>
  <path class="st1" d="M103.43,316.72v-7.1s.76-2.41,2.03-2.15,6.21.25,6.21.25c0,0,2.15.25,2.41,2.53s-.13,7.35-.13,7.35c0,0-1.01,1.14-2.41,1.52s-5.96.13-5.96.13c0,0-1.52-.63-2.15-2.53Z"/>
  <path class="st1" d="M169.46,310s1.14-2.53,2.15-2.41,6.59,0,6.59,0c0,0,1.52.89,1.77,2.41s0,7.35,0,7.35c0,0-.51,1.52-2.28,2.03h-5.58s-2.66-.25-2.66-2.41v-6.97Z"/>
  <polygon class="st4" points="123.58 316.85 128.9 396.95 140.31 396.69 142.34 337.38 143.99 396.06 156.03 396.06 160.46 316.21 123.58 316.85"/>
  <path class="st0" d="M127.76,395.93v11.66s-.13,1.52,1.65,2.03,11.03-.13,11.03-.13c0,0,1.39-.76,1.52-1.39s-.25-11.91-.25-11.91l-1.27-.63-11.41.25-1.27.13Z"/>
  <path class="st0" d="M143.99,395.43l-.76,1.01.25,11.66s.25,1.9,1.77,1.9h10.77s1.52-1.01,1.52-1.9-.25-11.79-.25-11.79c0,0-.84-.55-1.22-.67s-12.09-.21-12.09-.21Z"/>
  <path class="st6" d="M122.57,293.27s-.13,3.04-1.65,4.82-3.93,4.94-4.44,7.35.13,11.15.13,11.15c0,0,1.52,1.65,2.53,1.65s46.64-.51,46.64-.51c0,0,1.39-.89,1.77-3.42s.25-9.38-.25-10.39-4.31-5.83-5.45-7.6-1.27-4.69-1.27-4.69c0,0,1.65-7.22,3.55-9s5.49-5.08,5.87-8.12-.04-26.6-.04-26.6c0,0-2.41-4.18-5.07-4.44s-46.39,0-46.39,0c0,0-4.69,1.52-4.82,4.18s.08,28.96.08,28.96c0,0,1.7,1.97,3.22,3.23s4.94,4.94,5.32,7.1.25,6.34.25,6.34Z"/>
  <polygon class="st3" points="118.64 285.8 118.64 293.53 164.9 293.4 164.9 286.05 118.64 285.8"/>
  <path class="st4" d="M118.51,278.32s-.13,1.52,12.93,2.15c13.05.63,32.83-1.27,34.35-2.03s2.15-2.03,2.15-2.03c0,0-18.88.51-27.12,1.01-8.24.51-23.07-.25-23.07-.25,0,0-.13.51.76,1.14Z"/>
  <path class="st4" d="M157.04,296.7s-27.5-.63-29.91-.38-5.96,5.32-5.96,5.32c0,0,2.41-2.92,7.6-3.42s29.28-.25,29.28-.25l-1.01-1.27Z"/>
  <polygon class="st3" points="118.51 243.46 124.59 240.93 159.95 240.68 165.66 243.34 118.51 243.46"/>
  <path class="st7" d="M124.34,201.01l-7.1,32.57s-.38,8.11,6.34,7.98,38.4-.38,38.4-.38c0,0,4.82-.76,6.08-3.55s-6.34-37.77-6.34-37.77l-37.39,1.14Z"/>
  <path class="st0" d="M116.99,157.66s-1.52-3.55,7.22-5.2,34.85-1.01,38.91.51,4.82,2.66,4.82,5.32-6.08,42.84-6.08,42.84l-37.52-.13-1.77-.13-5.58-43.22Z"/>
  <path class="st3" d="M138.28,152.21s-.76-6.34,4.18-6.08,3.68,5.83,3.68,5.83l-7.86.25Z"/>
  <path class="st5" d="M140.82,154.24s-13.94-.63-15.46.63.89,34.47.89,34.47l2.28.63s-2.28-31.43-1.01-32.7,13.31-3.04,13.31-3.04Z"/>
  <path class="st3" d="M118.13,176.55s7.98,14.83,24.33,13.18,23.95-13.94,23.95-13.94l.51,1.52s-4.94,14.32-24.21,15.46c-19.26,1.14-25.73-16.1-25.73-16.1l1.14-.13Z"/>
  <path class="st6" d="M116.23,177.18s4.06,23.19,26.24,21.8c22.18-1.39,25.22-19.39,25.6-21.55l.38-2.15-1.27-.13s-1.14,20.02-24.46,19.64c-23.32-.38-25.73-18.12-25.73-18.12l-.76.51Z"/>
  <path class="st1" d="M126.75,210.89s7.35-3.55,11.53-.38c0,0,1.77.13,1.52-1.65s-3.3-7.1-8.24-6.08-7.86,7.35-4.82,8.11Z"/>
  <path class="st1" d="M148.17,210.39s6.59-2.79,10.27.13c0,0,1.39,1.01,1.9-.38s-.51-7.98-6.59-7.6-7.86,5.2-7.86,6.34,1.52,2.15,2.28,1.52Z"/>
  <path class="st0" d="M131.95,215.96s-.38-3.42,2.03-3.17,1.27,4.06,1.27,4.06c0,0-2.92,2.66-3.3-.89Z"/>
  <path class="st0" d="M151.34,215.58s0-3.04,1.77-2.92,1.52,3.3,1.52,3.3c0,0,.13,1.9-1.39,1.9s-1.65-1.01-1.9-2.28Z"/>
  <path class="st2" d="M143.35,224.96s-2.03.51-2.41-6.59c-.38-7.1,5.07-6.08,4.82-.38s-.38,7.22-2.41,6.97Z"/>
  <path class="st2" d="M126.75,226.35s-2.79-5.07,1.39-6.59,5.72,1.08,6.34,3.3c.91,3.29-1.3,3.9-2.95,4.54s-4.27-.1-4.78-1.24Z"/>
  <path class="st2" d="M152.71,227.1s.02-8.6,4.21-8.09,4.18,8.11,2.79,8.49-6.74.11-6.99-.4Z"/>
  <path class="st1" d="M143.1,229.78s-1.77-4.82-6.34-4.44-9.25,2.53-12.17,1.77-4.18-1.9-4.18-1.9c0,0,1.52,11.66,11.03,11.03s11.91-3.68,11.66-6.46Z"/>
  <path class="st1" d="M144.11,230.79s-1.39-5.07,3.68-5.32,6.21,1.77,10.77,2.03,6.97-1.77,6.97-1.77c0,0-1.77,10.01-10.39,10.52s-11.28-3.55-11.03-5.45Z"/>
  <path class="st3" d="M122.04,252.12s-1.56-.33-1.43-2.08,1.63-2.15,2.6-1.3,1.69,2.73-1.17,3.39Z"/>
  <path class="st3" d="M122.04,257.53s-1.63-.26-1.56-1.76,1.11-2.02,2.15-1.89,1.43,1.63,1.43,2.02-.59,1.3-2.02,1.63Z"/>
  <path class="st3" d="M120.48,261.43c-.02-.26,0-2.08,1.63-2.28s1.82,1.17,1.89,1.95-.98,1.76-1.76,1.89-1.69-.59-1.76-1.56Z"/>
  <path class="st3" d="M120.54,266.64s-.46-2.21,1.56-2.08,1.89,2.02,1.76,2.47-.78,1.11-1.69,1.24-1.56-.78-1.63-1.63Z"/>
  <path class="st3" d="M122.1,270.03s-1.95.33-1.56,2.28,2.02,1.63,3,1.24,1.24-2.08.59-2.93-2.02-.59-2.02-.59Z"/>
  <path class="st3" d="M159.93,250.17s.02-.11.07-.27c.16-.49.61-1.48,1.68-1.48,1.43,0,1.82,1.17,1.69,2.21s-.91,1.76-1.76,1.76-1.82-.52-1.69-2.21Z"/>
  <path class="st3" d="M160.13,255.7s.07-2.02,1.56-1.95,1.63,1.5,1.63,2.21-.39,1.56-1.63,1.69-1.56-1.24-1.56-1.95Z"/>
  <path class="st3" d="M160,261.24s.33-2.28,1.63-2.21,1.63.65,1.56,2.21-.85,1.82-1.69,1.82-1.69-.98-1.5-1.82Z"/>
  <path class="st3" d="M160.13,266.58s.13-1.76,1.56-2.08,1.56,2.08,1.5,2.73-1.37,1.43-1.89,1.37-1.3-1.17-1.17-2.02Z"/>
  <path class="st3" d="M160.32,271.59s.59-1.76,1.63-1.56,1.43,1.37,1.17,2.73-2.08,1.37-2.34.98-.59-1.76-.46-2.15Z"/>
  <path class="st3" d="M122.69,249.91c.2,0,15.04.33,15.04.33l-.13,1.63-14.78-.26-.13-1.69Z"/>
  <polygon class="st3" points="123.6 255.18 137.53 255.7 137.47 257.07 123.28 256.62 123.6 255.18"/>
  <polygon class="st3" points="123.41 260.72 123.67 260.72 137.8 261.11 137.86 262.8 122.23 262.22 123.41 260.72"/>
  <polygon class="st3" points="123.28 265.73 137.8 266.38 137.73 268.14 122.82 267.49 123.28 265.73"/>
  <polygon class="st3" points="123.47 271.53 137.73 271.98 137.66 273.41 123.8 273.22 123.47 271.53"/>
  <polygon class="st3" points="145.54 271.79 161.17 271.46 161.3 272.63 146 273.22 145.54 271.79"/>
  <polygon class="st3" points="145.93 266.64 160.97 266.12 161.04 267.23 146.19 268.01 145.93 266.64"/>
  <polygon class="st3" points="146.06 260.98 161.17 260.72 160.26 261.95 146 262.48 146.06 260.98"/>
  <polygon class="st3" points="145.74 255.7 146 255.7 161.04 255.25 161.04 256.62 145.93 256.88 145.74 255.7"/>
  <polygon class="st3" points="145.8 250.37 161.04 249.84 161.1 250.89 146.13 251.73 145.8 250.37"/>
  <path class="st3" d="M117.12,170.59s-3.55.76-3.3,4.06,1.9,4.06,3.68,3.68,2.41-7.86-.38-7.73Z"/>
  <path class="st3" d="M167.56,170.34s2.53,0,3.04,3.04-.25,4.69-2.03,5.07-2.66-2.41-2.53-4.18,1.01-4.06,1.52-3.93Z"/>
  <path class="st0" d="M132.69,217.64s1.82.84,2.41-.1.34-3.1.34-3.1l-2.76,3.2Z"/>
</svg>