<?xml version="1.0" encoding="UTF-8"?>
<svg id="Vrstva_1" xmlns="http://www.w3.org/2000/svg" version="1.1" viewBox="0 0 283.46 283.46">
  <!-- Generator: Adobe Illustrator 30.1.0, SVG Export Plug-In . SVG Version: 2.1.1 Build 136)  -->
  <defs>
    <style>
      .st0 {
        fill: #c4b8b7;
      }

      .st1 {
        fill: #e5b5b1;
      }

      .st2 {
        fill: #a92c16;
      }

      .st3 {
        fill: #841b11;
      }

      .st4 {
        fill: #cfa763;
      }

      .st5 {
        fill: #421c1a;
      }

      .st6 {
        fill: #2d0f0c;
      }

      .st7 {
        fill: #f3d1cd;
      }

      .st8 {
        fill: #fec900;
      }
    </style>
  </defs>
  <rect class="st8" x="-4.84" y="-137.87" width="294.2" height="457.76"/>
  <path class="st0" d="M125.58,95.59s-7.02.63-5.13,6.5c0,0-2.51,2.93-1.26,5.45,0,0-9.22,11.21,4.61,13.31,13.83,2.1,40.44-.11,40.44-.11,0,0,11.95-1.26,3.88-12.89,0,0,.42-3.56-1.68-5.56,0,0,1.99-7.65-6.18-7.65s-34.68.94-34.68.94h0Z"/>
  <path class="st2" d="M111.13,137.82s.52-1.15,1.78-1.46,5.65.11,5.65.11c0,0,.83.11,1.26,1.46s.31,47.36.31,47.36c0,0-.83,1.78-1.57,2.09s-5.56,0-5.56,0c0,0-1.36-1.15-1.57-2.41s-.31-47.14-.31-47.14h0Z"/>
  <path class="st2" d="M166.34,138.13s.63-1.15,1.78-1.57,5.45,0,5.45,0c0,0,1.15,1.26,1.26,1.99s0,46.73,0,46.73c0,0-.74,1.99-1.68,2.2s-5.45,0-5.45,0c0,0-1.26-.31-1.46-2.31s.11-47.05.11-47.05Z"/>
  <path class="st0" d="M111.33,195.02v-5.87s.63-1.99,1.68-1.78,5.13.21,5.13.21c0,0,1.78.21,1.99,2.09s-.11,6.08-.11,6.08c0,0-.83.94-1.99,1.26s-4.93.11-4.93.11c0,0-1.26-.52-1.78-2.09Z"/>
  <path class="st0" d="M165.92,189.47s.94-2.09,1.78-1.99,5.45,0,5.45,0c0,0,1.26.74,1.46,1.99s0,6.08,0,6.08c0,0-.42,1.26-1.88,1.68h-4.61s-2.2-.21-2.2-1.99v-5.76h0Z"/>
  <polygon class="st3" points="127.99 195.13 132.39 261.34 141.82 261.13 143.5 212.1 144.86 260.61 154.81 260.61 158.48 194.6 127.99 195.13"/>
  <path class="st6" d="M131.44,260.5v9.64s-.11,1.26,1.36,1.68,9.12-.11,9.12-.11c0,0,1.15-.63,1.26-1.15s-.21-9.85-.21-9.85l-1.05-.52-9.43.21-1.05.11h0Z"/>
  <path class="st6" d="M144.86,260.09l-.63.83.21,9.64s.21,1.57,1.46,1.57h8.9s1.26-.83,1.26-1.57-.21-9.75-.21-9.75c0,0-.69-.45-1.01-.55s-9.99-.17-9.99-.17h0Z"/>
  <path class="st2" d="M127.15,175.64s-.11,2.51-1.36,3.98-3.25,4.08-3.67,6.08.11,9.22.11,9.22c0,0,1.26,1.36,2.09,1.36s38.56-.42,38.56-.42c0,0,1.15-.74,1.46-2.83s.21-7.75-.21-8.59-3.56-4.82-4.51-6.28-1.05-3.88-1.05-3.88c0,0,1.36-5.97,2.93-7.44s4.54-4.2,4.85-6.71-.03-21.99-.03-21.99c0,0-1.99-3.46-4.19-3.67s-38.35,0-38.35,0c0,0-3.88,1.26-3.98,3.46s.07,23.94.07,23.94c0,0,1.41,1.63,2.66,2.67s4.08,4.08,4.4,5.87.21,5.24.21,5.24h.02Z"/>
  <polygon class="st4" points="123.91 169.46 123.91 175.85 162.15 175.74 162.15 169.67 123.91 169.46"/>
  <path class="st3" d="M123.8,163.28s-.11,1.26,10.69,1.78c10.79.52,27.14-1.05,28.4-1.68s1.78-1.68,1.78-1.68c0,0-15.61.42-22.42.83-6.81.42-19.07-.21-19.07-.21,0,0-.11.42.63.94h0Z"/>
  <path class="st3" d="M155.65,178.47s-22.73-.52-24.73-.31-4.93,4.4-4.93,4.4c0,0,1.99-2.41,6.28-2.83,4.29-.41,24.2-.21,24.2-.21l-.83-1.05Z"/>
  <polygon class="st4" points="123.8 134.46 128.82 132.37 158.05 132.16 162.78 134.36 123.8 134.46"/>
  <path class="st7" d="M128.62,99.37l-5.87,26.92s-.31,6.7,5.24,6.6,31.74-.31,31.74-.31c0,0,3.98-.63,5.03-2.93s-5.24-31.22-5.24-31.22l-30.91.94h0Z"/>
  <path class="st6" d="M122.54,63.53s-1.26-2.93,5.97-4.3,28.81-.83,32.17.42,3.98,2.2,3.98,4.4-5.03,35.41-5.03,35.41l-31.02-.11-1.46-.11-4.61-35.73h0Z"/>
  <path class="st4" d="M140.14,59.03s-.63-5.24,3.46-5.03,3.04,4.82,3.04,4.82l-6.5.21h0Z"/>
  <path class="st5" d="M142.24,60.71s-11.52-.52-12.78.52.74,28.49.74,28.49l1.88.52s-1.88-25.98-.83-27.03,11-2.51,11-2.51h0Z"/>
  <path class="st4" d="M123.48,79.15s6.6,12.26,20.11,10.9c13.52-1.36,19.8-11.52,19.8-11.52l.42,1.26s-4.08,11.84-20.01,12.78c-15.92.94-21.27-13.31-21.27-13.31l.94-.11h0Z"/>
  <path class="st2" d="M121.91,79.67s3.36,19.17,21.69,18.02c18.34-1.15,20.85-16.03,21.16-17.81l.31-1.78-1.05-.11s-.94,16.55-20.22,16.24c-19.28-.31-21.27-14.98-21.27-14.98l-.63.42Z"/>
  <path class="st0" d="M130.61,107.54s6.08-2.93,9.53-.31c0,0,1.46.11,1.26-1.36s-2.73-5.87-6.81-5.03-6.5,6.08-3.98,6.7h0Z"/>
  <path class="st0" d="M148.32,107.12s5.45-2.31,8.49.11c0,0,1.15.83,1.57-.31s-.42-6.6-5.45-6.28-6.5,4.3-6.5,5.24,1.26,1.78,1.88,1.26h0Z"/>
  <path class="st6" d="M134.91,111.73s-.31-2.83,1.68-2.62,1.05,3.36,1.05,3.36c0,0-2.41,2.2-2.73-.74Z"/>
  <path class="st6" d="M150.94,111.41s0-2.51,1.46-2.41,1.26,2.73,1.26,2.73c0,0,.11,1.57-1.15,1.57s-1.36-.83-1.57-1.88h0Z"/>
  <path class="st1" d="M144.33,119.17s-1.68.42-1.99-5.45c-.31-5.87,4.19-5.03,3.98-.31s-.31,5.97-1.99,5.76Z"/>
  <path class="st1" d="M130.61,120.32s-2.31-4.19,1.15-5.45c3.46-1.26,4.73.89,5.24,2.73.75,2.72-1.07,3.22-2.44,3.75s-3.53-.08-3.95-1.03h0Z"/>
  <path class="st1" d="M152.07,120.94s.02-7.11,3.48-6.69,3.46,6.7,2.31,7.02-5.57.09-5.78-.33h0Z"/>
  <path class="st0" d="M144.13,123.15s-1.46-3.98-5.24-3.67-7.65,2.09-10.06,1.46-3.46-1.57-3.46-1.57c0,0,1.26,9.64,9.12,9.12s9.85-3.04,9.64-5.34h0Z"/>
  <path class="st0" d="M144.96,123.99s-1.15-4.19,3.04-4.4,5.13,1.46,8.9,1.68,5.76-1.46,5.76-1.46c0,0-1.46,8.27-8.59,8.7s-9.32-2.93-9.12-4.51h0Z"/>
  <path class="st4" d="M126.72,141.62s-1.29-.27-1.18-1.72,1.35-1.78,2.15-1.07,1.4,2.26-.97,2.8h0Z"/>
  <path class="st4" d="M126.72,146.09s-1.35-.21-1.29-1.45.92-1.67,1.78-1.56,1.18,1.35,1.18,1.67-.49,1.07-1.67,1.35Z"/>
  <path class="st4" d="M125.43,149.32c-.02-.21,0-1.72,1.35-1.88s1.5.97,1.56,1.61-.81,1.45-1.45,1.56-1.4-.49-1.45-1.29h0Z"/>
  <path class="st4" d="M125.48,153.62s-.38-1.83,1.29-1.72,1.56,1.67,1.45,2.04-.64.92-1.4,1.03-1.29-.64-1.35-1.35Z"/>
  <path class="st4" d="M126.77,156.43s-1.61.27-1.29,1.88,1.67,1.35,2.48,1.03,1.03-1.72.49-2.42-1.67-.49-1.67-.49h0Z"/>
  <path class="st4" d="M158.04,140.01s.02-.09.06-.22c.13-.41.5-1.22,1.39-1.22,1.18,0,1.5.97,1.4,1.83s-.75,1.45-1.45,1.45-1.5-.43-1.4-1.83h0Z"/>
  <path class="st4" d="M158.2,144.58s.06-1.67,1.29-1.61,1.35,1.24,1.35,1.83-.32,1.29-1.35,1.4-1.29-1.03-1.29-1.61Z"/>
  <path class="st4" d="M158.1,149.16s.27-1.88,1.35-1.83,1.35.54,1.29,1.83-.7,1.5-1.4,1.5-1.4-.81-1.24-1.5Z"/>
  <path class="st4" d="M158.2,153.57s.11-1.45,1.29-1.72,1.29,1.72,1.24,2.26-1.13,1.18-1.56,1.13-1.07-.97-.97-1.67h0Z"/>
  <path class="st4" d="M158.36,157.71s.49-1.45,1.35-1.29,1.18,1.13.97,2.26-1.72,1.13-1.93.81-.49-1.45-.38-1.78h0Z"/>
  <path class="st4" d="M127.25,139.79c.17,0,12.43.27,12.43.27l-.11,1.35-12.22-.21-.11-1.4h0Z"/>
  <polygon class="st4" points="128.01 144.15 139.52 144.58 139.47 145.71 127.74 145.34 128.01 144.15"/>
  <polygon class="st4" points="127.85 148.73 128.06 148.73 139.74 149.05 139.79 150.45 126.87 149.97 127.85 148.73"/>
  <polygon class="st4" points="127.74 152.87 139.74 153.41 139.69 154.86 127.36 154.33 127.74 152.87"/>
  <polygon class="st4" points="127.9 157.67 139.69 158.04 139.63 159.22 128.17 159.06 127.9 157.67"/>
  <polygon class="st4" points="146.14 157.88 159.06 157.61 159.17 158.57 146.52 159.06 146.14 157.88"/>
  <polygon class="st4" points="146.47 153.62 158.9 153.19 158.96 154.11 146.68 154.76 146.47 153.62"/>
  <polygon class="st4" points="146.57 148.94 159.06 148.73 158.31 149.75 146.52 150.18 146.57 148.94"/>
  <polygon class="st4" points="146.31 144.58 146.52 144.58 158.96 144.21 158.96 145.34 146.47 145.55 146.31 144.58"/>
  <polygon class="st4" points="146.36 140.17 158.96 139.73 159.01 140.6 146.63 141.3 146.36 140.17"/>
  <path class="st4" d="M122.65,74.22s-2.93.63-2.73,3.36,1.57,3.36,3.04,3.04,1.99-6.5-.31-6.39h0Z"/>
  <path class="st4" d="M164.35,74.02s2.09,0,2.51,2.51-.21,3.88-1.68,4.19-2.2-1.99-2.09-3.46.83-3.36,1.26-3.25h0Z"/>
  <path class="st6" d="M135.52,113.12s1.5.69,1.99-.08.28-2.56.28-2.56l-2.28,2.65h0Z"/>
</svg>