<?xml version="1.0" encoding="UTF-8"?>
<svg id="Vrstva_1" xmlns="http://www.w3.org/2000/svg" version="1.1" viewBox="0 0 283.46 283.46">
  <!-- Generator: Adobe Illustrator 30.1.0, SVG Export Plug-In . SVG Version: 2.1.1 Build 136)  -->
  <defs>
    <style>
      .st0 {
        fill: #55561e;
      }

      .st1 {
        fill: #a07436;
      }

      .st2 {
        fill: #bf2421;
      }

      .st3 {
        fill: #42421a;
      }
    </style>
  </defs>
  <path class="st0" d="M139.14,37.82s-1.43-17.16-3.15-14.59-2.86,15.73-2.86,15.73c0,0-4-5.72-4.86-5.44s-1.14,1.43-1.14,1.43c0,0-4.58-4.58-4.58-1.72s1.72,7.15,1.72,7.15c0,0-6.01-4-5.72-2s8.87,11.73,8.87,11.73c0,0-4.86-5.72-6.01-4s-1.14,2.57-1.14,2.57c0,0-4.29-2.57-3.72,0s1.72,3.43,1.72,3.43c0,0-8.3-2.57-6.87.86s3.15,4.86,3.15,4.86c0,0-5.72-1.72-5.44,2s11.16,10.3,11.16,10.3c0,0-15.45-.29-13.44,1.72s3.15,2.57,3.15,2.57c0,0-5.15,1.14-1.72,2.86s4.29,1.72,4.29,1.72c0,0-12.3-2.29-10.87,0s9.73,6.01,9.73,6.01c0,0-3.72-.57-2.57,1.72l1.14,2.29s-17.45-3.15-14.88-1.14,6.58,3.72,6.58,3.72c0,0-2.57,2-.57,4.58s3.15,3.15,3.15,3.15c0,0-10.3-.29-6.87,2.57s5.15,3.72,5.15,3.72c0,0-12.87,4-9.44,6.29s6.58,2.86,6.58,2.86c0,0-.86-1.14-2.29,1.14s.57,3.43.57,3.43c0,0-5.44-3.15-4.58,0s3.72,7.15,3.72,7.15c0,0-8.3-.86-5.15,1.14l3.15,2s-10.58-1.72-8.01.86,9.15,3.72,9.15,3.72c0,0-3.43,2.86-2.29,4.86s2,2,2,2c0,0-10.87-3.43-8.3.86s9.73,8.3,9.73,8.3c0,0-6.87,1.14-3.72,3.15l3.15,2s-11.16-2.86-9.15.57,6.58,6.29,6.58,6.29c0,0-9.15.86-7.72,3.72s2.86,3.15,2.86,3.15c0,0-11.44-3.15-10.01-.29s4.29,3.72,4.29,3.72c0,0-8.3-4.58-6.58-1.43s7.44,6.01,7.44,6.01c0,0-7.72,0-5.15,1.72s6.58,4.86,6.58,4.86c0,0-16.59-1.43-11.16,1.43s9.44,4.86,9.44,4.86c0,0-5.72.57-2.86,2.57s4.29,2.57,4.29,2.57c0,0-6.01-2.86-4.29,1.14s7.15,6.01,7.15,6.01c0,0-11.73.57-11.44,2.29s8.87,4.29,8.87,4.29c0,0-18.88-1.14-16.31,1.72s9.15,3.15,9.15,3.15c0,0-11.16,2-7.44,4.29s6.01,2.86,6.01,2.86c0,0-15.16-.29-11.73,2.57s12.01,3.72,12.01,3.72c0,0-12.59,5.72-9.15,7.15l3.43,1.43s-8.3,3.72-4.86,5.72,10.01,2,10.01,2c0,0-4.29,9.44,0,9.44s6.58-3.15,6.58-3.15c0,0-5.15,6.01-1.72,6.58s10.87-3.72,10.87-3.72c0,0-8.01,9.15-2.86,9.15s17.45-4,17.45-4c0,0-8.01,5.44-6.01,6.29s4.58.29,4.58.29c0,0,.57,5.15,4.58,4.58s5.72-4.86,5.72-4.86c0,0,6.58,7.15,8.87,4s2.29-4,2.29-4c0,0,8.58,7.15,9.73,3.72s-2.86-12.01-2.86-12.01l7.72.86s-6.58,7.44-1.14,6.58,8.01-3.43,8.01-3.43c0,0-2,10.87,1.43,8.87s3.43-7.44,3.43-7.44c0,0,19.17,9.44,18.02,4.86s-1.72-5.44-1.72-5.44c0,0,8.87,4.58,9.15,0s-.57-5.15-.57-5.15c0,0,6.58.29,6.29-3.15s-2-4.86-2-4.86c0,0,18.88,10.01,19.74,6.01s-1.14-6.29-1.14-6.29c0,0,15.45,6.01,14.02,1.43s-2.86-6.01-2.86-6.01c0,0,4.58,0,4.86-2.29s-6.01-4-6.01-4c0,0,10.3-1.72,6.29-3.43s-7.15-2-7.15-2c0,0,5.72-2.29-.29-4-6.01-1.72-7.15-2-7.15-2,0,0,14.3-.86,13.16-3.15s-5.15-4-5.15-4c0,0,5.44-3.43.57-4s-7.15-1.14-7.15-1.14c0,0,1.43-4.29,0-5.44s-2.29-1.72-2.29-1.72c0,0,5.44-.86,4.58-2.29s-4.29-2.57-4.29-2.57c0,0,7.44-1.72,5.15-3.15s-8.01-3.72-8.01-3.72c0,0,3.43-2.86,1.72-4s-5.15-2-5.15-2c0,0,4.29-3.72,2.29-6.29s-4.29-2.57-4.29-2.57c0,0,0-.86.29-3.15s-10.01-7.44-10.01-7.44c0,0,8.87,2.86,9.15,0l.29-2.86s6.01-.57,2.29-3.15-10.3-5.44-10.3-5.44c0,0,4.86-2.57,4-4s-3.72-2-3.72-2l-6.29-2.57s3.15,3.15,4.58,0-.57-4-.57-4c0,0,5.15-2.29,5.15-3.15s-9.44-4.86-9.44-4.86c0,0,2.57.29,2.29-2s-2-4.29-2-4.29c0,0,9.73-6.29,6.29-8.58s-8.01-1.43-8.01-1.43c0,0,4.29-4,2.86-5.15s-5.44-2.86-5.44-2.86c0,0,3.72-.57,2.57-2.29s-12.59-5.15-12.59-5.15c0,0,5.15-.57,2.86-2.86l-2.29-2.29s5.15-.57,4-2.57-4.86-4-4.86-4c0,0,5.15,1.43,4.86-1.14s-1.43-3.43-1.43-3.43c0,0,4-4.29,2-5.44s-8.87-.29-8.87-.29c0,0,5.72-4.58,3.15-5.44l-2.57-.86s6.01-2.57,4-4.29-4-2-4-2c0,0,3.72-1.43.29-3.72s-7.44-2.29-7.44-2.29c0,0,6.29-1.72,3.15-3.43l-3.15-1.72s2.57-4.58,1.14-6.29-4.86.29-4.86.29c0,0,1.72-1.72.57-2.29s-3.72,0-3.72,0c0,0,8.01-6.01,6.58-7.15s-3.15-1.14-3.15-1.14c0,0,3.72-2.57,2-4s-9.73,2.57-9.73,2.57c0,0,4.58-8.01,2-6.87s-7.15,4-7.15,4Z"/>
  <polygon class="st1" points="132.56 18.37 135.99 11.5 139.71 17.79 147.44 18.37 140.86 23.8 144.29 31.81 136.56 27.81 129.23 32.28 132.11 23.66 125.12 19.8 132.56 18.37"/>
  <path class="st3" d="M125.12,72.43s-5.15,3.72-.57,4,7.44-.29,7.44-.29c0,0-20.88,4.58-6.87-3.72Z"/>
  <path class="st3" d="M140.84,67.4s9.08,6.79,10.16,4.6-3.79-7.42-3.79-7.42c0,0,7.08,5.91,5.38,8.28s-11.75-5.47-11.75-5.47Z"/>
  <path class="st3" d="M132.27,54.98s-3.15-5.72-.57-5.72,5.15,6.29,5.15,6.29c0,0-4.86-8.58-4.58-.57Z"/>
  <path class="st3" d="M104.24,223.19s-13.73.57-9.15,4c4.58,3.43,11.73,2.29,11.73,2.29,0,0-1.43,4.58.29,4.58s9.73-5.15,9.73-5.15c0,0-4,6.29-9.44,7.15s-3.43-3.72-3.43-3.72c0,0-29.18-7.44.29-9.15Z"/>
  <path class="st3" d="M163.74,232.91s14.02,5.72,14.3,4-10.3-8.3-10.3-8.3c0,0,13.16.57,12.3-1.14s-6.01-5.72-6.01-5.72c0,0,4.29,4.29,2.57,4.86s-11.73,1.72-11.73,1.72c0,0,10.01,5.72,8.3,6.29s-9.44-1.72-9.44-1.72Z"/>
  <path class="st3" d="M123.98,251.79s-2,7.15,1.43,6.58,10.01-12.3,10.01-12.3c0,0,2.86,2.57,3.72.86s.57-10.87.57-10.87c0,0-1.72,10.3-4.86,7.72,0,0-9.15,15.16-9.73,12.87s-1.14-4.86-1.14-4.86Z"/>
  <path class="st3" d="M91.94,240.06s-8.87,7.15-4.29,8.01,13.44-4,13.44-4c0,0-12.3,3.43-10.58,2.29s8.01-6.29,8.01-6.29c0,0-8.87,5.72-8.87,4.86s2.29-4.86,2.29-4.86Z"/>
  <path class="st3" d="M107.96,182.85c-.86,0-10.01.86-7.44,2.29s9.15,4.58,9.15,4.58c0,0-9.73,3.15-6.58,3.72s8.87.86,8.87.86c0,0-7.15-.29-4.29-2.29s4.86-3.72,4.86-3.72c0,0-8.58-2.29-6.87-3.15s2.29-2.29,2.29-2.29Z"/>
  <path class="st2" d="M138.55,89.66s-5.45-1.19-5.45,4.75,7.52,4.75,8.83,3.37,1.88-8.12-3.38-8.12Z"/>
  <path class="st1" d="M126.02,62.02s-3.89-3.55-4.39-1.69-.84,5.91,1.01,5.41,3.72-2.03,3.72-2.03c0,0,3.55,2.37,4.06,1.69s.84-5.24-.17-5.24-4.22,1.86-4.22,1.86Z"/>
  <path class="st1" d="M153.4,81.63s-4.56-3.55-4.56-1.86,0,4.39,1.52,4.39,3.21-1.35,3.21-1.35c0,0,4.22,2.7,4.22,1.18s1.18-4.73,0-4.56-4.39,2.2-4.39,2.2Z"/>
  <path class="st1" d="M116.22,101.74s-3.38-4.39-3.89-2.7-.84,7.1,1.35,6.08,2.37-2.03,2.37-2.03c0,0,3.55,3.72,4.22,2.53s1.69-7.44.84-6.76-4.9,2.87-4.9,2.87Z"/>
  <path class="st1" d="M162.02,140.1s-3.38-4.06-3.55-2.37,0,6.08,1.52,5.58,2.03-1.69,2.03-1.69c0,0,2.37,3.04,3.04,1.86s2.37-5.58.84-5.41-3.89,2.03-3.89,2.03Z"/>
  <path class="st1" d="M125.86,154.8s-3.04-5.07-3.55-3.72.68,7.1,1.69,6.59,2.2-1.35,2.2-1.35c0,0,2.7,2.7,3.04,1.35s1.35-5.75.68-5.75-4.06,2.87-4.06,2.87Z"/>
  <path class="st1" d="M95.77,169.67s-2.37-3.21-2.87-1.18,0,6.25,1.35,5.75,1.86-1.69,1.86-1.69c0,0,2.87,2.87,3.04,2.03s1.35-5.91.51-5.91-3.89,1.01-3.89,1.01Z"/>
  <path class="st1" d="M174.69,193.5s-2.87-5.58-3.38-3.72-.17,7.44.68,7.44,2.53-1.69,2.53-1.69c0,0,2.53,2.53,3.04,2.37s2.37-6.59,1.35-6.59-4.22,2.2-4.22,2.2Z"/>
  <path class="st1" d="M121.12,216.82s-5.07-4.06-4.22-1.69,1.01,5.91,2.37,5.24,1.86-1.86,1.86-1.86c0,0,2.37,1.69,3.04,1.18s3.21-5.24,1.69-5.24-4.73,2.37-4.73,2.37Z"/>
  <path class="st1" d="M158.64,244.03s-2.7-4.39-3.38-2.87-.51,6.59,1.35,6.42,2.53-1.52,2.53-1.52c0,0,2.2,3.04,3.55,1.69s1.01-7.1.34-6.08-4.39,2.37-4.39,2.37Z"/>
  <path class="st3" d="M156.5,176s10,5,12,2,.5-4.5.5-4.5c0,0,9.5,3,9.5-.5s-7.5-8.5-7.5-8.5c0,0,8,10.5-2.5,6,0,0,2,11-12,5.5Z"/>
  <path class="st3" d="M152,214s8,7.5,10,3.5.5-8,.5-8l6,2.5,1-3s14,3.5,14.5,2-.5-5.5-.5-5.5c0,0,1.5,9.5-15,0,0,0-2,4.5-7.5,0,0,0,3,16.5-9,8.5Z"/>
  <path class="st3" d="M108,142.5s-5.5,11-1.5,9.5l4-1.5s-6.5,2-2.5-8Z"/>
  <path class="st3" d="M150,147s14.5,11,15.5,8-.5-5.5-.5-5.5c0,0,8.5,2,8,0s-1-3.5-1-3.5c0,0-2.5,4-9,.5,0,0,4.5,11.5-13,.5Z"/>
  <path class="st3" d="M98,204.5s-4.5,4.5-.5,4.5,15.5-4.5,15.5-4.5c0,0-18,5-15,0Z"/>
  <path class="st3" d="M131.5,118.5s5.5,9,7.5,6,0-8.5,0-8.5h7l-3-9.5s3,9.5-6,6c0,0,3.5,16-5.5,6Z"/>
  <path class="st3" d="M125.5,199.5s-1,4,3,4,9-3.5,9-3.5c0,0,4.5,2.5,7.5,2.5s9.5-8,9.5-8c0,0-8.5,9.5-16.5,3,0,0-11,9-12.5,2Z"/>
  <path class="st3" d="M121.5,165s-5.5,7,1,7,8.5-4,8.5-4c0,0-14.19,5.68-9.5-3Z"/>
  <path class="st2" d="M139.71,180.25s-4.32.4-4.62,4.42,2.61,5.43,5.83,5.53,4.32-3.22,4.52-5.23-2.51-4.62-5.73-4.72Z"/>
  <path class="st2" d="M114.99,127.6s-3.72,1.31-3.72,4.32,3.11,5.33,6.43,5.02,4.32-2.41,4.22-4.92-2.61-5.53-6.93-4.42Z"/>
  <path class="st2" d="M157.2,117.45s-.8,4.62,3.42,4.52,4.12-3.62,4.12-4.12-.5-3.32-3.22-3.82-4.22,2.11-4.32,3.42Z"/>
  <path class="st2" d="M193,220.25s-5,.25-4.75,4.5,5.25,4,5.25,4c0,0,4.25-1,4.5-3.75s-1.75-5-5-4.75Z"/>
  <path class="st2" d="M119.5,236.25s-4.25.25-4.25,4,4.75,3.5,4.75,3.5c0,0,4-.75,4-3.5s-2.25-4.25-4.5-4Z"/>
  <path class="st2" d="M93.5,212.5s-4,.25-4,4,5.25,3.5,5.25,3.5c0,0,2.75,0,3.25-3.75s-4.5-3.75-4.5-3.75Z"/>
</svg>