<?xml version="1.0" encoding="UTF-8"?>
<svg id="Vrstva_1" xmlns="http://www.w3.org/2000/svg" version="1.1" viewBox="0 0 283.46 283.46">
  <!-- Generator: Adobe Illustrator 30.1.0, SVG Export Plug-In . SVG Version: 2.1.1 Build 136)  -->
  <defs>
    <style>
      .st0 {
        fill: #ac8257;
      }

      .st1 {
        fill: #bf1730;
      }

      .st2 {
        fill: #775332;
      }

      .st3 {
        fill: #ab1833;
      }

      .st4 {
        fill: #b78b63;
      }

      .st5 {
        fill: #961730;
      }

      .st6 {
        fill: #8e6942;
      }

      .st7 {
        fill: #a0774b;
      }

      .st8 {
        fill: #d82b53;
      }
    </style>
  </defs>
  <polygon class="st5" points="132.89 157.86 130.27 245 54.67 210.88 54.67 125.84 132.89 157.86"/>
  <polygon class="st3" points="230 133.19 227.38 219.28 130.27 245 132.89 157.86 230 133.19"/>
  <polygon class="st1" points="131.84 132.14 131.32 161.01 235.78 135.29 235.25 107.99 131.84 132.14"/>
  <polygon class="st8" points="139.71 78.07 235.25 107.99 131.84 132.14 51 101.69 139.71 78.07"/>
  <polygon class="st3" points="131.32 161.01 131.84 132.14 51 101.69 52.05 126.36 131.32 161.01"/>
  <polygon class="st7" points="162.71 236.41 169.11 122.69 201.66 115.86 197.06 227.31 162.71 236.41"/>
  <polygon class="st6" points="103.6 232.98 105.59 122.69 80.92 112.71 79.8 222.19 103.6 232.98"/>
  <polygon class="st4" points="95.62 89.09 169.11 122.69 201.66 115.86 120.29 82.79 95.62 89.09"/>
  <polygon class="st0" points="105.59 122.69 200.08 96.97 176.99 89.09 80.92 112.71 105.59 122.69"/>
  <path class="st6" d="M144.96,99.59s4.2,2.1,19.95.52,30.97,2.1,34.12,5.25l3.15,3.15,3.67-11.02s-32.55-10.5-40.42-10.5-21.52,4.2-21.52,4.2l1.05,8.4Z"/>
  <path class="st6" d="M130.79,89.09s-7.35,7.35-13.65,9.45-10.5,14.17-10.5,14.17l27.3,1.57s-3.67-13.12.52-15.75,7.35-4.72,7.35-4.72l-11.02-4.72Z"/>
  <path class="st7" d="M137.09,82.27s2.1,7.35,1.05-2.1-.52-21,5.77-24.15c6.3-3.15,44.62,11.02,46.72,17.32,2.1,6.3-2.1,12.6-9.97,12.6s-21.52-3.15-25.72-2.1-17.85-1.57-17.85-1.57Z"/>
  <path class="st2" d="M165.44,80.69s12.07-4.2,15.22-6.82,6.25-2.44,7.87,1.57c1.41,3.49.57,5.72-5.95,8.25-4.51,1.75-17.14-3-17.14-3Z"/>
  <path class="st6" d="M144.44,75.44s2.62-9.45-.52-9.45.52,9.45.52,9.45Z"/>
  <path class="st6" d="M152.31,75.97s6.3.52,7.35-3.15,6.82-3.15,8.92-1.05-9.45,9.45-16.27,4.2Z"/>
  <path class="st7" d="M130.79,89.09s-34.65-11.55-46.72-11.55-18.9,13.12-14.17,21.52,15.22,16.8,25.2,14.17,4.72-12.6,14.7-14.7c9.97-2.1,21-9.45,21-9.45Z"/>
  <path class="st2" d="M121.87,89.09s-13.12-1.05-21,5.25-7.87,17.32-4.2,16.8,2.1-14.17,9.97-14.7,15.22-7.35,15.22-7.35Z"/>
  <path class="st6" d="M110.32,84.89s-16.27-5.77-13.12-2.62,13.12,2.62,13.12,2.62Z"/>
  <path class="st6" d="M149.16,93.29s-13.22,7.39-18.47,4.77-11.45-9.49-8.3-11.07,11.02-6.82,19.95-4.2,12.6,7.35,6.82,10.5Z"/>
  <path class="st2" d="M129.74,85.94s3.15,6.3,9.45,5.25l6.3-1.05s-5.77,4.72-9.97,4.72-5.77-8.92-5.77-8.92Z"/>
  <path class="st2" d="M122.39,86.99s-2.68,5.32,3.57,9.38,13.52,3.21,18.93-.17l5.41-3.38h0s-10.14,5.58-15.89,4.56-11.49-5.41-11.15-6.93.64-4.55-.87-3.46Z"/>
  <path class="st2" d="M106.64,112.71l2.75,1.57,25.52.85s-2.2-5.92-2.37-8.28l.34,6.59-26.25-.72Z"/>
  <path class="st2" d="M143.54,96.88c.17.51-2.2,2.7,4.73,4.06s38.7-1.35,42.93.68c0,0-9.13-3.21-17.75-2.54s-21.13.85-24.51-.17-2.87-3.38-2.87-3.38l-2.54,1.35Z"/>
</svg>