<?xml version="1.0" encoding="UTF-8"?>
<svg id="Vrstva_1" xmlns="http://www.w3.org/2000/svg" version="1.1" viewBox="0 0 283.46 283.46">
  <!-- Generator: Adobe Illustrator 30.1.0, SVG Export Plug-In . SVG Version: 2.1.1 Build 136)  -->
  <defs>
    <style>
      .st0 {
        fill: #a51b1a;
      }

      .st1 {
        fill: #c19361;
      }

      .st2 {
        fill: #931917;
      }

      .st3 {
        fill: #a07436;
      }

      .st4 {
        fill: #b2834a;
      }

      .st5 {
        fill: #724c20;
      }

      .st6 {
        fill: #bf2421;
      }

      .st7 {
        fill: #91642f;
      }
    </style>
  </defs>
  <path class="st5" d="M39.53,203.72s-.7,8.03,88.72,34.93c89.42,26.9,89.42,20.26,89.42,17.81s-54.49-26.2-79.29-36.33-98.85-16.42-98.85-16.42Z"/>
  <path class="st7" d="M121,221.46s-9.99,14.77-5.62,18.1,15.81,6.87,18.73,5.62,4.16-19.35,4.16-19.35l-17.27-4.37Z"/>
  <path class="st3" d="M54.2,179.27s-15.72,20.96-14.67,24.45c0,0,60.43,11.88,90.82,21.31,30.39,9.43,84.18,29.69,85.58,33.18,0,0,2.79,1.4,3.49-4.54.7-5.94,1.05-22.35,1.05-22.35,0,0-9.78-5.59-15.02-26.2s5.59-92.56,2.45-104.09-49.25-30.04-74.4-19.91c0,0-11.88,12.23-16.07,22.01-4.19,9.78-31.09,60.08-40.87,67.06-9.78,6.99-22.35,9.08-22.35,9.08Z"/>
  <path class="st4" d="M89.47,178.57s62.52,17.81,75.1,19.21c12.57,1.4,22.35-11.53,23.75-18.16s5.24-75.1-.35-81.39-41.92-12.57-48.2-7.68,19.56,16.42,25.85,25.5c6.29,9.08,7.34,45.06,6.99,56.24-.35,11.18-10.48,16.42-18.51,13.62s-55.19-20.61-64.62-7.34Z"/>
  <path class="st6" d="M157.16,71.95s-4.11,7.07-1.32,8.82,3.49,1.75,3.49,1.75c0,0-2.79,9.43,2.45,15.72,5.24,6.29,48.2,87.67,48.2,87.67,0,0,28.29-46.46,27.59-52.04-.7-5.59-40.87-46.11-40.87-46.11,0,0,24.1,23.05,28.99,20.61s18.86-33.88,16.77-44.01c-2.1-10.13-28.64-14.67-40.17-11.53s-29.69,13.97-29.69,13.97c0,0-1.4-.7-5.94-1.05s-7.34,1.05-7.34,1.05c0,0-3.14-12.57-17.46-25.15-14.32-12.57-20.26-18.51-25.5-17.12s-22.7,31.79-23.05,42.96c-.35,11.18,11.88,12.57,11.88,12.57l-35.28,17.81-5.94,47.15s55.89-51.35,70.21-58.33c14.32-6.99,19.83-3.23,22.97-14.76Z"/>
  <path class="st4" d="M144.21,229.54s17.92,2.83,21.76-5.21,2.79-12.23,2.79-12.23c0,0-57.28-24.45-95.36-29.69,0,0,27.94-1.4,100.25,26.55,0,0,18.16,6.64,20.26,9.08s0,9.43,6.99,18.16c6.99,8.73,18.51,17.46,18.51,17.46,0,0-1.35,5.14-3.1,4.79s-61.47-27.07-72.11-28.93Z"/>
  <path class="st7" d="M138.03,174.38c3.2,2.13,17.12,8.38,21.31,4.19s4.54-55.89-2.45-57.63-20.96,52.04-18.86,53.44Z"/>
  <path class="st7" d="M197.76,218.74s22.7,9.78,22.7,12.57-1.05,22.35-1.05,22.35c0,0-25.15-24.45-21.66-34.93Z"/>
  <path class="st0" d="M154.79,74.21s9.78,5.94,15.02,4.89,5.59-4.19,5.59-4.19c0,0,10.48,9.78,5.59,11.53s-31.09-.35-26.2-12.23Z"/>
  <path class="st0" d="M188.67,73.09c2.1.35,17.12-1.4,24.8-5.94s16.42-5.94,16.42-5.94c0,0-7.34,0-13.97,2.45s-17.12,6.64-20.61,6.99-6.64,2.45-6.64,2.45Z"/>
  <path class="st0" d="M150.6,65.05c.5-.92-48.9-17.12-47.5-10.48s45.06,15.02,47.5,10.48Z"/>
  <path class="st0" d="M152,69.24c2.8,1.48-15.02-2.45-26.55,1.75-11.53,4.19-17.46,6.99-17.46,6.99,0,0,26.2-18.16,44.01-8.73Z"/>
  <path class="st0" d="M181.34,90.55c1.05,0,28.29,30.04,21.31,28.29s-21.31-28.29-21.31-28.29Z"/>
  <path class="st1" d="M89.15,183.89s47.6,7.23,96.41,29.74c0,0-68.12-22.48-96.41-29.74Z"/>
  <path class="st5" d="M119.55,232.9s6.62,4.5,9.99,4.58,4.99-7.7,4.99-7.7c0,0-.99,10.64-4.37,11.86-4.05,1.46-16.24-2.93-10.61-8.74Z"/>
  <path class="st4" d="M219.41,253.67s-.2,4.43-3.1,4.79l-1.67-3.12,4.77-1.68Z"/>
  <path class="st4" d="M144.4,229.58s16.93,5.89,17.29,5.97-14.2-6.01-17.29-5.97Z"/>
  <path class="st2" d="M159.98,81.63s10.08,1.48,13.31-.4,3.23-3.5,3.23-3.5c0,0,.94,4.57-1.61,6.05s-15.06-1.08-14.92-2.15Z"/>
</svg>