<?xml version="1.0" encoding="UTF-8"?>
<svg id="Vrstva_1" xmlns="http://www.w3.org/2000/svg" version="1.1" viewBox="0 0 283.46 283.46">
  <!-- Generator: Adobe Illustrator 30.1.0, SVG Export Plug-In . SVG Version: 2.1.1 Build 136)  -->
  <defs>
    <style>
      .st0 {
        fill: #2d0f0c;
      }

      .st1 {
        fill: #c4b8b7;
      }

      .st2 {
        fill: #e5b5b1;
      }

      .st3 {
        fill: #cfa763;
      }

      .st4 {
        fill: #841b11;
      }

      .st5 {
        fill: #421c1a;
      }

      .st6 {
        fill: #a92c16;
      }

      .st7 {
        fill: #f3d1cd;
      }
    </style>
  </defs>
  <path class="st1" d="M116.82,60.44s-8.49.76-6.21,7.86c0,0-3.04,3.55-1.52,6.59,0,0-11.15,13.56,5.58,16.1s48.92-.13,48.92-.13c0,0,14.45-1.52,4.69-15.59,0,0,.51-4.31-2.03-6.72,0,0,2.41-9.25-7.48-9.25s-41.95,1.14-41.95,1.14Z"/>
  <path class="st6" d="M99.33,111.52s.63-1.39,2.15-1.77,6.84.13,6.84.13c0,0,1.01.13,1.52,1.77s.38,57.29.38,57.29c0,0-1.01,2.15-1.9,2.53s-6.72,0-6.72,0c0,0-1.65-1.39-1.9-2.92s-.38-57.03-.38-57.03Z"/>
  <path class="st6" d="M166.12,111.9s.76-1.39,2.15-1.9,6.59,0,6.59,0c0,0,1.39,1.52,1.52,2.41s0,56.53,0,56.53c0,0-.89,2.41-2.03,2.66s-6.59,0-6.59,0c0,0-1.52-.38-1.77-2.79s.13-56.91.13-56.91Z"/>
  <path class="st1" d="M99.58,180.72v-7.1s.76-2.41,2.03-2.15,6.21.25,6.21.25c0,0,2.15.25,2.41,2.53s-.13,7.35-.13,7.35c0,0-1.01,1.14-2.41,1.52s-5.96.13-5.96.13c0,0-1.52-.63-2.15-2.53Z"/>
  <path class="st1" d="M165.61,174s1.14-2.53,2.15-2.41,6.59,0,6.59,0c0,0,1.52.89,1.77,2.41s0,7.35,0,7.35c0,0-.51,1.52-2.28,2.03h-5.58s-2.66-.25-2.66-2.41v-6.97Z"/>
  <polygon class="st4" points="119.73 180.85 125.06 260.95 136.46 260.69 138.49 201.38 140.14 260.06 152.18 260.06 156.62 180.21 119.73 180.85"/>
  <path class="st0" d="M123.92,259.93v11.66s-.13,1.52,1.65,2.03,11.03-.13,11.03-.13c0,0,1.39-.76,1.52-1.39s-.25-11.91-.25-11.91l-1.27-.63-11.41.25-1.27.13Z"/>
  <path class="st0" d="M140.14,259.42l-.76,1.01.25,11.66s.25,1.9,1.77,1.9h10.77s1.52-1.01,1.52-1.9-.25-11.79-.25-11.79c0,0-.84-.55-1.22-.67s-12.09-.21-12.09-.21Z"/>
  <path class="st6" d="M118.72,157.27s-.13,3.04-1.65,4.82-3.93,4.94-4.44,7.35.13,11.15.13,11.15c0,0,1.52,1.65,2.53,1.65s46.64-.51,46.64-.51c0,0,1.39-.89,1.77-3.42s.25-9.38-.25-10.39-4.31-5.83-5.45-7.6-1.27-4.69-1.27-4.69c0,0,1.65-7.22,3.55-9s5.49-5.08,5.87-8.12-.04-26.6-.04-26.6c0,0-2.41-4.18-5.07-4.44s-46.39,0-46.39,0c0,0-4.69,1.52-4.82,4.18s.08,28.96.08,28.96c0,0,1.7,1.97,3.22,3.23s4.94,4.94,5.32,7.1.25,6.34.25,6.34Z"/>
  <polygon class="st3" points="114.79 149.79 114.79 157.53 161.05 157.4 161.05 150.05 114.79 149.79"/>
  <path class="st4" d="M114.67,142.32s-.13,1.52,12.93,2.15c13.05.63,32.83-1.27,34.35-2.03s2.15-2.03,2.15-2.03c0,0-18.88.51-27.12,1.01s-23.07-.25-23.07-.25c0,0-.13.51.76,1.14Z"/>
  <path class="st4" d="M153.19,160.69s-27.5-.63-29.91-.38-5.96,5.32-5.96,5.32c0,0,2.41-2.92,7.6-3.42s29.28-.25,29.28-.25l-1.01-1.27Z"/>
  <polygon class="st3" points="114.67 107.46 120.75 104.93 156.11 104.68 161.81 107.34 114.67 107.46"/>
  <path class="st7" d="M120.5,65.01l-7.1,32.57s-.38,8.11,6.34,7.98,38.4-.38,38.4-.38c0,0,4.82-.76,6.08-3.55s-6.34-37.77-6.34-37.77l-37.39,1.14Z"/>
  <path class="st0" d="M113.14,21.66s-1.52-3.55,7.22-5.2,34.85-1.01,38.91.51,4.82,2.66,4.82,5.32-6.08,42.84-6.08,42.84l-37.52-.13-1.77-.13-5.58-43.22Z"/>
  <path class="st3" d="M134.44,16.21s-.76-6.34,4.18-6.08,3.68,5.83,3.68,5.83l-7.86.25Z"/>
  <path class="st5" d="M136.97,18.24s-13.94-.63-15.46.63.89,34.47.89,34.47l2.28.63s-2.28-31.43-1.01-32.7,13.31-3.04,13.31-3.04Z"/>
  <path class="st3" d="M114.29,40.54s7.98,14.83,24.33,13.18,23.95-13.94,23.95-13.94l.51,1.52s-4.94,14.32-24.21,15.46c-19.26,1.14-25.73-16.1-25.73-16.1l1.14-.13Z"/>
  <path class="st6" d="M112.38,41.18s4.06,23.19,26.24,21.8c22.18-1.39,25.22-19.39,25.6-21.55l.38-2.15-1.27-.13s-1.14,20.02-24.46,19.64c-23.32-.38-25.73-18.12-25.73-18.12l-.76.51Z"/>
  <path class="st1" d="M122.9,74.89s7.35-3.55,11.53-.38c0,0,1.77.13,1.52-1.65s-3.3-7.1-8.24-6.08-7.86,7.35-4.82,8.11Z"/>
  <path class="st1" d="M144.32,74.38s6.59-2.79,10.27.13c0,0,1.39,1.01,1.9-.38s-.51-7.98-6.59-7.6-7.86,5.2-7.86,6.34,1.52,2.15,2.28,1.52Z"/>
  <path class="st0" d="M128.1,79.96s-.38-3.42,2.03-3.17,1.27,4.06,1.27,4.06c0,0-2.92,2.66-3.3-.89Z"/>
  <path class="st0" d="M147.49,79.58s0-3.04,1.77-2.92,1.52,3.3,1.52,3.3c0,0,.13,1.9-1.39,1.9s-1.65-1.01-1.9-2.28Z"/>
  <path class="st2" d="M139.51,88.96s-2.03.51-2.41-6.59c-.38-7.1,5.07-6.08,4.82-.38s-.38,7.22-2.41,6.97Z"/>
  <path class="st2" d="M122.9,90.35s-2.79-5.07,1.39-6.59,5.72,1.08,6.34,3.3c.91,3.29-1.3,3.9-2.95,4.54s-4.27-.1-4.78-1.24Z"/>
  <path class="st2" d="M148.86,91.1s.02-8.6,4.21-8.09,4.18,8.11,2.79,8.49-6.74.11-6.99-.4Z"/>
  <path class="st1" d="M139.25,93.78s-1.77-4.82-6.34-4.44-9.25,2.53-12.17,1.77-4.18-1.9-4.18-1.9c0,0,1.52,11.66,11.03,11.03s11.91-3.68,11.66-6.46Z"/>
  <path class="st1" d="M140.27,94.79s-1.39-5.07,3.68-5.32,6.21,1.77,10.77,2.03,6.97-1.77,6.97-1.77c0,0-1.77,10.01-10.39,10.52s-11.28-3.55-11.03-5.45Z"/>
  <path class="st3" d="M118.19,116.12s-1.56-.33-1.43-2.08,1.63-2.15,2.6-1.3,1.69,2.73-1.17,3.39Z"/>
  <path class="st3" d="M118.19,121.53s-1.63-.26-1.56-1.76,1.11-2.02,2.15-1.89,1.43,1.63,1.43,2.02-.59,1.3-2.02,1.63Z"/>
  <path class="st3" d="M116.63,125.43c-.02-.26,0-2.08,1.63-2.28s1.82,1.17,1.89,1.95-.98,1.76-1.76,1.89-1.69-.59-1.76-1.56Z"/>
  <path class="st3" d="M116.7,130.64s-.46-2.21,1.56-2.08,1.89,2.02,1.76,2.47-.78,1.11-1.69,1.24-1.56-.78-1.63-1.63Z"/>
  <path class="st3" d="M118.26,134.03s-1.95.33-1.56,2.28,2.02,1.63,3,1.24,1.24-2.08.59-2.93-2.02-.59-2.02-.59Z"/>
  <path class="st3" d="M156.09,114.17s.02-.11.07-.27c.16-.49.61-1.48,1.68-1.48,1.43,0,1.82,1.17,1.69,2.21s-.91,1.76-1.76,1.76-1.82-.52-1.69-2.21Z"/>
  <path class="st3" d="M156.28,119.7s.07-2.02,1.56-1.95,1.63,1.5,1.63,2.21-.39,1.56-1.63,1.69-1.56-1.24-1.56-1.95Z"/>
  <path class="st3" d="M156.15,125.24s.33-2.28,1.63-2.21,1.63.65,1.56,2.21-.85,1.82-1.69,1.82-1.69-.98-1.5-1.82Z"/>
  <path class="st3" d="M156.28,130.58s.13-1.76,1.56-2.08,1.56,2.08,1.5,2.73-1.37,1.43-1.89,1.37-1.3-1.17-1.17-2.02Z"/>
  <path class="st3" d="M156.48,135.59s.59-1.76,1.63-1.56,1.43,1.37,1.17,2.73-2.08,1.37-2.34.98-.59-1.76-.46-2.15Z"/>
  <path class="st3" d="M118.84,113.91c.2,0,15.04.33,15.04.33l-.13,1.63-14.78-.26-.13-1.69Z"/>
  <polygon class="st3" points="119.76 119.18 133.69 119.7 133.62 121.07 119.43 120.61 119.76 119.18"/>
  <polygon class="st3" points="119.56 124.72 119.82 124.72 133.95 125.11 134.01 126.8 118.39 126.21 119.56 124.72"/>
  <polygon class="st3" points="119.43 129.73 133.95 130.38 133.88 132.14 118.97 131.49 119.43 129.73"/>
  <polygon class="st3" points="119.63 135.52 133.88 135.98 133.82 137.41 119.95 137.22 119.63 135.52"/>
  <polygon class="st3" points="141.7 135.79 157.32 135.46 157.45 136.63 142.15 137.22 141.7 135.79"/>
  <polygon class="st3" points="142.09 130.64 157.13 130.12 157.19 131.23 142.35 132.01 142.09 130.64"/>
  <polygon class="st3" points="142.22 124.98 157.32 124.72 156.41 125.95 142.15 126.47 142.22 124.98"/>
  <polygon class="st3" points="141.89 119.7 142.16 119.7 157.19 119.25 157.19 120.61 142.09 120.88 141.89 119.7"/>
  <polygon class="st3" points="141.96 114.36 157.19 113.84 157.26 114.89 142.28 115.73 141.96 114.36"/>
  <path class="st3" d="M113.27,34.59s-3.55.76-3.3,4.06,1.9,4.06,3.68,3.68,2.41-7.86-.38-7.73Z"/>
  <path class="st3" d="M163.71,34.33s2.53,0,3.04,3.04-.25,4.69-2.03,5.07-2.66-2.41-2.53-4.18,1.01-4.06,1.52-3.93Z"/>
  <path class="st0" d="M128.85,81.64s1.82.84,2.41-.1.34-3.1.34-3.1l-2.76,3.2Z"/>
</svg>