<?xml version="1.0" encoding="UTF-8"?>
<svg id="Vrstva_1" xmlns="http://www.w3.org/2000/svg" version="1.1" viewBox="0 0 283.46 283.46">
  <!-- Generator: Adobe Illustrator 30.1.0, SVG Export Plug-In . SVG Version: 2.1.1 Build 136)  -->
  <defs>
    <style>
      .st0 {
        fill: #c9e8fb;
      }

      .st1 {
        fill: #c24d3d;
      }

      .st2 {
        fill: #004459;
      }

      .st3 {
        fill: #b03d31;
      }

      .st4 {
        fill: #dff2fd;
      }

      .st5 {
        fill: #afdff9;
      }

      .st6 {
        fill: #cb9f4c;
      }
    </style>
  </defs>
  <path class="st0" d="M106.88,106.68c-.97,0-30.79,19.12-42.46,44.73-11.67,25.61-11.34,48.94-1.94,73.58s43.76,43.11,77.14,46.03,82-9.4,91.08-46.35-1.94-80.38-15.88-95.29c-13.94-14.91-40.52-17.18-55.43-20.42s-52.51-2.27-52.51-2.27Z"/>
  <path class="st4" d="M115.95,119s11.99-2.59,20.42.97,19.45,25.28,12.32,33.06-57.37,18.48-63.53,42.46,6.81,45.7,3.89,45.7-22.69-12.97-26.25-38.57c-3.57-25.61,23.99-79.74,53.16-83.63Z"/>
  <path class="st5" d="M106.23,252.54s50.24,14.59,84.6-1.3c34.36-15.88,38.25-61.58,32.74-82.98-5.51-21.39-11.02-27.55-12.32-26.58s4.86,28.52,4.21,43.11-9.72,45.05-32.41,50.56c-22.69,5.51-66.12,5.19-70.01,2.59s-11.99,10.05-6.81,14.59Z"/>
  <path class="st2" d="M110.09,158.06s-6.39.96-7.99,3.2-.96,9.27,5.43,9.27,7.99-4.48,6.71-7.03,0-5.43-4.16-5.43Z"/>
  <path class="st2" d="M115.2,138.24s-5.43.96-7.67,4.48,3.52,9.91,8.95,8.63,6.07-12.15-1.28-13.11Z"/>
  <path class="st2" d="M122.56,121.62s-6.39,1.6-4.48,6.07,7.67,2.88,9.59.64-1.92-7.99-5.11-6.71Z"/>
  <path class="st0" d="M107.85,94.36s2.27-35.01,24.63-47.97,48.94-4.86,58.34,4.86,16.85,46.67,14.26,54.45-92.05-4.54-92.05-4.54l-5.19-6.81Z"/>
  <path class="st1" d="M115.95,96.63s19.45-3.89,45.05-.32,46.35,6.81,47.32,9.72-1.3,3.57-1.94,7.13,1.62,8.1-1.62,10.05-25.28-8.1-50.56-9.72c-25.28-1.62-41.81-1.94-43.11-1.94s3.24-14.91,4.86-14.91Z"/>
  <path class="st1" d="M104.28,115.11s-9.4,19.77-11.34,27.55-1.3,0-1.3,0l-14.91-3.24s10.37-28.2,13.94-32.41c3.57-4.21,13.61,8.1,13.61,8.1Z"/>
  <path class="st3" d="M123.41,95.98s-5.83,3.89-6.81,8.75-8.1,13.29-12.97,13.29-14.91-4.21-15.23-10.37,12.64-15.56,19.77-15.56,15.23,3.89,15.23,3.89Z"/>
  <path class="st1" d="M76.73,139.42l-1.62,8.43,2.27.32,2.92-10.05h2.92l-1.62,10.7h4.21l1.94-9.4,2.27-.32-.97,10.05h3.24l.97-8.43-.65-4.54s-11.02-2.59-15.88,3.24Z"/>
  <path class="st2" d="M121.79,78.16s-2.27,3.89,1.3,4.54,4.54-2.59,3.89-3.57-4.86-2.59-5.19-.97Z"/>
  <path class="st2" d="M128.27,86.91s4.54,2.27,4.54-.32-4.21-5.51-4.54.32Z"/>
  <path class="st2" d="M140.26,89.18s.97,1.62,1.62-.97-1.94-4.21-3.89-2.92-.97,2.92,2.27,3.89Z"/>
  <path class="st2" d="M149.34,87.55s3.57-.32,2.59-2.27-4.54-.32-4.86.97,2.27,1.3,2.27,1.3Z"/>
  <path class="st2" d="M156.47,84.31s3.89,1.3,4.54-1.62-1.62-4.86-2.92-3.57-1.62,5.19-1.62,5.19Z"/>
  <path class="st6" d="M133.13,76.86s6.16,0,6.48-3.89-20.42-11.67-20.42-11.67c0,0,5.51,14.91,13.94,15.56Z"/>
  <path class="st2" d="M130.86,53.52s-2.92,6.48,1.62,6.16,4.54-4.54,3.24-6.16-4.86,0-4.86,0Z"/>
  <path class="st2" d="M156.76,57.69s-5.11.64-3.52,4.48,5.75,2.56,7.67.64-2.56-5.43-4.16-5.11Z"/>
  <path class="st5" d="M186.29,57.41s6.16,19.45,4.54,27.23-8.75,10.7-7.13,11.67,8.1,2.59,11.02.65,3.57-13.61,1.62-21.39-7.13-20.74-10.05-18.15Z"/>
  <path class="st2" d="M141.88,42.18s36.63,1.3,45.38,6.48c0,0,4.86-24.31,4.86-25.93s-18.8-6.16-32.41-5.83-15.56,1.3-15.56,1.3l-2.27,23.99Z"/>
  <path class="st2" d="M187.58,29.86s-.97,2.27,0,2.27,3.24-2.92,6.16-.65.32,10.7-.97,10.7-3.89-3.89-5.19-2.59.32,4.21,2.92,4.86,6.16,1.3,7.78-7.13c1.62-8.43-7.13-12.32-10.7-7.45Z"/>
  <path class="st4" d="M116.33,73s-2,11.33,6,14.67.67,5.33-1.33,5.33-13.33-6-4.67-20Z"/>
</svg>