<?xml version="1.0" encoding="UTF-8"?>
<svg id="Vrstva_1" xmlns="http://www.w3.org/2000/svg" version="1.1" viewBox="0 0 283.46 283.46">
  <!-- Generator: Adobe Illustrator 30.1.0, SVG Export Plug-In . SVG Version: 2.1.1 Build 136)  -->
  <defs>
    <style>
      .st0 {
        fill: #f2c680;
      }

      .st1 {
        fill: #ba5d17;
      }

      .st2 {
        fill: #e2b31d;
      }

      .st3 {
        fill: #421d14;
      }

      .st4 {
        fill: #722e0e;
      }

      .st5 {
        fill: #fff;
      }

      .st6 {
        fill: #ab5017;
      }

      .st7 {
        fill: #f5ea85;
      }

      .st8 {
        fill: #f2ca4a;
      }

      .st9 {
        fill: #843b12;
      }
    </style>
  </defs>
  <path class="st9" d="M43.19,159.18s5.7,31.07,9.43,36.91,10.69,27.91,32.34,41.85c21.65,13.94,49,17.72,58.08,19.17s17.01-.78,33.27-.51c16.26.27,20.78-2.51,34.93-7.24,14.15-4.73,21.25-16.41,23.48-23.04,2.22-6.63,5.96-26.42,5.98-37.48.02-11.06.32-29.31-7.08-37.67s-.83,28.84-20.36,34.45c-19.53,5.62-57.73,12.33-78.81,8.97-21.08-3.36-79.23-33.03-79.23-33.03l-12.03-2.39Z"/>
  <path class="st6" d="M51.45,171.11s14.76,11.9,26.17,17.05c11.41,5.16,9,8.12,34.26,15.06,25.26,6.94,28.87,9.85,39.84,10.43,10.97.59,12.97.94,20.83,3.63,7.86,2.69,22.94-4.22,30.02-4.83,7.09-.62,8.11,3.94,13.76-2.3,5.65-6.24,11.94-12.81,16.6-23.71s.89-31.12.89-31.12c0,0-3.08,36.73-34.56,38.92s-82.93,2.12-92.78-1.79c-9.86-3.9-55.08-32.46-55.08-32.46,0,0-12.04,2.83.06,11.11Z"/>
  <path class="st4" d="M59.09,199.33s9.48,6.3,17.34,8.13,26.12.55,28.81,1.92-5.53,1.8-10.52,3.91-16.53,1.44-21.08.71-14.54-14.67-14.54-14.67Z"/>
  <path class="st4" d="M76.16,223.72c2,.55,8.93,6.08,15.95,9.53,7.02,3.45,9.18.88,17.6,2.81,8.43,1.93,33.41-5.73,27.43-2.61-5.97,3.12-25.74,7.54-25.74,7.54,0,0,17.95,9.85,22.84,10.63,4.88.78,13.49,1.57,17.26-.16s8.97-16.04,9.47-11.88,4.82,13.58,10.02,13.83,14.55-14.55,16.6-12.78c2.05,1.78,10.95.7,16.48,2.54,5.53,1.84-.99-12.01,1.84-11.56s18.69,1.24,20.72-1.35c2.03-2.59,1.3-7.36,1.72-10.79s11.21-16.33,11.61-20.29l.4-3.96s6.69,66.83-64.07,61.36c0,0-26.88,3.86-47.58.56-20.7-3.3-57.65-16.19-71.56-45.78l-4.55-15.28s13.5,24.86,23.54,27.63Z"/>
  <path class="st0" d="M43.15,153.24s5.15-21.31,34.97-29.36c29.82-8.05,84.12-1.71,98.89.64,14.76,2.36,53.07,14.08,56.13,24.1,3.06,10.02-5.73,46.83-17.51,51.36-11.79,4.52-14.22,3.01-27.21,7.03-12.99,4.02-27.81-1.84-39.9-2.6-12.09-.76-52.68-5.33-71.87-16.55-19.2-11.22-35.64-17.49-33.49-34.62Z"/>
  <path class="st1" d="M54.24,153.19s4.98-13.8,12.96-18.08,15.63-7.58,27.56-7.76,22.5,1.08,25.92-.77,37.13,2.49,50.29,4.94,37.96,8.14,44.87,12.72c6.91,4.58,10.56,9.31,11.71,13.68,1.15,4.37-1.91,22.44-9.43,25.45-7.52,3-61.43,12.56-70.68,12.13s-26.65-1.79-44.6-8.14c-17.95-6.35-57.34-25.14-48.6-34.17Z"/>
  <path class="st7" d="M139.61,158.15s-12.02-1.34-12.5-31.11c-.49-29.78,13.52-110.23,22.72-105.85,9.2,4.38,12.65,121.39,6.39,131.45-6.26,10.06-16.6,5.5-16.6,5.5Z"/>
  <path class="st8" d="M140.93,102.46s-16.26,29.55-12.19,39.89c4.07,10.34,5.47,16.79,15.93,16.95s15.7-7.17,11.74-26.14-11.95-37.63-15.48-30.71Z"/>
  <path class="st2" d="M143.1,123.19s-9.84,34.64,1.57,36.12c11.41,1.47,2.98-41.21-1.57-36.12Z"/>
  <path class="st6" d="M78.41,165.03s-3.61-7.87,3.26-9.56c6.87-1.68,19.77-4.14,25.28-6.04s11.02-5.89,11.02-5.89c0,0-19.09,4.25-30.65,4.84-11.56.59-14.99,2.47-15.69,6.88s6.78,9.77,6.78,9.77Z"/>
  <path class="st6" d="M183.71,147.32c3.28,1.34,15.88,5.09,18.96,9.75s15.2,11.46,11.39,15.72c-3.81,4.26-10.51,4.92-10.51,4.92,0,0,8.59-1.6,3.74-8.19-4.86-6.58-7.18-7.65-11.07-11.4s-12.5-10.8-12.5-10.8Z"/>
  <path class="st5" d="M113.3,190.55s-3-10.34,8.43-14.25c11.44-3.91,35.04-8.14,47.32-2.35,12.28,5.78,8.32,17.8,8.32,17.8,0,0-30.15,4.98-42.93,2.85s-21.15-4.04-21.15-4.04Z"/>
  <path class="st0" d="M144.6,186.72s2.48,3.87,4.14.66c1.66-3.21-2.09-23.26-2.09-23.26l-5.8.81s-.39,21.13,3.75,21.79Z"/>
  <path class="st3" d="M143.19,139.82l-2.33,25.11s5.53.88,5.8-.81.33-27.37-3.46-24.3Z"/>
  <path class="st7" d="M136.56,181.35s-4.88,4.66-3.55,5.07,4.3.69,4.3.69c0,0-9.09,3.22-9.72-1.55s8.96-4.2,8.96-4.2Z"/>
  <path class="st7" d="M157.35,181.98s8.97.37,5.34,3.53c-3.63,3.16-6.36,2.84-6.36,2.84,0,0,14.23.08,11.52-4.7s-10.5-1.68-10.5-1.68Z"/>
  <path class="st0" d="M101.36,186.82s15.45,4.51,18.44,5.09,23.37,2.86,25.21,2.77,32.37-2.95,32.37-2.95c0,0-16.85,7.68-31.91,5.36s-43.68-7.07-44.1-10.28Z"/>
</svg>