<?xml version="1.0" encoding="UTF-8"?>
<svg id="Vrstva_1" xmlns="http://www.w3.org/2000/svg" version="1.1" viewBox="0 0 283.46 283.46">
  <!-- Generator: Adobe Illustrator 30.1.0, SVG Export Plug-In . SVG Version: 2.1.1 Build 136)  -->
  <defs>
    <style>
      .st0 {
        fill: #432412;
      }

      .st1 {
        fill: #623415;
      }

      .st2 {
        fill: #f5e4d7;
      }

      .st3 {
        fill: #ead3c4;
      }
    </style>
  </defs>
  <path class="st0" d="M23.09,152.7s16.23-20.86,26.7-30.44,11.93-11.57,12.53-16.96-12.53-57.35.27-60.62c9.17-2.34,63.43,18.25,63.43,18.25l-7.43-5.15s41.91-29.38,54.7-30.15c6.04-.37-114.9,138.24-114.9,138.24l-35.31-13.17Z"/>
  <path class="st1" d="M64.08,45.58s-3.29,0-1.2,20.95,6.28,41.59,4.49,44.28-46.08,40.69-45.78,43.09,5.39,11.37,13.46,15.26,39.8,14.96,42.49,19.75,18.85,65.23,23.34,66.43,23.94-8.38,37.1-14.96c13.17-6.58,22.74-17.95,31.72-17.95s50.96,14.14,53.95,12.04-.39-73.38-.39-73.38l2.99,4.19s32.02-42.19,32.91-47.28-49.37-29.62-49.37-29.62l-9.58-9.28s-14.96-51.17-17.06-52.06-9.87.6-9.87.6c0,0-44.58,32.61-46.08,33.51s-49.37-21.84-63.14-15.56Z"/>
  <path class="st2" d="M82.93,191.6s15.26,52.06,15.56,54.46.3,11.37,4.49,11.37,13.46-6.58,17.06-9.28c3.59-2.69,23.94-14.66,32.61-20.05s12.27-7.48,16.46-7.78c4.19-.3,46.68,15.86,51.17,15.26s6.58-1.5,7.78-2.99-7.18-.3-12.57-2.99-40.69-18.55-44.88-18.55-35.31,21.54-40.39,24.24-21.24,17.06-23.34,13.46-13.76-55.95-16.46-61.34-34.41-15.86-44.58-20.95-15.56-8.98-14.36-10.77,46.98-33.21,47.88-39.2-11.97-60.44-8.38-62.24,55.06,15.56,61.04,14.66,47.58-35.91,48.47-37.1,3.29-7.78,0-7.48-43.99,36.21-47.88,36.21-63.73-16.76-65.83-16.46-3.59,6.58-3.59,11.67,9.87,53.56,8.38,56.25-49.67,40.39-50.87,44.88c-1.2,4.49,7.78,9.58,27.23,15.86,19.45,6.28,34.11,14.36,35.01,18.85Z"/>
  <path class="st2" d="M176.89,30.62s6.88,11.67,13.76,31.72c6.88,20.05,7.78,28.13,16.46,31.42,8.68,3.29,43.99,20.65,45.78,23.94s-26.63,37.1-29.62,43.39c-2.99,6.28-2.39,14.66-2.39,17.06s4.49,52.36,1.2,53.56-1.8,3.89-1.8,3.89c0,0,8.98,2.39,8.98-9.87s-3.89-55.36-1.8-58.05,36.8-46.98,36.21-51.47c-.6-4.49-.6-5.09-3.89-5.39s-45.18-21.54-50.27-26.33c-5.09-4.79-9.87-16.46-11.97-23.04-2.09-6.58-10.17-38.6-15.86-37.4s-4.79,6.58-4.79,6.58Z"/>
  <path class="st2" d="M76.95,115s1.2,3.59,5.98,6.58,61.94,24.54,79.89,28.73c17.95,4.19,61.64,22.14,64.63,20.65s2.09-6.28.6-7.48-72.41-19.75-84.68-25.73c-12.27-5.98-65.53-26.33-66.43-22.74Z"/>
  <path class="st2" d="M134.4,64.13s-3.89,5.69-2.09,8.68,7.18,31.12,11.07,54.76c3.89,23.64,11.07,36.21,14.36,48.47s2.69,43.09,5.09,41.89,6.58-.3,5.98-7.78-3.59-31.72-6.88-43.39c-3.29-11.67-11.67-36.8-12.27-41.89s-11.37-57.45-12.57-60.14-2.69-.6-2.69-.6Z"/>
  <path class="st2" d="M204.41,87.17s-18.25,20.95-26.93,29.32c-8.68,8.38-39.5,31.72-41.89,35.31s-25.13,19.45-33.81,24.24c-8.68,4.79-12.27,7.78-13.46,10.17s.3,5.39,3.59,5.39,38-22.44,42.19-27.83,7.18-8.68,14.36-13.46c7.18-4.79,43.39-39.5,46.98-43.99s14.36-13.17,13.46-15.56-4.49-3.59-4.49-3.59Z"/>
  <path class="st2" d="M72.46,82.98s22.14-.3,26.03-3.89-2.39-21.54.6-22.14,4.49,1.8,5.39,5.39,3.89,22.14,2.09,24.24-6.28,2.39-10.17,2.09-23.64,1.5-23.64,1.5l-.3-7.18Z"/>
  <path class="st2" d="M151.45,51.56s8.98,9.58,10.77,14.36,4.79,11.97,10.47,11.07,8.98-9.28,12.57-11.37,11.97-4.19,12.27-8.38-.9-6.88-4.19-5.09-15.86,14.06-19.45,14.36-11.67-17.35-14.96-18.25-7.48,3.29-7.48,3.29Z"/>
  <path class="st2" d="M226.26,97.04c0,.9,3.29,8.38-2.69,12.57s-7.48,15.86-2.39,16.76,14.36,8.38,16.16,12.27,4.49,8.38,6.88,5.69,2.39-6.28.6-9.28-18.25-11.97-18.85-15.86,7.18-12.87,6.88-16.16-6.58-5.98-6.58-5.98Z"/>
  <path class="st2" d="M185.56,220.02c.9-2.69,6.58-14.06,5.69-20.35-.9-6.28,2.69-8.38,9.28-6.88,6.58,1.5,25.73-2.09,26.33,3.59s-2.09,8.38-5.09,6.58-22.14-2.99-23.04-.6-3.89,22.14-7.48,21.84-5.69-4.19-5.69-4.19Z"/>
  <path class="st2" d="M92.8,212.54c.9,0,14.36-.9,23.94-6.28s14.06-7.18,15.56-1.2,10.47,25.43,6.88,29.02c-3.59,3.59-8.68,4.79-8.98,1.2s.3-21.84-4.49-21.54-23.94,9.58-28.73,7.18c-4.79-2.39-4.19-8.38-4.19-8.38Z"/>
  <path class="st2" d="M56,173.34s0-4.79,6.58-8.38,11.97-11.07,10.77-14.96-23.04-13.17-20.05-16.16,8.68-3.29,12.27-1.2,13.76,12.57,17.65,13.17,5.69,4.19,3.59,7.18-13.76,8.68-16.76,12.57-2.09,9.28-7.18,9.58-6.88-1.8-6.88-1.8Z"/>
  <path class="st2" d="M142.77,135.34c-.9-.6-7.78-13.17-10.47-14.36s-13.17-4.79-9.58-9.28,9.28-6.28,10.77-.9,12.87,15.86,14.06,19.75,2.69,6.58,2.69,6.58l2.99-.9,4.79-20.35s-5.09-8.08-.6-9.58,14.06-1.2,11.97,5.09c-2.09,6.28-4.19,5.98-5.69,8.98s-3.29,15.56-3.29,15.56c0,0,19.15-1.2,22.44-2.39s10.77-8.38,16.16-3.59-.9,11.37-7.78,11.37-17.06-.6-22.14.3c-5.09.9-7.78,1.8-7.78,1.8,0,0,9.28,20.65,14.06,22.74s8.68,9.58,4.49,12.57-9.28,2.99-11.37-4.49c-2.09-7.48-.3-4.49-4.19-12.87-3.89-8.38-6.58-12.57-7.18-11.07s-10.17,17.95-10.47,21.24,3.89,12.87-5.69,12.57-9.28-8.08-5.69-11.67,4.79-5.69,8.08-10.77c3.29-5.09,5.39-12.57,5.39-12.57,0,0-16.76,1.2-20.35,2.69s-13.17,6.58-17.95,5.09-7.18-7.48,1.5-9.28,17.65-3.29,24.54-4.49,8.38-2.99,8.38-2.99l-2.09-4.79Z"/>
  <path class="st2" d="M238.52,123.67s-1.8-7.48,4.79-7.48,6.58,7.78,3.59,9.87-8.38,0-8.38-2.39Z"/>
  <path class="st2" d="M175.99,55.75s-5.39.3-4.49-4.19,5.09-7.78,7.78-4.49c2.69,3.29,3.29,8.38-3.29,8.68Z"/>
  <path class="st2" d="M88.91,75.8s-11.97,1.8-8.38-7.48,11.37.3,11.97,3.89-3.59,3.59-3.59,3.59Z"/>
  <path class="st2" d="M48.82,156.89s-3.29-6.88,2.39-8.38c5.69-1.5,10.47,1.2,9.28,5.69s-9.87,6.28-11.67,2.69Z"/>
  <path class="st2" d="M112.85,235.58s-7.48-2.69-4.19-7.18c3.29-4.49,10.77-4.79,11.67.6s-7.48,6.58-7.48,6.58Z"/>
  <path class="st2" d="M214.89,219.72s-12.27,1.8-9.58-3.89,6.58-8.38,9.58-4.19,2.09,6.58,0,8.08Z"/>
  <path class="st3" d="M137.17,175.19s1.49,3.74,3.74,2.99,4.86,1.12,1.87,2.61-7.47-.75-5.6-5.6Z"/>
  <path class="st3" d="M171.64,174.18s5.83,5.35,5.83.97-.73-4.13-1.22-3.4-.49,3.16-4.62,2.43Z"/>
  <path class="st3" d="M110.15,154.01s1.22,1.22,4.62,0,9.48-2.67,9.48-2.67c0,0-11.42,0-14.1,2.67Z"/>
  <path class="st3" d="M189.14,138.7c-.88.41,8.26.97,8.51-2.19s-1.94-4.13-2.19-2.92,2.67.97-6.32,5.1Z"/>
  <path class="st3" d="M110.15,229.84s1.46,3.89,4.37,3.16,5.1-2.19,4.13-2.92-2.19.97-3.4.97-5.1-1.22-5.1-1.22Z"/>
  <path class="st3" d="M207.13,216.23s5.83,3.65,7.05,1.7,0-4.37-.49-3.65-.24,2.19-1.94,2.19-4.62-.24-4.62-.24Z"/>
  <path class="st3" d="M102.37,251.23s.73,3.65,4.13,3.16,8.99-5.59,8.99-5.59c0,0-8.99,3.65-9.96,3.16s-3.16-.73-3.16-.73Z"/>
  <path class="st3" d="M172.13,216.72s12.64,5.83,23.57,8.75,22.6,7.29,25.03,7.29h2.43s-.24,1.22-10.94-.24c-10.69-1.46-41.32-14.58-40.1-15.8Z"/>
  <path class="st3" d="M81.96,186.34s3.65,2.19,5.59,6.81,5.83,22.36,5.83,22.36c0,0-2.67-18.47-4.62-24.06s-6.81-5.1-6.81-5.1Z"/>
</svg>