<?xml version="1.0" encoding="UTF-8"?>
<svg id="Vrstva_1" xmlns="http://www.w3.org/2000/svg" version="1.1" viewBox="0 0 170.08 170.08">
  <!-- Generator: Adobe Illustrator 30.1.0, SVG Export Plug-In . SVG Version: 2.1.1 Build 136)  -->
  <defs>
    <style>
      .st0 {
        fill: #8bbacf;
      }

      .st1 {
        fill: #fff;
      }

      .st2 {
        stroke-width: 4px;
      }

      .st2, .st3 {
        fill: none;
        stroke: #fff;
        stroke-linecap: round;
        stroke-miterlimit: 10;
      }

      .st3 {
        stroke-width: 2px;
      }
    </style>
  </defs>
  <rect class="st0" x="-1.12" y="-1.13" width="172.5" height="172.5"/>
  <g>
    <g>
      <rect class="st1" x="82.04" y="22.71" width="6" height="124.67" rx="2.33" ry="2.33"/>
      <g>
        <polyline class="st2" points="73.54 28.37 85.06 44.71 96.54 28.37"/>
        <polyline class="st3" points="73.54 39.22 85.06 55.55 96.54 39.22"/>
        <polyline class="st3" points="73.54 50.06 85.06 66.39 96.54 50.06"/>
      </g>
      <g>
        <polyline class="st2" points="73.54 141.71 85.06 125.37 96.54 141.71"/>
        <polyline class="st3" points="73.54 130.86 85.06 114.53 96.54 130.86"/>
        <polyline class="st3" points="73.54 120.02 85.06 103.68 96.54 120.02"/>
      </g>
    </g>
    <g>
      <rect class="st1" x="82.04" y="22.71" width="6" height="124.67" rx="2.33" ry="2.33" transform="translate(0 170.08) rotate(-90)"/>
      <g>
        <polyline class="st2" points="28.37 96.54 44.71 85.02 28.37 73.54"/>
        <polyline class="st3" points="39.22 96.54 55.55 85.02 39.22 73.54"/>
        <polyline class="st3" points="50.06 96.54 66.39 85.02 50.06 73.54"/>
      </g>
      <g>
        <polyline class="st2" points="141.71 96.54 125.37 85.02 141.71 73.54"/>
        <polyline class="st3" points="130.86 96.54 114.53 85.02 130.86 73.54"/>
        <polyline class="st3" points="120.02 96.54 103.68 85.02 120.02 73.54"/>
      </g>
    </g>
  </g>
  <g>
    <g>
      <rect class="st1" x="82.04" y="22.71" width="6" height="124.67" rx="2.33" ry="2.33" transform="translate(-35.22 85.04) rotate(-45)"/>
      <g>
        <polyline class="st2" points="36.84 53.1 56.53 56.51 53.1 36.84"/>
        <polyline class="st3" points="44.51 60.77 64.2 64.17 60.77 44.51"/>
        <polyline class="st3" points="52.17 68.44 71.87 71.84 68.44 52.17"/>
      </g>
      <g>
        <polyline class="st2" points="116.98 133.24 113.57 113.55 133.24 116.98"/>
        <polyline class="st3" points="109.31 125.57 105.91 105.88 125.57 109.31"/>
        <polyline class="st3" points="101.64 117.9 98.24 98.21 117.9 101.64"/>
      </g>
    </g>
    <g>
      <rect class="st1" x="82.04" y="22.71" width="6" height="124.67" rx="2.33" ry="2.33" transform="translate(85.04 205.3) rotate(-135)"/>
      <g>
        <polyline class="st2" points="53.1 133.24 56.51 113.55 36.84 116.98"/>
        <polyline class="st3" points="60.77 125.57 64.17 105.88 44.51 109.31"/>
        <polyline class="st3" points="68.44 117.9 71.84 98.21 52.17 101.64"/>
      </g>
      <g>
        <polyline class="st2" points="133.24 53.1 113.55 56.51 116.98 36.84"/>
        <polyline class="st3" points="125.57 60.77 105.88 64.17 109.31 44.51"/>
        <polyline class="st3" points="117.9 68.44 98.21 71.84 101.64 52.17"/>
      </g>
    </g>
  </g>
</svg>