<?xml version="1.0" encoding="UTF-8"?>
<svg id="Vrstva_1" xmlns="http://www.w3.org/2000/svg" version="1.1" viewBox="0 0 283.46 283.46">
  <!-- Generator: Adobe Illustrator 30.1.0, SVG Export Plug-In . SVG Version: 2.1.1 Build 136)  -->
  <defs>
    <style>
      .st0 {
        fill: none;
        stroke: #e2e2e1;
        stroke-miterlimit: 10;
      }

      .st1 {
        fill: #836193;
      }

      .st2 {
        fill: #844c40;
      }

      .st3 {
        fill: #e2e2e1;
      }

      .st4 {
        fill: #fafafa;
      }

      .st5 {
        fill: #724033;
      }

      .st6 {
        fill: #040505;
      }

      .st7 {
        fill: #59342f;
      }

      .st8 {
        fill: #faf7f7;
      }

      .st9 {
        fill: #2d2d2d;
      }

      .st10 {
        fill: #5c5a5a;
      }

      .st11 {
        fill: #502e27;
      }
    </style>
  </defs>
  <rect class="st1" x="-4.84" y="-70.87" width="294.2" height="457.76"/>
  <polygon class="st8" points="191.36 181.55 196.59 177.61 162.14 179.58 158.35 185.19 191.36 181.55"/>
  <path class="st0" d="M231.89,142.97s31.25-7.58,42.49-.46"/>
  <path class="st0" d="M231.71,141.18s22.48-12.87,47.15.03"/>
  <path class="st0" d="M230.95,135.47s26.61-24.3,47.35-22.93"/>
  <path class="st0" d="M230.37,131.93s21.72-20.3,35.15-16.65"/>
  <path class="st0" d="M229.7,131.36s31.98-35.54,59.66-25.12"/>
  <path class="st0" d="M231.43,138.34s20.56-11.27,33.17-1.59,13.7,10.37,13.7,10.37"/>
  <path class="st0" d="M275.84,142.24c-15.35-3.65-44.41.73-44.41.73,0,0,10.42,2.1-12.87,42.76"/>
  <path class="st0" d="M231.43,147.13s29.15-1.6,30.89,29"/>
  <path class="st0" d="M230.95,151.65s17.66,4.48,21.68,22.93"/>
  <path class="st0" d="M231.43,144.43s13.25-2.19,9.69,24.39c-3.56,26.59-3.56,25.86-3.56,25.86"/>
  <path class="st0" d="M230.37,155.12s13.22,11.05,12.76,27.23l-.46,16.17"/>
  <path class="st0" d="M231.25,136.57s22.38-5.3,13.7,18.55c-8.68,23.85-6.76,19.46-6.76,19.46"/>
  <path class="st5" d="M-2.07,240.05s13.39-4.31,15.86-7.39c2.47-3.08,18.85-12.01,20.08-12.01s2.8-2.46,4.03-11.4,6.48-128.77,72.41-139.86c0,0,51.46-1.85,62.24,0,0,0,11.4-12.01,16.64-12.94s5.55.31,5.55,2.16,11.4,21.26,9.55,29.27c0,0,5.85,14.48,7.09,15.4s16.02,13.56,18.48,25.57,3.7,25.57-2.46,31.12-34.81,14.48-34.81,14.48l-64.08,19.41-26.19-14.48,12.7,80.72-2.54,52.68-48.98,70.22-18.48,17.09H-2.07v-160.03h0Z"/>
  <path class="st8" d="M70.29,400.08s24.95-21.4,29.27-26.33c4.31-4.93,78.25-85.02,86.88-174.67,0,0,3.08-16.01,4.93-17.56s-39.13,1.54-39.13,1.54c0,0-19.35-1.17-21.38-1.97s-20.52-13.12-22.98-13.43-8.01-11.4-13.86-8.93-4,10.47-2.46,11.09,7.26,17.79,10.17,20.95-14.17,10.78-18.18,10.78,4.62,13.25,5.55,15.1-2.16,12.94,2.46,13.25,12.63,24.65,8.93,33.89-6.16,24.01-3.7,27.71-56.07,97.51-54.53,108.59h28.03Z"/>
  <path class="st3" d="M111.26,155.6s10.78,12.98,16.02,13.29c5.24.31,28.34,3.39,29.88,6.16s2.46,5.55,3.7,5.55,28.03,0,38.51-2.16,20.9-11.93,21.72-12.46c.9-.57,9.49-7.48,9.87-12.29,0,0-11.56,9.65-16.49,9.65,0,0-4,4.62-10.17,4.16s-22.2,10.01-34.98,3.23-28.18-3.23-28.18-3.23c0,0-29.27-7.02-29.88-11.91h0Z"/>
  <path class="st11" d="M148.98,126.37s1.08-8.08,6.89-8.83,10.88,2.48,11.37,3.61,2.91,4.96,3.12,5.44,4.09,5.76-1.94,8.08c0,0-2.91,3.5-10.07,3.99s-11.04-6.25-9.37-12.28h0Z"/>
  <path class="st6" d="M151.3,131.71s-.43-8.67,2.69-10.23,6.63-1.94,8.78-.65,6.03,6.57,3.72,10.29-5.93,5.17-9.75,5.01-5.44-4.42-5.44-4.42Z"/>
  <path class="st2" d="M231.56,139.59s-10.05-13.42-12.41-15.88-9.87-16.29-9.87-16.29c0,0-.91-9.93-1.45-11.15s2.6,6.82,3.95,7.17c1.44.38,4.19,4.36,3.62,5.32l3.01,3.98s2.27-.19,2.71-.14,8.33,11.11,8.74,16.24c.42,5.22,2.88,8.24,1.7,10.75h0Z"/>
  <path class="st11" d="M209.02,107.84s-.9-2,0-2.03,1.89.38,1.89.38l9.55,16.4s-.91,2.2-2.24.43-9.2-15.18-9.2-15.18h0Z"/>
  <path class="st10" d="M153.77,128.53s-.65-6.3,1.56-7.11,8.19-.81,9.43,3.56-2.21,3.99-2.21,3.99c0,0-5.17.99-5.55,0,0,0-3.18.31-3.23-.44Z"/>
  <path class="st6" d="M209.28,107.43s2.19-2.39,5.23-1.39,6.21,4.9,6.27,6.58.75,4.65,0,8.64-3.6-.14-3.6-.14c0,0-7.35-12.82-7.89-13.69h0Z"/>
  <path class="st10" d="M211.46,107.63s3.88-.86,5.28.97,1.72,3.66,1.67,4.15-3.39,1.74-3.72,1.68-1.38-.42-1.38-.42l-3.29-5.61s.96-.68,1.44-.77h0Z"/>
  <path class="st6" d="M203.35,151.77s-3.06-4.9-2.45-5.41,2.45-.2,3.26.51,10.51-4.69,12.86-5.1,9.9-1.43,11.22.82,1.12,7.24,0,7.86c0,0-3.37,8.37-6.02,8.37s-2.55-1.02-2.55-1.02c0,0-7.65,5.1-11.02,1.53s-5.31-7.55-5.31-7.55h.01Z"/>
  <path class="st9" d="M204.88,150.13s.31-.61,1.12-.82,3.88-5.1,10.61-6.22,10-2.21,11.22,0c1.22,2.21,1.84,5.88-1.84,7.79s-20.41,2.52-21.12-.75h0Z"/>
  <polygon class="st4" points="156.02 123.78 157.14 124.32 157.14 121.97 156.02 123.78"/>
  <path class="st2" d="M200.82,85.61s-10.26-15.78-11-16.81-.49-10.03,1.6-8.85,10.94,20.94,11.09,23.6-1.02,3.1-1.69,2.06Z"/>
  <path class="st5" d="M103.98,133.69c-.44-.02-12.09-2.09-15.93-8.49,0,0-12.39,5.08-11.5-5.16s6.93-37.23,25.07-40.33,27.14-1.62,32.89,2.95,9.73,6.78,7.96,9-33.1,14.31-32.77,16.81,1.95,25.52-5.72,25.22h0Z"/>
  <path class="st2" d="M94.94,125.79s3.01-11.88,3.56-12.61,5.48-5.94,5.57-6.58,15.35-11.33,17.54-11.05,12.88-10.96,3.65-12.79-13.89-3.38-17.91-2.74-18.36,12.33-18.82,15.26-.64,21.47,0,23.66,3.2,9.78,6.4,6.85h0Z"/>
  <path class="st0" d="M169.32,144.39s-36.5,1.23-41.68,32.43l-5.18,31.21"/>
  <path class="st0" d="M156.92,144.39s-51.82-11.93-59.93,18.87"/>
  <path class="st0" d="M133.95,196.3c-1.13-18.93,26.24-44.66,26.24-44.66"/>
  <path class="st0" d="M149.5,144.39s-38.53-.52-45.52,22.77"/>
  <path class="st0" d="M167.2,156.66s-52.94,10.8-55.94,25.68l-3,14.87"/>
  <path class="st0" d="M176.09,155.77s-32.68,24.22-39.44,38.91"/>
  <path class="st0" d="M167.2,150.88s-53.53,26.04-60.74,37.08"/>
  <path class="st0" d="M156.92,148.53s-43.34,10.95-50.47,24.56"/>
  <path class="st0" d="M163.92,159.63s-45.3,15.04-47.1,31.94"/>
  <polygon class="st2" points="104.99 106.79 108.55 96.1 120.92 92.54 126.35 96.01 104.99 106.79"/>
  <path class="st5" d="M133.84,96.31l-17.06-2.56,9.27,2.67h-7.49,1.75-5.42l.56,2.77h-3l-5.98-1.58,7.33,3.07-7.96.59,3.59,1.73-9.45,5.59,8.58.67-.95,5.49s26.24-17.51,26.24-17.98"/>
  <path class="st7" d="M126.35,78.9s-20.59-3.2-24.12-.82-17.22,14.49-17.82,15.6.25,24.97.9,26.37-.28,4.6-1.1,1.93-2.97-28.8-1.9-30.73,17.42-16.71,21.67-16.71,22.2.16,22.37,4.36Z"/>
  <path class="st7" d="M125.31,78.75s5.3,3.66,5.61,5.84,0,3.83,0,3.83c0,0,1.87-2.19,1.25-3.75s-7.42-7.64-7.42-7.64l.56,1.72Z"/>
</svg>