<?xml version="1.0" encoding="UTF-8"?>
<svg id="Vrstva_1" xmlns="http://www.w3.org/2000/svg" xmlns:xlink="http://www.w3.org/1999/xlink" version="1.1" viewBox="0 0 283.46 283.46">
  <!-- Generator: Adobe Illustrator 30.1.0, SVG Export Plug-In . SVG Version: 2.1.1 Build 136)  -->
  <defs>
    <style>
      .st0 {
        fill: none;
      }

      .st1 {
        fill: #998f94;
      }

      .st2 {
        fill: #8c7970;
      }

      .st3 {
        fill: #61534d;
      }

      .st4 {
        fill: #706058;
      }

      .st5 {
        fill: #b7a9a3;
      }

      .st6 {
        fill: #675852;
      }

      .st7 {
        fill: #fff;
      }

      .st8 {
        fill: #3d342c;
      }

      .st9 {
        fill: #231d19;
      }

      .st10 {
        fill: #856a47;
      }

      .st11 {
        fill: #67574f;
      }

      .st12 {
        clip-path: url(#clippath);
      }

      .st13 {
        fill: #937f76;
      }

      .st14 {
        fill: #7d6b64;
      }
    </style>
    <clipPath id="clippath">
      <rect class="st0" x="19.84" y="19.84" width="243.78" height="243.78"/>
    </clipPath>
  </defs>
  <rect class="st5" x="19.84" y="19.84" width="243.78" height="243.78"/>
  <g class="st12">
    <path class="st1" d="M11.43,183.03s-5.53-50.37-1.23-47.91c4.3,2.46,15.36,0,17.81,4.3,2.46,4.3,5.53-.61,9.21,1.23,3.69,1.84,6.76-5.53,10.44-3.07,3.68,2.46,6.14,3.68,6.14,3.68,0,0,6.76-8.6,11.06-4.3,4.3,4.3,10.44,11.06,10.44,11.06l8.6-1.23-5.53,53.44,11.67-53.44s7.37-7.37,7.37-1.23,5.53,6.14,5.53,6.14l14.74-4.3s28.26,1.84,30.1,3.07c1.84,1.23,25.18,3.07,27.03,8.6,1.84,5.53,15.97-11.67,18.43-9.83,2.46,1.84,14.13,5.53,14.13,5.53l3.07,17.81,3.07-15.36s.62-3.07,3.69-3.07,6.76-.61,6.76-.61l1.84,4.91-.61,7.37,6.76-7.99h7.37s-6.14,3.68,4.3,2.46c10.44-1.23,9.21-5.53,11.67-3.69,2.46,1.84,15.36,3.69,15.36,3.69v112.41l-263.51,1.23,4.3-90.91Z"/>
    <path class="st2" d="M122.16,133.4c.36-.89-2.71-17.16-3.84-20.99-1.13-3.84-20.32-24.15-21.45-40.63-1.13-16.48-2.71-20.54-1.13-23.48,1.58-2.93,4.29-4.06,5.42-5.42,1.13-1.36,2.48-4.29,5.64-2.48,3.16,1.81,23.7,12.87,29.57,28.67,5.87,15.8,10.16,27.54,7.9,37.25,0,0,5.87-2.93,7-2.26,1.13.68-.68-43.34,30.48-61.4,0,0,10.84-11.06,14.45-10.38,3.61.68,5.64,3.16,6.77,3.16s2.48.45,2.93,2.48c.45,2.03-9.48,54.18-16.7,57.56,0,0-7.45,11.29-9.03,14.67-1.58,3.39-5.42,14.45-6.77,15.35-1.35.9,2.48,3.16,2.48,3.84s2.26.68,2.26,2.03-1.13,3.84-1.13,3.84l-.68,11.29s.68-1.13,1.58,0c.9,1.13,1.58,3.84.9,4.29-.68.45,5.64,19.19,5.87,21.67.23,2.48,3.61,12.87,4.29,18.96s.23,8.35.23,8.35c0,0,7.68,28.9,7.68,32.06s4.74,52.82,5.42,56.89c.68,4.06-4.97,49.44-8.35,58.92-3.39,9.48-4.97,32.28-4.97,36.35s-4.06,17.83-2.71,25.73c1.35,7.9,3.16,53.27,2.48,58.92-.68,5.64-26.19,26.41-26.41,27.54-.23,1.13-10.84,3.84-14,2.71-3.16-1.13-6.77,5.19-10.16,5.19s-12.19-2.03-17.61-4.74c-5.42-2.71-28.89.68-32.51-1.36-3.61-2.03-6.77-5.87-9.93-8.13-3.16-2.26-30.48-2.03-29.12-19.64,1.35-17.61,7.22-39.5,6.55-43.12-.68-3.61-4.74-22.12.45-46.28,5.19-24.15,3.39-66.14,8.58-79.23,5.19-13.09,10.61-37.7,13.77-44.92,3.16-7.22,7.45-15.12,8.8-20.09,1.35-4.97,8.8-22.57,8.8-22.57,0,0,5.19-11.51,7.68-13.32,2.48-1.81,7-11.96,7.9-12.64s6.55-35.89,9.26-38.38c0,0-.9-4.29.68-4.51,1.58-.23,2.48-7.9,2.48-7.9,0,0-2.71-1.58-1.81-3.84"/>
    <path class="st14" d="M123.97,137.23s-3.2-1.96-1.81-3.84c1.4-1.88-.49-4.49-.79-6.18-.3-1.69-2-12.87-3.05-14.81-1.05-1.94-20.17-19.44-20.23-34.26,0,0-7.35-25.33-1.56-31.05,5.79-5.72,5.17-7.98,10.28-6.69,5.11,1.28,19.25,7.68,28.72,26.64,0,0,13.56,23.06,8.76,39.28l7.31-3.53s.52-26.97,10.86-40.22c10.34-13.25,11.83-16.18,22-22.51,10.17-6.33,13.14-13.48,16.99-5.34,0,0,6.57-2.06,4.49,6.97,0,0-2.93,42.05-16.72,53.8,0,0-2.59,9.77-8.6,13.82,0,0-4.9,17.26-6.58,18.11,0,0,3.59,2.81,3.92,5.2.33,2.39-1.61,13.89-1.61,13.89,0,0,3.17-1.05,2.55,5.36,0,0,2.25,11.51,4.08,14.17,1.84,2.66,2.04,21.44-2.66,25.52s-42.88,29.4-60.23,0c0,0-6.74-7.02-4.9-20.46,1.84-13.44,5.62-21.44,5.62-21.44,0,0-.9-4.36,1.64-5.63l1.52-6.79Z"/>
    <path class="st6" d="M144.38,197.67s11.23,3.88,17.97-1.22c0,0,13.48-9.19,13.68-14.91.21-5.72-2.04-18.78-2.45-19.6-.41-.82-.82-6.94-.2-7.96.61-1.02,5.17-1.08,5.44-3.2.27-2.11,0-5.99,0-5.99l-3.2-2.04,1.02-8.37s1.85-2.21,1.5-3.01c-.35-.79-2.03-4.62-4.11-3.97,0,0-9.59-12.83-12.37-13.44-2.78-.61-7.03-9.29-8.7-9.6-1.68-.31-6.53-1.63-8.58,0-2.04,1.63-5.51,8.17-6.94,9.19-1.43,1.02-7.35,9.8-8.58,11.84-1.22,2.04-6.2,6.12-6.22,6.01-.01-.1-1.67,2.2-.79,3.4.88,1.2,3.77-.84,5.59.59,1.82,1.43-4.3,10.01-4.3,10.01,0,0-2.41-.82-2.45,1.02-.04,1.84.11,3.23.11,3.23,0,0,2.14,4.73,3.97,5.55,1.84.82,6.94,0,5.72,5.31-1.23,5.31-2.86,15.93-1.63,20.83,1.23,4.9,4.66,15.02,15.52,16.33"/>
    <path class="st4" d="M142.2,163.58s-22.15,6.93-9.45,27.24c0,0,17.03,21.86,38.66,0,0,0,14.61-15.98-4.39-27.24,0,0-3.59-14.72-12.67-14.45,0,0-6.33-2.35-12.15,14.45"/>
    <path class="st3" d="M141.6,172.51s11.23-16.75,24.85-1c0,0-9.02,10.78-11.06,10.78s-13.95-6.63-13.78-9.78"/>
    <path class="st5" d="M136.3,180.47s-.69,15.42,15.74,12.27c0,0,1.67.18,3.33.42s13.93-.42,15.09-13.69c0,0,.66-9.95-4.64-7.96l-10.78,10.78s-13.76-7.3-13.43-9.78c0,0-5.31-.17-5.31,7.96"/>
    <path class="st8" d="M141.6,173.92s6.61,9.19,10.43,9.36c3.83.18,10.79-5.57,13.78-10.33,0,0,.84-1.12,0-2.13-.84-1.01-10.09,8.47-12.1,8.95-2.02.49-10.26-5.74-11.18-6.82-.92-1.08-1.61.05-.92.97"/>
    <path class="st8" d="M152.04,182.27s1.17,9.83,0,10.02c-1.17.19-4.13,1.11-3.14,1.27.99.16,5.84.94,7.3,0,1.45-.94-2.89-.95-2.44-1.91.45-.95-.37-9.85-.37-9.85l-1.35.47Z"/>
    <path class="st11" d="M175.2,133.27l2.42,4.5s1.74-5.2.53-6.41c-1.21-1.21-2.95,1.91-2.95,1.91"/>
    <path class="st10" d="M176.64,134.37s3.75,10.48-.31,12.12c0,0-3.89,1.14-4.06-3.83-.17-4.97-.33-6.47,1-7.46,1.33-1,2.14-1.82,3.37-.82"/>
    <path class="st11" d="M121.64,134.32s.54,1.56,1.43,2.23c.89.68,4.38,5.83,4.38,5.83,0,0-4.47,1.26-5,1.63-.54.37-1.8,1.63-1.75,3.12.04,1.5,11.23-.76,11.23-.76l-2.42-12.46s-8.07-.07-7.85.4"/>
    <path class="st10" d="M123.34,135.17s-1.73,8-.19,10.23c1.54,2.23,5.69.41,5.85-3.07.17-3.48-.9-4.72-1.22-5.83-.33-1.11-4.06-3.42-4.44-1.33"/>
    <path class="st9" d="M122.97,137.17s2.91-2.1,3.33,0c.42,2.1.73,4.76,0,6.49s-3.67.95-3.73-.22c-.06-1.17-.21-3.73.4-6.27"/>
    <path class="st9" d="M175.2,137.31s.73-1.84,1.57-.69c.85,1.15,1.7,3.08,1.42,6.47-.28,3.4-2.08,2.12-3,1.58-.92-.55-1.57-6.66,0-7.36"/>
    <path class="st13" d="M98.61,49.04s19.26,8.62,22.08,13.41c2.82,4.79,13.6,14.85,13.6,22.99s-4.07,22.03-3.59,23.71c.48,1.68.56,14.85-1.88,12.21-2.43-2.63-6.64-11.02-8.13-12.93-1.49-1.91-13.7-12.69-16.09-19.4-2.39-6.7-7.9-23.94-7.66-27.78.24-3.83-.07-13.02,1.68-12.21"/>
    <path class="st13" d="M168.29,116.8s5.45,7.18,5.96,3.83c.51-3.35,5.54-16.28,6.02-18.2.48-1.92,16.04-24.42,17.24-28.02,1.2-3.59,6.7-29.45,5.27-33.28-1.44-3.83-10.78,1.68-11.97,4.07-1.2,2.39-21.79,27.06-22.51,30.17-.72,3.11-4.55,23.71-3.35,26.58,1.2,2.87,1.83,13.01,3.35,14.85"/>
  </g>
  <g>
    <path class="st7" d="M110.01,239.53l-.38,2.92h-12.96l-.12-.72c1.06-1.04,7.86-10.94,8.68-11.9-2.2,0-5.9.1-7.64.36v-2.92h12.38l.08.74c-1.02,1.18-7.68,10.76-8.58,11.82,1.92-.02,5.8-.08,8.54-.3Z"/>
    <path class="st7" d="M113.81,242.77c-1.62,0-2.54-.74-2.54-2.34,0-1.9,1.6-3.44,4.94-3.76v-.3c0-.64-.36-.96-1.24-.96-1.02,0-1.86.22-2.82.66v-2.5c1.12-.26,2.08-.38,3.04-.38,2.34,0,3.58.98,3.58,3.04,0,1.7-.06,2.76-.06,3.86,0,1.02.16,1.82.38,2.36h-2.1c-.1-.48-.16-1.08-.16-1.66-.46,1.3-1.72,1.98-3.02,1.98ZM113.75,239.95c0,.46.24.74.74.74.58,0,1.68-.52,1.7-2.44-1.76.34-2.44,1-2.44,1.7Z"/>
    <path class="st7" d="M120.49,248.71c-1.12,0-1.96-.3-2.48-.86v-1.6c.42.26.82.4,1.44.4,1.02,0,1.74-.6,1.74-2.08v-11.02l2.88-.1c-.2,2.04-.26,7.82-.26,11.78,0,2.42-1.68,3.48-3.32,3.48ZM124.19,229.59c0,.86-.7,1.56-1.56,1.56s-1.54-.7-1.54-1.56.7-1.56,1.54-1.56,1.56.7,1.56,1.56Z"/>
    <path class="st7" d="M127.53,232.19l-1.66-.08,2.82-4.18h2.56l-3.72,4.26ZM126.37,233.55l2.88-.1c-.2,2.04-.24,5.92-.24,9h-2.64v-8.9Z"/>
    <path class="st7" d="M135.09,242.81c-2.2,0-4.22-1.4-4.22-4.46,0-3.38,2.42-5.16,4.9-5.16.74,0,1.46.14,2.06.38v2.66c-.64-.4-1.32-.58-2.04-.58-1.48,0-2.42.96-2.42,2.38s.92,2.24,2.32,2.24c.74,0,1.5-.24,2.14-.68v1.92c-.46.78-1.54,1.3-2.74,1.3Z"/>
    <path class="st7" d="M144.67,233.55h1.68c.16.48.26.86.32,1.36.88-1.1,2.12-1.66,3.68-1.66,2.6,0,4.22,1.76,4.22,4.44s-1.56,5.08-4.86,5.08c-.84,0-1.48-.16-2.06-.52v6.2h-2.88c.14-2,.2-7.64.2-11.94,0-1.24-.1-2.14-.3-2.96ZM147.65,238.29c0,1.62.72,2.42,1.94,2.42,1.28,0,2.06-1.14,2.06-2.7s-.68-2.54-2.04-2.54c-.8,0-1.46.32-1.96.76v2.06Z"/>
    <path class="st7" d="M165.77,238.05c0,2.84-2.18,4.76-4.98,4.76s-4.82-1.98-4.82-4.76,2.1-4.86,4.92-4.86,4.88,2.02,4.88,4.86ZM158.79,238.05c0,1.6.86,2.64,2.14,2.64s2.02-.96,2.02-2.58-.84-2.74-2.12-2.74-2.04,1.08-2.04,2.68Z"/>
    <path class="st7" d="M167.69,226.89l2.9-.12c-.18,2.42-.26,12.6-.26,15.68h-2.64v-15.56Z"/>
    <path class="st7" d="M174.25,233.55c.12.24.22.64.24.94.78-.68,1.94-1.22,3.26-1.22,1.84,0,3.44,1.06,3.44,3.72v5.46h-2.66v-5.12c0-1.24-.72-1.76-1.56-1.76-.52,0-1.02.18-1.48.46v6.42h-2.68v-6.48c0-.84-.12-1.76-.34-2.42h1.78Z"/>
    <path class="st7" d="M184.61,232.19l-1.66-.08,2.82-4.18h2.56l-3.72,4.26ZM183.45,233.55l2.88-.1c-.2,2.04-.24,5.92-.24,9h-2.64v-8.9Z"/>
  </g>
</svg>