<?xml version="1.0" encoding="UTF-8"?>
<svg id="Vrstva_1" xmlns="http://www.w3.org/2000/svg" xmlns:xlink="http://www.w3.org/1999/xlink" version="1.1" viewBox="0 0 283.46 283.46">
  <!-- Generator: Adobe Illustrator 30.1.0, SVG Export Plug-In . SVG Version: 2.1.1 Build 136)  -->
  <defs>
    <style>
      .st0 {
        fill: none;
      }

      .st1 {
        fill: #424241;
      }

      .st2 {
        fill: #756457;
      }

      .st3 {
        fill: #2a232a;
      }

      .st4 {
        fill: #1d1d1b;
      }

      .st5 {
        fill: #493c30;
      }

      .st6 {
        fill: #85705b;
      }

      .st7 {
        fill: #fff;
      }

      .st8 {
        fill: #ddd1bf;
      }

      .st9 {
        fill: #514032;
      }

      .st10 {
        fill: #f1ece5;
      }

      .st11 {
        fill: #b8a58e;
      }

      .st12 {
        fill: #918366;
      }

      .st13 {
        fill: #564637;
      }

      .st14 {
        clip-path: url(#clippath);
      }

      .st15 {
        fill: #a49b78;
      }
    </style>
    <clipPath id="clippath">
      <rect class="st0" x="19.84" y="19.84" width="243.78" height="243.78"/>
    </clipPath>
  </defs>
  <rect class="st8" x="19.84" y="19.84" width="243.78" height="243.78"/>
  <g class="st14">
    <path class="st10" d="M273.71,59.35s-38.7-6.14-62.04,9.83c-23.34,15.97-14.13,25.8-14.13,25.8,0,0-15.97-1.84-22.11,3.07l-6.14,4.91s-34.4-17.2-55.9-7.37c-21.5,9.83-51.6,25.18-52.83,35.63-1.23,10.44-42.38,9.21-51.6,35.63-9.21,26.41-5.53,104.42-1.84,105.04,3.69.61,268.43,1.23,268.43,1.23l-1.84-213.76Z"/>
    <path class="st13" d="M96.58,151.79s-5.1-5.95-6.46-14.44c0,0-1.36-6.63,6.46-2.72,0,0,12.91,4.42,14.1,6.12,0,0,9.51,5.44,10.54,6.8,0,0,4.59-1.53,5.27-.51,0,0,10.19-11.72,16.65-5.95,0,0,11.55-.85,12.74,0,0,0,13.59-8.16,17.33,6.8,0,0,3.06.85,4.25,0,0,0,10.87-8.16,17.84-9.35,0,0,16.31-10.7,13.08,2.55,0,0-6.97,15.46-12.57,18.35,0,0-4.08,3.74-13.08,3.57,0,0-4.42,5.61-6.63,6.29,0,0,.51,6.8-1.53,9.01,0,0,3.57,13.25,1.7,21.07,0,0,3.01,14.76,2.94,19.89,0,.32-.02.6-.05.84-.51,4.08,11.04,15.12,4.93,25.83,0,0-1.7,45.88-50.8,71.02,0,0-5.95,9.18-24.98,23.11,0,0-5.95,36.53-5.44,42.65,0,0,.85,21.07.85,23.11,0,0,.34,16.14-.68,20.73,0,0,2.6,20.39,2.23,22.09l2.35,12.91-14.61-3.91s0-10.87-.34-13.25c0,0-3.06-22.43-4.08-23.79,0,0-4.08-13.93-4.08-19.54,0,0-8.32-38.06-7.99-46.22,0,0-2.72-5.95-5.1-2.04,0,0-1.87,21.92-2.72,23.62,0,0,1.53,40.44-6.12,48.59,0,0-5.44,29.56-5.44,30.75l-10.88-.34s5.27-26.85,4.42-37.04c0,0-2.89-11.72-2.21-21.24,0,0-4.25-26.85-4.08-29.56,0,0-2.04-15.46-1.87-16.48.17-1.02-53.86,3.74-67.96-1.02,0,0-25.66,25.83-31.26,27.69,0,0-9.51,6.63-9.68,7.99,0,0-3.23,8.49-3.23,9.68,0,0,0,16.99,1.02,22.6,0,0,8.66,40.1,10.02,42.65l-16.14-.85s-3.06-22.77-3.91-24.64c0,0-6.63-22.94-6.29-25.66,0,0-2.55-3.4-2.72-5.95,0,0-4.76-21.75-4.93-22.77,0,0-4.76-6.29,2.04-12.06,0,0,21.58-19.03,23.45-24.47,0,0,1.53-8.15,2.04-8.5,0,0-1.36-1.53-2.72.17,0,0-19.03,24.13-22.43,25.83,0,0-17.5,18.69-21.07,22.26,0,0-12.23,18.18-14.44,23.28,0,0-10.02,42.82-9.51,49.61l-13.25-1.36s5.95-25.66,5.95-28.04c0,0,.17-8.67.68-10.53,0,0-2.21-9.35,1.87-13.59,0,0,2.38-7.47,2.38-10.19,0,0-1.7-16.99,3.06-21.41,0,0,11.72-14.1,12.4-16.48,0,0,12.57-26.5,10.19-41.97,0,0-7.82-44.86-4.08-53.18,0,0,1.02-14.44,22.6-23.28,0,0,20.56-20.22,26.34-21.24,0,0,11.38-3.06,17.67-.51,0,0,24.98-2.55,50.29,6.8,0,0,13.59,1.7,23.62-.68,0,0,17.5-5.78,35.68-4.25,0,0,12.57-.85,17.33-2.04,0,0,24.47-4.59,26.85-3.74,0,0,3.23-4.25,6.8-7.14,0,0,3.4-10.53,5.95-12.91,0,0,7.65-15.8,7.82-16.99,0,0-.17-2.04-1.7-2.55,0,0-7.64-7.82-7.3-8.67,0,0-10.87,2.21-19.37-11.21"/>
    <path class="st9" d="M124.96,174.21s1.54,4.99,2.97,5.64c0,0,5.58,23,9.74,26.5,0,0,7.54,12.34,13.52,13.12,0,0,14.29,2.34,17.8-4.03,0,0,4.42-16.39,4.03-18.39,0,0,1.99-17.05,1.78-17.91,0,0,2.19-8.48,1.31-9.86,0,0,6.34-3.65,6.63-6.29,0,0,18.94,3.23,25.66-21.92,0,0,4.66-13.6-13.08-2.55,0,0-11.83,2.57-17.84,9.35,0,0-2.62-.41-4.25,0,0,0,.1-17.77-17.33-6.8,0,0-9.62-.32-12.74,0,0,0-3.53-2.5-5.8-1.42,0,0-9.34,3.47-10.1,5.42l-.76,1.95s-3.66-1.02-5.27.51c0,0-11.81-11.24-24.64-12.91,0,0-8.4-6.79-6.46,2.72,0,0,1.35,10.67,6.46,14.44,0,0,6.61,12.94,19.37,11.21,0,0,7.33,11.16,9,11.21"/>
    <path class="st12" d="M163.3,138.13s7.81-7.21,9.44-12.36c0,0,2.92-8.93,2.83-17.51,0,0,1.03-11.59,1.8-13.05,0,0,.6-1.8,1.46.51,0,0,.34,7.13,0,10.65,0,0,1.2,12.71-.34,17.86,0,0,1.37,5.41,5.75,3.95,0,0,10.65-3.43,15.37-7.3,0,0,10.3-8.16,10.9-10.99,0,0,.69-5.49,1.03-6.01,0,0,.77-1.63,1.2,1.12,0,0,.69,4.72.51,5.92,0,0,16.57-16.31,17.86-32.11,0,0-.34-4.46-2.15-7.13,0,0-4.38-6.44-4.55-10.65,0,0-3.43-7.3-3.52-9.62,0,0-.69-2.66.77-1.72,0,0,4.46,6.78,5.24,8.41,0,0,5.49,11.25,6.52,11.5,0,0,1.89-1.72,1.98-4.46,0,0,1.29-7.98.51-14.94,0,0-1.03-6.18-1.8-7.73,0,0-.6-4.12,1.46-.86,0,0,4.55,6.27,5.07,11.85,0,0,3.43,5.15,7.21.51,0,0,3.35-3.43,3.09-7.81,0,0-.86-13.74-2.58-15.8,0,0-.09-2.23.94-1.03,0,0,4.46,5.24,5.32,14.25,0,0-.17,12.1-.86,13.05,0,0-.43.77.86,1.03,0,0,2.15.26,1.55,1.29,0,0,.17.69-2.83,1.72,0,0-4.72,4.81-5.67,6.78,0,0-4.21,8.41-3.95,9.19,0,0,.95.77,1.63-.43,0,0,1.63-3.26,1.89-3.61,0,0,.95-.51.95.6,0,0-2.06,6.95-3.35,8.84,0,0,2.49,11.59,1.72,13.91,0,0-5.41,22.32-33.74,30.22,0,0-15.62,10.22-33.31,13.39,0,0-6.92,3.83-7.13,4.55,0,0-3.95-.69-4.12-1.37,0,0-6.61-1.89-4.98-4.64"/>
    <path class="st10" d="M235.07,104.44s10.14-8.92,12.67-21.39c0,0,1.15,10.1-1.54,12.26,0,0-10.14,12.13-11.13,9.14"/>
    <path class="st15" d="M99.09,148.42c-.21-.42-9.19-8.82-5.85-11.3,0,0,6.24-1.17,9.74,1.95,0,0,9.22,5.93,10.65,6.28,0,0,3.77,5.93,4.81,7.49,0,0-2.08,2.08-4.16,2.34,0,0-10.78,2.21-15.2-6.76"/>
    <path class="st15" d="M181.19,150.75s7.02-8.83,18.32-10.78c0,0,3.51-2.73,4.81-1.95,0,0,4.94,5.72-1.69,10.52,0,0-9.22,7.4-12.86,8.71,0,0-8.44,1.69-10.52.52l1.95-7.02Z"/>
    <path class="st6" d="M125.2,167.25s.78-6.24,2.34-7.54c0,0,3.77-6.88,7.41-5.72,0,0,6.89.95,10.52,4.18,0,0,12.08-.28,13.51-1.32,0,0,10.65-6.71,14.68,1.32,0,0,3.38,4.39,3.38,6.34,0,0,1.24,3.55-.94,4.76,0,0,.98,7.34-1.31,9.86,0,0-3.21,23.18-8.4,25.65l-24.16,4.03s-8.06-1.86-10.07-14.18c0,0-3.96-10.63-4.22-14.79-.26-4.16-2.34-7.36-1.95-9.79,0,0-1-1.36-.78-2.82"/>
    <path class="st5" d="M126.37,167.32s-.65-.97.52-2.14c0,0,.71-1.17,3.05,0,2.34,1.17,3.77,2.27,4.35,3.31,0,0,.65,2.14.26,2.92,0,0-1.3,1.3-1.82,1.24,0,0-5.85,2.32-5.85-2.58,0,0-.36-2.31-.52-2.75"/>
    <path class="st13" d="M170.09,170.5s-.32-4.94,2.01-5.85c0,0,1.1-.39,1.56-.71,0,0,2.45-1.12,2.99,0,0,0,2.15,1.67-.55,5.35,0,0-.43,2.19-1.85,3.03,0,0-4.27.63-4.16-1.82"/>
    <path class="st3" d="M127.6,170.83s-1.71-4.21.91-4.61c0,0,2.92-.17,3.25,2.71,0,0,.71,1.97-.91,2.55,0,0-1.69,1.36-3.25-.65"/>
    <path class="st3" d="M171.71,166.54s3.18-2.86,4.09,0c0,0,.91,2.79-1.3,3.9,0,0-3.12.45-3.05-1.37,0,0-.49-1.97.26-2.53"/>
    <path class="st2" d="M139.18,169.58s-4.77-9.32-3.87-10.43c0,0,1.71-.75,2.61.75,0,0,8.36,6.66,10.7,5.38,0,0,4.36-7.49,7.76-.61,0,0,6.45.08,8.16-3.37,0,0,2.79-3.41,3.87-3.1,0,0,1.44,1.05.45,2.64,0,0-3.69,4.84-3.33,5.78,0,0,1.21,6.8-2.27,10.06,0,0,2.93,9.71,2.76,11.27,0,0,1.82,3.26,1.97,4.71l-26.09,1.54s-.29-5.12.61-6.33c.9-1.21,4.01-4.87,3.85-6.49,0,0-2.86-6.37-3.49-6.55,0,0-3.87-4.19-3.69-5.22"/>
    <path class="st12" d="M34.78,39.31s1.63-5.15,2.06,0c0,0-1.37,20-1.03,22.24,0,0,3.43,12.28,10.82,17.43,0,0,1.97,1.29,3.26,2.06,0,0-.17-10.56,1.03-10.99,0,0,1.8-.34,2.92,11.51,0,0,2.4.34,2.75-2.58,0,0-2.23-26.61,6.01-34.94,0,0,1.37-2.75,1.89-4.29,0,0,3.61-9.27,4.46-9.27,0,0,2.15.09,0,5.67,0,0,.69.26,1.97-.6,0,0,4.12-3.61,4.12-1.8,0,0,1.72-.43-4.89,6.87,0,0-2.4,4.29-2.66,5.92,0,0-3,27.93-.94,35.04,0,0,4.81,23.17,21.46,35.1,0,0-.17-10.3.86-10.56,0,0,.94-.69,1.2,1.72,0,0,.6,10.04,4.29,12.62,0,0,10.56,7.64,19.83,9.01,0,0,7.13-1.2,8.33,1.03,0,0-4.55-7.38-5.58-17.17,0,0-.26-14.17.09-15.02,0,0,1.12-3.86,1.89,1.03,0,0,1.29,9.62,1.46,12.36,0,0,1.2,8.76,4.64,12.54,0,0,8.24,11.42,9.27,12.88,0,0,1.9,2.73,3.06,2.57,1.16-.17-1.08,2.84-1.6,3.01,0,0-4.03,2.14-5.06,1.72,0,0-2.92,1.54-3.43.69,0,0-4.38-4.12-9.7-5.15,0,0-23.95-6.35-37.35-15.63,0,0-27.3-15.88-28.33-30.65,0,0-18.97-14.85-20-24.38,0,0-2.66-9.7.43-18.89,0,0,2.16-10.18,2.49-11.07"/>
    <path class="st11" d="M145.53,206.49s.59-1.23,1.95-1.23c0,0,15.29-1.05,16.58-.36,0,0,.64.01,1.16.93.52.92-2.14,5.34-5.72,6.83,0,0-4.22,1.04-8.9,0,0,0-5.2-1.69-5.07-6.17"/>
    <path class="st11" d="M140.11,202.96s.8-16.04,11.06-16.63c0,0,11.06-.88,12.67,1.27,0,0,10.99,9.89,2.98,16.88,0,0-24.3,3.86-26.71-1.52"/>
    <path class="st1" d="M145.92,194.99s1.17-5.59,4.94-4.16c0,0,6.62-1.12,8.31-.23,0,0,7.15-.61,6.69,4.39,0,0,.78,7.34-4.29,7.67,0,0-.85.86-.78,1.43,0,0,.46.78,0,1.17-.46.39-8.76.9-8.96.32,0,0,.13-1.95-.13-2.14,0,0-5.59-.06-5.78-8.44"/>
    <path class="st4" d="M151.83,205.58s7.73.26,8.96-.32c0,0,.19-2.52.78-2.6,0,0,2.18-.27,2.89-1.44,0,0-4.29-1.27-3.82-2.29,0,0,.28-1.68,1.03-1.77,0,0,3.27-2.77,2.8-4.32,0,0-1.12-2.02-4.19-.81,0,0-2.42,4.94-7.83.56,0,0-3.63-2.1-4.57,1.19,0,0,.84,3.77,2.7,4.27,0,0,1.17-.16,1.01.59,0,0-1.95,2.07-2.96,2.24,0,0-1.32-.09-.75.51,0,0,2.6,2.37,3.95,2.46,0,0-.52,1.3,0,1.72"/>
  </g>
  <g>
    <path class="st7" d="M99.9,247.79c-1.12,0-2.22-.44-2.94-1.06v-2c.52.32,1.24.54,1.9.54,1.36,0,2.42-.64,2.42-2.3v-15.7h3.18c-.2,2.66-.24,12.58-.24,16.08,0,3.2-2.06,4.44-4.32,4.44Z"/>
    <path class="st7" d="M109.16,238.19c0,1.4.86,2.32,2.7,2.32.78,0,1.6-.2,2.46-.66v1.68c-.82.8-2.02,1.28-3.24,1.28-2.32,0-4.42-1.52-4.42-4.42s2-5.2,5.06-5.2c2.18,0,3.24,1.26,3.24,2.86,0,.74-.28,1.46-.72,1.98l-5.06-.2c-.02.14-.02.24-.02.36ZM111.46,235.11c-.82,0-1.58.44-1.96,1.28l3.3-.1c0-.72-.5-1.18-1.34-1.18Z"/>
    <path class="st7" d="M116.76,226.89l2.9-.12c-.18,2.42-.26,12.6-.26,15.68h-2.64v-15.56Z"/>
    <path class="st7" d="M123.78,238.19c0,1.4.86,2.32,2.7,2.32.78,0,1.6-.2,2.46-.66v1.68c-.82.8-2.02,1.28-3.24,1.28-2.32,0-4.42-1.52-4.42-4.42s2-5.2,5.06-5.2c2.18,0,3.24,1.26,3.24,2.86,0,.74-.28,1.46-.72,1.98l-5.06-.2c-.02.14-.02.24-.02.36ZM126.08,235.11c-.82,0-1.58.44-1.96,1.28l3.3-.1c0-.72-.5-1.18-1.34-1.18Z"/>
    <path class="st7" d="M132.82,233.55c.12.24.22.64.24.94.78-.68,1.94-1.22,3.26-1.22,1.84,0,3.44,1.06,3.44,3.72v5.46h-2.66v-5.12c0-1.24-.72-1.76-1.56-1.76-.52,0-1.02.18-1.48.46v6.42h-2.68v-6.48c0-.84-.12-1.76-.34-2.42h1.78Z"/>
    <path class="st7" d="M147.24,226.89l2.9-.12c-.18,2.42-.26,12.6-.26,15.68h-2.64v-15.56Z"/>
    <path class="st7" d="M154.25,238.19c0,1.4.86,2.32,2.7,2.32.78,0,1.6-.2,2.46-.66v1.68c-.82.8-2.02,1.28-3.24,1.28-2.32,0-4.42-1.52-4.42-4.42s2-5.2,5.06-5.2c2.18,0,3.24,1.26,3.24,2.86,0,.74-.28,1.46-.72,1.98l-5.06-.2c-.02.14-.02.24-.02.36ZM156.56,235.11c-.82,0-1.58.44-1.96,1.28l3.3-.1c0-.72-.5-1.18-1.34-1.18Z"/>
    <path class="st7" d="M161.37,241.65v-1.72c.8.56,1.7.82,2.6.82s1.24-.3,1.24-.76c0-1.28-3.66-.92-3.66-3.82,0-1.84,1.62-2.98,3.54-2.98,1,0,1.64.14,2.2.38v2.48c-.54-.36-1.18-.68-2-.68-.7,0-1.06.26-1.06.72,0,1.26,3.6.96,3.6,3.88,0,2.14-1.84,2.84-3.46,2.84-1.32,0-2.26-.4-3-1.16Z"/>
    <path class="st7" d="M171.13,233.55c.12.24.22.64.24.94.78-.68,1.94-1.22,3.26-1.22,1.84,0,3.44,1.06,3.44,3.72v5.46h-2.66v-5.12c0-1.24-.72-1.76-1.56-1.76-.52,0-1.02.18-1.48.46v6.42h-2.68v-6.48c0-.84-.12-1.76-.34-2.42h1.78Z"/>
    <path class="st7" d="M181.49,232.19l-1.66-.08,2.82-4.18h2.56l-3.72,4.26ZM180.33,233.55l2.88-.1c-.2,2.04-.24,5.92-.24,9h-2.64v-8.9Z"/>
  </g>
</svg>