<?xml version="1.0" encoding="UTF-8"?>
<svg id="Vrstva_1" xmlns="http://www.w3.org/2000/svg" xmlns:xlink="http://www.w3.org/1999/xlink" version="1.1" viewBox="0 0 283.46 283.46">
  <!-- Generator: Adobe Illustrator 30.1.0, SVG Export Plug-In . SVG Version: 2.1.1 Build 136)  -->
  <defs>
    <style>
      .st0 {
        fill: none;
      }

      .st1 {
        fill: #cbbb98;
      }

      .st2 {
        fill: #0b0c0b;
      }

      .st3 {
        fill: #917e71;
      }

      .st4 {
        fill: #32272b;
      }

      .st5 {
        fill: #21241d;
      }

      .st6 {
        fill: #fff;
      }

      .st7 {
        fill: #293032;
      }

      .st8 {
        fill: #e0d5bb;
      }

      .st9 {
        fill: #502314;
      }

      .st10 {
        fill: #383b33;
      }

      .st11 {
        fill: #7b6a58;
      }

      .st12 {
        fill: #47393f;
      }

      .st13 {
        fill: #61645a;
      }

      .st14 {
        clip-path: url(#clippath);
      }
    </style>
    <clipPath id="clippath">
      <rect class="st0" x="19.84" y="19.84" width="243.78" height="243.78"/>
    </clipPath>
  </defs>
  <rect class="st8" x="19.84" y="19.84" width="243.78" height="243.78"/>
  <rect class="st1" x="19.84" y="19.84" width="243.78" height="243.78"/>
  <g class="st14">
    <path class="st11" d="M14.03,207.67s44.35,11.63,50.03,11.63,7.03,0,10.55-.27c3.51-.27,23.8-12.17,31.1-16.23,7.3-4.06,33.26-17.85,33.26-17.85,0,0,25.15-10.55,41.92-11.9,16.77-1.35,18.66-1.35,30.29.81,11.63,2.16,69.5,16.23,69.5,16.23,0,0,2.16,4.06.81,4.06s-63.56-17.04-67.34-16.5-2.97-.27-7.57-.81c-4.6-.54-28.13,1.35-37.59,3.25-9.47,1.89-37.86,15.14-41.38,16.77-3.52,1.62-14.33,7.57-15.15,9.19-.81,1.62-8.11,4.87-10.28,6.49-2.16,1.62-14.33,8.93-14.33,8.93,0,0,.81,1.89,0,2.97l-.81,1.08s73.29,24.07,77.08,24.34c3.79.27,11.63.27,11.63.27,0,0,1.89.54,4.87,2.43,2.98,1.89,70.05,29.21,75.72,33.26,5.68,4.06,6.22,1.08,11.63,4.87,5.41,3.79,27.86,12.98,27.86,12.98l5.95,4.06-35.43.54s-9.74-3.25-17.04-7.3c-7.3-4.06-6.76-3.51-12.98-6.49-6.22-2.98-35.97-14.88-47.06-19.74-11.09-4.87-8.65-2.97-22.45-6.76-13.79-3.79-35.43-11.09-47.06-13.52-11.63-2.43-42.73-14.6-51.11-16.5-8.38-1.89-12.17-4.87-20.28-6.22-8.11-1.35-33.54-5.95-33.54-5.95l-.81-18.12Z"/>
    <path class="st5" d="M182.25,218.22s46.79,55.98,57.88,61.39c11.09,5.41,13.25,1.35,12.44-.54-.81-1.89-36.24-53.28-36.24-53.28l-34.08-7.57Z"/>
    <path class="st5" d="M183.27,153.41s18.18,22.62,17.37,24.78l-.81,2.16s14.33,17.31,16.23,20.56l1.89,3.25s9.2,6.49,14.6,12.71c5.41,6.22,10.01,9.2,7.84,11.36-2.16,2.16-6.49-.54-6.49-.54l-31.64-20.56-18.99-53.72Z"/>
    <path class="st13" d="M175.22,143.03s4.6,3.79,12.17,16.5c7.57,12.71,14.06,30.29,15.68,34.62,1.62,4.33,4.06,8.11,2.98,10.55l-1.08,2.43s2.16-.81,3.79,1.62l1.62,2.43,2.98,7.57-35.7-23.26-13.25-48.68,10.82-3.79Z"/>
    <path class="st13" d="M171.16,137.9s-9.74-17.58-18.39-25.42c-8.65-7.84-20.55-20.55-31.37-23.53-10.82-2.98-17.58-3.52-19.74-5.14-2.16-1.62-5.95-7.3-7.03-10.55-1.08-3.25-5.95-21.91-18.39-26.23-12.44-4.33-22.72,1.89-24.88,4.87-2.16,2.98-2.16,7.84-1.62,9.74.54,1.89-.81,7.3.81,9.19,1.62,1.89,4.87,3.52,6.22,5.14,1.35,1.62,2.16,1.35,4.06,4.06,1.89,2.7,2.43,9.46,1.35,13.52-1.08,4.06-1.08,13.52,0,19.47s1.62,9.19,1.89,11.9c.27,2.7,1.89,21.64,4.6,28.67,2.7,7.03,7.03,22.72,32.99,33,25.96,10.28,67.61,2.43,67.61,2.43l1.89-51.11Z"/>
    <path class="st10" d="M130.86,198.2s17.85,10.82,31.1,15.15c13.25,4.33,25.69,8.65,42.73,13.25,17.04,4.6,21.91,4.87,21.91,4.87,0,0,7.57,2.43,8.93-1.08,1.35-3.52-6.76-10.55-13.25-13.52-6.49-2.97-19.47-8.38-19.47-8.38,0,0-8.92-9.74-13.79-12.44-4.87-2.7-6.76-4.33-6.76-4.33l-31.37-6.76-23.8,10.82s1.08,1.08,3.79,2.43"/>
    <path class="st3" d="M172.51,137.9s5.14,7.57,4.87,8.65c-.27,1.08-2.43-1.35-2.43-1.35,0,0,.54,2.7-1.62,2.16l-2.16-.54s1.08,3.24-1.08,2.7l-2.16-.54s7.03,8.93,8.11,12.44c1.08,3.51-1.08,3.51-1.08,3.51,0,0,11.09,11.63,10.01,15.69l-1.08,4.06s3.51,2.97,3.25,5.41c-.27,2.43-1.89,2.98-1.89,2.98,0,0-1.08,4.6-6.76,4.6s-25.15-7.84-25.15-7.84c0,0-6.49,5.14-8.65,5.14h-2.16s-2.98,2.43-5.41,1.08c0,0-2.43,1.89-5.14-.27,0,0-.81,2.71-7.84,0-7.03-2.7-35.16-20.01-42.19-30.29-7.03-10.28-11.36-26.77-8.11-38.67,3.24-11.9,14.88-22.18,24.88-21.37,10.01.81,35.97,6.22,48.14,13.52s22.99,14.87,25.69,18.93"/>
    <path class="st5" d="M73.93,79.61s9.6.81,11.49,1.76c1.89.95,1.49.95.81.95s-2.97,0-4.33-.54c-1.35-.54-7.98-2.16-7.98-2.16"/>
    <path class="st5" d="M71.91,80.97s.14-.13,4.46,1.22c4.33,1.35,5.68,1.35,8.52,1.49,2.84.14,4.6-.4,3.38.14s-2.57,2.16-7.03,2.16-9.33-5-9.33-5"/>
    <path class="st5" d="M70.01,83.4s1.76,2.98,6.9,3.92c5.14.95,10.14-1.08,9.87-.4-.27.68-4.6,5.68-8.92,4.73-4.33-.95-7.84-8.25-7.84-8.25"/>
    <path class="st5" d="M67.58,87.46s1.76,5.27,6.9,5.95c5.14.68,7.03-1.22,6.76-.41-.27.81-4.87,2.43-8.25,1.62-3.38-.81-5.41-7.17-5.41-7.17"/>
    <path class="st12" d="M50.14,63.12c.41,0,1.08,1.35,2.3,1.08s1.35.68,1.35,1.08-1.08,3.65-1.35,4.46c-.27.81-3.79,1.08-5,1.76-1.22.68-6.9,3.11-7.3,3.11s-.95,2.03-1.35,1.08c-.4-.95.14-5.27,2.03-6.63,1.89-1.35,6.09-4.06,7.71-5l1.62-.95Z"/>
    <path class="st4" d="M50.27,68.93s-7.98,3.24-8.38,3.65c-.41.41-1.76,2.03-1.76,2.03,0,0,2.03-1.49,2.7-1.89.68-.4,8.11-3.38,8.11-3.38l-.68-.41Z"/>
    <path class="st12" d="M53.92,63.12s-1.62-4.33,1.49-5.54c3.11-1.22,5.55-.95,6.9.68,1.35,1.62,2.98,2.3,3.25,3.65.27,1.35,0,1.89-.81,2.03-.81.14-4.46,3.25-6.49,3.11-2.03-.14-4.33-3.92-4.33-3.92"/>
    <path class="st9" d="M55.41,60.55s.41-2.43,2.7-2.3c2.3.13,3.25,2.3,3.25,3.52s-1.62,3.11-3.11,3.11-2.71-.68-2.84-4.33"/>
    <path class="st2" d="M58.11,59.33s1.49.81,1.62,2.57c.13,1.76-2.57,2.03-3.11,1.35-.54-.68-.81-2.03,0-3.11.81-1.08,1.49-.81,1.49-.81"/>
    <path class="st7" d="M94.08,111.12s3.65-.54,3.65-1.62c0,0,2.84,5.14-3.65,1.62"/>
    <path class="st7" d="M96.79,115.31s4.33-2.03,4.73-2.98c0,0,2.98,6.63-4.73,2.98"/>
    <path class="st7" d="M101.65,109.77l1.49-.54s2.71.81,2.03,1.35-3.52-.81-3.52-.81"/>
    <path class="st7" d="M103.28,112.07s2.97.54,3.52.81c.54.27,2.84.95,2.03,1.62-.81.68-5.54-2.43-5.54-2.43"/>
    <path class="st7" d="M108.55,110.72l1.89-1.08s2.3.54,1.49,1.62c-.81,1.08-3.38-.54-3.38-.54"/>
    <path class="st7" d="M105.31,116.53s2.57,3.24,3.79,3.52l1.22.27s-1.35,2.84-4.33,1.35c-2.97-1.49-3.52-3.38-3.52-3.38,0,0,2.3-.68,2.84-1.76"/>
    <path class="st7" d="M132.62,177.24s12.71,11.36,14.2,11.63c1.49.27.54,1.62-2.97.14-3.52-1.49-12.71-10.82-12.71-10.82l1.49-.95Z"/>
    <path class="st7" d="M138.71,176.84s2.7-3.65,3.24-5.27l.54-1.62,6.63,4.46,3.38,12.31s-12.31-6.9-13.79-9.87"/>
    <path class="st7" d="M142.09,163.32s8.38,6.49,10.95,6.63,5.27-1.08,5.27-1.08c0,0,2.7,2.57.54,2.71-2.16.13-7.3-.41-12.44-3.25-5.14-2.84-6.63-5.81-6.63-5.81l2.3.81Z"/>
    <path class="st7" d="M146.28,160.88c0-.68,1.35-3.51.68-4.6,0,0,4.6,1.35,5.27-.54,0,0,4.46,9.33,3.65,9.74-.81.4-9.6-4.6-9.6-4.6"/>
    <path class="st7" d="M158.18,158.58s5.68,9.06,5.27,11.63c0,0,18.12,10.28,18.39,8.52.27-1.76-6.9-13.79-6.9-13.79,0,0-1.62,1.08-7.17-1.35-5.54-2.43-9.6-5-9.6-5"/>
    <path class="st7" d="M154.53,149.25s10.28,5.27,12.31,4.6c2.03-.68,1.08-4.87,1.08-4.87,0,0,6.76,11.76,5.82,12.44-.95.68-8.11-5.68-10.68-6.9s-9.19-2.84-9.19-2.84v-1.49l.68-.95Z"/>
    <path class="st7" d="M154.8,176.97s5,.54,5.95-1.76c0,0,14.2,8.65,16.9,8.65s2.84,0,3.65,1.22c.81,1.22,3.38,4.19,2.03,6.22-1.35,2.03-5.41,2.03-13.25-1.08-7.84-3.11-12.71-6.08-12.71-6.08,0,0-1.89-6.22-2.57-7.17"/>
    <path class="st7" d="M128.16,163.72c.13-.68,3.38-3.38,3.65-5.41,0,0,3.92,2.97,4.87,3.11l.95.14s2.3,10.68.68,10.55c-1.62-.13-10.14-8.38-10.14-8.38"/>
    <path class="st7" d="M125.86,165.89s4.19,5.54,6.63,7.44c2.43,1.89,4.46,1.62,4.46,1.62,0,0-2.43,1.08-5.14-.81-2.71-1.89-7.3-8.25-7.3-8.25h1.35Z"/>
    <path class="st7" d="M120.72,164.13l8.65,10.95s-.4,1.08-.81.95c-.41-.14-8.65-9.2-8.65-9.2l.81-2.7Z"/>
    <polygon class="st7" points="116.94 168.73 122.21 175.22 115.99 168.86 116.94 168.73"/>
    <path class="st7" d="M104.63,168.73c.54,0,2.57-.81,2.57-.81,0,0,2.3,1.89,3.25,1.89h.95s.41,8.79-.41,8.11c-.81-.68-6.36-9.19-6.36-9.19"/>
    <path class="st7" d="M99.9,166.29s5.14,9.47,4.87,9.87c-.27.41-.95,2.43-1.49,1.76-.54-.68-6.36-12.17-6.36-12.17,0,0,2.57.68,2.97.54"/>
    <path class="st7" d="M92.6,163.45c0,.54,2.57,3.92,1.76,3.92s-2.16-2.57-2.16-2.57l.41-1.35Z"/>
    <path class="st7" d="M101.38,179.14s1.89,2.57,4.06,2.3c2.16-.27,2.57-1.62,2.57-1.62,0,0,2.7,1.62,4.46,1.22,1.76-.41,1.89-5.68,1.89-8.38v-2.7s3.79,9.19,7.03,9.74c3.24.54,5-.27,5-.27,0,0,1.89.14,4.73-1.22,2.84-1.35,1.49-.95,1.49-.95,0,0,4.73.68,5.54-.14.81-.81.81.81-1.49,1.49-2.3.68-3.79-.14-3.79-.14,0,0-4.73,2.16-5.41,2.16h-.68s-4.73.54-5.27.41c0,0-2.3,0-3.25-1.08-.95-1.08-2.97-5.95-2.97-5.95,0,0,.95,6.9-1.62,7.84-2.57.95-5.41-1.22-5.41-1.22,0,0-.68,1.89-3.11,1.62-2.43-.27-3.79-3.11-3.79-3.11"/>
    <path class="st7" d="M157.77,186.44s10.01,7.17,16.36,7.98c6.35.81,6.9.81,6.9.81,0,0-4.87.81-12.44-1.49-7.57-2.3-11.76-6.76-11.76-6.76l.95-.54Z"/>
    <path class="st7" d="M111.26,183.6s13.12,9.33,15.14,10.41,2.7,1.08,2.7,1.08c0,0-15.28-10.01-16.23-11.76-.95-1.76-1.49-1.89-1.49-1.89,0,0-1.08,1.35-.14,2.16"/>
    <path class="st7" d="M113.96,180.63c.41.54,19.07,12.85,20.69,13.52,1.62.68,1.22,0,1.22,0,0,0-20.96-12.58-20.96-15.01s-.95,1.49-.95,1.49"/>
    <path class="st7" d="M124.91,180.22c0,.68,9.74,9.06,13.93,10.95,4.19,1.89,5.81,1.35,4.19,1.89-1.62.54-9.46-3.11-12.98-6.22-3.51-3.11-6.76-6.36-6.76-6.36l1.62-.27Z"/>
    <path class="st7" d="M132.22,153.58s10.41,7.3,11.36,5.68c.95-1.62-2.16-6.49-2.16-6.49,0,0,.54,1.22-2.3,1.76-2.84.54-6.9-.95-6.9-.95"/>
    <path class="st7" d="M142.9,149.12s6.22,3.38,7.71,3.24l1.49-.13s.27,1.35-3.25.95c-3.52-.41-6.08-3.38-6.08-3.38l.13-.68Z"/>
    <path class="st7" d="M143.44,146.82s6.49,4.19,7.57,2.16c1.08-2.03-4.6-10.55-4.6-10.55l-2.03,1.22s3.78,5-.95,7.17"/>
    <path class="st7" d="M153.99,145.2s5,.41,5.14-1.08c0,0,6.49,2.97,6.76,4.19.27,1.22,1.35,4.19-.14,3.79-1.49-.4-11.76-6.9-11.76-6.9"/>
    <path class="st7" d="M161.02,132.08s3.24,4.33,1.76,6.76c-1.49,2.43-3.11,2.57-3.11,2.57,0,0,9.33,6.63,10.28,4.87.95-1.76-8.11-14.47-8.93-14.2"/>
    <path class="st7" d="M168.05,135.19s4.87,11.09,5,9.6c.13-1.49-5-9.6-5-9.6"/>
    <path class="st7" d="M158.31,137.35c-.4-.07,2.43-.68,2.57-1.76l.13-1.08s3.25,3.92-2.7,2.84"/>
    <path class="st7" d="M148.04,134.65s8.93,5.68,9.19,6.35c.27.68.68,1.76-1.49,2.03-2.16.27-4.19-.95-4.19-.95l-3.65-5.27.13-2.16Z"/>
    <path class="st7" d="M148.98,123.56s5.95,2.16,7.84,6.49,2.43,4.87,1.35,5c-1.08.13-6.9-1.89-6.9-1.89,0,0,1.22-4.6.68-5.54-.54-.95-2.98-4.06-2.98-4.06"/>
    <path class="st7" d="M137.22,118.69l1.62-.95s5.68,2.3,6.76,5.55c1.08,3.24.27,4.19-.54,4.6-.81.4-5.27-.81-5.27-.81l-1.08-3.11-1.49-5.27Z"/>
    <path class="st7" d="M139.92,129.65s3.65,1.08,4.33,2.3c.68,1.22,2.71,4.33.4,5-2.3.68-5.27-2.84-5.27-2.84,0,0,.54-3.65.54-4.46"/>
    <path class="st7" d="M133.57,137.62s4.06,1.08,4.46-.81l3.52,2.43s1.89,5.68,0,5.68-7.84-5.68-7.84-5.68l-.13-1.62Z"/>
    <path class="st7" d="M128.7,144.12s2.98-.68,3.52-1.62c0,0,5.27,3.79,5.27,4.33s-.95,2.3-2.57,2.16c-1.62-.14-6.22-4.87-6.22-4.87"/>
    <path class="st7" d="M123.7,135.6c.41,0,1.76-3.11,2.97-3.92,1.22-.81,3.92,4.46,3.52,7.3-.41,2.84-6.49-3.38-6.49-3.38"/>
    <path class="st7" d="M132.35,131.95s2.7.95,3.65.54,1.22.41,1.22.41c0,0,.27,2.57-1.49,2.84-1.76.27-3.38-3.79-3.38-3.79"/>
    <path class="st7" d="M131.81,126s2.98.27,4.19-.13l1.22-.41s1.22,3.38-.81,3.79c-2.03.41-4.6-3.24-4.6-3.24"/>
    <path class="st7" d="M129.24,116.94s5.14,1.62,5.54,2.57c.4.95,1.89,2.97-.54,3.51-2.43.54-5-6.09-5-6.09"/>
    <path class="st7" d="M119.64,127.48c2.03-1.76,5.14-2.84,5.14-2.84,0,0,2.03,4.73.27,5-1.76.27-5.41-2.16-5.41-2.16"/>
    <path class="st7" d="M118.02,130.59c.41,0,3.25,2.03,4.19,2.03h.95s-2.03,1.35-3.65.54c-1.62-.81-1.49-2.57-1.49-2.57"/>
    <path class="st7" d="M109.63,128.43s2.84,1.62,4.46,1.35l1.62-.27s-1.08,4.6-2.7,2.98c-1.62-1.62-3.38-4.06-3.38-4.06"/>
    <path class="st7" d="M113.69,121.67s5.14,2.98,3.79,3.65c-1.35.68-5.27-2.7-5.27-2.7l1.49-.95Z"/>
    <path class="st7" d="M117.34,119.91s2.43-1.35,3.65-1.62c1.22-.27,1.76-.54,1.76-.54,0,0,1.62,4.46-.68,5-2.3.54-4.73-2.84-4.73-2.84"/>
    <path class="st7" d="M115.04,114.37l1.76-1.22s3.52.41,3.24,1.49c-.27,1.08-5-.27-5-.27"/>
    <path class="st7" d="M111.8,115.45l1.62.13s2.84,2.03,2.3,2.03-3.92-2.16-3.92-2.16"/>
    <path class="st7" d="M123.29,144.39l2.97.41s4.6,3.92,4.19,4.19c-.41.27-6.63-1.89-7.17-4.6"/>
    <path class="st7" d="M121.8,149.66s3.92,5.68,7.03,5.41c0,0,.27,6.22-2.03,4.6-2.3-1.62-5-10.01-5-10.01"/>
    <path class="st7" d="M120.72,155.88s2.57,6.36,4.46,6.49c0,0,.54,1.08-.54,1.08s-5-2.84-3.92-7.57"/>
    <path class="st7" d="M112.2,155.74s3.92,4.73,6.63,2.84c0,0-.68,7.57-2.03,7.57s-5.68-6.08-5.68-6.08c0,0,1.08-1.35,1.08-4.33"/>
    <path class="st7" d="M116.66,147.5s.14,7.57-2.16,7.3c0,0,1.49,2.3,2.57,1.22,1.08-1.08,1.22-7.17,1.22-8.38s-.68-2.3-.68-2.3l-.95,2.16Z"/>
    <path class="st7" d="M105.58,161.02l2.84-.14,3.52,5.27s.27,2.16-1.08,1.35c-1.35-.81-5.27-6.49-5.27-6.49"/>
    <path class="st7" d="M103.14,161.02l1.89,3.52s-2.03,0-2.16-.81c-.14-.81.27-2.7.27-2.7"/>
    <path class="st7" d="M95.16,155.2s2.03,4.73,5,4.87c0,0-.14,3.38-1.49,3.38s-5.95-4.6-3.52-8.25"/>
    <path class="st7" d="M87.19,153.18s1.08-.13,1.35.27c.27.41,2.03,2.57,3.25,2.43,1.22-.13.14,2.84-1.49,2.03-1.62-.81-3.11-4.73-3.11-4.73"/>
    <path class="st7" d="M84.75,156.15s3.65,4.87,4.73,4.87,1.62-.41,1.08,0c-.54.41,0,2.7-2.03,1.76-2.03-.95-3.79-6.63-3.79-6.63"/>
    <path class="st7" d="M81.91,161.56s2.03,1.49,2.84,1.35c.81-.13,2.16,2.43,1.08,2.57-1.08.14-3.92-3.92-3.92-3.92"/>
    <path class="st7" d="M80.97,155.34l1.89.95s1.49,4.06.27,3.25c-1.22-.81-2.16-4.19-2.16-4.19"/>
    <path class="st7" d="M76.64,152.09l1.76-.13s1.49,3.24.41,3.11c-1.08-.14-2.16-2.98-2.16-2.98"/>
    <path class="st7" d="M79.61,148.85s3.65,2.16,4.33,1.49c.68-.68.27,1.35.27,1.35,0,0-.54,2.7-1.89,2.03-1.35-.68-2.7-4.87-2.7-4.87"/>
    <path class="st7" d="M78.13,139.11s.41,6.35.41,6.9-1.49,3.11-2.16,3.11-1.62-5.14-1.62-5.14l3.38-4.87Z"/>
    <path class="st7" d="M75.02,131.67s1.62,1.22,3.25.54c1.62-.68-.14,4.19-.95,4.33-.81.14-2.3-4.87-2.3-4.87"/>
    <path class="st7" d="M73.93,134.24c.29.29,1.35,2.43.68,3.52-.68,1.08-1.89,1.08-1.89,1.08,0,0,.54-5.27,1.22-4.6"/>
    <path class="st7" d="M80.83,134.24s1.49,6.9,2.97,8.52c1.49,1.62,2.43,2.3,1.08,2.3s-5.95-5.81-4.06-10.82"/>
    <path class="st7" d="M79.75,142.76s2.7,3.79,3.52,3.92c.81.14.27,1.49-.54,1.22-.81-.27-2.97-5.14-2.97-5.14"/>
    <path class="st7" d="M89.49,149.39s2.16,1.62,3.11,1.62,2.03-.54,1.08.54c-.95,1.08-1.08,2.84-2.16,1.89-1.08-.95-2.03-4.06-2.03-4.06"/>
    <path class="st7" d="M97.87,153.18s1.35.13,1.89.54,2.84,1.22,2.84,1.22c0,0-.4,3.52-1.76,2.57-1.35-.95-2.97-4.33-2.97-4.33"/>
    <path class="st7" d="M107.33,155.74c.41,0,3.11-.54,3.11-.54,0,0-.81,2.43-1.62,2.43s-3.38-1.35-3.38-1.35l1.89-.54Z"/>
    <path class="st7" d="M113.01,135.87s-1.49,1.08-.95,2.57c.54,1.49,3.11,1.76,3.52,1.08.41-.68-2.57-3.65-2.57-3.65"/>
    <path class="st7" d="M105.04,138.57l2.16-.68,2.03.68s-1.89,4.87-4.19,0"/>
    <path class="st7" d="M102.47,142.63l2.3-.27,2.57.54s-2.03,4.6-4.87-.27"/>
    <path class="st7" d="M110.71,141.41l1.62,1.08s-1.35,2.43-1.89,2.43.27-3.51.27-3.51"/>
    <path class="st7" d="M106.93,133.7c.41.13,4.06-.54,3.65.54s-3.25-.41-3.25-.41l-.41-.13Z"/>
    <path class="st7" d="M101.25,134.51s1.62-1.08,2.16-.54c.54.54,1.49,1.89,1.49,1.89l-3.65-1.35Z"/>
    <path class="st7" d="M97.46,135.73l1.62-.54,1.22,1.35s-2.97,0-2.84-.81"/>
    <path class="st7" d="M100.17,138.57l1.22-.27s2.03,1.62,1.35,1.62-2.57.27-2.57-1.35"/>
    <path class="st7" d="M103.14,146.96h2.7s.95,1.49-.68,1.62c-1.62.13-2.03-1.62-2.03-1.62"/>
    <path class="st7" d="M109.77,147.9s1.35.27,1.76.27-1.76,1.76-1.76-.27"/>
    <path class="st7" d="M105.58,151.82l1.89-.41s-1.08,3.25-1.89.41"/>
    <path class="st7" d="M112.47,151.96s2.3-2.43,2.3-3.11-.27,5.68-2.3,3.11"/>
    <path class="st7" d="M101.93,149.93c.14.41.95,1.76.95,1.76,0,0-.95.27-1.35.27s.41-2.03.41-2.03"/>
    <path class="st7" d="M96.25,149.39h2.7s-.4.95-.81,1.08c-.41.13-1.89-1.08-1.89-1.08"/>
    <path class="st7" d="M94.62,145.47s3.79-.95,2.97.13c-.81,1.08-2.97-.13-2.97-.13"/>
    <path class="st7" d="M90.7,146.28s-.68-1.22.14-.95c.81.27,2.16,1.49,1.89,2.3-.27.81-2.03-1.35-2.03-1.35"/>
    <path class="st7" d="M90.43,133.57l2.97.54s-2.84,2.7-2.97-.54"/>
    <path class="st7" d="M94.08,138.44l2.43-.54.54,1.35s-1.89,2.43-2.97-.81"/>
    <path class="st7" d="M94.08,142.36c.41.13,2.84-.27,2.84-.27v1.22l-2.84-.95Z"/>
    <path class="st7" d="M87.46,132.35s1.89,4.6,2.3,5.14c.4.54,1.89.95.4.54-1.49-.4-2.7-5.68-2.7-5.68"/>
    <polygon class="st7" points="83.81 133.43 85.43 138.17 82.86 133.7 83.81 133.43"/>
    <path class="st7" d="M95.98,130.59l2.43-.68s1.89,2.03,1.49,2.03-3.92-1.35-3.92-1.35"/>
    <path class="st7" d="M88.54,122.89s.41,3.65,1.49,2.3c1.08-1.35-.81-3.38-.81-3.38l-.68,1.08Z"/>
    <path class="st7" d="M83.54,126.27v2.98s-1.35.13-1.35-.54,1.35-2.43,1.35-2.43"/>
    <path class="st7" d="M80.43,126.81l-.27,3.24.27-3.24Z"/>
    <path class="st7" d="M86.78,141.95s3.52-.81,3.38,0c-.14.81-3.38,0-3.38,0"/>
    <path class="st7" d="M90.7,128.7l1.35.95s-1.89.81-1.35-.95"/>
    <path class="st7" d="M102.74,122.75l2.84,2.7s0,1.08-.81.68c-.81-.41-2.03-3.38-2.03-3.38"/>
    <path class="st7" d="M94.62,123.97c.41,0,3.92-1.62,2.97-.27-.95,1.35-2.97.27-2.97.27"/>
    <path class="st5" d="M142.36,198.75s9.74,2.03,12.04,2.16c2.3.14,3.52-.81,3.52-.81,0,0,2.3.14,3.25-.27l.95-.41s4.33-.54,4.73-1.35l.41-.81s-1.49,2.97-3.24,3.11l-1.76.14s-2.43,1.22-3.25,1.22h-.81s-1.76.54-4.46.54-11.36-3.52-11.36-3.52"/>
    <path class="st5" d="M167.37,200.23s5.54,4.19,9.74,3.52c4.19-.68,4.46-4.19,4.46-4.19,0,0,1.49,4.87-5.41,5-6.9.13-8.79-4.33-8.79-4.33"/>
    <path class="st5" d="M162.1,202.26s18.26,9.74,21.23,8.25c2.97-1.49.54-12.44.54-12.44,0,0,6.36,13.25-.4,13.79s-21.37-9.6-21.37-9.6"/>
    <path class="st5" d="M189.68,198.34s7.3,8.65,5.54,12.71c-1.76,4.06-8.38,4.19-14.74,2.03,0,0,6.9,3.92,10.68,2.84,3.79-1.08,5.82-3.79,5.54-6.08-.27-2.3-5.34-11.7-7.03-11.49"/>
    <path class="st5" d="M206.45,211.93s4.26,4.87,2.43,7.5c-1.83,2.64-8.93,2.03-8.93,2.03,0,0,6.49-.81,7.71-3.04,1.22-2.23-1.22-6.49-1.22-6.49"/>
    <path class="st5" d="M217.61,217.81s6.49,4.46,3.65,7.51c-2.84,3.04-8.72,1.62-8.72,1.62,0,0,15.01,1.01,5.07-9.13"/>
    <path class="st11" d="M137.08,18.09s15.69,9.74,29.75,23.8c14.06,14.06,15.14,9.74,32.99,23.8,17.85,14.06,74.64,52.47,74.64,52.47l-4.87,17.85s-38.94-20.01-55.17-34.62c-16.23-14.6-23.8-18.39-40.03-31.91-16.23-13.52-28.67-23.26-36.24-29.21-7.57-5.95-28.67-21.09-28.67-21.09l27.58-1.08Z"/>
    <path class="st11" d="M224.71,87.86s-7.57-34.08-5.41-41.65c2.16-7.57-14.06-34.62-14.06-34.62l8.65,2.7s8.11,18.39,10.82,25.42c2.7,7.03,1.08,9.74,4.87,17.85,3.79,8.11,9.74,44.35,9.74,44.35l-14.6-14.06Z"/>
    <path class="st11" d="M264.73,227.95c-.54-2.7-20.55-27.58-29.21-48.14-8.65-20.55-18.39-29.75-24.34-39.48-5.95-9.74-11.9-17.31-10.28-18.39s22.18,28.67,25.42,33.54c3.25,4.87,10.28,16.23,14.06,22.18,3.79,5.95,3.79,10.28,9.19,17.85,5.41,7.57,17.31,20.55,17.31,20.55l6.49,5.95,2.71,15.69-11.36-9.74Z"/>
  </g>
  <g>
    <path class="st6" d="M78.07,242.45h-2.96v-15.18h3.2c-.08,1.1-.14,3.4-.18,5.88,1.46-.06,5.62-.08,7.12,0v-5.88h3.18c-.2,2.66-.24,12.1-.24,15.18h-2.94v-6.88c-1.52-.06-5.78-.04-7.14.02-.04,2.72-.04,5.44-.04,6.86Z"/>
    <path class="st6" d="M93.95,236.45v6h-2.68v-5.48c0-1.64-.2-2.64-.48-3.42h1.76c.18.38.34.98.36,1.4.7-1.04,1.84-1.72,2.94-1.72.48,0,.88.12,1.22.3v2.78c-.44-.32-.92-.48-1.48-.48-.6,0-1.22.22-1.64.62Z"/>
    <path class="st6" d="M102.23,242.75c-2.56,0-4.18-1.78-4.18-4.48,0-2.42,1.62-5.02,4.82-5.02.88,0,1.54.18,2.1.5v-6.86l2.88-.12c-.16,2.4-.2,9.7-.2,12.56,0,1.06.08,2.3.22,3.12h-1.62c-.12-.42-.22-.8-.28-1.28-.92,1.08-2.14,1.58-3.74,1.58ZM104.97,237.69c0-1.6-.66-2.38-1.96-2.38s-2.04,1.2-2.04,2.7c0,1.64.72,2.54,2.08,2.54.76,0,1.44-.28,1.92-.72v-2.14Z"/>
    <path class="st6" d="M110.09,226.89l2.9-.12c-.18,2.42-.26,12.6-.26,15.68h-2.64v-15.56Z"/>
    <path class="st6" d="M118.19,229.59c0,.86-.7,1.56-1.56,1.56s-1.54-.7-1.54-1.56.68-1.56,1.54-1.56,1.56.7,1.56,1.56ZM115.17,233.55l2.88-.1c-.2,2.04-.24,5.92-.24,9h-2.64v-8.9Z"/>
    <path class="st6" d="M123.95,242.81c-2.2,0-4.22-1.4-4.22-4.46,0-3.38,2.42-5.16,4.9-5.16.74,0,1.46.14,2.06.38v2.66c-.64-.4-1.32-.58-2.04-.58-1.48,0-2.42.96-2.42,2.38s.92,2.24,2.32,2.24c.74,0,1.5-.24,2.14-.68v1.92c-.46.78-1.54,1.3-2.74,1.3ZM123.05,232.17l-2.48-4.22,1.52-.08,2.12,2.48,2.14-2.48,1.3.08-2.46,4.22h-2.14Z"/>
    <path class="st6" d="M134.93,233.55h3.1c-1.28,1.74-2.8,3.4-3.62,3.92,1.1.92,2.94,3.22,3.98,4.98h-3.38c-.36-.96-3.14-4.26-3.62-4.3-.02,1.52-.04,3.2-.04,4.3h-2.64v-15.56l2.9-.12c-.1,1.48-.26,6.48-.3,10.98.54-.08,2.54-2.5,3.62-4.2Z"/>
    <path class="st6" d="M141.53,242.77c-1.62,0-2.54-.74-2.54-2.34,0-1.9,1.6-3.44,4.94-3.76v-.3c0-.64-.36-.96-1.24-.96-1.02,0-1.86.22-2.82.66v-2.5c1.12-.26,2.08-.38,3.04-.38,2.34,0,3.58.98,3.58,3.04,0,1.7-.06,2.76-.06,3.86,0,1.02.16,1.82.38,2.36h-2.1c-.1-.48-.16-1.08-.16-1.66-.46,1.3-1.72,1.98-3.02,1.98ZM141.47,239.95c0,.46.24.74.74.74.58,0,1.68-.52,1.7-2.44-1.76.34-2.44,1-2.44,1.7Z"/>
    <path class="st6" d="M157.67,242.75c-2.56,0-4.18-1.78-4.18-4.48,0-2.42,1.62-5.02,4.82-5.02.88,0,1.54.18,2.1.5v-6.86l2.88-.12c-.16,2.4-.2,9.7-.2,12.56,0,1.06.08,2.3.22,3.12h-1.62c-.12-.42-.22-.8-.28-1.28-.92,1.08-2.14,1.58-3.74,1.58ZM160.41,237.69c0-1.6-.66-2.38-1.96-2.38s-2.04,1.2-2.04,2.7c0,1.64.72,2.54,2.08,2.54.76,0,1.44-.28,1.92-.72v-2.14Z"/>
    <path class="st6" d="M168.57,229.59c0,.86-.7,1.56-1.56,1.56s-1.54-.7-1.54-1.56.68-1.56,1.54-1.56,1.56.7,1.56,1.56ZM165.54,233.55l2.88-.1c-.2,2.04-.24,5.92-.24,9h-2.64v-8.9Z"/>
    <path class="st6" d="M175.49,242.51h-2.32c-.72-2.44-2.48-6.64-3.72-8.96h3.06c.64,1.52,1.64,4.38,2.02,5.8.64-1.62,1.52-4.12,1.94-5.8h2.72c-.76,2.14-2.72,6.54-3.7,8.96Z"/>
    <path class="st6" d="M189.31,238.05c0,2.84-2.18,4.76-4.98,4.76s-4.82-1.98-4.82-4.76,2.1-4.86,4.92-4.86,4.88,2.02,4.88,4.86ZM182.33,238.05c0,1.6.86,2.64,2.14,2.64s2.02-.96,2.02-2.58-.84-2.74-2.12-2.74-2.04,1.08-2.04,2.68Z"/>
    <path class="st6" d="M197.47,233.55h3.1c-1.28,1.74-2.8,3.4-3.62,3.92,1.1.92,2.94,3.22,3.98,4.98h-3.38c-.36-.96-3.14-4.26-3.62-4.3-.02,1.52-.04,3.2-.04,4.3h-2.64v-15.56l2.9-.12c-.1,1.48-.26,6.48-.3,10.98.54-.08,2.54-2.5,3.62-4.2Z"/>
    <path class="st6" d="M204.06,242.77c-1.62,0-2.54-.74-2.54-2.34,0-1.9,1.6-3.44,4.94-3.76v-.3c0-.64-.36-.96-1.24-.96-1.02,0-1.86.22-2.82.66v-2.5c1.12-.26,2.08-.38,3.04-.38,2.34,0,3.58.98,3.58,3.04,0,1.7-.06,2.76-.06,3.86,0,1.02.16,1.82.38,2.36h-2.1c-.1-.48-.16-1.08-.16-1.66-.46,1.3-1.72,1.98-3.02,1.98ZM205.32,232.19l-1.66-.08,2.82-4.18h2.56l-3.72,4.26ZM204,239.95c0,.46.24.74.74.74.58,0,1.68-.52,1.7-2.44-1.76.34-2.44,1-2.44,1.7Z"/>
  </g>
</svg>