<?xml version="1.0" encoding="UTF-8"?>
<svg id="Vrstva_1" xmlns="http://www.w3.org/2000/svg" xmlns:xlink="http://www.w3.org/1999/xlink" version="1.1" viewBox="0 0 283.46 283.46">
  <!-- Generator: Adobe Illustrator 30.1.0, SVG Export Plug-In . SVG Version: 2.1.1 Build 136)  -->
  <defs>
    <style>
      .st0 {
        fill: none;
      }

      .st1 {
        fill: #504f4e;
      }

      .st2 {
        fill: #116b52;
      }

      .st3 {
        fill: #e64e64;
      }

      .st4 {
        fill: #12646d;
      }

      .st5 {
        fill: #665539;
      }

      .st6 {
        fill: #a45427;
      }

      .st7 {
        fill: #966d4c;
      }

      .st8 {
        fill: #b18e72;
      }

      .st9 {
        fill: #1d1d1b;
      }

      .st10 {
        fill: #c19781;
      }

      .st11 {
        fill: #c72130;
      }

      .st12 {
        fill: #fff;
      }

      .st13 {
        fill: #e2c7a1;
      }

      .st14 {
        fill: #191509;
      }

      .st15 {
        fill: #e0e0e0;
      }

      .st16 {
        clip-path: url(#clippath);
      }
    </style>
    <clipPath id="clippath">
      <rect class="st0" x="19.84" y="19.84" width="243.78" height="243.78"/>
    </clipPath>
  </defs>
  <rect class="st8" x="19.84" y="19.84" width="243.78" height="243.78"/>
  <g class="st16">
    <path class="st7" d="M45.82,46.66c1.12,4.29-28.26,85.38-28.26,83.54S59.34,34.99,60.57,41.74c1.23,6.76-6.76,30.71-6.76,30.71,0,0,10.44-13.51,12.29-7.37,1.84,6.14-30.71,74.94-30.71,74.94,0,0,46.07-68.18,47.3-64.5,1.23,3.69.61,17.2,1.23,14.13.61-3.07,18.43-66.53,23.34-69.81,4.91-3.28-20.27,101.75-20.27,101.75,0,0,5.53-4.3,9.21-7.37,3.68-3.07,7.37,2.46,7.37,2.46,0,0-18.43-77.4-15.97-78.01,2.46-.62,25.8,75.55,25.8,75.55,0,0,21.5-60.81,21.5-53.44s-15.97,63.88-15.97,63.88c0,0,23.34-17.2,22.73-9.83-.61,7.37-6.76,20.27-6.76,20.27l31.33-62.65-15.36,60.2s17.2-12.29,17.2-7.37,77.94,26.93,77.94,26.93c0,0,12.36-18.94,12.97-13.41.61,5.53,7.99,7.99,7.99,7.99l4.91,126.54-269.04.61,1.84-151.72S42.14,32.53,45.82,46.66"/>
    <path class="st9" d="M188.88,57.27s3.06,2.68,3.06,4.33.64,4.46,1.27,5.35c.64.89,4.71,5.22,5.1,5.22s7.39,3.95,7.52,5.22c.13,1.27-.26,5.48,0,7.01.25,1.53-3.06,9.43-3.31,11.34-.25,1.91,38.09,14.04,38.09,14.04,0,0,1.95,1.3,1.95,0s-.39-5.45-.91-5.97c-.52-.52.91-3.5.91-3.5,0,0,1.69-.52,1.17-2.08,0,0,1.43.78,1.43-.52s1.69-2.85,1.3-3.11c-.39-.26,1.93-1.17.06-4.67s-3.17-4.57-3.04-6.11c.13-1.55-1.43-8.68-1.43-9.33s.52-12.59-3.24-18.04c0,0,2.08.78,2.85-.65.78-1.43,1.82-2.21,1.69-3.89-.13-1.69.52-4.54-7.53-4.8,0,0-15.31-14.4-32.31-11.81,0,0-7.92-.65-11.55,8.31-3.63,8.95-3.06,13.67-3.06,13.67"/>
    <path class="st6" d="M196.77,102.87s-11.46,15.92-11.3,16.87-6.05,6.37-6.05,6.37c0,0-40.75,27.7-47.44,41.07,0,0-4.46,3.03-4.62,4.3-.16,1.27-15.12,15.76-15.12,17.03s-8.6,11.78-40.27,14.33c-31.68,2.55-111.13,6.53-190.55,38.52,0,0-4.45,4.62.65,3.5,5.09-1.11,78.96-21.33,95.83-22.92,0,0-77.68,30.4-89.46,42.98,0,0-2.39,3.34-1.43,3.98.96.64-4.77,5.57-3.98,6.21.8.64,5.89.64,8.12-1.27,2.23-1.91,14.01-7,15.76-7.96,1.75-.96,11.78-6.68,12.57-7.48.8-.8-.32,5.41,11.62-2.87l4.14-1.11s-3.82,3.34,9.87-.16c13.69-3.5,64.79-14.65,67.18-14.49,2.39.16,60.01-4.77,63.2-4.46,3.18.32,7.16,0,7.16,0,0,0-9.55,17.83,8.44,12.1,0,0,8.28,2.71,13.37-3.34,0,0,4.78,8.6,16.08,4.62,0,0,33.96-.96,16.71,5.25-.56.2,23.4,55.71,65.58,9.87,42.18-45.85,47.44-75.61,48.55-85.16,1.11-9.55.16-30.4-1.43-36.29,0,0-7.21-31.42-8.28-32-1.06-.58-4.62-9.39-4.62-9.39l-40.27,1.91Z"/>
    <path class="st4" d="M219.32,67.73s.39-3.63,4.41-2.08c0,0,4.15-.52,4.54-1.3.39-.78,2.86-.91,3.24-1.69.39-.78,2.21-.52,2.73-1.82.52-1.3,1.04-.26,1.69-1.3.65-1.04,2.99,2.21,2.6,2.73-.39.52.91,1.04.78,2.08-.13,1.04,1.3,2.59,1.04,3.37-.26.78,1.04,3.77.78,4.93-.26,1.17.78,2.72-1.04,3.37l-1.82.65s0,2.08-1.3,1.95c0,0,4.15.52,4.22,2.08,0,0,1.62,3.24,1.62,4.15,0,0,1.69,4.54-2.34,3.5,0,0-1.3,3.5-2.47,2.6,0,0,1.82,1.82.39,2.47,0,0,3.24,1.43,1.95,2.98,0,0-1.04,1.56-2.34,1.3,0,0,0,2.73-2.6,2.6l-35.3-1.56s2.28-2.42,2.4-3c.12-.58,3.16-9.47,3.24-10.4,0,0,2.28-3.07,3.32-2.94,0,0,1.17-1.82,2.47-1.56,0,0,.65-2.6,1.95-2.46,0,0,.78-2.6,1.69-2.6,0,0-.13-3.63,1.3-3.89,0,0,1.95-5.32,2.85-4.15"/>
    <path class="st11" d="M201.15,52.03s-8.69,2.85-3.89-9.34c0,0,1.3-8.43,12.33-4.67,0,0,9.08.88,9.99,6.67,0,0,3.24,2.41,5.19,3.06,1.95.65,5.71,1.3,1.56,2.6,0,0-6.62,5.71-6.62,6.62s-4.93,19.46-15.05,20.5c0,0-7.92.39-5.97-11.42,1.95-11.81,3.24-10.77,3.12-12.07-.13-1.3-.65-1.95-.65-1.95"/>
    <path class="st11" d="M192.55,65.37s3.59,5.01,4.68,5.91c1.08.89-5.62,1.72-4.68-5.91"/>
    <path class="st4" d="M230.48,50.34s-2.34-2.99-3.37-3.24c-1.04-.26-7.12-1.43-7.53-5.71,0,0,3.24,2.08,4.67,2.34,1.43.26,5.06,2.08,6.23,3.37s3.54,3.45,0,3.24"/>
    <path class="st15" d="M213.48,37.05s10.77,2.91,11.55,3.69c.78.78,8.05,4.41,8.69,6.1,0,0-1.95-.24-3.24-.97-1.3-.72-8.08-5.13-8.84-5.26-.76-.13-8.84-2.19-8.16-3.56"/>
    <path class="st12" d="M193.37,44.37s-.86.27-4.52,1.5c-3.66,1.23-10.66,7.53-13,11.38l2.34-.55s15.44.59,15.96.55c.52-.04,0-2.11-.78-2.37-.78-.26,4.32,1.54,3.98,4.47-.35,2.93,2.36,1.26,2.54.53.18-.73-.68-7.31-6.52-9.53,0,0,6.36-2.09,0-5.98"/>
    <path class="st9" d="M209.07,52.03s9.73,1.82,10.51,0c.78-1.82-.91-3.5-3.63-3.5s-6.88,3.5-6.88,3.5"/>
    <path class="st3" d="M206.34,46.84s.82-4.93,5.66-4.15c4.85.78,4.2,4.54,3.94,5.84-.26,1.3-4.15,3.89-6.88,3.5-2.73-.39-2.73-5.19-2.73-5.19"/>
    <path class="st12" d="M210.37,96.54s-.21-3.76-8.34,0c0,0-6.37,5.53-6.21,6.49.16.96,5.34,1.3,8.06,0,2.73-1.3,1.43.85,1.43.85,0,0,1.82.72,3.24,0,1.43-.72,5.58,3.43,11.03,1.23,0,0,4.93,4.54,10.9-.78,5.97-5.32,5.45-7.14,0-5.45s-6.62.78-6.23-.52c.39-1.3-4.05-1.82-8.12-.91,0,0-4.72-2.08-5.76-.91"/>
    <path class="st5" d="M210.88,49.89s-3.7-1.35-2.4-4.02c1.3-2.67,5.73-2.86,6.68-.78.96,2.08.32,4.8-4.28,4.8"/>
    <path class="st13" d="M211.11,49.6s-3.21-1.17-2.08-3.48c1.13-2.31,4.97-2.48,5.8-.68.83,1.8.28,4.15-3.72,4.15"/>
    <path class="st14" d="M210.37,46.79s.04-1.5,1.51-1.31c1.47.19,1.47,1.64,1.21,1.86-.26.22.04,1.32-1.21,1.19-1.25-.13-1.57-1.37-1.51-1.74"/>
    <path class="st12" d="M211.47,46.79s.17.51.54-.34c.37-.84-.17-1.09-.54-.99-.37.1-.31,1.27,0,1.33"/>
    <path class="st9" d="M190.64,49.89s4.74-.97,4.67-1.69c-.07-.71-2.85-.26-4.67,1.69"/>
    <path class="st1" d="M177.11,56.96s9.7-5.96,19.18-1.81l-.47.17s-4.92-3.16-18.7,1.64"/>
    <path class="st2" d="M210.16,94.26s-.1,1.43,1.31,1.43c0,0,1.09,1.69,2.75,1.69s2.69.78,4.38.78c0,0,3.85,2.13,4.78,1.33,0,0,.02,2.18,1.06,2.31,1.04.13,2.16.65,3.56,0,1.4-.65,3.77.32,4.48-.97,0,0,3.07,3.06,5.26-.57,0,0,3.37-1.05,2.98-2.06-.39-1.01.03-1.72.03-1.72,0,0-1.16-1.27-2.18-1.31-1.03-.05-3.84.73-3.63.93.21.19-2.91-1.62-4.86-.65,0,0-1.49-.97-2.85-.71,0,0-2.53-1.49-3.7-1.56-1.17-.07-1.69-1.56-3.63-1.3,0,0-1.1-1.75-3.63-.71,0,0-2.14.13-1.82,1.17,0,0,.84,1.69,1.88,1.62,0,0,.43,1.3,1.51,1.3,0,0-2.94.84-3.14.13,0,0-.52-1.49-1.23-1.43,0,0-1.84-.52-1.67-1.17,0,0-1.92.52-1.65,1.49"/>
    <path class="st10" d="M223.86,161.94s-2.77,2.6-5.02,1.56c0,0-3.13.86-3.56,1.56,0,0-4.82.87-4.96,1.9,0,0-3.6,4.5-4.98,2.77,0,0-6.23,7.79-7.27,7.79,0,0-3.29.17-3.46-1.21,0,0-11.59,9.52-17.48,6.92,0,0-4.5-.32-6.23.45-1.73.76-7.44,3.53-9.34-1.14,0,0-2.6,5.02-4.5,12.46,0,0-3.11,3.29-3.11,1.21s3.46-7.96,2.77-8.13c-.69-.17,2.42-1.56.87-3.11,0,0-2.25-3.29-3.63-3.46,0,0-2.6-1.21-3.12-1.21h.52s-3.11-4.15-4.84-3.98c0,0-3.14-1.56-4.34-1.21,0,0-4.83.52-5.35-.17,0,0-1.56-1.04-3.63-.17,0,0-4.84,1.73-4.5,3.46,0,0-1.38,1.9-2.42,2.6,0,0-5.02,1.04-5.71,2.25,0,0-6.79,7.11-10.75,8.4,0,0-10.72,4.06-10.89,5.96,0,0,1.39,3.98,4.16,3.46,0,0,2.25,4.5,4.5,4.5h5.02s-2.42,1.56-1.56,2.77c.86,1.21,2.25,1.04,2.25,1.04,0,0,2.25,6.4,5.36,4.67,0,0,3.46,1.9,3.46,1.38s-3.98,14.53-2.94,15.57c0,0-19.49,12.91-9.22,17.96,0,0,7.55.53,9.68.21,2.13-.32-2.54,11.59,14.94,6.4l11.59-5.36s-12.11,9.34,3.63,7.61c0,0,24.05-8.82,27.68-12.98,0,0-.52,6.92,3.81,4.5,4.33-2.42,18.6-22.32,18.82-23.88,0,0,5.23-.87,8.17-10.55,0,0,5.86-5.19,7-8.65,0,0,7.88-12.29,8.57-16.61,0,0,3.29-4.15,3.46-5.88,0,0,3.81-5.71,2.94-7.79,0,0-3.46-.87-3.46-2.25,0,0,.87-1.9-.17-3.46,0,0,1.38-2.25,1.38-3.81,0,0-4.67-3.29-4.15-4.33"/>
    <path class="st9" d="M226.98,150.52s1.69.91,2.6.65c.91-.26.82,2.72.82,2.72,0,0-3.8-1.56-3.41-3.37"/>
    <path class="st9" d="M236.32,147.67s3.57,3.76,4.64,3.76-4.64-3.76-4.64-3.76"/>
    <path class="st9" d="M224.9,161.94c.33-.68,2.99-1.04,2.99-1.04v4.15s-4.41-.13-2.99-3.11"/>
    <path class="st9" d="M228.67,164.28s3.37,5.45,4.92,5.45,0-3.76,0-3.76c0,0-.65.39-.91-.91-.26-1.3-4.01-.78-4.01-.78"/>
    <path class="st9" d="M237.88,165.06h-2.74s-.52,3.24,1.37,3.89l1.37-3.89Z"/>
    <path class="st9" d="M225.64,170.38h4.06v6.1s-5.64-4.67-4.06-6.1"/>
    <path class="st9" d="M234.29,173.43h2.19s.88,1.62,1.4,1.88c.52.26.7,4.15.7,4.15,0,0-5.93-3.24-4.29-6.03"/>
    <path class="st9" d="M225.64,182.84s3.02,4.41,4.06,4.41.69-4.41.69-4.41h-4.75Z"/>
    <path class="st9" d="M231.71,181.54s1.76,5.19,3.06,5.71c1.29.52.38-4.41.38-4.41l-.85-1.3h-2.58Z"/>
    <path class="st9" d="M223.73,190.06h2.52s-.73.56,0,.95,0,2.85,0,2.85c0,0-3.43.17-2.52-3.81"/>
    <path class="st9" d="M239.56,168.3s2,5.32,3.6,5.97l.43-2.98-1.04-1.56,2.21,1.56v-2.34s-2.72-3.63-2.6-3.89c.13-.26-2.6-.88-2.6-.88l2.6,3.61-2.6.52Z"/>
    <path class="st9" d="M242.16,162.98s2.34,4.28,3.37,5.19v-2.6s-1.82-1.95-1.69-2.6c.13-.65-1.69,0-1.69,0"/>
    <path class="st9" d="M236.29,154.94s3.34,5.06,4.67,5.32v-2.66l-2.25-2.14-2.42-.52Z"/>
    <path class="st9" d="M241.64,156.05s1.95,5.51,3.89,5.9v-1.69c0-1.17-1.69-2.6-1.69-3.24s-2.21-.97-2.21-.97"/>
    <path class="st9" d="M226.57,144.68c.66.26,4.74,2.34,4.91,2.34s-1.03-2.34-1.03-2.34l-.75-1.17-3.13,1.17Z"/>
    <polygon class="st9" points="244.75 152.73 247.24 156.05 247.24 153.9 246 152.21 244.75 152.73"/>
    <polygon class="st9" points="247.24 162.98 249.3 165.97 249.3 164.18 248.27 161.94 247.24 162.98"/>
    <path class="st9" d="M247.24,169.22s2.32,4.79,2.7,5.05v-1.95s-1.67-2.08-1.35-2.6c.31-.52-1.35-.5-1.35-.5"/>
    <path class="st9" d="M245.53,174.79s2.62,3.24,2.74,4.15v-2.08l-1.03-2.08h-1.71Z"/>
    <path class="st9" d="M242.16,179.46s.39,4.45,1.69,4.95l.91-2.87-.91-1.43-1.69-.65Z"/>
    <path class="st9" d="M239.56,187.25s.91,3.59,2.08,4.71l1.17-3.29-.65-1.43h-3.45.86Z"/>
    <path class="st9" d="M230.39,194.52h3.61s-.97.91.29,1.69c1.25.78,0,4.02,0,4.02,0,0-5.04-2.34-3.84-5.06"/>
    <path class="st9" d="M223.58,195.68h3.95s-.48,1.17,0,1.69c.48.52-1.89,2.86-1.89,2.86,0,0-3.11-2.3-2.07-4.54"/>
    <path class="st9" d="M215.82,202.3h3.24l.65,4.02s-5.06-1.69-3.89-4.02"/>
    <path class="st9" d="M222.69,207.1l1.92.52s.48.39,1.03,1.17c.55.78,0,3.24,0,3.24,0,0-3.73.78-2.95-4.93"/>
    <path class="st9" d="M224.24,203.34h2.33l.38.97v2.79s-4.12-.65-2.71-3.76"/>
    <path class="st9" d="M238.57,196.33h1.64v4.41s-2.11-2.86-1.64-4.41"/>
    <path class="st9" d="M234.29,203.34h2.19v4.28s-3.18-2.08-2.19-4.28"/>
    <path class="st9" d="M244.75,188.42h.78l.46,4.54s-1.89-3.11-1.24-4.54"/>
    <path class="st9" d="M247.74,185.04l.53,4.02-1.03.54s-.67-3.4.5-4.56"/>
    <path class="st9" d="M243.59,196.33l1.03,3.11-1.81,2.86s-.13-4.8.78-5.97"/>
    <path class="st9" d="M240.21,203.34h1.43l-.88,5.06s-1.06-4.41-.54-5.06"/>
    <path class="st9" d="M231.71,212.07h2.58s1.02,4.25-.29,4.77c-1.31.52-2.1-4.08-2.29-4.77"/>
    <polygon class="st9" points="234 219.17 234.84 218.65 234.29 222.86 234 219.17"/>
    <path class="st9" d="M226.57,216.88s2.87-.74,3.13,0c.26.74,0,3.88,0,3.88,0,0-3.14-2.28-3.13-3.88"/>
    <path class="st9" d="M230.26,225.4h1.21s-.74,3.09-1.03,3.53c-.29.44-.18-3.53-.18-3.53"/>
    <path class="st9" d="M224.62,223.71s.71-.26,1.27.91-.81,4.35-.81,4.35c0,0-1.91-4.09-.46-5.26"/>
    <path class="st9" d="M218.67,214.47l2.47.93v4.8s-2.73-2.13-2.47-5.74"/>
    <path class="st9" d="M213.09,213.2h2.55v4.14s-4.11-1.54-2.55-4.14"/>
    <path class="st9" d="M207.67,216.55h3.48s-.26,3.66-.65,3.66-3.11-2.88-2.83-3.66"/>
    <path class="st9" d="M214.65,223.69c.78.54,2.03.03,3.03.67,1,.65-.13,3.76-1.51,3.76s-1.51-4.44-1.51-4.44"/>
    <path class="st9" d="M203.88,225.91l3.24.42s.78,4.52,0,4.52-4.02-4.05-3.24-4.94"/>
    <path class="st9" d="M211.79,231.76l2.85,1.43-.46,2.98s-4.73-4.67-3.05-5.32c1.69-.65.65.91.65.91"/>
    <path class="st9" d="M219.89,231.37h2.02v4.15s-2.61-2.6-2.02-4.15"/>
    <path class="st9" d="M225.45,232.54l2.09-1.85s-1.83,5.17-2.17,5.64c-.34.47.08-3.79.08-3.79"/>
    <path class="st9" d="M214.65,239.93l2.47-1.43s.16,5.19-.76,5.32c-.92.13-1.7-3.89-1.7-3.89"/>
    <path class="st9" d="M203.76,240.58h5.05s-.9,4.8-2.52,5.06c-1.63.26-2.53-5.06-2.53-5.06"/>
    <path class="st9" d="M205.61,247.33l3.78-1.68s-.57,4.66-1.75,5.31c-1.18.65-2.04-3.63-2.04-3.63"/>
    <path class="st9" d="M196.87,243.83h2.99s.13,4.35-1.49,4.51c-1.62.16-1.49-4.51-1.49-4.51"/>
    <path class="st9" d="M184.93,249.54l3.5-.65s.65,2.85,0,3.24c-.65.39-3.5-2.6-3.5-2.6"/>
    <path class="st9" d="M184.15,255.38s2.85-1.95,3.76-1.69c.91.26-2.98,4.15-2.98,4.15l-.78-2.46Z"/>
    <path class="st9" d="M234.29,128.46s1.38-1.3,2.68,0c1.3,1.3,2.59.91,2.59.91l-3.28-3.24s-3.41.96-2.7,1.65l.7.69Z"/>
    <path class="st9" d="M201.02,117.56s5.58-1.69,5.19-2.47c-.39-.78-1.43-.65-1.43-.65l-3.76,3.11Z"/>
    <path class="st9" d="M201.8,114.44s4.19-4.94,4.43-4.09c.24.85-4.43,4.09-4.43,4.09"/>
    <path class="st9" d="M216.98,119.51s.3-2.73,1.06-1.95c.76.78.41,1.56,0,1.95s-1.06,0-1.06,0"/>
    <polygon class="st9" points="234.29 114.44 236.29 117.56 236.29 114.44 235.29 114.44 234.29 114.44"/>
    <path class="st12" d="M193.11,122.49s-3.85,2.6-4.26,2.99c-.41.39,1.27,2.73,9.32-2.34,0,0-8.31,2.85-7.53,2.21.78-.65,2.47-2.85,2.47-2.85"/>
    <polygon class="st12" points="192.46 128.72 194.01 129.43 191.55 130.28 192.46 128.72"/>
    <polygon class="st12" points="183.24 128.72 184.02 129.43 185.97 128.72 186.49 129.43 183.24 130.28 183.24 128.72"/>
    <path class="st12" d="M178.44,129.43l-1.3,2.67s-.91-.26-.91-.65,2.21-2.02,2.21-2.02"/>
    <path class="st12" d="M200.11,132.1s1.69.13,2.99,0c1.3-.13-3.5,1.56-2.99,0"/>
    <path class="st12" d="M208.16,129.5s2.73.91,4.93-.78c2.21-1.69,1.3.51,1.3.51,0,0-7.66,3.9-6.23.27"/>
    <path class="st12" d="M219.32,128.09s.91.49,1.04,1.34c.13.85,2.68.21,3.22.85.54.65-6.34,3.53-4.26-2.19"/>
    <path class="st12" d="M209.72,141.44s-.28,4.28,4.86.52c5.14-3.76,4.87-1.04,4.35-.52s-7.4,4.41-9.21,3.83c-1.81-.58-2.2-2.27,0-3.83"/>
    <path class="st12" d="M218.49,144.17s3.16-.67,3.55-1.5c.39-.83-1.87-1.74-1.78-1.09.09.65-1.78,2.6-1.78,2.6"/>
    <path class="st12" d="M223.61,143.52s.73-.39,1.47,0c.73.39.57,1.75.57,1.75l-2.03-1.75Z"/>
    <path class="st12" d="M224.12,147.67s.48,1.04,1.54,1.3c1.06.26,1.81,2.72.59,2.46-1.22-.26-2.65-2.73-2.13-3.76"/>
    <path class="st12" d="M218.93,147.02h1.36s.32,1.82,0,2.53c-.32.71-1.62-1.75-1.36-2.53"/>
    <path class="st12" d="M214.57,147.67s1.76-.52,1.89,0c.13.52.08,2.5,1.27,3.78,1.19,1.28,1.76,2.84.31,2.45-1.45-.39-4.58-4.28-3.47-6.23"/>
    <path class="st12" d="M206.86,148.35c.23-.47.87-.62,1.34,0,.48.62,1.78,1.01,3.07.75,1.29-.26.65,2.24,0,2.36-.65.11-5.84-.22-4.42-3.1"/>
    <path class="st12" d="M213.7,156.05c1.21-.07.74,1.87,0,1.55-.74-.32-3.19-1.76-2.42-3.64.77-1.88,2.42,2.09,2.42,2.09"/>
    <path class="st12" d="M205.04,152.86s.54-.65,1.57,0,0,2.68,0,2.68l-1.57-2.68Z"/>
    <path class="st12" d="M209.32,134.82s.73,1.3,2.71.91l-2.71-.91Z"/>
    <path class="st12" d="M197.52,137.94s2.75,5.58,9.55.52c0,0-7.87,1.95-9.55-.52"/>
    <path class="st12" d="M196.48,141.96s0,2.85,1.69,2.21l-1.69-2.21Z"/>
    <path class="st12" d="M200.07,150.52s-6.06,2.54-.87,7.11c0,0-1.38-5.94.87-7.11"/>
    <path class="st12" d="M194.01,152.21s-6.23,3.63-3.63,8.69h2.4s-2.27-4.54,1.23-8.69"/>
    <path class="st12" d="M187.01,163.96s-1.17,5,0,5.78l1.04.65-1.56.78s-2.08-4.41.52-7.2"/>
    <path class="st12" d="M174.94,165.06s-1.04,9.24,5.71,1.89c0,0-6.1,1.87-5.71-1.89"/>
    <path class="st12" d="M173.12,172.71s.13,7.92,7.53,1.56c0,0-7.66,1.17-7.53-1.56"/>
    <path class="st12" d="M157.16,172.71s-4.41,7.53,4.8,4.15c0,0-5.71-1.17-4.8-4.15"/>
    <path class="st12" d="M160.79,169.73s.52,6.13,7.14-.5c0,0-4.41,2.45-7.14.5"/>
    <path class="st12" d="M160.79,164.18s-3.5,5.75,2.6,3.38c0,0-3.37-2.05-2.6-3.38"/>
    <path class="st12" d="M167.93,159.32s-9.34,7.29,3.24,4.63c0,0-6.36-.11-3.24-4.63"/>
    <path class="st12" d="M177.77,156.56s-7.76,7.07,2.88,3.7c0,0-4.86-.13-2.88-3.7"/>
    <path class="st12" d="M181.3,156.05s1.82,2.65,3.57,1.55l-3.57-1.55Z"/>
    <path class="st12" d="M173.12,147.02s-6.88,9.4,0,7.04c0,0-3.12-.94,0-7.04"/>
    <path class="st12" d="M175.04,147.02s-3.67,4.54,0,3.5v-3.5Z"/>
    <path class="st12" d="M173.41,152.21s2.44.72,3.93-.74l-3.93.74Z"/>
    <path class="st12" d="M177.34,147.44c.19-.24-2.01,3.39,6.42,2.26,0,0-7.27-1.2-6.42-2.26"/>
    <path class="st12" d="M190.77,144.31s-4.37,7.27,6.55,3.13c0,0-8.11,1.68-6.55-3.13"/>
    <path class="st12" d="M180.49,141.96s-2.27,5.32,9.26,0c0,0-9.55,3.24-9.26,0"/>
    <path class="st12" d="M186.49,136.77s-9.99,7.26,6.99.65c0,0-11.27,4.02-6.99-.65"/>
    <path class="st12" d="M170.49,132.43s-5.35,5.12,1.11,2.4c0,0-2.19.53-1.11-2.4"/>
    <path class="st12" d="M156.1,144.32s-4.65,6.72.54,5.23c0,0-2.24-1.43-.54-5.23"/>
    <path class="st12" d="M167.93,140.58s-7.1,6.57.47,3.59c0,0-4.23.87-.47-3.59"/>
    <path class="st12" d="M163.39,140.2s-6.54,3.97-3.6,5.07c0,0-.95-1.26,3.6-5.07"/>
    <path class="st12" d="M231.78,104.85s3.29,0,4.28-1.95c.99-1.94,1.17-3.1,1.82-1.94.65,1.16,1.43,5.29-.65,5.95-2.08.66-6.1,1.7-5.45-2.07"/>
    <path class="st6" d="M174.22,186.11l-4.98,5.35s2.34.4,2.35,3.06c.02,2.66.42,8.19-.42,8.82-.83.63-4.94,1.74-7.79,12.49,0,0-14.07,11.31-14.87,12.29-.79.99-1.58,4.15-1.58,4.15,0,0,13.04-8.55,14.27-9.42s3.18-4.01,3.15-5.52c-.03-1.51,9.15-11.11,9.86-13.03.71-1.92,0-2.71,0-2.71,0,0,3-6.01,3.12-11.54.12-5.53-1.97-1.64-1.97-1.64l-1.15-2.31Z"/>
    <path class="st6" d="M176.88,201.44s-2.37,3.33-2,4.04c.36.71-1.41,5.09-3.29,7.72-1.88,2.63-6.41,12.84-7.23,13.98-.82,1.14-2.4,4.86-.97,4.19,1.42-.67,7.24-9.48,8.2-10.61.97-1.13,4.23-3.67,3.78-5.49-.44-1.81,1.89-7.79,1.51-13.83"/>
    <path class="st6" d="M157.54,200.22s4.24-6.03,5.28-6.36c1.04-.33-.54,14.19-.86,16.02-.31,1.83-1.34,2.15-2.17.72-.83-1.42-14.11,9.22-14.11,10.14s8.68-10.91,10.43-13.13c1.75-2.23,1.43-7.4,1.43-7.4"/>
    <path class="st6" d="M176.88,218.65s-8.04,11.18-8.95,12.72c-.91,1.54-1.22,3.09-2.49,5-1.26,1.92,9.11-7.32,9.93-9.19.82-1.86,1.51-8.53,1.51-8.53"/>
    <path class="st6" d="M183.08,223.69s-9.24,13.49-9.96,16.02c-.72,2.53,9.96-6.18,9.96-6.18,0,0-2.41.78-2.43,0-.03-.78,3.09-4.23,4.22-4.56,1.13-.33-2.96-1.06-1.78-5.28"/>
    <path class="st6" d="M194.85,216.45s-5.15,8.52-5.1,9.88c.04,1.36,1.58,2.25,2.55.85.97-1.39,4.23-5.83,4.18-6.38-.05-.55-1.63-4.36-1.63-4.36"/>
    <path class="st6" d="M190.9,209.59s-2.7,8.44-2.85,13.27c0,0,5.07-5.77,5.07-6.64,0-.86.16-6.08-2.22-6.64"/>
    <path class="st6" d="M201.7,205.22s-3.85,17.46-3.53,20.18.42,3.57.42,3.57l3.7-4.73-.6-19.02Z"/>
    <path class="st6" d="M201.7,187.25s-.74,5.4,0,7.27l1.62,1.17-.98,6.62,2.7-2.99s.39-2.99,0-4.54c-.39-1.55-3.21-.5-2.75-1.82.46-1.32-.6-5.71-.6-5.71"/>
    <path class="st6" d="M193.12,191.45s.47,2.57,2.68,2.41c2.21-.16,0,3.13,0,4.09s-3,7.69-2.69,9.15c.31,1.46-3.63-10.46,0-15.65"/>
    <path class="st6" d="M185.7,199.32c-.13-.63-5.08,12.53-5.4,15.16-.32,2.62,2.7,0,2.7,0l1.15,4.18s3.63-9.61,1.55-19.34"/>
    <path class="st6" d="M196.87,201.44s-1.38,9.29-1.23,11.76c0,0,4.48-6.85,4.22-7.72-.26-.87-3.35-2.61-2.99-4.04"/>
    <polygon class="st6" points="219.19 184.41 218.05 191.45 220.29 189.61 219.19 184.41"/>
    <polygon class="st6" points="223.36 181.94 223.09 182.74 221.91 186.11 223.36 185.04 225.05 179.46 223.36 181.94"/>
    <path class="st6" d="M188.72,190.69s2.31-4.41,4.06-2.75c1.75,1.65,2.12-7.47,2.85-8.99.72-1.52-6.71,2.25-6.91,11.74"/>
    <path class="st6" d="M183.08,190.06s.27,3.81,2.62,3.8c2.35,0,1.17,6.88,1.17,6.88,0,0-.93-3.69-2.01-2.21-1.08,1.48-5.6,7.99-5.79,9.08-.19,1.1-3.13-11.63,4.01-17.56"/>
    <path class="st6" d="M142.83,240.58s17.62-12.33,18.38-13.4c.75-1.07.9,2.65-2.18,4.19-3.08,1.54-16.4,10.89-16.85,11.75-.45.86.65-2.53.65-2.53"/>
  </g>
  <g>
    <path class="st12" d="M80.66,242.45v-15.18h4.42c3.58,0,5.32,1.58,5.32,3.9,0,1.76-1.06,3.3-3.44,3.46,2.9.32,4.24,1.82,4.24,3.88,0,2.22-1.68,3.94-5.78,3.94h-4.76ZM87.88,237.97c0-1.24-.94-2-2.94-2.28-.4-.06-.86-.08-1.36-.08-.02,1.6-.02,3.22-.02,4.18.46.04,1,.06,1.56.06,1.86,0,2.76-.62,2.76-1.88ZM87.48,231.75c0-1.2-.78-1.92-2.56-1.92h-1.24c-.04.94-.06,2.26-.08,3.78.26.02.84.04,1.22.04,1.72,0,2.66-.56,2.66-1.9Z"/>
    <path class="st12" d="M95.3,242.77c-1.62,0-2.54-.74-2.54-2.34,0-1.9,1.6-3.44,4.94-3.76v-.3c0-.64-.36-.96-1.24-.96-1.02,0-1.86.22-2.82.66v-2.5c1.12-.26,2.08-.38,3.04-.38,2.34,0,3.58.98,3.58,3.04,0,1.7-.06,2.76-.06,3.86,0,1.02.16,1.82.38,2.36h-2.1c-.1-.48-.16-1.08-.16-1.66-.46,1.3-1.72,1.98-3.02,1.98ZM95.24,239.95c0,.46.24.74.74.74.58,0,1.68-.52,1.7-2.44-1.76.34-2.44,1-2.44,1.7Z"/>
    <path class="st12" d="M102,242.45l-.1-.66c.74-.74,3.9-5.16,4.88-6.24-1.78,0-2.8.08-4.26.3v-2.3h7.9l.08.7c-.68.76-3.78,5.16-4.7,6.18,1.36-.02,2.92-.08,4.64-.24l-.2,2.26h-8.24ZM105.64,232.17l-2.48-4.22,1.52-.08,2.12,2.48,2.14-2.48,1.3.08-2.46,4.22h-2.14Z"/>
    <path class="st12" d="M114.38,242.77c-1.62,0-2.54-.74-2.54-2.34,0-1.9,1.6-3.44,4.94-3.76v-.3c0-.64-.36-.96-1.24-.96-1.02,0-1.86.22-2.82.66v-2.5c1.12-.26,2.08-.38,3.04-.38,2.34,0,3.58.98,3.58,3.04,0,1.7-.06,2.76-.06,3.86,0,1.02.16,1.82.38,2.36h-2.1c-.1-.48-.16-1.08-.16-1.66-.46,1.3-1.72,1.98-3.02,1.98ZM114.32,239.95c0,.46.24.74.74.74.58,0,1.68-.52,1.7-2.44-1.76.34-2.44,1-2.44,1.7Z"/>
    <path class="st12" d="M123.14,233.55c.12.24.22.64.24.94.78-.68,1.94-1.22,3.26-1.22,1.84,0,3.44,1.06,3.44,3.72v5.46h-2.66v-5.12c0-1.24-.72-1.76-1.56-1.76-.52,0-1.02.18-1.48.46v6.42h-2.68v-6.48c0-.84-.12-1.76-.34-2.42h1.78Z"/>
    <path class="st12" d="M135.9,230.71c-.08,1.08-.1,2.08-.1,2.84h2.78v2.08l-2.82-.06c-.06.9-.08,2.22-.08,3.48,0,1.04.44,1.44,1.22,1.44.62,0,1.28-.2,1.68-.54v1.86c-.68.66-1.52,1-2.7,1-1.7,0-2.8-.84-2.8-3.1v-4.2h-1.86v-1.04c.68-.2,1.4-.54,1.86-.92v-2.48l2.82-.36Z"/>
    <path class="st12" d="M154.7,238.05c0,2.84-2.18,4.76-4.98,4.76s-4.82-1.98-4.82-4.76,2.1-4.86,4.92-4.86,4.88,2.02,4.88,4.86ZM147.72,238.05c0,1.6.86,2.64,2.14,2.64s2.02-.96,2.02-2.58-.84-2.74-2.12-2.74-2.04,1.08-2.04,2.68Z"/>
    <path class="st12" d="M157.96,242.89h-1.56c.12-.96.18-2.3.18-3.38v-12.62l2.92-.12c-.16,2.5-.24,4.64-.24,7.4.8-.62,1.68-.94,2.92-.94,2.5,0,4,1.94,4,4.44,0,2.68-1.6,5.06-4.86,5.06-1.42,0-2.42-.54-3.06-1.28-.08.46-.18.94-.3,1.44ZM159.26,238.33c0,1.56.66,2.34,1.96,2.34,1.22,0,2.04-1.14,2.04-2.68s-.62-2.58-2.04-2.58c-.8,0-1.46.3-1.96.74v2.18Z"/>
    <path class="st12" d="M170.1,238.19c0,1.4.86,2.32,2.7,2.32.78,0,1.6-.2,2.46-.66v1.68c-.82.8-2.02,1.28-3.24,1.28-2.32,0-4.42-1.52-4.42-4.42s2-5.2,5.06-5.2c2.18,0,3.24,1.26,3.24,2.86,0,.74-.28,1.46-.72,1.98l-5.06-.2c-.02.14-.02.24-.02.36ZM172.4,235.11c-.82,0-1.58.44-1.96,1.28l3.3-.1c0-.72-.5-1.18-1.34-1.18Z"/>
    <path class="st12" d="M181.32,242.81c-2.2,0-4.22-1.4-4.22-4.46,0-3.38,2.42-5.16,4.9-5.16.74,0,1.46.14,2.06.38v2.66c-.64-.4-1.32-.58-2.04-.58-1.48,0-2.42.96-2.42,2.38s.92,2.24,2.32,2.24c.74,0,1.5-.24,2.14-.68v1.92c-.46.78-1.54,1.3-2.74,1.3Z"/>
    <path class="st12" d="M187.5,233.55c.12.24.22.64.24.94.78-.68,1.94-1.22,3.26-1.22,1.84,0,3.44,1.06,3.44,3.72v5.46h-2.66v-5.12c0-1.24-.72-1.76-1.56-1.76-.52,0-1.02.18-1.48.46v6.42h-2.68v-6.48c0-.84-.12-1.76-.34-2.42h1.78Z"/>
    <path class="st12" d="M198.68,242.19c-.7-2.24-2.42-6.24-3.64-8.64h3.06c.62,1.54,1.64,4.34,2.02,5.78.62-1.56,1.48-4.04,1.92-5.78h2.74c-.78,2.2-2.66,6.4-3.64,8.72-.98,2.26-1.98,4.62-2.56,6.18h-2.82c.66-1.64,1.86-4.3,2.92-6.26ZM200.48,232.19l-1.66-.08,2.82-4.18h2.56l-3.72,4.26Z"/>
  </g>
</svg>