<?xml version="1.0" encoding="UTF-8"?>
<svg id="Vrstva_1" xmlns="http://www.w3.org/2000/svg" xmlns:xlink="http://www.w3.org/1999/xlink" version="1.1" viewBox="0 0 283.46 283.46">
  <!-- Generator: Adobe Illustrator 30.1.0, SVG Export Plug-In . SVG Version: 2.1.1 Build 136)  -->
  <defs>
    <style>
      .st0 {
        fill: none;
      }

      .st1 {
        fill: #786c4f;
      }

      .st2 {
        fill: #5f5e5e;
      }

      .st3 {
        fill: #4a5f5b;
      }

      .st4 {
        fill: #2d2319;
      }

      .st5 {
        fill: #382c2f;
      }

      .st6 {
        fill: #a7a88c;
      }

      .st7 {
        fill: #1d1d1b;
      }

      .st8 {
        fill: #bfbf9f;
      }

      .st9 {
        fill: #fff;
      }

      .st10 {
        fill: #92937b;
      }

      .st11 {
        fill: #a94617;
      }

      .st12 {
        fill: #8a8a7c;
      }

      .st13 {
        fill: #211f18;
      }

      .st14 {
        fill: #827456;
      }

      .st15 {
        clip-path: url(#clippath);
      }

      .st16 {
        fill: #707165;
      }
    </style>
    <clipPath id="clippath">
      <rect class="st0" x="19.84" y="19.84" width="243.78" height="243.78"/>
    </clipPath>
  </defs>
  <rect class="st3" x="19.84" y="19.84" width="243.78" height="243.78"/>
  <g class="st15">
    <path class="st14" d="M101.99,64.47s12.58-4.06,18.25-5.07c5.68-1.01,22.31-4.06,34.89-3.04,12.58,1.01,23.12,3.65,29.01,5.48,5.88,1.83,33.67,12.37,46.25,21.5,12.58,9.13,12.78,12.98,19.27,19.47,6.49,6.49,17.24,26.98,17.24,26.98,0,0,11.76,12.78,15.21,17.24,3.45,4.46,12.17,10.35,19.47,14.2,7.3,3.85,9.84,5.27,9.84,5.27v98.98l-237.01-1.85s-4.67-6.06-5.07-9.5-1.42-3.04-8.11-11.97c-6.69-8.93-11.36-25.15-11.36-25.15,0,0-2.23-.81-3.25-3.25-1.01-2.43-5.48-16.23-4.26-24.14,1.22-7.91.39-12.78-.21-17.24-.6-4.46.41-30.22,2.44-35.5,2.03-5.27,1.42-14.2,7.1-29.21,5.68-15.01,13.19-27.38,17.24-30.63,4.06-3.25,33.06-12.58,33.06-12.58"/>
    <path class="st10" d="M100.98,150.07s0,3.2,3.38,4.98c3.38,1.78,22.58,10.03,28.13,13.35,5.54,3.31,12.24,5.61,20.99,4.66,8.76-.95,27.53-10.95,31.87-14.06,4.34-3.11,5.83-3.65,9.07-5.27,3.24-1.62,5.47-5,5.24-6.22-.23-1.22-98.67,2.57-98.67,2.57"/>
    <path class="st13" d="M116.6,87.19s-.81,1.01-5.07-4.26c-4.26-5.27-8.72-19.27-12.37-24.34-3.65-5.07-26.98-17.04-26.98-15.62s1.22,2.43,0,2.43-27.79-2.84-31.03-1.01c-3.24,1.83-10.55-1.01-4.46,6.69,6.08,7.71,7.91,4.46,16.23,12.17,8.32,7.71,13.59,10.75,21.7,12.37,8.11,1.62,9.13-1.22,12.17,2.84,3.04,4.06,4.46,7.05,6.29,8.8,1.83,1.75.81,2.76,3.85,4.18,3.04,1.42,16.63-.2,19.67.81,3.04,1.01,6.29,3.85,5.68,1.22-.61-2.64-5.68-6.29-5.68-6.29"/>
    <path class="st13" d="M182.52,62.85s2.23-4.67,8.52-6.7c6.29-2.03,11.56-2.23,14.81-3.85,3.24-1.62,15.01-4.87,23.73-2.84,8.72,2.03,16.84,5.48,17.65,8.11.81,2.64-14,8.72-14,9.33s4.67,1.42.61,2.84c-4.06,1.42-11.97,3.04-21.5,5.27-9.53,2.23-8.72.81-12.57,4.26-3.85,3.45-8.72,6.49-8.72,6.49,0,0,2.23.41.81,1.83-1.42,1.42-11.23,2.84-15.15,4.06-3.92,1.22-3.72-.2-1.89-2.43,1.83-2.23,6.08-7.3,7.3-8.52,1.22-1.22.61-6.69.61-11.16s-.2-6.69-.2-6.69"/>
    <path class="st6" d="M105.64,152.7s8.67,1.42,16.71,5.88c8.04,4.46,17.17,9.13,25.48,9.74,8.32.61,21.7-2.84,30.02-7.81,8.32-4.97,12.58-8.01,17.24-9.43,4.67-1.42,5.88-3.45,3.04-4.66-2.84-1.22-13.59-5.1-19.68-4.68-6.08.42-20.08,7.72-28.6,7.52-8.52-.2-18.46-5.07-26.57-5.27-8.11-.2-22.51,4.46-22.31,6.09.2,1.62,4.67,2.64,4.67,2.64"/>
    <path class="st8" d="M114.16,134.45s-2.23,3.92,2.64,8.55c4.87,4.63,14.6,4.63,18.46,6.46,3.85,1.82,9.94,12.98,12.37,12.98s4.67-.61,6.29-1.62c1.62-1.01,3.85-5.68,6.49-9.13,2.64-3.45,11.16-4.39,15.01-8.69,3.85-4.29,3.04-10.99,3.04-10.99,0,0,4.46-1.62,7.1-2.84,2.64-1.22,18.05-3.24,20.89-14.2,2.84-10.95-1.22-22.11-6.8-25.35-5.57-3.24-18.84-.41-26.1,3.85-7.26,4.26-10.71,14.4-15.78,16.02-5.07,1.62-7.5,1.62-12.58,1.62s-5.88,1.22-9.53.41-9.34-19.01-19.07-19.27c-9.73-.26-25.35-3.25-32.66,8.52-7.3,11.76,5.68,29.01,9.74,31.64,4.06,2.64,19.47,3.04,20.49,2.03"/>
    <path class="st12" d="M145.4,113.96s-6.9,6.9-6.9,13.79,1.22,8.72,1.42,12.57c.2,3.85,8.62,35.29,10.39,36.11,1.78.81,6.65-36.11,6.85-38.34.2-2.23,1.01-13.79-1.22-18.46s-7.3-7.51-10.55-5.68"/>
    <path class="st16" d="M141.73,128.56s-2.62,2.03-1.2,5.48l1.42,3.45s1.59-7.1-.22-8.93"/>
    <path class="st16" d="M154.12,127.35s1.42,1.22,1.62,3.45c.2,2.23-.81,5.88-.81,5.88,0,0-2.64-5.88-.81-9.33"/>
    <path class="st5" d="M121.53,101.93s4.19,6.05,4.46,11.48c.27,5.43-9.87,15.3-19.74,16.25-9.87.95-16.69-5-19.88-16.25-3.19-11.24,6.49-17.83,10.68-19.99,4.19-2.16,16.21-1.41,17.04-1.31.83.1,6.63,6.99,7.44,9.83"/>
    <path class="st5" d="M177.38,93.27s2.69-2.46,5.75-3.13c3.06-.67,7.5-2.15,13.85.96,6.36,3.11,8.69,10.31,7.03,20.42-1.65,10.11-12.71,13.81-22.18,13.8-9.47,0-14.33-10.76-15.55-14.51-1.22-3.75,6.23-14.67,11.09-17.55"/>
    <path class="st11" d="M89.21,113.4s-.54-8.64,3.25-13.77c3.79-5.14,15.14-5.95,20.28-3.92,5.14,2.03,9.34,9.4,9.61,15.11.26,5.71-4.88,12.49-13.26,14.51-8.38,2.02-15.96-3.39-17.04-6.09,0,0-1.62-3.15-2.84-5.83"/>
    <path class="st11" d="M170.62,105.85s.54-7.19,7.98-11.17c7.44-3.98,13.39-4.65,18.66,1.16,5.27,5.81,5.82,17.58,0,22.45-5.81,4.87-16.63,2.97-20.01.95-3.38-2.03-6.43-7.99-6.63-13.39"/>
    <path class="st7" d="M97.87,109.5s-.28-5.82,3.11-7.98c3.38-2.16,8.39-2.03,10.96.68s3.52,8.35,1.89,11.21c-1.62,2.86-6.22,5.02-10.68,4.07-4.46-.95-5.27-7.98-5.27-7.98"/>
    <path class="st7" d="M177.38,102.47s3.22-5.82,7.97-5.54c4.74.27,7.45,4.87,7.45,8.11s-2.19,8.38-6.78,9.46c-4.58,1.08-9.46-3.66-9.32-7.24.14-3.58.68-4.8.68-4.8"/>
    <path class="st2" d="M103.28,107.88s3.79-1.99,6.36-1.4l2.57.59s.81,2.53.81,3.16v.63s-7.03-1.08-8.52,0l-1.49,1.08s-1.34-3.35.27-4.06"/>
    <path class="st2" d="M179.27,104.9s2.55-1.35,6.07-1.08c3.53.27,5.15,2.54,5.15,2.54l-.95,2.5s-4.73-2.48-7.03-1.6l-2.3.88-.95-3.24Z"/>
    <path class="st4" d="M97.06,196.85c0,.41.68,16.09-3.79,19.34-4.46,3.25-10.41-2.57-9.06-7.57,1.35-5,2.7-8.11,2.7-8.11,0,0,1.08,2.57,4.6,1.49,3.52-1.08,5.54-5.14,5.54-5.14"/>
    <path class="st4" d="M81.75,205.37s-2.28,16.63-5.25,20.01c-2.97,3.38-8.65-2.03-7.84-5.54.81-3.51,2.98-7.98,2.98-7.98,0,0,2.74,1.08,3.53,1.08s6.59-7.57,6.59-7.57"/>
    <path class="st4" d="M85.56,225.11s4.33,4.87,8.38,3.38l4.06-1.49s5.14,20.55,0,22.58c-5.14,2.03-14.47,1.89-14.74-8.65-.27-10.55,2.3-15.82,2.3-15.82"/>
    <path class="st4" d="M99.49,245.13s8.25,10.82,5.54,13.66c-2.7,2.84-13.42-2.7-13.27-9.87l.15-7.17,7.57,3.38Z"/>
    <path class="st4" d="M137.22,213.62c-.33-1.55-.81,23.26,3.24,29.88,4.06,6.63,7.28,6.63,9.86,4.87,2.58-1.76,1.63-15.96,1.63-15.96,0,0-3.38,3.25-5.68-1.62s-4.55-13.66-4.55-13.66c0,0-4.11-1.62-4.51-3.51"/>
    <path class="st4" d="M172.11,247.02s-2.3,10.55,5.54,14.33c7.84,3.79,5.27-6.49,5.27-6.49,0,0-3.93-7.17-6.22-7.17s-4.6-.68-4.6-.68"/>
    <path class="st4" d="M190.5,247.02s-2.03,9.76,2.57,12.52c4.6,2.76,10.41-.62,10.41-4.14v-3.52s-6.49-1.13-8.25-2.52c-1.76-1.4-4.73-2.34-4.73-2.34"/>
    <path class="st4" d="M75.17,243.5s.08.27.27.85c.33,1.04.97,3.06,2.01,6.3,1.62,5.03,2.57,5.44,2.03,7.6-.54,2.16-9.6,2.7-10.14-4.12s-.75-12.37-.75-12.37c0,0,.49,2.3,2.65,2.57,2.16.27,4.02-.54,4.02-.54l-.08-.27Z"/>
    <path class="st4" d="M64.33,211.32s-2.84,13.93-1.35,19.2c1.49,5.27,1.35,8.86,3.92,7.34,2.57-1.52,3.46-15.08,2.71-16.94-.75-1.85-3.4-13.39-3.4-13.39l-1.87,3.79Z"/>
    <path class="st4" d="M54.73,211.19c-.41.14-1.35,14.31,0,20.27s4.19,9.61,6.08,8.4c1.89-1.22-1.22-16.23-1.22-16.23,0,0-1.08,3.89-2.43,2.01-1.35-1.88-2.43-14.45-2.43-14.45"/>
    <path class="st4" d="M75.17,187.66s-5.97,7.57-2.45,8.38c3.51.81,7.44-8.38,7.44-8.38,0,0-.4-1.62-.95-1.76-.54-.13-4.04,1.76-4.04,1.76"/>
    <path class="st4" d="M50,198.61s-4.73,8.93-3.65,11.63c1.08,2.71,5.54-8.11,5.54-8.11,0,0,.81-5,1.49-5.27.68-.27-3.38,1.76-3.38,1.76"/>
    <path class="st4" d="M219.84,242.56s9.06,18.01,14.74,16.98c5.68-1.03,5.54-8.2-.95-13.74-6.49-5.54-7.84-6.9-7.84-6.9,0,0-1.89.07-4.06-1.05-2.16-1.12-1.89,4.7-1.89,4.7"/>
    <path class="st4" d="M171.02,207.94s4.32,33.67,12.3,31.1,10.82-16.23,8.79-21.5c-2.03-5.27-7.48-10.95-10.23-14.2-2.75-3.25-8.79-10.01-10.1-7.84-1.31,2.16-.77,12.44-.77,12.44"/>
    <path class="st4" d="M204.02,217.13s6.63,15.96,10.14,13.12c3.51-2.84-4.06-14.47-4.33-14.87-.27-.41-2.98-4.19-3.65-3.25-.68.95-2.5,4.23-2.16,5"/>
    <path class="st4" d="M144.57,192.39s-2.38,18.93,5.75,16.36c8.13-2.57,8.37-4.73,8.37-4.73,0,0,2.57,11.32,7.74,9.53,5.16-1.78,5.19-16.7,5.37-18.05.18-1.35-.31-8.11-.88-6.49-.57,1.62-10.17,6.33-11.11,6.07-.95-.26-.83,1.23-1.77-.93-.94-2.16-12.03-10.82-12.43-9.33-.4,1.49-1.04,7.57-1.04,7.57"/>
    <path class="st4" d="M192.75,178.33s9.29,13.52,11.23,12.85-3.7-14.2-5.61-15.55c-1.92-1.35-5.61-2.35-5.61-2.35v5.06Z"/>
    <path class="st4" d="M204.38,171.16c-.09.41,8.84,15.82,11.54,16.09,2.7.27,4.19-.95,4.19-.95,0,0,5,9.33,6.22,9.33s2.71,13.25,6.08,11.49c3.38-1.76,3.11-13.23,0-17.9-3.11-4.68-3.51-4.3-3.11-6.99.41-2.69,3.38-6.2-1.76-11.07-5.14-4.87-9.6-7.44-9.6-7.44,0,0,3.51,5.68-1.62,7.3-5.14,1.62-11.32-3.38-11.95-2.63-.63.74,0,2.77,0,2.77"/>
    <path class="st4" d="M230.39,164.67s10.41,10.82,11.63,14.33c1.22,3.51,2.43,5.38,4.06,3.23,1.62-2.15,3.92-6.74-3.38-12.83-7.3-6.08-12.3-7.98-12.3-7.98v3.25Z"/>
    <path class="st4" d="M243.37,186.3s1.89,18.8,5.82,19.47c3.92.68,5.14,0,5.14,0,0,0,4.6,5.27,7.57,3.51,2.98-1.76,6.43-2.03,1.73-9.19-4.7-7.17-8.97-12.31-8.97-12.31,0,0-.06,7.84-3.03,5.41-2.97-2.43-8.25-6.9-8.25-6.9"/>
    <path class="st4" d="M229.03,157.37s14.33,8.38,14.33,6.36-14.33-6.36-14.33-6.36"/>
    <path class="st4" d="M234.85,151.82c.68.68,10.41,3.38,15.14,9.6,4.73,6.22,11.03,24.07,13.63,20.28,2.6-3.79-2.69-18.93-8.97-22.58-6.28-3.65-19.8-7.3-19.8-7.3"/>
    <path class="st4" d="M250.53,148.04s10.89,5.82,13.09,7.84c2.19,2.03,3.51,1.22,2.31-2.43-1.2-3.65-15.4-5.41-15.4-5.41"/>
    <path class="st4" d="M183.19,167.64s4.73,3.65,5.14,1.76c.41-1.89-2.31-4.19-2.31-4.19l-4.19,1.82,1.36.62Z"/>
    <path class="st4" d="M168.73,174.95c.41,0,7.84-2.28,7.98-1.68.14.6,1.22,4.25-1.21,4.25s-6.76-2.57-6.76-2.57"/>
    <path class="st4" d="M159.53,181.3s2.3,1.99,4.73.93c2.43-1.06,2.43.31,2.43.31,0,0,4.19-1.74,3.92,0-.27,1.74-.54,4.85-2.97,4.58-2.43-.27-3.25-1.61-3.25-1.61,0,0-4.87-.55-4.87-4.2"/>
    <path class="st4" d="M147.22,178.46c.41,0,4.33.14,5.68,1.62,1.35,1.49,0,2.15,0,2.15l-5.68-3.77Z"/>
    <path class="st4" d="M133.7,173.17c.54.16,6.46,3.67,6.41,4.35-.05.68-3.16,2.03-4.51.95-1.35-1.08-1.89-5.29-1.89-5.29"/>
    <path class="st4" d="M126,174.27s3.51,1.49,3.78,3.25c.27,1.76-2.57,7.81-5.27,4.71-2.7-3.09,1.49-7.96,1.49-7.96"/>
    <path class="st4" d="M121.13,168.39s1.7-.75,2.47.61c.77,1.35-3.82,2.57-3.96,1.89-.14-.68,1.49-2.5,1.49-2.5"/>
    <path class="st4" d="M110.17,169.95s3.11,1.35,2.16,2.57c-.95,1.22-6.5,2.98-6.56,1.76-.06-1.22,4.4-4.32,4.4-4.32"/>
    <path class="st4" d="M109.15,163.99s4.36.68,3.37,1.76c-.99,1.08-9.24,4.87-8.7,3.24.54-1.62,5.33-5,5.33-5"/>
    <path class="st4" d="M100.17,165.21c.41-.27,2.61.4,2.32,1.48-.29,1.08-11.51,7.58-10.97,5.62.54-1.96,8.65-7.1,8.65-7.1"/>
    <path class="st4" d="M68.58,168.92s.6,2.12,0,3.4c-.6,1.28-6.01,6.17-7.63,4.13-1.62-2.04,6.09-10.3,6.76-9.75.68.54.87,2.22.87,2.22"/>
    <path class="st4" d="M53.46,176.45s3.8,3.11.57,7.77c-3.22,4.66-7.73,11.87-7.84,6.78-.11-5.09,7.27-14.54,7.27-14.54"/>
    <path class="st1" d="M81.75,92.1s-6.74,8.04-7.28,18.13c-.54,10.09,4.46,23.34,12.71,27.26l8.25,3.92s-13.12,0-18.53-8.38c-5.41-8.38-6.63-22.72-3.92-30.15,2.71-7.44,8.77-10.78,8.77-10.78"/>
    <path class="st1" d="M205.51,84.35s12.31,12.25,11.09,24.51c-1.22,12.27-6.81,18.89-12.06,21.46-5.25,2.57-4.51,3.11-4.88,3.51-.37.41,10.31-3.43,14.1-8.07,3.79-4.64,6.57-17.25,5.72-21.99-.85-4.73-11.13-19.98-13.97-19.44"/>
    <path class="st1" d="M55.33,137.49s.06,21.91,14.54,24.95c14.48,3.04,28.81-1.62,28.81-1.62,0,0-20.17,3.86-28.81-3.85-8.64-7.71-14.54-19.48-14.54-19.48"/>
    <path class="st1" d="M204.38,152.5c1.26.81,26.01-8.12,28.04-19.47,2.03-11.36,2.44-15.33,2.44-15.33,0,0,7.71,16.68-2.03,23.71-9.74,7.03-28.44,11.09-28.44,11.09"/>
  </g>
  <g>
    <path class="st9" d="M109.62,242.55h-2.44c-1.2-3.58-3.98-10.54-6.06-15.28h3.6c1.5,3.68,3.06,8.08,3.96,11.04,1.2-2.92,2.84-7.38,4-11.04h3.28c-1.82,4.96-4.36,11.06-6.34,15.28Z"/>
    <path class="st9" d="M118.86,242.19c-.7-2.24-2.42-6.24-3.64-8.64h3.06c.62,1.54,1.64,4.34,2.02,5.78.62-1.56,1.48-4.04,1.92-5.78h2.74c-.78,2.2-2.66,6.4-3.64,8.72-.98,2.26-1.98,4.62-2.56,6.18h-2.82c.66-1.64,1.86-4.3,2.92-6.26ZM120.66,232.19l-1.66-.08,2.82-4.18h2.56l-3.72,4.26Z"/>
    <path class="st9" d="M129.06,236.45v6h-2.68v-5.48c0-1.64-.2-2.64-.48-3.42h1.76c.18.38.34.98.36,1.4.7-1.04,1.84-1.72,2.94-1.72.48,0,.88.12,1.22.3v2.78c-.44-.32-.92-.48-1.48-.48-.6,0-1.22.22-1.64.62Z"/>
    <path class="st9" d="M143.34,242.51h-2.32c-.72-2.44-2.48-6.64-3.72-8.96h3.06c.64,1.52,1.64,4.38,2.02,5.8.64-1.62,1.52-4.12,1.94-5.8h2.72c-.76,2.14-2.72,6.54-3.7,8.96Z"/>
    <path class="st9" d="M149.8,238.19c0,1.4.86,2.32,2.7,2.32.78,0,1.6-.2,2.46-.66v1.68c-.82.8-2.02,1.28-3.24,1.28-2.32,0-4.42-1.52-4.42-4.42s2-5.2,5.06-5.2c2.18,0,3.24,1.26,3.24,2.86,0,.74-.28,1.46-.72,1.98l-5.06-.2c-.02.14-.02.24-.02.36ZM152.1,235.11c-.82,0-1.58.44-1.96,1.28l3.3-.1c0-.72-.5-1.18-1.34-1.18Z"/>
    <path class="st9" d="M157.4,226.89l2.9-.12c-.18,2.42-.26,12.6-.26,15.68h-2.64v-15.56Z"/>
    <path class="st9" d="M168.7,233.55h3.1c-1.28,1.74-2.8,3.4-3.62,3.92,1.1.92,2.94,3.22,3.98,4.98h-3.38c-.36-.96-3.14-4.26-3.62-4.3-.02,1.52-.04,3.2-.04,4.3h-2.64v-15.56l2.9-.12c-.1,1.48-.26,6.48-.3,10.98.54-.08,2.54-2.5,3.62-4.2Z"/>
    <path class="st9" d="M176.02,242.19c-.7-2.24-2.42-6.24-3.64-8.64h3.06c.62,1.54,1.64,4.34,2.02,5.78.62-1.56,1.48-4.04,1.92-5.78h2.74c-.78,2.2-2.66,6.4-3.64,8.72-.98,2.26-1.98,4.62-2.56,6.18h-2.82c.66-1.64,1.86-4.3,2.92-6.26ZM177.82,232.19l-1.66-.08,2.82-4.18h2.56l-3.72,4.26Z"/>
  </g>
</svg>