<?xml version="1.0" encoding="UTF-8"?>
<svg id="Vrstva_1" xmlns="http://www.w3.org/2000/svg" xmlns:xlink="http://www.w3.org/1999/xlink" version="1.1" viewBox="0 0 283.46 283.46">
  <!-- Generator: Adobe Illustrator 30.1.0, SVG Export Plug-In . SVG Version: 2.1.1 Build 136)  -->
  <defs>
    <style>
      .st0 {
        fill: none;
      }

      .st1 {
        fill: #23201d;
      }

      .st2 {
        fill: #3c3c3b;
      }

      .st3 {
        fill: #817c79;
      }

      .st4 {
        fill: #1d1d1b;
      }

      .st5 {
        fill: #282422;
      }

      .st6 {
        fill: #c6c6c6;
      }

      .st7 {
        fill: #dadada;
      }

      .st8 {
        fill: #fff;
      }

      .st9 {
        fill: #272726;
      }

      .st10 {
        fill: #575756;
      }

      .st11 {
        fill: #5b5552;
      }

      .st12 {
        clip-path: url(#clippath);
      }
    </style>
    <clipPath id="clippath">
      <rect class="st0" x="19.84" y="19.84" width="243.78" height="243.78"/>
    </clipPath>
  </defs>
  <rect class="st3" x="19.84" y="19.84" width="243.78" height="243.78"/>
  <g class="st12">
    <path class="st11" d="M21.06,8.89s24.34,41.38,26.77,60.85q2.43,19.47,5.68,26.77c3.25,7.3,20.28,37.32,33.26,64.1,12.98,26.77,1.62,33.26,28.4,43.81,26.77,10.55,47.06,4.87,59.23,7.3,12.17,2.43,27.59,4.87,34.08,0,6.49-4.87,12.98-40.57,24.34-44.62,11.36-4.06,15.42-21.91,16.23-33.26.81-11.36-1.62-120.89-1.62-120.89l30.83,1.62,6.49,269.36L2.4,275.82,12.95,1.59l8.11,7.3Z"/>
    <path class="st5" d="M221.46,129.98s.2,40.16,2.03,48.88c1.83,8.72-2.23,28.8-4.87,33.47-2.64,4.67-3.04,12.58-1.82,18.66,1.22,6.08,2.43,7.71,1.42,10.75-1.01,3.04-34.89,6.9-32.25,0,2.64-6.9,3.85-9.74,4.87-12.58,1.01-2.84,2.43-4.26,1.01-9.94-1.42-5.68-4.76-24.75-6.03-28.6-1.27-3.85,35.64-60.65,35.64-60.65"/>
    <path class="st9" d="M194.71,184.5s0,2.96,8.62,8.89c8.62,5.93,19.4.27,19.67,1.89.27,1.62-4.04,16.44-5.39,20.75-1.35,4.31-.81,13.48.27,17.52,1.08,4.04,3.5,11.05-7.01,11.05s-25.87,3.23-25.87-1.89,8.62-16.44,8.09-19.41c-.54-2.96-5.93-21.29-5.93-21.29l7.55-17.52Z"/>
    <path class="st4" d="M192.86,182.11s16.43-16.02,21.5-28.19,8.42-13.99,9.58-33.87c1.17-19.88-14.66-58.62-53.8-77.28-39.15-18.66-86,9.13-101.62,36.71-15.62,27.59-4.67,79.92-4.46,88.84.2,8.93-1.22,11.56,0,13.79,1.22,2.23,8.32,13.59,12.37,17.65,4.06,4.06,6.9,6.09,8.92,9.53,2.03,3.45,7.5,7.91,6.08,11.56-1.42,3.65-6.69,11.97-5.07,14.81,1.62,2.84,7.91,8.11,16.43,8.32,8.52.2,22.51-2.43,25.76-7.5,3.24-5.07-2.84-13.79-3.65-19.88-.81-6.08.41-7.3.41-13.18s-1.42-18.66-.41-19.27c1.01-.61,13.39,2.03,18.86,3.65,5.48,1.62,37.93,2.43,49.09-5.68"/>
    <path class="st5" d="M195.34,181.63s-3.04-38.89-1.96-52.53c1.08-13.65-1.95-33.36-8.23-38.12-6.28-4.77-16.46-6.5-20.15-8.88-3.68-2.38-99.52,35.53-99.52,35.53,0,0-3.59-8.88-3.81-7.36-.22,1.52-1.52,3.25-1.52,3.25,0,0-1.73-26.43,13.65-42.89,15.38-16.46,33.58-31.63,62.17-34.01,28.6-2.38,56.11,12.57,76.03,44.19,19.93,31.63,12.57,55.67,8.67,62.17-3.9,6.5-9.53,19.28-13.21,24.91-3.68,5.63-12.12,13.76-12.12,13.76"/>
    <path class="st4" d="M143.17,183.74s-3.65,23.93-10.14,32.66c-6.49,8.72-5.31,17.23-9.53,21.3-4.23,4.07-5.27,4.27-4.26,7.91s.61,8.72,13.79,6.08,20.49,3.66,28.4-6.08c7.91-9.74,2.03-12.17,5.07-16.64,3.04-4.46,24.14-23.12,27.58-36.71,3.45-13.59-1.01-41.58-1.01-41.58l-49.9,33.06Z"/>
    <path class="st7" d="M88.61,69.74s1.22-4.06,21.91-9.53c20.69-5.48,46.25,2.64,49.49,5.68,3.25,3.04,11.56,17.85,15.21,19.88,3.65,2.03,12.58,3.24,14,12.17,1.42,8.92-6.69,12.17-9.13,13.18-2.43,1.01,1.82,4.46-4.67,9.53-6.49,5.07-15.42,11.36-17.04,14-1.62,2.64-3.25,11.15-3.45,13.59-.2,2.43-3.04,9.13-6.29,11.97-3.25,2.84-6.93,2.43-9.65,3.25-2.72.81-6.98,1.62-11.85,0-4.87-1.62-13.59-10.75-16.02-14-2.43-3.24-3.85-2.03-6.49-5.27-2.64-3.25-4.06-1.42-13.18-7.71-9.13-6.29-10.55-10.55-10.55-10.55,0,0-15.01-4.87-15.42-8.32-.41-3.45.81-15.82,4.46-20.89s6.09-6.49,8.32-10.95c2.23-4.46,8.81-14.41,10.34-16.02"/>
    <path class="st4" d="M128.77,159.8c-.06-.3-3.65-4.77-2.23-9.13,1.42-4.36,8.21-5.98,9.43-6.29,1.22-.31,7.91-2.23,10.55-.81,2.64,1.42,4.87,5.88,4.87,8.62s-4.16,7.91-6.69,8.82c-2.54.91-3.24.71-6.39,1.42-3.14.71-9.03-.1-9.53-2.64"/>
    <path class="st2" d="M132.11,155.14s3.24-.41,3.96,0c.71.41-.51,1.42-1.42,1.42s-2.54-1.42-2.54-1.42"/>
    <path class="st2" d="M142.97,153.95s3.14-1.42,3.65-1.08-.71,1.6-1.57,2.09c-.86.48-2.08-1-2.08-1"/>
    <path class="st10" d="M132.11,149.86s8.94-3.75,12.74-2.23,3.59.91,3.29.51-2.08-2.74-7.94-1.72c-5.85,1.01-8.8,2.43-8.09,3.45"/>
    <path class="st4" d="M120.65,154.96c.49-.2-1.01-1.85-1.01-4.28s-1.12-3.85,1.01-5.27,5.07-2.61,5.17-5.06c.1-2.45-1.32-3.36-.81-4.98.51-1.62.2-5.38-1.01-7.81s-3.04-7-3.75-9.84c-.71-2.84.41-5.07.71-9.84.31-4.77-3.96-12.58-3.96-13.18s-3.45-8.11-4.46-14.4c-1.01-6.29-4.36-10.95-10.14-10.95s-10.45.91-11.76,1.52c-1.32.61-8.11,5.98-9.33,8.01-1.22,2.03-3.85,5.07-2.64,9.33,1.22,4.26,7.71,12.78,10.75,15.01,3.04,2.23,6.39,3.04,7.3,6.39.91,3.35,1.72,8.21,3.45,11.05,1.72,2.84,1.22,3.14,3.75,6.79,2.54,3.65,4.56,5.17,5.68,7.1,1.11,1.93,4.56,7.81,5.27,10.75.71,2.94,4.46,10.19,5.78,9.66"/>
    <path class="st4" d="M135.66,70.66s.41-1.52-1.01-3.04c-1.42-1.52-2.13-2.94-1.52-3.25.61-.3,12.88-.91,15.62,1.01,2.74,1.93,8.82,2.33,9.33,2.74.51.4,5.55,2.42,6.47,3.77.91,1.35,2.05,5.56,2.05,10.43s-2.74,11.46-5.38,14.81c-2.64,3.35-2.94,4.77-2.94,5.88s1.01,6.13-.1,9.15c-1.11,3.02-.2,3.02-1.01,8.09-.81,5.07-2.13,8.52-2.43,9.74-.3,1.22-1.01,7.81-.81,9.43.2,1.62.41,3.04.41,3.04,0,0,.81,1.32-1.12,0-1.93-1.32-4.26-4.87-5.98-4.97-1.72-.1-1.93-.51-1.52-1.52.41-1.01-1.32-3.35-1.93-5.98-.61-2.64-.51-7.5-.81-11.16s-2.29-8.82-2.82-12.27c-.53-3.45-3.06-8.72-2.66-13.59.4-4.87.1-7.91-.81-11.36-.91-3.45-1.01-10.95-1.01-10.95"/>
    <path class="st10" d="M108.01,119.5s.88-1.22,2.97-1.01c2.1.2,5.21,1.96,5.21,4.8s-2.71,4.53-4.67,4.26c-1.96-.27-3.65-.74-3.52-5.82,0,0-.42-1.84,0-2.23"/>
    <path class="st4" d="M109.5,120.59s-.61-.88,2.03,0,3.58,2.43,3.52,3.52-2.84,2.23-4.19,1.62c-1.35-.61-1.61-2.91-1.41-3.51.2-.61.06-1.62.06-1.62"/>
    <path class="st6" d="M111.12,121.87s-.14.25,0,1.17.9,1.26,1.09,1.26-.33-.47-.2-1.22c.13-.74-.89-1.22-.89-1.22"/>
    <path class="st10" d="M146.14,119.23c-.01-.27.27-4.06,2.43-4.33,2.16-.27,3.85.2,4.46.88.61.68.41,1.15.54,1.55.14.41.81,2.97-1.42,4.53-2.23,1.56-5.88.47-6.02-2.64"/>
    <path class="st4" d="M148.29,116.8s1.24-.74,2.32-.34c1.08.4,1.42-.74,1.55.34.14,1.08.2.83,0,1.9-.2,1.07-.41,2.63-2.2,2.83-1.79.2-3.35-.95-2.94-2.61.41-1.65,1.26-2.13,1.26-2.13"/>
    <path class="st6" d="M149.96,118.47s.1,1.17-.34,1.31c-.44.14,1.12.11,1.18-.65.07-.77-.85-.65-.85-.65"/>
    <path class="st6" d="M155.41,72.92c.07-.29-1.42-2.5,0-3.58,1.42-1.08,4.33.2,4.6,1.79.27,1.59-.27,4.23,1.08,3.89,1.35-.34,4.4-4.53,4.19-7.98-.2-3.45-2.91-4.93-4.73-6.15-1.82-1.22-6.49-.61-8.52.68-2.03,1.28-1.55,6.08-.4,8.59s3.58,3.65,3.79,2.77"/>
    <path class="st6" d="M92.66,80.09c-.41-.07.54.81-2.64-1.01-3.18-1.83-7.1.51-7.23,1.17-.13.66.13,2.74-2.03,3.29-2.16.56-3.24-.13-4.12-3.65-.88-3.51-2.03-5.41-1.01-7.1s4.12-4.26,10.89-3.04c6.76,1.22,8.59,4.93,8.32,7.44-.27,2.5-2.16,2.91-2.16,2.91"/>
    <path class="st6" d="M77.79,108.15c.11.18,1.35,1.76,1.89,5.27.54,3.51,1.08,7.17,1.69,8.45.61,1.28.34,1.34-.74.7-1.08-.64-3.31-3.48-3.65-5.57-.34-2.1-2.16-3.58-1.22-4.12.95-.54.47-1.15.07-2.84-.41-1.69,1.6-2.51,1.96-1.89"/>
    <path class="st6" d="M178.33,105.98c.07-.2-.41-1.64,1.49-2.45,1.89-.8,3.18-1.07,3.79-2.29.61-1.22.27-2.77.81-2.1.54.68,1.15,2.1.47,2.97-.68.88,1.01,1.41,1.01,1.41,0,0-.41-.73-3.38,1.16-2.98,1.89-4.07,3.24-4.2,2.77-.13-.47,0-1.49,0-1.49"/>
    <path class="st4" d="M191.75,87.09s3.45,5.27,3.45,12.68-.2,5.98.51,14.3c.71,8.32-1.93,26.77-1.98,28.5-.05,1.72-.34,13.49.06,17.75.4,4.26.9,12.07.7,15.92-.2,3.85,1.82.19,1.34-.51-.49-.7.58-19.24.08-21.79-.5-2.55-.44-7.67.14-10.89.58-3.22,3.82-21.58,4.43-31.67.61-10.09-.3-16.88-2.03-21.35-1.72-4.46-8.92-12.37-9.63-11.56-.71.81,2.94,8.62,2.94,8.62"/>
    <path class="st4" d="M217.54,121.87s.13,12.61-3.11,19.86c-3.24,7.25-2.3,8.13-2.3,8.13,0,0,1.08-2.6,1.62-3.7.54-1.1,4.73-10.57,5.14-15.3.41-4.73-1.35-8.99-1.35-8.99"/>
    <path class="st1" d="M141.73,219.3s13.4.95,15.4,5.68c2,4.73.78,8.25,2.13,6.9,1.35-1.35,1.76-8.38-.95-11.76-2.7-3.38-17.71-.81-17.71-.81h1.13Z"/>
    <path class="st4" d="M196.45,226.06s2.91-4.06,8.42-3.24c5.51.81,7.81,1.08,7.13-.68-.68-1.76-8.52-3.52-10.68-2.97-2.16.54-5.54,6.35-4.87,6.9"/>
    <path class="st2" d="M142.9,241.75s-2.43.02-2.3,2.24c.13,2.22-1.08,3.71,0,3.84,1.08.14,3.65-4.87,2.3-6.08"/>
    <path class="st2" d="M135.46,241.75s-2.16.68-2.16,3.04v3.04s6.22-5.95,2.16-6.09"/>
    <path class="st2" d="M126.27,241.75s-2.57,1.5-2.3,3.86c.27,2.36,1.14,2.23,1.14,2.23,0,0,3.32-7.03,1.16-6.09"/>
    <path class="st2" d="M120.05,242.29s.19,3.62,0,4.73c-.19,1.11-3.92-4.73,0-4.73"/>
    <path class="st2" d="M93.27,234.98s-1.08,1.08-.95,2.43c.14,1.35.47,2.57.47,2.57,0,0,3.18-4.46.48-5"/>
    <path class="st2" d="M100.98,236.34s-.95,1.62-.95,3.65.95,2.3.95,2.3c0,0,2.7-7.44,0-5.95"/>
    <path class="st2" d="M106.66,236.14s-.27,2.09,0,3.85c.27,1.76.95,2.3.95,2.3,0,0,1.89-6.61-.95-6.15"/>
    <path class="st2" d="M115.85,236.14s-1.62.47-.95,2.5c.68,2.03.95,2.43.95,2.43,0,0,3.25-4.31,0-4.93"/>
    <path class="st2" d="M191.71,239.2s-1.35,1.06-.95,2.54c.41,1.49.95,2.24.95,2.24,0,0,1.76-5.3,0-4.79"/>
    <path class="st2" d="M198.47,239.99s-1.22-.95-1.08,1.08c.13,2.03,1.08,2.92,1.08,2.92,0,0,.92-3.98,0-4"/>
    <path class="st2" d="M204.87,239.21s-.42-.31-.63,1.86c-.22,2.16.32,2.92.32,2.92,0,0,2.65-4.74.32-4.78"/>
    <path class="st2" d="M210.91,238.6s.41-.55,0,1.16c-.41,1.71.18,3.6.18,3.6,0,0,2.8-4.52-.18-4.76"/>
    <path class="st4" d="M81.37,158.04s.95,6.49,8.38,14.06c7.44,7.57,20.69,12.44,20.15,12.44s-16.09-4.19-20.15-8.11c-4.06-3.92-11.22-16.09-8.38-18.39"/>
  </g>
  <g>
    <path class="st8" d="M89.59,247.79c-1.12,0-2.22-.44-2.94-1.06v-2c.52.32,1.24.54,1.9.54,1.36,0,2.42-.64,2.42-2.3v-15.7h3.18c-.2,2.66-.24,12.58-.24,16.08,0,3.2-2.06,4.44-4.32,4.44Z"/>
    <path class="st8" d="M98.85,238.19c0,1.4.86,2.32,2.7,2.32.78,0,1.6-.2,2.46-.66v1.68c-.82.8-2.02,1.28-3.24,1.28-2.32,0-4.42-1.52-4.42-4.42s2-5.2,5.06-5.2c2.18,0,3.24,1.26,3.24,2.86,0,.74-.28,1.46-.72,1.98l-5.06-.2c-.02.14-.02.24-.02.36ZM101.15,235.11c-.82,0-1.58.44-1.96,1.28l3.3-.1c0-.72-.5-1.18-1.34-1.18Z"/>
    <path class="st8" d="M105.57,242.45l-.1-.66c.74-.74,3.9-5.16,4.88-6.24-1.78,0-2.8.08-4.26.3v-2.3h7.9l.08.7c-.68.76-3.78,5.16-4.7,6.18,1.36-.02,2.92-.08,4.64-.24l-.2,2.26h-8.24Z"/>
    <path class="st8" d="M117.77,238.19c0,1.4.86,2.32,2.7,2.32.78,0,1.6-.2,2.46-.66v1.68c-.82.8-2.02,1.28-3.24,1.28-2.32,0-4.42-1.52-4.42-4.42s2-5.2,5.06-5.2c2.18,0,3.24,1.26,3.24,2.86,0,.74-.28,1.46-.72,1.98l-5.06-.2c-.02.14-.02.24-.02.36ZM120.07,235.11c-.82,0-1.58.44-1.96,1.28l3.3-.1c0-.72-.5-1.18-1.34-1.18Z"/>
    <path class="st8" d="M130.05,242.51h-2.32c-.72-2.44-2.48-6.64-3.72-8.96h3.06c.64,1.52,1.64,4.38,2.02,5.8.64-1.62,1.52-4.12,1.94-5.8h2.72c-.76,2.14-2.72,6.54-3.7,8.96Z"/>
    <path class="st8" d="M136.53,238.19c0,1.4.86,2.32,2.7,2.32.78,0,1.6-.2,2.46-.66v1.68c-.82.8-2.02,1.28-3.24,1.28-2.32,0-4.42-1.52-4.42-4.42s2-5.2,5.06-5.2c2.18,0,3.24,1.26,3.24,2.86,0,.74-.28,1.46-.72,1.98l-5.06-.2c-.02.14-.02.24-.02.36ZM138.83,235.11c-.82,0-1.58.44-1.96,1.28l3.3-.1c0-.72-.5-1.18-1.34-1.18Z"/>
    <path class="st8" d="M147.75,242.81c-2.2,0-4.22-1.4-4.22-4.46,0-3.38,2.42-5.16,4.9-5.16.74,0,1.46.14,2.06.38v2.66c-.64-.4-1.32-.58-2.04-.58-1.48,0-2.42.96-2.42,2.38s.92,2.24,2.32,2.24c.74,0,1.5-.24,2.14-.68v1.92c-.46.78-1.54,1.3-2.74,1.3Z"/>
    <path class="st8" d="M157.55,226.89l2.9-.12c-.18,2.42-.26,12.6-.26,15.68h-2.64v-15.56Z"/>
    <path class="st8" d="M164.57,238.19c0,1.4.86,2.32,2.7,2.32.78,0,1.6-.2,2.46-.66v1.68c-.82.8-2.02,1.28-3.24,1.28-2.32,0-4.42-1.52-4.42-4.42s2-5.2,5.06-5.2c2.18,0,3.24,1.26,3.24,2.86,0,.74-.28,1.46-.72,1.98l-5.06-.2c-.02.14-.02.24-.02.36ZM166.87,235.11c-.82,0-1.58.44-1.96,1.28l3.3-.1c0-.72-.5-1.18-1.34-1.18Z"/>
    <path class="st8" d="M171.69,241.65v-1.72c.8.56,1.7.82,2.6.82s1.24-.3,1.24-.76c0-1.28-3.66-.92-3.66-3.82,0-1.84,1.62-2.98,3.54-2.98,1,0,1.64.14,2.2.38v2.48c-.54-.36-1.18-.68-2-.68-.7,0-1.06.26-1.06.72,0,1.26,3.6.96,3.6,3.88,0,2.14-1.84,2.84-3.46,2.84-1.32,0-2.26-.4-3-1.16Z"/>
    <path class="st8" d="M181.47,233.55c.12.24.22.64.24.94.78-.68,1.94-1.22,3.26-1.22,1.84,0,3.44,1.06,3.44,3.72v5.46h-2.66v-5.12c0-1.24-.72-1.76-1.56-1.76-.52,0-1.02.18-1.48.46v6.42h-2.68v-6.48c0-.84-.12-1.76-.34-2.42h1.78Z"/>
    <path class="st8" d="M191.83,232.19l-1.66-.08,2.82-4.18h2.56l-3.72,4.26ZM190.67,233.55l2.88-.1c-.2,2.04-.24,5.92-.24,9h-2.64v-8.9Z"/>
  </g>
</svg>