<?xml version="1.0" encoding="UTF-8"?>
<svg id="Vrstva_1" xmlns="http://www.w3.org/2000/svg" version="1.1" viewBox="0 0 283.46 283.46">
  <!-- Generator: Adobe Illustrator 30.1.0, SVG Export Plug-In . SVG Version: 2.1.1 Build 136)  -->
  <defs>
    <style>
      .st0 {
        fill: #c49669;
      }

      .st1 {
        fill: #654834;
      }

      .st2 {
        fill: #e1c6b0;
      }
    </style>
  </defs>
  <rect class="st0" x="-10.42" y="-12.33" width="304" height="306"/>
  <path class="st1" d="M56.15,186.69s-3.04,12.48.67,21.59c3.71,9.11,5.74,17.21,23.28,20.24,17.55,3.04,21.93,1.35,41.5,4.72,19.57,3.37,49.6,12.48,66.81,11.47s8.77-5.74,29.02-12.82c20.24-7.09,42.51-37.79,32.39-41.5s-193.67-3.71-193.67-3.71Z"/>
  <path class="st1" d="M70.66,178.25s-1.69,5.06-5.74-9.45c-4.05-14.51-21.93-46.56-21.93-46.56,0,0,17.55,17.55,19.23,20.24s-2.7-10.46,0-21.93,10.8-17.55,13.16-21.93,8.44-49.26,8.44-49.26c0,0,4.39,12.15,5.4,29.02,1.01,16.87-1.01,21.59-1.01,21.59,0,0,11.81-30.03,8.77-38.8s-6.41-13.5-6.41-13.5c0,0,10.12-5.4,12.48,18.9s0,42.51-.67,44.88-6.75,24.63-6.75,24.63c0,0,12.82,5.06,14.51-12.82,1.69-17.88-1.01-43.53-1.01-43.53,0,0,7.09,15.52,8.44,24.29s12.82,22.27,11.81,19.91-11.13-5.74-7.09-22.94c4.05-17.21,6.07-20.24,6.07-20.24,0,0,16.53,13.83,17.88,29.35l1.35,15.52s.67-28.01,4.05-34.42,4.72-5.4,4.72-5.4c0,0,7.42,22.94,7.42,25.64s-1.35-28.01-1.35-28.01c0,0,6.75,0,10.46,13.83,3.71,13.83,7.09,20.58,10.8,19.57s28.68-4.39,41.16,1.69c12.48,6.07,4.39,1.01-1.01,9.11-5.4,8.1-10.12,31.04-10.12,31.04,0,0,16.87-11.47,15.86-23.96,0,0,7.42-1.69,3.71,15.18-3.71,16.87-7.09,19.91-7.09,19.91,0,0,14.51,2.02,14.85-6.41s0-13.16,0-13.16c0,0,2.36,0,3.04,3.04s-2.7-13.83-2.7-13.83c0,0,8.1,6.75,9.45,19.57,1.35,12.82-1.01,19.23-1.01,17.88s1.69-14.51,14.17-7.42c0,0-8.1,2.7-9.45,10.12-1.35,7.42-9.11,15.52-9.11,15.52l-174.78-16.87Z"/>
  <path class="st1" d="M86.86,172.18c-1.35-.34-14.85-5.74-24.63,5.06-9.78,10.8-13.16,23.28,13.5,30.7,26.66,7.42,102.91,9.45,133.61,5.4,30.7-4.05,42.85-7.76,40.49-20.58s-27.33-13.16-41.84-21.93c-14.51-8.77-42.18-11.13-56.01-8.77s-65.12,10.12-65.12,10.12Z"/>
  <path class="st2" d="M120.84,176.99s5,4.34,6,1.67-1.83-11.68-4-17.51-7.51-23.35-2.84-35.19,14.84-15.18,22.52-19.01c7.67-3.84,12.51-3.67,17.35-9.01,4.84-5.34,7.34-11.34,12.34-16.01s8.17-6.34,8.17-6.34c0,0,1.67-8.67,2.84-11.34,1.17-2.67,2.34-3,2.34-3l2.34,5.34.33-6s7.17,6.5,8.51,13.18c1.33,6.67.33,9.51.33,9.51,0,0,8.51,7.01,11.51,13.34,3,6.34,4.67,12.18,5.5,13.68s1.17,6.84-.83,7.17l-2,.33s-3,1.33-7.17.67l-4.17-.67s1.33,3.5-1.67,3.67-6.67-.33-6.67-.33c0,0,1.5,2.84,2.5,3.17s2.17.5,5-.67c2.84-1.17,9.34-3,13.18-1.67s7.17,2.84,7.17,4-.33,2-.33,2c0,0,.5,2-1.83,3.34s-7.34,1-10.84,2.34-3.84.17-7.34,3.84c-3.5,3.67-8.67,7.01-14.34,8.84-5.67,1.83-6.67,1.33-6.67,1.33,0,0,2.67,12.18,1,20.02-1.67,7.84-7.01,16.18-7.01,16.18,0,0,2.34,1.5,11.51,1,9.17-.5,12.34-.5,12.51,2.17s-2.5,3-7.67,2.84-16.68-.83-16.68-.83c0,0,17.51-2.17,19.68-.67,2.17,1.5,4.67,4.5-1.33,5.17-6,.67-14.34-1.17-20.52-.5-6.17.67-13.34,1.33-14.01,1.17s-6.17,4-16.01,3.17c-9.84-.83-13.18-4-13.18-4l-2-2.34s2.5,5.17-12.18,1.5c-14.68-3.67-18.51-7.84-18.51-7.84l3.34-.33s-11.84,1.33-18.68-7.67c-6.84-9.01-7.51-22.85-7.51-22.85l2.17,2.67s-5.34-5.34-2.34-14.51c3-9.17,3.5-9.84,3.5-9.84l.17,2.5s.83-9.34,3.67-12.68l2.84-3.34s-.33,3.34.17,3.5,4.34-2.84,2-6.67-7.17-1.83-8.51,1.33-2,4.17-2,4.17l-.33-3.34s-12.18,8.84-12.84,15.01-.67,6.84-.67,6.84c0,0-5-4.84-7.01-10.51l-2-5.67.17,6.34s-5.17,1.67-7.01-9.51c-1.83-11.18,1.67-17.51,1.67-17.51l-3.17,3s-1.33-6.5,5.5-14.84c6.84-8.34,22.68-11.84,22.68-11.84l-7.51.17s12.18-14.18,28.19-7.67c16.01,6.5,26.02,18.51,26.35,32.52.33,14.01-6.17,32.69-6.5,38.7s3.84,30.69,10.84,34.36Z"/>
  <path class="st2" d="M218.45,193.1s8.77-7.42,12.82-1.35c4.05,6.07-8.77,6.75-11.81,6.07s-1.01-4.72-1.01-4.72Z"/>
  <path class="st2" d="M201.58,199.17s15.86-5.06,15.52,1.69c-.34,6.75-18.22,5.06-15.52-1.69Z"/>
  <path class="st2" d="M208.33,139.45s-1.01-3.71,4.72-3.71,5.4,5.74,4.39,7.09-9.11-3.37-9.11-3.37Z"/>
  <path class="st2" d="M163.79,230.55s14.85-1.35,17.88,4.39-19.91,6.41-17.88-4.39Z"/>
  <path class="st2" d="M183.02,213.34s-1.69,6.07,4.05,7.09c5.74,1.01,13.16,2.02,10.12-3.04-3.04-5.06-11.13-7.76-14.17-4.05Z"/>
  <path class="st2" d="M152.99,210.31s17.21-5.74,16.87,2.7-20.58,5.4-16.87-2.7Z"/>
  <path class="st1" d="M64.59,186.01s-6.75,5.4-11.81-10.46-24.29-24.29-25.31-23.96-7.42,8.1-7.42,8.1l9.11-15.86s17.21,9.45,21.93,14.85,17.88,23.28,17.88,23.28l-4.39,4.05Z"/>
  <path class="st1" d="M61.89,180.95c-.67-1.01-13.83-34.42-13.83-34.42,0,0,16.87,13.5,20.92,20.58,4.05,7.09,4.05,18.22,4.05,18.22l-11.13-4.39Z"/>
</svg>