<?xml version="1.0" encoding="UTF-8"?>
<svg id="Layer_1" xmlns="http://www.w3.org/2000/svg" version="1.1" viewBox="0 0 236.91 108">
  <!-- Generator: Adobe Illustrator 30.2.1, SVG Export Plug-In . SVG Version: 2.1.1 Build 1)  -->
  <path d="M49.45,21.1c-2.56,3.03-6.65,5.41-10.74,5.07-.51-4.09,1.49-8.44,3.84-11.12,2.56-3.11,7.03-5.33,10.66-5.5.43,4.26-1.24,8.44-3.75,11.55M53.15,26.98c-5.92-.34-11,3.37-13.81,3.37s-7.16-3.2-11.85-3.11c-6.1.09-11.76,3.54-14.88,9.04-6.39,11-1.66,27.28,4.52,36.23,3.03,4.43,6.65,9.29,11.42,9.12,4.52-.17,6.31-2.94,11.76-2.94s7.08,2.94,11.85,2.86c4.94-.09,8.06-4.43,11.08-8.87,3.45-5.03,4.86-9.93,4.94-10.19-.09-.09-9.55-3.71-9.63-14.62-.09-9.12,7.46-13.47,7.8-13.72-4.26-6.31-10.91-6.99-13.21-7.16M87.38,14.62v66.45h10.31v-22.72h14.28c13.04,0,22.21-8.95,22.21-21.91s-8.99-21.82-21.87-21.82h-24.93ZM97.7,23.32h11.89c8.95,0,14.07,4.77,14.07,13.17s-5.11,13.21-14.11,13.21h-11.85v-26.38ZM153.02,81.58c6.48,0,12.49-3.28,15.22-8.48h.21v7.97h9.55v-33.08c0-9.59-7.67-15.77-19.48-15.77-10.95,0-19.05,6.27-19.35,14.88h9.29c.77-4.09,4.56-6.78,9.76-6.78,6.31,0,9.85,2.94,9.85,8.35v3.67l-12.87.77c-11.98.72-18.46,5.63-18.46,14.15s6.69,14.32,16.28,14.32ZM155.79,73.7c-5.5,0-8.99-2.64-8.99-6.69s3.37-6.61,9.8-6.99l11.47-.72v3.75c0,6.22-5.29,10.66-12.28,10.66ZM190.74,99.14c10.06,0,14.79-3.84,18.92-15.47l18.11-50.81h-10.49l-12.15,39.26h-.21l-12.15-39.26h-10.78l17.48,48.38-.94,2.94c-1.58,4.99-4.13,6.9-8.7,6.9-.81,0-2.39-.09-3.03-.17v7.97c.6.17,3.15.26,3.92.26Z"/>
</svg>