<?xml version="1.0" encoding="UTF-8"?>
<svg id="Vrstva_1" xmlns="http://www.w3.org/2000/svg" version="1.1" viewBox="0 0 283.46 283.46">
  <!-- Generator: Adobe Illustrator 30.1.0, SVG Export Plug-In . SVG Version: 2.1.1 Build 136)  -->
  <defs>
    <style>
      .st0 {
        stroke: #4f266a;
      }

      .st0, .st1 {
        fill: none;
        stroke-linecap: round;
        stroke-linejoin: round;
        stroke-width: 3px;
      }

      .st2 {
        fill: #ffd241;
      }

      .st1 {
        stroke: #ffd241;
      }
    </style>
  </defs>
  <path class="st2" d="M187.84,199.78v1.68c.05.99.04,1.61,0,1.9v7.28c0,6.06-3.75,11.25-9.06,13.36-1.65.66-3.44,1.02-5.32,1.02h-45.87c-1.88,0-3.67-.36-5.31-1.02-5.31-2.11-9.06-7.3-9.06-13.36v-7.21c-.07-.28-.07-1,0-2.27v-1.22c-.64-13.09-20.59-43.21-20.59-43.21l.03.02c-7.49-11.11-11.87-24.48-11.87-38.88,0-38.36,30.97-69.49,69.28-69.74,37.87-.25,68.72,29.21,70.15,67.06.58,15.43-3.88,29.77-11.83,41.57-.45.67-19.77,30-20.55,43.02Z"/>
  <path class="st0" d="M179.22,207.49v1.68c.05.99.04,1.61,0,1.9v7.28c0,6.06-3.75,11.25-9.06,13.36-1.65.66-3.44,1.02-5.32,1.02h-45.87c-1.88,0-3.67-.36-5.31-1.02-5.31-2.11-9.06-7.3-9.06-13.36v-7.21c-.07-.28-.07-1,0-2.27v-1.22c-.64-13.09-20.59-43.21-20.59-43.21l.03.02c-7.49-11.11-11.87-24.48-11.87-38.88,0-38.36,30.97-69.49,69.28-69.74,37.87-.25,68.72,29.21,70.15,67.06.58,15.43-3.88,29.77-11.83,41.57-.45.67-19.77,30-20.55,43.02Z"/>
  <path class="st0" d="M170.16,231.71v29.87c0,7-5.67,12.67-12.67,12.67h-31.16c-7,0-12.67-5.67-12.67-12.67v-29.87c1.64.66,3.43,1.02,5.31,1.02h45.87c1.88,0,3.67-.36,5.32-1.02Z"/>
  <path class="st0" d="M88.15,128.28c0-29.69,24.07-53.76,53.76-53.76"/>
  <line class="st1" x1="141.91" y1="36.23" x2="141.91" y2="9.97"/>
  <line class="st1" x1="76.82" y1="63.18" x2="58.25" y2="44.62"/>
  <line class="st1" x1="207" y1="63.18" x2="225.57" y2="44.62"/>
  <line class="st1" x1="207" y1="193.37" x2="225.57" y2="211.94"/>
  <line class="st1" x1="76.82" y1="193.37" x2="58.25" y2="211.94"/>
  <line class="st1" x1="49.87" y1="128.28" x2="23.61" y2="128.28"/>
  <line class="st1" x1="260.21" y1="128.28" x2="233.95" y2="128.28"/>
</svg>