<?xml version="1.0" encoding="UTF-8"?>
<svg id="Vrstva_1" xmlns="http://www.w3.org/2000/svg" version="1.1" viewBox="0 0 283.46 283.46">
  <!-- Generator: Adobe Illustrator 30.1.0, SVG Export Plug-In . SVG Version: 2.1.1 Build 136)  -->
  <defs>
    <style>
      .st0, .st1 {
        fill: #ffd241;
      }

      .st2 {
        fill: #4f266a;
      }

      .st3 {
        fill: #fff;
      }

      .st1, .st4 {
        stroke: #fff;
        stroke-linecap: round;
        stroke-linejoin: round;
        stroke-width: 5px;
      }

      .st4 {
        fill: none;
      }
    </style>
  </defs>
  <rect class="st2" y="0" width="283.46" height="283.46"/>
  <rect class="st0" x="-256.37" y="54.2" width="145.55" height="97.75" rx="9.86" ry="9.86"/>
  <rect class="st4" x="-262.39" y="49.18" width="145.55" height="97.75" rx="9.86" ry="9.86"/>
  <path class="st4" d="M-258.97,52.28l63.79,54.32c3.16,2.69,7.8,2.69,10.96,0l63.73-54.14"/>
  <line class="st4" x1="-258.97" y1="143.91" x2="-203.54" y2="99.47"/>
  <line class="st4" x1="-175.82" y1="99.47" x2="-120.26" y2="143.91"/>
  <circle class="st0" cx="-117.43" cy="201.98" r="38.12"/>
  <circle class="st4" cx="-124.71" cy="201.58" r="38.12"/>
  <g>
    <path class="st2" d="M-136.96,192.23v20.87h-5.44v-20.87h5.44ZM-123.46,192.23l-9.8,11.73-.35-.82-4.96,6.04-1.04-4.39,10.12-12.55h6.04,0ZM-131.49,199.12l8.41,13.97h-6.16l-6.32-10.94,4.08-3.04h0Z"/>
    <path class="st2" d="M-114.67,196.97c1.6,0,2.93.23,4,.68,1.06.45,1.9,1.05,2.5,1.8s.98,1.55,1.12,2.42l-4.96,1.64c-.15-.9-.42-1.58-.81-2.04-.39-.45-.95-.68-1.69-.68-.67,0-1.24.15-1.69.46-.45.31-.79.79-1.03,1.45s-.35,1.51-.35,2.55.13,1.87.38,2.51.61,1.11,1.07,1.39,1.01.43,1.65.43c.52,0,.97-.1,1.31-.3.35-.2.64-.49.87-.87.23-.38.38-.84.44-1.39l4.84,1.55c-.15.93-.54,1.76-1.19,2.48s-1.49,1.3-2.55,1.72c-1.05.42-2.29.64-3.7.64-1.73,0-3.24-.32-4.52-.97-1.28-.64-2.28-1.58-2.97-2.81-.7-1.23-1.04-2.71-1.04-4.44s.35-3.21,1.04-4.44,1.67-2.17,2.93-2.81,2.7-.97,4.35-.97h0ZM-108.82,189.76l-3.44,5.47h-5.22l-3.44-5.47h3.89l2.15,2.81,2.18-2.81h3.89,0Z"/>
  </g>
  <g>
    <path class="st4" d="M-220.41,160.55c-2.23,10.88-5.55,46.2,44.71,47.66"/>
    <polygon class="st3" points="-233.83 168.49 -231.98 170.86 -220.33 161.74 -212.09 174.03 -209.6 172.36 -219.63 157.39 -233.83 168.49"/>
    <polygon class="st3" points="-186.25 219.82 -188.18 217.52 -176.84 208.03 -187.13 197.41 -184.98 195.32 -172.44 208.26 -186.25 219.82"/>
  </g>
  <rect class="st0" x="47.47" y="82.03" width="214.31" height="139.82" rx="11.81" ry="11.81"/>
  <rect class="st4" x="34.58" y="71.82" width="214.31" height="139.82" rx="11.81" ry="11.81"/>
  <path class="st4" d="M34.58,99.47c0-.48,214.31,0,214.31,0"/>
  <path class="st4" d="M34.58,121.79c0-.48,214.31,0,214.31,0"/>
  <rect class="st4" x="180.85" y="170.99" width="51.67" height="29.71"/>
  <circle class="st4" cx="77.15" cy="185.85" r="14.4"/>
  <circle class="st1" cx="65.92" cy="185.85" r="14.4"/>
</svg>