<?xml version="1.0" encoding="UTF-8"?>
<svg id="Vrstva_1" xmlns="http://www.w3.org/2000/svg" version="1.1" viewBox="0 0 283.46 283.46">
  <!-- Generator: Adobe Illustrator 30.1.0, SVG Export Plug-In . SVG Version: 2.1.1 Build 136)  -->
  <defs>
    <style>
      .st0 {
        fill: #ffd241;
      }

      .st1 {
        fill: none;
        stroke: #4f266a;
        stroke-linecap: round;
        stroke-linejoin: round;
        stroke-width: 3px;
      }
    </style>
  </defs>
  <g>
    <polyline class="st1" points="257.36 104.45 257.36 257.19 24 257.19 24 23.83 176.41 23.83"/>
    <polygon class="st1" points="176.84 24.01 257.28 104.45 177 104.45 176.84 24.01"/>
  </g>
  <g>
    <path class="st0" d="M112.68,168.28c0,29.24,15.7,54.81,39.12,68.76,23.42-13.95,39.12-39.52,39.12-68.76s-15.7-54.81-39.12-68.76c-23.42,13.95-39.12,39.52-39.12,68.76Z"/>
    <path class="st1" d="M101.47,168.28c0,29.24,15.7,54.81,39.12,68.76,23.42-13.95,39.12-39.52,39.12-68.76s-15.7-54.81-39.12-68.76c-23.42,13.95-39.12,39.52-39.12,68.76Z"/>
    <line class="st1" x1="140.59" y1="119.99" x2="140.59" y2="256.89"/>
    <polyline class="st1" points="122.8 129.89 140.59 153.1 158.38 129.89"/>
    <polyline class="st1" points="122.8 198.75 140.59 224.69 158.38 198.75"/>
    <polyline class="st1" points="112.35 160.4 140.59 193.35 168.84 160.4"/>
  </g>
</svg>