<?xml version="1.0" encoding="UTF-8"?>
<svg id="Layer_1" xmlns="http://www.w3.org/2000/svg" version="1.1" viewBox="0 0 249.99 108">
  <!-- Generator: Adobe Illustrator 30.2.1, SVG Export Plug-In . SVG Version: 2.1.1 Build 1)  -->
  <defs>
    <style>
      .st0 {
        fill: #4285f4;
      }

      .st1 {
        fill: #34a853;
      }

      .st2 {
        fill: #fbbc04;
      }

      .st3 {
        fill: #ea4335;
      }

      .st4 {
        fill: #5f6368;
      }
    </style>
  </defs>
  <path class="st4" d="M119.81,53.63v25.8h-8.32V15.62h21.64c5.27,0,10.27,1.94,14.15,5.55,3.88,3.33,5.83,8.32,5.83,13.59s-1.94,9.99-5.83,13.59c-3.88,3.61-8.6,5.55-14.15,5.55l-13.32-.28h0ZM119.81,23.39v22.2h13.87c3.05,0,6.1-1.11,8.05-3.33,4.44-4.16,4.44-11.1.28-15.26l-.28-.28c-2.22-2.22-4.99-3.61-8.05-3.33h-13.87Z"/>
  <path class="st4" d="M172.24,34.49c6.1,0,10.82,1.66,14.43,4.99s5.27,7.77,5.27,13.32v26.63h-7.77v-6.1h-.28c-3.33,4.99-8.05,7.49-13.59,7.49-4.72,0-8.88-1.39-12.21-4.16-3.05-2.77-4.99-6.66-4.99-10.82,0-4.44,1.66-8.05,4.99-10.82s8.05-3.88,13.59-3.88c4.99,0,8.88.83,11.93,2.77v-1.94c0-2.77-1.11-5.55-3.33-7.21-2.22-1.94-4.99-3.05-8.05-3.05-4.72,0-8.32,1.94-10.82,5.83l-7.21-4.44c4.44-5.83,10.27-8.6,18.03-8.6ZM161.7,66.11c0,2.22,1.11,4.16,2.77,5.27,1.94,1.39,4.16,2.22,6.38,2.22,3.33,0,6.66-1.39,9.16-3.88,2.77-2.5,4.16-5.55,4.16-8.88-2.5-1.94-6.1-3.05-10.82-3.05-3.33,0-6.1.83-8.32,2.5-2.22,1.39-3.33,3.33-3.33,5.83Z"/>
  <path class="st4" d="M236.89,35.87l-27.47,62.98h-8.32l10.27-21.92-18.03-40.78h8.88l13.04,31.35h.28l12.76-31.35h8.6v-.28Z"/>
  <path class="st0" d="M86.79,48.08c0-2.5-.28-4.99-.55-7.49h-34.68v14.15h19.7c-.83,4.44-3.33,8.6-7.21,11.1v9.16h11.93c6.94-6.38,10.82-15.81,10.82-26.91Z"/>
  <path class="st1" d="M51.56,83.87c9.99,0,18.31-3.33,24.41-8.88l-11.93-9.16c-3.33,2.22-7.49,3.61-12.48,3.61-9.43,0-17.76-6.38-20.53-15.26h-12.21v9.43c6.38,12.48,18.87,20.25,32.74,20.25Z"/>
  <path class="st2" d="M31.02,54.18c-1.66-4.44-1.66-9.43,0-14.15v-9.43h-12.21c-5.27,10.27-5.27,22.47,0,33.02l12.21-9.43Z"/>
  <path class="st3" d="M51.56,25.05c5.27,0,10.27,1.94,14.15,5.55h0l10.54-10.54c-6.66-6.1-15.54-9.71-24.41-9.43-13.87,0-26.63,7.77-32.74,20.25l12.21,9.43c2.5-8.88,10.82-15.26,20.25-15.26Z"/>
</svg>