<?xml version="1.0" encoding="UTF-8"?>
<svg id="Vrstva_1" xmlns="http://www.w3.org/2000/svg" version="1.1" viewBox="0 0 283.46 283.46">
  <!-- Generator: Adobe Illustrator 30.1.0, SVG Export Plug-In . SVG Version: 2.1.1 Build 136)  -->
  <defs>
    <style>
      .st0 {
        fill: #fff;
      }

      .st1 {
        fill: none;
        stroke: #4f266a;
        stroke-linecap: round;
        stroke-linejoin: round;
        stroke-width: 3px;
      }
    </style>
  </defs>
  <path class="st0" d="M213.99,171.94h0c-9.35-9.35-24.51-9.35-33.86,0l-19.3,19.3-19.3-19.3c-9.35-9.35-24.51-9.35-33.86,0h0c-9.35,9.35-9.35,24.51,0,33.86l19.3,19.3h-.01s33.86,33.88,33.86,33.88h.01s.01,0,.01,0l33.86-33.86h-.01s19.3-19.32,19.3-19.32c9.35-9.35,9.35-24.51,0-33.86Z"/>
  <polyline class="st1" points="-223.05 196.52 -187.54 212.47 -311 272.63 -434.46 212.47 -398.95 196.52"/>
  <polyline class="st1" points="-398.95 163.27 -434.46 179.22 -398.95 196.52 -311 239.38 -223.05 196.52 -187.54 179.22 -223.05 163.27"/>
  <polyline class="st1" points="-398.95 130.02 -434.46 145.97 -398.95 163.27 -363.44 180.58 -311 206.13 -258.56 180.58 -223.05 163.27 -187.54 145.97 -223.05 130.02"/>
  <polyline class="st1" points="-223.05 96.77 -187.54 112.72 -223.05 130.02 -311 172.88 -398.95 130.02 -434.46 112.72 -398.95 96.77"/>
  <polygon class="st1" points="-311 139.63 -434.46 79.47 -311 24.02 -187.54 79.47 -311 139.63"/>
  <polygon class="st0" points="-310.41 131.53 -417.46 79.36 -310.41 31.28 -203.36 79.36 -310.41 131.53"/>
  <path class="st1" d="M219.12,53.17h0c-7.99,0-14.47,6.48-14.47,14.47v77.1c0,2.46-1.99,4.45-4.45,4.45h0c-2.46,0-4.45-1.99-4.45-4.45V39.71c0-7.43-5.44-13.94-12.82-14.76-8.73-.96-16.11,5.84-16.11,14.38v105.41c0,2.46-1.99,4.45-4.45,4.45h0c-2.46,0-4.45-1.99-4.45-4.45V24.98c0-7.43-5.44-13.94-12.82-14.76-8.73-.96-16.11,5.84-16.11,14.38v120.05c0,2.5-2.03,4.53-4.53,4.53h0c-2.44,0-4.44-1.93-4.52-4.36l-3.64-100.63c-.21-5.83-5.16-10.66-10.98-10.54-7.84.17-14.15,6.58-14.15,14.46v118.19l-17.83-36.68c-4.68-9.63-14.71-11.31-22.28-3.74l-1.19,1.19c-3.68,3.68-4.83,10.52-2.55,15.21l47.91,98.55c8.43,21.17,29.09,36.13,53.25,36.13h27.69c31.65,0,57.31-25.66,57.31-57.31v-44.16c.06-.55.1-1.1.1-1.66v-106.19c0-7.99-6.48-14.47-14.47-14.47Z"/>
  <path class="st1" d="M91.17,166.3s4.59,9.91,33.13,21.33c28.54,11.42,35.2,49.47,35.2,49.47"/>
</svg>