<?xml version="1.0" encoding="UTF-8"?>
<svg id="Vrstva_1" xmlns="http://www.w3.org/2000/svg" version="1.1" viewBox="0 0 283.46 283.46">
  <!-- Generator: Adobe Illustrator 30.1.0, SVG Export Plug-In . SVG Version: 2.1.1 Build 136)  -->
  <defs>
    <style>
      .st0 {
        fill: #ffd241;
      }

      .st1 {
        fill: #4f266a;
      }

      .st2 {
        fill: none;
        stroke: #fff;
        stroke-linecap: round;
        stroke-linejoin: round;
        stroke-width: 5px;
      }
    </style>
  </defs>
  <rect class="st1" width="283.46" height="283.46"/>
  <polygon class="st2" points="234.84 120.82 141.67 28.28 48.51 120.82 66.34 120.82 66.34 226.27 217.01 226.27 217.01 120.82 234.84 120.82"/>
  <path class="st0" d="M519.91,95.86c-9.13.07-17.39,3.79-23.39,9.79-6.05,6.05-9.79,14.41-9.79,23.64,0-9.23-3.74-17.59-9.79-23.64-6-5.99-14.26-9.72-23.39-9.79-18.53-.14-33.69,15.49-33.69,34.02h0c0,16.42,6.99,32.06,19.22,43l47.64,42.63,47.64-42.63c12.24-10.95,19.22-26.59,19.22-43h0c0-18.53-15.16-34.16-33.69-34.02h.01Z"/>
  <path class="st0" d="M170.08,101.41c-7.81.06-14.88,3.25-20.02,8.38-5.18,5.18-8.38,12.33-8.38,20.24,0-7.9-3.2-15.06-8.38-20.24-5.14-5.13-12.21-8.32-20.02-8.38-15.86-.12-28.84,13.26-28.84,29.13h0c0,14.05,5.99,27.44,16.46,36.81l40.78,36.49,40.78-36.49c10.47-9.37,16.46-22.76,16.46-36.81h0c0-15.86-12.98-29.24-28.84-29.13h0,0Z"/>
</svg>