<?xml version="1.0" encoding="UTF-8"?>
<svg id="Vrstva_1" xmlns="http://www.w3.org/2000/svg" version="1.1" viewBox="0 0 283.46 283.46">
  <!-- Generator: Adobe Illustrator 30.1.0, SVG Export Plug-In . SVG Version: 2.1.1 Build 136)  -->
  <defs>
    <style>
      .st0 {
        fill: #ffd241;
      }

      .st1 {
        fill: #4f266a;
      }

      .st2 {
        fill: #fff;
      }

      .st3 {
        fill: none;
        stroke: #fff;
        stroke-linecap: round;
        stroke-linejoin: round;
        stroke-width: 5px;
      }
    </style>
  </defs>
  <rect class="st1" y="0" width="283.46" height="283.46"/>
  <g>
    <g>
      <path class="st3" d="M250.48,120.98c-9.43-52.16-55.06-91.73-109.94-91.73S43.15,66.15,31.68,115.66"/>
      <polygon class="st2" points="16.54 94.43 20.96 92.09 32.49 113.88 53.39 100.79 56.04 105.04 30.59 120.97 16.54 94.43"/>
    </g>
    <g>
      <path class="st3" d="M30.59,160.98c9.43,52.16,55.06,91.73,109.94,91.73s97.38-36.9,108.85-86.42"/>
      <polygon class="st2" points="264.52 187.52 260.1 189.86 248.58 168.07 227.68 181.16 225.03 176.91 250.48 160.98 264.52 187.52"/>
    </g>
  </g>
  <circle class="st0" cx="151.54" cy="141.81" r="79.23"/>
  <circle class="st3" cx="140.53" cy="140.98" r="79.23"/>
  <g>
    <path class="st1" d="M115.07,121.53v43.37h-11.3v-43.37h11.3ZM143.13,121.53l-20.37,24.38-.72-1.71-10.31,12.55-2.17-9.13,21.03-26.09h12.55-.01ZM126.44,135.85l17.48,29.04h-12.81l-13.14-22.73,8.48-6.31h0Z"/>
    <path class="st1" d="M161.4,131.38c3.33,0,6.1.47,8.31,1.41,2.21.94,3.94,2.19,5.19,3.74,1.25,1.56,2.03,3.23,2.33,5.03l-10.31,3.41c-.31-1.88-.87-3.29-1.68-4.24-.81-.94-1.98-1.41-3.51-1.41-1.4,0-2.57.32-3.52.95-.94.64-1.65,1.64-2.14,3.02s-.72,3.14-.72,5.29.26,3.89.79,5.22c.52,1.34,1.27,2.3,2.23,2.89s2.1.89,3.42.89c1.09,0,2.01-.21,2.73-.62.72-.42,1.32-1.02,1.81-1.81.48-.79.79-1.75.92-2.89l10.05,3.22c-.31,1.93-1.13,3.65-2.47,5.16s-3.1,2.71-5.29,3.58c-2.19.88-4.75,1.32-7.69,1.32-3.59,0-6.73-.67-9.4-2.01-2.67-1.33-4.73-3.29-6.18-5.85-1.45-2.56-2.17-5.64-2.17-9.23s.72-6.67,2.17-9.23,3.47-4.51,6.08-5.85,5.62-2.01,9.04-2.01v.02h0ZM173.55,116.4l-7.16,11.37h-10.84l-7.16-11.37h8.08l4.47,5.85,4.53-5.85h8.08Z"/>
  </g>
</svg>