<?xml version="1.0" encoding="UTF-8"?>
<svg id="Vrstva_1" xmlns="http://www.w3.org/2000/svg" version="1.1" viewBox="0 0 283.46 283.46">
  <!-- Generator: Adobe Illustrator 30.1.0, SVG Export Plug-In . SVG Version: 2.1.1 Build 136)  -->
  <defs>
    <style>
      .st0 {
        fill: #fff;
      }

      .st1 {
        fill: none;
        stroke: #4f266a;
        stroke-linecap: round;
        stroke-linejoin: round;
        stroke-width: 3px;
      }
    </style>
  </defs>
  <polyline class="st1" points="229.95 196.52 265.46 212.47 142 272.63 18.54 212.47 54.05 196.52"/>
  <polyline class="st1" points="54.05 163.27 18.54 179.22 54.05 196.52 142 239.38 229.95 196.52 265.46 179.22 229.95 163.27"/>
  <polyline class="st1" points="54.05 130.02 18.54 145.97 54.05 163.27 89.56 180.58 142 206.13 194.44 180.58 229.95 163.27 265.46 145.97 229.95 130.02"/>
  <polyline class="st1" points="229.95 96.77 265.46 112.72 229.95 130.02 142 172.88 54.05 130.02 18.54 112.72 54.05 96.77"/>
  <polygon class="st1" points="142 139.63 18.54 79.47 142 24.02 265.46 79.47 142 139.63"/>
  <polygon class="st0" points="142.59 131.53 35.54 79.36 142.59 31.28 249.64 79.36 142.59 131.53"/>
</svg>