<?xml version="1.0" encoding="UTF-8"?>
<svg id="Vrstva_1" xmlns="http://www.w3.org/2000/svg" version="1.1" viewBox="0 0 283.46 283.46">
  <!-- Generator: Adobe Illustrator 30.1.0, SVG Export Plug-In . SVG Version: 2.1.1 Build 136)  -->
  <defs>
    <style>
      .st0 {
        stroke: #4f266a;
      }

      .st0, .st1 {
        fill: none;
        stroke-linecap: round;
        stroke-linejoin: round;
        stroke-width: 3px;
      }

      .st2 {
        fill: #ffd241;
      }

      .st1 {
        stroke: #ffd241;
      }
    </style>
  </defs>
  <path class="st1" d="M22.32,249.2s20.07,30.91,80.37,22.29c60.3-8.61,130.53-15.97,166.97-3.68"/>
  <path class="st2" d="M243.55,84.37L103.54,224.38l-2.5,2.5-10.36,10.36-.03.27-2.93,3c-.45-.36-.72-.93-.64-1.54l2.93-24.26-24.25,2.95c-.52.06-1.02-.11-1.39-.48-.37-.36-.54-.88-.48-1.39l2.92-24.17-25.42,4.08c-.52.08-1.02-.08-1.39-.4l11.19-11.31,5.98-5.98L196.81,38.33l.35-.35,11.59,11.6,23.19,23.19,11.6,11.6Z"/>
  <path class="st2" d="M60.16,247.44c-.06.22-.17.44-.33.62-.13.16-.29.29-.47.39-.15.08-.3.13-.45.17l-30.45,7.28c-.13.03-.26.04-.39.04-.44,0-.87-.17-1.18-.48-.42-.42-.6-1-.46-1.57l6.88-30.85c.03-.17.09-.34.18-.48.1-.18.22-.33.37-.46.19-.16.4-.27.63-.34.22-.07.46-.09.71-.06.2.03.39.1.57.2.16.08.28.18.4.3l23.54,23.55c.12.11.22.25.3.39.1.18.17.37.19.57.03.25.02.48-.04.71Z"/>
  <polygon class="st0" points="86.48 208.23 60.09 211.43 63.29 185.04 203.29 45.04 226.49 68.23 86.48 208.23"/>
  <polygon class="st0" points="63.29 185.04 35.66 189.48 51.69 173.45 191.7 33.44 203.29 45.04 63.29 185.04"/>
  <polygon class="st0" points="98.08 219.83 83.28 234.62 86.48 208.23 226.49 68.23 238.08 79.82 98.08 219.83"/>
  <polyline class="st0" points="35.66 189.48 22.32 249.2 83.28 234.62"/>
  <line class="st0" x1="29.61" y1="218.72" x2="52.8" y2="241.91"/>
  <path class="st0" d="M205.19,25.6h44.71c5.76,0,10.44,4.68,10.44,10.44v26.32h-65.6v-26.32c0-5.76,4.68-10.44,10.44-10.44Z" transform="translate(97.74 -148.02) rotate(45)"/>
</svg>