<?xml version="1.0" encoding="UTF-8"?>
<svg id="Vrstva_1" xmlns="http://www.w3.org/2000/svg" version="1.1" viewBox="0 0 283.46 283.46">
  <!-- Generator: Adobe Illustrator 30.1.0, SVG Export Plug-In . SVG Version: 2.1.1 Build 136)  -->
  <defs>
    <style>
      .st0 {
        fill: #ffd241;
      }

      .st1 {
        stroke: #ffd241;
      }

      .st1, .st2 {
        fill: none;
        stroke-linecap: round;
        stroke-linejoin: round;
        stroke-width: 3px;
      }

      .st2 {
        stroke: #4f266a;
      }
    </style>
  </defs>
  <polygon class="st0" points="137.73 13 166.94 102.92 261.49 102.92 185 158.49 214.22 248.4 137.73 192.83 61.24 248.4 90.46 158.49 13.97 102.92 108.52 102.92 137.73 13"/>
  <polygon class="st2" points="146.79 19.03 176 108.95 270.54 108.95 194.06 164.51 223.27 254.43 146.79 198.86 70.3 254.43 99.51 164.51 23.03 108.95 117.57 108.95 146.79 19.03"/>
  <line class="st1" x1="45" y1="30.83" x2="91" y2="81.21"/>
  <line class="st1" x1="236" y1="30.83" x2="190" y2="81.21"/>
  <line class="st1" x1="68" y1="165.83" x2="13.97" y2="187.83"/>
  <line class="st1" x1="216.52" y1="165.83" x2="270.54" y2="187.83"/>
  <line class="st1" x1="146.79" y1="218.83" x2="146.79" y2="272.46"/>
</svg>