<?xml version="1.0" encoding="UTF-8"?>
<svg id="Layer_1" xmlns="http://www.w3.org/2000/svg" version="1.1" viewBox="0 0 249.99 108">
  <!-- Generator: Adobe Illustrator 30.2.1, SVG Export Plug-In . SVG Version: 2.1.1 Build 1)  -->
  <defs>
    <style>
      .st0 {
        fill: #1434cb;
      }
    </style>
  </defs>
  <path class="st0" d="M97.72,18.69l-29.68,70.8h-19.36l-14.6-56.51c-.89-3.48-1.66-4.76-4.35-6.22-4.4-2.39-11.67-4.63-18.07-6.02l.43-2.06h31.17c3.97,0,7.54,2.64,8.45,7.22l7.71,40.97,19.06-48.19h19.24ZM173.58,66.38c.08-18.69-25.84-19.72-25.66-28.06.06-2.54,2.47-5.24,7.77-5.93,2.62-.34,9.86-.61,18.06,3.17l3.22-15.01c-4.41-1.6-10.08-3.14-17.13-3.14-18.1,0-30.85,9.62-30.95,23.41-.12,10.19,9.09,15.88,16.03,19.27,7.14,3.47,9.53,5.7,9.51,8.8-.05,4.75-5.69,6.85-10.97,6.93-9.21.14-14.55-2.49-18.81-4.47l-3.32,15.51c4.28,1.96,12.18,3.68,20.37,3.76,19.24,0,31.83-9.5,31.89-24.22M221.39,89.5h16.94l-14.79-70.8h-15.64c-3.52,0-6.48,2.05-7.79,5.19l-27.49,65.61h19.23l3.82-10.58h23.5l2.21,10.58ZM200.95,64.41l9.64-26.58,5.55,26.58h-15.19ZM123.89,18.69l-15.15,70.8h-18.32l15.15-70.8h18.31Z"/>
</svg>