<?xml version="1.0" encoding="UTF-8"?>
<svg id="Vrstva_1" xmlns="http://www.w3.org/2000/svg" version="1.1" viewBox="0 0 1100 1800">
  <!-- Generator: Adobe Illustrator 30.1.0, SVG Export Plug-In . SVG Version: 2.1.1 Build 136)  -->
  <defs>
    <style>
      .st0 {
        fill: #ccb3d1;
      }

      .st1 {
        fill: #4f266a;
      }

      .st2 {
        fill: #d3bdd8;
      }
    </style>
  </defs>
  <rect class="st2" x="-20.87" y="-16.47" width="1148.61" height="1849.97"/>
  <rect class="st1" x="2001.73" y="2512.93" width="350.58" height="42.43" rx="21.22" ry="21.22"/>
  <rect class="st1" x="1804.71" y="2555.36" width="350.58" height="42.43" rx="21.22" ry="21.22"/>
  <rect class="st2" x="2122.33" y="2555.36" width="350.58" height="42.43" rx="21.22" ry="21.22"/>
  <rect class="st1" x="1804.71" y="2640.23" width="350.58" height="42.43" rx="21.22" ry="21.22"/>
  <rect class="st2" x="2122.33" y="2640.23" width="350.58" height="42.43" rx="21.22" ry="21.22"/>
  <rect class="st1" x="1915.92" y="2682.66" width="317.71" height="42.43" rx="21.22" ry="21.22"/>
  <rect class="st1" x="1966.8" y="2597.8" width="424.91" height="42.43" rx="21.22" ry="21.22"/>
  <rect class="st2" x="1576.82" y="2597.8" width="424.91" height="42.43" rx="21.22" ry="21.22"/>
  <path class="st0" d="M500.91-63.91s-74.54,152.47,145.69,162.63,84.71,3.39,274.45,115.2,315.11,88.09,315.11,88.09V-91.01l-735.25,27.11Z"/>
  <path class="st0" d="M-24.26,106.55c81.32,9.11,179.58,49.77,186.35,137.87s105.04,54.21,84.71,182.96,3.39,189.74-172.8,206.68-220.23,0-220.23,0L-24.26,106.55Z"/>
  <path class="st0" d="M656.77,515.48s118.59-88.09,243.95,0,318.49,77.93,318.49,77.93l16.94,277.83s-542.12-33.88-701.36-77.93c-159.25-44.05-108.42-138.92-27.11-179.58s149.08-98.26,149.08-98.26Z"/>
  <path class="st0" d="M-27.65,779.76c44.05,6.78,223.62-27.11,247.34,169.41s203.29,57.6,237.18,230.4-531.95,254.12-535.34,230.4S-27.65,779.76-27.65,779.76Z"/>
  <path class="st0" d="M619.5,1321.88c-11.25-16.24-71.15-179.58,186.35-159.25s389.65,199.91,389.65,199.91c0,0-362.54,267.67-576-40.66Z"/>
  <path class="st0" d="M0,1542.11s-24.26,40.66,402.65,108.42,674.26-260.89,792.85-88.09,74.54,304.94,74.54,304.94l-1395.95,54.21L0,1542.11Z"/>
  <path class="st0" d="M33.34-16.47s118.59,142.31,260.89,94.87S430.81-60.52,430.81-60.52L33.34-16.47Z"/>
  <circle class="st0" cx="640.24" cy="358.38" r="90.24"/>
  <circle class="st0" cx="273.53" cy="1462.8" r="48.8"/>
</svg>