<?xml version="1.0" encoding="UTF-8"?>
<svg id="Vrstva_1" xmlns="http://www.w3.org/2000/svg" version="1.1" viewBox="0 0 283.46 283.46">
  <!-- Generator: Adobe Illustrator 30.1.0, SVG Export Plug-In . SVG Version: 2.1.1 Build 136)  -->
  <defs>
    <style>
      .st0 {
        fill: #962723;
      }

      .st1 {
        fill: #d1b79c;
      }

      .st2 {
        fill: #bca17e;
      }

      .st3 {
        fill: #af936a;
      }

      .st4 {
        fill: #821c11;
      }
    </style>
  </defs>
  <path class="st3" d="M123.54,253.39s17.84,7.46,33.73,2.27c15.89-5.19,25.3-21.73,27.57-26.59,2.27-4.86,2.27-6.16,2.27-6.16,0,0,13.62,7.46,27.24,4.54,13.62-2.92,30.49-13.62,33.4-28.86,2.92-15.24-2.27-29.51-4.54-35.03-2.27-5.51-2.92-10.05.32-11.03s26.92-9.08,25.62-29.84c-1.3-20.76-11.35-33.73-25.3-39.57s-20.11-5.51-21.08-8.11,2.59-36.65-19.78-43.46c-22.38-6.81-43.78.97-43.78.97l-11.03,11.35s-14.92-14.59-31.46-15.89c-16.54-1.3-44.76,122.92-44.76,122.92l51.57,102.48Z"/>
  <path class="st4" d="M135.41,256.64s10.02.76,17.92-2.73,15.33-9.87,18.37-15.64,1.67-7.44,2.58-8.81,2.58-3.95,2.43-7.14-1.97-6.68-1.97-6.68l-7.14-2.28-32.19,43.27Z"/>
  <path class="st4" d="M203.28,227.34s17-1.67,25.35-8.5c8.35-6.83,15.18-15.79,16.25-24.75,1.06-8.96-.91-19.28-3.8-23.38-2.88-4.1-9.11-9.87-7.59-12.3s10.32-7.89,12.9-10.48c2.58-2.58,10.02-8.5,10.32-28.85.3-20.34-14.27-28.24-21.71-31.88-7.44-3.64-15.64-4.25-16.09-5.77s2.58-46-24.9-49.95l9.26,195.85Z"/>
  <path class="st4" d="M130.86,34.98s13.36,8.05,14.73,9.11-11.99-10.78-17-10.78,2.28,1.67,2.28,1.67Z"/>
  <path class="st2" d="M175.11,219.67s-3.79,24.68-19.36,31.82c-15.57,7.13-24.43,5.48-32.21,1.91-7.78-3.57-22.75-32.28-22.75-32.28,0,0-20.12,5.09-33.1,1.52-12.97-3.57,40.93-194.96,40.93-194.96,0,0,13.95,2.27,23.67,7.78s13.95,8.76,13.95,8.76l40.21-15.24s17.19,2.92,24.97,20.76,3.89,33.4,3.89,33.4c0,0,28.22,3.57,36.32,22.05,8.11,18.49,1.3,37.94-9.73,44.76-11.03,6.81-15.57,7.13-13.3,11.03s16.54,13.3,13.62,34.38c-2.92,21.08-26.92,32.11-41.84,32.11s-25.3-7.78-25.3-7.78Z"/>
  <path class="st1" d="M70.68,77.62s-10.05-40.86,23.03-49.62,48.32,19.46,48.32,19.46c0,0,8.76-20.76,38.27-20.76s29.84,45.4,27.57,56.43c0,0,32.11,4.86,38.59,19.13,6.49,14.27,6.16,35.67-9.41,46.05l-15.57,10.38s30.81,31.13,6.81,55.13-56.11,2.59-56.11,2.59c0,0-6.49,39.89-42.49,39.89s-29.51-39.24-29.51-39.24c0,0-24.97,14.92-50.59-1.95-25.62-16.86-6.81-50.27,2.59-57.4,0,0-33.4-15.89-27.89-41.51,5.51-25.62,17.84-35.35,46.38-38.59Z"/>
  <path class="st4" d="M105.06,158.37s7.78,19.13,33.08,18.81c25.3-.32,40.21-20.76,36.97-43.78s-18.81-36.97-38.59-36c-19.78.97-33.4,23.35-35.67,35.67-2.27,12.32,4.22,25.3,4.22,25.3Z"/>
  <path class="st2" d="M100.69,132.09s6.8-21.94,28.11-26.57c21.32-4.63,41.09,12.36,44.8,20.7,0,0-2.78-31.2-39.24-29.35,0,0-25.95.93-33.68,35.22Z"/>
  <path class="st0" d="M114.6,158.35s2.78,7.41,12.05,11.12c9.27,3.71,16.68,3.4,17.92,2.78s-8.03-1.24-10.5-2.47-11.43-5.56-12.67-8.34-7.72-11.43-7.41-10.5-1.24,3.4.62,7.41Z"/>
</svg>