<?xml version="1.0" encoding="UTF-8"?>
<svg id="Vrstva_1" xmlns="http://www.w3.org/2000/svg" version="1.1" viewBox="0 0 283.46 283.46">
  <!-- Generator: Adobe Illustrator 30.1.0, SVG Export Plug-In . SVG Version: 2.1.1 Build 136)  -->
  <defs>
    <style>
      .st0 {
        fill: #be9961;
      }

      .st1 {
        fill: #7d4318;
      }

      .st2 {
        fill: #8e5321;
      }

      .st3 {
        fill: #9b5e25;
      }

      .st4 {
        fill: #c78959;
      }

      .st5 {
        fill: #b0713d;
      }

      .st6 {
        fill: #ae8955;
      }

      .st7 {
        fill: #6d3715;
      }
    </style>
  </defs>
  <path class="st1" d="M78.88,217.54s14.84,6.6,25.47,6.23,16.74-3.11,16.74-3.11c0,0,17.64,1.21,29.71-3.12,12.06-4.33,32.14-23.54,32.14-23.54,0,0,33.54-7.69,45.94-19.12,12.4-11.43,13.27-15.75,13.27-15.75,0,0,22-13.58,24.71-19.4,2.71-5.82-187.97,77.82-187.97,77.82Z"/>
  <path class="st3" d="M45.57,201.55s-23.73-3.95-27.68-18.33c-3.95-14.38,14.38-32.71,14.38-32.71,0,0-.72-15.82,5.75-21.21,6.47-5.39,17.61-3.95,17.61-3.95,0,0,11.14-14.02,17.61-17.25s12.94-2.52,12.94-2.52c0,0,.72-5.03,6.47-8.99,5.75-3.95,12.58-4.67,12.58-4.67,0,0,5.03-8.99,11.14-11.5,6.11-2.52,8.27-2.52,8.27-2.52,0,0,12.58-7.91,18.33-9.71s18.33-1.08,18.33-1.08c0,0,19.77-7.91,25.16-7.91h5.39s13.66-6.47,28.76-2.88c15.1,3.59,23.37,8.63,26.24,26.24,0,0,25.16,0,23.73,43.14,0,0,2.88,21.93-29.48,30.2,0,0-22.65,31.99-58.23,35.23,0,0-20.13,27.32-61.83,26.96,0,0-20.13,6.83-39.9-.72,0,0-5.39.72-15.46-.36-10.07-1.08-24.08-8.63-20.13-15.46Z"/>
  <path class="st2" d="M57.08,162.91s-15.32,34.15,0,42.68,36.27-21.9,36.27-21.9c0,0-10.11,20.91,0,25.97s32.46-2.52,32.57-12.61l.11-10.09s1.03,19.75,13.69,19.64,29.48-5.06,29.51-27.71c0,0,5.75,12.26,12.31,8.19s11.39-17.52,11.39-17.52c0,0-1.46,9.57,6.44,10.43s40.82-22.88,41.76-25.91l.94-3.03s1.1,13.85-17.12,26.42-42.06,13.64-42.06,13.64c0,0-30.38,28.52-65.87,28.04,0,0-33.03,1.66-37.3-4.74l-30.82-2.09s-10.48-9.31-7.35-23.92,15.53-25.5,15.53-25.5Z"/>
  <path class="st2" d="M45.57,201.55s-7.74,17.88,33.31,15.99c0,0,22.61,7.25,42.18.55,0,0,32.81,5.18,61.83-26.96,0,0,34.45-.55,58.23-35.23,0,0-24.13,28.5-58.2,31.63,0,0-20.36,22.71-59.35,24.8,0,0-36.56,13-40.06-7.07,0,0-7.56,8.03-18.17,7.07s-19.77-10.78-19.77-10.78Z"/>
  <path class="st5" d="M41.62,186.81s3.59-23.37,14.74-37.39c11.14-14.02,20.49-24.8,38.1-26.6s24.44.72,24.44.72c0,0-23.37,3.24-37.39,11.14-14.02,7.91-36.31,44.93-36.31,54.28s.36,12.58.36,12.58c0,0-4.67-4.31-3.95-14.74Z"/>
  <path class="st1" d="M71.45,173.15s28.76-11.14,40.98-19.05,15.1-15.46,15.1-19.05-3.95-7.55-3.95-7.55c0,0,1.44,14.74-14.02,23.37-15.46,8.63-38.1,22.29-38.1,22.29Z"/>
  <path class="st1" d="M79.72,212.33c.91-2.81,8.63-15.46,16.9-26.24,8.27-10.78,15.82-31.99,15.82-31.99l-6.11,2.16s-7.19,19.77-14.38,29.48c-7.19,9.71-12.22,26.6-12.22,26.6Z"/>
  <path class="st1" d="M123.58,142.23s-8.27,11.14,1.8,14.74c10.07,3.59,23.73.36,27.32-3.59,3.59-3.95,3.95-5.03,3.95-5.03,0,0-.36,14.02-22.65,13.3-22.29-.72-20.85-9.35-20.85-9.35l10.42-10.07Z"/>
  <path class="st5" d="M65.34,139.72s5.39-24.44,33.79-37.39c.51-.23,1.01-.45,1.5-.67,27.45-11.99,42.71-4.36,42.71-4.36,0,0-26.96-3.59-44.22,9.71-17.25,13.3-21.21,24.08-21.21,24.08l-12.58,8.63Z"/>
  <path class="st1" d="M124.3,133.61s30.56-3.24,35.95-10.42-5.75-21.57-5.75-21.57c0,0,7.55,11.14,2.52,17.25-5.03,6.11-33.43,8.63-33.43,8.63l.72,6.11Z"/>
  <path class="st1" d="M158.45,120.67s31.99,2.88,37.74,0c5.75-2.88,1.08-11.86-3.24-14.38l-4.31-2.52s5.39-2.88,11.14,6.83c5.75,9.71,3.95,14.74-8.99,16.54-12.94,1.8-35.95-1.8-35.95-1.8l3.59-4.67Z"/>
  <path class="st1" d="M200.14,118.15l-.36-7.55s17.97,7.19,23.01,3.77c5.03-3.41,0-12.76,0-12.76,0,0,12.02,10.42,2.24,18.69s-25.24,0-25.24,0l.36-2.16Z"/>
  <path class="st1" d="M225.31,115.51s19.41,4.21,24.44,1.81-2.88-15.7-2.88-15.7c0,0,4.67,13.77-.72,13.89s-20.85-7.06-20.85-7.06v7.06Z"/>
  <path class="st1" d="M249.75,115.51s10.78-.69,13.66-5.67-5.03-14.93-5.03-14.93c0,0,4.31,8.14,1.44,11.74s-11.13,3.19-11.13,3.19l1.06,5.67Z"/>
  <path class="st1" d="M186.13,187.53s11.5-24.44,9.35-37.21c-2.16-12.76-16.6-19.59-16.6-19.59,0,0,9.59-1.08,16.87,15.46s-9.62,41.34-9.62,41.34Z"/>
  <path class="st1" d="M241.12,147.63s-2.52-11.89-9.35-16.91l-6.83-5.02s7.07-1.8,13.42,10.96c6.35,12.76,2.76,10.96,2.76,10.96Z"/>
  <path class="st1" d="M154.85,155.89s12.58,10.78,14.38,23.01,0,15.1,0,15.1c0,0,4.83-14.38.8-24.8-4.03-10.42-15.18-13.3-15.18-13.3Z"/>
  <path class="st1" d="M256.37,122.18s.58,1.55,6.33,3.44l5.75,1.88s-12.42,2.66-12.08-5.32Z"/>
  <path class="st5" d="M104.35,101.61c.14-1.53,6.65-19.77,23.19-22.65,3.7-.64,7.2-.94,10.41-1.03,11.13-.28,18.71,2.1,18.71,2.1,0,0-10.28-.42-19.64.5-5.6.55-10.87,1.58-13.43,3.46-6.83,5.03-12.82,13.91-12.82,13.91l-6.41,3.7Z"/>
  <path class="st5" d="M188.22,72.86s-14.6-2.88-26.5,0c-11.9,2.88-18.37,7.25-18.37,7.25l5.04-.14s14.24-8.19,39.83-7.11Z"/>
  <path class="st5" d="M176.42,67.82s12.69-4.31,26.48-3.24,15.22,1.53,15.22,1.53c0,0-25.88-9.44-41.7,1.7Z"/>
  <path class="st1" d="M155.75,103.37s11.1.04,15.89-4.27c4.78-4.31,0-14.02,0-14.02,0,0,4.06,3.24,4.78,9.71.72,6.47-18.4,12.26-18.4,12.26l-2.27-3.67Z"/>
  <path class="st1" d="M193.31,75.84s6.47,6,3.95,11.03c-2.52,5.03-20.85,2.89-20.85,2.89v5.02s22.29-.61,23.37-9.47c1.08-8.86-6.47-9.47-6.47-9.47Z"/>
  <path class="st1" d="M214.32,69.26s9.19,5.51,7.39,10.85c-1.8,5.33-21.93,5.21-21.93,5.21l-2.52,1.56s24.44,1.2,27.68-6.77-10.62-10.85-10.62-10.85Z"/>
  <path class="st1" d="M223.51,74.78s5.75,7.43,12.94,8.15l7.19.72s-8.63,2.16-11.86,1.44-8.27-6.98-8.27-6.98v-3.32Z"/>
  <path class="st1" d="M36.23,151.95s3.24,6.8,6.83,7.17c3.59.37-8.99,3.63-6.83-7.17Z"/>
  <path class="st6" d="M161.72,179.26s-4.64,13.68,0,13.67,2.37-17.26,1.53-17.98-1.53,4.31-1.53,4.31Z"/>
  <path class="st6" d="M161.72,154.1s17.94-5.36,19.74,1.81c1.8,7.17-25.81,1.42-19.74-1.81Z"/>
  <path class="st6" d="M220.27,147.71s-1.08,21.48,3.24,18.61c4.31-2.88,0-25.71-3.24-18.61Z"/>
  <path class="st6" d="M199.89,161.86s9.6-13.09,9.96-5.39c.36,7.69-8.78,13.45-9.96,13.09s0-7.69,0-7.69Z"/>
  <path class="st6" d="M248.69,130.72s7.53,10.08,9.33,5.95c1.8-4.13-11.47-12.43-9.33-5.95Z"/>
  <path class="st0" d="M90.86,142.23s4.21-13.69,6.78-11.52,2.21,16.16-1.57,15.63c-3.77-.52-5.21-4.12-5.21-4.12Z"/>
  <path class="st0" d="M102.73,112.8s17.61-7.69,18.33-2.96c.72,4.72-18.33,12-18.33,7.48v-4.52Z"/>
  <path class="st0" d="M156.65,89.77s-.24,14.72,4.19,10.05c4.43-4.67-1.32-13.99-4.19-10.05Z"/>
  <path class="st0" d="M75.43,154.04s-6.34,10.52-1.59,10.75,6.55-13.31,5.88-14.47-2.73.79-4.29,3.72Z"/>
  <path class="st0" d="M178.87,78.1s6.63,7.87,10.26,5.38-5.22-5.76-7.59-7.63-3.63-.85-2.66,2.26Z"/>
  <path class="st0" d="M207.93,75.84s-1.35-7.43,1.93-6.58,5.37,12.63,1.49,12.86-3.42-6.28-3.42-6.28Z"/>
  <path class="st6" d="M113.13,192.93s-10.52,11.95-4.64,13.54c5.89,1.59,9.29-9.86,8.38-13.54s-3.74,0-3.74,0Z"/>
  <path class="st6" d="M138.17,183.9s5.66,6.93,7.47,4.67-4.3-9.97-6.12-10.19-4.37,2.38-1.36,5.52Z"/>
  <path class="st6" d="M209.86,101.61c1.2.95,4.29,3.99,4.46,1.76s-6.73-3.55-4.46-1.76Z"/>
  <path class="st6" d="M243.64,92.08s6.42,7.93,6.87,5.21-7.77-6.28-6.87-5.21Z"/>
  <path class="st6" d="M204.61,102.47s-1.21,9.71,1.28,7.36.84-8.52-1.28-7.36Z"/>
  <path class="st6" d="M173.73,112.8s7.47,5.07,9.06,2.71-11.1-6.23-9.06-2.71Z"/>
  <path class="st0" d="M52.55,136.66s-7.7,8.2-4.3,8.65,6.65-11.38,4.3-8.65Z"/>
  <path class="st0" d="M30.58,168.64s3.54,12.23,5.39,7.93-4.94-10.42-5.39-7.93Z"/>
  <path class="st0" d="M67.73,116.13s-6.13,8.26-2.39,7.85,6.92-11.43,2.39-7.85Z"/>
  <path class="st4" d="M86.3,113.52s-7.7,7.57-9.29,12.1,0,5.11,0,5.11l-5.56,2.89s2.98-14.34,14.85-20.09Z"/>
  <path class="st4" d="M96.08,125.61s-23.61,7.43-30.73,16.62-8.26,11.81-8.26,11.81c0,0,7.21-14.33,16.97-23.33,0,0,9.23-4.87,22.02-5.11Z"/>
  <path class="st7" d="M106.71,157.39s17.21-9.85,20.82-15.15,2.03-7.57,2.03-7.57c0,0,23.26-4.12,27.09-6.34s4.19-8.62,4.19-8.62c0,0-2.06,6.06-12.03,7.79s-22.75,3.22-22.75,3.22c0,0,4.45,8.85-19.36,26.67Z"/>
  <path class="st1" d="M134,161.65s-5.94,31.78-6.47,39.9l-.53,8.12s-5.33-34.04,7-48.02Z"/>
</svg>