<?xml version="1.0" encoding="UTF-8"?>
<svg id="Vrstva_1" xmlns="http://www.w3.org/2000/svg" version="1.1" viewBox="0 0 283.46 283.46">
  <!-- Generator: Adobe Illustrator 30.1.0, SVG Export Plug-In . SVG Version: 2.1.1 Build 136)  -->
  <defs>
    <style>
      .st0 {
        fill: #e3d2a6;
      }

      .st1 {
        fill: #322b17;
      }

      .st2 {
        fill: #9e9680;
      }

      .st3 {
        fill: #d3c095;
      }

      .st4 {
        fill: #f5e8be;
      }
    </style>
  </defs>
  <path class="st2" d="M63,207.28s4.93,16.42-7.06,21.35-25.45-.99-31.53,4.6c-6.08,5.58-3.61,11.17-3.61,11.17h200.35s27.26-.66,32.35-6.08l4.43.16-.82-2.79,2.46.16-.66-2.96h2.63l-.82-2.63h2.3l-1.15-3.28,2.79-.16-3.78-4.76s-3.45-10.35-7.72-13.79l-12.97.16s6.57,7.88,5.25,14.29c-1.31,6.4-5.91,7.23-9.36,7.55s-24.14.16-24.14.16c0,0-11-2.3-7.55-18.56l-18.06-.33s6.24,15.44-6.24,19.87h-90.81s-15.6-3.78-9.03-22.17l1.64-1.15-18.89-.82Z"/>
  <path class="st1" d="M46.09,173.12l3.94,33.5,44.17,2.13s2.63-.49,3.78-6.24,2.13-8.7,2.13-8.7c0,0,11.5-.82,21.68,2.13s45.49,16.91,58.95,16.91,74.06-3.94,76.03-4.6,4.93-5.58,4.43-9.85l-.99-1.15s-212.01-27.59-214.14-24.14Z"/>
  <path class="st0" d="M128.03,41.75s9.69,17.08,11.66,33.17,1.31,29.07,1.31,29.07c0,0-10.84-34.98-14.45-43.35-3.61-8.38.16-20.2,1.48-18.89Z"/>
  <path class="st4" d="M48.39,117.13s-1.81,15.44-3.45,21.84c-1.64,6.4-6.57,30.54,3.45,35.14,0,0,5.25,1.15,12.15,1.31,6.9.16,37.11,5.25,50.25,9.85s57.97,20.03,75.38,19.71c17.41-.33,73.57-3.78,75.05-6.57s.82-20.86-9.2-25.95c-10.02-5.09-20.36-5.42-25.62-8.21s-64.87-34.16-76.03-44.83-19.54-52.71-22.5-63.72-4.27-13.96-4.27-13.96c0,0-32.68,4.93-52.71,8.87s-23.15,6.4-23.15,6.4c0,0,3.12,24.63,2.3,37.77s-1.64,22.33-1.64,22.33Z"/>
  <path class="st0" d="M66.62,60.64s-7.06,32.68-9.2,44.34-8.7,30.87-10.02,40.4c-1.31,9.52,3.83,24.87,8.43,29.79l-2.76-.27s-10.26-8.01-7.47-30.5c0,0,3.12-13.14,4.93-19.71s6.57-27.75,7.55-34.98,6.57-31.37,6.57-31.37l2.96-.82-.99,3.12Z"/>
  <path class="st0" d="M103.24,45.69s7.39,52.55,21.51,69.79c14.12,17.24,38.92,36.13,70.45,45.16,31.53,9.03,33.17,5.75,33.17,5.75l-.99-.66s-7.88,1.64-32.52-6.57c-24.63-8.21-45.98-17.74-71.76-47.79,0,0-4.76-6.9-9.36-22.83-4.6-15.93-8.87-42.2-8.87-42.2l-1.64-.66Z"/>
  <path class="st2" d="M119.49,49.47l.49,4.93s-4.93,5.09-8.54-1.48c0,0-1.15-6.24,8.05-3.45Z"/>
  <path class="st2" d="M124.42,68.35l.82,5.25s-8.54,3.28-9.52-2.3,8.7-2.96,8.7-2.96Z"/>
  <path class="st2" d="M136.74,120.74s.16-3.94,3.78-3.94,4.27,4.43,3.12,5.91-3.28,1.31-3.78,1.31-3.61-1.15-3.12-3.28Z"/>
  <path class="st2" d="M150.2,133.71s-.33-4.27,3.94-4.27,4.11,5.75,1.64,6.24-3.94.33-5.58-1.97Z"/>
  <path class="st2" d="M165.64,142.09s.82-3.61,4.11-2.96,3.61,4.76,2.3,5.91-5.25,1.81-6.4-2.96Z"/>
  <path class="st2" d="M181.24,148.82s.99-3.28,4.43-2.13c3.45,1.15,2.63,5.42.99,6.08s-5.75.33-5.42-3.94Z"/>
  <path class="st2" d="M197.17,155.39s-.16-2.3,3.28-1.97c3.45.33,3.45,4.93,2.46,6.08s-6.9.49-5.75-4.11Z"/>
  <path class="st2" d="M215.4,159.82s-2.96.66-2.46,1.64,6.24,3.78,6.73,2.13-3.61-3.94-4.27-3.78Z"/>
  <path class="st3" d="M211.06,156.06s3.18-1,5.81.81c2.63,1.81,2.3,6.73,1.48,6.73s-3.28-.82-3.45-1.64,0-3.78,0-3.78l-3.84-2.12Z"/>
  <path class="st3" d="M195.44,147.47s3.86.53,5.67,1.68,1.97,9.52.82,9.85-3.78.16-3.61-1.81.66-7.72.66-7.72l-3.53-2.01Z"/>
  <path class="st3" d="M173.16,134.77s5.78,1.74,9.88,3.71c4.11,1.97,4.76,7.88,4.27,10.67s-3.61,3.61-4.6,1.97.32-10.56.32-10.56l-9.88-5.79Z"/>
  <path class="st3" d="M157.76,125.34s8.7,2.13,11.66,4.43,2.96,11.5,2.13,12.97-3.94,1.64-4.27-.33.99-10.35.99-10.35l-10.51-6.73Z"/>
  <path class="st3" d="M152.67,130.59s-.66,4.27,2.13,3.12,4.76-7.23,4.76-7.23c0,0-11-11.5-12.15-11,0,0,2.96,5.09,5.25,6.57s3.28,2.46,2.63,4.11c-.66,1.64-2.63,4.43-2.63,4.43Z"/>
  <path class="st3" d="M139.2,117.95s-1.81,3.94.82,4.27,6.73-4.76,7.39-6.73c.66-1.97-1.81-7.88-4.6-8.7,0,0,1.15,3.61,1.97,5.09,0,0-2.96,4.93-5.58,6.08Z"/>
  <path class="st3" d="M134.77,105.63l8.05,1.15,1.15,2.96s-9.03.66-12.32-1.64-3.45-4.11-2.13-7.23,3.61-5.09,3.61-5.09c0,0-9.36-.16-10.51-6.24s8.7-12.97,9.85-12.81,2.63,4.6,1.97,5.25-7.72,2.96-8.05,5.91,2.79,5.09,4.76,5.58,6.24-.66,6.24-.66c0,0,1.64,2.3,1.97,4.27s-7.23,1.48-7.23,4.27,2.63,4.27,2.63,4.27Z"/>
  <path class="st2" d="M127.21,85.93l.66,5.58s-7.88,2.96-8.7-1.48,8.05-4.11,8.05-4.11Z"/>
  <path class="st2" d="M132.14,101.36l2.63,4.27s-6.08,6.08-8.7,2.46,6.08-6.73,6.08-6.73Z"/>
  <path class="st3" d="M123.93,47.99s-1.81.66-3.12.16-.16-1.15-2.46-.82-3.12-.99-5.58-.33-5.58.66-6.9.66-.99-.99-4.76,0c0,0-1.64,1.64-4.6,2.13s-2.3.82-6.24,1.64-5.42.82-6.24,1.31-1.64,1.31-4.93,2.3,0,.66-6.57,2.46-10.51,1.97-10.51,1.97c0,0-1.15,1.64-3.78,2.3s-3.61.82-4.11.99-5.25,3.12-6.08,1.48-1.97-4.11-.33-7.23,1.15-3.61,3.12-4.11,3.94-1.48,7.06-2.13,10.02-2.79,12.81-3.61,5.58-1.31,8.38-1.81,4.11-1.97,5.91-1.97,6.08-1.97,8.87-1.97,4.76.33,7.23,0,4.76-1.64,7.23-1.64,3.61.16,5.91.16,9.52-1.48,10.84-1.48,4.6,0,5.42,1.48,1.64,1.48.16,4.11-6.73,3.94-6.73,3.94Z"/>
</svg>