<?xml version="1.0" encoding="UTF-8"?>
<svg id="Vrstva_1" xmlns="http://www.w3.org/2000/svg" version="1.1" viewBox="0 0 283.46 283.46">
  <!-- Generator: Adobe Illustrator 30.1.0, SVG Export Plug-In . SVG Version: 2.1.1 Build 136)  -->
  <defs>
    <style>
      .st0 {
        fill: #8e2d25;
      }

      .st1 {
        fill: #bca48b;
      }

      .st2 {
        fill: #a83e31;
      }

      .st3 {
        fill: #dbc7ab;
      }

      .st4 {
        fill: #aa8f77;
      }
    </style>
  </defs>
  <path class="st1" d="M139.97,134.95s-83.44,43.53-88.52,44.62c-5.08,1.09-16.32,6.17-25.39-.73,0,0,3.63,10.88,12.7,10.88s110.64-52.6,110.64-52.6l-9.43-2.18Z"/>
  <path class="st3" d="M13,173.76s-2.54-41.36,34.1-62.4c0,0,26.28-13.3,41.15-.24,0,0-21.92-10.28-44.78,10.76-22.85,21.04-33.06,51.36-18.18,67.32,0,0-9.42-3.5-12.29-15.45Z"/>
  <path class="st4" d="M149.77,140.75l-101.58,51.15s-20.32,5.8-29.02-9.43c-8.71-15.24,5.8-49.7,31.2-66.39s39.9-6.53,44.62,2.54c4.72,9.07-1.09,15.24-1.09,15.24h-2.9s2.18-20.68-14.15-20.68-33.37,14.15-42.81,27.21-16.32,42.81,3.26,44.62c0,0,5.8,2.54,24.31-6.53s85.25-43.17,85.25-43.17l6.89,2.9-3.99,2.54Z"/>
  <path class="st1" d="M76.85,113.18s7.62,2.9,9.07,7.62,1.09,11.25,1.09,11.25l3.99,1.81s3.99-20.32-14.15-20.68Z"/>
  <polygon class="st1" points="112.4 129.14 106.6 152 110.95 153.81 117.84 129.51 112.4 129.14"/>
  <polygon class="st4" points="121.83 130.23 116.39 150.91 110.95 153.81 117.84 129.51 121.83 130.23"/>
  <polygon class="st4" points="114.58 110.64 78.66 125.88 77.94 130.23 115.67 115.36 114.58 110.64"/>
  <path class="st3" d="M88.62,221.38s8.18,8.25,32.13-5.89,140.75-87.79,140.75-87.79l5.8,2.18-18.86,13.42-130.96,81.26-20.32,2.9-8.55-6.08Z"/>
  <path class="st3" d="M120.75,125.15s-22.85-5.44-40.63,15.96-25.15,73.52,6.41,90.93l-13.3-35.43,8.34-41.36,11.25-18.14,27.93-11.97Z"/>
  <path class="st4" d="M77.58,181.38s-2.18,23.22,5.44,33.37c7.62,10.16,14.87,15.96,40.27,2.9,25.39-13.06,144.02-87.79,144.02-87.79l.36,6.17-146.92,93.23s-13.06,7.98-31.56,3.63c-18.5-4.35-25.39-45.71-11.61-75.82s35.55-31.92,43.17-31.92,16.69,11.25,19.23,17.41,4.35,14.87,4.35,14.87l-4.72,3.26s-9.07-29.02-21.4-29.02-35.19,12.7-40.63,49.7Z"/>
  <path class="st1" d="M134.17,158.16l5.44,2.54s-8.59-29.24-21.4-29.02c0,0,12.33,10.52,15.96,26.48Z"/>
  <polygon class="st3" points="160.65 143.65 169.17 185.5 173.71 186.82 166.45 146.56 171.17 147.28 170.81 137.12 241.91 100.12 243.72 100.48 249 135.33 253.88 136.76 250.62 101.94 253.88 101.94 253.88 90.69 160.65 143.65"/>
  <path class="st4" d="M129.81,157.08s5.08.73,11.25-1.81,26.12-13.06,26.12-13.06l-.36-4.72s-36.28,14.15-35.19,14.15-2.9.73-1.81,5.44Z"/>
  <path class="st3" d="M164.64,134.22s-37.37,17.05-34.46,18.86,36.64-15.6,36.64-15.6l-2.18-3.26Z"/>
  <polygon class="st4" points="175.89 137.49 175.98 144.96 171.24 145.96 169.96 135.66 176.61 134.95 175.89 137.49"/>
  <polygon class="st4" points="173.71 186.82 179.88 182.83 172.62 145.47 166.45 146.56 173.71 186.82"/>
  <polygon class="st4" points="258.6 93.23 257.87 100.85 253.88 101.94 252.79 93.95 258.6 93.23"/>
  <polygon class="st4" points="253.88 136.76 258.6 133.86 253.88 101.94 250.62 101.94 253.88 136.76"/>
  <path class="st2" d="M110.59,109.55l101.94-43.53,53.33,17.41,1.09,4.72-101.94,55.14s-4.72-5.8-6.17-5.8h-1.45l-7.62,3.26-38.82-23.58s1.09-5.8-.36-7.62Z"/>
  <path class="st3" d="M78.66,125.88s2.18-3.99,5.08-5.08,26.84-11.25,26.84-11.25c0,0,1.45,2.18.73,3.26l-32.65,13.06Z"/>
  <polygon class="st0" points="113.5 112.5 213.83 68.5 215.83 69 114.67 114.33 113.5 112.5"/>
  <path class="st0" d="M160.67,136.17l97.83-51.67-1.33-.67-100.17,51.17s.5,1.17,3.67,1.17Z"/>
</svg>