<?xml version="1.0" encoding="UTF-8"?>
<svg id="Vrstva_1" xmlns="http://www.w3.org/2000/svg" version="1.1" viewBox="0 0 283.46 283.46">
  <!-- Generator: Adobe Illustrator 30.1.0, SVG Export Plug-In . SVG Version: 2.1.1 Build 136)  -->
  <defs>
    <style>
      .st0 {
        fill: #aa1a17;
      }

      .st1 {
        fill: #d3af6e;
      }

      .st2 {
        fill: #f3d6a5;
      }

      .st3 {
        fill: #eac985;
      }
    </style>
  </defs>
  <path class="st0" d="M147.5,105.92s2.21-63.59,14.19-79.59,17.98-15.33,18.31-12.67-16.36,30.68-20.01,39.67-9.57,53.58-9.57,53.58l-.92-.5s6.64-46.43,8.64-51.93,17.11-31.4,17.11-31.4c0,0,4-8.33,3.5-9.33s-4.5-.25-8.67,4.17-8.25,9.27-11.08,15.08-7.5,32-8.25,40.17-2.5,33.75-2.5,33.75l-.75-.99Z"/>
  <path class="st3" d="M134.71,105.92l-4.87-61.51s.3-10.96,7.31-9.44,7.61,23.75,7.61,23.75l2.74,47.2h3.05s14.01-62.12,19.79-62.12,9.74,8.53,6.4,21.01-14.31,47.81-14.31,47.81l2.13,1.52s43.24-42.03,46.29-42.03,10.96,5.79,4.26,15.23-41.33,37.76-41.33,37.76c0,0,56.55-29.54,62.95-27.41s4.87,11.27-3.05,16.44-53.9,22.84-53.9,22.84c0,0,73.7-16.44,74-6.7.3,9.74-6.4,16.44-18.88,16.44s-41.42,3.35-41.42,3.35c0,0,52.99-2.13,58.17,4.87s-5.79,12.18-10.66,12.18-52.68-3.65-52.68-3.65c0,0,49.03,29.23,49.94,36.24.91,7-6.7,9.74-12.79,8.83-6.09-.91-40.2-23.45-40.2-23.45,0,0,36.24,25.89,37.15,35.02.91,9.14-6.4,9.14-11.27,7s-42.03-35.63-42.03-35.63c0,0,28.93,51.47,28.32,56.64-.61,5.18-10.96,2.13-13.4-2.13s-30.15-52.38-30.15-52.38c0,0,17.97,55.73,17.97,61.21s-9.14,5.18-12.18,0-19.5-62.43-19.5-62.43c0,0-.9,64.86-4.25,69.43-3.35,4.57-13.57,3.05-12.57-6.4s4.05-64.56,4.05-64.56c0,0-27.41,66.08-34.11,62.43-6.7-3.65-4.26-12.79,0-21.62s21.62-47.2,21.62-47.2c0,0-48.72,45.37-53.9,45.07s-7.61-6.7-2.44-13.4,47.51-43.24,47.51-43.24c0,0-60.91,20.71-67.3,19.19-6.4-1.52-7.31-10.35,0-14.01s58.77-16.75,58.77-16.75l-63.92,4.87s-10.63-9.74,0-13.4,64.83-3.25,64.83-3.25c0,0-70.04-11.06-67-19.29,3.05-8.22,3.05-10.05,21.01-6.4,17.97,3.65,44.16,10.05,44.16,10.05l-56.34-30.15s-7-10.35,2.74-10.35,16.75,3.96,23.45,7.92,30.45,16.14,30.45,16.14c0,0-43.85-29.54-44.16-35.93s3.65-8.22,9.44-5.79c5.79,2.44,43.24,34.11,43.24,34.11l-35.33-45.37s-5.18-10.96,2.74-11.27c7.92-.3,19.49,18.88,19.49,18.88l30.98,40.2-27.63-54.82s-3.65-14.31,3.65-12.49,10.35,12.79,10.35,12.79l24.97,48.12Z"/>
  <path class="st1" d="M136.54,48.97s-5.18-3.96-3.35-7.61,4.87-3.05,5.48,0c.61,3.05.25,10.08-2.13,7.61Z"/>
  <path class="st1" d="M167.6,57.5s-1.22-9.42,4.26-8.01c5.49,1.41,2.13,8.62,0,9.84s-4.26-1.83-4.26-1.83Z"/>
  <path class="st1" d="M205.36,84s2.13-9.44,5.79-7.31.91,8.83-2.89,9.14-2.89-1.83-2.89-1.83Z"/>
  <path class="st1" d="M225.16,107.75s10.78-11.78,12.18-5.18-13.7,10.96-12.18,5.18Z"/>
  <path class="st1" d="M229.73,134.55s20.4-7.61,20.71-2.44-8.94,15.37-20.71,2.44Z"/>
  <path class="st1" d="M236.12,154.95s16.14-.3,12.49,3.96c-3.65,4.26-11.18,0-11.18,0l-1.31-3.96Z"/>
  <path class="st1" d="M222.11,194.84s17.05,1.83,14.01,5.48-9.44,7.31-14.01-5.48Z"/>
  <path class="st1" d="M206.58,211.9s15.23,5.79,12.18,9.74c-3.05,3.96-9.94,4.89-12.18-9.74Z"/>
  <path class="st1" d="M184.66,241.44s3.35-5.48,5.18-3.05,7,10.96,3.35,9.74c-3.65-1.22-8.53-6.7-8.53-6.7Z"/>
  <path class="st1" d="M159.99,248.26s3.65-4.99,5.79-1.95,3.05,10.05,0,9.14-5.79-7.19-5.79-7.19Z"/>
  <path class="st1" d="M126.49,250.43s1.83-4.18,4.57-2.17.91,14.8-2.28,12.67c-3.2-2.13-2.28-10.5-2.28-10.5Z"/>
  <path class="st1" d="M94.52,237.77s6.7-4.55,6.4-1.51-5.79,14.25-7.61,12c-1.83-2.25,1.22-10.49,1.22-10.49Z"/>
  <path class="st1" d="M59.19,221.03s5.48-8.22,7.61-4.57-3.96,9.74-6.09,9.14-1.52-4.57-1.52-4.57Z"/>
  <path class="st1" d="M37.87,182.05c1.22-.3,10.35-2.44,10.66,0s-9.14,9.44-10.66,6.09,0-6.09,0-6.09Z"/>
  <path class="st1" d="M35.44,154.95s10.29.68,7.43,2.93-9.87,5.74-10.17,2.93,2.74-5.86,2.74-5.86Z"/>
  <path class="st1" d="M40.31,125.41s12.5,4.57,8.23,6.4-17.54-4.31-8.23-6.4Z"/>
  <path class="st1" d="M49.43,105.5c-.29-.8-12.22-5.06-6.56-7.5,5.66-2.44,15.71,4.57,13.28,6.09s-6.72,1.41-6.72,1.41Z"/>
  <path class="st1" d="M61.32,85.85c-1.52-.64-9.3-8.25-4.8-7.64s10.73,8.83,10.73,8.83l-5.93-1.19Z"/>
  <path class="st1" d="M77.77,67.25s-12.41-8.75-5.18-9.74,6.9,4.92,5.18,9.74Z"/>
  <path class="st1" d="M100.92,57.39s-4.88-8.89-1.23-8.04,6.42,7.94,1.23,8.04Z"/>
  <path class="st1" d="M138.93,142.47s-18.71-31.37-15.57-30.15,15.57,30.15,15.57,30.15Z"/>
  <path class="st1" d="M140.18,135.57s-5.17-25.46-2.73-23.29,2.73,23.29,2.73,23.29Z"/>
  <path class="st1" d="M144.15,135.57s2.44-23.87,4.26-22.04-4.26,22.04-4.26,22.04Z"/>
  <path class="st1" d="M146.46,140.84s13.53-25.78,15.06-22.74c1.52,3.05-15.06,24.36-15.06,24.36v-1.63Z"/>
  <path class="st1" d="M148.76,144.29s19.83-12.44,18.73-13.98-18.73,13.98-18.73,13.98Z"/>
  <path class="st1" d="M151.16,148.25s23.94-3.96,23.69-5.79-23.69,5.79-23.69,5.79Z"/>
  <path class="st1" d="M146.46,152.21c3.18,0,35.46.61,33.02,0s-33.02,0-33.02,0Z"/>
  <path class="st1" d="M147.5,154.95s24.49,18.58,23.66,15.54c-.82-3.05-23.66-15.54-23.66-15.54Z"/>
  <path class="st1" d="M144.15,160.8s17.86,25.21,17.46,22.47c-.4-2.74-17.46-22.47-17.46-22.47Z"/>
  <path class="st1" d="M141.36,158.4s3.71,22.44,6.15,20.61-6.15-20.61-6.15-20.61Z"/>
  <path class="st1" d="M138.93,157.88s-13.66,23.39-10.62,23.02,10.62-23.02,10.62-23.02Z"/>
  <path class="st1" d="M133.4,156.17s-21.23,12.69-18.18,12.59,18.18-12.59,18.18-12.59Z"/>
  <path class="st1" d="M127.88,152.48s-23.62-6.06-22.4-4.23,22.4,4.23,22.4,4.23Z"/>
  <path class="st1" d="M133.4,144.29s-17.87-16.41-18.48-15.52,18.48,15.52,18.48,15.52Z"/>
  <path class="st1" d="M127.88,145.22s-18.13-8.84-17.52-6.41,17.52,6.41,17.52,6.41Z"/>
  <path class="st1" d="M116.65,157.88s-9.35,1.54-8.13.52,8.13-.52,8.13-.52Z"/>
  <path class="st1" d="M127.88,168.76s-8.24,10.25-8.77,8.42,8.77-8.42,8.77-8.42Z"/>
  <path class="st1" d="M140.18,173.08s-3.12,11.52-1.25,10.4,1.25-10.4,1.25-10.4Z"/>
  <path class="st0" d="M113.67,121.23s7.6-8.37,9.81-6.97-9.81,6.97-9.81,6.97Z"/>
  <path class="st0" d="M123.48,114.26l14.86-3.81s-10.91-.52-14.86,3.81Z"/>
  <path class="st0" d="M138.34,110.44l12.82,1.5s-3.3-4.29-12.82-1.5Z"/>
  <path class="st0" d="M151.16,111.94l10.45,3.12s-6.78-5.29-10.45-3.12Z"/>
  <path class="st0" d="M129.54,187.23c.54-1.09,8.8,3.35,8.8,3.35,0,0-10.32-.3-8.8-3.35Z"/>
  <path class="st0" d="M137.72,190.37l15.17-1.33s-10.77,4.45-15.17,1.33Z"/>
  <path class="st0" d="M161.61,115.06s11.01,8.98,11.01,10.35-13.92-9.77-11.01-10.35Z"/>
  <path class="st0" d="M177.49,137.56s-6.39-12.68-4.87-12.15,6.6,11.21,4.87,12.15Z"/>
  <path class="st0" d="M177.84,137.25s3.45,18.49,1.64,14.96-3.83-14.69-1.64-14.96Z"/>
  <path class="st0" d="M113.67,121.23s-7.75,5.8-6.74,4.16,7.02-6.66,6.74-4.16Z"/>
  <path class="st0" d="M101.06,134.87s5.36-11.31,6.01-9.29c.74,2.31-5.49,10.81-6.01,9.29Z"/>
  <path class="st0" d="M129.89,187.39s-15.04-7.96-13.86-6.49,11.75,9.08,13.86,6.49Z"/>
  <path class="st0" d="M108.41,172.14s8.12,11.51,8.78,9.74c.88-2.36-8.65-11.88-8.78-9.74Z"/>
  <path class="st0" d="M102.56,159.63s4.65,13.74,5.86,12.52c2.58-2.62-5.52-14.7-5.86-12.52Z"/>
  <path class="st0" d="M101.06,148.25s1.36,14.91,1.94,12.55,1.22-3.74,1.22-3.74c0,0-2.13-9.75-3.16-8.82Z"/>
  <path class="st0" d="M101.06,134.87s-1.72,14.06,0,13.38c3.28-1.29,1.36-14.39,0-13.38Z"/>
  <path class="st0" d="M152.89,189.04s12.15-6.18,12.32-4.07-11.44,5.79-12.32,4.07Z"/>
  <path class="st0" d="M172.62,175.12s-9.64,9.8-7.41,9.85c3.32.08,7.41-9.85,7.41-9.85Z"/>
  <path class="st0" d="M178.5,162.88s-7.57,12.09-5.88,12.24c2.02.18,6.87-12.47,6.87-12.47l-.99.23Z"/>
  <path class="st0" d="M179.48,152.21s-2.09,10.67-.98,10.67,2.63-10.49.98-10.67Z"/>
  <path class="st2" d="M138.93,76.37s1.48,30.54,2.42,27.85.44-30.26-2.42-27.85Z"/>
  <path class="st2" d="M156.38,105.5s7.82-31.93,8.82-31.43,1.79,2.15,1.79,2.15c0,0-10.85,30.23-10.62,29.28Z"/>
  <path class="st2" d="M173.96,115.06s24.08-23.3,24.76-22.62-25.26,24.54-24.76,22.62Z"/>
  <path class="st2" d="M182.05,126.62s30.65-15.74,31.49-14.27-31.32,16.12-31.49,14.27Z"/>
  <path class="st2" d="M113.67,83.34s14.09,25.77,14.2,24.76-12.69-26.1-14.2-24.76Z"/>
  <path class="st2" d="M95.82,88.39s18,25.64,19.1,24.94-18.43-26.46-19.1-24.94Z"/>
  <path class="st2" d="M82.85,99.67c-.08.53,25.52,21.02,25.56,20.62s-25.22-22.81-25.56-20.62Z"/>
  <path class="st2" d="M73.26,112.35s26.82,15.44,27.14,14.43-27.14-15.9-27.14-14.43Z"/>
  <path class="st2" d="M65.34,135.57s31.32,6.52,31.16,5.27-31.16-6.42-31.16-5.27Z"/>
  <path class="st1" d="M138.93,145.22s.33-1.1,1.25,0,1.17-4.38,1.17-4.38l.43,4.52,3.82-1.07-1.46,3.62,7-.81-7.31,2.48,3.66,4.36-5.71-2-.43,6.46-1.07-6.46-6.88,4.23,5.09-5.97-8.96-2.29,9.4.4-5.07-5.84,5.07,2.75Z"/>
</svg>