<?xml version="1.0" encoding="UTF-8"?>
<svg id="Vrstva_1" xmlns="http://www.w3.org/2000/svg" version="1.1" viewBox="0 0 283.46 283.46">
  <!-- Generator: Adobe Illustrator 30.1.0, SVG Export Plug-In . SVG Version: 2.1.1 Build 136)  -->
  <defs>
    <style>
      .st0 {
        fill: #f0cc96;
      }

      .st1 {
        fill: #a1c854;
      }

      .st2 {
        fill: #739830;
      }

      .st3 {
        fill: #a1a0a0;
      }

      .st4 {
        fill: #493732;
      }

      .st5 {
        fill: #6c902d;
      }

      .st6 {
        fill: #b8b7b7;
      }

      .st7 {
        fill: #bfcb95;
      }

      .st8 {
        fill: #c7c9ab;
      }

      .st9 {
        fill: #5e4942;
      }

      .st10 {
        fill: #d5e1a5;
      }
    </style>
  </defs>
  <rect class="st9" x="-9.67" y="-9.67" width="304.67" height="304"/>
  <g>
    <path class="st8" d="M232.85,91.1s0,5.13.77,8.72q.77,3.59,0,5.39c-.77,1.8-2.31,7.18-1.54,10.26s1.54,3.08.51,5.13c-1.03,2.05-2.05,1.28-1.03,3.34s2.57,3.59,2.31,6.41,1.03,6.67,1.54,9.49,1.28,5.39,1.28,5.39c0,0-.26,1.8.26,4.11s1.03,2.05,1.28,4.11-.26.77.51,4.87c.77,4.11,1.54,4.11.77,5.9s-2.31,2.57-2.31,3.59-.51,6.93.51,8.72,1.03,3.08,1.54,4.87,1.03,8.98,1.8,11.03,2.57,3.85,2.57,5.9-.77,2.57-.77,4.36-1.8,2.57-.51,4.11,1.03,7.7.77,10.01,0,8.21-.77,9.49c-.77,1.28-1.03,1.28-1.03,2.82s-.26,4.62-.77,6.67-1.28,1.8-1.28,3.08-.51,6.93-1.03,9.75c-.51,2.82-1.03,3.34-2.05,4.62s-4.36,7.44-4.11,8.47.51,3.08.51,3.08c0,0-1.03-5.13,1.8-11.03,2.82-5.9,3.08-12.06,3.08-13.09s.77-3.08,1.28-5.13,1.03-4.11.51-5.13-1.54-.51-.26-2.31,1.03-4.87,1.54-7.95,1.28-3.85.77-6.93-.51-2.05-1.03-4.87c-.51-2.82-.77-2.57-.51-6.67.26-4.11,0-3.59-.77-6.93-.77-3.34-1.03-6.41-1.03-6.41,0,0-1.03-6.67-1.54-7.44s-2.57-4.87-2.57-6.67,0-2.82.26-3.59,1.03-3.85,1.03-5.9-.26-1.8-.26-4.62.26-4.11.26-4.87,0-5.13-1.03-5.9-1.54-1.54-1.54-2.31-.51-4.87-.51-4.87c0,0-.77-10.01-1.28-12.57s-2.57-5.13-2.57-7.18,2.82-2.82,2.57-4.87-1.54-7.44-.26-10.26.26-5.39,0-9.24c-.26-3.85,2.31-6.93,2.31-6.93Z"/>
    <path class="st8" d="M235.16,173.98s-4.36,5.64-4.36,7.95.51,3.34,2.05,3.85,7.7,10.26,7.7,10.26c0,0-7.95-11.29-7.7-13.34s2.82-6.16,2.82-6.16l-.51-2.57Z"/>
    <path class="st1" d="M245.42,77.25s14.37,2.31,17.7-1.03,2.57-5.64.26-8.21c-2.31-2.57-7.7-3.59-9.49-3.59s-4.87-1.03-7.18.77-4.11,12.32-1.28,12.06Z"/>
    <path class="st1" d="M237.46,55.44s2.57-3.34,3.34,1.03-3.42,20.34-3.68,16.75c-.26-3.59.35-17.78.35-17.78Z"/>
    <path class="st2" d="M228.95,67.62s1.33-15.52.3-16.8-12.32-9.49-13.09-6.93.77,5.39,2.31,7.95,7.95,12.57,8.47,13.85,2.01,1.92,2.01,1.92Z"/>
    <path class="st2" d="M240.03,50.05c0-1.03-.51-16.93,3.08-19.24,3.59-2.31,8.21-6.16,10.52-1.8,2.31,4.36,5.13,15.14.77,20.27-4.36,5.13-6.41,5.9-7.18,8.21s-2.31,4.36-3.08,3.85-4.11-11.29-4.11-11.29Z"/>
    <path class="st5" d="M232.33,24.39s4.87-4.87,8.47-1.54,6.16,10.01,4.11,16.68c-2.05,6.67-8.72,16.93-10.01,12.57-1.28-4.36-2.57-6.41-3.85-10.52-1.28-4.11-5.13-11.8,1.28-17.19Z"/>
    <path class="st10" d="M234.39,87.25c.26-.77,5.64-6.67,7.7-9.49,2.05-2.82,5.39-6.41,8.72-7.18s9.75-1.54,9.75-1.54c0,0-7.18,1.03-10.26,2.82s-8.21,9.24-10.52,12.06c-2.31,2.82-6.67,7.7-6.93,7.18s1.54-3.85,1.54-3.85Z"/>
    <path class="st10" d="M247.98,36.71c0,.77-2.82,16.16-2.82,20.78s-2.57,11.29-4.62,15.65-4.11,13.85-6.16,14.11-2.82,1.28-2.57-.77,11.29-26.17,11.55-28.48,4.62-21.3,4.62-21.3Z"/>
    <path class="st10" d="M236.7,31.83s0,15.65-.77,20.01c-.77,4.36-1.8,10.01-1.8,11.8s-.77,18.47-1.28,21.04-2.82,6.41-.51,5.64c2.31-.77,2.31-3.34,2.82-8.21.51-4.87,1.54-21.04,2.05-24.37s.77-10.52.77-10.52l-1.28-15.39Z"/>
    <path class="st10" d="M223.1,50.31c.26.77,1.28,6.67,2.57,11.03,1.28,4.36,1.54,5.9,2.05,10.78.51,4.87,2.05,16.68,3.85,16.93s2.31-.77,1.8-1.54-4.36-16.93-4.36-16.93c0,0,0-4.36-.26-5.64s-5.64-14.62-5.64-14.62Z"/>
    <path class="st7" d="M229,88.28s4.36-.77,5.39.51,1.03,3.34,1.03,3.34l-1.8,2.31s-2.31,2.82-3.34.77-1.28-6.93-1.28-6.93Z"/>
  </g>
  <g>
    <path class="st6" d="M101.45,148.63s3.88-8.48,6.6-8.13,27.05,7.83,29.07,6.16,27.47-73.44,28.86-78.79c1.39-5.35,7.17-42.56-7.63-47.82-14.8-5.26-27.81,1.68-45.62,21.96-17.8,20.28-45.62,71.61-46.09,73.56s25.11,15.81,25.22,17.55-.03,5.53-1.75,8.07,11.34,7.43,11.34,7.43Z"/>
    <path class="st3" d="M109.22,99.38s7.96-7.46,12.16-5.18,5.93,9.63,5.99,14.96,19.02-57.53,16.09-59.44-35.63,47.06-35.71,48.71,1.47.95,1.47.95Z"/>
    <path class="st3" d="M88.09,141.42s4.94-.74,8.45.97,7.33,4.76,7.35,6.7-3,8.67-3,8.67l-17.36-8.43,4.56-7.91Z"/>
    <path class="st0" d="M85.85,191.68c1.49-5.54,2.79-10.7,4.4-13.53,1.62-2.83,4.99-4.32,6.14-6.18,1.14-1.86,5.24-16.74,5.24-16.74,0,0-.22-2.03-6.17-5.17s-10.89-2.88-10.89-2.88c0,0-8.09,13.19-8.85,14.75s-.04,5.04-1.36,7.77-7.54,10.08-9.07,12.23-34.8,68.67-34.8,68.67c0,0-.27,1.55.43,3.58s9.48,6.29,14.05,7.79c4.58,1.5,7.09,1.28,8.05.29.96-.98,31.35-65.05,32.83-70.59ZM52.13,244.24c-2.61.9-4.07.44-6.13-1.77-2.06-2.21-1.13-5.13-1.13-5.13,0,0,2.47-4.1,7.26-1.54,4.78,2.56,2.61,7.53,0,8.44Z"/>
  </g>
  <path class="st4" d="M150.5,36.16s-3.89,4.14.37,5.45,4.27,2.07,5.44-1.12c1.18-3.2.23-6.67-1.45-7.11s-2.25,2.3-2.25,2.3l-2.12.48Z"/>
  <path class="st4" d="M153.53,23.69s2.33,4.52,3.66,1.78-.19-3.48-1.41-4.08-2.25,2.3-2.25,2.3Z"/>
  <path class="st4" d="M153.28,28.09s1.56,3.77,3.66,1.78,1.78-3.66,1.78-3.66l-5.43,1.88Z"/>
  <path class="st4" d="M143.86,25.78c-1.46,4.56-1.28,7.29,2.2,6.34s1.95-1.69,3.43-4.74,2.36-5.64.54-5.77-6.17,4.16-6.17,4.16Z"/>
  <path class="st4" d="M135.11,29.06c-.73,2.28.83,6.05,2.17,4.07s1.47-3.81,1-5.16-3.17,1.1-3.17,1.1Z"/>
  <path class="st4" d="M148.65,33.75c.91.44,3.79-.04,2.72-.94s-2.72.94-2.72.94Z"/>
  <path class="st4" d="M141.06,33.08s-.11,3.34,1.38,1.8-1.38-1.8-1.38-1.8Z"/>
  <path class="st4" d="M146.38,34.54s-.57,2.73,1.23,1.35,3.58-5.04,1.01-4.41-2.24,3.06-2.24,3.06Z"/>
  <g>
    <path class="st8" d="M98.23,268.3s4.94-5.86,6.51-5.22,7.15,4,8.38,3.22,4.13-1.61,5.24-2.99,3.95-3.88,6.15-2.99c2.2.89,1.97,1.9,5.72.31,3.75-1.59,12.05-6.26,13.5-7.14s2.37-1.78,2.94-3.19,3.04-3.89,4.99-4.19,8.01-2.6,8.71-4.33,1.14-7.77.27-10.13,1.4-8.39.87-10.25c-.53-1.86.88-5.31,1.64-7.2s1.84-2.73,5.07-6.17c3.23-3.44,3.79-3.03,3.93-5.17s-.52-2.77.85-5.69,2.72-2.19,3.08-6.25c.37-4.06.71-3.55.38-5.88-.33-2.33-2.49-4.67-1.18-9.26,1.31-4.59,2.67-4.77,3-8.29.33-3.52,2.19-8.99,2.19-8.99,0,0,2.13-3.89,3.57-2.03,1.44,1.86-2.04,5.94-2.04,5.94,0,0-.45,8.78-1.41,10.22s-2.43,1.03-2.1,4.27c.33,3.24,1.8,4.57,1.94,8.29s.28,7.43-.96,9.12-2.9.83-3.17,4.2-3.88,8.66-4.58,9.48-1.96,2.13-2.85,4.33-3.21,5.65-4.34,6.65c0,0,.78,2.14.32,5.98s-1.19,5.19.17,9.94c1.36,4.76.18,8.12-1.94,10.18s-4.29,1.55-5.8,2.58-1.61.81-3,2.44-2.4,1.4-3.19,2-3.21.71-3.72,1.96-1.86.53-3.98,2.59c-2.12,2.07-9.66,6.68-13.6,6.92-3.93.23-4.87-1.06-5.88-.38s-2.56,1.34-3.6,2.56-4.13,1.61-6.12,2.45-5.88-.38-8.24-1.33c-2.35-.96-2.89-.99-3.96-.15s-3.75,1.59-3.75,1.59Z"/>
    <path class="st1" d="M185.51,144.76c.13-.31,6.4-9.47,4.78-11.47s-3.48-3.73-5.04-2.29c-1.56,1.44-3.99,4.72-2.4,8.9,1.59,4.18,2.66,4.86,2.66,4.86Z"/>
    <path class="st1" d="M192.72,141.11c.38-.33,7.91-8.37,8-9.8s-2.57-1.78-4.25-.63-2.66,2.94-4.1,6.5.36,3.92.36,3.92Z"/>
    <path class="st1" d="M205.75,132.74c.59-.25,5.17-1.32,8.8-2.77,3.64-1.45,6.71-3.01,4.96-5.3s-.07-3.44-5.44-2.82c-5.37.62-6.11.33-7.65,2.62s-4.21,7.07-2.98,7.93,2.31.33,2.31.33Z"/>
    <path class="st2" d="M195.55,126.04c.7-.28,8.17-5.1,8.89-7.48s-5.59-6.66-7.39-6.41-3.92.36-4.76,3.92-.23,11.37,3.26,9.98Z"/>
    <path class="st5" d="M195.21,122.98c.17-.42,4.08-5.54,3.44-7.87-.64-2.33-5.98-4.5-8.63-2.16s-1.55,8.03-.03,10.59,1.58,3.32,2.67,3.03,2.56-3.59,2.56-3.59Z"/>
    <path class="st2" d="M186.35,127.06s6.79-10.41,5.29-12.73-3.11-2.85-5.12-4.52-4.04-5.06-6.1-4.18c-2.06.87-7.19,3.91-3.99,9.23,3.2,5.32,3.83,8.87,6.55,11.19s3.37,1,3.37,1Z"/>
    <path class="st10" d="M186.86,134.83s-2.18,19.48-3,20-1.56.83-1.57-.64,4.57-19.36,4.57-19.36Z"/>
    <path class="st10" d="M197.38,132.64s-8.78,10.21-10.31,13.98-4.86,6.56-4.15,7.82.94.99,1.39-.41,9.11-14.34,9.79-16.02,3.28-5.37,3.28-5.37Z"/>
    <path class="st10" d="M214.96,124.78s-7.17,4.16-10.38,7.85c-3.21,3.7-7.98,6.76-10.1,10.16-2.12,3.41-6.46,7.5-7.56,9.61s1.08,2.15-1.55,2.91-2.89-.69-2.45-.87,9.18-10.29,9.62-11.09,5.03-6.37,9.11-9.83,11.79-9.23,13.3-8.74Z"/>
    <path class="st10" d="M181.43,110.07s2.34,14.97,2.64,17.53-2.42,22.18-2.83,24.09,1.05,3.11,1.05,3.11c0,0,3.33-24.13,3.16-26.39s-.68-10.03-1.63-12.49-2.38-5.84-2.38-5.84Z"/>
    <path class="st10" d="M193.27,115.12s-.35,10.47-.7,13.13c-.35,2.66-4.55,15.71-5.51,18.37s-1.3,8.01-3.27,7.45c-1.97-.56.7-2.03.83-2.35s6.3-22.43,6.58-23.42,2.06-13.18,2.06-13.18Z"/>
    <path class="st10" d="M199.77,115.93s-4.21,7.68-6.11,13.25c-1.9,5.57-9.8,25.65-9.8,25.65,0,0-2.25.43-1.57-.64s14.9-38.2,17.48-38.25Z"/>
    <path class="st1" d="M187.43,154.44s1.66,3.72-.19,4.68c-1.85.96-2.64-.1-4.57-.15s-4.65-1.76-4.94-2.86.72-4.46,1.35-4.82,3.9,0,4.21.73,1.88-1.92,2.06-.87,2.08,3.28,2.08,3.28Z"/>
  </g>
  <path class="st8" d="M44.99,168.97c-.39,0-7.12,4.14-8.93,4.14s-1.81-.13-2.2-1.04-.52-2.33-.39-5.05,1.04-5.31,1.04-6.73-.13-2.2-.52-4.01.78-4.79.78-4.79c0,0,2.98-6.34,4.66-7.9s2.72-2.59,3.5-4.66.26-2.85.26-2.85c0,0-.39-5.18-.39-6.99s-.52-2.85,0-4.4,3.37-5.05,2.98-7.12-.78-3.63-.26-4.79.13.13,1.55-2.2.13-5.31-.78-6.99-1.81-3.88-2.85-4.92-.52-.52-1.17-2.59-2.33-2.98-1.94-4.4.65-4.4-.13-8.8-2.59-5.18-2.59-5.18h-1.55s1.42,0,2.07,2.46.91,5.7.52,8.42.78,6.09.91,8.03.26,1.55.91,2.72.39.26,1.29,2.46.13,1.29,1.29,4.14.65,4.4-.26,6.99-2.46,5.18-2.85,7.64-.26,8.8.78,10.75.78,5.31,0,6.47-.26.91-2.2,2.98-4.27,5.44-5.05,9.06-1.68,5.57-1.17,6.6-.26,5.83-.13,7.25-1.04,3.24-1.68,4.79-.91,2.72-.91,2.72l1.42-1.42.78-1.29s-.78,4.92,1.55,5.44,4.01.65,4.92,0,6.73-4.92,6.73-4.92Z"/>
  <path class="st1" d="M32.05,51.79s-.52-5.96-1.81-6.34-2.59,1.29-2.46,1.68,2.98,8.93,4.01,7.9.26-3.24.26-3.24Z"/>
  <path class="st1" d="M39.43,63.83s5.05,5.7,8.68,3.88,2.2-4.79.91-5.83-6.09-2.46-7.64-1.94-5.18,2.85-1.94,3.88Z"/>
  <path class="st2" d="M39.3,58.52s5.05,2.72,5.18,1.68-.91-3.24-2.59-4.01-4.01.65-3.75,1.42,1.17.91,1.17.91Z"/>
  <path class="st2" d="M29.98,58.26c-.38.05-7.38,2.46-8.8.26s-.26-4.14,1.17-5.18,1.81-2.59,3.5-2.59,2.59.26,3.37,2.46,1.68,4.92.78,5.05Z"/>
  <path class="st5" d="M30.1,51.14s-1.04-3.75-2.72-6.34-2.98-6.34-3.88-4.27,2.33,7.51,2.33,7.51c0,0,4.53,7.38,4.27,3.11Z"/>
  <path class="st5" d="M34.25,47.9s-1.68-3.5-1.29-8.03-1.29-6.21,3.11-8.16,5.44-4.27,5.7-.78,3.24,1.29.39,7.9c-2.85,6.6-3.88,8.8-4.79,10.23s-2.98,2.85-2.98,1.68-.13-2.85-.13-2.85Z"/>
  <path class="st4" d="M45.6,65.21s0,3.01,1.41,3.21,1-1.81,1-1.81c0,0-.6-.8-1-2.21s-1.41.8-1.41.8Z"/>
  <path class="st10" d="M35.15,45.31s-.26,15.54-.26,16.44,1.17-.39,1.17-.39c0,0-.26-3.75,1.94-4.27s3.37.78,3.37.78c0,0-1.42-.78-2.46-.13s-1.42,1.42-1.68,2.2.52,2.07.52,2.07c0,0,8.42,1.29,8.03,1.42s-8.68-.52-8.68-.52c0,0-.65-.52-1.17,1.55s1.29,8.68,1.42,10.62.26,2.59.26,2.59h-1.55s-2.07-8.55-2.85-10.23-.26-5.57-.26-5.96-2.46-2.85-2.98-3.24-5.44-2.85-5.44-2.85c0,0,1.68.39,3.63,1.29s4.66,3.5,4.66,3.5c0,0-.81-4.26-1.98-6.58-.15-.3-.31-.57-.48-.8-1.42-1.94-3.63-5.83-3.63-5.83,0,0,4.66,5.96,5.96,9.84l1.29,3.88s.91-21.36.91-22.92,2.46-4.4,2.46-4.4c0,0-1.68,2.85-1.81,4.66s-.39,7.25-.39,7.25Z"/>
  <path class="st4" d="M47.41,115.01s-5.62,1.61-4.02,3.21,2.41,3.41,3.82,2.21,3.01-2.21,2.81-3.82-2.61-1.61-2.61-1.61Z"/>
  <path class="st4" d="M48.41,110.79s.8,1.81,1.41.6.4-2.81-.2-3.01-1.2,2.41-1.2,2.41Z"/>
  <path class="st4" d="M227.99,101.43s1.81-.4,1.2-2.21-2.01-2.61-2.01-1.81.8,4.02.8,4.02Z"/>
  <path class="st4" d="M229.19,96.01s2.81,2.41,2.81,0-2.21-5.62-3.01-4.02.2,4.02.2,4.02Z"/>
  <path class="st4" d="M207.91,84.96s2.41.4,1.41-1-2.61-1-2.01,0l.6,1Z"/>
</svg>