<?xml version="1.0" encoding="UTF-8"?>
<svg id="Vrstva_1" xmlns="http://www.w3.org/2000/svg" xmlns:xlink="http://www.w3.org/1999/xlink" version="1.1" viewBox="0 0 141.73 141.73">
  <!-- Generator: Adobe Illustrator 30.1.0, SVG Export Plug-In . SVG Version: 2.1.1 Build 136)  -->
  <defs>
    <style>
      .st0 {
        fill: none;
      }

      .st1 {
        fill: #30693a;
      }

      .st2 {
        fill: #ba2724;
      }

      .st3 {
        fill: #ce292a;
      }

      .st4 {
        fill: #8f1f18;
      }

      .st5 {
        fill: #377642;
      }

      .st6 {
        fill: #d4333d;
      }

      .st7 {
        fill: #a92420;
      }

      .st8 {
        fill: #2c6236;
      }

      .st9 {
        fill: #706f6f;
      }

      .st10 {
        fill: #3b8048;
      }

      .st11 {
        clip-path: url(#clippath);
      }
    </style>
    <clipPath id="clippath">
      <rect class="st0" x="9.21" y="1.42" width="123.36" height="123.36"/>
    </clipPath>
  </defs>
  <g>
    <path class="st9" d="M63.22,124.5v1.48l-.17.06c-.14-.06-.28-.08-.44-.08-.46,0-.88.3-1.26.9v.76l.08,2.46h-1.6l.1-2.3-.07-3.17,1.51-.13v1.09s.08,0,.08,0c.39-.72.88-1.08,1.46-1.08.07,0,.17,0,.3.02Z"/>
    <path class="st9" d="M67.54,124.8c.35.28.52.66.52,1.16,0,.14-.02.6-.07,1.37,0,.22-.02.45-.04.69-.02.24-.02.44-.02.61,0,.14.02.23.06.28.04.05.11.08.22.08.08,0,.18-.02.31-.05l.12.1-.14.84c-.26.17-.55.27-.88.3-.24-.02-.44-.11-.6-.26-.16-.15-.27-.35-.32-.62h-.08c-.4.42-.81.72-1.24.89-.58,0-1.03-.16-1.36-.46s-.49-.7-.49-1.21c0-.4.1-.71.31-.94.2-.23.51-.38.93-.46l1.84-.35v-.49c0-.52-.26-.78-.77-.78-.25,0-.51.06-.79.17s-.59.29-.93.53l-.12-.07-.18-1.06c.34-.22.71-.38,1.1-.5s.78-.17,1.18-.17c.62,0,1.1.14,1.45.41ZM65.32,127.84c-.13.03-.22.09-.28.16-.06.08-.09.19-.09.34,0,.21.06.37.17.49.11.12.27.17.47.17.31,0,.64-.18.98-.55l.02-.89-1.27.28Z"/>
    <path class="st9" d="M71.58,124.49l-.1,3.12.07,2.14c0,.63-.15,1.16-.46,1.57-.3.42-.8.78-1.5,1.09l-.55-.71v-.14c.36-.2.62-.44.77-.71.15-.27.23-.62.23-1.06l.02-2.03-.05-2.27h-.97l-.1-.1.08-.86h1.01l1.49-.08.05.04ZM71.24,121.97c.14.14.21.34.21.6,0,.27-.08.49-.23.65-.15.16-.36.24-.62.24s-.47-.07-.61-.22c-.14-.14-.21-.35-.21-.61s.08-.48.23-.64c.16-.16.37-.24.64-.24.25,0,.44.07.58.22Z"/>
    <path class="st9" d="M76.17,124.46c.26.05.49.13.69.22l-.26,1.27-.13.06c-.41-.22-.77-.34-1.09-.34-.37,0-.65.13-.85.4s-.3.64-.3,1.13c0,.56.11.99.32,1.28.22.3.52.44.92.44.36,0,.76-.1,1.2-.3l.12.1-.16,1.24c-.48.15-.97.23-1.48.23-.77,0-1.37-.25-1.8-.75s-.65-1.2-.65-2.09.24-1.65.71-2.18c.47-.52,1.13-.79,1.97-.79.26,0,.53.03.79.08ZM77.08,122.09c-.46.42-1.02.98-1.69,1.69h-.35c-.62-.69-1.18-1.25-1.68-1.69l.4-.61h.16c.53.42.96.78,1.31,1.1.31-.3.74-.66,1.3-1.1h.16l.41.61Z"/>
    <path class="st9" d="M82.03,127.48l-3.24.02c.07,1,.58,1.5,1.52,1.5.5,0,1.05-.14,1.66-.42l.13.08-.24,1.19c-.61.22-1.18.34-1.72.34-.88,0-1.57-.26-2.07-.77-.5-.51-.75-1.22-.75-2.12s.24-1.61.73-2.13c.49-.52,1.15-.79,1.98-.79.71,0,1.26.19,1.65.58.39.39.58.93.58,1.63,0,.18-.02.42-.06.7l-.18.19ZM80.88,126.41c0-.32-.07-.56-.22-.73-.14-.16-.36-.25-.64-.25-.31,0-.57.1-.78.31s-.35.5-.42.88l2.03-.05.02-.17Z"/>
  </g>
  <g class="st11">
    <path class="st7" d="M76.69,31.97s5.57,0,7.88,1.09l2.31,1.09-1.22,2.31-8.97,2.31-2.72-3.4,2.72-3.4Z"/>
    <path class="st7" d="M64.32,34.14s-6.93-1.9-14.68,2.18c-7.75,4.08-16.58,9.65-21.61,17.4-5.03,7.75-4.49,24.88-1.09,33.3,3.4,8.43,7.07,11.96,16.18,16.31,0,0,2.99.82,6.66,1.22,0,0,4.08,5.03,12.1,5.44,8.02.41,9.83-.68,12.73-.95,2.9-.27,11.87.41,23.15-4.35,11.28-4.76,19.71-17.4,19.44-25.01-.27-7.61-4.35-29.63-14-37.11s-6.12-6.25-16.31-8.43c0,0-5.16.27-9.24,3.4l-13.32-3.4Z"/>
    <path class="st2" d="M43.93,41.48s-8.02,12.42-10.6,20.01c-2.58,7.59-.81,16.42.82,17.24,1.63.82,5.44-12.51,7.48-16.45,2.04-3.94,7.21-12.91,10.19-14.82,2.99-1.9,4.89-3.53,4.89-3.53,0,0-8.83,20.25-9.79,29.09-.95,8.83,6.25,12.5,11.69,11.69,5.44-.81,6.39-35.21,7.07-39.15.68-3.94,3.81-6.8,3.81-6.8,0,0-2.45,35.75-.54,42.14,1.9,6.39,9.92,3.53,11.49-5.03,1.56-8.56,2.15-25.83,0-31.67,0,0-2.38-5.44-3.06-5.44,0,0,5.44-1.36,8.7,9.38,3.26,10.74,6.66,22.7,6.93,34.39,0,0,7.61,4.08,10.88-3.81,3.26-7.88.14-18.62-2.04-26.1-2.17-7.48-12.41-15.25-16.72-15.09,0,0,12.37,1.22,18.62,11.01,6.25,9.79,6.39,14.68,7.75,14.54,1.36-.14-3.68-22.56-15.86-26.5-12.18-3.93-17.99.94-17.99.94,0,0-15.36-7.75-28-1.22,0,0-4.6,3.4-5.71,5.17"/>
    <path class="st4" d="M67.18,54.53s-2.72,17.67-1.36,28.82c1.36,11.15,4.89,18.24,4.21,17.7-.68-.54-5.71-13.08-5.3-25.58.41-12.5,2.45-20.93,2.45-20.93"/>
    <path class="st4" d="M51.27,51s-9.38,12.23-10.06,27.73c-.68,15.5,8.56,25.83,8.56,25.83,0,0-9.44-4.36-9.92-20.53-.49-16.17,9.51-32.49,11.42-33.03"/>
    <path class="st4" d="M88.66,62.96s7.48,24.85-1.77,39.28c0,0,4.96-12.72,2.31-32.62-2.65-19.91-.54-6.66-.54-6.66"/>
    <path class="st4" d="M104.69,54.53s6.55,10.87,7.01,20.93c.46,10.06-1.01,16.22-3.51,20.25,0,0,4.42-11.43,2.07-25.56,0,0-3.67-13.18-5.57-15.63"/>
    <path class="st3" d="M63.64,35.37s-2.99-.68-6.8,0c0,0-3.67,2.45-1.9,2.45h1.77s2.72-1.12,5.17-1.38c2.45-.26,1.77-1.07,1.77-1.07"/>
    <path class="st6" d="M64.29,40.4s-2.1-.14-3.59,1.9-2.04,5.85-.54,5.85,2.16-1.36,3.12-1.36c.96,0,1.51-.54,2.05-2.51.54-1.97-1.03-3.87-1.03-3.87"/>
    <path class="st3" d="M76.15,41.08s-1.77,1.49-1.77,3.19,1.11,4.89,3.53,3.88c2.42-1.02,1.9-1.36,1.7-3.94-.2-2.58-3.47-3.13-3.47-3.13"/>
    <path class="st3" d="M87.43,40.39s2.31-.54,4.08,1.63c1.77,2.17.54,2.64,0,2.68-.54.04-6.29-4.55-4.08-4.31"/>
    <path class="st3" d="M87.84,36.44s4.21-.26,6.39,1.37c0,0-2.99-.17-5.03-.69-2.04-.53-1.36-.68-1.36-.68"/>
    <path class="st3" d="M69.54,52.9c.02.41-2.67,22.71.72,24.27,3.38,1.56,6.51-4.62,6.78-12.13.27-7.51-1.17-8.6-2.15-7.1-.98,1.5-1.14,14-2.08,15.77-.94,1.77-2.73-.22-2.74-1.81,0-1.59-.53-18.99-.53-18.99"/>
    <path class="st3" d="M87.73,48.34s6.77,16.52,6.5,22.91c-.27,6.39,1.49,5.3,1.9,2.85.41-2.45-1.74-14.41-4.2-19.57-2.46-5.17-4.58-7.14-4.2-6.19"/>
    <path class="st6" d="M56.44,61.49s-2.58,2.61-2.58,10.4,3.94,8.23,4.21,5.9c.27-2.33-.41-10.62,0-13.2.41-2.58-1.06-3.9-1.63-3.1"/>
    <path class="st3" d="M49.51,42.52s-5.47,1-9.67,9.02c-4.2,8.02-6.24,16.18-4.2,16.04,2.04-.14,4.64-8.16,6.53-10.06,1.89-1.9,5.43-6.8,5.02-6.53-.41.27-3.81,1.31-5.57,4.05-1.77,2.74-1.78,3.59-1.78,3.59,0,0,2.45-7.3,5.72-10.53,3.27-3.23,5.72-5.09,5.72-5.59s-1.77,0-1.77,0"/>
    <path class="st5" d="M68.42,16.85s4.22,3.26,4.63,5c.41,1.73-2.08,2.96-2.08,2.96l-2.55-7.95Z"/>
    <path class="st1" d="M70.03,31.97c0-.54,0-8.16,1.83-10.74,1.84-2.58,10.4-9.38,11.35-9.52.95-.13,2.69.95,4.47,2.58,1.78,1.63,2.11,2.99.04,3.53-2.07.54-3.02-.27-5.46,2.45-2.45,2.72-3.14,8.43-4.36,10.06-1.22,1.63-3.94,5.7-3.94,5.7l-3.01-.98-.94-3.1Z"/>
    <path class="st5" d="M78.87,32.6c.08-.65,3.02-5.56,5.19-8.33,2.17-2.78,7.44-9.15,7.44-9.15,0,0-3.11-.21-5.27,1.8-2.16,2.01-8.58,8.58-8.32,11.07.26,2.49.96,4.61.96,4.61"/>
    <path class="st5" d="M58.14,15.11s2.38,8.16,3.8,9.69c1.43,1.53,5.09,5.2,5.76,6.83.67,1.63,0,5.49,0,5.49,0,0-4.43-6.71-6.17-8.65-1.73-1.94-6.08-12.35-3.39-13.36"/>
    <path class="st8" d="M71.47,21.92s.16,5.84,1.99,6.45c1.83.61,2.85.31,2.85.31,0,0-1.3,7.43-3,7.77-1.69.34-2.26-1.07-2.68-2.46-.42-1.39-1.06-11.38.83-12.07"/>
    <path class="st10" d="M47.88,30.3s.61-4,4.89-4.19c4.28-.19,9.08,2.97,10.96,4.19,1.89,1.22,3.51,6.12,3.51,6.12,0,0-.62-7.98,0-10.31.62-2.33,3.01-10.15,3.52-8.45.5,1.69.16,10.6.67,13.35.51,2.75.7,5.02,1.62,5.02s2.96-6.68,3.27-9.93,2.24-10.39,2.65-9.27c.41,1.12-.71,9.41,0,10.97.71,1.57,1.94,8.09-1.32,9.72l-.26.27s-1.7-.65-4.34,0c-2.64.65-4.25.34-5.05.24-.8-.1-.8-.22-1.87-.24,0,0-2.58-3.18-3.48-4.45-.9-1.27-4.4-5.56-8.18-5.61-3.78-.05-5.11.2-5.47,1.02-.36.82-1.12,1.53-1.12,1.53"/>
    <path class="st4" d="M24.5,66.36s-4.89,35.21,25.28,38.2l-4.22-4.76s-18.48,3.26-21.06-33.44"/>
    <path class="st4" d="M49.78,104.55s4.94,10.19,24.83,4.49c0,0,19.2,3.69,29.46-7.99,0,0-23.73,12.34-33.3,3.51,0,0-7.53,9.51-20.99,0"/>
    <path class="st4" d="M115.15,66.36s12.49,27.68-18.08,40.01l-3.49-1.03s28.35-5.54,21.56-38.98"/>
    <path class="st4" d="M39.86,84.03s.34,21.35,17.43,25.9v-1.68s-13.13-3.83-15.76-22.79l-1.68-1.43Z"/>
    <path class="st4" d="M99.74,38.77s15.98,10.48,17.47,34.94l-1.22-1.81s-1.09-16.14-16.25-33.13"/>
  </g>
</svg>