<?xml version="1.0" encoding="UTF-8"?>
<svg id="Vrstva_1" xmlns="http://www.w3.org/2000/svg" xmlns:xlink="http://www.w3.org/1999/xlink" version="1.1" viewBox="0 0 141.73 141.73">
  <!-- Generator: Adobe Illustrator 30.1.0, SVG Export Plug-In . SVG Version: 2.1.1 Build 136)  -->
  <defs>
    <style>
      .st0 {
        fill: none;
      }

      .st1 {
        fill: #e5a559;
      }

      .st2 {
        fill: #755213;
      }

      .st3 {
        fill: #845c17;
      }

      .st4 {
        fill: #b87f23;
      }

      .st5 {
        fill: #d59129;
      }

      .st6 {
        fill: #ae7821;
      }

      .st7 {
        fill: #706f6f;
      }

      .st8 {
        fill: #c98a27;
      }

      .st9 {
        fill: #c38625;
      }

      .st10 {
        clip-path: url(#clippath);
      }
    </style>
    <clipPath id="clippath">
      <rect class="st0" width="141.73" height="133.23"/>
    </clipPath>
  </defs>
  <g class="st10">
    <path class="st8" d="M19.5,89.75s-11.5-16.75-8.25-31.5,15.5-29.25,30.5-36,38.25-10.25,46.75-8l8.5,2.25s17.75,8.75,25.75,24.75,9,25.25,6,34.25c-3,9-14.25,25.75-34.25,30.5s-25.75,4.25-41.5,2.5-31.95-16.24-33.5-18.75"/>
    <path class="st4" d="M13.08,52.22s1.39,13.35,2.45,17.13c1.06,3.78,6.79,10.93,11.93,15.04,5.14,4.1,25.33,11.23,33.79,10.86,8.46-.37,11.3-3.93,15.56-2.22,4.26,1.71,19.55-1.54,28.7-6.15,9.14-4.6,20.08-19.08,20.01-20.42-.07-1.35-2.68,27.1-14.02,30.29-11.34,3.19-56.48,8.25-65.76,6.9-9.28-1.35-43.89-27.41-32.65-51.43"/>
    <path class="st4" d="M112.9,81.22s6.46-13.07,3.78-18.4c-2.68-5.33-12.26-1.73-12.26-1.73,0,0-6.6-7.93-2.51-6.51,4.09,1.42,23.09-4.63,23.4,13,.31,17.63-12.41,13.64-12.41,13.64"/>
    <path class="st9" d="M79.98,72.07s-.38-3.76,3.59-3.76,10.47,1.3,12.1,3.15c1.63,1.85,6.19,8.48,6.16,10.29-.03,1.81,1.31,5.03-1.74,6.04-3.04,1.01-6.01,2.47-8.9,1.87-2.89-.6-9.64-1.35-9.64-1.35,0,0-1.97.81-3.24-2.22-1.26-3.03-.65-14.25,1.67-14.01"/>
    <path class="st5" d="M27,36.5s18.25-15.25,37-16.25,20.75-1,26.5,1.25,7,2.75,8.75,5,11,10.25,13.25,11.5,8.75,5.75,10.75,13.88,4,20.38,0,28.12-6.95,14.03-6.95,14.03c0,0,20.7-16.03,12.95-41.03S99.74,12.38,78.99,13.57c-20.74,1.18-41.18,8.68-48.5,15.56-7.32,6.88-8.25,10.12-6.5,10.12s3-2.75,3-2.75"/>
    <path class="st4" d="M110.91,98.9s9.58-7.94,12.06-10.52c2.47-2.58,14.05-15.28,5.81-36.85,0,0,.4,14.79.01,16.54-.39,1.74-2.58-1.47-3.48-.49-.9.98-8.92,24.31-10.45,25.07-1.53.76-1.08,1.49-1.08,1.49l-2.86,4.77Z"/>
    <path class="st6" d="M29.75,91.25s10.75,8.5,27,10,44-1.75,50.75-5,10.13-5,10.13-5c0,0-8.38,16.99-39.13,18.5s-49.43-7.98-55.26-15.71c-5.83-7.74-8.74-13.68-8.74-13.68,0,0-3.81-9.36-3.75-14.36.06-4.99-.5,3.25,7,13.5,7.5,10.25,12,11.75,12,11.75"/>
    <path class="st4" d="M88,19.5s2.25.38,2.5,2,.12,2.88,2.38,3.5,4.33.43,4.38,0-2.38-3.12-4.62-4.25-4.75-2.39-4.62-1.25"/>
    <path class="st4" d="M88.82,20.87s-.56.88,0,2.88.68,2.25,2.06,2.5,2.25-1.25,3.25,0,2.88,4.25,3.12,4.38c.25.12,7.5,8.25,7.5,8.25,0,0-7.71-6.51-8.75-9-1.04-2.49-1.88-3.12-2.62-3.12s-4.86.62-4.8-.25-.58-3-.58-3l.82-2.62Z"/>
    <path class="st9" d="M21.62,75.25s.73,3.25,1.62,5.75c.88,2.5.38,2.12,1.76,4.12s1.75,2.75,3,3.5,1.88.5,1.25.75-3.27-1.12-6.01-6.12c-2.74-5-1.62-8-1.62-8"/>
    <path class="st9" d="M16.38,51.87s-.75,3.62,0,5.75.62,1.94.5,4.03c-.12,2.09,1.62,7.09,1.62,7.09,0,0-2.79-5.75-2.46-8.44.33-2.69-1.54-8.06.33-8.44"/>
    <path class="st4" d="M107.6,78.72s2.75-3,3.12-6.5-1.56-6.38-1.56-6.38c0,0,2.66,1.63,1.61,8.76-1.05,7.13-4.17,7.13-4.3,6.25s1.12-2.12,1.12-2.12"/>
    <path class="st2" d="M59.08,105s.33.92,1.08.75.92,0,.33-.75c-.58-.75-1.42,0-1.42,0"/>
    <path class="st2" d="M62.75,104.08s.72.67,1.44,0c.73-.67.77-1.17,0-1.17s-1.86.93-1.44,1.17"/>
    <path class="st2" d="M71.33,105.77s.33-1.35,1.17-1.1,0,1.1-.58,1.1h-.58Z"/>
    <path class="st2" d="M82.25,101.66s.33-1.67,1.42-1.67.58,1.67-.42,1.67h-1Z"/>
    <path class="st2" d="M87.92,101.25s1.42-1.75,1.67-.75-2.41,1.51-1.67.75"/>
    <path class="st2" d="M97.42,100s1.75-1.83,1.58-.75-2,1.16-1.58.75"/>
    <path class="st3" d="M108.33,94.75s.92-2.08,1.58-1.67c.67.42-1.58,2.17-1.58,2.17v-.5Z"/>
    <path class="st3" d="M119.83,75.66s1.5-2.92,1.58-1.92c.08,1-1.58,3.08-1.58,1.92"/>
    <path class="st4" d="M127.33,73.54s-.58,2.1,0,1.24c.58-.86,0-1.24,0-1.24"/>
    <path class="st3" d="M99.75,90.5s-.75,2.83,0,2,.92-2.42,0-2"/>
    <path class="st3" d="M88.69,88.08s-.08.92.91.5c.98-.42-.91-.5-.91-.5"/>
    <path class="st3" d="M90.67,89.75s.75.06.5-.35-.5.35-.5.35"/>
    <path class="st3" d="M91.92,87.2s1.92-.45.83-.62c-1.08-.17-.83.62-.83.62"/>
    <path class="st3" d="M79.33,95.25s2,.92,2.92,0c.92-.92-4.59-.41-2.92,0"/>
    <path class="st3" d="M69.42,95.65s1.14.74,1.07-.46c-.07-1.2-1.24-.13-1.07.46"/>
    <path class="st3" d="M69.4,97.83s.57.58.55,0c-.03-.58-.55,0-.55,0"/>
    <path class="st3" d="M58.58,95.88s.52.87,1.38.7c.87-.17,1.28-1.33,1.28-1.33,0,0-.92.45-1.75.02-.83-.43-.92.62-.92.62"/>
    <path class="st2" d="M46.5,100.23s1.31.56,1.33,0-1.33,0-1.33,0"/>
    <path class="st2" d="M37.67,99.56s1.25,1.1,1.25.43-1.25-.43-1.25-.43"/>
    <path class="st2" d="M29.5,95.65c-.3-.31.59,2.01,2,2.18,1.42.17,2.25,1.07,2.25,1.07,0,0-.83-1.01-1.75-1.62-.92-.62-.76.2-2.5-1.62"/>
    <path class="st3" d="M53.92,85.91s0,.79.92.64c.92-.14.42-.31,0-.64-.42-.33-.92,0-.92,0"/>
    <path class="st3" d="M45.75,88.38s1.83-.31,1.42-1.18c-.42-.87-2.17.49-1.42,1.18"/>
    <path class="st3" d="M63.17,90.43s2.34.76,1.59,0c-.75-.76-1.59,0-1.59,0"/>
    <path class="st3" d="M72.85,83.83s.82.17,1.07,0c.25-.17.5-.92,0-1-.5-.08-1.07,1-1.07,1"/>
    <path class="st3" d="M67.33,78.25s1.25.75,1.33,0c.08-.75-1.5-1.58-1.33,0"/>
    <path class="st3" d="M62.66,77.96s.67,1.87,1.05.62c.38-1.25-1.05-.62-1.05-.62"/>
    <path class="st3" d="M84.28,75.25c-.53.25-2.69,1.85-2.03,2.72s1.72.31,2.03-.62,0-2.1,0-2.1"/>
    <path class="st3" d="M30.67,76.82s1.67.91,1.42,0-1.83-1.09-1.42,0"/>
    <path class="st3" d="M44.33,76.01s.46,2.1,1.23,1.34c.77-.77-1.38-1.86-1.23-1.34"/>
    <path class="st3" d="M45.73,72.66s1.02,2.25,1.44.87c.42-1.37-1.68-1.34-1.44-.87"/>
    <path class="st3" d="M45.03,66.08s-.69,1.58,1.47,1.5c2.17-.08.75-2.25,0-2.25s-1.47.75-1.47.75"/>
    <path class="st3" d="M72.85,63.66s-.71,2,.68,1.67c1.39-.33.96-1.5.68-1.67-.29-.17-.07-.92-.68-.83-.61.08-.68.83-.68.83"/>
    <path class="st3" d="M102,73.54s-.25.73.42.72c.67-.01.67-1.08.67-1.08,0,0,.37,1.87-.56,1.6-.94-.28-.52-1.24-.52-1.24"/>
    <path class="st3" d="M98.18,65.83s.86-4.6,1.71-3.01c.85,1.59-.29,5.51-.88,4.76-.6-.75-.83-1.75-.83-1.75"/>
    <path class="st3" d="M93.42,61s.83,2.07,1.17.66c.33-1.41-.42-1.45-.58-1.34-.17.1-.58.69-.58.69"/>
    <path class="st3" d="M90.94,65.33s-.76,2.33.28,1.58c1.03-.75-.28-1.58-.28-1.58"/>
    <path class="st4" d="M125.5,58.41s.58-.25,0-.83c-.58-.58,0,.83,0,.83"/>
    <path class="st4" d="M117.63,40s2.02,2.11,1.04,2.08c-.99-.02-1.04-2.08-1.04-2.08"/>
    <path class="st4" d="M122.67,47.66s.67-.92,0-1.58c-.67-.67,0,1.58,0,1.58"/>
    <path class="st3" d="M100.83,51.87s-.35,3.29,1.07,2.71c1.43-.58-.29-3.08-.56-3.08s-.52.38-.52.38"/>
    <path class="st3" d="M112.92,43.83s1.5,3.5,1.5,2.13-1.73-2.64-1.5-2.13"/>
    <path class="st3" d="M80.58,51.5s1.33,1.33,1.54.38c.21-.96-1.79-1.54-1.54-.38"/>
    <path class="st3" d="M65.75,56.58c.08.25-1.08,3.17,0,2.58,1.08-.58,1.5-1.92,1.08-2.58-.42-.67-1.08,0-1.08,0"/>
    <path class="st3" d="M76.25,43.71s.31,2.03.86,1.28c.55-.75.22-2.15-.86-1.28"/>
    <path class="st3" d="M99.83,42.08s1.17.33.96,0c-.21-.33-.96-.58-.96,0"/>
    <path class="st4" d="M103.5,29.87s.92,1.21.92.46-.92-.46-.92-.46"/>
    <path class="st4" d="M100.33,23.08s4.17,2.17,5.09,3.33c.92,1.17,1.67,1.83,1.67,1.83,0,0-1.59-2.69-2.33-2.85-.75-.16-4.42-2.32-4.42-2.32"/>
    <path class="st3" d="M82.14,32.83s.19.92.61,1.08c.42.17.92,0,.92,0,0,0-2.47,1.58-1.53-1.08"/>
    <path class="st3" d="M75.08,26.5s.96-1.08,1.73-.25c.77.83-.48,1.25-.56,1.17s-1.56-.58-1.17-.92"/>
    <path class="st3" d="M62.32,38.16s-.93-1.17,0-1.33c.93-.17,1.26-.42,1.43.67.17,1.08-1.43.67-1.43.67"/>
    <path class="st3" d="M68.08,46.28s.75,1.51,1.08.53c.33-.98-1.08-.53-1.08-.53"/>
    <path class="st3" d="M54.42,45.16s1.5,2.34,1.83.79c.33-1.54-.67-2.1-.92-1.65-.25.44-.92.86-.92.86"/>
    <path class="st3" d="M50,52.22c.08.94.25,2.07.83,1.55.58-.52.58-.71.58-.71,0,0-1.17,1.94-1.42,1.27s0-2.11,0-2.11"/>
    <path class="st3" d="M52,57.93s.5.74.92.49l.42-.25s-1.25,1.61-1.33-.24"/>
    <path class="st3" d="M35.83,60.27s.42,1.07.92.94c.5-.13.92-1.39.67-1.97-.25-.58-.67-.86-1.58,1.03"/>
    <path class="st3" d="M22.17,57.44s1.15,1.09,1.07.32c-.07-.77-.99-.88-1.07-.32"/>
    <path class="st3" d="M24.75,58.03s.75,1.46.83.33c.08-1.12-.83-.33-.83-.33"/>
    <path class="st3" d="M26,44.3s-2.08.84-.83,1.02c1.25.18.83-1.02.83-1.02"/>
    <path class="st3" d="M35.83,45.16s-.09,2.09.83.79c.92-1.29-.83-.79-.83-.79"/>
    <path class="st3" d="M18,61.22s.42-.49.5.43c.08.93-.17,1.59-.5,1.51s0-1.94,0-1.94"/>
    <path class="st3" d="M26.67,83.9s.5,2.09.75,1.26-.75-1.26-.75-1.26"/>
    <path class="st3" d="M30.25,83.9s-.06,1.53.35.73c.4-.8-.35-.73-.35-.73"/>
    <path class="st3" d="M24.08,71.66s1.17,2.33,1.09,1.08-1.09-1.08-1.09-1.08"/>
    <path class="st6" d="M102.88,64.93s9.91-5.45,11.26-1.7c1.35,3.75,3.64,5,1.68,7.87-1.95,2.88-4.54,4.45-4.54,4.45,0,0,8.47-3.32,7.59-8.07-.88-4.75.41-7.31-4.73-7.66-5.15-.34-7.31-.41-8.48,0-1.17.41-2.79,5.11-2.79,5.11"/>
    <path class="st3" d="M62.66,52.22c.84-.22,5.07-2.77,7.83-1.37,2.76,1.4,5.55,2.5,5.55,2.5,0,0-4.3-4.6-8.04-4.35-3.75.25-5.34,3.22-5.34,3.22"/>
    <path class="st3" d="M31.59,82.82c-1.34,1.08-1.63,1.29.51,3.73,2.14,2.44,1.55,2.37,3.72,3.53,2.17,1.16,1.5,1.49,3.09,1.45,1.58-.04,3.33,1.11,3.33,1.11,0,0-3.09.68-6.42-1.11-3.33-1.79-7.62-9.39-5.35-9.22,2.27.17,1.11.5,1.11.5"/>
    <path class="st9" d="M47.83,77.77s9.42,4.98,13.42,2.98c4-2,4.82-5.68,4.04-9.09-.79-3.41-4.8-4.41-9.92-2.91-5.12,1.5-6.87,1.03-7.53,2.91-.67,1.88,0,6.11,0,6.11"/>
    <path class="st9" d="M68.08,51.16s1.85-1.98,4.01,1.05c2.16,3.03,4.69,3.85,2.92,5.82-1.77,1.96-3.43,5.42-6.35,1.98-2.92-3.43-.59-8.85-.59-8.85"/>
    <path class="st9" d="M33.75,50.85c1.36.27,5-2.12,9.5-1.86,4.5.26,8.17.95,8.17,2.51s-1.58,4.56,1.25,3.15c2.83-1.4-.14-9.41-2.78-9.65-2.64-.25-3.89-.11-7.64.32s-13,4.63-8.5,5.53"/>
    <path class="st9" d="M111.49,43.44s-4.67-6.51-1.83-5.98c2.84.54,8.9,7.87,8.62,10.2s-.7,4.9-2.24,2.87c-1.54-2.04-4.55-7.09-4.55-7.09"/>
    <path class="st1" d="M54.42,17.77s30.88-11.04,49.08,2.02c0,0,11.94,7.88,16.33,14.66,4.39,6.78,6.24,10.37,6.24,10.37,0,0-14.96-15.91-16.41-17.39-1.45-1.48-2.51-3.53-6.51-4.34-4-.82-4.26-3.42-9.11-4.03-4.85-.62-14.99-2.92-24.64-2.3-9.65.61-17.26,3.2-18.75,4.13-1.49.93.43-2.38,3.76-3.1"/>
    <path class="st5" d="M27,36.5s8.21-2.05,13.28-3.82c5.07-1.77,4.47-.4,6.95-2.98,2.47-2.58,4.19-7.73,4.19-7.73,0,0-23.77,7.17-24.42,14.53"/>
    <path class="st4" d="M88.11,79.05s-.18,3.02,1.49,3.27c1.68.25,6.82,1.85,6.77-.71-.05-2.56-2.03-3.58-4.48-6.05-2.45-2.47-2.87-4.8-4.11-1.57-1.24,3.23.32,5.06.32,5.06"/>
  </g>
  <g>
    <path class="st7" d="M52.42,125.13c.37.48.56,1.14.56,1.99,0,.98-.24,1.74-.73,2.27-.49.53-1.16.8-2.03.8-.41,0-.86-.09-1.34-.28l-.84.3-.19-.16.08-2.28-.07-6.01,1.58-.12-.05,3.64h.07c.22-.22.44-.39.65-.52.21-.13.44-.25.7-.34.7,0,1.24.24,1.61.71ZM51.16,128.72c.22-.29.34-.73.34-1.32,0-.55-.09-.97-.27-1.26-.18-.29-.45-.43-.81-.43-.33,0-.67.17-1.03.5l-.02,1.37.02,1.36c.3.14.58.22.84.22.4,0,.71-.14.94-.43Z"/>
    <path class="st7" d="M57.4,124.5v1.48l-.17.06c-.14-.06-.28-.08-.44-.08-.46,0-.88.3-1.26.9v.76l.08,2.46h-1.6l.1-2.3-.07-3.17,1.51-.13v1.09s.08,0,.08,0c.39-.72.88-1.08,1.46-1.08.07,0,.17,0,.3.02Z"/>
    <path class="st7" d="M61.72,124.8c.35.28.52.66.52,1.16,0,.14-.02.6-.07,1.37,0,.22-.02.45-.04.69-.02.24-.02.44-.02.61,0,.14.02.23.06.28.04.05.11.08.22.08.08,0,.18-.02.31-.05l.12.1-.14.84c-.26.17-.55.27-.88.3-.24-.02-.44-.11-.6-.26-.16-.15-.27-.35-.32-.62h-.08c-.4.42-.81.72-1.24.89-.58,0-1.03-.16-1.36-.46s-.49-.7-.49-1.21c0-.4.1-.71.31-.94.2-.23.51-.38.93-.46l1.84-.35v-.49c0-.52-.26-.78-.77-.78-.25,0-.51.06-.79.17s-.59.29-.93.53l-.12-.07-.18-1.06c.34-.22.71-.38,1.1-.5s.78-.17,1.18-.17c.62,0,1.1.14,1.45.41ZM59.5,127.84c-.13.03-.22.09-.28.16-.06.08-.09.19-.09.34,0,.21.06.37.17.49.11.12.27.17.47.17.31,0,.64-.18.98-.55l.02-.89-1.27.28Z"/>
    <path class="st7" d="M70.48,130.07l.1-3.48c0-.59-.25-.89-.76-.89-.36,0-.74.16-1.13.48l-.04,1.44.07,2.45h-1.6l.1-3.48c0-.29-.05-.51-.19-.66-.13-.15-.32-.23-.57-.23-.35,0-.74.17-1.16.5v1.4l.07,2.46h-1.58l.08-2.3-.06-3.17,1.5-.13v.82h.08c.44-.4.92-.69,1.45-.86.9,0,1.47.3,1.72.9h.07c.46-.42.98-.72,1.56-.9.61,0,1.07.14,1.39.41.32.28.47.67.45,1.19l-.04,1.6.07,2.45h-1.6Z"/>
    <path class="st7" d="M78.1,125.13c.37.48.56,1.14.56,1.99,0,.98-.24,1.74-.73,2.27-.49.53-1.16.8-2.03.8-.41,0-.86-.09-1.34-.28l-.84.3-.19-.16.08-2.28-.07-6.01,1.58-.12-.05,3.64h.07c.22-.22.44-.39.65-.52.21-.13.44-.25.7-.34.7,0,1.24.24,1.61.71ZM76.84,128.72c.22-.29.34-.73.34-1.32,0-.55-.09-.97-.27-1.26-.18-.29-.45-.43-.81-.43-.33,0-.67.17-1.03.5l-.02,1.37.02,1.36c.3.14.58.22.84.22.4,0,.71-.14.94-.43Z"/>
    <path class="st7" d="M83.94,125.1c.43.48.65,1.17.65,2.08,0,.98-.23,1.72-.7,2.24-.46.52-1.13.77-2,.77-.82,0-1.44-.24-1.87-.72-.43-.48-.65-1.17-.65-2.08,0-.98.23-1.72.7-2.24s1.13-.77,2-.77c.82,0,1.44.24,1.87.72ZM81.13,125.85c-.17.26-.26.67-.26,1.24,0,.74.09,1.26.26,1.57.18.31.46.47.86.47s.66-.13.83-.38c.17-.25.26-.67.26-1.24,0-.73-.09-1.25-.27-1.57-.18-.32-.47-.47-.86-.47s-.66.13-.83.38Z"/>
    <path class="st7" d="M89,124.5v1.48l-.17.06c-.14-.06-.28-.08-.44-.08-.46,0-.88.3-1.26.9v.76l.08,2.46h-1.6l.1-2.3-.07-3.17,1.51-.13v1.09s.08,0,.08,0c.39-.72.88-1.08,1.46-1.08.07,0,.17,0,.3.02Z"/>
    <path class="st7" d="M93.33,124.8c.35.28.52.66.52,1.16,0,.14-.02.6-.07,1.37,0,.22-.02.45-.04.69-.02.24-.02.44-.02.61,0,.14.02.23.06.28s.11.08.22.08c.08,0,.18-.02.31-.05l.12.1-.14.84c-.26.17-.55.27-.88.3-.24-.02-.44-.11-.6-.26-.16-.15-.27-.35-.32-.62h-.08c-.4.42-.81.72-1.24.89-.58,0-1.03-.16-1.36-.46s-.49-.7-.49-1.21c0-.4.1-.71.31-.94.2-.23.51-.38.93-.46l1.84-.35v-.49c0-.52-.26-.78-.77-.78-.25,0-.51.06-.79.17s-.59.29-.93.53l-.12-.07-.18-1.06c.34-.22.71-.38,1.1-.5s.78-.17,1.18-.17c.62,0,1.1.14,1.45.41ZM91.1,127.84c-.13.03-.22.09-.28.16-.06.08-.09.19-.09.34,0,.21.06.37.17.49.11.12.27.17.47.17.31,0,.64-.18.98-.55l.02-.89-1.27.28Z"/>
  </g>
</svg>