<?xml version="1.0" encoding="UTF-8"?>
<svg id="Vrstva_1" xmlns="http://www.w3.org/2000/svg" xmlns:xlink="http://www.w3.org/1999/xlink" version="1.1" viewBox="0 0 141.73 141.73">
  <!-- Generator: Adobe Illustrator 30.1.0, SVG Export Plug-In . SVG Version: 2.1.1 Build 136)  -->
  <defs>
    <style>
      .st0 {
        fill: none;
      }

      .st1 {
        fill: #ccc0b0;
      }

      .st2 {
        fill: #b5a097;
      }

      .st3 {
        fill: #f4f3f2;
      }

      .st4 {
        fill: #d8cdbc;
      }

      .st5 {
        fill: #f0e9dd;
      }

      .st6 {
        fill: #706f6f;
      }

      .st7 {
        fill: #988780;
      }

      .st8 {
        fill: #bcb1a3;
      }

      .st9 {
        fill: #ded8cd;
      }

      .st10 {
        fill: #e8e7e6;
      }

      .st11 {
        clip-path: url(#clippath);
      }
    </style>
    <clipPath id="clippath">
      <rect class="st0" x="7.09" y="1.42" width="127.56" height="116.79"/>
    </clipPath>
  </defs>
  <g>
    <path class="st6" d="M58.28,124.46c.26.05.49.13.69.22l-.26,1.27-.13.06c-.41-.22-.77-.34-1.09-.34-.37,0-.65.13-.85.4-.2.26-.3.64-.3,1.13,0,.56.11.99.32,1.28.22.3.52.44.92.44.36,0,.76-.1,1.2-.3l.12.1-.16,1.24c-.48.15-.97.23-1.48.23-.77,0-1.37-.25-1.8-.75s-.65-1.2-.65-2.09.24-1.65.71-2.18c.47-.52,1.13-.79,1.97-.79.26,0,.53.03.79.08ZM59.18,122.09c-.46.42-1.02.98-1.69,1.69h-.35c-.62-.69-1.18-1.25-1.68-1.69l.4-.61h.16c.53.42.96.78,1.31,1.1.31-.3.74-.66,1.3-1.1h.16l.41.61Z"/>
    <path class="st6" d="M64.14,127.48l-3.24.02c.07,1,.58,1.5,1.52,1.5.5,0,1.05-.14,1.66-.42l.13.08-.24,1.19c-.61.22-1.18.34-1.72.34-.88,0-1.57-.26-2.07-.77-.5-.51-.75-1.22-.75-2.12s.24-1.61.73-2.13c.49-.52,1.15-.79,1.98-.79.71,0,1.26.19,1.65.58.39.39.58.93.58,1.63,0,.18-.02.42-.06.7l-.18.19ZM62.99,126.41c0-.32-.07-.56-.22-.73s-.36-.25-.64-.25c-.31,0-.57.1-.78.31s-.35.5-.42.88l2.03-.05.02-.17Z"/>
    <path class="st6" d="M68.89,124.67l-.22,1.18-.19.06c-.23-.15-.46-.27-.7-.35-.23-.08-.44-.12-.61-.12-.19,0-.34.05-.46.15-.11.1-.17.22-.17.37,0,.17.07.3.22.41.15.1.38.22.7.35.32.13.58.25.79.37s.39.29.53.5.22.47.22.79-.08.62-.25.89c-.16.28-.41.5-.75.67s-.75.26-1.24.26c-.58,0-1.17-.12-1.79-.36l.18-1.25.16-.1c.25.21.52.37.83.5.3.12.57.19.8.19.22,0,.38-.05.5-.16.12-.11.18-.24.18-.39,0-.17-.07-.3-.22-.41-.15-.1-.38-.22-.7-.35-.33-.14-.6-.27-.8-.39-.21-.12-.39-.28-.53-.5-.15-.22-.22-.48-.22-.8,0-.52.2-.95.59-1.28s.92-.5,1.6-.5c.54,0,1.06.09,1.54.28Z"/>
    <path class="st6" d="M73.52,126.59c0-.28-.05-.5-.19-.65s-.32-.23-.57-.23c-.36,0-.74.17-1.15.52v1.39l.07,2.46h-1.6l.08-2.3-.06-3.17,1.51-.13v.82h.08c.44-.4.92-.69,1.44-.86.61,0,1.07.14,1.39.41.32.28.47.67.46,1.19l-.04,1.6.07,2.45h-1.61l.1-3.48Z"/>
    <path class="st6" d="M80.76,127.48l-3.24.02c.07,1,.58,1.5,1.52,1.5.5,0,1.05-.14,1.66-.42l.13.08-.24,1.19c-.61.22-1.18.34-1.72.34-.88,0-1.57-.26-2.07-.77-.5-.51-.75-1.22-.75-2.12s.24-1.61.73-2.13c.49-.52,1.15-.79,1.98-.79.71,0,1.26.19,1.65.58.39.39.58.93.58,1.63,0,.18-.02.42-.06.7l-.18.19ZM79.61,126.41c0-.32-.07-.56-.22-.73-.14-.16-.36-.25-.64-.25-.31,0-.57.1-.78.31s-.35.5-.42.88l2.03-.05.02-.17Z"/>
    <path class="st6" d="M83.63,127.61l.08,2.46h-1.6l.08-2.32-.07-5.99,1.6-.12-.1,5.96ZM85.25,127.01c.43.7,1.08,1.63,1.94,2.8v.17c-.29.06-.59.11-.91.15-.32.04-.51.06-.58.07l-.17-.07c-.7-.99-1.31-1.98-1.82-2.96v-.11l1.39-1.98.29-.58h1.68l-1.82,2.52Z"/>
  </g>
  <g class="st11">
    <path class="st1" d="M75.82,106.6s-.68,2.03,0,2.03,2.36-.23,3.38-1.01c1.01-.79.9-.56,2.14-1.01,1.24-.45,2.36-1.58,2.36-1.58l.71-.79h1.2s.56-.9.56-1.24v-2.14s-9.11,2.47-10.35,5.74"/>
    <path class="st1" d="M102.49,89.69s4.28-.19,4.05.94c-.23,1.12.11,2.41.11,2.41,0,0,1.24.4,1.69-1.17.45-1.58,1.01-2.19,1.01-2.19l-.68-2.91s-3.83.72-4.28.84c-.46.12-4.83.58-1.9,2.08"/>
    <path class="st7" d="M84.41,104.24s1.88.79,2.89.51l1.01-.28,1.35.06s-.34.5.73-.28c1.07-.79,1.75-1.46,1.75-1.46,0,0,.22,2.03.9,1.01l.68-1.01s.9,1.12,1.24,0c.34-1.12.67-2.59.67-2.59h1.12l1.12-1.24s1.04-.09.9-1c-.14-.91,1.29-7.78-3.91-6.99-5.2.79-10.45,13.28-10.45,13.28"/>
    <path class="st2" d="M88.09,102.33s.34,1.46.79.79c.45-.67.79-1.69.79-1.69,0,0,.9.34,1.24,0,.34-.34.73-1.01.73-1.01,0,0,1.31,1.01,2.09,0,.78-1.01-.23-.68.78-1.01,1.01-.34,1.35.11,1.8-.67.45-.79.56-1.46.56-1.46,0,0-.16-5.67-2.54-5.22-2.37.45-7.48,6.91-6.24,10.28"/>
    <path class="st5" d="M53.59,32.62s5.1,5.1,7.05,6.45c1.95,1.35,3.3,1.8,5.85,1.5,2.55-.3,4.38-.75,4.38-.75l3.42,8.25h-7.35s1.8-3,.75-3.75c-1.05-.75-4.5-1.5-8.1-3.97-3.6-2.47-6-7.72-6-7.72"/>
    <path class="st2" d="M66.34,37.87s2.55.75,3.45,3.45c.9,2.7,2.85,5.85,2.85,5.85l12.75,2.1,17.1-3.15s-5.85-7.5-10.5-8.25c-4.65-.75-13.2-.9-17.7-.9s-7.95.9-7.95.9"/>
    <path class="st1" d="M74.29,38.62s2.4.9,10.12,1.72c7.72.83,14.47,4.43,14.47,4.43l16.5,9.15s-6.3-16.65-19.2-18.9c-12.9-2.25-23.7.6-27.15.75s-6.6-1.12-8.85-1.61c-2.25-.49-5.85-3.94-5.85-3.94,0,0,1.95,3.9,5.85,5.1l3.9,1.2s1.39.97,2.25,1.35c.85.38,7.95.75,7.95.75"/>
    <path class="st1" d="M76.84,45.22l9.6,5.7,15.3,35.85h4.5s11.66-13.2,10.76-18c-.9-4.8-17.81-19.05-22.16-20.7s-18-2.85-18-2.85"/>
    <path class="st4" d="M84.41,102.44s-.19.13-.5.31c-.55.32-1.48.78-2.35.93-1.35.23-3.32.47-3.32.47,0,0-3.32,3.02-6.24,4.48-2.92,1.46-7.42,2.04-7.42,2.04,0,0,4.6-1.82,6.29-2.94,1.69-1.12,3.42-2.25,3.42-2.25,0,0,5.83-4.85,7.95-4.61,2.12.24,8.1-2.92,8.1-2.92,0,0-.34,0,0,.67.34.67-1.01,2.25-1.01,2.25l-3.15.9-1.76.67Z"/>
    <path class="st4" d="M95.37,93.22s.76,1.8,0,2.47c-.76.68-1.9.68-1.61,1.01.29.34.72,1.12.95,1.24.23.11,1.36-.56,2.15-.67.79-.11,3.26-.34,4.39-.79,1.12-.45,2.03-2.36,2.03-2.36,0,0,1.28-1.58,1.6-2.48.31-.9-.92-1.42-1.15-1.95-.22-.52-1.96-1.57-1.96-1.57l-8,3.3,1.61,1.8Z"/>
    <path class="st9" d="M71.43,41.17s8.11,4.5,9.76,4.05c1.65-.45,12.4-2.5,19.92-.73,7.53,1.78,14.88,8.38,16.53,12.73s2.7,11.25,1.5,14.1c-1.2,2.85-11.4,1.5-11.4,1.5,0,0-7.2-18.75-11.1-21.75s-12.96-4.2-15.75-4.65c-2.79-.45-4.05-1.2-4.05-1.2,0,0-7.37-4.04-5.41-4.05"/>
    <path class="st5" d="M33.62,12.07s3.47-1.5,5.72-1.05,13.34,18,14.25,20.25c.91,2.25,5.55,11.1,6.3,11.85.75.75-4.5,24-4.5,24l-12.3-8.85s1.05-2.7,2.55-5.55-.75-11.25-4.2-17.4c-3.45-6.15-9.9-13.2-10.35-15.6-.45-2.4.3-3,.75-4.35.45-1.35,1.78-3.3,1.78-3.3"/>
    <path class="st2" d="M34.04,76.42l-2.87-.85s3.9-16.56,6.73-18.1c2.82-1.54,6.63-3.83,7.2-6.32s-.79-8.03-.79-8.03c0,0,2.59,3.25,3.12,5.64.53,2.39-1.06,13.15-1.06,13.15l-12.33,14.51Z"/>
    <path class="st1" d="M34.61,21.37s1.65-.45,2.7-1.43c1.05-.97,3.45-5.77,3.08-6.82-.38-1.05-1.2-1.73-1.95-1.65s-3.38.6-4.2,1.2c-.83.6-1.72,2.1-1.95,2.93-.22.83-1.2,4.43,0,4.95,1.2.52,2.33.82,2.33.82"/>
    <path class="st1" d="M36.06,97.27s-7.71-8.1-8.61-15.98,3.01-18,6.17-21.71c3.17-3.71,6.88-5.4,8.57-6.75l1.69-1.35s1.32-7.51.43-9.81c0,0,5.55,9.14-2.56,13.52,0,0-3.38,2.36-4.5,6.53-1.12,4.16-2.59,11.14-2.7,12.6-.11,1.46,1.53,22.95,1.53,22.95"/>
    <path class="st1" d="M41.85,29.2s9.11,9.97,10.35,12.86c1.24,2.89,2.7,12.45,2.7,12.45l-.56,9.11-5.4-6.48v-9.84s-1.34-6.75-3.48-10.35c-2.14-3.6-8.72-13.84-8.72-13.84l3.69,4.61,1.42,1.46Z"/>
    <path class="st2" d="M50.17,48.07s-.34,4.76.9,7.12c1.24,2.36,3.71,6.07,3.82,6.86.11.79,0,3.14,0,3.14,0,0-5.96-5.66-6.41-8.56s.26-10.28-.03-11.42c-.3-1.14,1.72,2.85,1.72,2.85"/>
    <path class="st9" d="M46.15,42.07c-.18-.1.66,12.45-.7,14.14-1.35,1.69-6.74,6.75-9.39,14.29-2.65,7.54-2.91,13.05-2.44,18.11.46,5.06,2.44,8.66,2.44,8.66l16.59-1.46,16.65.79s-10.91-17.78-11.7-22.28c-.79-4.5-3.25-12.54-5.96-14.85-2.7-2.31-2.7-6.97-2.7-9.56s.73-6-2.78-7.84"/>
    <path class="st8" d="M35.18,78.7s.28,5.27,1.56,6.83c1.27,1.56,2.22,4.4,2.45,6.1.23,1.7-.6,2.7-.6,2.7l6.3-5.51,1.44-3.86s13.99-2.28,17.61,3.86l-27.2,8.02-1.56-18.15Z"/>
    <path class="st5" d="M50.85,40.34s2.66,6.64,2.74,11.14c.08,4.5.19,10.44,2.1,17.99,1.91,7.55,4.28,15.66,6.53,17.3s2.99,2.92,2.99,2.92l9.09-12.34s-14.21-29.25-15.56-30.71c-1.35-1.46-7.88-6.3-7.88-6.3"/>
    <path class="st1" d="M59.96,62.17s2.81,9.82,8.62,18.51l-8.62-18.51Z"/>
    <path class="st1" d="M42.49,67.87s-1.95,13.2-1.2,17.1c0,0-1.8-12,1.2-17.1"/>
    <path class="st1" d="M104.87,50.77s8.26,7.65,9.61,10.2c1.35,2.55,1.72,4.66,1.72,4.66l.79-.61s-.89-7.26-12.13-14.25"/>
    <path class="st8" d="M99.32,39.02s13.05,8.74,14.18,12.57l-.89-.82s-4.01-4.13-13.29-11.74"/>
    <path class="st4" d="M39.19,19.72l8.34,12s-7.15-11.35-8.34-12"/>
    <path class="st4" d="M41.62,17.17s6.72,8.85,8.37,12.15c1.65,3.3,2.4,4.05,2.4,4.05l-10.77-16.2Z"/>
    <path class="st8" d="M53.59,43.38s3.28,10.31,4.39,11.73c1.11,1.41,3.62,3.79,4.59,5.27.97,1.49,3.3,6.96,3.77,7.49.47.53,2.23,2.16,2.24,6.46.01,4.31-4,9.13-4,9.13l-.64,5.37,7.65-10.07-3.01-15.71-14.99-19.67Z"/>
    <path class="st4" d="M34.22,23.13s6.46,9.49,8.26,12.19c1.8,2.7,2.97,5.02,2.97,5.02,0,0-6.14-12.9-11.23-17.21"/>
    <path class="st4" d="M107.74,72.82s1.28,11.66-4.53,13.18c-5.82,1.52,2.21.77,2.21.77l6.22-5.1-.7-11.1-3.2,2.25Z"/>
    <path class="st9" d="M98.96,89.28s3.52-.33,9.82-3.37c6.3-3.04,9.02-5.4,10.87-12.77,1.85-7.37-1.67-14.94-1.67-14.94,0,0-.31,2.73-.54,3.85s.11,2.33-.45,2.96c-.56.64-1.61.98-1.61.98h-2.21l-1.12,1.12s-1.53-.11-2.12,0c-.58.11-1.37-1.12-1.93-.56-.56.56,2.58,4.15,1.93,7.31-.65,3.16,0,3.38,0,3.38,0,0-1.15,5.29-1.37,6.3-.22,1.01-6.64,2.85-7.88,3.23-1.24.38-1.72,2.51-1.72,2.51"/>
    <path class="st3" d="M53.59,43.38c.08.45,2.1,3.82,3,6.53.9,2.7.9,3.26,2.25,4.61s1.91,2.64,1.91,2.64c0,0,1.35.4,2.59,2.43,1.24,2.02,1.58,4.01,2.25,5.44.67,1.43,4.05,3.56,3.71,6.94-.34,3.38.45,6.64,0,7.65-.45,1.01-2.47,3.04-3.6,3.83-1.12.79-.9.34-.9,1.35s-.86,4.05-.86,4.05c0,0-3.42-1.09-3.98-2.06-.56-.98-1.57-1.09-1.57-1.09,0,0-.9-.45-1.58-.34-.67.11-1.72-.11-3.22-.11s-3.72-.56-5.25-.22c-1.53.34-2.31-.34-2.88,0-.57.34-1.92.9-2.03,2.36-.11,1.46-.68,2.25-1.46,3.04-.79.79-3.38,3.94-3.38,3.94,0,0-.11-4.28-1.35-5.96-1.24-1.69-1.86-.3-2.06-3.13-.2-2.83,0-6.54,0-6.54,0,0-2.65,10.91.88,18.56,3.54,7.65,11.3,12.15,14.79,12.94,3.49.79,13.34.68,18.59-1.12,5.26-1.8,7.62-5.17,9.53-5.96,1.91-.79,9.11-3.04,11.36-5.17,2.25-2.14,2.13-4.5,3.43-4.95s8.83-2.59,10.41-9.67c1.57-7.09,1.01-18.8-7.31-26.16s-15.48-9.71-19.35-10.17-13.5-1.23-14.51-1.97c-1.01-.73-7.35-6.25-9.41-8.95-2.06-2.7-3.75-3.75-4.2-3.45-.45.3-.79,1.88-.11,2.44.67.56,4.31,8.32,4.31,8.32"/>
    <path class="st10" d="M58.99,45.31s9.3,4.71,13.35,5.46c4.05.75,23.86,11.25,26.63,22.97,2.76,11.72,1.16,14.7-2.02,16.19-3.18,1.49-4.51,2.45-7.36,5.24-2.85,2.79-9.75,6.28-15.3,2.69-5.55-3.59-7.8-10.79-6.45-12.89,1.35-2.1,1.46-6.26,1.46-6.26,0,0-.42-7.75-.72-9.04,0,0-4.06-5.44-4.31-7.12-.25-1.68-5.77-6.32-7.76-11.78-1.99-5.46-3.9-9.1-3.9-9.1,0,0,0-1.02,1.27-.5,1.27.52,3.94,3.56,5.1,4.14"/>
    <path class="st8" d="M71.1,50.77s14.15,7.65,22.62,19.65c0,0,5.7,10.66,5.13,16.35,0,0,3.4-20.7-27.76-36"/>
    <path class="st8" d="M66.34,53.02s14.32,15,19.84,24.15c5.51,9.15,5.46,10.95,5.46,10.95,0,0-4.75-18.01-25.3-35.1"/>
    <path class="st8" d="M47.53,63.63s2.61,19.42,10.26,29.46c7.65,10.03,9.3,10.21,9.3,10.21,0,0-19.02-13.3-19.56-39.67"/>
    <path class="st4" d="M44.89,93.08s3.83,8.21,10.01,11.22c6.19,3.01,14.4,2.26,14.4,2.26,0,0-19.61,4.54-24.41-13.48"/>
    <path class="st8" d="M86.74,97.95s1.65-9.71-2.32-17.27l-3.98-7.56s11.7,12.18,6.3,24.84"/>
    <path class="st8" d="M66.34,91.64s1.8,7.13,10.5,10.43c0,0-7.8-.31-10.5-10.43"/>
    <path class="st8" d="M54.34,63.63s.15,32.59,22.5,38.44c0,0-24.3-.67-22.5-38.44"/>
    <path class="st4" d="M50.85,91.64s4.24,12.79,22.39,13.11c0,0-16.58,2.56-22.39-13.11"/>
    <path class="st4" d="M98.14,62.17s8.85,22.27.83,27.11c0,0,11.17-2.81-.83-27.11"/>
    <path class="st2" d="M81.95,48.01s10,2.83,12.58,4.64c2.57,1.81,5.14,3.82,7.36,9.1,2.22,5.28,7.15,18.26,1.31,24.24,0,0,6.01-16.77-6.34-28.84,0,0-9.85-7.95-14.81-9.09l-.11-.05Z"/>
  </g>
</svg>