<?xml version="1.0" encoding="UTF-8"?>
<svg id="Vrstva_1" xmlns="http://www.w3.org/2000/svg" xmlns:xlink="http://www.w3.org/1999/xlink" version="1.1" viewBox="0 0 141.73 141.73">
  <!-- Generator: Adobe Illustrator 30.1.0, SVG Export Plug-In . SVG Version: 2.1.1 Build 136)  -->
  <defs>
    <style>
      .st0 {
        fill: none;
      }

      .st1 {
        fill: #5f8541;
      }

      .st2 {
        fill: #f28d4d;
      }

      .st3 {
        fill: #99a949;
      }

      .st4 {
        fill: #ef7b44;
      }

      .st5 {
        fill: #fff;
      }

      .st6 {
        fill: #706f6f;
      }

      .st7 {
        fill: #8b9a42;
      }

      .st8 {
        fill: #ba6234;
      }

      .st9 {
        clip-path: url(#clippath);
      }
    </style>
    <clipPath id="clippath">
      <rect class="st0" width="141.73" height="141.73"/>
    </clipPath>
  </defs>
  <g>
    <path class="st6" d="M63.07,130.07l.1-3.48c0-.59-.25-.89-.76-.89-.36,0-.74.16-1.13.48l-.04,1.44.07,2.45h-1.6l.1-3.48c0-.29-.05-.51-.19-.66-.13-.15-.32-.23-.57-.23-.35,0-.74.17-1.16.5v1.4l.07,2.46h-1.58l.08-2.3-.06-3.17,1.5-.13v.82h.08c.44-.4.92-.69,1.45-.86.9,0,1.47.3,1.72.9h.07c.46-.42.98-.72,1.56-.9.61,0,1.07.14,1.39.41.32.28.47.67.45,1.19l-.04,1.6.07,2.45h-1.6Z"/>
    <path class="st6" d="M69.39,124.5v1.48l-.17.06c-.14-.06-.28-.08-.44-.08-.46,0-.88.3-1.26.9v.76l.08,2.46h-1.6l.1-2.3-.07-3.17,1.51-.13v1.09s.08,0,.08,0c.39-.72.88-1.08,1.46-1.08.07,0,.17,0,.3.02Z"/>
    <path class="st6" d="M71.65,127.61l.08,2.46h-1.6l.08-2.32-.07-5.99,1.6-.12-.1,5.96ZM73.27,127.01c.43.7,1.08,1.63,1.95,2.8v.17c-.29.06-.59.11-.91.15-.32.04-.51.06-.58.07l-.17-.07c-.71-.99-1.31-1.98-1.82-2.96v-.11l1.39-1.98.29-.58h1.68l-1.82,2.52Z"/>
    <path class="st6" d="M80.15,127.48l-3.24.02c.07,1,.58,1.5,1.52,1.5.5,0,1.05-.14,1.66-.42l.13.08-.24,1.19c-.61.22-1.18.34-1.72.34-.88,0-1.57-.26-2.07-.77-.5-.51-.75-1.22-.75-2.12s.24-1.61.73-2.13c.49-.52,1.15-.79,1.98-.79.71,0,1.26.19,1.65.58.39.39.58.93.58,1.63,0,.18-.02.42-.06.7l-.18.19ZM79,126.41c0-.32-.07-.56-.22-.73-.14-.16-.36-.25-.64-.25-.31,0-.57.1-.78.31s-.35.5-.42.88l2.03-.05.02-.17Z"/>
    <path class="st6" d="M82.54,125.38l.84,3.19h.08l1.01-3.11.2-.97h1.39l-1.87,5.58h-1.72l-1.58-5.54,1.49-.07.16.92Z"/>
  </g>
  <g class="st9">
    <path class="st1" d="M79.19,59.68s1.88,1.92,3.15,3.46c1.27,1.54,1.8,2.83,1.8,2.83l-6.92,1.83s-.62-3.83-.51-4.41c.12-.59,2.48-3.71,2.48-3.71"/>
    <path class="st1" d="M78.43,59.31s-.84-.81-1.35-.94-3.14-.31-2.72-.6c.43-.29,1.21-.07,1.21-.07,0,0-1.6-2.64-1.01-1.99.59.65,2.26,1.83,2.26,1.83,0,0-2.26-3.25-1.39-2.84.87.41,1.67.97,1.67.97,0,0-.5-2.18.2-1.4.71.78,1.12,2.87,1.12,2.87,0,0,2.76-2.51,2.52-1.8-.24.71-.62,2.25-.62,2.25,0,0,.79-.32.87-.79.07-.46-.22-1.12.23-1.06l.44.06s-.06-2.45.16-2.98c.22-.53-.45-1.8-.51-1.54-.06.26-.2,1.59-.65.95l-.45-.64s-1.22.51-.93-.14l.29-.66-.83-.04-.61-.56s-3.8-.81-2.75-.85c1.05-.04,1.75-.46,1.75-.46,0,0-1.67-.53-.62-.57,1.05-.04,1.88.11,1.88.11,0,0-.21-.98.51-.47.72.52,2.05,1,2.05,1,0,0-.84-1.2.31-2.71,1.15-1.51,1.24-1.88,1.23-1.84,0,.04.84-.76.76-.41-.08.35-.58,5.23-.58,5.23l1.41.57s.16-1.57.53-1.7l.37-.14s1.17-1.85,1.24-2.21c.07-.37-1.98-5.56-1.29-4.69.69.87,1.57-.12,1.64.5s1.48.54,1.41.79c-.06.25,2.73-1.89,1.62-.39-1.11,1.5-2.63,3.19-2.63,3.19l-1.32,3.22s3.13-2.21,2.31-1.16c-.82,1.05-2.27,2.07-2.27,2.07v1.09s-.81.74-.81.74c0,0,.65,3.76.21,3.66l-.43-.1s-.2.65-.49.98c-.3.33-.05.6-.05.6l1.67.85s1.94-1.56,1.86-3.28c-.07-1.71.13-2.13.13-2.13l.49.97s.62-1.16.77-1l.15.16s4.29-8.98,5.71-10.89c1.42-1.92,1.65-3.07,1.68-2.39.03.5-.6,1.85-.94,2.54-.13.26-.22.43-.22.43l-.96,1.66s3.02-1.56,1.49.12c-1.53,1.69-4.11,4.93-4.71,6.56-.6,1.63-2.25,3.72-2.25,3.72,0,0,3.17-2.27,4.12-2.65.95-.37,1.42-.39,1.42-.39,0,0,1.78-.55,1.07.2l-.71.74s1.69.34.97.75c-.72.4-2.11.29-2.11.29,0,0,3.54,1.72,1.59,1.32l-1.95-.4s2.74,4.1,1.54,2.89c-1.2-1.21-2.47-2.93-2.68-2.73-.22.2-3.73,3.4-3.73,3.4,0,0,3.19.44,5.06.23,1.88-.21,5.89-.9,5.67-.5-.23.4-2.92.92-2.92.92,0,0,4.07,1.87,2.89,1.66-1.18-.21-1.63-.49-1.63-.49,0,0,2.6.9,2.22,1.24-.38.34-3.83-1.06-3.83-1.06,0,0,1.12,1.65.56,1.47-.57-.18-1.36-.83-2.83-1.48-1.47-.64-4.5-1.24-4.12-1.05s6.54,3.49,5.41,3.33c-1.13-.16-1.43-.38-1.43-.38,0,0,.15,1.25,0,1.09-.15-.16-1.22-1.66-2.98-2.62-1.77-.96-2.99-.24-2.99-.24,0,0,2.89,1,2.55,1.23-.34.22,1.54,1.09.23,1.28-1.3.2-1.76.45-1.76.45,0,0,1.97-.34,1.16.19-.8.53-4.06,1.52-4.06,1.52l1.8,1.87-1.96.45s2.36,3.39,1.19,2.08c-1.17-1.31-2.1-2.7-2.81-3.08-.71-.39-.35.79-2.03-.18-1.67-.97-2.16-.53-1.67-.97s.99-.76.5-.86c-.49-.1-1.38.55-1.35-.18.03-.72.53-1.37.53-1.37,0,0-1.25-.33-1.24-.39.01-.05.11-.54.11-.54l-.58-1.27Z"/>
    <path class="st1" d="M92.61,65.15s-1.91,1.67-1.55,1.75c.36.07,1.39-.86,1.39-.86,0,0-.5,1.24.1.79.6-.45.95-1.69.95-1.69,0,0,1.58-.22,1.43.21-.15.43-3.5,3.09-2.56,3.02.94-.07,2.17-1.98,2.17-1.98l.32,1.33s-2.99,2.26-2.54,2.31c.45.06,1.47-.88,1.47-.88,0,0,.01.78.39.43.38-.34,1-1.4,1-1.4v1.18s-1.33,1.81-1.07,1.66c.26-.14.43-.39.43-.39,0,0-.78,1.69-.34,1.5.44-.2.99-.9.99-.9,0,0-.21.97.55.28.76-.69.54-1.37.54-1.37l.98,1.08s-2.34,5.69-1.64,5.15c.7-.54,1.41-1.28,1.41-1.28,0,0-.37,1.33.28.53.66-.8.55-2.87.55-2.87,0,0-.07,1.64.31,1.3.37-.34.65-.79.65-.79l-.43,2.46s-1.45,2.21-.86,1.88l.58-.33s-.29,1.85.44,1.68l.73-.17s.63.91.9.56l.28-.35s.99.98,1.42.59l.43-.39s.74,1.01.87.4c.13-.61,0-2.38-1.52-4.05-1.53-1.68.99-.11.99-.11,0,0,1.31,2.96,1.69,2.62.38-.34.37-1.22.37-1.22l-.04-.86,1.05.23s1.24,3.22,1.9,3.12c.65-.1.17-.85.17-.85l-.81-2.52.93,1.03s.72,3.4,1.32,2.86c.6-.54-.07-2.9-.07-2.9,0,0,.98,2.27,1.72,1.89s-.38-1.83-.38-1.83c0,0,.87,2.47,1.77,1.95.9-.53.97-.89.97-.89l.94-.16s.59,1.74,1.66.96c1.07-.78,1.04-2.23,1.04-2.23v-1.97s-.06,4.29.85,3.66c.91-.63,2.42-.82,1.38-2.94-1.04-2.12-.54-2.87-.54-2.87,0,0,1.15,6.37,1.72,5.26.57-1.11-.73-4.18-.73-4.18l1.62,1.79s-1.81,4.09-1.02,3.88c.79-.22,1.5-.86,1.5-.86,0,0,1.16.73.97-.89-.18-1.61-.34-2.66-.34-2.66l1.33,2.55s-1.18,2.07-.66,1.88c.53-.18.7-.64.7-.64l1.65,1.27.43-.39s1.55,1.16,1.47.74c-.08-.42-1.05-3.1-1.05-3.1,0,0,2.78,3.6,3.27,3.16.49-.44,1.1,1.97,1.55,1.16.45-.81,1.32-.51,1.32-.51l-3.08-2.84s5.39,2.9,5.91,2.43c.52-.47.79-.72.79-.72l-7.03-2.4s2.48-.08,2.95-.5c.46-.42,1.36-.85,1.36-.85l-8.34-1.12-1.11-.46-1.08-1.19s3.31,1.24,3.94.96c.63-.28.96-.58.96-.58,0,0,4-1.36,3.96-1.62-.04-.26-10.32-.22-10.32-.22l-1.55-1.25.84-.56s1.71,1.12,2.14.72l.43-.39s3.05-.11,2.47-.37c-.58-.26-1.94-1-1.94-1,0,0,2.89.14,3.01-.17.12-.31.84-1.26.84-1.26l1.63-1.68s1.11-1.6.53-1.37c-.31.12-3.43,1.66-6.27,3.06-2.47,1.22-4.74,2.35-4.74,2.35l-2.83-1.51s3.39,1.36,3.06.67c-.33-.69,1.36-.35.77-1-.59-.65-2.6-1.99-2.6-1.99,0,0,2.97,2.94,3.72,2.25.76-.69.29-1.25.29-1.25,0,0,3.54,1.03,1.61-.28-1.93-1.31-3.33-1.12-3.33-1.12l1.71-.67s2.44,1.64,2.55,1.44c.11-.2.33-.5.33-.5,0,0,1.51-.19.76-.69l-.75-.5-1.33-.37s5.88.49,4.15-.22l-1.73-.7s1.76-1.21,1.29-1.08c-.47.13.65-1.24-.21-.67-.87.57-2.51,1.47-2.51,1.47,0,0,1.93-1.46.73-1.16-1.2.31-8.31,3.91-8.31,3.91,0,0,.54-1.58,0-1.09-.54.49-3,2.32-3,2.32l-4.53-1.6.95-.57s3.55,1.51,3.38.78c-.17-.73-1.25-.94-1.25-.94l2.1-.73s2.05,1.5,1.26.63c-.79-.87-1.87-2.05-1.87-2.05,0,0,3.05,1.28,3.43.94l.38-.34s3.21-.25,1.97-.71c-1.24-.45-4.96-.73-4.96-.73,0,0,5.25-.42,5.52-.67.27-.25-2.58-.82-2.58-.82,0,0,6.21-.41,4.73-.84l-1.48-.43s2.71-1.37,2.14-1.35l-.57.03s1.91-1.93.82-1.33c-1.09.6-15.02,8.03-15.02,8.03,0,0,1.85-1.79,1.01-1.96l-.84-.17-.95-.72s4.89-.59,4.7-.81c-.19-.22,2.92-1.57,1.99-1.51-.93.06-1.48.11-1.48.11,0,0-.34-1.02-.87-.63-.54.39-3.8,1.48-3.8,1.48,0,0,9.19-2.83,7.86-2.99-1.34-.17-4.61-.06-4.61-.06,0,0,4.9-1.79,3.81-1.79h-1.09s1.91-2.03,1.28-1.85c-.63.18-2.28,1.68-2.28,1.68,0,0-.41-.62-.95-.13-.54.49-6.57,6.28-6.57,6.28,0,0-1-1.46-.76-.1l.25,1.36-2.61,1.58-2.5.26.91-1.36s2.02-.59,1.82-.6h-.2s2.18-1.2,1.46-1.24c-.72-.03-2.71.39-2.71.39l-3.1.94s7.73-3.67,7.02-3.91l-.71-.24s2.65-2.41,1.59-1.94c-1.06.47-2.71,1.37-2.71,1.37,0,0,1.22-1.6.4-.86-.81.74-3.73,2.9-3.73,2.9,0,0,6.26-4.9,5.63-4.72l-.63.18s2.74-2.21,1.42-1.59c-1.32.62-3.51,2.12-3.51,2.12,0,0,3.67-4.23,3.03-3.84-.64.38-.87.79-.87.79,0,0,.16-1.34-.59-.65-.75.69-1.57,1.43-1.57,1.43,0,0-.26-2.13-.85-.17-.58,1.96-4.31,8.41-4.37,8.67-.06.26-2.42,2.5-2.42,2.5,0,0-3.54-2.61-3.97-1.38-.43,1.23.3,1.15.3,1.15l1.97.74Z"/>
    <path class="st1" d="M89.11,57.9s2.23-3.11,2.63-2.99c.4.13.62.68.62.68,0,0,.59-2.17.97-1.53.38.64.2,1.2.2,1.2,0,0,7.37-7.98,7.31-7.39s-2.1,2.65-2.1,2.65l4.02-2.07,1.67.36s1.86-.93,1.61-.29.88.9.39,1.34c-.49.44-3.6,1.58-3.6,1.58,0,0,5.7,2.35,4.97,2.41-.73.07.94,1.03.26,1.05-.67.02,5.33,1.08,2.58,1.21-2.75.13-5.56.41-5.56.41,0,0,3.08,2.08,1.73,1.9-1.35-.18-1.9-.56-1.9-.56,0,0,.21,1.58-.25,1.21-.46-.37-3.79-3.08-3.79-3.08,0,0-2.96,3.19-2.68,1.65.28-1.54-.36-3.23-.36-3.23l-1.9,1.73-8.25,6.03-1.84-2.02,3.28-2.26Z"/>
    <path class="st1" d="M102.79,43.6l2.4,1.55s-.66,3.07-.18,2.73c.48-.34.7-.63.7-.63,0,0,1.51,5.45,1.91,5.08.4-.37.75,1.1,1.13.65.38-.45-.03-2.64-.03-2.64,0,0,2.38,3.37,2.66,2.92.28-.45-3.17-6.31-3.17-6.31l3.24,2.69s1.45,4.31,1.78,4.02l.33-.29s2.06,1.83,1.01-.3c-1.05-2.14-2.03-3.42-2.03-3.42,0,0,4.36,5.33,4.28,4.71-.07-.62-.96-2.46-.96-2.46,0,0,2.38,3.05,2.83,2.24.45-.81.12-1.06.12-1.06,0,0,1.61.51,1.01.05-.6-.47-1.68-1.85-1.68-1.85,0,0,2.03,1.12.83.13-1.19-.99-3.6-1.57-3.6-1.57,0,0,2.32.36,1.86-.41-.46-.77-4.92-1.22-5.33-1.46l-.41-.24s4.26.08,3.93-.31c-.33-.39-1.26-.53-1.26-.53,0,0,.83-.46.33-.5-.5-.04-2.42,1.21-3.79.68-1.37-.53-2.32-1.25-2.32-1.25,0,0,2.09.56,2.73.18l-.38-.64s3.41-.64,2.44-.54c-.97.09-1.73-.41-1.73-.41,0,0,.72-.95.45-.7-.27.25-2.37.77-2.37.77,0,0,1.99-1.51.47-1.12-1.52.39-3.55,1.75-3.55,1.75l-2.62-1.57-1.02.07Z"/>
    <path class="st1" d="M109.14,39.68s1.72,1.27,2.02,1.71c.3.43,1.08,2.59,1.31,2.48l.24-.12s2.24,3,2.42,2.55l.18-.46s1.16,1.71,1.18,1.3c.02-.41-1.43-2.75-1.43-2.75,0,0,.92.45.28-.25-.64-.7-1.49-1.64-1.49-1.64,0,0,2.17,1.52,3.2,2.76,1.03,1.24.83.04.38-.45s-.93-1.02-.93-1.02c0,0,2.75,1.83,2.45,2.69l.54-.49s.69,1.74.98,1.08c.29-.66-1.88-3.04-1.88-3.04,0,0,2.06-.89,1.39-.87-.67.02-3.75-.54-3.75-.54,0,0,3.58-.65,2.54-.91-1.04-.26-4.63-.08-5.03-.2-.4-.12-.75-.39-.75-.39,0,0,4.61-1.23,3.22-1.35-1.39-.12-2.01-.25-2.01-.25,0,0,.76-.69.38-.34-.38.34-2.27,1.77-3.07,1.31-.8-.46-2.4-1.5-2.4-1.5,0,0-.81.37.29-.83,1.1-1.2,2.95-1.55,2.51-1.72l-.44-.16s1.13-1.47.47-1c-.66.47-2.98,1.4-2.98,1.4,0,0,1.51-2.17,2.93-2.66,1.41-.5,1.6-1.16.74-1.02-.86.14-2.27.33-2.27.33,0,0,1.61-1.17,2-1.82.39-.65-.77-.19-.77-.19,0,0,1.81-3.23,1.05-2.54-.76.69-.97.89-.97.89,0,0,.27-2.42-.34-1.57-.61.85-1.1,3.57-1.1,3.57l-1-2.84s-.43,2.47.1,3.27l.53.8-1.07,1.87s-.13-1.66-.4-1.42l-.27.25s-.32-1-.6-.55c-.28.45-.1,1.08-.1,1.08,0,0-1.78.03-.93.84.85.81,1.86,1.19,1.97,2.17.11.98-.08,2.3-.08,2.3l.76.25Z"/>
    <path class="st1" d="M113.99,36.57s2.27,2.27,2.39,1.86l.12-.41s4.15,1.96,3.87,1.43c-.28-.53-.38-.85-.38-.85,0,0,1.85,1.48,2.27,1.19l.43-.29s1.78.76,1.8.24c.03-.52-.26-1.15-.26-1.15,0,0,2.5,1.88,2.52,1.36l.02-.52s1.69.23,1.02-.4c-.67-.62-2.65-1.28-2.65-1.28,0,0,1.89-.43.81-.74-1.08-.31-2.82-.6-2.82-.6,0,0,2.4-.51,1.08-.98-1.32-.48-3.73-.08-3.73-.08l-2.58-1.66.91,1.61-.62.57-2.15.47-1.86-.44s-.2.14.22-1.03c.42-1.17,1.51-3.2,1.21-2.95-.3.25-.29-.45-.29-.45,0,0,.41-1.56.02-1.11-.38.45-1.68,2.72-1.68,2.72,0,0,1.68-5.87,1.35-5.58-.32.3-1.59,3.03-1.59,3.03,0,0-.03-5.9-.65-4.95-.61.95.43,8.84.57,9.54.14.69.63,1.45.63,1.45"/>
    <path class="st1" d="M121.54,31.94s1.74,2.68,2.86,3.14c1.12.47,1.61.03,1.61.03l-2.17-2.39s4.36-.21,4.41-.26c.05-.05-.69-.76-.69-.76,0,0,2.31.37,1.25-.15-1.06-.52-3.14.24-3.14.24,0,0,1.4-1.72.71-1.39-.69.33-3.12,1.46-3.12,1.46l-.78-.85s1.66-1.77,1.17-1.55c-.49.22-1.02.4-1.02.4,0,0,1.7-3.13.66-2.43-1.04.7-1.89,1.72-1.89,1.72,0,0-.08-1.72-.41-.99-.33.72-.2,2.28-.2,2.28l-.74-.71s1.29-5.22.75-3.85c-.53,1.37-1.4,2.59-1.4,2.59,0,0-.15-1.47-.6-.76-.45.7-.76,2-.76,2,0,0-.48-2.16-.65-.72-.17,1.44.52,4.69.52,4.69l3.62-1.76Z"/>
    <path class="st1" d="M124.48,30.17c.31.01,3.81,1.47,4.86,1.21l1.05-.26-1.06-.52s2.99-.84,1.6-1.06c-1.39-.22-5.53-.21-5.53-.21l1.46-.54s5.06-.45,5.17-.65l.11-.2-3.04-.41s4.83-1.21,3.8-1.37l-1.03-.15s2.29-1.29,1.09-1.09c-1.2.2-2.18,1.08-2.18,1.08,0,0,1.44-1.89.42-1.06-1.02.83-2.29,1.79-2.71,2.17-.41.38.55-1.82-.08-1.33-.64.5-1.98,2.61-1.98,2.61l-1.43.49s3.5-4.55,1.97-3.45c-1.54,1.1-1.94,2.72-2.63,3.38-.69.66.14,1.35.14,1.35"/>
    <path class="st1" d="M103.28,43.16l.39-2.02s3.8-1.53,2.67-1.58l-1.14-.05s2.58-2.6,1.43-2.07c-1.15.53-3.46,3.15-3.46,3.15,0,0-.19-1.33.22-2.2.41-.86,2.05-3.84,2.05-3.84l-.82.74s.77-2.18.45-1.89c-.32.29-1.96,3.66-1.96,3.66,0,0,.54-1.22.86-3.47l.32-2.25-1.3,2.17s1.25-2.12,1-3.48c-.25-1.36-.96-.41-.96-.41,0,0,.76-2.97.1-2.07-.66.9-.77,2.09-.77,2.09l-.7-.77.16,3.34-.95-1.11s-.12.9.28,2.32c.4,1.42.67,2.15.67,2.15,0,0-1.15-1.92-1.05-.72.1,1.2.3,1.41.3,1.41l-.98-.1,1.64,1.47.74,2.88-.26,3.62,1.08-.98Z"/>
    <path class="st1" d="M90.93,52.73s1.61-1.62,1.42-2.03l-.19-.42,1.71-1.95,2.61-.29s6.06-5.04,4.46-4.41c-1.61.63-4.44,3.03-4.44,3.03l-.15-.57s5.87-4.85,5.25-4.77c-.62.07-2.59,1.07-2.59,1.07,0,0,2.48-4.23,1.45-3.4-1.02.83-3.54,4.9-3.54,4.9,0,0-.35-.27-.74.28-.39.55-1.36,2.42-1.72,2.56-.37.14-1.38.39-1.38.39l.35-1.74s4.71-3.2,4.3-3.91l-.4-.71.95-.92-.52-.57s2.24-2.14,1.6-1.85l-.65.29s2.51-3.76,1.66-3.29c-.85.48-1.54,1.4-1.54,1.4,0,0-.52-1.6-1.03-1.14l-.51.47s-.71-2.62-1.21-1.77c-.2.34-.35,1.39-.47,2.53-.17,1.72-.24,3.65-.24,3.65l-.35,1.33-.84,3.21-3.34,5.81s.07-3.62-.68-2.7c-.74.92-1.08.98-1.08.98,0,0-.5,1.19-.64,1.03-.15-.16,2.69-5.81,3.32-6.38l.63-.57s4.69-4.33,3.9-4.63c-.8-.3-3.33.36-3.33.36,0,0,2.22-2.76,1.31-2.41l-.9.35s.86-1.54.19-1.14c-.67.4-2.67,2.43-2.67,2.43,0,0,1.91-3.66,1.08-3.04l-.82.62s-.08-.42-.67.02c-.59.44-1.82,2.24-1.82,2.24,0,0,2.29-3.46,1.01-2.7-1.28.77-3.06,2.79-3.06,2.79,0,0,.2-2.46-.07-2.21-.27.25-.78,2.68-.78,2.68l-1.11,1.01-.67.61-1.67,6.83-.11,2.9s2.28-1.39,2.92-2.76c.63-1.37.79-2.29.79-2.29l-1.08.77s.95-3.23.38-2.86c-.57.37-.73-.18-.73-.18l2.4,7.9-.71,3.78,4.77-.61Z"/>
    <path class="st1" d="M78,48.95s-1.85-.41-2.92.16c-1.06.57-1.71.83-1.71.83l.54-.49s-2.86.83-2.53.4c.33-.43,2.82-1.61,2.82-1.61,0,0-1.84-.51-2.53-.28-.68.23-1.51,2.36-1.95,1.77l-.44-.59s-1.62,1.37-1.54.81c.08-.57,2.38-2.16,2.38-2.16,0,0-8.43-.14-7.33-.35s2.14-.47,2.14-.47c0,0-1.99-.66-1.62-.8.37-.14,5.24.57,5.24.57,0,0-4.37-2.74-3.49-2.66.88.09,1.67.66,1.67.66,0,0-.64-.7.05-.44.7.26,5.34,2.75,5.34,2.75,0,0-4.21-4.08-3.44-3.79.76.29,2.24,1.92,2.24,1.92,0,0-1.26-3.01-.28-1.72.97,1.29,2.44,3.22,3.44,3.79,1.01.57,3.32,1.04,3.32,1.04l-4.09-4.49s-8.09-.74-7.3-1.07c.79-.32,1.98-.32,1.98-.32,0,0-1.63-.82-.58-.97,1.05-.15,4.19,1.24,4.19,1.24,0,0-2.2-1.55-1.32-1.56.88,0,2.32,1.35,2.32,1.35,0,0-.28-1.72.69-.92.97.8,2.71,2.97,2.71,2.97l-3.79-4.17s-4.18.57-3.74-.04l.44-.61s-4.13-.3-3.28-.78c.85-.48,1.88-.43,1.88-.43,0,0-1.65-1.6-.21-1.11,1.43.49,3.03,1.7,3.03,1.7l-1.27-1.51s-3.88-.03-3.03-.61c.86-.58,1.63-.49,1.63-.49,0,0-3.73-2.14-3-2.32.73-.17,3.52,1.15,3.52,1.15,0,0-4.86-2.4-3.79-2.97l1.06-.57s-2-3.42-1.17-2.5c.83.93,1.92,2.11,1.92,2.11,0,0-1.14-5.06-.3-3.91.84,1.15,1.21,1.9,1.21,1.9l.67-.81,1.41,3.96s-.09-2.19,1.06-.27c1.15,1.92,2.45,7.26,3.04,7.91.59.65,4.8,6.64,4.8,6.64l-.08-1.45-2.12-4.4s-2.66.55-2.34.25c.32-.3,1.45-1.02,1.45-1.02l-.63-.91s-6.14-1.86-4.44-2.06c1.7-.2,3.79.27,3.79.27,0,0-1.94-1.89-1-1.96.94-.07,1.46.06,1.46.06,0,0-1.24-4.91.04-3.3,1.28,1.61,2.27,5.84,2.27,5.84l2.25.42s-7.91-7.83-6.84-7.52l1.07.31s-2.52-2.75-1.22-1.76c1.31.99,2.39,1.09,2.39,1.09l.61.04,2.64,2.34s-2.52-3.64-.49-1.63c2.03,2.01,6.22,8.73,6.22,8.73l-.3,1.02-2.1-1.75s-.96,1.87-1.19,1.08l-.22-.79-1.64.4,1.01,2.84s.32-4.55.82-4.11c.5.44-.74,7.33-.74,7.33,0,0,3.08-3.06,3.3-2.31s-4.06,5.06-4.06,5.06"/>
    <path class="st1" d="M85.91,33.55s5.13-2.22,6.65-2.61c1.52-.39,9.35-2.44,8.27-2.76-1.08-.32-1.46-.08-1.46-.08,0,0,1.59-1.18.46-1.07-1.14.11-3.99,2.21-3.99,2.21,0,0,3.27-2.62,2.19-2.5-1.08.11-4.62,3.13-4.62,3.13l-1.08.49s5.78-5.25,3.92-4.26c-1.85.99-2.72,1.78-2.72,1.78,0,0,1.6-2.35.69-1.51-.91.83-1.18,3.25-2.67,4.01-1.49.76-3.51,1.25-3.51,1.25,0,0,4.66-5.75,3.54-5.13-1.12.62-2.33,2.12-2.33,2.12,0,0,.37-1.33-.34-.48-.71.85-1.39,3.14-1.39,3.14l-.51.86-1.27.33.17,1.1Z"/>
    <path class="st1" d="M88.35,26.93l.98-.07s1.39.9,1.66.36c.27-.53-.66-.73-.66-.73,0,0,7.87-4.34,7.24-4.26l-.62.07s3.01-2.34,2.12-2.12c-.89.22-1.55.82-1.55.82,0,0,.75-.83-.07-.65-.82.18-3.42,2.65-3.42,2.65,0,0,2.54-2.96,1.34-2.44-1.2.53-2.83,3-3.85,3.93-1.02.93-1.48.75-1.48.75l1.59-3.12s6.21-2.49,4.87-2.25c-1.34.23-1.59-.04-1.59-.04,0,0,5.49-1.57,4.24-1.75s-2.03-.06-2.03-.06c0,0,2.72-3.86,1.48-2.73-1.24,1.13-2.17,1.97-2.17,1.97,0,0,1.04-1.25.2-.87-.85.37-3.07,3.39-3.07,3.39l-1.49,1.16s2.61-3.66,1.71-3.23c-.9.42-2.33,2.22-2.54,3.4-.21,1.18-1.69,4.01-1.69,4.01l-1.56,1.4.39.43Z"/>
    <path class="st1" d="M90.86,19.1c.05-.26,6.64-7.19,5.9-7.02l-.73.17s1.58-2.32.82-1.73c-.76.59-1.63,1.48-1.63,1.48,0,0-.04-1.24-.38-.64-.34.61-1.65,3.54-1.65,3.54l-.1-2.64s-.73,2.51-.71,3.05c.02.54-1.31,2.68-1.31,2.68,0,0-.05-3.16.76-4.58.81-1.43,1.85-5.64,1.85-5.64,0,0-1.55,2.79-1.85,3.76-.31.97-.49,1.34-.49,1.34,0,0,0-6.43-.38-5.88-.39.55-.73,3.43-.73,3.43,0,0-1.24-3.22-1.41-3.07-.16.15-.07,1.45-.07,1.45,0,0-1.32-2.18-1.35-1.25-.03.93,2.77,4.11,2.76,4.76,0,.65.09,3.82.09,3.82,0,0-2.08-6.61-2.32-5.7l-.24.91s-.87-2.47-.83-1.02c.03,1.45,2.96,5.81,3.06,6.6.11.79.24,3.57.24,3.57,0,0-.45-3.56-.84-3.01-.39.55-.36,1.12-.36,1.12,0,0-1.03-5.99-1.16-4.19-.13,1.8.22,3.16.22,3.16,0,0-1.88-6.79-1.98-4.92l-.1,1.87s-1.45-2.14-1.02-.95c.44,1.19,2.11,4.11,2.11,4.11,0,0-4.49-4.91-2.8-2.3,1.69,2.61,3.22,4.18,3.22,4.18,1.1,1.97,2.05,2.71,2.05,2.71l1.35-3.17Z"/>
    <path class="st1" d="M88.55,26.39s-.86-.12-.89-.98c-.03-.86.6-4.63-.17-4.16-.76.46-.85,3.41-.85,3.41,0,0-1.67-7.71-2.01-6.35-.34,1.37-.03,1.87-.03,1.87,0,0-2.23-3.81-2.16-2.98l.07.83s-1.86-1.77-1.57-1.04c.29.72.72,1.42.72,1.42,0,0-1.82-1.22-1.02.03.8,1.25,3,3.3,3,3.3,0,0-1.66-1.46-.66.3,1,1.76,4.71,5.18,4.71,5.18l.86-.84Z"/>
    <path class="st1" d="M85.75,32.45s-2.35-1.29-2.15-2.36c.2-1.07,1.08-4.12.68-3.91l-.4.21s-.21-2.21-.56-1.34c-.35.88-.56,3.37-.56,3.37,0,0-.14-6.03-.77-5.25-.63.77-.88,1.78-.88,1.78,0,0-.76-3.85-1.09-2.96-.33.89-.38,1.34-.38,1.34,0,0-.9-2.54-1.67-1.84-.77.7-.11.99-.11.99,0,0-1.08-.21-.48.34.6.54,2.49,2.19,2.49,2.19,0,0-3.21-1.62-2.51-.88.71.74,3.19,2.83,3.19,2.83,0,0-3.88-1.11-3.52-1.05.36.07.84.92.84.92.48.85,3.89,3.08,4.53,3.78.64.7.94,1.03.94,1.03,0,0-4.34-3.11-3.94-2.41l.4.69s-5.03-3.53-4.05-2.64c.98.89,2.96,2.58,2.96,2.58,0,0-2.8-.49-.87.8,1.92,1.28,3.18,1.03,3.18,1.03,0,0-1.52-.1-.64.68.88.78,3.79.7,3.79.7,0,0-1.81.86-1.1,1l.72.14s-1.81,2.84-.94,2.14c.87-.69,3.09-2.79,3.09-2.79l-.17-1.1Z"/>
    <path class="st7" d="M77.6,57.87s-.1,2.74-1.22,3.83c-1.12,1.09-2.86,2.6-2.86,2.6l.98,1.09,2.87,3.19s.97-1.82.93-3.87c-.04-2.05,5.43-24.89,5.97-26.59s5.68-15.47,6-16.41c.32-.94.79-3.71.79-3.71,0,0-4.85,13.38-5.31,14.45-.46,1.07-4.13,11.04-5.34,19.13l-2.14,7.02-.66-.73Z"/>
    <path class="st3" d="M80.87,65.39s7.77-.74,10.24-1.03c2.47-.29,14.07.32,17.37,1.23.58.16,1.26.37,2,.63.69.24,1.43.52,2.19.83,3.13,1.26,6.64,3.01,8.32,4.58,2.54,2.37,3.43,3.77,3.43,3.77,0,0-6.63-6.86-14.9-8.8-8.26-1.94-23.5-1.87-27-.19l-3.67,3.8-4.08-4.49s4.98-.21,6.11-.32"/>
    <path class="st3" d="M121.54,31.94s-12.88,7.68-16.81,10.86c-3.93,3.18-13.58,10.5-15.61,12.83-2.03,2.33-9.21,8.78-9.21,8.78l.09-.99s17.02-16.82,25.17-21.99c8.15-5.17,20.23-12.1,20.23-12.1l-3.86,2.61Z"/>
    <path class="st5" d="M97.45,67.51s1.64,1.36,1.82.81c.19-.56,4.04-2.08,3.71-1.68-.33.4-.65.59-.65.59,0,0,.6.34,1.97,0,1.36-.35,1.94-1.24,1.94-1.24,0,0-4.86-.59-6.98-.69,0,0,2.22,1.23,1.34,1.24-.88.01-1.98-.65-1.98-.65,0,0,.97,1.28.24,1.24-.72-.03-1.42.4-1.42.4"/>
    <path class="st5" d="M100.2,68.47c.21-.09,4.43,1.6,4.12,1-.31-.61-.83-.92-.83-.92l2.53-.53-2.34,3.62s-2.83-1.48-1.9-1.44c.93.04,1.54.18,1.4.01-.15-.16-2.97-1.75-2.97-1.75"/>
    <path class="st5" d="M107.52,72.98s.64,3.16.99,2.56c.34-.6.88.19.8-.32-.08-.52-1.79-2.23-1.79-2.23"/>
    <path class="st5" d="M109.52,66.59s1.07,1.23,1.24,1.37c.17.14,2.37.81,2.37.81l-.91-1.36-2.7-.82Z"/>
    <path class="st5" d="M109.39,69.44c.02.24,4.03,1.63,4.03,1.63l-.1,1.29-3.49-1.47s2.6,2.2,2,2.2c-.6,0-2.03-1.68-2.03-1.68l-.4-1.97Z"/>
    <path class="st5" d="M114.28,68.84c-.27.32,2.72,2.34,2.72,2.34,0,0,1.66-.46.97-.88-.69-.43-3.12-2.14-3.69-1.46"/>
    <path class="st4" d="M71.91,61.49s4.18,5.68,5.46,7.09c1.28,1.41,6.96,6.13,6.34,10.45-.62,4.32-5.7,8.94-7.19,9.7-1.49.76-2.16,1.97-4.07,2.91-1.91.94-1.99.42-3.37,1.29-1.39.87-3.27,1.19-3.27,1.19,0,0-6.36,5.39-9.78,5.34,0,0-5.38,4.3-6.43,4.66-1.05.36-3.02,2.55-3.99,3.44-.97.89-3.32,2.43-4.59,2.99-1.27.56-4.68,2.68-5.55,3.47-.87.79-7.55,3-8.24,3.98-.69.98-8.3,4.14-9.38,5.12-1.08.98-7.06,7.02-7.8,7.29l-.74.28s8.31-9.34,9.19-10.54c.89-1.2,3.95-6.96,5.69-8.74,1.74-1.78,4.19-5.39,5.19-6.9,1-1.51,2.44-5.58,3.91-6.13,0,0,1.15-2.43,2.29-2.48,0,0-.06-3.11,2.72-5.05,0,0,1.9-2.91,2.54-3.3,0,0,1.39-3.04,2.59-4.54,1.21-1.5,2.32-3.1,2.6-4.54.28-1.44-.14-1.46,2.26-4.04,2.4-2.58,2.79-4.32,4.32-5.9,1.53-1.58,5.2-7.1,8.07-8.73,2.87-1.62,8.46-2,11.21,1.67"/>
    <path class="st2" d="M23.31,117.17s2.59-4.1,4.91-6.13c2.31-2.02,3.83-3.17,5.52-5.02,1.68-1.84,2.69-3.35,2.69-3.35,0,0,.32-.3,1.41-1.28s1.03-2.12,1.03-2.12c0,0,3.36-1.08,3.89-3.54l.53-2.46s2.34-1.34,2.7-2.46c.36-1.12,1.88-4.67,3.16-5.44,1.28-.77,1.78-1.52,3.33-3.08l1.55-1.56s4.75-1.95,6.35-2.81c1.59-.86,3.44-.56,3.02-1.46-.42-.9,4.63-2.73,5.21-6.22.58-3.49-4.09-7.54-6-6.6-1.91.94-4.2,1.25-7.47,4.82-3.28,3.57-6.85,6.82-7.44,8.55-.6,1.73-3.17,5.65-3.95,6.96-.79,1.31-1.97,3.77-1.97,3.77,0,0-2.36,2.34-2.5,3.06-.14.72-2.89,2.91-2.83,4.49.06,1.59-2.03,1.9-2.41,3.44-.38,1.53-2.3,2.69-3.02,4.72-.72,2.04-8.18,11-8.87,12.42s-2.82,4.94-2.82,4.94c0,0,3.56-2.96,4-3.64"/>
    <path class="st2" d="M79,78.96s-.66,4.16-4.21,6.99c-3.55,2.83-6.37,3.42-8.82,4.86-2.45,1.44-11.01,5.07-10.23,3.97.78-1.1,11.92-9.06,15.61-12.62,3.69-3.55,3.11-4.41,4.56-4.55,1.46-.14,3.09,1.34,3.09,1.34"/>
    <path class="st8" d="M62.97,59.41s.64.34.76.83c.11.49-.07,1.45.55,2.2.62.75.65,1.05.65,1.05,0,0-1.58-1.4-1.71-1.88-.13-.48.05-.83-.11-1.09-.15-.26-.15-1.12-.15-1.12"/>
    <path class="st8" d="M66.58,64.03c.2.22,4.45,3.92,5.62,5.36,1.17,1.44,2.75,5.27,2.75,5.27,0,0-1.35-2.66-2.69-4.08-1.34-1.42-5.69-6.56-5.69-6.56"/>
    <path class="st8" d="M59.8,63.54s-1.22-1.92-.15-1.84c1.07.08,1.23,2.51,2.2,3.73.98,1.22,3.85,4.6,3.85,4.6,0,0-2.92-2.77-3.72-3.65-.8-.88-2.19-2.84-2.19-2.84"/>
    <path class="st8" d="M63.65,69c.13.08,2.01,1.27,3.38,2.92,1.37,1.65,1.4,2.55,2.19,4,.79,1.45,1.36,2.37,1.36,2.37,0,0-3.05-4.67-3.27-4.83l-.22-.16-.27-.38-.82-1.47-2.37-2.46Z"/>
    <path class="st8" d="M58.63,65.15s.43.98,2.07,2.78c1.64,1.8,3.32,2.71,4.1,3.71.78,1,1.5,2.45,1.5,2.45,0,0-1.08-1.19-1.87-2.06-.79-.87-2.62-2.3-3.63-3.42-1.02-1.12-2.17-3.48-2.17-3.48"/>
    <path class="st8" d="M56.35,65.69s.64,1,.9,1.35c.26.36-1.19-1.16-.9-1.35"/>
    <path class="st8" d="M57.86,68.8s.89.9,1.86,1.61c.97.7,1.65,1.21,1.65,1.21,0,0-4.02-2.08-3.5-2.81"/>
    <path class="st8" d="M55,68.04c.1.1,1.6,1.76,3.41,3.25,1.81,1.48,2.82,2.08,3.8,3.23.98,1.15,2.42,3.38,2.42,3.38,0,0-2.62-2.81-3.58-3.64-.96-.84-6.05-6.22-6.05-6.22"/>
    <path class="st8" d="M54.52,69.11c.15.16,1.8,1.75,3.52,3.35,1.72,1.6,3.03,2.97,4.38,4.52,1.34,1.55,2.04,2.63,2.04,2.63,0,0-2.41-2.88-4.01-4-1.6-1.11-3.07-3.37-3.07-3.37l-2.85-3.14Z"/>
    <path class="st8" d="M51.59,70.81s.92,1.6,1.32,2.03l.39.43-1.71-2.46Z"/>
    <path class="st8" d="M51.85,74s3.24,3.05,5.57,4.89c2.33,1.84,3.15,3.39,3.97,5.16.81,1.76,2.04,3.69,2.04,3.69,0,0-2.59-3.5-4.02-5.07-1.44-1.58-1.55-1.41-3.15-3.18-1.61-1.77-4.4-5.49-4.4-5.49"/>
    <path class="st8" d="M56.73,78.78s2.66,2.85,2.76,3.03c.1.18-3.1-2.86-2.76-3.03"/>
    <path class="st8" d="M50.93,76.75s4.46,4.18,6.45,6.72c1.99,2.54,3.33,4.82,3.33,4.82,0,0-2.43-3.49-3.07-4.01-.65-.52-1.37-1.7-2.26-2.48-.88-.78-4.44-5.05-4.44-5.05"/>
    <path class="st8" d="M48.32,80.04c.06.14.97,1.88,1.83,2.81.86.94,1.34,1.48,1.34,1.48l-3.18-4.29Z"/>
    <path class="st8" d="M46.68,81.28s.76,1.55,2.2,3.07c1.45,1.52,3.45,3.29,4.09,4.17.64.88,1.92,3.01,1.92,3.01,0,0-2.79-3-3.41-3.75-.62-.75-5.07-5.86-4.8-6.51"/>
    <path class="st8" d="M43.21,83.77s.91,1.28,1.2,1.61l.29.32s-2-1.41-1.5-1.93"/>
    <path class="st8" d="M43.88,88.56s1.58,1.52,2.81,2.58c1.23,1.06,3.45,4.05,3.45,4.05,0,0-2.52-2.45-3.34-3.42-.82-.97-2.92-3.21-2.92-3.21"/>
    <path class="st8" d="M41,91.19s3.81,3.39,4.58,4.46c.78,1.07,1.09,1.51,1.09,1.51,0,0-2.31-2.41-2.9-2.93-.59-.51-2.77-3.05-2.77-3.05"/>
    <path class="st8" d="M38.08,98.26c.1.11,2.4,1.84,3.38,2.99.98,1.15,1.95,2.51,1.95,2.51,0,0-4.04-4.3-4.55-4.49-.51-.2-.78-1-.78-1"/>
    <path class="st8" d="M34.71,100.14c.13.08,2.41,3.08,3.81,4.18,1.4,1.1,2.71,2.54,2.71,2.54,0,0-3.36-3.7-3.81-4.19-.45-.5-2.7-2.53-2.7-2.53"/>
    <path class="st8" d="M32.61,104.29c0-.15,1.73,2.12,2.79,3,1.06.88,1.98,1.96,1.98,1.96,0,0-4.79-3.81-4.77-4.95"/>
    <path class="st8" d="M30.8,106.86s.45.78,1,1.39c.56.61.7.77.7.77,0,0-2.14-1.84-1.71-2.17"/>
    <path class="st8" d="M28.78,108.69s.67,1.1,2.1,2.31c1.43,1.21,2.58,2.33,2.58,2.33,0,0-2.69-1.73-3.24-2.33-.55-.61-1.44-2.31-1.44-2.31"/>
    <path class="st8" d="M28.48,111.48c-.1-.17.56.61,1.31,1.44.75.83,1.9,1.5,1.9,1.5,0,0-1.79-.69-3.21-2.95"/>
    <path class="st8" d="M26.98,112.8c.18-.26.99,1.01,1.47,1.61.48.6,1.45,1.16,1.45,1.16,0,0-3.24-2.33-2.92-2.78"/>
    <path class="st8" d="M25.26,115.62s.22.53.85.93l.63.4s-2.11-.65-1.47-1.33"/>
    <path class="st1" d="M88.5,52.03s-4.58,5.05-4.69,4.27c-.12-.78,3.91-5.14,3.91-5.14l.79.86Z"/>
    <path class="st5" d="M88.47,43.64c-.11-.02,2.95-4.42,2.09-4.04-.86.38-1.06.76-1.06.76,0,0-.89-2.13-1.25-.74-.35,1.39-.55,3.18-.55,3.18l.76.84Z"/>
    <path class="st1" d="M91.42,39.61s-5.26,4.97-4.49,4.08c.77-.89,2.68-5.94,4.49-4.08"/>
  </g>
</svg>