<?xml version="1.0" encoding="UTF-8"?>
<svg id="Vrstva_1" xmlns="http://www.w3.org/2000/svg" xmlns:xlink="http://www.w3.org/1999/xlink" version="1.1" viewBox="0 0 141.73 141.73">
  <!-- Generator: Adobe Illustrator 30.1.0, SVG Export Plug-In . SVG Version: 2.1.1 Build 136)  -->
  <defs>
    <style>
      .st0 {
        fill: none;
      }

      .st1 {
        fill: #b8bc6c;
      }

      .st2 {
        fill: #a6b65e;
      }

      .st3 {
        fill: #afbc62;
      }

      .st4 {
        fill: #cfd380;
      }

      .st5 {
        fill: #5a7830;
      }

      .st6 {
        fill: #706f6f;
      }

      .st7 {
        fill: #618235;
      }

      .st8 {
        fill: #abae64;
      }

      .st9 {
        fill: #99a356;
      }

      .st10 {
        fill: #c1ca71;
      }

      .st11 {
        clip-path: url(#clippath);
      }
    </style>
    <clipPath id="clippath">
      <rect class="st0" x="12.15" y="3.64" width="117.79" height="117.79"/>
    </clipPath>
  </defs>
  <g>
    <path class="st6" d="M50.42,127.61l.08,2.46h-1.6l.08-2.32-.07-5.99,1.6-.12-.1,5.96ZM52.04,127.01c.43.7,1.08,1.63,1.94,2.8v.17c-.29.06-.59.11-.91.15-.32.04-.51.06-.58.07l-.17-.07c-.7-.99-1.31-1.98-1.82-2.96v-.11l1.39-1.98.29-.58h1.68l-1.82,2.52Z"/>
    <path class="st6" d="M58.93,127.48l-3.24.02c.07,1,.58,1.5,1.52,1.5.5,0,1.05-.14,1.66-.42l.13.08-.24,1.19c-.61.22-1.18.34-1.72.34-.88,0-1.57-.26-2.07-.77-.5-.51-.75-1.22-.75-2.12s.24-1.61.73-2.13c.49-.52,1.15-.79,1.98-.79.71,0,1.26.19,1.65.58.39.39.58.93.58,1.63,0,.18-.02.42-.06.7l-.18.19ZM57.78,126.41c0-.32-.07-.56-.22-.73s-.36-.25-.64-.25c-.31,0-.57.1-.78.31s-.35.5-.42.88l2.03-.05.02-.17Z"/>
    <path class="st6" d="M64.93,127.61l.04,1.01c0,.14.02.23.05.28s.1.08.2.08c.09,0,.2-.02.32-.05l.11.1-.13.84c-.27.17-.57.27-.89.3-.25-.02-.46-.11-.62-.25-.17-.14-.28-.34-.35-.59h-.1c-.39.36-.79.64-1.2.83-.78,0-1.39-.25-1.82-.75s-.65-1.19-.65-2.08c0-.94.25-1.67.74-2.17s1.18-.76,2.06-.76c.23,0,.49.02.77.07l-.02-2.7,1.58-.12-.1,5.96ZM61.39,127c0,.63.1,1.11.29,1.43.19.32.47.48.84.48s.68-.16.97-.49l.02-.66-.04-2.06c-.31-.14-.61-.22-.89-.22-.8,0-1.2.51-1.2,1.52Z"/>
    <path class="st6" d="M68.15,127.61l.08,2.46h-1.6l.08-2.32-.07-5.99,1.6-.12-.1,5.96Z"/>
    <path class="st6" d="M75.07,129.03l-.14.84c-.29.19-.6.29-.91.3-.23-.04-.42-.13-.58-.28-.15-.14-.27-.35-.35-.62h-.11c-.46.45-.93.74-1.42.88-.61,0-1.07-.14-1.39-.41-.32-.28-.47-.67-.46-1.19l.02-1.42-.06-2.52,1.55-.13-.04,3.54c0,.28.05.49.17.64.12.14.3.22.54.22.35,0,.7-.16,1.04-.47v-3.79l1.53-.13-.11,4.15c0,.13.02.22.07.28.04.06.12.08.21.08.09,0,.2-.02.32-.05l.11.1Z"/>
    <path class="st6" d="M80.63,125.13c.37.48.56,1.14.56,1.99,0,.98-.24,1.74-.73,2.27-.49.53-1.16.8-2.03.8-.41,0-.86-.09-1.34-.28l-.84.3-.19-.16.08-2.28-.07-6.01,1.58-.12-.05,3.64h.07c.22-.22.44-.39.65-.52.21-.13.44-.25.7-.34.7,0,1.24.24,1.61.71ZM79.37,128.72c.22-.29.34-.73.34-1.32,0-.55-.09-.97-.27-1.26-.18-.29-.45-.43-.81-.43-.33,0-.67.17-1.03.5l-.02,1.37.02,1.36c.3.14.58.22.84.22.4,0,.71-.14.94-.43Z"/>
    <path class="st6" d="M85.64,126.59c0-.28-.05-.5-.19-.65-.13-.16-.32-.23-.57-.23-.36,0-.74.17-1.15.52v1.39l.07,2.46h-1.6l.08-2.3-.06-3.17,1.51-.13v.82h.08c.44-.4.92-.69,1.44-.86.61,0,1.07.14,1.39.41.32.28.47.67.46,1.19l-.04,1.6.07,2.45h-1.61l.1-3.48Z"/>
    <path class="st6" d="M92.2,124.8c.35.28.52.66.52,1.16,0,.14-.02.6-.07,1.37,0,.22-.02.45-.04.69-.02.24-.02.44-.02.61,0,.14.02.23.06.28s.11.08.22.08c.08,0,.18-.02.31-.05l.12.1-.14.84c-.26.17-.55.27-.88.3-.24-.02-.44-.11-.6-.26-.16-.15-.27-.35-.32-.62h-.08c-.4.42-.81.72-1.24.89-.58,0-1.03-.16-1.36-.46s-.49-.7-.49-1.21c0-.4.1-.71.31-.94.2-.23.51-.38.93-.46l1.84-.35v-.49c0-.52-.26-.78-.77-.78-.25,0-.51.06-.79.17s-.59.29-.93.53l-.12-.07-.18-1.06c.34-.22.71-.38,1.1-.5s.78-.17,1.18-.17c.62,0,1.1.14,1.45.41ZM89.98,127.84c-.13.03-.22.09-.28.16-.06.08-.09.19-.09.34,0,.21.06.37.17.49.11.12.27.17.47.17.31,0,.64-.18.98-.55l.02-.89-1.27.28Z"/>
  </g>
  <g class="st11">
    <path class="st3" d="M91.69,71.49s2.92-3.74,4.19-8.78c1.27-5.03,2.78-9.49,2.78-9.49,0,0,3.68.29,3.24,1.15-.44.86-4.14,14.39-5.09,16.26-.96,1.87-2.25,3.6-2.25,3.6l-2.88-2.73Z"/>
    <path class="st3" d="M51.36,67.56s.57-11.89.74-14.34c.17-2.44.85-10.36.85-10.36,0,0,2.93-.86,2.78,0-.15.86-.57,10.93,0,15.39.57,4.46.28,5.81,1.51,6.36,1.22.55-5.88,2.94-5.88,2.94"/>
    <path class="st2" d="M100.54,54.16s-1.65,7.53-2.66,10.46c-1.01,2.92-3.84,7.63-3.84,7.63l-.52-.55s3.57-6.31,4.07-7.96c.5-1.65,1.88-9.25,2.95-9.57"/>
    <path class="st2" d="M54.86,43.96s-.13,9.22-.5,9.1c-.37-.12-1.37-.12-1.23.17.14.29-.14-.58.14.29.29.86.44,13.2.97,12.98.54-.22,3.77-1.03,2.99-1.88-.79-.85-1.13-2.9-1.24-3.9-.1-.99-.49-10.03-.27-12.15.21-2.11,0-6.19,0-6.19,0,0-.98.1-1.28.15,0,0,.44.14.42,1.42"/>
    <path class="st10" d="M67.16,63.55s-4.1-.12-9.93,1.07c-5.83,1.19-14.67,7.02-15.86,9.39-1.19,2.37-3.02,9.39-2.27,15.97.76,6.58,2.59,14.46,8.63,18.34,6.04,3.88,9.6,6.69,19.42,6.69s15.64,0,25.25-6.26c9.6-6.26,10.36-13.81,8.95-22.22-1.4-8.42-7.88-15.54-10.79-17.37s-8.52-4.96-12.95-5.07c-4.42-.11-10.47-.54-10.47-.54"/>
    <path class="st1" d="M54.11,110.05s5.72,3.67,11.22,3.67,7.12-1.83,10.79-1.83,15.54-3.56,18.56-6.26c3.02-2.7,3.99-2.6,3.99-2.6,0,0-6.58,9.93-19.85,11.98-13.27,2.05-21.19-.49-25.87-3.42,0,0,2.99,1.15,4.4,1.37,1.4.22,2.05.22,2.05.22,0,0-5.18-2.48-5.29-3.13"/>
    <path class="st1" d="M40.73,82.86s5.39,3.67,9.28,3.99c3.88.32,6.69,2.05,11.65,3.45,4.96,1.4,11.33,2.81,17.48,2.48,6.15-.32,5.39-.22,6.15-.32.75-.11,2.91-.43,2.91-.43,0,0-7.23,3.02-13.7,3.02s-18.23-3.67-19.64-4.21c-1.4-.54-4.64-1.62-7.23-2.48-2.59-.86-6.9-5.5-6.9-5.5"/>
    <path class="st8" d="M40.73,82.86s4.1,3.56,6.47,4.53c2.37.97,12.95,4.31,15.97,5.07,3.02.76,7.48,2.9,15.21,1.62,7.74-1.28,9.82-2.05,9.82-2.05,0,0-7.66,3.99-16.18,3.02s-17.75-4.21-19.07-4.42c-1.32-.22-10.39-3.02-12.22-7.77"/>
    <path class="st1" d="M93.81,104.87c-.36.14,2.59-1.51,3.35-3.02l.75-1.51s.97,2.59-4.1,4.53"/>
    <path class="st2" d="M63.39,65.78s-.43,2.4,1.62,2.62c2.05.21,10.68.43,12.19,0,1.51-.43,1.51-1.19,1.51-1.19,0,0,1.4,2.59-8.85,2.05-10.25-.54-7.34-2.76-6.47-3.48"/>
    <path class="st4" d="M45.59,89.03s3.54,2.24,5.35,3.38c1.81,1.13,5.83.92,7.69,1.13s11.24,2.7,11.24,4.32-5.33.76-7.52.86c-2.19.11-4.78.43-8.02.11-3.24-.32-4.22-2.37-6.05-3.78-1.83-1.4-4.74-5.35-2.69-6.02"/>
    <path class="st2" d="M45.59,67.56s2.03,12.92,2.69,15.3c.66,2.37,2.27,6.69,1.95,7.88-.32,1.19,1.73,3.13,4.64,3.24,2.91.11,4.58.74,3.34-1.29-1.23-2.03-2.91-5.61-4.1-8.52-1.19-2.91-2.26-8.31-2.7-11.44-.43-3.13-.76-4.53-.76-4.53,0,0-2.7-.5-5.07-.62"/>
    <path class="st9" d="M46.99,67.67s2.59,14.32,3.24,17.67c.65,3.35,2.7,6.8,3.35,6.9.65.11,2.03.81,2.16,0,.12-.81-4.1-8.52-4.37-10.03-.27-1.51-2.21-14.27-2.21-14.27,0,0-.76-.16-2.16-.27"/>
    <path class="st7" d="M76.68,55.74s-.09.29,1.42.36c1.51.07,0,.15,2.4,0,2.4-.15,2.85.29,3.14-.36s.79.07.79-.72.58-.72,1.22-.93l.65-.22s1.37.07,1.22-.65c-.14-.72.22-.54.72-1.13.5-.6.58-1.39.29-1.74-.29-.36-.24-.72.17-.94.41-.22,1.2-1.08.62-1.29-.57-.22-1.51-.86-.65-1.22s1.37-1.51,1.73-1.47c.36.04,1.15.76,1.8,0,.65-.76,2.52-.4,2.3-.9-.22-.5-2.81-1.37-2.81-1.37,0,0,1.73-1.29,1.73-1.73s-.86.21-.86-.79.65-.79.93-1.08c.29-.29,1.26-.29,1.02-1.08s-.52-1.37-.52-2.01.56-1.65.56-1.65c0,0,.81-.14.81-.93s-.65-.5-.79-.72c-.14-.22-.36-1.51-1.22-1.87s-2.23.29-3.09.58c-.86.29-2.52.29-3.52,1.01-1.01.72-.72.65-1.94.94-1.22.29-1.65.07-2.37.79-.72.72-.45,1.58-1.91,1.87-1.47.29-1.34.29-1.73.86-.39.58-1.68,2.23-1.68,2.23,0,0-3.6,6.19-3.67,8.56-.07,2.37.5,5.11,1.08,6.19.58,1.08,2.18,1.44,2.18,1.44"/>
    <path class="st2" d="M79.1,69.34s-3.24-.15-2.23.5c1.01.65,6.4,1.22,7.05.58.65-.65-2.94-1.12-4.82-1.08"/>
    <path class="st3" d="M79.25,70.01s.65-10.46.79-12.11c.14-1.65.36-8.49.72-8.77.36-.29,2.3-1.08,2.37,0,.07,1.08-.79,18.56-.79,19.71s.29.99-1.15,1.18-1.94,0-1.94,0"/>
    <path class="st5" d="M68.9,49.7s2.51-.22,2.47-.43c-.04-.22-.47-.5.39-1.01.87-.5,1.59-.57,2.74-1.58,1.15-1.01,1.73-2.16,1.73-2.16,0,0,1.08-1.94,1.44-3.67.36-1.73.43-3.17,0-4.32-.43-1.15-3.08-1.87-4.24-1.22-1.16.65-4.97,4.68-5.19,6.04-.22,1.37-1.08,5.04-1.08,5.04l1.73,3.31Z"/>
    <path class="st7" d="M66.2,45.97s-.98-.37-2.13-.55c-1.15-.18-2.3.49-2.95.55s-.86.58-.94-.29c-.07-.87-.36.42-.5-1.3-.14-1.73,0-2.66-.29-3.6-.29-.93-1.12-2.66-.78-3.09.34-.43,1.85-1.58,1.85-3.09s.43-.93.5-1.87c.07-.93.72-1.44,0-2.3-.72-.86-1.37-.5-1.15-1.8.22-1.29,1.01-2.45.58-3.38-.43-.94-3.31-3.16-2.45-3.67.86-.5,2.3-.86,2.3-.86,0,0,.22-1.01.72-1.01h.5s.79.72,1.37-1.15c.58-1.87-.22-2.44,1.37-2.66,1.58-.22.07-3.38.86-3.6.79-.22,1.94.36,2.44-.65.5-1.01.66-1.65,1.37-1.65s1.93-1.65,2.87-1.37c.94.29,1.65.72,1.65.72,0,0,.08.21,1.08.72,1.01.5,3.47-.07,3.46,1.29,0,1.37.3,1.15,0,2.3-.3,1.15-1.14,1.22,0,1.15,1.14-.07,3.38,0,3.23.93-.15.93-1.3,2.88-1.3,2.88,0,0,1.21.29.6.93-.6.65-.82.5-.68,1.08.14.58.7.94.68,1.37-.03.43,1.41,1.15,1.12,1.8-.29.65-1.12.93-1.12.93,0,0,.26.72-.46.86-.72.14-1.08.72-.79.86.29.14,1.51.12.79.92-.72.81-1.44.88-.79,1.24.65.36.79.5.58,1.22-.22.72-.26.94.52.72.78-.22.71-.36.85.36.14.72,0,1.08,0,1.08l.47.93-1.32.86s.91.93.16,1.51c-.75.58-1.96.07-2.4.65-.44.58-.44,1.08-2.02,1.01-1.58-.07-1.01-.58-1.58.22-.58.79-1.18.22-2.1,1.08-.92.86-.34,1.22-1.03,1.8-.68.58-.52.42-1.64,2.47-1.13,2.06-2.56,3.86-2.56,3.86l-.97-.42Z"/>
    <path class="st2" d="M65.08,65.24s-.79.5,0,.93c.79.43,1.8.22,2.45.43.65.22,2.95,1.19,6.33.96,3.38-.24,4.32-.18,4.24-1.14-.07-.96-.65-1.18-.65-1.18,0,0-3.48-.66-7.03-.62-3.55.04-5.49.19-5.35.62"/>
    <path class="st3" d="M67.45,65.78s1.29-8.82,1.44-11.62c.14-2.81-2.01-15.03-2.09-18.77-.07-3.74,0-16.18,0-16.18,0,0-1.37,17.43-.93,23.28.43,5.85,1.01,6.64,1.01,11.39s-1.44,11.51-1.44,11.51c0,0,.22.73,2.01.4"/>
    <path class="st7" d="M71.79,63.54s-1.08.18-1.24-1.04c-.16-1.22-.06-2.52,0-2.81.06-.29.37-.29,0-1.15-.37-.86-1.38-.65-.69-1.58.68-.93.88-1.58.85-1.94-.02-.36.35,0,.7-.79.35-.79,1.3-1.51,1.62-1.01.32.5-.13,1.15.38,1.8.51.65.51.93.51,1.58s-.73,1.17-.51,1.7-.22,1.75,0,2.4c.22.65.72,1.08.51,1.8-.22.72-2.13,1.04-2.13,1.04"/>
    <path class="st3" d="M75.94,66.46s1.15.21,1.51-.35c.36-.56-.94-4.83-.76-8.64.18-3.81,3.99-10.5,4.93-11.65s4.46-8.13,4.46-8.13c0,0-5.54,9.26-6.83,10.89l-1.29,1.63s-2.95,4.53-3.02,8.13c-.07,3.6.08,7.26,1.01,8.13"/>
    <path class="st3" d="M71.77,66.5s.93.76,1.22,0-1.01-5.14-.61-7.52l.4-2.37s-1.08,1.73-1.01,9.89"/>
    <path class="st3" d="M68.71,51.29s1.04-3.74,2.33-5.54c1.29-1.8,3.45-6.18,3.45-6.18,0,0-3.74,5.18-4.39,6.54-.65,1.37-1.87,3.88-1.87,3.88l.47,1.3Z"/>
    <path class="st3" d="M66.3,43.16s-.5-1.8-1.83-2.59-4.35-1.87-4.35-1.87c0,0,2.61.21,4.61,1.51,2.01,1.29,1.57,2.95,1.57,2.95"/>
    <path class="st3" d="M66.34,38.05s-1.05-2-2.41-2.98c-1.37-.98-1.59-1.91-1.59-1.91,0,0,.8.93,1.51,1.15.72.22,2.49,3.02,2.49,3.02v.72Z"/>
    <path class="st3" d="M65.96,32.86s-1.1-.93-2.03-1.68c-.94-.76-1.94-2.99-1.94-2.99,0,0,1.55,2.52,2.35,2.99.81.47,1.65,1.03,1.65,1.03l-.03.65Z"/>
    <path class="st3" d="M66.34,30.86s1.27-1.58,2.56-4.03c1.29-2.44,2.52-4.89,2.52-4.89,0,0-2.74,6.62-3.53,7.62-.79,1.01-1.11,1.94-1.11,1.94l-.43-.65Z"/>
    <path class="st3" d="M66.66,38.7c0-.14,1.44-4.75,2.59-6.4,1.15-1.65,3.67-6.11,5.97-6.69l2.3-.58s-2.37.46-3.81,1.69c-1.44,1.23-5.25,6.74-5.47,8.35-.22,1.61-1.07,4.49-1.07,4.49l-.51-.86Z"/>
    <path class="st3" d="M67.17,42.39s1.1-3.47,2.56-6.78c1.46-3.31,6.57-5.07,6.57-5.07,0,0-3.45,2.12-4.49,3.2s-2.59,4.83-2.91,5.83c-.32.99-1.73,4.13-1.73,4.13v-1.3Z"/>
    <path class="st3" d="M79.25,49.88s3.24-2.7,5.54-3.49c2.3-.79,4.75-1.51,4.75-1.51,0,0-5.1.83-7.48,2.5s-3.28,2.32-3.28,2.32l.47.18Z"/>
    <path class="st3" d="M80.34,46.99s3.22-2.28,4.81-3.31c1.58-1.03,4.1-2.76,4.1-2.76l-7.62,4.89-1.28,1.18Z"/>
    <path class="st3" d="M78.46,43.96c.29.35,1.88,3.04,1.88,3.04l-.25.39-1.63-3.42Z"/>
    <path class="st3" d="M82.26,43.96s-.64-3.25-.6-4.4c.03-1.15,0-1.87,0-1.87,0,0-.51.93.3,6.76l.3-.49Z"/>
    <path class="st2" d="M81.19,61.72s.03,7.71-.41,7.68c-.44-.03-.44-.5-.44-.5l.43-7.55.43.37Z"/>
    <path class="st2" d="M45.59,89.03l4.65,2.27s4.31,2.24,5.5,2.08c1.18-.16,2.89.16,2.89.16,0,0,10.7,1.73,11.24,4.32,0,0-9.6-3.96-13.16-3.71-3.56.26-7.57-2.87-7.57-2.87-1.17-.11-3.55-2.24-3.55-2.24"/>
  </g>
</svg>