<?xml version="1.0" encoding="UTF-8"?>
<svg id="Vrstva_1" xmlns="http://www.w3.org/2000/svg" version="1.1" viewBox="0 0 232.44 232.44">
  <!-- Generator: Adobe Illustrator 30.1.0, SVG Export Plug-In . SVG Version: 2.1.1 Build 136)  -->
  <defs>
    <style>
      .st0 {
        fill: #fff;
      }

      .st1 {
        fill: #39867d;
      }
    </style>
  </defs>
  <rect class="st1" x=".56" y=".11" width="232" height="233.33"/>
  <ellipse class="st0" cx="94.98" cy="79.46" rx="18.02" ry="27.48" transform="translate(-15.59 23.7) rotate(-13.15)"/>
  <ellipse class="st0" cx="62.84" cy="114.9" rx="18.02" ry="27.48" transform="translate(-24.5 17.31) rotate(-13.15)"/>
  <ellipse class="st0" cx="142.86" cy="79.56" rx="27.48" ry="18.02" transform="translate(32.88 200.57) rotate(-76.85)"/>
  <ellipse class="st0" cx="175" cy="115" rx="27.48" ry="18.02" transform="translate(23.19 259.24) rotate(-76.85)"/>
  <path class="st0" d="M117.03,105.53s-5.32-.25-23.86,22.54c-21.19,26.06-33.34,42.65-15.32,58.87,18.02,16.22,23.43-1.5,42.05.9s34.84,8.41,42.95-8.71-28.83-63.38-33.94-69.08c-5.11-5.71-11.89-4.51-11.89-4.51Z"/>
</svg>