<?xml version="1.0" encoding="UTF-8"?>
<svg id="Vrstva_1" xmlns="http://www.w3.org/2000/svg" xmlns:xlink="http://www.w3.org/1999/xlink" version="1.1" viewBox="0 0 283.46 283.46">
  <!-- Generator: Adobe Illustrator 30.1.0, SVG Export Plug-In . SVG Version: 2.1.1 Build 136)  -->
  <defs>
    <style>
      .st0 {
        fill: none;
      }

      .st1 {
        fill: #995e30;
      }

      .st2 {
        fill: #5c5824;
      }

      .st3 {
        fill: #f6ebca;
      }

      .st4 {
        fill: #171813;
      }

      .st5 {
        fill: #a39a86;
      }

      .st6 {
        fill: #a67045;
      }

      .st7 {
        fill: #716a38;
      }

      .st8 {
        clip-path: url(#clippath-1);
      }

      .st9 {
        clip-path: url(#clippath-3);
      }

      .st10 {
        clip-path: url(#clippath-2);
      }

      .st11 {
        fill: #fff;
      }

      .st12 {
        fill: #3b3c38;
      }

      .st13 {
        fill: #e5cf9b;
      }

      .st14 {
        fill: #d1ba82;
      }

      .st15 {
        fill: #dbc5b6;
      }

      .st16 {
        fill: #8e4e20;
      }

      .st17 {
        fill: #baa495;
      }

      .st18 {
        fill: #8e8776;
      }

      .st19 {
        clip-path: url(#clippath);
      }
    </style>
    <clipPath id="clippath">
      <rect class="st0" x="19.84" y="19.84" width="243.78" height="243.78"/>
    </clipPath>
    <clipPath id="clippath-1">
      <path class="st0" d="M216.17,95.63s.18.35.26.71c.15-.02.3-.04.44-.04.08,0,.16,0,.22.02.03-.07.05-.13.05-.2v-.03c0-.24-.25-.44-.96-.46h0Z"/>
    </clipPath>
    <clipPath id="clippath-2">
      <rect class="st0" x="216.17" y="95.63" width=".97" height="1.23"/>
    </clipPath>
    <clipPath id="clippath-3">
      <rect class="st0" x="19.84" y="19.84" width="243.78" height="243.78"/>
    </clipPath>
  </defs>
  <rect class="st7" x="19.84" y="19.84" width="243.78" height="243.78"/>
  <g class="st19">
    <path class="st1" d="M215.5,82.27s5.77,2.35,7.21,4.18c1.44,1.84,5.88,1.55,6.21,2.9.33,1.34.53,9.17-.58,8.65-1.11-.52-12.84-15.73-12.84-15.73"/>
    <path class="st2" d="M81.69,222.73s7.29,2.26,9.67,1.25c2.38-1.01,6.08-8.15,19.03-11.85,12.95-3.7,35.42-2.52,42.02-2.85,6.61-.32,12.9,9.46,14.51,11.84,1.61,2.38,12.45-1.06,14.83-2.64,2.38-1.59,28.96-1.59,33.78-4.76,4.81-3.17,5.87-8.5,17.23-12.58,11.37-4.07,56.03-5.66,65.28-8.04,9.25-2.38,25.11-11.89,20.88-14.8-4.23-2.91-23.79-.78-38.85-.65-15.07.13-46.56,9.64-65.44,9.64s-52.97,3.44-67.24,6.08c-14.27,2.64-71.4,20.93-65.7,29.37"/>
    <path class="st1" d="M210.21,120.38s0,8.94,2.82,9.82c2.82.88,7.43-2.23,7.43-2.23l-10.25-7.59Z"/>
    <path class="st13" d="M67.13,194.51s1.06,5.64,2.29,10.57c1.23,4.93-.53,12.86,1.41,14.1,1.94,1.23,3.7.88,3.7.88,0,0,2.82,4.41,5.81,3.88,2.99-.53,2.82-11.06,1.76-14.69-1.06-3.63-4.58-10.86-4.4-13.85.18-2.99-.35-4.93,1.23-4.93s12.33.18,17.09,0c4.76-.18,13.21-6.87,13.21-6.87l-2.29-5.29h-22.2l-9.69,3.7-7.93,12.51Z"/>
    <path class="st14" d="M70.3,203.15s4.16-6.14,7.46-6.77c0,0-.24-3.47,1.35-4.68,1.59-1.22,3-7.22,12.51-9.52,9.51-2.29,12.57-.69,13.39,1.59.82,2.28-8.99,6.69-8.99,6.69,0,0,7.58-.7,17.27-2.11,9.69-1.41,15.15-1.76,15.15-1.76,0,0-13.92-8.99-29.07-10.04-15.15-1.06-20.26,2.64-27.14,7.93-6.87,5.29-5.11,11.1-5.11,11.1,0,0,1.31,4.08,2.02,8.39l1.15-.81Z"/>
    <path class="st13" d="M157.96,190.16s-.44,11.44,0,13.8-1.01,9.06-.2,12.4c.82,3.35.11,7.49,1.52,7.62,1.41.13.53,1.9,5.64,3.31,5.11,1.41,10.75,1.59,10.92,0l.18-1.58s.71-.44,0-1.72c-.71-1.28-4.76-.57-6.87-4.1-2.12-3.52-2.29-9.87-1.23-13.39,1.06-3.52,3-12.86,3-12.86l-12.95-3.47Z"/>
    <path class="st3" d="M59.73,226.93s-5.11-4.4-5.11-11.1,1.23-10.22,6.87-12.86c5.64-2.64,11.63-13.04,13.92-16.56s8.99-8.11,18.85-8.11,12.86,4.05,34.18,8.28c21.32,4.23,20.26,3.63,23.79,3.57,3.52-.05,17.44,5.06,20.09,6.47,2.64,1.41,2.39,3.52,4.01,3.52,0,0-.49,10.22.74,12.33,1.23,2.11.53,6.35,2.47,7.93,1.94,1.59,3.35.71,3.35.71,0,0,.53,1.23,2.11,1.41,1.59.18,2.29-.71,2.29-.71,0,0,1.23-.7,2.11-1.76.88-1.06.18-12.51-.7-17.44-.88-4.93,1.41-6.77-3.17-12.46-4.58-5.69-10.22-10.1-10.22-10.1,0,0,9.69-4.23,13.04-14.62,3.35-10.4,1.76-9.69,3.7-13.57,1.94-3.88,1.94-12.69,3.88-14.62,1.94-1.94,4.4-1.59,5.81-4.93,1.41-3.35,1.06-5.11,1.06-5.11l-15.51-7.58-7.4,5.11-17.44,19.21-9.69,13.21s-10.75,2.29-14.27,3.35c-3.52,1.06-35.42,5.64-36.12,5.64s-24.49-9.16-24.49-9.16c0,0-6.17,19.91-14.63,24.84-8.46,4.93-10.92,10.57-12.16,13.22-1.23,2.64-8.28,18.85-7.58,20.62.7,1.76,2.99,10.71,3.17,12.75.18,2.05,2.64,6.63,6.52,7.16,3.88.53,4.58-1.23,4.58-1.23,0,0,3.17,1.23,5.11,0,1.94-1.23.53-2.82.53-2.82,0,0,1.76,0,1.06-1.41-.71-1.41-4.76-3.17-4.76-3.17"/>
    <path class="st3" d="M60.44,94.08s-.18-16.03,2.99-21.67c3.17-5.64,6.17-11.1,6.34-18.32.18-7.22-2.64-9.34-2.64-9.34,0,0,0,6.17-3,8.63-2.99,2.47-12.16,10.04-14.8,21.67-2.64,11.63,0,23.43,0,23.43l11.1-4.4Z"/>
    <path class="st3" d="M215.5,82.27s5.64,3.17,7.22,6.52c1.59,3.35,4.23,9.34,8.99,11.63,4.76,2.29,10.4,6.7,10.75,7.93.35,1.23,0,9.34-1.06,12.51-1.06,3.17-5.99,6.87-7.93,7.22l-1.94.35s-6.52,1.41-9.69,0c-3.17-1.41-7.22-6.34-7.22-6.34,0,0,3.88-14.98,5.82-17.27,1.94-2.29,3.17-4.41,1.76-8.46-1.41-4.05-7.58-14.1-7.58-14.1h-1.59,2.47Z"/>
    <path class="st15" d="M233.47,128.08s6.07-1.86,7.59-6.43,1.37-7.32,1.37-7.32l-6.48-1.34s-.66,8.8-3.34,11.41c-2.68,2.61-5.46,3.18-5.46,3.18l6.34.49Z"/>
    <path class="st6" d="M49.34,98.48s1.06,9.87,3.17,17.44c2.12,7.58,4.41,16.04,3.35,19.21-1.06,3.17-3.94,7.05-7.69,15.15-3.76,8.1-4.46,14.8-3.76,20.79.7,5.99,3.17,15.15,2.47,17.8-.7,2.64-6.69,8.85-7.4,12.27-.7,3.41,4.05,14.51,4.05,14.51,0,0,4.41-4.11,5.99-6.37,1.59-2.26,2.11-4.73,4.76-7.37,2.64-2.64,1.76-8.28,2.82-9.87,1.06-1.59,9.34-6.34,13.74-13.74,4.4-7.4,9.51-18.85,9.51-18.85,0,0-8.81-22.91-7.05-25.9,1.76-3,3.35-7.93,3.35-7.93,0,0-5.64-1.41-9.52-7.93-3.88-6.52-6.69-23.61-6.69-23.61,0,0,.07-1.59-1.46-1.94-1.53-.35-4.17-1.06-4.17-1.06l-1.59,1.41c-1.41.88-3.35.53-3.35.53,0,0-.78,3.36-.53,5.46"/>
    <path class="st6" d="M138.32,183.24s10.92,1.76,13.04,0c2.11-1.76,2.11-7.58,4.4-9.87,2.29-2.29,5.64-6.17,5.11-9.16-.53-3-5.04-4.27-5.82-6.69-.77-2.42,9.99-11.45,11.87-13.22,1.88-1.76,3.82-5.11-.77-9.69-4.58-4.58-10.4-10.4-16.56-7.05-6.17,3.35-8.63,17.44-9.51,22.73-.88,5.29-1.76,32.95-1.76,32.95"/>
    <path class="st4" d="M76.65,125.62s-6.33,8.1-6.86,11.28c-.54,3.17,8.98,22.34,12.85,26.32,3.88,3.98,14.8,9.8,19.91,11.38,5.11,1.59,7.05,2.28,8.99,1.76,1.94-.52,2.99-3.34,4.58-2.99,1.59.35,6.7,2.21,10.57,4.28,3.88,2.07,9.34,6.3,11.63,5.59,2.29-.71,5.78-8.1,5.88-11.8.11-3.7,1.3-14.98,0-22.55-1.3-7.58,3.28-18.5,8.57-18.85,5.29-.35,10.56,7.69,12.36,10.98,1.8,3.29,2.59,2.43,2.59,2.43,0,0,3.55-1.61,7.25-3.9,3.7-2.29,7.05-12.86,9.69-16.39,2.64-3.52-.35-12.16-.7-14.27-.35-2.11.35-18.85.35-18.85,0,0-10.93,8.46-12.69,11.45-1.76,2.99-3.17,7.22-17.97,12.51-14.8,5.29-20.97,7.4-24.14,9.34-3.17,1.94-12.51,1.94-26.61,1.94s-26.25.35-26.25.35"/>
    <path class="st13" d="M175.32,180.06s-5.11-3.53-4.23-3.7c.88-.17,6.34-3.7,9.69-7.75l3.35-4.05s-2.99,6.17-4.93,7.75l-1.94,1.59s11.17-8.23,12.98-15.13c0,0-1,15.83-14.92,21.29"/>
    <path class="st1" d="M228.92,98.48s-1.48-3.17-1.11-5.82c.37-2.64-6.8-6.21-6.8-6.21,0,0,5.12,10.09,7.91,12.03"/>
    <path class="st6" d="M184.84,87.38s2.47-6.7,7.58-7.75c5.11-1.06,19.21-.18,22.2,2.64,3,2.82,10.12,13.39,10.35,16.21.22,2.82-3.38,5.21-3.95,7.18-.58,1.98-2.34,14.84-6.39,16.43-4.05,1.59-6.17,0-6.17,0,0,0-24.68-32.5-23.61-34.71"/>
    <path class="st1" d="M198.23,88.97s-2.11,4.76,0,7.75c2.11,2.99,10.4,16.91,11.1,22.91.71,5.99-3.35,8.81-10.57,8.28-7.22-.53-20.69-12.69-22.42-16.92-1.72-4.23,7.47-21.48,8.5-23.61,1.03-2.13,6.34-4.4,9.34-3.35,2.99,1.06,4.74,2.75,4.05,4.93"/>
    <path class="st3" d="M221.84,128.44l-13.07-4.42.64-1.48s5.78.07,6.92-1.89c1.14-1.97,5.51,7.79,5.51,7.79"/>
    <path class="st17" d="M238.75,118.57s-2.82,6.82-7.05,7.99c-4.23,1.17-9.87,1.87-9.87,1.87,0,0,5.17,2.28,11.63-.35,4.25-1.73,5.29-9.51,5.29-9.51"/>
    <path class="st6" d="M237.7,116.81s-3.88-5.11-3.35-7.4c.53-2.29,4.33-3.97,6.83-2.6,2.51,1.37,1.24,7.53,1.24,7.53,0,0-1.73,4.94-4.72,2.47"/>
    <path class="st4" d="M235.94,109.76s1.23,4.4,2.82,4.93c1.59.53,3.66-.36,3.66-.36,0,0,3.81-7.25-2.31-8.47,0,0-4.14-.43-4.18,3.89"/>
    <path class="st1" d="M199.64,83.77s1.59,3.62.7,6.26c-.88,2.64-.52,5.81.27,7.05l.79,1.23s-1.59-2.87,0-5.84c1.59-2.97-1.76-8.7-1.76-8.7"/>
    <path class="st1" d="M209.41,96.37s2.21-3.75,4.68-3.9c2.47-.15,4.58.18,5.29,1.95.7,1.77,1.06,5.92-1.76,6.58-2.82.66-7.77-1.63-8.2-4.63"/>
    <path class="st12" d="M212.37,96.58s0-.73,1.48-1.57c1.48-.84,3.93-1.28,4.22-.41.29.86,1.25,4.54-1.42,4.35-2.67-.19-4.28-1.44-4.28-2.36"/>
    <path class="st4" d="M217.26,94.61s-4.76.99-4.23,2.17c.53,1.18,3.17,2.06,4.23,1.71,1.06-.35,1.11-4.15,0-3.88"/>
    <path class="st13" d="M184.8,144.47s1.31,4.93.94,8.9c-.38,3.96-.94,5.4-.94,5.4,0,0,5.25-7.25,0-14.3"/>
    <path class="st1" d="M72.62,125.37s-3.28.73-6.56,2.6c-3.28,1.87-5.42,3.01-5.42,3.01,0,0,4.42-4.03,5.42-6.58,1-2.55-2.57-7.05-4.42-12.5-1.85-5.45-1.76-8.88-1.76-8.88,0,0,5.33,15.83,7.9,18.68,2.57,2.85,4.85,3.65,4.85,3.65"/>
    <path class="st1" d="M50.49,148.43s-3.69,5.71-3.69,11.41,2.18,16.79,3.69,21.49c1.51,4.7-1.01-15.11,0-20.98,1.01-5.87,4.7-13.09,0-11.92"/>
    <path class="st1" d="M43.47,201.14s-1.21,3.36-.71,5.2c.5,1.85,2.01,3.86,2.01,3.86,0,0-1.8-2.68-1.07-4.53.73-1.85.97-5.53-.24-4.53"/>
    <path class="st13" d="M165.47,191.41s8.99,3.86,10.87,6.21c1.88,2.35,1.88,4.53,1.88,4.53,0,0-.24-5.37-1.88-6.71-1.64-1.34-10.37-5.2-10.87-4.03"/>
    <path class="st16" d="M184,98.56s-.31,9.93,1.74,12.61c2.05,2.69,5.74,9.66,9.94,11.63,4.19,1.97,6.42,2,6.15,2.57-.27.57-7.17.6-10.85-2.57-3.68-3.17-6.72-8.77-8.56-9.78-1.85-1.01-.19-8.1,1.58-14.46"/>
    <path class="st16" d="M224.96,89.75s.17.91,1.02,1.94c.85,1.03,1.83,4.24,1.83,4.24,0,0,.25-4.51-2.85-6.18"/>
    <path class="st12" d="M215.5,96.58s1.82-.63,1.88,0c.06.63-.3.93-.54.93s-1.34-.93-1.34-.93"/>
  </g>
  <g class="st8">
    <rect class="st18" x="216.17" y="95.63" width=".97" height=".71"/>
  </g>
  <g class="st10">
    <path class="st5" d="M216.86,96.3c-.14,0-.29.02-.44.04.03.15.04.3.02.43,0,.06,0,.09.05.09h.02c.14-.01.46-.27.58-.55-.07-.01-.14-.02-.22-.02"/>
  </g>
  <g class="st9">
    <path class="st1" d="M214.17,101.52s2.25.77,3.9.45c1.65-.32,2.39-2,2.39-2,0,0-.17,2.58-2.39,2.58s-3.9-1.03-3.9-1.03"/>
    <path class="st16" d="M197.57,86.07s1.12.62,1.19,1.91c.06,1.29-1.32,6.53-.59,7.65.72,1.12,8.34,14.34,8.92,17.11,0,0-10.45-16.54-10.51-18.62-.06-2.08,1.16-5.44,1.35-6.21s-.35-1.84-.35-1.84"/>
  </g>
  <g>
    <path class="st11" d="M127.41,251.66v-15.18h3.64c3.58,0,5.32,1.6,5.32,3.84,0,1.84-1.22,3.2-3.26,3.4,2.68.42,4.04,2.02,4.04,4,0,2.14-1.68,3.94-5.72,3.94h-4.02ZM134.91,247.54c0-1.52-1.08-2.86-3.88-3.1-.48-.04-1.02-.08-1.62-.08-.02,2.04-.02,4.22-.02,5.54.64.04,1.26.06,1.94.06,2.36,0,3.58-.78,3.58-2.42ZM134.29,240.6c0-1.58-.98-2.46-3.4-2.46h-1.34c-.06,1.2-.08,3-.12,4.84.34.02.92.04,1.32.04,2.32,0,3.54-.7,3.54-2.42Z"/>
    <path class="st11" d="M140.43,241.38l-1.02-.08,2.52-4.22h1.92l-3.42,4.3ZM139.69,242.86l1.92-.28c-.18,1.62-.22,6-.22,9.08h-1.7v-8.8Z"/>
    <path class="st11" d="M143.67,250.9c0-.92.76-1.88,1.96-2.2-1-.36-1.72-1.28-1.72-2.7,0-1.78,1.36-3.5,3.84-3.5,1.26,0,1.66.36,3.26.36.86,0,1.48,0,2.32-.06v1.4c-1.04,0-2.18-.08-3.06-.18.68.36,1.24,1.32,1.24,2.44,0,1.9-1.56,3.08-3.66,3.08-.6,0-.9-.08-1.4-.08-.86,0-1.22.54-1.22,1.04,0,.46.32.7,1.22.7.98,0,2.08-.12,3.14-.12,2.08,0,3.24.76,3.24,2.58,0,2.26-2.7,4.44-6.08,4.44-2.46,0-3.64-1-3.64-2.52,0-1.32,1-2.48,2.54-3.14-1.32-.04-1.98-.6-1.98-1.54ZM145.01,255.1c0,.88.68,1.44,2.06,1.44,2.12,0,3.9-1.2,3.9-2.64,0-.88-.6-1.36-1.66-1.36-1.18,0-2.04.06-2.48.12-1.14.72-1.82,1.56-1.82,2.44ZM147.75,243.88c-1.24,0-2,.86-2,2.18,0,1.42.84,2.22,2.08,2.22s1.98-.88,1.98-2.18-.84-2.22-2.06-2.22Z"/>
    <path class="st11" d="M154.85,236.16l1.96-.18c-.2,2.88-.26,12.6-.26,15.68h-1.7v-15.5Z"/>
  </g>
</svg>