<?xml version="1.0" encoding="UTF-8"?>
<svg id="Vrstva_1" xmlns="http://www.w3.org/2000/svg" xmlns:xlink="http://www.w3.org/1999/xlink" version="1.1" viewBox="0 0 283.46 283.46">
  <!-- Generator: Adobe Illustrator 30.1.0, SVG Export Plug-In . SVG Version: 2.1.1 Build 136)  -->
  <defs>
    <style>
      .st0 {
        fill: none;
      }

      .st1 {
        fill: #70533d;
      }

      .st2 {
        fill: #81624b;
      }

      .st3 {
        fill: #f5d58e;
      }

      .st4 {
        fill: #9c8573;
      }

      .st5 {
        fill: #74543c;
      }

      .st6 {
        clip-path: url(#clippath-1);
      }

      .st7 {
        clip-path: url(#clippath-2);
      }

      .st8 {
        fill: #fff;
      }

      .st9 {
        fill: #ddad5e;
      }

      .st10 {
        fill: #8e7c70;
      }

      .st11 {
        fill: #765844;
      }

      .st12 {
        fill: #8e7569;
      }

      .st13 {
        fill: #baada6;
      }

      .st14 {
        fill: #9b8580;
      }

      .st15 {
        fill: #62452e;
      }

      .st16 {
        clip-path: url(#clippath);
      }

      .st17 {
        fill: #866c5f;
      }
    </style>
    <clipPath id="clippath">
      <rect class="st0" x="19.84" y="19.84" width="243.78" height="243.78"/>
    </clipPath>
    <clipPath id="clippath-1">
      <rect class="st0" x="61.04" y="68.05" width="2" height=".98"/>
    </clipPath>
    <clipPath id="clippath-2">
      <rect class="st0" x="19.84" y="19.84" width="243.78" height="243.78"/>
    </clipPath>
  </defs>
  <rect class="st3" x="19.84" y="19.84" width="243.78" height="243.78"/>
  <g class="st16">
    <path class="st9" d="M92.97,212.03s1.24,0-2.89-5.78c-4.13-5.78-8.26-9.08-11.97-7.85-3.72,1.24-11.97,3.72-13.21.83-1.24-2.89-.41-8.26,5.78-8.26s16.1-1.24,23.12-2.89c7.02-1.65,25.6,0,35.51-2.89,9.91-2.89,21.88-2.89,40.88-3.3,18.99-.41,32.2,3.3,45.42,7.02,13.21,3.72,29.42,19.58,27.77,19.17-1.65-.41-7.95-6.37-15.8-8.84-7.85-2.48-8.67,0-20.64-3.72-11.97-3.72-18.58-4.96-22.3-4.96s-19.4-4.54-17.75-1.65c1.65,2.89,3.3,7.43-.83,7.43s-8.26-7.43-13.21-7.02c-4.95.41-6.19.41-14.86,1.65-8.67,1.24-26.42,2.06-28.08,3.3-1.65,1.24-16.93,17.75-16.93,17.75"/>
    <path class="st15" d="M89.25,139.09s-2.61,5.64-4.68,7.85c-2.06,2.2-3.17,3.85-3.17,3.85,0,0-3.03,11.15-2.34,13.76.69,2.61,7.16,4.54,8.26,6.61,1.1,2.06,6.19,4.68,7.43,5.5,1.24.83,3.17,3.17,6.19,3.44,3.03.28,1.1-9.36,1.1-9.36,0,0-.69-2.2-3.3-2.89-2.62-.69-4.82-.41-7.16-2.62-2.34-2.2-3.72-6.88-3.72-6.88,0,0-.69.14,2.2-1.79,2.89-1.93,9.22-8.39,9.22-8.39l-4.54-8.4-5.5-.69Z"/>
    <path class="st5" d="M153.53,139.77s-1.1,8.26.55,12.94c1.65,4.68,7.57,13.49,8.39,14.31.83.83,11.7-12.52,11.7-12.52,0,0,2.34-7.02,6.61-10.74,4.27-3.72,10.46-4.27,10.46-4.27,0,0-9.63-10.05-14.86-10.05s-22.85,10.32-22.85,10.32"/>
    <path class="st12" d="M173.76,150.92s-3.03,0-4.4,1.79c-1.38,1.79-3.3,2.75-5.64,4.4-2.34,1.65-3.99,5.37-1.24,9.91,0,0,3.85,3.58,5.64,7.43,1.79,3.85,2.2,7.57,1.65,10.32-.55,2.75-3.17,8.95-5.64,10.46-2.48,1.51-5.64,2.2-7.98,3.85-2.34,1.65-3.03,2.75-2.48,3.72.55.96,1.65.83,1.65.83,0,0-.41.55,1.93,1.1,2.34.55,6.33-.96,6.33-.96,0,0,3.99-2.89,5.78-3.44,1.79-.55,6.88-10.73,8.81-12.8,1.93-2.06,5.5-5.5,5.23-7.57-.28-2.07-4.27-9.08-5.64-11.56-1.38-2.48-3.58-7.43-3.44-10.32.14-2.89.55-5.51.55-5.51,0,0,.69-2.34-1.1-1.65"/>
    <path class="st15" d="M115.95,151.61s4.27-.27,9.36-2.07c5.09-1.79,16.79-7.16,22.02-7.71,5.23-.55,7.71.69,16.24-2.06,8.53-2.75,10.6-5.37,14.31-5.64,3.72-.28,9.36,2.61,10.87,4.13l1.51,1.51s-7.02-7.43-11.84-10.05c-4.82-2.61-16.79-2.61-22.85.41-6.05,3.03-12.66,8.53-22.57,11.97-9.91,3.44-17.34,3.72-17.34,3.72l.28,5.78Z"/>
    <path class="st2" d="M170.18,181.89s1.51-6.33,3.99-6.61c2.48-.27,4.95,1.79,5.64,3.99.69,2.2-.28,4.4-.28,4.4l1.38-1.1v2.06s2.75-1.79,2.48-4.68c-.28-2.89-2.2-5.78-4.54-9.91-2.34-4.13-4.27-9.63-3.99-14.31.27-4.68.86-4.96.86-4.96,0,0-3.73-.76-5.39.62-1.65,1.38-1.95,2.69-4.56,4.34-2.61,1.65-6.19,3.85-4.4,9.77,0,0,.41,1.51,2.2,2.89,1.79,1.38,4.13,5.78,4.96,7.71.82,1.93,1.65,5.78,1.65,5.78"/>
    <path class="st12" d="M224.68,118.17s-2.75-5.64-7.57-8.67c-4.82-3.03-16.1-6.05-17.89-6.88-1.79-.83-7.98-6.33-18.85-9.22-10.87-2.89-29.04-5.78-36.61-5.92-2.37-.04-4.21.05-5.84.14-3.6.2-6.21.4-11.22-.83-7.29-1.79-12.11-2.48-15.28-2.34-3.17.14-5.64-.55-8.4-1.24-2.75-.69-11.7-6.47-11.7-6.47,0,0-12.11-15.14-19.82-17.48-7.71-2.34-13.07-1.51-15.69-.27-2.61,1.24-7.43,6.33-7.71,8.12-.27,1.79.28,3.3.28,3.3,0,0-2.62,1.65-4.82,2.61-2.2.96-6.88,1.65-7.29,3.44-.41,1.79,1.65,5.92,1.79,8.26.14,2.34.27,5.64,1.79,6.33.72.33,1.6.03,2.48-.26.97-.33,1.95-.65,2.75-.15,1.51.96,4.82,2.61,6.61,2.48,1.79-.14,4.68-1.38,7.16-.55,2.48.83,8.67,2.62,11.97,6.33,3.3,3.72,5.09,7.85,4.82,11.01-.28,3.17-.41,10.74,1.51,13.62,1.93,2.89,6.61,7.43,7.43,10.32.83,2.89,11.01,12.94,12.52,14.31s2.34,6.61,2.89,9.77c.55,3.17,1.51,7.98,1.1,17.2-.41,9.22-1.65,14.86-1.38,18.17.27,3.3-.14,6.33-2.89,10.6-2.75,4.27-3.99,6.61-6.88,7.57-2.89.96-4.13,3.17-3.3,4.68.82,1.51,3.85,1.38,3.85,1.38,0,0,3.72.55,4.95.14,1.24-.41,4.27-.41,5.92-2.34,1.65-1.93,3.44-7.57,4.96-8.53,1.51-.96,3.3-2.75,3.3-5.92s2.61-28.08,2.89-32.07c.28-3.99,1.79-9.08,3.03-10.87,1.24-1.79,2.75-5.09,2.61-6.88-.14-1.79-.55-3.03-.55-3.03,0,0,16.65-3.99,23.81-7.02,7.16-3.03,13.35-10.32,20.64-10.87,7.29-.55,19.27,2.34,22.43,5.09,3.17,2.75,14.73,12.66,20.37,20.51,5.64,7.84,9.36,12.11,13.9,15.28,4.54,3.17,9.08,8.81,11.29,12.39,2.2,3.58,6.61,8.95,8.12,12.25,1.51,3.3,3.85,7.43,3.85,10.46s.28,5.78,3.17,5.78,2.06-2.06,2.06-2.06c0,0,.41.69,1.52-.69,1.1-1.38,0-5.23.55-7.71.55-2.48-.69-3.99-2.06-5.37-1.38-1.38-4.68-7.29-6.06-9.77-1.38-2.48-1.65-7.43-3.44-8.94-1.79-1.51-3.85-2.48-6.74-7.43-2.89-4.96-12.52-25.6-15.14-34.13-2.62-8.53-3.17-13.49-6.74-17.75-3.58-4.27-5.09-5.51-5.78-6.74-.69-1.24-.96-4.27-.96-4.27,0,0,2.34,1.65,4.82,2.89,2.48,1.24,11.56,6.19,13.49,7.85,1.93,1.65,3.85,2.34,4.13,1.79.28-.55-.14-1.38-.14-1.38"/>
    <path class="st2" d="M71.5,59.26s-4.21-1.79-10.01-1.69c-5.8.1-9.64,4.23-12.39,6.88,0,0-1.47,1.87-1.47,3.44s.34,2.83.34,2.83c0,0-3.06,1.52-4.4,2.29-1.35.77-6.65.6-7.29,3.44-.64,2.84.44,5.1,1.03,6.09s.88,4.03.98,5.7c.1,1.67.88,3.15,2.16,3.83.61.33,1.19-.14,1.8-.61.68-.52,1.4-1.04,2.23-.47,1.57,1.08,5.54,2.4,8.29,2.2,2.75-.2,6.07-.64,6.07-.64,0,0,7.37-3.33,10.81-5.89,3.44-2.56,7.77-13.08,6.98-17.01-.79-3.93-5.13-10.41-5.13-10.41"/>
    <path class="st15" d="M47.96,70.73s-.75-3.09.05-4.54c.8-1.44,1-1.4,1.55-1.5.55-.1,1.94-.8,2.24.05.3.85-.35,2.29-.35,2.29,0,0-.8,2.94-3.49,3.69"/>
    <path class="st2" d="M87.33,130.69s3.85,3.17,6.74,3.17,9.36-3.58,12.66-3.03c3.3.55,9.91,4.95,10.87,8.26.96,3.3,4.4.41,5.78-5.5,1.38-5.92,1.65-10.46,2.89-12.25,1.24-1.79,4.4-8.26,4.4-12.94s0-9.91,1.24-11.84c1.24-1.93,1.65-8.67,1.65-8.67,0,0-3.44.69-6.88-1.1-3.44-1.79-10.46-2.75-13.21-2.62-2.75.14-5.64,0-8.53-.41-2.89-.41-13.62-7.02-13.62-7.02,0,0-11.15,12.52-12.25,14.45-1.1,1.93-2.06,8.12.55,11.84,2.62,3.72,5.92,14.31,5.92,19.27s.69,7.02,1.79,8.4"/>
    <path class="st15" d="M88.7,82.66s1.79,2.62.55,4.68c-1.24,2.06-5.78,6.74-7.3,10.73s-4.13,5.51-4.13,10.05,2.2,15.69,4.27,19.68c2.06,3.99,5.37,7.57,7.85,10.46,2.48,2.89,7.16,9.91,7.16,9.91,0,0-10.74-9.36-11.84-11.56-1.1-2.2-1.24-3.72-3.72-6.33-2.48-2.61-6.74-8.26-6.74-11.7s.96-10.18-.55-13.07c-1.51-2.89-9.64-10.6-13.63-12.52l-2.48-.69s1.38.14,3.85-1.79c2.48-1.93,3.99-2.62,5.23-2.75,1.24-.14,3.58-3.16,3.17-3.16s-.83,9.22,3.3,9.36c4.13.14,6.6-2.34,10.6-6.19,3.99-3.85,4.4-5.09,4.4-5.09"/>
    <path class="st5" d="M83.75,150.23s1.93,4.13,3.3,4.95c1.38.83,3.03,1.38,3.03,1.38,0,0-1.51.69-.83,2.48.69,1.79,2.62,6.88,4.68,7.57,2.07.69,4.95,4.13,4.95,6.33s-2.75,2.61-3.85,2.06c-1.1-.55-6.19-4.4-6.88-5.37-.69-.96-7.98-3.58-9.08-5.09-1.1-1.51-2.34-3.72-1.65-7.02.69-3.3,3.44-6.88,4.54-7.71,1.1-.83,1.19-1.32,1.19-1.32l.6,1.73Z"/>
    <path class="st1" d="M71.09,60.3s.1,2.99,1.03,4.65c.93,1.65.72,7.43-.31,12.28-1.03,4.85-4.13,16.1,1.44,17.34s13.93-8.77,15.79-12.18c1.86-3.41,2.17-4.96,3.1-5.78.93-.83.83-3.92-.21-6.3-1.03-2.37-4.54-3.51-6.92-5.78-2.37-2.27-5.99-4.85-9.6-5.37-3.61-.52-4.96-.21-4.34,1.13"/>
    <path class="st15" d="M40.22,86.31s2.48-.31,3.82,1.34c1.34,1.65,4.4,5.65,7.09,5.45,2.68-.21,3.16-.06,3.16-.06,0,0-3.64,2.35-5.49,1.63-1.86-.72-3.1-2.89-4.13-2.79-1.03.1-1.45.93-2.89.52-1.44-.41-1.93-1.34-1.93-1.34,0,0-1.48-3.92.38-4.75"/>
    <path class="st1" d="M36.23,75.97s-.91,1.07-.29,3.68c.62,2.61,1.64,2.59,3.5,2.8,1.86.21,4.4-.21,5.02-2.2.62-2,.55-3.17-.69-4.13-1.24-.96-4.06-1.03-5.64-.9-1.58.14-1.9.74-1.9.74"/>
    <path class="st15" d="M42.05,81.35s-1.93.83-2.55-.41.21-1.93.55-1.72c.34.21.55,1.31,1.79.96,1.24-.34,1.44-.82,1.44-.82,0,0-1.44.41-1.72-.28-.28-.69-1.31-1.1-1.93-.89-.62.21-.89,1.65-.89,2.06s-.27.76-.62.62c-.34-.14-.62-1.38-.62-2.13s-1.38-1.17-1.65-.69c-.28.48.14,1.38.14,1.38,0,0,.62.07.62.55s-.28,1.17.28,1.72c.55.55,1.24.41,1.24.41,0,0,6.19,1.86,6.61-3.17,0,0-.55,2.07-2.68,2.41"/>
    <path class="st1" d="M68.82,78.19s-1.38,2.62-4.68,3.03c-3.3.41-7.29,5.23-7.29,5.23,0,0,3.99-3.1,5.64-3.17,1.65-.07,4.06-.83,5.37-2.27,1.31-1.45.96-2.82.96-2.82"/>
    <path class="st15" d="M72.81,59.95s-.89,1.72-.34,3.37c.55,1.65,1.86,5.09,1.38,8.26-.48,3.17-1.44,6.95-1.79,9.29l-.34,2.34s2.75-7.22,3.23-12.11c.48-4.89-1.31-6.81-1.03-8.39.28-1.58.62-2.27,1.17-2.27h.55s-1.86-1.31-2.82-.48"/>
    <path class="st15" d="M81.62,62.91s1.58,1.17,2.82,2.55c1.24,1.38,3.17,2.2,3.17,2.61s-2.41,6.19-3.99,6.74c-1.58.55-2.27-1.79-2.06-3.37.21-1.58.89-4.68.76-5.64-.14-.96-.69-2.89-.69-2.89"/>
    <path class="st1" d="M45.76,88.17s1.86,2.34,3.65,2.96c1.79.62,2.96.34,4.13.21,1.17-.14,1.58.21,3.03.07s1.65-.27,1.65-.27c0,0-3.37-.83-4.33-.83s-1.93.69-3.99.07c-2.07-.62-4.13-2.2-4.13-2.2"/>
    <path class="st15" d="M48.38,70.41s1.44-.48,2.2-1.79c.76-1.31,1.51-2.82.96-3.1-.55-.28-1.31.69-2,.69s-.89-.07-1.44.89c-.55.96.07,2.96.28,3.3"/>
    <path class="st1" d="M55.67,68c.02-.25.48-3.65,2.82-4.54,2.34-.9,4.68.41,6.19,1.65,1.51,1.24,2.13,4.06,1.72,3.85-.41-.21-1.65-2.13-3.1-2.75-1.45-.62-3.92-.76-4.61.55-.69,1.31-1.03,2.34-1.51,2.34s-1.58-.34-1.51-1.1"/>
    <path class="st15" d="M64.69,68.76s-.62-1.72-2.34-1.93c-1.72-.21-2.34.62-2.82,1.31-.48.69.27,1.17.27,1.17,0,0,1.31-1.65,2.06-1.38.76.28,2.34,1.72,2.82.83"/>
    <path class="st10" d="M60.7,69.45s.76.07,1.86,0c1.1-.07,1.79-.34,1.79-.34,0,0-.41-1.24-1.93-1.31-1.51-.07-2.41,1.24-2.41,1.24,0,0-.41.41.69.41"/>
    <path class="st15" d="M60.25,67.91s.11,1.42,1.07,1.42.89-1.44.89-1.44c0,0-1.28-.53-1.97.02"/>
    <path class="st10" d="M48.24,68.35s-.48-.48.48-.62c.96-.14,2,.21,2,.21,0,0-.14.96-.76,1.51-.62.55-1.38.62-1.38.62,0,0-.69-.41-.34-1.72"/>
    <path class="st15" d="M48.7,69.62s.67.27.88-.35c.21-.62-.1-1.27-.1-1.27,0,0-1.78-.22-.78,1.62"/>
    <path class="st1" d="M64.28,70.14s-2.06,1.24-3.85,1.1c-1.79-.14-1.99-.9-3.03-.34-1.03.55-1.03,2.06-1.72,3.65-.69,1.58-1.44,1.93-1.44,1.93,0,0,.55.34,1.58-.41,1.03-.76.83-2.75,2.48-3.3,1.65-.55,3.3-.34,4.82-1.1,1.51-.76,1.17-1.51,1.17-1.51"/>
    <path class="st17" d="M109.62,182.71s-1.93,12.39-1.51,15.28.41,5.09-.28,6.06c-.69.96-1.79.41-3.3,2.2l-1.51,1.79s1.24-2.89,2.48-3.72c1.24-.83,2.34-3.03,1.93-4.54-.41-1.51-.27-15,2.2-17.07"/>
    <path class="st15" d="M79.83,97.32s-1.1,3.37.62,5.78c1.72,2.41,3.65,5.71,4.75,10.04,1.1,4.34,2.06,7.57,2.06,7.57,0,0,.28-6.12-1.31-10.8s-3.79-7.91-4.13-9.29c-.34-1.38.99-4.51.99-4.51l-2.98,1.21Z"/>
    <path class="st11" d="M91.39,80.66s-1.58,1.1-.96,2.68c.62,1.58,2.13,4.68,1.38,7.29-.76,2.62.21,4.68.21,4.68,0,0-.21-3.16.76-4.27.96-1.1,2.27-3.99,1.65-6.47-.62-2.48-2.55-4.06-3.03-3.92"/>
    <path class="st11" d="M102.33,91.4c0,.21.07,4.27-1.58,9.22-1.65,4.95-2.48,5.02-2.27,9.15.21,4.13.48,4.88.48,4.88,0,0-2.41-4.4-1.1-8.6,1.31-4.2,3.72-9.08,3.72-10.87s.76-3.79.76-3.79"/>
    <path class="st11" d="M110.17,93.12s-.28,5.44-2.2,8.6c-1.93,3.16-3.72,7.36-3.85,10.6-.14,3.23-.14,4.4-.14,4.4,0,0,1.72-3.58,3.85-7.98,2.13-4.4,2.41-5.99,3.03-9.98.62-3.99.76-6.06-.69-5.64"/>
    <path class="st11" d="M114.3,91.47s.55,6.4-.69,11.84c-1.24,5.44-3.65,12.87-3.65,15.35s-.21,3.17.21,3.17,1.24-6.12,2.68-9.63c1.44-3.51,2.55-3.24,3.72-10.12,1.17-6.88.41-10.67-2.27-10.6"/>
    <path class="st11" d="M116.99,89.47s1.72.48,3.1,3.37c1.38,2.89,1.17,4.96,3.24,6.68,2.06,1.72,2.48,1.79,2.48,1.79,0,0-3.78-3.92-3.78-5.92s-2.2-6.95-5.02-5.92"/>
    <path class="st11" d="M128.06,112.11c0,.21.55,2.2-1.31,5.57-1.86,3.37-3.44,6.88-3.72,9.56-.27,2.68-.34,7.29-1.79,9.98-1.44,2.68-2.34,2.75-2.34,2.75,0,0,2.34-8.53,2-12.18-.34-3.65-2.41-8.39-2.13-9.5.28-1.1.48-.69,3.99-2.96,3.51-2.27,5.3-5.23,5.3-5.23v1.99Z"/>
    <path class="st2" d="M185.73,95.14s4.54,3.9,4.4,8.85c-.14,4.95-.14,10.05,3.03,14.59,3.17,4.54,6.06,7.57,7.29,10.74,1.24,3.16,8.4,5.23,11.15,5.78,2.75.55,2.75-4.13,2.75-4.13,0,0-.69-7.57-3.85-11.84-3.17-4.27-6.47-7.02-6.47-7.02,0,0,4.28.08,6.2,1.18,1.93,1.1,5.63-4.49,5.63-4.49,0,0-4.13-2.34-6.33-3.16-2.2-.83-10.32-3.03-10.32-3.03,0,0-10.05-6.79-13.49-7.48"/>
    <path class="st11" d="M204.03,112.11s3.04-.4,6.2,1.39c3.16,1.79,12.22,5.31,12.22,5.31,0,0-18.15-13.17-21.04-13.17s2.62,6.47,2.62,6.47"/>
    <path class="st14" d="M212.98,160.01s.41,3.44,2.07,4.95c1.65,1.51.96-1.65,3.03-.96,2.07.69,3.72-1.38,2.75-2.2-.96-.83-1.51-1.24-3.17-2.89-1.65-1.65-4.95-3.85-5.23-2.2-.28,1.65.55,3.3.55,3.3"/>
    <path class="st14" d="M208.99,152.99c2.06.27,8.12,3.85,2.75-.83-5.37-4.68-2.75.83-2.75.83"/>
    <path class="st14" d="M213.53,151.47c.96,1.38,1.93,2.62,3.03,2.62s.14-1.65-.14-2.34c-.28-.69-2.89-.28-2.89-.28"/>
    <path class="st14" d="M211.6,145.83c1.24,2.34,2.07,2.75,2.62,1.79.55-.96-.83-3.44.28-2.2,1.1,1.24,2.06,2.89,3.03,2.34.96-.55.14-1.79.28-2.34.14-.55,1.38-1.1,1.38-1.1,0,0-3.58-4.27-4.41-3.85-.82.41-2.48-1.93-3.3-.55-.82,1.38.14,5.92.14,5.92"/>
    <path class="st14" d="M218.9,150.78c.94,1.88.96,3.03,2.48,2.89,1.51-.14-.41-3.58-.83-3.99-.41-.41-2.2,0-1.65,1.1"/>
    <path class="st14" d="M201.97,148.17c.69.69,2.06,3.58,3.44,3.3,1.38-.27-.41-3.58-.41-3.58,0,0-.14,1.1-1.1.55s-1.93-.28-1.93-.28"/>
    <path class="st14" d="M205.55,144.04c.28.55.55,1.79,2.07,2.89,1.51,1.1,2.34,2.34,2.61,1.1.27-1.24-1.24-2.89-1.24-3.99s1.79-1.65.83-2.62c-.96-.96-2.89.69-3.3,1.24-.41.55-.96,1.38-.96,1.38"/>
    <path class="st14" d="M209.4,137.02c1.38,1.24,1.65,1.24,4.13,1.24s3.58,1.24,3.58,1.24l-2.62-7.43s-.69,3.03-2.89,3.03-2.2,1.93-2.2,1.93"/>
    <path class="st14" d="M205.41,135.37c1.79,1.51,2.48,2.89,2.75,1.38.27-1.51.96-1.65-.28-1.93-1.24-.28-2.48.55-2.48.55"/>
    <path class="st14" d="M200.87,137.57c1.51,1.1,6.88.41,5.09,1.65-1.79,1.24-3.44,1.1-3.44,1.79s0,2.06-.55.28c-.55-1.79-1.1-3.72-1.1-3.72"/>
    <path class="st14" d="M194.26,138.81c1.38.83,2.34,1.38,3.71,2.48,1.38,1.1,5.64,3.44,4.13,3.71-1.51.28-1.1-.82-2.75-1.1-1.65-.28-5.09-5.09-5.09-5.09"/>
    <path class="st14" d="M195.64,143.63c1.65,1.38,2.2,2.75,3.16,3.16.96.41,2.89.83,2.48-.27-.41-1.1-5.64-2.89-5.64-2.89"/>
    <path class="st14" d="M173.34,128.9c1.93.55,6.06,3.3,7.57,3.72,1.51.41.96-1.93,0-3.03-.96-1.1,0-2.75-1.79-1.79-1.79.96-5.23.55-5.23.55l-.55.55Z"/>
    <path class="st14" d="M186.97,133.86c2.07,1.38,2.34,1.65,3.85,2.34,1.51.69,1.24.28,1.93-.14.69-.41,4.4-.27,1.24-1.1-3.16-.83-3.72-.27-4.82-.83-1.1-.55-2.2-.27-2.2-.27"/>
    <path class="st14" d="M195.78,133.44c.69,1.1-.69,2.34.83,3.58,1.51,1.24,1.65,3.03,2.07,1.38.41-1.65-.96-2.61,0-3.16.96-.55,2.75-.41,1.79-.83-.96-.41-4.68-.96-4.68-.96"/>
    <path class="st14" d="M195.91,130.55c1.65.96,2.2,1.38,3.16,1.79.96.41,3.17,1.93,3.72,1.65.55-.28-3.16-2.75-4.13-3.44-.96-.69-2.75,0-2.75,0"/>
    <path class="st14" d="M190.55,130.14c.66,2.19,1.79,2.48,2.89,2.34,1.1-.14-.27-1.65-.27-2.2s1.1-2.2,1.1-2.2c0,0-4.13.69-3.72,2.06"/>
    <path class="st14" d="M191.51,125.46c2.62.96,3.17.55,3.85,1.24.69.69,1.38,2.34,2.07.96.69-1.38-2.07-3.16-2.75-3.99s-.96-2.75-1.65-1.93c-.69.83-1.51,3.72-1.51,3.72"/>
    <path class="st14" d="M182.43,125.32c.14,1.51-.41,2.34,2.34,2.89,2.75.55,3.3,1.93,3.85.69.55-1.24-1.1-1.38-.83-2.48.28-1.1-1.93-3.03-3.03-2.75-1.1.28-2.34,1.65-2.34,1.65"/>
    <path class="st14" d="M186.69,120.23c.83.69,2.62,4.68,3.58,3.3.96-1.38-1.1-2.48-.55-3.44.55-.96.96-2.48.83-3.03-.14-.55-2.89-1.93-3.17-.55-.28,1.38-.69,3.72-.69,3.72"/>
    <path class="st14" d="M181.6,120.64c1.38,1.51,1.79,1.65,2.62,1.51.82-.14.82-1.65.55-2.62-.27-.96,1.51-2.48.14-2.62-1.38-.14-3.3,3.72-3.3,3.72"/>
    <path class="st14" d="M178.3,123.26c1.38.83,1.79,2.06,2.75,1.51.96-.55-.41-1.65-.83-1.93-.41-.28-1.93.41-1.93.41"/>
    <path class="st14" d="M173.21,125.74c1.24.27,5.09.55,5.09.55,0,0-1.93-1.93-3.03-1.79-1.1.14-2.07,1.24-2.07,1.24"/>
    <path class="st14" d="M186.83,113.08c-.14-1.79-.83-5.23-.83-5.23,0,0,.83-.28,1.79.96.96,1.24-.96,4.27-.96,4.27"/>
    <path class="st14" d="M186.42,104.68c-1.15.86-2.07-3.99-1.1-3.16.96.82,2.2,2.34,1.1,3.16"/>
    <path class="st14" d="M182.43,114.73c0-.41,0,.27-.96-1.51-.96-1.79-3.03-3.72-1.79-3.72s.96,1.93,2.34,2.61c1.38.69,1.65-.28,1.65,1.1s-1.24,1.51-1.24,1.51"/>
    <path class="st14" d="M180.5,105.51c.69,1.1,2.48,2.07,2.48,1.65s-2.07-2.75-2.07-2.75l-.41,1.1Z"/>
    <path class="st14" d="M179.67,98.76c1.93.96,2.2,2.75,2.89,1.79.69-.96-.41-2.48-1.38-2.75-.96-.28-1.51.96-1.51.96"/>
    <path class="st14" d="M184.63,96.56c-.55.55.96.69,1.65,2.06.69,1.38,1.38,1.93,1.1.41-.28-1.51-2.06-3.17-2.75-2.48"/>
    <path class="st14" d="M135.5,95.05c1.83,1.22,3.72,1.51,3.03-.14-.69-1.65-1.38-2.2-1.79-1.93-.41.27-1.65,1.79-1.24,2.06"/>
    <path class="st14" d="M143.07,96.7c1.24.27,2.75.96,1.93-.14s-1.93.14-1.93.14"/>
    <path class="st14" d="M132.74,132.48c1.1,0,3.03,0,1.93-1.51-1.1-1.51-1.93,1.51-1.93,1.51"/>
    <path class="st14" d="M141.55,125.6c1.38.14,1.93,1.24,2.34-.55.41-1.79-2.07-1.93-2.2-.96-.14.96-.14,1.51-.14,1.51"/>
    <path class="st14" d="M137.29,120.78c1.51,0,.83-.55,2.06-.83,1.24-.27.41-1.93-.69-1.38-1.1.55-1.38,2.2-1.38,2.2"/>
    <path class="st14" d="M145.96,118.86c1.38.14,3.03.55,1.93-1.1-1.1-1.65-1.93,1.1-1.93,1.1"/>
    <path class="st14" d="M150.08,113.49c1.79.96,1.79.14,2.62,0,.82-.14,1.65-1.65.55-1.93-1.1-.27-3.16,1.93-3.16,1.93"/>
    <path class="st14" d="M163.43,113.76c.69,0,1.51.41,1.65-.41.14-.83.55-1.79-.28-1.93-.83-.14-1.38,2.34-1.38,2.34"/>
    <path class="st14" d="M170.87,107.16c.34.86,2.62.96,2.2-.14-.41-1.1-2.75-1.24-2.2.14"/>
    <path class="st14" d="M174.31,102.2c.96.27.96.69,2.48.83,1.51.14,3.3.96,2.06-.69-1.24-1.65-4.54-.14-4.54-.14"/>
    <path class="st14" d="M174.17,98.21c1.1,1.92,5.64-.27,3.03-.96-2.61-.69-3.58,0-3.03.96"/>
    <path class="st14" d="M176.1,94.5c-.87.97,3.3,1.1,4.13,1.1s-2.89-2.48-4.13-1.1"/>
    <path class="st14" d="M158.07,93.53c-.62.92,4.68-.27,5.37-.14.69.14,2.62.55,1.38-.41-1.24-.96-6.19-.28-6.74.55"/>
    <path class="st14" d="M148.71,90.78c.69.41,2.48.27,3.99.27s3.71,1.79,2.48,0c-1.24-1.79-6.47-.27-6.47-.27"/>
    <path class="st14" d="M141.14,91.19c1.38.69,3.44.41,3.99.55.55.14,1.38-.96.14-1.24-1.24-.27-4.13.69-4.13.69"/>
    <path class="st14" d="M137.29,91.33c1.24,0,1.24-1.1,2.89-1.38,1.65-.28,4.4-1.24,2.48-1.24s-6.88.41-6.74,1.51c.14,1.1,1.38,1.1,1.38,1.1"/>
    <path class="st14" d="M133.71,97.8c.69.83,3.03-.27,3.44.96.41,1.24-2.89.69-2.89.69l-.55-1.65Z"/>
    <path class="st14" d="M132.33,101.1c0,.83.27,2.06,2.2,1.65s2.89-.69,1.65-.82c-1.24-.14-3.85-.83-3.85-.83"/>
    <path class="st14" d="M140.31,99.45c-.55.69,1.51.83,2.89.83s2.48.69,2.89,0c.41-.69-4.68-2.2-5.78-.83"/>
    <path class="st14" d="M140.73,94.36c.5,2.01,2.62-.83,3.17-.83s-3.72-1.38-3.17.83"/>
    <path class="st14" d="M150.5,94.5c-.47,1.3,2.75.14,3.16.14s1.1-.41.55-.41-3.17-1.24-3.72.27"/>
    <path class="st14" d="M171.55,95.18c.83.14,1.65.83,1.65,0s-1.65,0-1.65,0"/>
    <path class="st14" d="M159.72,100.96c.83,0,3.44-.14,1.93-.83-1.51-.69-1.93.83-1.93.83"/>
    <path class="st14" d="M167.56,102.2s3.16-.69,1.1-.55c-2.06.14-1.1-.28-1.1.55"/>
    <path class="st14" d="M170.73,114.31c.41.14,1.38.27,1.24-.55-.14-.83-1.24.55-1.24.55"/>
    <path class="st14" d="M134.95,108.67c2.34.69,5.51-1.51,3.44-1.24-2.06.28-3.44,1.24-3.44,1.24"/>
    <path class="st14" d="M144.85,106.19c-.18.81,1.65.14,1.93-.41.28-.55-1.65-.83-1.93.41"/>
    <path class="st14" d="M132.74,116.65c2.2-.27,2.75-1.1,2.89-1.79.14-.69-1.65.27-1.65.27l-1.24,1.51Z"/>
    <path class="st14" d="M156.83,117.2c1.24-.14,2.06.14,2.62,0,.55-.14,1.65-.69.55-.83-1.1-.14-3.16.83-3.16.83"/>
    <path class="st14" d="M156.69,106.06c1.24,0,2.62.41,3.03.83.41.41.83.96.83,0s-4.13-1.79-4.4-.55c-.28,1.24.55-.27.55-.27"/>
    <path class="st14" d="M83.89,127.39c.83,1.38,1.38,2.89,1.51,1.1s-1.51-1.1-1.51-1.1"/>
    <path class="st14" d="M89.39,133.86c-2.31.77,2.89,1.38,3.72,3.03.83,1.65,1.65,2.48,1.93.83.28-1.65-4.4-4.27-5.64-3.85"/>
    <path class="st14" d="M99.58,136.75c1.65.55,3.17.41,3.44,0,.28-.41.69-.69-.28-.69s-3.17.69-3.17.69"/>
    <path class="st14" d="M105.22,133.99c1.03.4,2.61-.55,1.38-1.38-1.24-.83-3.17.69-1.38,1.38"/>
    <path class="st14" d="M111.41,137.85c.83.69,1.1,2.48,1.65.96.55-1.51-1.65-.96-1.65-.96"/>
    <path class="st14" d="M97.37,139.64s-.41.96.83,2.2,1.51,2.62,2.2,1.38c.69-1.24.28-1.1,0-2.06-.27-.96-2.61-3.03-3.03-1.51"/>
    <path class="st14" d="M107.56,144.59c.96.96,2.61,2.34,2.48.69-.14-1.65-2.48-.69-2.48-.69"/>
    <path class="st14" d="M111.96,147.21c.83.55,1.24,2.07,2.06,2.48.83.41,1.38.41,1.1-1.1-.28-1.51-3.17-1.38-3.17-1.38"/>
    <path class="st14" d="M113.06,153.4c-.28,1.65-1.1,1.65-1.1,2.89s.28,3.3.96,2.75c.69-.55,0-1.51.83-2.34.83-.83-.69-3.3-.69-3.3"/>
    <path class="st14" d="M111.14,162.62c-.28.83-1.1,4.13-.28,3.58.83-.55.28-3.58.28-3.58"/>
    <path class="st14" d="M106.73,156.29c.67.44,1.38-1.1.96-1.38-.41-.28-2.2.55-.96,1.38"/>
    <path class="st14" d="M103.43,143.77c.03.43.69.83,1.1-.41.41-1.24-1.24-1.79-1.1.41"/>
    <path class="st14" d="M113.61,144.45c1.79.14.96.14,1.24-1.1.28-1.24-.14-1.79-.14-1.79l-1.1,2.89Z"/>
    <path class="st14" d="M165.91,98.9c.49.99,1.79.55,1.51-.41-.28-.96-2.48-1.51-1.51.41"/>
    <path class="st14" d="M139.35,104.4c.16.96,2.48.41,2.48,0s-2.62-.83-2.48,0"/>
    <path class="st14" d="M176.65,118.3c.96.41,1.24,2.48,1.93,1.51.69-.96-1.93-1.51-1.93-1.51"/>
    <path class="st14" d="M167.43,93.26c.73.64,2.34.69,2.06-.14-.27-.83-3.16-.83-2.06.14"/>
    <path class="st14" d="M149.53,98.35c.38.89,1.79.41,1.79-.55s-2.2-.41-1.79.55"/>
    <path class="st14" d="M161.09,96.84c.83,0,2.75.83,1.93-.27-.83-1.1-1.93.27-1.93.27"/>
    <path class="st2" d="M71.78,89.68s.69,2.89,2.89,2.89,8.67-5.78,8.67-5.78c0,0-7.29,4.54-8.26,4.82-.96.27-3.3-1.93-3.3-1.93"/>
    <path class="st17" d="M176.78,186.57s-3.44,4.82-5.23,7.43-3.58,4.4-3.58,4.4l-.83.14s3.03-.41,5.23-3.85c2.2-3.44,4.4-8.12,4.4-8.12"/>
    <path class="st17" d="M231.01,173.08s2.07,3.72,3.99,4.4c1.93.69,2.2,1.65,2.48,3.3.28,1.65,1.93,5.09,1.93,5.09,0,0-2.62-5.37-4.13-6.47-1.51-1.1-4.13-4.27-4.27-6.33"/>
    <path class="st15" d="M60.22,69.74s.5.45,1.84.3c1.35-.15,1.9-.5,1.9-.5,0,0-1,.9-2.14.85-1.15-.05-1.64-.35-1.59-.65"/>
    <path class="st15" d="M61.11,67.81s1.38-.14,1.93.41c.55.55-.07,1.17-.07,1.17,0,0,1.44,0,1.44-.55s-1.24-1.93-3.3-1.03"/>
  </g>
  <g class="st6">
    <path class="st13" d="M62.21,68.06c0,.13-.02.31-.07.5.05.02.1.05.14.08.24.19.56.39.69.39.04,0,.07-.02.07-.06h0s0-.03,0-.05c-.05-.18-.27-.78-.83-.85"/>
    <path class="st4" d="M62.09,68.05c-.27,0-.62.12-1.05.45,0,0,.22-.03.49-.03.2,0,.43.02.61.09.05-.19.07-.37.07-.5-.04,0-.08,0-.12,0"/>
  </g>
  <g class="st7">
    <path class="st15" d="M48.11,69.33s-.07-.89.96-1.03c1.03-.14,1.51.33,1.51.33,0,0,.56-.67.28-1.15-.28-.48-2.61-.28-2.75,0-.14.27,0,1.86,0,1.86"/>
    <path class="st15" d="M48.11,69.67s.62.21,1.1.14c.48-.07.75-.36.75-.36,0,0-1.11,1.36-1.58.96-.47-.4-.27-.74-.27-.74"/>
  </g>
  <g>
    <path class="st8" d="M38.74,251.66h-1.98v-15.18h2.36c1.58,1.98,3.1,4,4.62,6.02,1.32,1.76,2.62,3.52,3.9,5.3v-11.32h2.16c-.2,2.66-.28,12.06-.28,15.3h-1.46c-1.74-2.52-3.46-4.94-5.24-7.3-1.34-1.78-2.7-3.56-4.08-5.3v12.48Z"/>
    <path class="st8" d="M54,247.44c0,1.92,1.28,2.92,3.22,2.92.9,0,1.68-.22,2.4-.66v1.1c-.74.72-1.84,1.2-2.98,1.2-2.5,0-4.26-1.56-4.26-4.24,0-3.16,2.16-5.26,4.86-5.26,1.92,0,2.92,1.24,2.92,2.68,0,.6-.18,1.2-.54,1.68l-5.54-.18c-.06.28-.08.52-.08.76ZM56.16,241.38l-2.42-4.22,1.02-.08,2.18,2.78,2.18-2.78.9.08-2.42,4.22h-1.44ZM56.94,243.98c-1.02,0-2.06.52-2.58,1.66l4.26-.06c0-1.02-.56-1.6-1.68-1.6Z"/>
    <path class="st8" d="M69.31,246.24v5.42h-1.74v-5.22c0-1.68-.76-2.24-1.7-2.24-.86,0-1.38.28-1.86.6v6.86h-1.74v-6.52c0-.9-.18-1.82-.36-2.28h1.26c.12.22.22.62.26.92.9-.64,1.78-1.14,3-1.14,1,0,1.64.34,2.2,1.08.74-.6,1.9-1.08,2.98-1.08,1.66,0,3.04,1.04,3.04,3.6v5.42h-1.76v-5.22c0-1.68-.88-2.24-1.94-2.24-.72,0-1.3.22-1.88.52.14.4.24.92.24,1.52Z"/>
    <path class="st8" d="M78.2,247.44c0,1.92,1.28,2.92,3.22,2.92.9,0,1.68-.22,2.4-.66v1.1c-.74.72-1.84,1.2-2.98,1.2-2.5,0-4.26-1.56-4.26-4.24,0-3.16,2.16-5.26,4.86-5.26,1.92,0,2.92,1.24,2.92,2.68,0,.6-.18,1.2-.54,1.68l-5.54-.18c-.06.28-.08.52-.08.76ZM81.14,243.98c-1.02,0-2.06.52-2.58,1.66l4.26-.06c0-1.02-.56-1.6-1.68-1.6Z"/>
    <path class="st8" d="M89.88,252c-2.44,0-4.2-1.54-4.2-4.3,0-3.18,2.38-5.2,4.92-5.2.82,0,1.54.16,2.1.44v1.92c-.72-.42-1.4-.64-2.28-.64-2.1,0-3.06,1.44-3.06,3.16s1.04,2.86,2.98,2.86c.96,0,1.72-.24,2.36-.7v1.16c-.54.72-1.6,1.3-2.82,1.3Z"/>
    <path class="st8" d="M100.2,242.86h2.2c-1.4,1.62-3.06,3.44-4.02,3.98,1.04.8,3.2,3.24,4.2,4.82h-2.34c-.2-.8-3.32-4.32-3.94-4.36-.02,1-.04,3.06-.04,4.36h-1.68v-15.5l1.98-.18c-.1,1.52-.26,6-.3,10.98.62-.06,2.86-2.58,3.94-4.1Z"/>
    <path class="st8" d="M106.98,251.36c-.74-2.28-2.42-6.22-3.64-8.5h2.08c.72,1.64,2.04,4.92,2.52,6.58.76-1.78,1.92-4.68,2.46-6.58h1.82c-.78,2.12-2.4,5.8-3.44,8.14-.8,1.86-2.14,4.72-2.86,6.66h-1.84c.82-2.08,1.88-4.32,2.9-6.3ZM107.92,241.38l-1.02-.08,2.52-4.22h1.92l-3.42,4.3Z"/>
    <path class="st8" d="M127.44,247.28c0,2.78-1.98,4.72-4.68,4.72s-4.66-1.98-4.66-4.72,1.96-4.78,4.68-4.78,4.66,2,4.66,4.78ZM120.02,247.28c0,1.9,1.16,3.34,2.82,3.34s2.66-1.38,2.66-3.3-1.12-3.4-2.8-3.4-2.68,1.38-2.68,3.36Z"/>
    <path class="st8" d="M131.28,251.66h-1.74v-15.5l1.98-.18c-.14,1.58-.26,5.78-.26,7.42.8-.44,1.74-.76,2.66-.76,1.68,0,3.04,1.04,3.04,3.6v5.42h-1.74v-5.22c0-1.68-.94-2.24-1.98-2.24-.76,0-1.36.28-1.92.6-.04,2.82-.04,5.42-.04,6.86Z"/>
    <path class="st8" d="M141.04,252c-1.4,0-2.22-.76-2.22-2.14,0-1.86,1.84-3.5,5.06-3.88v-.52c0-.94-.56-1.38-1.62-1.38-.92,0-1.74.22-2.64.66v-1.8c.98-.3,1.88-.44,2.72-.44,2,0,3.22.86,3.22,2.76,0,1.66-.08,2.96-.08,3.98s.18,1.84.38,2.42h-1.56c-.12-.56-.18-1.18-.18-1.86-.64,1.56-1.84,2.2-3.08,2.2ZM140.62,249.46c0,.62.34.98,1.02.98s2.18-.62,2.24-3.3c-2.24.4-3.26,1.34-3.26,2.32Z"/>
    <path class="st8" d="M149.88,241.38l-2.42-4.22,1.02-.08,2.18,2.78,2.18-2.78.9.08-2.42,4.22h-1.44ZM150.06,245.06v6.6h-1.74v-5.5c0-1.6-.24-2.64-.52-3.3h1.28c.18.34.32.86.36,1.28.66-.92,1.7-1.62,2.76-1.62.56,0,.96.14,1.3.4v1.96c-.56-.4-1-.56-1.62-.56-.7,0-1.36.28-1.82.74Z"/>
    <path class="st8" d="M165.86,242.86h2.2c-1.4,1.62-3.06,3.44-4.02,3.98,1.04.8,3.2,3.24,4.2,4.82h-2.34c-.2-.8-3.32-4.32-3.94-4.36-.02,1-.04,3.06-.04,4.36h-1.68v-15.5l1.98-.18c-.1,1.52-.26,6-.3,10.98.62-.06,2.86-2.58,3.94-4.1Z"/>
    <path class="st8" d="M171.74,245.06v6.6h-1.74v-5.5c0-1.6-.24-2.64-.52-3.3h1.28c.18.34.32.86.36,1.28.66-.92,1.7-1.62,2.76-1.62.56,0,.96.14,1.3.4v1.96c-.56-.4-1-.56-1.62-.56-.7,0-1.36.28-1.82.74Z"/>
    <path class="st8" d="M178.26,252c-1.4,0-2.22-.76-2.22-2.14,0-1.86,1.84-3.5,5.06-3.88v-.52c0-.94-.56-1.38-1.62-1.38-.92,0-1.74.22-2.64.66v-1.8c.98-.3,1.88-.44,2.72-.44,2,0,3.22.86,3.22,2.76,0,1.66-.08,2.96-.08,3.98s.18,1.84.38,2.42h-1.56c-.12-.56-.18-1.18-.18-1.86-.64,1.56-1.84,2.2-3.08,2.2ZM177.84,249.46c0,.62.34.98,1.02.98s2.18-.62,2.24-3.3c-2.24.4-3.26,1.34-3.26,2.32ZM179.2,241.38l-1.02-.08,2.52-4.22h1.92l-3.42,4.3Z"/>
    <path class="st8" d="M187.84,239.92c-.08,1.24-.08,2.24-.1,2.94h3.04v1.44l-3.06-.06c-.08,1.32-.08,3.14-.08,4.48,0,1.18.52,1.68,1.38,1.68.64,0,1.34-.2,1.76-.54v1.14c-.68.66-1.5,1-2.52,1-1.42,0-2.32-.76-2.32-2.82v-4.98h-1.78v-.72c.52-.12,1.3-.36,1.78-.62v-2.58l1.9-.36Z"/>
    <path class="st8" d="M198.08,242.86h2.2c-1.4,1.62-3.06,3.44-4.02,3.98,1.04.8,3.2,3.24,4.2,4.82h-2.34c-.2-.8-3.32-4.32-3.94-4.36-.02,1-.04,3.06-.04,4.36h-1.68v-15.5l1.98-.18c-.1,1.52-.26,6-.3,10.98.62-.06,2.86-2.58,3.94-4.1Z"/>
    <path class="st8" d="M210.24,247.28c0,2.78-1.98,4.72-4.68,4.72s-4.66-1.98-4.66-4.72,1.96-4.78,4.68-4.78,4.66,2,4.66,4.78ZM202.82,247.28c0,1.9,1.16,3.34,2.82,3.34s2.66-1.38,2.66-3.3-1.12-3.4-2.8-3.4-2.68,1.38-2.68,3.36Z"/>
    <path class="st8" d="M211.52,250.9v-1.1c.76.56,1.54.82,2.44.82.98,0,1.52-.38,1.52-1.14,0-1.72-3.7-1.28-3.7-4.2,0-1.62,1.36-2.78,3.1-2.78.88,0,1.44.14,1.92.38v1.84c-.52-.42-1.1-.68-1.86-.68-.86,0-1.42.42-1.42,1.14,0,1.74,3.76,1.38,3.76,4.18,0,1.88-1.6,2.64-3.14,2.64-1.1,0-1.94-.4-2.62-1.1Z"/>
    <path class="st8" d="M221.06,245.06v6.6h-1.74v-5.5c0-1.6-.24-2.64-.52-3.3h1.28c.18.34.32.86.36,1.28.66-.92,1.7-1.62,2.76-1.62.56,0,.96.14,1.3.4v1.96c-.56-.4-1-.56-1.62-.56-.7,0-1.36.28-1.82.74Z"/>
    <path class="st8" d="M225.54,250.9v-1.1c.76.56,1.54.82,2.44.82.98,0,1.52-.38,1.52-1.14,0-1.72-3.7-1.28-3.7-4.2,0-1.62,1.36-2.78,3.1-2.78.88,0,1.44.14,1.92.38v1.84c-.52-.42-1.1-.68-1.86-.68-.86,0-1.42.42-1.42,1.14,0,1.74,3.76,1.38,3.76,4.18,0,1.88-1.6,2.64-3.14,2.64-1.1,0-1.94-.4-2.62-1.1Z"/>
    <path class="st8" d="M235.86,239.92c-.08,1.24-.08,2.24-.1,2.94h3.04v1.44l-3.06-.06c-.08,1.32-.08,3.14-.08,4.48,0,1.18.52,1.68,1.38,1.68.64,0,1.34-.2,1.76-.54v1.14c-.68.66-1.5,1-2.52,1-1.42,0-2.32-.76-2.32-2.82v-4.98h-1.78v-.72c.52-.12,1.3-.36,1.78-.62v-2.58l1.9-.36Z"/>
    <path class="st8" d="M243.38,251.36c-.74-2.28-2.42-6.22-3.64-8.5h2.08c.72,1.64,2.04,4.92,2.52,6.58.76-1.78,1.92-4.68,2.46-6.58h1.82c-.78,2.12-2.4,5.8-3.44,8.14-.8,1.86-2.14,4.72-2.86,6.66h-1.84c.82-2.08,1.88-4.32,2.9-6.3ZM244.32,241.38l-1.02-.08,2.52-4.22h1.92l-3.42,4.3Z"/>
  </g>
</svg>