<?xml version="1.0" encoding="UTF-8"?>
<svg id="Vrstva_1" xmlns="http://www.w3.org/2000/svg" xmlns:xlink="http://www.w3.org/1999/xlink" version="1.1" viewBox="0 0 283.46 283.46">
  <!-- Generator: Adobe Illustrator 30.1.0, SVG Export Plug-In . SVG Version: 2.1.1 Build 136)  -->
  <defs>
    <style>
      .st0 {
        fill: #886f54;
      }

      .st1 {
        fill: none;
      }

      .st2 {
        fill: #010101;
      }

      .st3 {
        fill: #dbbb8c;
      }

      .st4 {
        fill: #3a5840;
      }

      .st5 {
        fill: #695b50;
      }

      .st6 {
        fill: #f9dba4;
      }

      .st7 {
        fill: #eacb97;
      }

      .st8 {
        fill: #8c745a;
      }

      .st9 {
        fill: #261d15;
      }

      .st10 {
        clip-path: url(#clippath-1);
      }

      .st11 {
        clip-path: url(#clippath-3);
      }

      .st12 {
        clip-path: url(#clippath-2);
      }

      .st13 {
        fill: #fff;
      }

      .st14 {
        fill: #35513b;
      }

      .st15 {
        fill: #cdac81;
      }

      .st16 {
        fill: #436449;
      }

      .st17 {
        fill: #362a22;
      }

      .st18 {
        fill: #a98d6a;
      }

      .st19 {
        clip-path: url(#clippath);
      }
    </style>
    <clipPath id="clippath">
      <rect class="st1" x="19.84" y="19.84" width="243.78" height="243.78"/>
    </clipPath>
    <clipPath id="clippath-1">
      <rect class="st1" x="219.65" y="61.69" width="1.72" height=".87"/>
    </clipPath>
    <clipPath id="clippath-2">
      <rect class="st1" x="199.07" y="62.08" width="2.2" height=".85"/>
    </clipPath>
    <clipPath id="clippath-3">
      <rect class="st1" x="19.84" y="19.84" width="243.78" height="243.78"/>
    </clipPath>
  </defs>
  <rect class="st16" x="19.84" y="19.84" width="243.78" height="243.78"/>
  <g class="st19">
    <g>
      <path class="st4" d="M55.99,218.23s6.76,2.44,11.54,1.14c4.77-1.3,9.93-5.68,9.93-5.68l23.78,1.84s2.22,3.57,4,4.22,55.15.92,61.28-.38c6.13-1.3,14.97-3.16,19.58-.94,4.61,2.21,9.81,3.4,9.81,3.4,0,0,25.81-1.52,25.19,1.3s-4.61,6.32-10.2,6.62c-5.59.29-6.68,3.79-17.22,4.08-10.54.29-20.16-.58-28.04,0s-51.81,2.33-64.41,2.33-39.04-2.04-47.84-4.38c-8.8-2.33-10.84-5.69-18.72-6.34-7.87-.66-16.92-1.91-13.12-3.62,3.79-1.71,34.44-3.59,34.44-3.59"/>
      <path class="st7" d="M78.86,101.2s-9.44,7.22-11.33,12.6-4.04,23.12-4.47,27.04-3.44,12.09-7.74,15.96c-4.3,3.87-7.74,7.46-10.1,13.73-2.36,6.27-1.93,10.14-1.93,10.14,0,0,.86-3.65,5.59-4.73s8.6-4.08,10.96-7.1c2.37-3.01,8.17-20.84,9.25-23.97,1.07-3.12,9.78-43.67,9.78-43.67"/>
      <path class="st3" d="M67.53,184.09s.53,3.39,1.27,4.56.85,4.35,1.59,7.21,1.7,4.35,1.7,4.35c0,0,4.98-7.53,6.47-8.59,1.48-1.06,20.67-17.71,20.67-17.71l10.6-17.28s4.88-3.61,5.94-3.61,8.16,1.06,8.16,1.06l13.47.85,2.33-3.29-29.69-10.81s-13.57,3.29-14,3.6c-.42.32-10.28,8.27-10.28,8.27l-18.24,18.34v13.04h.01Z"/>
      <path class="st7" d="M132.41,156.74s-3.39,2.54-6.25,2.23c-2.86-.32-2.65.42-5.73,4.35-3.07,3.92-5.83,8.06-15.58,13.99-9.75,5.94-13.25,5.83-16.64,9.75s-4.24,9.54-3.07,13.89,2.54,6.15,3.5,7c.95.85,5.94,1.17,8.38,2.23,2.44,1.06,4.03,2.76,4.24,4.88.21,2.12-2.54,2.65-4.03,2.65h-1.48s-.74.53-2.86.53-10.39-.21-12.19-.85-4.35-5.51-5.62-8.27c-1.27-2.76-2.97-8.91-2.97-8.91l-.92-1.94s1.45-4.95,6.65-9.72c5.19-4.77,9.44-6.68,15.69-14.21,6.26-7.53,11.24-18.34,16.33-20.99,5.09-2.65,7-2.44,14.21-1.7,7.21.74,15.27,4.14,15.27,4.14,0,0-5.07-.16-6.89.95"/>
      <path class="st6" d="M107.82,146.88s-1.59,2.01-5.09,3.82c-3.5,1.8-18.66,20.14-24.39,24.6-5.73,4.45-9.86,7.53-13.78,12.72s-7.32,8.38-8.69,14.21-1.06,10.5-1.27,11.24,1.7,3.92,1.49,6.15-.85,4.14-2.55,4.67-2.76,0-2.76,0c0,0-1.59.64-4.98.74-3.39.11-4.13-1.38-4.13-1.38,0,0-3.5-.74-4.14-3.08s.32-5.62,1.38-7.42,2.23-9.65,4.66-12.94c2.44-3.29,2.01-6.47,2.97-9.75.95-3.29,1.06-7.42,3.5-9.75s5.94-4.45,9.33-15.48,7-32.65,9.22-39.44c2.23-6.79,6.36-22.16,11.87-26.08s22.05-12.3,38.27-13.89,33.61-.53,38.17-.74,6.25-.32,6.89-.74c.63-.42,4.77-3.82,9.75-4.98,4.98-1.17,8.48-1.17,8.48-1.17,0,0,1.7-4.67,2.86-5.09,1.17-.42,46.76,2.97,46.76,2.97,0,0,1.17,9.01,0,10.71l-1.17,1.7s1.78,12.72,1.68,17.81c-.09,5.09-1.9,9.97-1.9,9.97,0,0,1.48,11.13-.53,16.65-2.01,5.51-9.01,16.94-9.33,18.28s-.53,4.09-1.48,9.61c-.95,5.51-3.71,11.77-4.67,15.58-.95,3.82-1.17,10.6-1.48,14.42-.32,3.82-1.27,5.62-1.48,6.36-.21.74.21,11.34.53,13.36.32,2.01.42,2.33,1.7,2.65,1.27.32,6.57,1.27,7.32,5.09.74,3.82-.32,4.67-2.12,5.09-1.8.42-3.5-.21-3.5-.21,0,0-1.38.95-4.98.95s-5.94-1.17-7.74-2.76-2.76-4.88-2.65-6.57c.1-1.7-.64-2.12-.53-5.62s-.53-4.88-1.17-6.89c-.64-2.02-.42-4.45-.21-6.47.21-2.01-1.27-23.75-1.27-26.93s.11-7.53.11-7.53l-2.23-.21-4.56,1.06s-1.16,8.91-1.06,12.3c.11,3.39,1.27,17.49,1.27,20.99s.21,5.3.85,8.69,2.76,9.22,4.24,10.81c1.48,1.59,5.19,4.56,5.94,7.42.74,2.86-3.29,2.66-3.29,2.66,0,0-.21,1.27-2.54,1.48s-3.71-1.27-3.71-1.27c0,0-2.55,1.95-5.09,1.29s-5.73-3.31-7.21-6.81c-1.48-3.5-.64-6.36-1.8-10.07-1.17-3.71-3.39-8.06-3.39-12.51s-1.7-14.31-2.97-19.72-2.54-7.1-2.12-11.88c.42-4.77,1.48-6.89-.85-8.06s-22.29,1.11-31.08-1.67c-8.79-2.78-28.46-9.86-29.36-8.93"/>
      <path class="st7" d="M190.94,160.03s7.63-2.54,12.19-5.62c4.56-3.07,6.79-7.42,9.33-7.85,2.54-.42,6.36.85,6.36.85,0,0-5.83.22-6.89,2.44s-11.83,10.2-15.56,11.41c-3.73,1.2-6.38.89-6.38.89l.95-2.12h0Z"/>
      <path class="st7" d="M182.77,81.89s.32,4.45,2.54,5.83c2.23,1.38,6.47,5.51,8.59,9.01s6.68,7.95,10.5,9.12c3.82,1.17,10.07.53,12.09,0,2.01-.53,7.95.64,9.86-2.33s3.07-10.5,3.07-10.5c0,0-.42,7.42-5.09,8.91-4.66,1.48-8.27.53-9.54-.64-1.27-1.17-2.12,2.01-4.56,2.12s-8.91-1.27-11.13-3.71c-2.23-2.44-3.92-6.68-7.63-9.22s-5.73-2.65-6.79-5.3-1.91-4.77-1.91-4.77v1.48h0Z"/>
      <path class="st7" d="M189.98,76.91s1.59,4.24,3.71,5.62c2.12,1.38,5.62,4.13,5.62,4.13h24.6s.53-1.17,2.65-2.76c2.12-1.59,4.56-5.2,5.09-7.85s1.06-16.96-.53-20.89c-1.59-3.92-7.95-12.19-9.75-12.93s-5.51-.53-7-.95c-1.48-.43-4.77-1.27-7.31,0,0,0-2.86-.21-4.77.64s-4.35.64-6.04,1.38c-1.7.74-5.41,7.31-6.26,10.71s0,22.9,0,22.9"/>
      <path class="st3" d="M222,43.61s2.44,4.77,3.71,5.73c1.27.95,3.71,6.15,3.71,9.01s-.21,9.97.42,12.72c.64,2.76,2.01,7.21,3.71,6.79,1.7-.42.95-3.89,2.54-4.81s6.57-6.89,8.48-9.42c1.91-2.53,3.18-4.97,2.54-7.09s-5.09-4.45-6.79-5.83c-1.7-1.38-3.65-2.12-5.7-3.39-2.04-1.27-6.71-4.88-9.25-5.73s-4.03.64-4.03.64l.64,1.38h.02Z"/>
      <path class="st3" d="M198.47,44.04s.53,1.7-1.06,3.29-4.88,5.19-5.51,8.59c-.63,3.39,0,12.62,0,16.33s-2.44,7.53-3.39,7.1c-.95-.42-1.27-2.33-2.01-3.61-.74-1.27-6.15-6.57-7.74-8.9-1.59-2.33-4.35-7.1-3.82-8.8s6.47-7.21,9.75-8.91,6.04-4.45,8.27-5.94c2.23-1.48,5.51.85,5.51.85"/>
      <path class="st15" d="M226.67,44.78s2.44,3.82,3.82,6.79,1.75,11.44,1.7,14.74c-.05,3.29.11,8.38.96,8.16.85-.21,1.19-2.44,1.19-2.44,0,0-.98,1.06-.98,0s.21-12.19-.42-16.54c-.64-4.35-6.26-10.71-6.26-10.71"/>
      <path class="st15" d="M195.6,46.05s-4.56,6.36-5.62,9.33c-1.06,2.97-.96,4.77-.96,4.77,0,0,.79-10.28,6.57-14.1"/>
      <path class="st15" d="M186.71,51.57c.63.53,1.69,2.44.52,4.56-1.17,2.12-1.25,9.33-.52,11.98s.63,4.95.63,4.95c0,0-2.44-5.16-2.76-8.13-.32-2.97.95-7.42,1.06-9.12s-1.59-2.76-1.11-3.29c.48-.53,2.18-.96,2.18-.96"/>
      <path class="st15" d="M241.4,56.44c.32,0,1.8,3.14.64,4.59-1.17,1.45-1.48,3.36-1.48,3.36,0,0,3.29-3.29,3.39-5.41s-1.7-2.54-1.7-2.54h-.85Z"/>
      <path class="st7" d="M200.8,89.95s.53,3.92,2.23,4.66c1.7.74,3.07-.21,4.35,0,1.27.21,3.92.68,7.53.29l3.6-.39s.95.64,2.86-.11c1.91-.74.95-4.45.95-4.45l-11.43-6.26-10.1,6.26h0Z"/>
      <path class="st18" d="M206.1,90.9s.21,2.57,1.91,2.55c1.7-.01,2.46-.75,3.67-.75s3.33,1.27,4.92.21,1.17-2.65,1.17-2.65l-6.87-4.77-4.79,5.41h-.01Z"/>
      <path class="st3" d="M210.89,49.45s-1.61,6.79-1.61,8.9-2.54,5.2-3.92,7.95c-1.38,2.76-3.5,7.95-4.56,11.13s-1.7,7.53-1.49,9.22c.21,1.7,1.91,5.09,4.03,5.72,2.12.64,6.3-3.87,7.36-4.29s2.49-.19,4.51,2.03c2.07,2.27,4.04,2.83,6.15,2.33,2.12-.5,3.63-5.26,3.41-6.96-.23-1.7-4.62-14.1-6.4-17.18-1.78-3.07-4.64-7.12-4.85-8.71-.21-1.58-.53-2.64-.64-3.81-.11-1.17-1.99-6.36-1.99-6.36"/>
      <path class="st0" d="M204.81,92.23s2.14-.9,3.84-2.18c1.7-1.27,2.27-2.46,3.94-1.82s2.08,2.77,4.91,3.74c1.61.56-.26-6.37-.16-7.75.11-1.38-.42-6.94-3.18-6.33s-8.26,1.29-8.26,1.29c0,0-1.14,4.64-.54,6.95.23.88-.23,4.3-.55,6.1"/>
      <path class="st9" d="M211.39,74.47s-4.23-.11-5.29,2.64c-1.06,2.76,1.53,7.99,4.79,7.76,3.26-.23,6.02-2.74,6.23-5.2.21-2.45-.57-4.97-5.74-5.2"/>
      <path class="st17" d="M207.27,77.12s2.22-1.51,4.98-1.19,4.13,1.93,3.89,1.79-3.78-.26-3.89.35c-.1.61-.33,2.23-.75,2.55s-.4-2.66-.4-2.66c0,0-2.89-.85-3.84-.85"/>
      <path class="st15" d="M222.56,79.74s-.29,3,0,4.38-1.19,3.39-1.19,3.39c0,0,2.23-3.08,2.01-3.82-.21-.74-.82-3.96-.82-3.96"/>
      <path class="st15" d="M201.65,80.4s-.42,2.86,0,3.82.64,1.27.64,1.27c0,0-2.65-1.8-.64-5.09"/>
      <path class="st3" d="M194.44,59.09s-1.27,3.46-.53,4.54c.74,1.08.45,4.94.53,7.39.08,2.45,2.01,6.58,2.76,8.35.74,1.77.95,2.52.95,2.52,0,0-3.39-9-3.07-10.86.32-1.86.21-6.56-.32-7.39-.53-.83-.32-4.54-.32-4.54"/>
      <path class="st3" d="M225.71,57.08s1.91,1.66,2.33,3.96-.85,4.21-.64,5.59c.21,1.38,1.76,4.03.72,7.1-1.04,3.08-2.42,4.98-2.42,4.98,0,0,2.23-4.97,1.8-7.68-.42-2.71-1.59-5.57-.85-6.63.74-1.06,1.27-5.19-.95-7.32"/>
      <path class="st3" d="M203.55,47.22s2.33-2.33,2.54-3.5c.21-1.17-1.27-1.03-1.27-1.03,0,0,1.17.92-1.27,4.52"/>
      <path class="st3" d="M217.16,42.69s-1.3.39-.45,1.45,2.65,1.91,2.65,1.91c0,0-2.67-2.3-2.2-3.36"/>
      <path class="st3" d="M196.77,63.64s-.04,1.82,1.78,2.67c1.82.85,4.76.31,6.29-.74,1.53-1.05.89-3.22,1.02-4.52.14-1.31-1.69-3.21-4.97-2.9-3.27.32-5.32,3.17-4.12,5.49"/>
      <path class="st3" d="M216.41,61.04s-.24-2.23,2.41-2.93c2.65-.71,5.3.35,6.47,2.05s-.1,2.4,0,3.48c.11,1.08-.74,2.98-3.92,3.09-3.18.11-3.76-.63-4.21-1.69-.45-1.06-.77-3.44-.74-3.99"/>
      <path class="st18" d="M197.41,63.64s.82,2.46,3.49,2.14c2.66-.32,2.98-.78,3.51-2.14s-.53-3.79-2.12-4.01-5.51.49-4.88,4.01"/>
      <path class="st18" d="M217.81,61.75s.37-1.76,2.71-2.15c2.33-.39,4.32,1.16,4.28,2.72-.04,1.56-.78,3.31-3.01,3.49s-4.34-.65-3.98-4.06"/>
      <path class="st2" d="M198.15,62.31s3.18-1.9,3.9-1.68c.72.21,1.4,1.46,1.4,2.07s-.25,1.9-1.61,2.12-2.51-.09-3.04-.42c-.54-.33-.73-1.73-.64-2.09"/>
      <path class="st2" d="M220.39,60.61s2.97.59,3.37,1.38c.39.79.14,2.17-1.2,2.41s-2.74.24-3.35-.3-.5-1.83-.21-2.36c.29-.54,1.4-1.13,1.4-1.13"/>
      <path class="st17" d="M219.57,61.81s-.5,1.47.61,1.83c1.11.36,2.71.34,3.22-.43s.24-1.07,0-1.4c-.24-.32-2.59-1.44-3-1.2-.41.24-.82,1.2-.82,1.2"/>
      <path class="st17" d="M198.55,62.31s2.74-1.85,3.26-1.69c.52.15,1.23,1.57,1.27,2.06.03.49-.41,1.91-2.3,1.72s-2.25-1.26-2.23-2.09"/>
      <path class="st2" d="M200.5,61.91s-.24,1.33.43,1.18c.68-.14.57-.82.5-1.18s-.9-.22-.93,0"/>
      <path class="st2" d="M220.89,61.52s-.18,1.27.39,1.23c.57-.04.57-.67.47-1.05-.11-.39-.86-.17-.86-.17"/>
    </g>
  </g>
  <g class="st10">
    <g>
      <path class="st8" d="M220.86,61.9l-1.22.66h0l1.3-.04c-.07-.17-.09-.42-.09-.62"/>
      <path class="st5" d="M221.25,61.69l-.38.21c0,.2,0,.44.09.62h.41l-.12-.82"/>
    </g>
  </g>
  <g class="st12">
    <g>
      <path class="st8" d="M200.46,62.36l-1.39.57,1.43-.15c-.03-.13-.04-.28-.04-.42"/>
      <path class="st5" d="M201.15,62.08l-.69.28c0,.14,0,.29.04.42l.77-.08h0l-.12-.62"/>
    </g>
  </g>
  <g class="st11">
    <g>
      <path class="st7" d="M190.98,151.16s3.68-11.57,6.35-14.15c2.68-2.58,4.95-2.58,4.95-2.58,0,0-5.36,4.2-5.86,6.4s-5.44,10.33-5.44,10.33"/>
      <path class="st7" d="M213.74,142.8s.37-8.58,2.68-9.22c2.3-.65,3.83,0,3.83,0,0,0-3.99,1.29-3.83,3.22.15,1.93-2.68,6-2.68,6"/>
      <path class="st7" d="M230.48,88.46s8.09,21.93-3.38,36.52c0,0,3.14-11.36,3.4-18.26s0-18.26,0-18.26"/>
      <path class="st7" d="M157.66,127.56s-.43,11.18,4.3,16.34,7.52,8.82,8.82,12.26c1.29,3.44,0,6.03,0,6.03,0,0,.64-4.74-4.09-9.04-4.73-4.3-13.76-14.4-9.03-25.59"/>
      <path class="st7" d="M164.54,85.49s-3.87,3.53-4.51,7.96c-.65,4.43,0,6.15,0,6.15,0,0-4.73-9.31,4.51-14.11"/>
      <path class="st7" d="M180.26,221.39s5.11,3.85,7.83,3.4c2.71-.45,3.17-2.65,2.9-3.4l-.28-.76s2.98,4.68,5.06,4.2c2.08-.49,2.71-.51,2.53-2.08-.18-1.57-1.27-3.38-1.27-3.38,0,0,1.8,4.22,2.98,4.25s1.29-.54,1.29-.54c0,0,.24,2.46-3.38,1.94,0,0-1.03,3.62-6.26.21,0,0-5.05,5.59-11.42-3.84"/>
      <path class="st7" d="M202.49,221.31s7.83,1.59,10.45.78,2.44-2.71,2.44-2.71c0,0-.22,2.9,1.61,2.94,1.83.04,3.92-.74,3.92-.74,0,0,0,2.8-6.06,1.72,0,0-5.28,3.2-12.37-1.99"/>
      <path class="st3" d="M82.94,217.78s10.95,1.51,13.48-.07c0,0,4.1.32,4.81-2.17,0,0-2.64.76-3.72.4s-.72-1.54-2.26-2.53-2.53-1.08-2.53-1.08c0,0,3.25,2.53,2.35,3.71-.9,1.18-3.19,1.96-12.13,1.75"/>
      <path class="st7" d="M37.33,218.43s1.51,2.93,3.77,2.66c2.26-.27,3.52-2.66,3.52-2.66,0,0-1.9,3.57,0,4.38s4.79,1.08,5.51-.99c.72-2.08.9-3.39.9-3.39,0,0-.63,3.75.99,4.02,1.63.27,3.61-.61,3.61-.61,0,0-.19,3.45-4.88,2.44,0,0-7.02,3-9.12-.64,0,0-5.46-.78-4.33-5.21"/>
      <path class="st7" d="M53.4,181.14s-2.8,1.52-3.62,3.56c-.81,2.04-1.08,4.39-1.08,4.39,0,0-1.99-6.42,4.7-7.96"/>
      <path class="st7" d="M114.23,124.98s.21,8.29-1.93,13.07l-2.15,4.78s7.1-7.31,4.08-17.85"/>
      <path class="st2" d="M212.4,81.03s.28-1.9,1-2.09c.72-.18,1.81-.26,1.91,0,.09.26,0,.86-.54.96-.53.11-.86.16-1.28.51-.42.34-1.09.62-1.09.62"/>
      <path class="st2" d="M207.92,79.03s-.05-.34.67-.32,1.37.64,1.51,1.19.07,1.36,0,1.32c-.07-.05-.35-.72-.84-1.02-.49-.3-1.7-.3-1.35-1.16"/>
      <path class="st14" d="M71.16,226.66c1.43-1,9.89-2.02,24.18-2.38,14.29-.37,69.13-.76,73.5-1.15,4.38-.38,7.58,1.58,8.46,1.77.88.18-10.75,3.1-20.98,4.85s-57.19,2.62-67.98,2.04-17.18-5.12-17.18-5.12"/>
    </g>
  </g>
  <g>
    <path class="st13" d="M74.07,249.64l-.28,2.02h-8.98v-15.18h2.22c-.18,2.34-.22,9.7-.24,13.4,2.58-.02,5.46-.08,7.28-.24Z"/>
    <path class="st13" d="M77.59,252c-1.4,0-2.22-.76-2.22-2.14,0-1.86,1.84-3.5,5.06-3.88v-.52c0-.94-.56-1.38-1.62-1.38-.92,0-1.74.22-2.64.66v-1.8c.98-.3,1.88-.44,2.72-.44,2,0,3.22.86,3.22,2.76,0,1.66-.08,2.96-.08,3.98s.18,1.84.38,2.42h-1.56c-.12-.56-.18-1.18-.18-1.86-.64,1.56-1.84,2.2-3.08,2.2h0ZM77.17,249.46c0,.62.34.98,1.02.98s2.18-.62,2.24-3.3c-2.24.4-3.26,1.34-3.26,2.32Z"/>
    <path class="st13" d="M85.53,252.1h-1c.1-.96.14-2.3.14-3.38v-12.56l1.98-.18c-.18,1.74-.26,5.42-.26,7.8.92-.74,1.9-1.18,3.24-1.18,2.58,0,3.96,2.06,3.96,4.3,0,2.5-1.56,5.02-4.72,5.02-1.52,0-2.38-.56-3.04-1.26-.1.38-.2.86-.3,1.44h0ZM86.39,247.56c0,1.92.72,3,2.5,3,1.62,0,2.76-1.4,2.76-3.32,0-1.82-.94-3.12-2.74-3.12-1.02,0-1.88.4-2.52.94,0,0,0,2.5,0,2.5Z"/>
    <path class="st13" d="M97.47,245.06v6.6h-1.74v-5.5c0-1.6-.24-2.64-.52-3.3h1.28c.18.34.32.86.36,1.28.66-.92,1.7-1.62,2.76-1.62.56,0,.96.14,1.3.4v1.96c-.56-.4-1-.56-1.62-.56-.7,0-1.36.28-1.82.74h0Z"/>
    <path class="st13" d="M103.99,252c-1.4,0-2.22-.76-2.22-2.14,0-1.86,1.84-3.5,5.06-3.88v-.52c0-.94-.56-1.38-1.62-1.38-.92,0-1.74.22-2.64.66v-1.8c.98-.3,1.88-.44,2.72-.44,2,0,3.22.86,3.22,2.76,0,1.66-.08,2.96-.08,3.98s.18,1.84.38,2.42h-1.56c-.12-.56-.18-1.18-.18-1.86-.64,1.56-1.84,2.2-3.08,2.2h0ZM103.57,249.46c0,.62.34.98,1.02.98s2.18-.62,2.24-3.3c-2.24.4-3.26,1.34-3.26,2.32Z"/>
    <path class="st13" d="M114.43,251.9c-2.62,0-4.02-1.98-4.02-4.32s1.62-5,4.8-5c1.02,0,1.78.28,2.4.74v-7.16l1.96-.18c-.2,2.8-.24,10.5-.24,13,0,1.02.12,2.06.28,2.68h-1.2c-.1-.34-.18-.78-.22-1.2-.94.88-2.18,1.44-3.76,1.44ZM117.61,247c0-2.02-.72-3.04-2.48-3.04s-2.78,1.5-2.78,3.38.98,3.06,2.8,3.06c.98,0,1.86-.44,2.46-.96v-2.44Z"/>
    <path class="st13" d="M130.71,247.28c0,2.78-1.98,4.72-4.68,4.72s-4.66-1.98-4.66-4.72,1.96-4.78,4.68-4.78,4.66,2,4.66,4.78ZM123.29,247.28c0,1.9,1.16,3.34,2.82,3.34s2.66-1.38,2.66-3.3-1.12-3.4-2.8-3.4-2.68,1.38-2.68,3.36Z"/>
    <path class="st13" d="M134.51,245.06v6.6h-1.74v-5.5c0-1.6-.24-2.64-.52-3.3h1.28c.18.34.32.86.36,1.28.66-.92,1.7-1.62,2.76-1.62.56,0,.96.14,1.3.4v1.96c-.56-.4-1-.56-1.62-.56-.7,0-1.36.28-1.82.74h0Z"/>
    <path class="st13" d="M138.99,250.9v-1.1c.76.56,1.54.82,2.44.82.98,0,1.52-.38,1.52-1.14,0-1.72-3.7-1.28-3.7-4.2,0-1.62,1.36-2.78,3.1-2.78.88,0,1.44.14,1.92.38v1.84c-.52-.42-1.1-.68-1.86-.68-.86,0-1.42.42-1.42,1.14,0,1.74,3.76,1.38,3.76,4.18,0,1.88-1.6,2.64-3.14,2.64-1.1,0-1.94-.4-2.62-1.1h0Z"/>
    <path class="st13" d="M152.35,242.86h2.2c-1.4,1.62-3.06,3.44-4.02,3.98,1.04.8,3.2,3.24,4.2,4.82h-2.34c-.2-.8-3.32-4.32-3.94-4.36-.02,1-.04,3.06-.04,4.36h-1.68v-15.5l1.98-.18c-.1,1.52-.26,6-.3,10.98.62-.06,2.86-2.58,3.94-4.1Z"/>
    <path class="st13" d="M159.13,251.36c-.74-2.28-2.42-6.22-3.64-8.5h2.08c.72,1.64,2.04,4.92,2.52,6.58.76-1.78,1.92-4.68,2.46-6.58h1.82c-.78,2.12-2.4,5.8-3.44,8.14-.8,1.86-2.14,4.72-2.86,6.66h-1.84c.82-2.08,1.88-4.32,2.9-6.3h0ZM160.07,241.38l-1.02-.08,2.52-4.22h1.92l-3.42,4.3Z"/>
    <path class="st13" d="M172.75,245.06v6.6h-1.74v-5.5c0-1.6-.24-2.64-.52-3.3h1.28c.18.34.32.86.36,1.28.66-.92,1.7-1.62,2.76-1.62.56,0,.96.14,1.3.4v1.96c-.56-.4-1-.56-1.62-.56-.7,0-1.36.28-1.82.74h0Z"/>
    <path class="st13" d="M178.73,247.44c0,1.92,1.28,2.92,3.22,2.92.9,0,1.68-.22,2.4-.66v1.1c-.74.72-1.84,1.2-2.98,1.2-2.5,0-4.26-1.56-4.26-4.24,0-3.16,2.16-5.26,4.86-5.26,1.92,0,2.92,1.24,2.92,2.68,0,.6-.18,1.2-.54,1.68l-5.54-.18c-.06.28-.08.52-.08.76h0ZM181.67,243.98c-1.02,0-2.06.52-2.58,1.66l4.26-.06c0-1.02-.56-1.6-1.68-1.6Z"/>
    <path class="st13" d="M189.61,239.92c-.08,1.24-.08,2.24-.1,2.94h3.04v1.44l-3.06-.06c-.08,1.32-.08,3.14-.08,4.48,0,1.18.52,1.68,1.38,1.68.64,0,1.34-.2,1.76-.54v1.14c-.68.66-1.5,1-2.52,1-1.42,0-2.32-.76-2.32-2.82v-4.98h-1.78v-.72c.52-.12,1.3-.36,1.78-.62v-2.58l1.9-.36h0Z"/>
    <path class="st13" d="M196.23,245.06v6.6h-1.74v-5.5c0-1.6-.24-2.64-.52-3.3h1.28c.18.34.32.86.36,1.28.66-.92,1.7-1.62,2.76-1.62.56,0,.96.14,1.3.4v1.96c-.56-.4-1-.56-1.62-.56-.7,0-1.36.28-1.82.74h0Z"/>
    <path class="st13" d="M201.99,241.38l-1.02-.08,2.52-4.22h1.92l-3.42,4.3ZM201.25,242.86l1.92-.28c-.18,1.62-.22,6-.22,9.08h-1.7v-8.8Z"/>
    <path class="st13" d="M209.65,251.8h-1.38c-.86-2.82-2.54-6.66-3.76-8.94h2.08c.8,1.76,2.04,4.96,2.52,6.6.78-1.82,1.94-4.72,2.44-6.6h1.84c-.76,2.1-2.66,6.22-3.74,8.94Z"/>
    <path class="st13" d="M216.91,245.06v6.6h-1.74v-5.5c0-1.6-.24-2.64-.52-3.3h1.28c.18.34.32.86.36,1.28.66-.92,1.7-1.62,2.76-1.62.56,0,.96.14,1.3.4v1.96c-.56-.4-1-.56-1.62-.56-.7,0-1.36.28-1.82.74h0Z"/>
  </g>
</svg>